<svg xmlns="http://www.w3.org/2000/svg" viewBox="0 0 863.5 700.17"><title>Artboard 1</title><path d="M363.12,2.72l-.7-.71-3.7,3.62L355,2l-.7.71L358.71,7h0Z" fill="#9d2235"/><path d="M356.92,54.77l-.72.7,3.62,3.7-3.62,3.71.72.7,4.31-4.4h0Z" fill="#9d2235"/><path d="M363.12,21.83l-.7-.72-3.7,3.62L355,21.11l-.7.72,4.4,4.31h0Z"/><path d="M363.12,38.41l-.7-.71-3.7,3.62L355,37.7l-.7.71,4.4,4.31h0Z" fill="#d1d3d4"/><path d="M317.19,448.88V436.8l8.38,13.48h.82V435.55l1.4-1.39h-4.21l1.4,1.39V445.8l-7.27-11.64h-3.34l1.37,1.39v13.34l-1.37,1.4h4.21l-1.39-1.4Zm-12.45.51c-3.23,0-4.34-3.85-4.34-7.19s1.12-7.19,4.34-7.19,4.37,3.85,4.37,7.19-1.12,7.19-4.37,7.19m-6.45-7.18c0,4.1,2.32,8.41,6.45,8.41s6.48-4.31,6.48-8.41-2.31-8.41-6.48-8.41-6.45,4.31-6.45,8.41M291,449V435.35h3.06l1.72,1.73v-2.92H284.45v2.92l1.75-1.73h3V449L288,450.26h4.32L291,449Zm-11.94-6v5.19a3.45,3.45,0,0,1-2.65,1.15c-3.58,0-5.38-3.6-5.38-7.07s2.27-7.07,5.38-7.07a2.45,2.45,0,0,1,2,.77l1.78,1.74v-2.79a7.29,7.29,0,0,0-3.74-.93c-4.4,0-7.49,3.94-7.49,8.28s3.09,8.27,7.49,8.27a7,7,0,0,0,4.42-1.19v-6.35l1.26-1.27h-4.32l1.27,1.27Zm-23.9,5.94V436.8l8.48,13.48h.73V435.55l1.39-1.39h-4.21l1.39,1.39v10.25l-7.26-11.64h-3.34l1.37,1.39v13.34l-1.37,1.4h4.21l-1.4-1.4Zm-11.55-14.73,1.28,1.28V449l-1.28,1.27H248L246.68,449V435.43l1.28-1.28Zm-14.32,8h6.78V449l-1.28,1.27h4.34L237.85,449V435.45l1.29-1.28h-4.34l1.28,1.28V441H229.3v-5.54l1.29-1.28h-4.32l1.26,1.28V449l-1.26,1.27h4.32L229.3,449v-6.81ZM222,445.79a3.58,3.58,0,0,0-1.5-3.09l-3.28-2.38a3.8,3.8,0,0,1-1.78-2.77,2.28,2.28,0,0,1,2.32-2.3,9.49,9.49,0,0,1,1,.19l1.42,1.53,1.5-2.24-3.2-.6a2.61,2.61,0,0,0-.76-.08,4.06,4.06,0,0,0-4.1,4,4.65,4.65,0,0,0,2.07,3.68l3.3,2.38a2.74,2.74,0,0,1,1.15,2.35,2.67,2.67,0,0,1-2.67,2.85,2.6,2.6,0,0,1-1.12-.23l-1.53-1.8-1.39,2.52,3.09.6a5.79,5.79,0,0,0,1,.1,4.58,4.58,0,0,0,4.47-4.67m-18-8.06,2.21,6.67h-4.51l2.3-6.67ZM200.1,449l1.17-3.41h5.33l1.12,3.41-1.26,1.26H211L209.74,449l-5-14.81h-.82L198.79,449l-1.31,1.31h3.88L200.11,449ZM183,450.29l3.69-11.66,3.58,11.66H191l4.67-14.83,1.31-1.28h-3.88l1.26,1.26L191,446.58l-3.31-11.15,1.26-1.26h-4.56l1.29,1.28.33,1.06-3.09,10.06-3.3-11.15,1.26-1.26h-4.56l1.31,1.28,4.54,14.83H183Zm-23.88-9.66-.61.59.07.23h1.88c-.29,2-.57,3.81-1,6.68-.61,4.24-1.13,5.74-1.57,6.1a.83.83,0,0,1-.57.2,2.93,2.93,0,0,1-1-.34.53.53,0,0,0-.63.16,1.39,1.39,0,0,0-.38.77c0,.45.59.69,1,.69a3.8,3.8,0,0,0,2.5-1.56c.77-.95,1.81-3.15,2.7-8.28.16-1,.34-1.9.73-4.4l2.31-.23.49-.59H162.3c.68-4.2,1.25-5.47,2.22-5.47a2.45,2.45,0,0,1,1.75.75.46.46,0,0,0,.63,0,1.32,1.32,0,0,0,.46-.84c0-.45-.59-1-1.37-1a5,5,0,0,0-3.65,1.9,10.3,10.3,0,0,0-1.79,4.64h-1.48Zm-10.21,5.95c0-3.36,1.7-5.18,2.41-5.47a2,2,0,0,1,.75-.19c1.13,0,1.79.85,1.79,2.6,0,2.95-1.5,5.63-2.45,5.94a2.46,2.46,0,0,1-.7.16c-1.28,0-1.8-1.35-1.8-3.06m3.88-6.48a5.42,5.42,0,0,0-2.45.81,7.11,7.11,0,0,0-3.27,6.22c0,1.59.75,3.36,2.86,3.36a5.81,5.81,0,0,0,3.38-1.52,8.12,8.12,0,0,0,2.38-5.72c0-1.89-1-3.15-2.9-3.15m-26.3-4.62,4.07,7.35V449l-1.28,1.28h4.34L132.3,449v-6.2l4.15-7.32,1.34-1.31h-4l1.26,1.26-3.39,6-3.23-6,1.26-1.26h-4.56l1.31,1.28ZM118,449V435.38H121l1.72,1.73v-2.92H111.4v2.92l1.75-1.72h3V449l-1.25,1.28h4.31L118,449Zm-14.62-14.84,1.28,1.28V449l-1.28,1.28h4.35L106.4,449V435.46l1.28-1.28h-4.35Zm-4.67,11.64a3.6,3.6,0,0,0-1.5-3.1l-3.28-2.38a3.79,3.79,0,0,1-1.78-2.76,2.28,2.28,0,0,1,2.32-2.3,9.36,9.36,0,0,1,1,.19L96.89,437l1.5-2.24-3.19-.6a2.52,2.52,0,0,0-.76-.08,4.05,4.05,0,0,0-4.1,4,4.66,4.66,0,0,0,2.08,3.69l3.31,2.38a2.74,2.74,0,0,1,1.15,2.35,2.67,2.67,0,0,1-2.68,2.86,2.62,2.62,0,0,1-1.12-.23l-1.53-1.8-1.39,2.52,3.09.6a5.78,5.78,0,0,0,1,.1,4.61,4.61,0,0,0,4.48-4.69M78,435.39h2A3.17,3.17,0,0,1,83,438.61a3,3,0,0,1-3.09,3H78v-6.21ZM78,449v-6.23h2.43l3.9,7.51H87L85.72,449l-3.6-6.61a4.23,4.23,0,0,0,3-3.77c0-2.73-2.54-4.45-5.22-4.45h-5l1.26,1.28V449l-1.26,1.27h4.31L78,449Zm-7.24,1.27v-2.95L69,449.09H64.11v-6.77h3.63L69,443.6v-3.76l-1.29,1.28H64.11v-5.74H69l1.72,1.73v-2.92H61.08l1.26,1.27V449l-1.26,1.27Zm-20.9-16.11H45.26l1.31,1.28L51.1,450.3h.82l4.67-14.83,1.31-1.28H54l1.26,1.26-3.42,11.14-3.3-11.14,1.26-1.25Zm-12.51,0,1.28,1.28V449l-1.28,1.28h4.34L40.37,449V435.47l1.28-1.28Zm-15,14.73V436.84L31,450.31h.56V435.58l1.39-1.39H28.7l1.39,1.39v10.25l-7.26-11.64H19.5l1.37,1.39v13.34l-1.37,1.4h4.2l-1.39-1.4ZM4.17,446a4.8,4.8,0,0,0,5,4.67c2.62,0,5.22-1.94,5.22-4.67V435.58l1.37-1.39H11.55l1.39,1.39V446a3.31,3.31,0,0,1-3.33,3.33A3.47,3.47,0,0,1,6.06,446V435.58l1.4-1.39H2.78l1.39,1.39V446Z" fill="#fff"/><path d="M591.55,5.07l-8.38,17.63h1.11l8.38-17.63Z" fill="#d2d3d4"/><path d="M618.56,3.58,609.44,36H610l9.12-32.37Z" fill="#919396"/><path d="M664.5,0l-30,111.06h1.09L665.59,0Z" fill="#fff"/><path d="M543.09,13.4a13.4,13.4,0,1,1,13.4,13.4A13.41,13.41,0,0,1,543.09,13.4Zm3,0A10.39,10.39,0,1,0,556.5,3,10.4,10.4,0,0,0,546.1,13.4Z" fill="#fff"/><rect x="536.12" y="25.14" width="13.45" height="3.36" transform="translate(139.72 391.36) rotate(-44.95)" fill="#fff"/><path d="M298.94,21.09a10.55,10.55,0,1,1,10.54-10.55,10.56,10.56,0,0,1-10.54,10.55Zm0-19.18a8.63,8.63,0,1,0,8.63,8.63,8.64,8.64,0,0,0-8.63-8.63Z"/><rect x="295.11" y="9.59" width="7.67" height="1.92"/><rect x="297.98" y="6.71" width="1.92" height="7.67"/><path d="M123.48,580.35a14.12,14.12,0,1,1,14.12-14.11,14.13,14.13,0,0,1-14.12,14.11Zm0-25.68A11.55,11.55,0,1,0,135,566.22a11.57,11.57,0,0,0-11.55-11.55Z" fill="#fff"/><rect x="118.35" y="564.94" width="10.27" height="2.56" fill="#fff"/><rect x="122.2" y="561.09" width="2.57" height="10.27" fill="#fff"/><path d="M298.94,99.77a10.55,10.55,0,1,1,10.54-10.55,10.56,10.56,0,0,1-10.54,10.55Zm0-19.18a8.63,8.63,0,1,0,8.63,8.63,8.64,8.64,0,0,0-8.63-8.63Z" fill="#fff"/><rect x="295.11" y="88.26" width="7.67" height="1.92" fill="#fff"/><rect x="297.98" y="85.39" width="1.92" height="7.67" fill="#fff"/><rect x="409.98" y="116.83" width="3.65" height="16.42" fill="#fed800"/><path d="M291.49,43.22a10.55,10.55,0,1,1,14.91,0,10.56,10.56,0,0,1-14.91,0ZM305,29.66a8.63,8.63,0,1,0,0,12.2,8.64,8.64,0,0,0,0-12.2Z" fill="#231f20"/><rect x="295.1" y="34.79" width="7.67" height="1.92" fill="#231f20"/><path d="M291.49,69.4a10.55,10.55,0,1,1,14.91,0,10.56,10.56,0,0,1-14.91,0ZM305,55.84A8.63,8.63,0,1,0,305,68a8.64,8.64,0,0,0,0-12.2Z" fill="#fed800"/><rect x="295.09" y="61" width="7.67" height="1.92" fill="#fed800"/><path d="M325.76,21.09A10.55,10.55,0,1,1,336.3,10.55a10.56,10.56,0,0,1-10.54,10.55Zm0-19.18a8.63,8.63,0,1,0,8.63,8.63,8.64,8.64,0,0,0-8.63-8.63Z" fill="#9d2235"/><rect x="321.93" y="9.59" width="7.67" height="1.92" fill="#9d2235"/><rect x="324.8" y="6.71" width="1.92" height="7.67" fill="#9d2235"/><path d="M318.31,43.22a10.55,10.55,0,1,1,14.91,0,10.57,10.57,0,0,1-14.91,0Zm13.56-13.56a8.63,8.63,0,1,0,0,12.2,8.64,8.64,0,0,0,0-12.2Z" fill="#9d2235"/><rect x="321.91" y="34.83" width="7.67" height="1.92" fill="#9d2235"/><rect x="14.63" y="492.61" width="3.63" height="12.6" transform="translate(-348.02 157.81) rotate(-45.01)" fill="#9d2235"/><rect x="10.22" y="503.5" width="12.6" height="3.62" transform="translate(-352.47 159.68) rotate(-45)" fill="#9d2235"/><path d="M4.42,576a15.12,15.12,0,1,1,21.39,0A15.14,15.14,0,0,1,4.42,576Zm19.45-19.45a12.37,12.37,0,1,0,0,17.5A12.39,12.39,0,0,0,23.87,556.56Z" fill="#9d2235"/><path d="M5.51,643.59a15.58,15.58,0,1,1,22,0,15.6,15.6,0,0,1-22,0Zm20-20a12.75,12.75,0,1,0,0,18,12.75,12.75,0,0,0,0-18Z" fill="#9d2235"/><rect x="16.47" y="625.2" width="2.83" height="9.85" transform="translate(-440.39 197.27) rotate(-45.01)" fill="#9d2235"/><rect x="12.92" y="633.72" width="9.86" height="2.83" transform="translate(-444.12 198.91) rotate(-45.03)" fill="#9d2235"/><path d="M53.86,643.59a15.58,15.58,0,1,1,22,0,15.6,15.6,0,0,1-22,0Zm20-20a12.75,12.75,0,1,0,0,18,12.75,12.75,0,0,0,0-18Z" fill="#fff"/><rect x="64.74" y="625.16" width="2.83" height="9.86" transform="translate(-426.08 231.22) rotate(-44.99)" fill="#fff"/><rect x="61.33" y="633.62" width="9.85" height="2.83" transform="translate(-429.86 233.12) rotate(-45.03)" fill="#fff"/><path d="M263.49,23.28V19h4.12v4.23h4.25v-5.4l-6.21-5.71-6.27,5.74v5.36Z" fill="#5a5b5d"/><path d="M272.69,17.22l-7.07-6.47-7.08,6.47-1.44-1.58,8.52-7.79,8.52,7.79Z" fill="#5a5b5d"/><rect x="138.31" y="236.52" width="25.52" height="25.52" fill="#cd332d"/><path d="M149.3,239h-1.16l-.79,3-.82-3h-1.21l.74,2.14a18.75,18.75,0,0,1,.7,2.43v3.11h1.15v-3.11L149.3,239Zm3.07,5.82v-2a2.26,2.26,0,0,0-.32-1.35,1.54,1.54,0,0,0-2.42,0,2.22,2.22,0,0,0-.32,1.35v2a2.21,2.21,0,0,0,.32,1.35,1.54,1.54,0,0,0,2.42,0,2.24,2.24,0,0,0,.33-1.35Zm-1,.2c0,.53-.16.79-.49.79s-.49-.26-.49-.79v-2.41c0-.53.16-.79.49-.79s.49.26.49.79V245Zm4.87,1.65V241h-1v4.37c-.23.32-.45.49-.65.49s-.22-.08-.24-.24a2.19,2.19,0,0,1,0-.4V241h-1v4.52a2.89,2.89,0,0,0,.09.85.63.63,0,0,0,.67.43,1.66,1.66,0,0,0,1.18-.7v.62h1Z" fill="#fff"/><path d="M159.56,253.64a18.1,18.1,0,0,1-.3,4,2.15,2.15,0,0,1-1.84,1.67,57.33,57.33,0,0,1-6.36.23,56.84,56.84,0,0,1-6.36-.23,2.14,2.14,0,0,1-1.83-1.67,27.21,27.21,0,0,1,0-8,2.14,2.14,0,0,1,1.83-1.67,57.31,57.31,0,0,1,6.36-.24,57.32,57.32,0,0,1,6.36.24,2.14,2.14,0,0,1,1.83,1.67,17.29,17.29,0,0,1,.31,4Z" fill="#fff"/><path d="M147.43,250.78v-1.07h-3.58v1.07h1.21v6.53h1.14v-6.53h1.23Zm2.07,6.53v-.62a1.64,1.64,0,0,1-1.17.7.63.63,0,0,1-.66-.42,2.9,2.9,0,0,1-.09-.84v-4.48h1v4.17a3,3,0,0,0,0,.4c0,.16.1.24.24.24s.42-.16.65-.48v-4.33h1v5.66h-1Zm3.9-1.62c0,.51-.15.76-.45.76a.73.73,0,0,1-.51-.25v-3.45a.74.74,0,0,1,.51-.25c.29,0,.45.26.45.77v2.42Zm1-.08v-2.25a4.35,4.35,0,0,0-.1-1.14.81.81,0,0,0-.82-.64,1.39,1.39,0,0,0-1.06.61v-2.48h-1v7.6h1v-.55a1.4,1.4,0,0,0,1.06.63.81.81,0,0,0,.82-.64,4.65,4.65,0,0,0,.1-1.15Zm2.85-1.8h-1v-.52c0-.52.17-.79.51-.79s.51.26.51.79v.52Zm1,1.69v-.15h-1a6.41,6.41,0,0,1,0,.69.44.44,0,0,1-.46.41c-.35,0-.52-.26-.52-.79v-1h2.05V253.5a2.23,2.23,0,0,0-.32-1.33,1.43,1.43,0,0,0-1.21-.58,1.46,1.46,0,0,0-1.23.58,2.2,2.2,0,0,0-.32,1.33v2a2.19,2.19,0,0,0,.33,1.33,1.47,1.47,0,0,0,1.24.58,1.42,1.42,0,0,0,1.24-.61,1.45,1.45,0,0,0,.24-.61c0-.1,0-.33,0-.66Z" fill="#cd332d"/><rect x="276.69" y="236.52" width="25.52" height="25.52" fill="#cc3732"/><path d="M289,240.52a3.07,3.07,0,0,1,.54.43,4.4,4.4,0,0,1,.56.73,4.85,4.85,0,0,1,.47,1,4.54,4.54,0,0,1,.16,1.3,3.84,3.84,0,0,1-.6,2.18,6.52,6.52,0,0,1-.6.73q-.35.34-.75.68a3.39,3.39,0,0,0-.42.53,1.18,1.18,0,0,0-.23.72,1,1,0,0,0,.23.66,5.45,5.45,0,0,0,.38.43l.86.71a8.7,8.7,0,0,1,1.41,1.45,3.72,3.72,0,0,1,.6,2.11,4.26,4.26,0,0,1-1.63,3.27,7.41,7.41,0,0,1-4.89,1.52,6.18,6.18,0,0,1-4-1.14,3.08,3.08,0,0,1-1.33-2.49,3.55,3.55,0,0,1,.43-1.57,3.71,3.71,0,0,1,1.52-1.52,7.93,7.93,0,0,1,2.59-.94,20.06,20.06,0,0,1,2.24-.22,5.39,5.39,0,0,1-.49-.77,1.8,1.8,0,0,1-.25-1,1.43,1.43,0,0,1,.09-.56l.15-.44a7.17,7.17,0,0,1-.81,0,3.9,3.9,0,0,1-3.1-1.28,3.82,3.82,0,0,1-1.11-2.72,4.64,4.64,0,0,1,1.58-3.4,5.53,5.53,0,0,1,2.25-1.17,10.87,10.87,0,0,1,2.17-.24h5.08l-1.57.92H289l0,0Zm1,14.64a2.46,2.46,0,0,0-.63-1.68,15.56,15.56,0,0,0-2.09-1.68,5.1,5.1,0,0,0-.57,0,6.52,6.52,0,0,0-1,0,11,11,0,0,0-1.61.36l-.55.22a3.47,3.47,0,0,0-.72.46,2.68,2.68,0,0,0-.59.77,2.29,2.29,0,0,0-.28,1.17A2.62,2.62,0,0,0,283.2,257a5.26,5.26,0,0,0,3.16.89,4.39,4.39,0,0,0,2.74-.79,2.42,2.42,0,0,0,.93-2Zm-3.54-7.46a2.39,2.39,0,0,0,1.68-.72,2.63,2.63,0,0,0,.42-1,8.52,8.52,0,0,0,.06-.86,6.66,6.66,0,0,0-.77-3,3.36,3.36,0,0,0-1-1.19,2.45,2.45,0,0,0-1.38-.46,2.25,2.25,0,0,0-1.72.83,3.17,3.17,0,0,0-.55,1.89,6,6,0,0,0,.81,2.87,4,4,0,0,0,1,1.18,2.14,2.14,0,0,0,1.39.48Z" fill="#fff"/><path d="M299.07,242.38H296.4v-2.67h-1.29v2.67h-2.67v1.29h2.67v2.67h1.29v-2.67h2.67Z" fill="#fff"/><rect x="230.62" y="236.58" width="25.4" height="25.4" fill="#00b386"/><path d="M246,244.78c0-1.18,2.32-1.79,2.32.2a12.58,12.58,0,0,1-.39,3h2.41a21.53,21.53,0,0,0,.18-3.52c0-3.67-6.76-4.28-6.76.37a6.23,6.23,0,0,0,3.15,5.88,13.28,13.28,0,0,1-3.15,4.06c-5.05-4.12-4.56-11.09-4.56-11.09H237c0,9.41,5,12.71,5.63,13.2a1.52,1.52,0,0,0,1.47.41c.73,0,2.4-1.71,4.44-4.89.2-.31.37-.6.53-.89a7.69,7.69,0,0,0,1.46.2v-2a4.71,4.71,0,0,1-4.53-5Z" fill="#fff"/><rect x="322.81" y="236.52" width="25.52" height="25.52" fill="#32669a"/><path d="M322.81,262v0h25.55V236.5H322.78v25.57h0v0h0V236.55h25.47V262h-25.5v0h0Z" fill="#231f20"/><path d="M329.33,240.88h12.49A2.15,2.15,0,0,1,344,243v12.49a2.16,2.16,0,0,1-2.15,2.16H329.33a2.16,2.16,0,0,1-2.16-2.16V243a2.18,2.18,0,0,1,2.17-2.16Zm10.08,1.87a.76.76,0,0,0-.76.76v1.81a.76.76,0,0,0,.76.76h1.9a.77.77,0,0,0,.76-.76v-1.81a.77.77,0,0,0-.76-.76Zm2.67,5.24H340.6a4.74,4.74,0,0,1,.23,1.44,5.23,5.23,0,0,1-10.45,0,4.89,4.89,0,0,1,.22-1.44H329v7.1a.67.67,0,0,0,.67.67h11.71a.67.67,0,0,0,.67-.67V248h0Zm-6.49-2a3.27,3.27,0,1,0,3.38,3.27,3.33,3.33,0,0,0-3.38-3.27Z" fill="#fff"/><rect x="92.19" y="236.52" width="25.52" height="25.52" fill="#ca2128"/><path d="M104.95,240.05a9.23,9.23,0,0,0-3.71,17.68,8.08,8.08,0,0,1,.16-2.12l1.19-5a3.54,3.54,0,0,1-.29-1.46c0-1.37.79-2.39,1.78-2.39a1.24,1.24,0,0,1,1.25,1.39,19.94,19.94,0,0,1-.82,3.27,1.43,1.43,0,0,0,1.46,1.78c1.75,0,2.93-2.25,2.93-4.91,0-2-1.36-3.54-3.84-3.54a4.37,4.37,0,0,0-4.54,4.42,2.67,2.67,0,0,0,.61,1.81.44.44,0,0,1,.13.51l-.19.74a.32.32,0,0,1-.46.23,3.55,3.55,0,0,1-1.89-3.52c0-2.62,2.21-5.77,6.6-5.77a5.52,5.52,0,0,1,5.85,5.29c0,3.62-2,6.33-5,6.33a2.65,2.65,0,0,1-2.25-1.15s-.54,2.13-.65,2.54a7.73,7.73,0,0,1-.93,2A9.23,9.23,0,1,0,104.94,240Z" fill="#fff"/><rect y="236.58" width="25.4" height="25.4" fill="#3b5999"/><path d="M22.15,251.79l.5-3.89H18.8v-2.48c0-1.12.31-1.9,1.93-1.9h2.06V240a27.61,27.61,0,0,0-3-.15c-3,0-5,1.81-5,5.14v2.87H11.43v3.89h3.36v10h4v-10Z" fill="#fff"/><rect x="184.44" y="236.52" width="25.52" height="25.52" fill="#017bb6"/><path d="M188.8,246.38h3.6V258h-3.6Zm1.81-5.76a2.08,2.08,0,1,1-2.09,2.08,2.09,2.09,0,0,1,2.09-2.08" fill="#fff"/><path d="M194.66,246.38h3.45V248h0a3.78,3.78,0,0,1,3.4-1.87c3.64,0,4.31,2.4,4.31,5.51v6.35h-3.59v-5.63c0-1.34,0-3.07-1.87-3.07s-2.16,1.46-2.16,3v5.72h-3.59V246.39Z" fill="#fff"/><rect x="46.06" y="236.52" width="25.52" height="25.52" fill="#2aa8e0"/><path d="M67.33,244a7,7,0,0,1-2,.55,3.49,3.49,0,0,0,1.54-1.93,7,7,0,0,1-2.22.85,3.49,3.49,0,0,0-6,3.18A9.91,9.91,0,0,1,51.5,243a3.5,3.5,0,0,0,1.08,4.66,3.47,3.47,0,0,1-1.58-.44v0a3.49,3.49,0,0,0,2.8,3.42,3.49,3.49,0,0,1-1.58.06,3.49,3.49,0,0,0,3.26,2.43,7,7,0,0,1-4.33,1.49,7.14,7.14,0,0,1-.83-.05,9.93,9.93,0,0,0,15.28-8.36c0-.15,0-.3,0-.45A7.31,7.31,0,0,0,67.33,244Z" fill="#fff"/><path d="M151.38,206c.33,0,.49-.26.49-.79v-2.41c0-.53-.16-.79-.49-.79s-.5.26-.5.79v2.41c0,.53.17.79.5.79Z" fill="#fff"/><path d="M138.86,222.23h25.52V196.71H138.86v25.52Zm14.9-21.07h1v4.21a2.35,2.35,0,0,0,0,.4c0,.16.1.24.24.24s.43-.16.65-.49v-4.37h1v5.72h-1v-.62a1.67,1.67,0,0,1-1.18.7.64.64,0,0,1-.67-.43,2.88,2.88,0,0,1-.09-.85v-4.51h0ZM149.85,203a2.22,2.22,0,0,1,.32-1.35,1.54,1.54,0,0,1,2.42,0,2.26,2.26,0,0,1,.32,1.35v2a2.25,2.25,0,0,1-.32,1.35,1.54,1.54,0,0,1-2.42,0,2.22,2.22,0,0,1-.32-1.35v-2Zm-2.77-3.82.82,3,.79-3h1.16l-1.38,4.57v3.11h-1.15v-3.11a19,19,0,0,0-.7-2.43l-.74-2.14h1.21Zm-3.65,10.61a2.14,2.14,0,0,1,1.83-1.67,57.1,57.1,0,0,1,6.36-.24,57.09,57.09,0,0,1,6.36.24,2.14,2.14,0,0,1,1.83,1.67,27.4,27.4,0,0,1,0,8,2.15,2.15,0,0,1-1.84,1.67,57.35,57.35,0,0,1-6.36.24,57.34,57.34,0,0,1-6.36-.24,2.14,2.14,0,0,1-1.83-1.67,18.1,18.1,0,0,1-.3-4,19.16,19.16,0,0,1,.32-4Z" fill="#fff"/><path d="M148.87,217.57a1.64,1.64,0,0,0,1.17-.7v.62h1v-5.66h-1v4.33c-.23.32-.44.48-.65.48s-.21-.08-.24-.24a3,3,0,0,1,0-.4v-4.17h-1v4.48a2.92,2.92,0,0,0,.09.84.62.62,0,0,0,.66.42Z" fill="#fff"/><path d="M153,216.94a1.4,1.4,0,0,0,1.06.63.81.81,0,0,0,.82-.64,4.54,4.54,0,0,0,.1-1.14v-2.26a4.39,4.39,0,0,0-.1-1.14.81.81,0,0,0-.82-.64,1.39,1.39,0,0,0-1.06.61v-2.48h-1v7.6h1v-.55Zm0-4a.74.74,0,0,1,.51-.25c.3,0,.45.26.45.77v2.42c0,.51-.15.76-.45.76a.74.74,0,0,1-.51-.25v-3.45Z" fill="#fff"/><path d="M145.6,217.49h1.14V211H148v-1.07h-3.58V211h1.21Z" fill="#fff"/><path d="M157.34,217.57a1.42,1.42,0,0,0,1.24-.61,1.47,1.47,0,0,0,.24-.62c0-.1,0-.33,0-.66v-.15h-1a6.92,6.92,0,0,1,0,.69.44.44,0,0,1-.46.41c-.35,0-.52-.26-.52-.79v-1h2.05v-1.17a2.22,2.22,0,0,0-.32-1.33,1.42,1.42,0,0,0-1.21-.58,1.46,1.46,0,0,0-1.23.58,2.2,2.2,0,0,0-.32,1.33v2a2.19,2.19,0,0,0,.33,1.33,1.46,1.46,0,0,0,1.25.59Zm-.55-4.1c0-.52.17-.79.51-.79s.51.26.51.79V214h-1v-.52Z" fill="#fff"/><path d="M289.11,206.17a8.45,8.45,0,0,0,.06-.86,6.71,6.71,0,0,0-.77-3,3.41,3.41,0,0,0-1-1.19,2.44,2.44,0,0,0-1.38-.46,2.24,2.24,0,0,0-1.72.83,3.17,3.17,0,0,0-.55,1.89,6,6,0,0,0,.81,2.87,4,4,0,0,0,1,1.18,2.24,2.24,0,0,0,1.41.49,2.4,2.4,0,0,0,1.68-.72,2.91,2.91,0,0,0,.4-1Z" fill="#fff"/><path d="M283.74,217.19a5.26,5.26,0,0,0,3.16.89,4.37,4.37,0,0,0,2.74-.79,2.4,2.4,0,0,0,.92-1.95,2.47,2.47,0,0,0-.63-1.69,15.59,15.59,0,0,0-2.09-1.68,5.54,5.54,0,0,0-.57,0,6.57,6.57,0,0,0-1,.05,11,11,0,0,0-1.62.36l-.55.22a3.39,3.39,0,0,0-.72.46,2.65,2.65,0,0,0-.59.77,2.28,2.28,0,0,0-.28,1.16,2.62,2.62,0,0,0,1.21,2.21Z" fill="#fff"/><path d="M277.23,222.23h25.52V196.71H277.23v25.52ZM293,202.56h2.66v-2.67h1.29v2.67h2.67v1.29h-2.67v2.67h-1.29v-2.67H293v-1.29ZM280.8,214a3.73,3.73,0,0,1,1.52-1.52,7.93,7.93,0,0,1,2.59-.94,20.3,20.3,0,0,1,2.24-.22,5.51,5.51,0,0,1-.49-.77,1.77,1.77,0,0,1-.25-1,1.43,1.43,0,0,1,.09-.56l.16-.44a7.21,7.21,0,0,1-.82,0,3.91,3.91,0,0,1-3.1-1.28,3.82,3.82,0,0,1-1.12-2.72,4.63,4.63,0,0,1,1.58-3.4,5.55,5.55,0,0,1,2.25-1.17,10.94,10.94,0,0,1,2.17-.24h5.08l-1.57.92h-1.57a3.2,3.2,0,0,1,.54.43,4.4,4.4,0,0,1,.56.73,4.84,4.84,0,0,1,.47,1,4.54,4.54,0,0,1,.16,1.3,3.84,3.84,0,0,1-.6,2.18,6.88,6.88,0,0,1-.6.73l-.75.68a3.36,3.36,0,0,0-.42.53,1.19,1.19,0,0,0-.23.72,1,1,0,0,0,.23.66,4.79,4.79,0,0,0,.38.43l.86.71a8.61,8.61,0,0,1,1.41,1.45,3.7,3.7,0,0,1,.6,2.11,4.26,4.26,0,0,1-1.63,3.27,7.4,7.4,0,0,1-4.89,1.52,6.16,6.16,0,0,1-4-1.14,3.08,3.08,0,0,1-1.33-2.49,4.51,4.51,0,0,1,.47-1.54Z" fill="#fff"/><path d="M231.17,222.11h25.4v-25.4h-25.4v25.4Zm8.54-18.27s-.49,7,4.56,11.09a13.27,13.27,0,0,0,3.15-4.06,6.23,6.23,0,0,1-3.15-5.88c0-4.65,6.76-4,6.76-.37a21.65,21.65,0,0,1-.18,3.52h-2.42a12.63,12.63,0,0,0,.39-3c0-2-2.32-1.39-2.32-.2a4.72,4.72,0,0,0,4.52,5v2a7.54,7.54,0,0,1-1.46-.2c-.16.29-.34.58-.53.89-2,3.18-3.71,4.85-4.44,4.89a1.52,1.52,0,0,1-1.47-.41c-.61-.49-5.58-3.79-5.62-13.2h2.2Z" fill="#fff"/><path d="M348.85,196.71H323.37v25.47h25.48V196.71Zm-4.33,19a2.16,2.16,0,0,1-2.15,2.16h-12.5a2.16,2.16,0,0,1-2.16-2.16V203.2a2.16,2.16,0,0,1,2.16-2.16h12.49a2.16,2.16,0,0,1,2.15,2.16v12.49Z" fill="#fff"/><path d="M340,206.23h1.9a.76.76,0,0,0,.76-.76v-1.81a.77.77,0,0,0-.76-.76H340a.76.76,0,0,0-.76.76v1.81a.76.76,0,0,0,.76.76Z" fill="#fff"/><path d="M341.36,209.59a5.23,5.23,0,0,1-10.45,0,4.93,4.93,0,0,1,.22-1.44h-1.54v7.1a.67.67,0,0,0,.67.67H342a.67.67,0,0,0,.67-.67v-7.1h-1.48a5.63,5.63,0,0,1,.2,1.44Z" fill="#fff"/><ellipse cx="336.13" cy="209.41" rx="3.38" ry="3.27" fill="#fff"/><rect x="367.15" y="236.52" width="25.52" height="25.52" fill="#32506d"/><path d="M92.73,222.23h25.52V196.71H92.74v25.52Zm12.76-22a9.23,9.23,0,1,1-2.62,18.08,7.79,7.79,0,0,0,.93-2c.11-.41.65-2.54.65-2.54a2.65,2.65,0,0,0,2.25,1.15c3,0,5-2.71,5-6.33a5.52,5.52,0,0,0-5.85-5.29c-4.39,0-6.6,3.15-6.6,5.77a3.55,3.55,0,0,0,1.89,3.53.32.32,0,0,0,.46-.23c0-.16.14-.57.19-.74a.44.44,0,0,0-.13-.51,2.66,2.66,0,0,1-.61-1.81,4.37,4.37,0,0,1,4.54-4.42c2.48,0,3.84,1.51,3.84,3.54,0,2.66-1.18,4.91-2.93,4.91a1.43,1.43,0,0,1-1.46-1.78,19.94,19.94,0,0,0,.81-3.28,1.24,1.24,0,0,0-1.25-1.39c-1,0-1.78,1-1.78,2.39a3.54,3.54,0,0,0,.29,1.46l-1.19,5a8.15,8.15,0,0,0-.16,2.12,9.22,9.22,0,0,1,3.72-17.68Z" fill="#fff"/><path d="M.54,222.11h25.4v-25.4H.54ZM12,208h3.36v-2.87c0-3.33,2-5.14,5-5.14a27.61,27.61,0,0,1,3,.15v3.48H21.27c-1.61,0-1.93.77-1.93,1.89V208H23.2l-.5,3.89H19.35v10h-4v-10H12V208Z" fill="#fff"/><path d="M185,222.23H210.5V196.71H185v25.52Zm8-4.1h-3.6V206.56h3.6v11.57Zm2.26-11.57h3.45v1.58h0a3.78,3.78,0,0,1,3.4-1.87c3.64,0,4.31,2.4,4.31,5.51v6.35h-3.6v-5.62c0-1.34,0-3.07-1.87-3.07s-2.16,1.46-2.16,3v5.72h-3.59V206.57Zm-4.06-5.75a2.08,2.08,0,1,1-2.09,2.08,2.09,2.09,0,0,1,2.09-2.08Z" fill="#fff"/><path d="M46.61,222.23H72.13V196.71H46.61v25.52Zm6.16-11.29a3.39,3.39,0,0,0,.66.06,3.49,3.49,0,0,0,.92-.12,3.49,3.49,0,0,1-2.8-3.42v0a3.48,3.48,0,0,0,1.58.44A3.5,3.5,0,0,1,52,203.19a9.9,9.9,0,0,0,7.19,3.65,3.49,3.49,0,0,1,6-3.18,7,7,0,0,0,2.22-.85,3.49,3.49,0,0,1-1.54,1.93,6.91,6.91,0,0,0,2-.55A7.11,7.11,0,0,1,66.13,206c0,.15,0,.3,0,.45a9.93,9.93,0,0,1-15.28,8.36,7.14,7.14,0,0,0,.83.05A7,7,0,0,0,56,213.37a3.52,3.52,0,0,1-3.26-2.44Z" fill="#fff"/><path d="M500.94,37.81l8-8,2.28,2.35-5.73,5.66,5.73,5.7-2.28,2.28-8-8Z" fill="#fff"/><path d="M478.06,45.82l-2.27-2.28,5.73-5.7-5.73-5.66,2.27-2.35,8,8-8,8Z" fill="#fff"/><path d="M456.76,1.34a4.37,4.37,0,0,1,1.34,3.22v9.12a4.56,4.56,0,0,1-4.56,4.56h-9.12a4.56,4.56,0,0,1-4.56-4.56V4.56a4.37,4.37,0,0,1,1.34-3.22A4.36,4.36,0,0,1,444.41,0h9.12a4.38,4.38,0,0,1,3.22,1.34Zm-1.91,5.43-1-1q-.21-.25-.46,0l-5.09,5.06a.31.31,0,0,1-.5,0l-2.21-2.28a.48.48,0,0,0-.5,0l-1,.89a.34.34,0,0,0-.1.25.3.3,0,0,0,.1.25l2.24,2.39a.67.67,0,0,1,.16.13l.19.2a.69.69,0,0,0,.15.14l1,1a.35.35,0,0,0,.5,0l6.52-6.55a.3.3,0,0,0,0-.5Z" fill="#9d2235"/><path d="M453.28,30a.66.66,0,0,1,.57.24.67.67,0,0,1,.24.57v9.12a.81.81,0,0,1-.8.81h-9.12a.67.67,0,0,1-.58-.24.68.68,0,0,1-.24-.57V30.77a.66.66,0,0,1,.23-.56.69.69,0,0,1,.59-.25h9.11m0-3.75h-9.12a4.56,4.56,0,0,0-4.57,4.56v9.12a4.56,4.56,0,0,0,4.57,4.56h9.12a4.56,4.56,0,0,0,4.56-4.56V30.77a4.56,4.56,0,0,0-4.56-4.56Z" fill="#c7c7c7"/><path d="M517.38,4.39a.64.64,0,0,1,.15.41.66.66,0,0,1-.15.41l-10.9,10.9a.52.52,0,0,1-.81,0l-1.6-1.64-.81-.82-3.74-3.92a.67.67,0,0,1-.14-.43.62.62,0,0,1,.14-.39l1.65-1.46a.58.58,0,0,1,.44-.18.56.56,0,0,1,.4.18l3.7,3.78a.52.52,0,0,0,.81,0L515,2.79a.54.54,0,0,1,.4-.18.57.57,0,0,1,.41.18l1.56,1.6h0Z" fill="#fff"/><path d="M489.88,70.32h0L477,56.71l-2.9,2.75,10.3,10.86-10.3,10.86,2.9,2.75,12.92-13.6Z" fill="#fff"/><path d="M498.88,70.32h0l12.91-13.6,2.91,2.75-10.3,10.86,10.3,10.86-2.91,2.75-12.91-13.6Z" fill="#fff"/><path d="M99.17,321.84c3.19,0,5.79-3.29,5.79-7.34s-2.6-7.34-5.79-7.34-5.79,3.29-5.79,7.34,2.6,7.34,5.79,7.34Zm0-13.13c2.3,0,4.25,2.65,4.25,5.79s-1.95,5.79-4.25,5.79-4.25-2.65-4.25-5.79,1.95-5.79,4.25-5.79Z" fill="#fff"/><path d="M88.39,323.14l-1.54,4.64a.77.77,0,0,0,.73,1h23.17a.77.77,0,0,0,.63-.32.76.76,0,0,0,.11-.69l-1.54-4.64a.79.79,0,0,0-.52-.5L104,321.1a.72.72,0,0,0-.56.06l-4.29,2.15-4.29-2.15a.82.82,0,0,0-.56-.06l-5.4,1.54a.78.78,0,0,0-.52.5Zm6.06-.48,4.36,2.18a.78.78,0,0,0,.69,0l4.36-2.18L108.6,324l1.08,3.23h-21L89.72,324l4.72-1.35Z" fill="#fff"/><path d="M378.21,165.86c2.64,0,4.79-2.72,4.79-6.07s-2.15-6.07-4.79-6.07-4.79,2.72-4.79,6.07,2.15,6.08,4.79,6.08Z" fill="#231f20"/><path d="M369.3,167.74,368,171.57a.64.64,0,0,0,.09.57.64.64,0,0,0,.52.27h19.15a.64.64,0,0,0,.61-.84l-1.27-3.83a.63.63,0,0,0-.43-.41l-4.48-1.28a.64.64,0,0,0-.46,0l-3.55,1.77-3.55-1.77a.65.65,0,0,0-.46,0l-4.47,1.28a.68.68,0,0,0-.44.42Z" fill="#231f20"/><path d="M65.92,308.71H62.83v-.77a.76.76,0,0,0-.77-.77H59.74a.77.77,0,0,0-.77.77v.77H49.7v-.77a.77.77,0,0,0-.77-.77H46.61a.77.77,0,0,0-.77.77v.77H42.75a.77.77,0,0,0-.77.77V328a.77.77,0,0,0,.77.77H65.92a.78.78,0,0,0,.77-.77V309.48a.78.78,0,0,0-.77-.77Zm-5.41,0h.77v1.54h-.77v-1.54Zm-13.13,0h.77v1.54h-.77v-1.54Zm17.76,18.54H43.53v-17h2.32V311a.77.77,0,0,0,.77.77h2.32a.77.77,0,0,0,.77-.77v-.77H59V311a.77.77,0,0,0,.77.77h2.32a.77.77,0,0,0,.77-.77v-.77h2.32Z" fill="#fff"/><path d="M49.7,314.89H46.61a.78.78,0,0,0-.77.77v3.09a.77.77,0,0,0,.77.77H49.7a.78.78,0,0,0,.77-.77v-3.09a.78.78,0,0,0-.77-.77ZM48.93,318H47.39v-1.55h1.54V318Z" fill="#fff"/><path d="M55.88,314.89H52.79a.78.78,0,0,0-.77.77v3.09a.77.77,0,0,0,.77.77h3.09a.78.78,0,0,0,.77-.77v-3.09a.78.78,0,0,0-.77-.77ZM55.11,318H53.56v-1.55h1.54V318Z" fill="#fff"/><path d="M62.06,314.89H59a.78.78,0,0,0-.77.77v3.09a.77.77,0,0,0,.77.77h3.09a.78.78,0,0,0,.77-.77v-3.09a.77.77,0,0,0-.77-.77ZM61.29,318H59.74v-1.55h1.54V318Z" fill="#fff"/><path d="M49.7,321.07H46.61a.77.77,0,0,0-.77.77v3.09a.77.77,0,0,0,.77.77H49.7a.78.78,0,0,0,.77-.77v-3.09a.77.77,0,0,0-.77-.77Zm-.77,3.09H47.39v-1.55h1.54v1.55Z" fill="#fff"/><path d="M55.88,321.07H52.79a.77.77,0,0,0-.77.77v3.09a.77.77,0,0,0,.77.77h3.09a.78.78,0,0,0,.77-.77v-3.09a.77.77,0,0,0-.77-.77Zm-.77,3.09H53.56v-1.55h1.54v1.55Z" fill="#fff"/><path d="M62.06,321.07H59a.77.77,0,0,0-.77.77v3.09a.77.77,0,0,0,.77.77h3.09a.78.78,0,0,0,.77-.77v-3.09a.77.77,0,0,0-.77-.77Zm-.77,3.09H59.74v-1.55h1.54v1.55Z" fill="#fff"/><path d="M227.09,330.34h14.67a1.55,1.55,0,0,0,1.54-1.55V307.17a1.55,1.55,0,0,0-1.54-1.54H227.09a1.55,1.55,0,0,0-1.54,1.54v2.32h-.77a.77.77,0,1,0,0,1.54h.77v1.55h-.77a.77.77,0,1,0,0,1.54h.77v1.55h-.77a.77.77,0,1,0,0,1.54h.77v1.55h-.77a.77.77,0,0,0-.77.77.76.76,0,0,0,.77.77h.77v1.55h-.77a.77.77,0,1,0,0,1.54h.77v1.55h-.77a.77.77,0,1,0,0,1.54h.77v2.32a1.55,1.55,0,0,0,1.54,1.57Zm14.67-1.55h-3.09V307.17h3.09v21.62Zm-14.67-5.41h.77a.77.77,0,1,0,0-1.54h-.77v-1.55h.77a.77.77,0,1,0,0-1.54h-.77v-1.55h.77a.77.77,0,1,0,0-1.54h-.77v-1.55h.77a.77.77,0,1,0,0-1.54h-.77V311h.77a.77.77,0,1,0,0-1.54h-.77v-2.32h10v21.6h-10v-2.31h.77a.77.77,0,1,0,0-1.54h-.77v-1.54Z" fill="#fff"/><path d="M155.48,307.17,144,308.7l-11.48-1.53a.75.75,0,0,0-.61.19.77.77,0,0,0-.26.58v18.53a.77.77,0,0,0,.67.77l11.59,1.54h.2l11.58-1.54a.78.78,0,0,0,.67-.77V307.94a.76.76,0,0,0-.26-.58.8.8,0,0,0-.61-.19Zm-22.3,1.65,10,1.34v17l-10-1.34v-17Zm21.63,17-10,1.34v-17l10-1.34v17Z" fill="#fff"/><path d="M135.4,312.57l6.18.77h.1a.77.77,0,0,0,.1-1.54l-6.18-.77a.77.77,0,1,0-.19,1.53Z" fill="#fff"/><path d="M141.78,315.67l-6.18-.77a.77.77,0,1,0-.19,1.52l6.18.77h.1a.77.77,0,0,0,.76-.68.79.79,0,0,0-.68-.85Z" fill="#fff"/><path d="M141.78,319.53l-6.18-.77a.77.77,0,0,0-.19,1.53l6.18.77.1,0a.77.77,0,0,0,.76-.69.79.79,0,0,0-.68-.86Z" fill="#fff"/><path d="M141.78,323.39l-6.18-.77a.77.77,0,1,0-.19,1.53l6.18.77h.1a.77.77,0,0,0,.76-.68.79.79,0,0,0-.68-.86h0Z" fill="#fff"/><path d="M146.31,313.35h.1l6.18-.77a.77.77,0,1,0-.19-1.53l-6.18.77a.77.77,0,0,0,.09,1.54Z" fill="#fff"/><path d="M146.31,317.21h.1l6.18-.77a.77.77,0,1,0-.19-1.52l-6.18.77a.77.77,0,0,0,.09,1.53Z" fill="#fff"/><path d="M146.31,321.07l.1,0,6.18-.77a.77.77,0,1,0-.19-1.53l-6.18.77a.77.77,0,0,0-.67.85.78.78,0,0,0,.76.7Z" fill="#fff"/><path d="M152.4,322.62l-6.18.77a.77.77,0,0,0,.09,1.54h.1l6.18-.77a.78.78,0,0,0,.67-.86.79.79,0,0,0-.87-.67Z" fill="#fff"/><path d="M177.24,321.07h2.53l.45,1.34-2,2a.77.77,0,0,0,0,1.09l3.09,3.1a.77.77,0,0,0,1.09,0l2-2,1.33.45v2.53a.77.77,0,0,0,.77.77h4.63a.77.77,0,0,0,.77-.77V327l1.34-.45,2,2a.78.78,0,0,0,1.09,0l3.09-3.1a.78.78,0,0,0,0-1.09l-2-2,.45-1.34h2.53a.78.78,0,0,0,.77-.77v-4.63a.77.77,0,0,0-.77-.77h-2.53l-.45-1.34,2-2a.77.77,0,0,0,0-1.09l-3.09-3.1a.77.77,0,0,0-1.09,0l-2,2-1.34-.45v-2.53a.77.77,0,0,0-.77-.77h-4.63a.77.77,0,0,0-.77.77v2.53l-1.33.45-2-2a.77.77,0,0,0-1.09,0l-3.09,3.1a.77.77,0,0,0,0,1.09l2,2-.45,1.34h-2.53a.78.78,0,0,0-.77.77v4.63a.77.77,0,0,0,.77.77Zm.77-4.63h2.32a.78.78,0,0,0,.73-.52l.77-2.32a.77.77,0,0,0-.19-.79L179.87,311l2-2,1.77,1.77a.78.78,0,0,0,.79.19l2.32-.77a.77.77,0,0,0,.53-.73v-2.32h3.09v2.32a.76.76,0,0,0,.53.73l2.32.77a.77.77,0,0,0,.79-.19l1.77-1.77,2,2L196,312.81a.77.77,0,0,0-.18.79l.77,2.32a.77.77,0,0,0,.73.52h2.32v3.1h-2.32a.78.78,0,0,0-.73.52l-.77,2.32a.77.77,0,0,0,.18.79l1.77,1.77-2,2L194,325.16a.78.78,0,0,0-.79-.19l-2.32.77a.77.77,0,0,0-.53.73v2.32h-3.09v-2.32a.76.76,0,0,0-.53-.73l-2.32-.77a.77.77,0,0,0-.79.19l-1.77,1.77-2-2,1.77-1.77a.77.77,0,0,0,.19-.79l-.77-2.32a.77.77,0,0,0-.73-.52H178v-3.1Z" fill="#fff"/><path d="M188.82,321.07a3.09,3.09,0,1,0-3.09-3.1,3.1,3.1,0,0,0,3.09,3.1Zm0-4.63a1.55,1.55,0,1,1-1.54,1.55,1.55,1.55,0,0,1,1.54-1.55Z" fill="#fff"/><path d="M12.6,314.5a3.09,3.09,0,1,0-3.09,3.09,3.09,3.09,0,0,0,3.09-3.09ZM8,314.5A1.54,1.54,0,1,1,9.51,316,1.55,1.55,0,0,1,8,314.5Z" fill="#fff"/><path d="M9.49,330.33a.77.77,0,0,0,.58-.26c.34-.4,8.34-9.53,8.32-15.56a8.88,8.88,0,1,0-17.76,0c0,6,7.95,15.17,8.29,15.56a.77.77,0,0,0,.58.25Zm0-23.16a7.38,7.38,0,0,1,7.34,7.35c0,4.56-5.51,11.63-7.35,13.85-1.82-2.22-7.33-9.28-7.33-13.85a7.35,7.35,0,0,1,7.34-7.35Z" fill="#fff"/><path d="M110.94,360.55H86a.83.83,0,0,0-.83.83v15a.83.83,0,0,0,.83.83h25a.83.83,0,0,0,.83-.83v-15a.82.82,0,0,0-.83-.83Zm-2.66,1.67-9.82,6.09-9.82-6.09ZM86.82,375.53V363l11.65,7.23L110.11,363v12.49Z" fill="#fff"/><path d="M143.79,365.54a.83.83,0,0,0-.83.83v11.3l-1.91-1.91a.84.84,0,0,0-1.18,1.19l3.33,3.32a.83.83,0,0,0,1.18,0l3.33-3.32a.84.84,0,1,0-1.18-1.19l-1.91,1.91v-11.3a.86.86,0,0,0-.83-.82Z" fill="#fff"/><path d="M156.27,357.23h-25a.83.83,0,0,0-.83.83v15a.83.83,0,0,0,.83.83h9.15a.83.83,0,1,0,0-1.66h-8.32V358.89h23.3V372.2h-8.32a.83.83,0,1,0,0,1.66h9.15a.83.83,0,0,0,.83-.83v-15a.83.83,0,0,0-.83-.82Z" fill="#fff"/><path d="M13.31,355.56a13.31,13.31,0,1,0,9.41,3.9,13.26,13.26,0,0,0-9.41-3.9Zm8.24,21.55A11.64,11.64,0,1,1,25,368.88a11.59,11.59,0,0,1-3.41,8.23Z" fill="#fff"/><path d="M17.41,368.56l-3.33-8.31a.83.83,0,0,0-1.55,0l-3.33,8.31a.83.83,0,0,0,0,.62h0l3.33,8.32a.83.83,0,0,0,1.55,0l3.33-8.32h0a.84.84,0,0,0,0-.62Zm-4.1-5.77,2.1,5.25h-4.2l2.1-5.25Zm0,12.16-2.1-5.25h4.2L13.31,375Z" fill="#fff"/><path d="M41.16,378h5v3.32a.83.83,0,0,0,.83.83H60.3a.83.83,0,0,0,.83-.83V378h5a.83.83,0,0,0,.83-.83V363.88a.83.83,0,0,0-.83-.83h-5v-6.65a.83.83,0,0,0-.83-.83H47a.83.83,0,0,0-.83.83V363h-5a.83.83,0,0,0-.83.83v13.31a.83.83,0,0,0,.83.83Zm18.3,2.5H47.81v-8.31H59.46v8.31Zm-11.65-23.3H59.46V363H47.81v-5.82ZM42,364.71h23.3v11.65H61.13v-5a.83.83,0,0,0-.83-.83H47a.83.83,0,0,0-.83.83v5H42V364.71Z" fill="#fff"/><path d="M45.07,366.21a.85.85,0,0,0-1.17,0,.82.82,0,0,0-.24.59.83.83,0,0,0,.24.59.83.83,0,0,0,1.18,0,.82.82,0,0,0,.24-.59.79.79,0,0,0-.24-.58Z" fill="#fff"/><path d="M47,367.62a.82.82,0,0,0,.59-.25.81.81,0,0,0,.24-.59.84.84,0,0,0-.24-.59.85.85,0,0,0-1.17,0,.81.81,0,0,0-.24.59.83.83,0,0,0,.24.59.81.81,0,0,0,.59.24Z" fill="#fff"/><path d="M57.8,373.86H49.48a.83.83,0,1,0,0,1.66H57.8a.83.83,0,1,0,0-1.66Z" fill="#fff"/><path d="M57.8,377.19H49.48a.83.83,0,0,0,0,1.67H57.8a.83.83,0,1,0,0-1.66Z" fill="#fff"/><path d="M12.78,560.58,20,565.31,12.78,570Z" fill="#9d2235"/><path d="M53,577.38a15.12,15.12,0,1,1,21.39,0,15.14,15.14,0,0,1-21.39,0Zm19.44-19.44a12.37,12.37,0,1,0,0,17.5,12.39,12.39,0,0,0,0-17.5Z" fill="#fff"/><path d="M61.33,562l7.27,4.72-7.27,4.73Z" fill="#fff"/><path d="M369.91,113.84l17.91,10.45-17.91,10.45Z" fill="#fed800"/><rect x="418.15" y="116.83" width="3.65" height="16.42" fill="#fed800"/><path d="M453.18,129.5h3.59l5.6,5.6a.64.64,0,0,0,.7.14.66.66,0,0,0,.4-.59V115.36a.63.63,0,0,0-.4-.59.64.64,0,0,0-.7.14l-5.6,5.6h-3.59a.64.64,0,0,0-.64.64v7.71a.64.64,0,0,0,.64.63Zm.64-7.71H457a.65.65,0,0,0,.45-.19l4.69-4.69v16.17l-4.69-4.69a.64.64,0,0,0-.45-.19h-3.21v-6.43Z"/><path d="M464.93,128.35a.64.64,0,0,0,.91,0l2.44-2.44,2.44,2.44a.64.64,0,1,0,.91-.91L469.19,125l2.44-2.44a.64.64,0,0,0-.91-.91l-2.44,2.44-2.44-2.44a.64.64,0,0,0-.9.91l2.44,2.44-2.44,2.44a.65.65,0,0,0,0,.91Z"/><path d="M500.73,129.5h3.6l5.6,5.6a.64.64,0,0,0,.45.19.64.64,0,0,0,.64-.64V115.36a.63.63,0,0,0-.4-.59.64.64,0,0,0-.7.14l-5.6,5.6h-3.6a.65.65,0,0,0-.65.64v7.71a.62.62,0,0,0,.63.63Zm.64-7.71h3.21a.64.64,0,0,0,.45-.19l4.69-4.69v16.17L505,128.41a.64.64,0,0,0-.45-.19h-3.21v-6.43Z"/><path d="M512.94,127.57a.64.64,0,1,0,0,1.29,3.86,3.86,0,0,0,0-7.71.64.64,0,1,0,0,1.28,2.58,2.58,0,0,1,0,5.15Z"/><path d="M545.39,129.5H549l5.6,5.6a.64.64,0,0,0,.7.14.66.66,0,0,0,.4-.59V115.36a.64.64,0,0,0-.4-.59.64.64,0,0,0-.7.14l-5.6,5.6h-3.59a.64.64,0,0,0-.64.64v7.71a.65.65,0,0,0,.65.63Zm.64-7.71h3.21a.64.64,0,0,0,.45-.19l4.69-4.69v16.17l-4.69-4.69a.64.64,0,0,0-.45-.19H546v-6.43Z"/><path d="M557.6,127.57a.64.64,0,1,0,0,1.29,3.86,3.86,0,0,0,0-7.71.64.64,0,1,0,0,1.28,2.58,2.58,0,0,1,0,5.15Z"/><path d="M557.6,132.07a7.07,7.07,0,0,0,0-14.14.64.64,0,1,0,0,1.29,5.78,5.78,0,1,1,0,11.57.65.65,0,0,0,0,1.3Z"/><path d="M550.09,73.53a7.6,7.6,0,1,1,7.59,7.59,7.6,7.6,0,0,1-7.59-7.59Zm1.71,0a5.89,5.89,0,1,0,5.88-5.88,5.89,5.89,0,0,0-5.88,5.88Z" fill="#fff"/><rect x="546.14" y="80.27" width="7.62" height="1.9" transform="translate(103.22 412.09) rotate(-44.93)" fill="#fff"/><path d="M632.89,236.42H478.75l-12,44H632.89Z" fill="#b9b8b8"/><path d="M466.75,398H617.86l2.91-7.81h-154Z" fill="#6c696a"/><path d="M614.25,303.75H478.75l-12,44h147.5Z" fill="#6c696a"/><rect x="166.68" y="496.32" width="13.6" height="2.63" fill="#fff"/><rect x="177.66" y="496.32" width="2.63" height="13.6" fill="#fff"/><rect x="166.64" y="501.94" width="13.6" height="2.62" transform="translate(-305.08 270.11) rotate(-45.01)" fill="#fff"/><rect x="205.85" y="498.88" width="8.72" height="2.16" transform="translate(-291.95 295.08) rotate(-45)" fill="#616264"/><rect x="213.78" y="495.58" width="2.16" height="8.72" transform="translate(-290.58 298.36) rotate(-45)" fill="#616264"/><rect x="211.5" y="498.46" width="2.16" height="11.19" fill="#616264"/><rect x="238.88" y="498.88" width="8.72" height="2.16" transform="translate(-282.28 318.43) rotate(-45)" fill="#fff"/><rect x="246.81" y="495.58" width="2.16" height="8.72" transform="translate(-280.91 321.71) rotate(-45)" fill="#fff"/><rect x="244.53" y="498.46" width="2.16" height="11.19" fill="#fff"/><rect x="117.42" y="496.32" width="13.6" height="2.63" fill="#9d2235"/><rect x="128.4" y="496.32" width="2.63" height="13.6" fill="#9d2235"/><rect x="64.18" y="491.4" width="2.63" height="13.6" transform="translate(-333.19 192.34) rotate(-45.02)" fill="#fff"/><rect x="58.7" y="504.57" width="13.61" height="2.63" transform="translate(-338.53 194.49) rotate(-45)" fill="#fff"/><path d="M706.62.66l1,.15-8.46,30.86-1-.15L706.62.66Z" fill="#8c8c8c"/><path d="M422.27,580.35l34.06-128.13" fill="none" stroke="#e6e7e8" stroke-miterlimit="10" stroke-width="0.5"/><path d="M425.78,580.35l34.06-128.13" fill="none" stroke="#e6e7e8" stroke-miterlimit="10" stroke-width="0.5"/><path d="M429.29,580.34l34.06-128.12" fill="none" stroke="#e6e7e8" stroke-miterlimit="10" stroke-width="0.5"/><path d="M432.8,580.35l34.06-128.13" fill="none" stroke="#e6e7e8" stroke-miterlimit="10" stroke-width="0.5"/><path d="M436.31,580.35l34.06-128.13" fill="none" stroke="#e6e7e8" stroke-miterlimit="10" stroke-width="0.5"/><path d="M439.82,580.35l34.06-128.13" fill="none" stroke="#e6e7e8" stroke-miterlimit="10" stroke-width="0.5"/><path d="M443.33,580.35l34.06-128.13" fill="none" stroke="#e6e7e8" stroke-miterlimit="10" stroke-width="0.5"/><path d="M446.84,580.35,480.9,452.22" fill="none" stroke="#e6e7e8" stroke-miterlimit="10" stroke-width="0.5"/><path d="M450.35,580.35l34.06-128.13" fill="none" stroke="#e6e7e8" stroke-miterlimit="10" stroke-width="0.5"/><path d="M453.86,580.35l34.06-128.13" fill="none" stroke="#e6e7e8" stroke-miterlimit="10" stroke-width="0.5"/><path d="M457.37,580.35l34.06-128.13" fill="none" stroke="#e6e7e8" stroke-miterlimit="10" stroke-width="0.5"/><path d="M460.88,580.35l34.06-128.13" fill="none" stroke="#e6e7e8" stroke-miterlimit="10" stroke-width="0.5"/><path d="M464.4,580.35l34.05-128.13" fill="none" stroke="#e6e7e8" stroke-miterlimit="10" stroke-width="0.5"/><path d="M467.9,580.35,502,452.22" fill="none" stroke="#e6e7e8" stroke-miterlimit="10" stroke-width="0.5"/><path d="M471.41,580.35l34.06-128.13" fill="none" stroke="#e6e7e8" stroke-miterlimit="10" stroke-width="0.5"/><path d="M474.92,580.35,509,452.22" fill="none" stroke="#e6e7e8" stroke-miterlimit="10" stroke-width="0.5"/><path d="M478.43,580.35l34.06-128.13" fill="none" stroke="#e6e7e8" stroke-miterlimit="10" stroke-width="0.5"/><path d="M481.94,580.35,516,452.22" fill="none" stroke="#e6e7e8" stroke-miterlimit="10" stroke-width="0.5"/><path d="M485.45,580.35l34.06-128.13" fill="none" stroke="#e6e7e8" stroke-miterlimit="10" stroke-width="0.5"/><path d="M489,580.35,523,452.22" fill="none" stroke="#e6e7e8" stroke-miterlimit="10" stroke-width="0.5"/><path d="M492.48,580.35l34.05-128.13" fill="none" stroke="#e6e7e8" stroke-miterlimit="10" stroke-width="0.5"/><path d="M496,580.35,530,452.22" fill="none" stroke="#e6e7e8" stroke-miterlimit="10" stroke-width="0.5"/><path d="M499.5,580.35l34-128.13" fill="none" stroke="#e6e7e8" stroke-miterlimit="10" stroke-width="0.5"/><path d="M503,580.35l34.06-128.13" fill="none" stroke="#e6e7e8" stroke-miterlimit="10" stroke-width="0.5"/><path d="M506.52,580.35l34.05-128.13" fill="none" stroke="#e6e7e8" stroke-miterlimit="10" stroke-width="0.5"/><path d="M510,580.35l34.07-128.13" fill="none" stroke="#e6e7e8" stroke-miterlimit="10" stroke-width="0.5"/><path d="M513.54,580.35l34.05-128.13" fill="none" stroke="#e6e7e8" stroke-miterlimit="10" stroke-width="0.5"/><path d="M517,580.35l34.06-128.13" fill="none" stroke="#e6e7e8" stroke-miterlimit="10" stroke-width="0.5"/><path d="M520.56,580.35l34-128.13" fill="none" stroke="#e6e7e8" stroke-miterlimit="10" stroke-width="0.5"/><path d="M524.07,580.35l34.06-128.13" fill="none" stroke="#e6e7e8" stroke-miterlimit="10" stroke-width="0.5"/><path d="M527.58,580.35l34.06-128.13" fill="none" stroke="#e6e7e8" stroke-miterlimit="10" stroke-width="0.5"/><path d="M531.09,580.35l34.06-128.13" fill="none" stroke="#e6e7e8" stroke-miterlimit="10" stroke-width="0.5"/><path d="M534.6,580.35l34.06-128.13" fill="none" stroke="#e6e7e8" stroke-miterlimit="10" stroke-width="0.5"/><path d="M538.11,580.35l34.06-128.13" fill="none" stroke="#e6e7e8" stroke-miterlimit="10" stroke-width="0.5"/><path d="M541.62,580.35l34.06-128.13" fill="none" stroke="#e6e7e8" stroke-miterlimit="10" stroke-width="0.5"/><path d="M545.13,580.35l34.06-128.13" fill="none" stroke="#e6e7e8" stroke-miterlimit="10" stroke-width="0.5"/><path d="M548.64,580.35,582.7,452.22" fill="none" stroke="#e6e7e8" stroke-miterlimit="10" stroke-width="0.5"/><path d="M552.15,580.35l34.06-128.13" fill="none" stroke="#e6e7e8" stroke-miterlimit="10" stroke-width="0.5"/><path d="M555.66,580.35l34.06-128.13" fill="none" stroke="#e6e7e8" stroke-miterlimit="10" stroke-width="0.5"/><path d="M559.17,580.35l34.06-128.13" fill="none" stroke="#e6e7e8" stroke-miterlimit="10" stroke-width="0.5"/><path d="M562.68,580.35l34.06-128.13" fill="none" stroke="#e6e7e8" stroke-miterlimit="10" stroke-width="0.5"/><path d="M566.19,580.35l34.06-128.13" fill="none" stroke="#e6e7e8" stroke-miterlimit="10" stroke-width="0.5"/><path d="M569.7,580.35l34.06-128.13" fill="none" stroke="#e6e7e8" stroke-miterlimit="10" stroke-width="0.5"/><path d="M573.21,580.35l34.06-128.13" fill="none" stroke="#e6e7e8" stroke-miterlimit="10" stroke-width="0.5"/><path d="M576.72,580.35l34.06-128.13" fill="none" stroke="#e6e7e8" stroke-miterlimit="10" stroke-width="0.5"/><path d="M580.23,580.35l34.06-128.13" fill="none" stroke="#e6e7e8" stroke-miterlimit="10" stroke-width="0.5"/><path d="M583.74,580.35,617.8,452.22" fill="none" stroke="#e6e7e8" stroke-miterlimit="10" stroke-width="0.5"/><path d="M587.25,580.35l34.06-128.13" fill="none" stroke="#e6e7e8" stroke-miterlimit="10" stroke-width="0.5"/><path d="M590.76,580.35l34.06-128.13" fill="none" stroke="#e6e7e8" stroke-miterlimit="10" stroke-width="0.5"/><path d="M594.27,580.35l34.06-128.13" fill="none" stroke="#e6e7e8" stroke-miterlimit="10" stroke-width="0.5"/><path d="M597.78,580.35l34.06-128.13" fill="none" stroke="#e6e7e8" stroke-miterlimit="10" stroke-width="0.5"/><path d="M601.29,580.35l34.06-128.13" fill="none" stroke="#e6e7e8" stroke-miterlimit="10" stroke-width="0.5"/><path d="M604.8,580.35l34.06-128.13" fill="none" stroke="#e6e7e8" stroke-miterlimit="10" stroke-width="0.5"/><path d="M608.31,580.35l34.06-128.13" fill="none" stroke="#e6e7e8" stroke-miterlimit="10" stroke-width="0.5"/><path d="M611.82,580.35l34.06-128.13" fill="none" stroke="#e6e7e8" stroke-miterlimit="10" stroke-width="0.5"/><path d="M615.33,580.35l34.06-128.13" fill="none" stroke="#e6e7e8" stroke-miterlimit="10" stroke-width="0.5"/><path d="M618.84,580.35,652.9,452.22" fill="none" stroke="#e6e7e8" stroke-miterlimit="10" stroke-width="0.5"/><path d="M622.35,580.35l34.06-128.13" fill="none" stroke="#e6e7e8" stroke-miterlimit="10" stroke-width="0.5"/><path d="M625.86,580.35l34.06-128.13" fill="none" stroke="#e6e7e8" stroke-miterlimit="10" stroke-width="0.5"/><path d="M629.37,580.35l34.06-128.13" fill="none" stroke="#e6e7e8" stroke-miterlimit="10" stroke-width="0.5"/><path d="M632.88,580.35l34.06-128.13" fill="none" stroke="#e6e7e8" stroke-miterlimit="10" stroke-width="0.5"/><path d="M636.39,580.35l34.06-128.13" fill="none" stroke="#e6e7e8" stroke-miterlimit="10" stroke-width="0.5"/><path d="M639.9,580.35,674,452.22" fill="none" stroke="#e6e7e8" stroke-miterlimit="10" stroke-width="0.5"/><path d="M643.41,580.35l34.06-128.13" fill="none" stroke="#e6e7e8" stroke-miterlimit="10" stroke-width="0.5"/><path d="M646.92,580.35,681,452.22" fill="none" stroke="#e6e7e8" stroke-miterlimit="10" stroke-width="0.5"/><path d="M650.43,580.35l34.06-128.13" fill="none" stroke="#e6e7e8" stroke-miterlimit="10" stroke-width="0.5"/><path d="M653.94,580.35,688,452.22" fill="none" stroke="#e6e7e8" stroke-miterlimit="10" stroke-width="0.5"/><path d="M657.45,580.35l34.06-128.13" fill="none" stroke="#e6e7e8" stroke-miterlimit="10" stroke-width="0.5"/><path d="M661,580.35,695,452.22" fill="none" stroke="#e6e7e8" stroke-miterlimit="10" stroke-width="0.5"/><path d="M664.47,580.35l34.06-128.13" fill="none" stroke="#e6e7e8" stroke-miterlimit="10" stroke-width="0.5"/><path d="M668,580.35,702,452.22" fill="none" stroke="#e6e7e8" stroke-miterlimit="10" stroke-width="0.5"/><path d="M671.49,580.35l34.06-128.13" fill="none" stroke="#e6e7e8" stroke-miterlimit="10" stroke-width="0.5"/><path d="M482.08,8.72h0L488,2.52,486.3.94l-5.8,6.11L474.7.94,473,2.52l5.88,6.2h0L473,14.92l1.66,1.58,5.8-6.11,5.8,6.11L488,14.92l-5.89-6.2Z" fill="#fff"/><rect x="467.02" y="236.25" width="125.91" height="44.09" fill="#d8d8d8"/><path d="M632.89,280.42H591l-14.07-44h56Z" fill="#9d2235"/><path d="M593.3,280.42H591l-14.07-44h2.37Z" fill="#4d4b4c"/><rect x="436.34" y="76.82" width="25.9" height="1.49" transform="translate(76.75 340.42) rotate(-45)" fill="#666"/><rect x="448.54" y="64.61" width="1.49" height="25.9" transform="translate(76.75 340.41) rotate(-45)" fill="#666"/><path d="M384.87,256.36A9.5,9.5,0,0,1,383,257a7.78,7.78,0,0,1-1.78.19,4.85,4.85,0,0,1-1.7-.27,4.24,4.24,0,0,1-1.42-.79,2.81,2.81,0,0,1-.81-1.08,4.73,4.73,0,0,1-.23-1.66v-5.57h-2.15V245.6a5.38,5.38,0,0,0,1.77-.87,4.18,4.18,0,0,0,1.07-1.37,6.16,6.16,0,0,0,.55-2h2.25V245h3.65v2.84h-3.65v4.07a7,7,0,0,0,.08,1.71,1.5,1.5,0,0,0,.6.69,2.28,2.28,0,0,0,1.19.32,4.31,4.31,0,0,0,2.39-.79v2.51Z" fill="#fff"/><path d="M367.15,196.71v25.52h25.52V196.71Zm17.72,19.78a9.5,9.5,0,0,1-1.83.67,7.78,7.78,0,0,1-1.78.19,4.85,4.85,0,0,1-1.7-.27,4.24,4.24,0,0,1-1.42-.79,2.81,2.81,0,0,1-.81-1.08,4.73,4.73,0,0,1-.23-1.66V208h-2.15v-2.25a5.38,5.38,0,0,0,1.77-.87,4.18,4.18,0,0,0,1.07-1.37,6.16,6.16,0,0,0,.55-2h2.25v3.68h3.65V208h-3.65v4.07a7,7,0,0,0,.08,1.71,1.5,1.5,0,0,0,.6.69,2.28,2.28,0,0,0,1.19.32,4.31,4.31,0,0,0,2.39-.79v2.51Z" fill="#fff"/><path d="M277.83,314.35l-.09-.93A10,10,0,0,1,275,313a13.7,13.7,0,0,1-2.1,1.44,18.28,18.28,0,0,0,4.93-.07Zm-6.18-4a9.2,9.2,0,0,1-3.77.89,14.19,14.19,0,0,0,1,1.18,13.53,13.53,0,0,0,3.35-1.23,4.13,4.13,0,0,1-.54-.84Zm.42-1.16a.49.49,0,0,1,.3.34c0,.11.73,2.76,5.28,3v0a2.75,2.75,0,0,1-1.41-2.86c.19-2.15-1.41-3.49-3.23-2.34a8,8,0,0,1-5,1.37c-1.19-.18-2.14.17-1.26,1.19l.38.46a8.3,8.3,0,0,0,4.47-1,.5.5,0,0,1,.46,0Zm.83,2.72a14.08,14.08,0,0,1-3.2,1.3,6,6,0,0,0,1.72.9,13.63,13.63,0,0,0,2.54-1.52,5.1,5.1,0,0,1-1.06-.68Zm12,.69a13.68,13.68,0,0,0,2.54,1.52,6,6,0,0,0,1.72-.9,14.16,14.16,0,0,1-3.2-1.3,6.07,6.07,0,0,1-1.06.68Zm1.78-1.41a13.47,13.47,0,0,0,3.35,1.23,13.81,13.81,0,0,0,1-1.18,9.19,9.19,0,0,1-3.77-.89,5.23,5.23,0,0,1-.54.84Zm4.15-2.55a8,8,0,0,1-5-1.37c-1.82-1.15-3.41.19-3.23,2.34a2.75,2.75,0,0,1-1.41,2.86v0c4.55-.19,5.25-2.83,5.28-3a.48.48,0,0,1,.75-.29,8.31,8.31,0,0,0,4.47,1l.37-.46c.87-1-.07-1.39-1.26-1.2h0Zm-9.71,4.82-.09.93a18.35,18.35,0,0,0,4.94.08,13.58,13.58,0,0,1-2.1-1.44,10.72,10.72,0,0,1-2.75.43Zm1.65,2.8a1.29,1.29,0,0,0-1.72.48c-.2.54.24,1.21,1,1.48a1.83,1.83,0,0,0,.8.11c-.08.75-.59,1.84-2.57,2.54l-.44.16.24-10.33a2.08,2.08,0,1,0-1.42,0L278.9,321l-.55-.2c-2-.7-2.49-1.79-2.57-2.54a1.83,1.83,0,0,0,.8-.11c.75-.28,1.19-.94,1-1.48a1.29,1.29,0,0,0-1.72-.48,1.59,1.59,0,0,0-1,.94c-.91,1.43.14,3.65,4.07,5.09l.08,3.66c-1.36-.67-1.85-1.3-1.85-1.84s1-1.19,1-1.19l-1-.48s-.67.34-.67,1.56,1.17,2,2.53,2.61l.08,3.47c-.33-.22-1.17-.85-1.17-1.66a1.58,1.58,0,0,1,.61-1.09L278,327a1.68,1.68,0,0,0-.48,1.22,1.85,1.85,0,0,0,1.61,1.86l0,2.12a.21.21,0,0,0,.43,0l0-2.11a1.85,1.85,0,0,0,1.65-1.87,1.94,1.94,0,0,0-1.16-1.76c3.31-1.77,2.61-3.38.52-4.59,3.14-1.42,4-3.39,3.12-4.7a1.52,1.52,0,0,0-1-1Zm-1.94,12.15c0,.84-.91,1.49-1.2,1.68l.07-3.16a2,2,0,0,1,1.13,1.47ZM279.72,326l.08-3.4c3.38,1.32.93,2.88-.08,3.4Z" fill="#fff"/><circle cx="391.03" cy="35.33" r="7.95" fill="none" stroke="#c7c7c7" stroke-miterlimit="10" stroke-width="3.75"/><circle cx="391.03" cy="10.56" r="7.95" fill="none" stroke="#9d2235" stroke-miterlimit="10" stroke-width="3.75"/><circle cx="415.26" cy="35.33" r="7.95" fill="none" stroke="#c7c7c7" stroke-miterlimit="10" stroke-width="3.75"/><circle cx="415.26" cy="10.56" r="7.95" fill="none" stroke="#9d2235" stroke-miterlimit="10" stroke-width="3.75"/><circle cx="415.26" cy="10.56" r="2.79" fill="#9d2235"/><circle cx="415.26" cy="35.33" r="2.79" fill="#c7c7c7"/><path d="M24.05,26.89c0,3,.08,5.84-2.14,8.27a10.77,10.77,0,0,1-7.61,3.07H11.59a10.73,10.73,0,0,1-7.6-3C1.76,32.78,1.85,30,1.85,26.95V15.74c0-1.89.29-5-1.85-5.75V9.86H8V10c-2.1.8-1.85,3.86-1.85,5.75V26.95c0,5.59,2.35,8.19,6.68,8.19a7.42,7.42,0,0,0,6.13-2.94c.93-1.26.88-2.31.88-3.82V15.74c0-1.89.25-5-1.85-5.75V9.86h8L26,10c-2.14.8-1.89,3.86-1.89,5.8l0,11.11Z" fill="#fff"/><path d="M36.61,13.43,31.36,27.11,29.18,33C28.3,35.39,28,36.6,30,37.36v.13H22.29v-.13c2.43-1.22,3.15-3.57,4.07-6l7-17.51c.59-1.51,1.39-3.27-.63-3.9V9.86h6.64L48.11,31.4c1,2.4,1.72,4.75,4.11,6v.13H43.62v-.13c2.06-.93,1.72-1.39.59-4.32l-2.27-5.92L36.61,13.43Z" fill="#fff"/><path d="M76.54,12.5a7.37,7.37,0,0,0,.63-2.6v0h7.26V10c-1,.3-1.3,1.51-1.3,2.48L85.9,33.08c.25,2,.46,3.11,2.14,4.28v.13h-8.1v-.13c1.47-.46,1.72-1.72,1.72-3.15L79.27,14,69.87,38c-2.1-1.6-2.69-2.73-3.7-5.08L58.19,14,55.8,32.07c-.34,2.56-.63,4.41,1.34,5.29v.13H50.3v-.13c1.76-1.55,2-3.61,2.35-5.88L55,13.89c.17-1.18.63-2.85-1.3-3.9V9.86h7.35v0a5,5,0,0,0,.59,1.89l7.89,18.52,7-17.8Z" fill="#fff"/><path d="M104.71,14.86a9.56,9.56,0,0,0-6.59-2.65c-2.39,0-5.41.93-5.41,3.82,0,5.75,14.44,5.67,14.44,13.43,0,4.49-4.7,8.69-11.25,8.69a21.66,21.66,0,0,1-7.51-1.26l-1.22-5.25a14.53,14.53,0,0,0,9.2,3.48c2.39,0,6-1.43,6-4.37,0-6.55-14.45-5.37-14.45-14.28,0-5.29,5.42-7.31,10.54-7.31a21.07,21.07,0,0,1,6.26.93v4.75Z" fill="#fff"/><path d="M36.68,32.62a3.52,3.52,0,1,0-3.52-3.52,3.51,3.51,0,0,0,3.52,3.52Z" fill="#fff"/><polygon points="117.11 38.07 116.3 38.07 116.3 9.12 117.11 9.12 117.11 38.07 117.11 38.07" fill="#fff"/><path d="M124.21,18.2V14h1.28v4.15c0,1.36.7,2.09,1.85,2.09s1.84-.69,1.84-2V14h1.28v4.14c0,2.18-1.23,3.28-3.14,3.28a2.88,2.88,0,0,1-3.11-3.21Z" fill="#fff"/><path d="M131.68,15.79h1.26v.86a2,2,0,0,1,1.72-1,1.89,1.89,0,0,1,2,2.12V21.3h-1.26V18.17c0-.86-.43-1.35-1.18-1.35a1.23,1.23,0,0,0-1.24,1.37V21.3h-1.26V15.79Z" fill="#fff"/><path d="M138.15,15.79h1.26V21.3h-1.26V15.79Zm-.05-2h1.36v1.2H138.1v-1.2Z" fill="#fff"/><polygon points="140.4 15.79 141.75 15.79 143.23 19.84 144.73 15.79 146.05 15.79 143.8 21.35 142.66 21.35 140.4 15.79 140.4 15.79" fill="#fff"/><path d="M150.56,18.16a1.43,1.43,0,0,0-1.4-1.45,1.49,1.49,0,0,0-1.43,1.45Zm-4.08.41v0a2.73,2.73,0,0,1,2.69-2.87,2.66,2.66,0,0,1,2.64,3c0,.12,0,.23,0,.36h-4a1.54,1.54,0,0,0,1.59,1.4,2,2,0,0,0,1.49-.66l.74.66a2.79,2.79,0,0,1-2.25,1,2.75,2.75,0,0,1-2.83-2.86Z" fill="#fff"/><path d="M153.05,15.79h1.26V17a2,2,0,0,1,2-1.35V17h-.07c-1.11,0-1.88.72-1.88,2.18v2.1h-1.26V15.79Z" fill="#fff"/><path d="M156.87,20.58l.56-.86a3.09,3.09,0,0,0,1.81.68c.54,0,.85-.23.85-.6v0c0-.43-.58-.57-1.23-.77-.81-.23-1.72-.56-1.72-1.62v0a1.76,1.76,0,0,1,2-1.68,3.82,3.82,0,0,1,2,.63l-.5.9a3.2,3.2,0,0,0-1.56-.52c-.49,0-.77.23-.77.55v0c0,.4.59.56,1.24.77.8.25,1.71.62,1.71,1.61v0c0,1.16-.9,1.73-2,1.73a3.87,3.87,0,0,1-2.34-.82Z" fill="#fff"/><path d="M162.53,15.79h1.26V21.3h-1.26V15.79Zm-.05-2h1.36v1.2h-1.36v-1.2Z" fill="#fff"/><path d="M165.58,19.78v-2.9h-.7V15.79h.7V14.28h1.26v1.51h1.48v1.08h-1.48v2.7a.6.6,0,0,0,.68.69,1.7,1.7,0,0,0,.78-.19v1a2.21,2.21,0,0,1-1.14.28,1.41,1.41,0,0,1-1.59-1.62Z" fill="#fff"/><path d="M169.47,22.67l.43-.94a1.55,1.55,0,0,0,.74.21c.35,0,.57-.16.78-.64l-2.3-5.51h1.35L172,19.88l1.43-4.09h1.31l-2.19,5.67c-.44,1.13-.93,1.54-1.82,1.54a2.58,2.58,0,0,1-1.3-.33Z" fill="#fff"/><path d="M182.59,18.58v0a1.7,1.7,0,0,0-1.69-1.77,1.65,1.65,0,0,0-1.66,1.75v0a1.71,1.71,0,0,0,1.68,1.77,1.66,1.66,0,0,0,1.67-1.75Zm-4.61,0v0a2.94,2.94,0,0,1,5.88,0v0a2.88,2.88,0,0,1-3,2.87A2.85,2.85,0,0,1,178,18.58Z" fill="#fff"/><path d="M185.24,16.88h-.7V15.83h.7v-.4a1.87,1.87,0,0,1,.45-1.37,1.67,1.67,0,0,1,1.24-.44,3.38,3.38,0,0,1,1,.15v1.06a2.22,2.22,0,0,0-.74-.14c-.48,0-.73.26-.73.83v.3h1.46v1H186.5V21.3h-1.26V16.88Z" fill="#fff"/><path d="M195.86,18.4l-1.26-2.92-1.25,2.92ZM194,13.95h1.19l3.21,7.36h-1.36l-.74-1.76h-3.45l-.75,1.76h-1.31L194,13.95Z" fill="#fff"/><path d="M199.27,15.79h1.26V17a2,2,0,0,1,2-1.35V17h-.07c-1.11,0-1.88.72-1.88,2.18v2.1h-1.26V15.79Z" fill="#fff"/><polygon points="203.46 13.69 204.72 13.69 204.72 18.24 207.01 15.79 208.54 15.79 206.35 18.04 208.61 21.3 207.15 21.3 205.49 18.93 204.72 19.73 204.72 21.3 203.46 21.3 203.46 13.69 203.46 13.69" fill="#fff"/><path d="M212.8,19a3.61,3.61,0,0,0-1.26-.22c-.79,0-1.26.32-1.26.86v0c0,.52.47.81,1.06.81.83,0,1.46-.47,1.46-1.16V19Zm0,2.31v-.68a2.23,2.23,0,0,1-1.79.79,1.76,1.76,0,0,1-2-1.7v0c0-1.22.95-1.81,2.23-1.81a4.64,4.64,0,0,1,1.52.23V18c0-.76-.48-1.18-1.36-1.18a3.83,3.83,0,0,0-1.58.34l-.34-1a4.73,4.73,0,0,1,2.1-.46A2.13,2.13,0,0,1,214,18V21.3Z" fill="#fff"/><path d="M215.3,15.79h1.26v.86a2,2,0,0,1,1.72-1,1.89,1.89,0,0,1,2,2.12V21.3H219V18.17c0-.86-.43-1.35-1.18-1.35a1.23,1.23,0,0,0-1.24,1.37V21.3H215.3V15.79Z" fill="#fff"/><path d="M221.29,20.58l.56-.86a3.09,3.09,0,0,0,1.81.68c.54,0,.86-.23.86-.6v0c0-.43-.58-.57-1.23-.77-.81-.23-1.72-.56-1.72-1.62v0a1.76,1.76,0,0,1,2-1.68,3.82,3.82,0,0,1,2,.63l-.5.9a3.19,3.19,0,0,0-1.55-.52c-.49,0-.77.23-.77.55v0c0,.4.59.56,1.24.77.8.25,1.71.62,1.71,1.61v0c0,1.16-.9,1.73-2,1.73a3.87,3.87,0,0,1-2.34-.82Z" fill="#fff"/><path d="M230.33,19a3.6,3.6,0,0,0-1.26-.22c-.79,0-1.26.32-1.26.86v0c0,.52.47.81,1.06.81.83,0,1.46-.47,1.46-1.16V19Zm0,2.31v-.68a2.23,2.23,0,0,1-1.78.79,1.76,1.76,0,0,1-2-1.7v0c0-1.22,1-1.81,2.23-1.81a4.64,4.64,0,0,1,1.52.23V18c0-.76-.48-1.18-1.36-1.18a3.83,3.83,0,0,0-1.58.34l-.34-1a4.73,4.73,0,0,1,2.1-.46A2.13,2.13,0,0,1,231.55,18V21.3Z" fill="#fff"/><path d="M232.58,20.58l.56-.86a3.1,3.1,0,0,0,1.81.68c.54,0,.86-.23.86-.6v0c0-.43-.59-.57-1.23-.77-.81-.23-1.72-.56-1.72-1.62v0a1.76,1.76,0,0,1,2-1.68,3.82,3.82,0,0,1,2,.63l-.5.9a3.2,3.2,0,0,0-1.56-.52c-.49,0-.77.23-.77.55v0c0,.4.6.56,1.24.77.8.25,1.71.62,1.71,1.61v0c0,1.16-.9,1.73-2,1.73a3.87,3.87,0,0,1-2.34-.82Z" fill="#fff"/><path d="M124.46,28.92h-.7V27.87h.7v-.4a1.87,1.87,0,0,1,.45-1.37,1.67,1.67,0,0,1,1.24-.44,3.39,3.39,0,0,1,1,.15v1.06a2.23,2.23,0,0,0-.74-.14c-.48,0-.73.26-.73.83v.3h1.46v1h-1.44v4.42h-1.26V28.92Z" fill="#fff"/><path d="M132.1,30.62v0a1.7,1.7,0,0,0-1.69-1.77,1.65,1.65,0,0,0-1.66,1.75v0a1.71,1.71,0,0,0,1.68,1.77,1.66,1.66,0,0,0,1.67-1.75Zm-4.61,0v0a2.94,2.94,0,0,1,5.88,0v0a2.88,2.88,0,0,1-3,2.87,2.85,2.85,0,0,1-2.92-2.85Z" fill="#fff"/><path d="M134.39,27.83h1.26v1.24a2,2,0,0,1,2-1.35v1.34h-.07c-1.11,0-1.88.72-1.88,2.18v2.1h-1.26V27.83Z" fill="#fff"/><polygon points="140.88 26.04 142.24 26.04 144.47 29.49 146.69 26.04 148.06 26.04 148.06 33.34 146.77 33.34 146.77 28.11 144.47 31.55 144.43 31.55 142.14 28.13 142.14 33.34 140.88 33.34 140.88 26.04 140.88 26.04" fill="#fff"/><path d="M153.16,30.2a1.43,1.43,0,0,0-1.4-1.45,1.49,1.49,0,0,0-1.43,1.45Zm-4.08.41v0a2.73,2.73,0,0,1,2.69-2.87,2.66,2.66,0,0,1,2.64,3c0,.12,0,.23,0,.36h-4a1.54,1.54,0,0,0,1.59,1.4,2,2,0,0,0,1.49-.66l.74.66a2.79,2.79,0,0,1-2.25,1,2.75,2.75,0,0,1-2.83-2.86Z" fill="#fff"/><path d="M159.61,30.6v0a1.65,1.65,0,0,0-1.6-1.76,1.62,1.62,0,0,0-1.59,1.76v0A1.64,1.64,0,0,0,158,32.36a1.66,1.66,0,0,0,1.6-1.76Zm-4.46,0v0a2.63,2.63,0,0,1,2.56-2.86,2.28,2.28,0,0,1,1.88,1v-3h1.26v7.62h-1.26v-.92a2.21,2.21,0,0,1-1.88,1,2.64,2.64,0,0,1-2.56-2.86Z" fill="#fff"/><path d="M162.23,27.83h1.26v5.51h-1.26V27.83Zm-.05-2h1.36V27h-1.36v-1.2Z" fill="#fff"/><path d="M164.53,30.62v0a2.84,2.84,0,0,1,2.86-2.88,2.75,2.75,0,0,1,2.2.95l-.78.84a1.85,1.85,0,0,0-1.43-.69,1.65,1.65,0,0,0-1.59,1.75v0a1.68,1.68,0,0,0,1.65,1.77,1.94,1.94,0,0,0,1.43-.69l.76.75a2.89,2.89,0,0,1-5.1-1.82Z" fill="#fff"/><path d="M174,31a3.61,3.61,0,0,0-1.26-.22c-.79,0-1.26.32-1.26.86v0c0,.52.47.81,1.06.81.83,0,1.46-.47,1.46-1.16V31Zm0,2.31v-.68a2.23,2.23,0,0,1-1.79.79,1.76,1.76,0,0,1-2-1.7v0c0-1.22.95-1.81,2.23-1.81a4.64,4.64,0,0,1,1.52.23v-.1c0-.76-.48-1.18-1.36-1.18a3.83,3.83,0,0,0-1.58.34l-.34-1a4.73,4.73,0,0,1,2.1-.46,2.13,2.13,0,0,1,2.42,2.33v3.27Z" fill="#fff"/><polygon points="176.53 25.73 177.8 25.73 177.8 33.34 176.53 33.34 176.53 25.73 176.53 25.73" fill="#fff"/><path d="M181.13,32.28l.77-.92a3.36,3.36,0,0,0,2.31.95c.79,0,1.29-.37,1.29-.92v0c0-.52-.29-.8-1.65-1.12-1.56-.38-2.43-.83-2.43-2.18v0a2.23,2.23,0,0,1,2.49-2.12,4,4,0,0,1,2.65.92l-.69,1a3.32,3.32,0,0,0-2-.75c-.75,0-1.19.39-1.19.87v0c0,.56.33.81,1.73,1.15s2.35.93,2.35,2.14v0c0,1.37-1.07,2.18-2.61,2.18a4.5,4.5,0,0,1-3-1.17Z" fill="#fff"/><path d="M187.6,30.62v0a2.84,2.84,0,0,1,2.86-2.88,2.75,2.75,0,0,1,2.2.95l-.78.84a1.86,1.86,0,0,0-1.43-.69,1.65,1.65,0,0,0-1.59,1.75v0a1.68,1.68,0,0,0,1.65,1.77,1.94,1.94,0,0,0,1.43-.69l.76.75a2.89,2.89,0,0,1-5.1-1.82Z" fill="#fff"/><path d="M193.56,27.83h1.26v5.51h-1.26V27.83Zm-.05-2h1.36V27h-1.36v-1.2Z" fill="#fff"/><path d="M199.95,30.2a1.43,1.43,0,0,0-1.4-1.45,1.49,1.49,0,0,0-1.43,1.45Zm-4.08.41v0a2.73,2.73,0,0,1,2.69-2.87,2.66,2.66,0,0,1,2.64,3c0,.12,0,.23,0,.36h-4a1.54,1.54,0,0,0,1.59,1.4,2,2,0,0,0,1.49-.66l.74.66a2.79,2.79,0,0,1-2.25,1,2.75,2.75,0,0,1-2.83-2.86Z" fill="#fff"/><path d="M202.23,27.83h1.26v.86a2,2,0,0,1,1.72-1,1.89,1.89,0,0,1,2,2.12v3.51h-1.26V30.21c0-.86-.43-1.35-1.18-1.35a1.23,1.23,0,0,0-1.24,1.37v3.11h-1.26V27.83Z" fill="#fff"/><path d="M208.14,30.62v0A2.84,2.84,0,0,1,211,27.72a2.75,2.75,0,0,1,2.2.95l-.78.84a1.86,1.86,0,0,0-1.43-.69,1.65,1.65,0,0,0-1.59,1.75v0a1.68,1.68,0,0,0,1.65,1.77,1.94,1.94,0,0,0,1.43-.69l.76.75a2.79,2.79,0,0,1-2.25,1,2.81,2.81,0,0,1-2.85-2.85Z" fill="#fff"/><path d="M217.76,30.2a1.43,1.43,0,0,0-1.4-1.45,1.49,1.49,0,0,0-1.43,1.45Zm-4.08.41v0a2.73,2.73,0,0,1,2.69-2.87,2.66,2.66,0,0,1,2.64,3c0,.12,0,.23,0,.36h-4a1.54,1.54,0,0,0,1.59,1.4,2,2,0,0,0,1.49-.66l.74.66a2.79,2.79,0,0,1-2.25,1,2.75,2.75,0,0,1-2.83-2.86Z" fill="#fff"/><path d="M219.57,32.62l.56-.86a3.1,3.1,0,0,0,1.81.68c.54,0,.86-.23.86-.6v0c0-.43-.59-.57-1.23-.77-.81-.23-1.72-.56-1.72-1.62v0a1.76,1.76,0,0,1,2-1.68,3.82,3.82,0,0,1,2,.63l-.5.9a3.2,3.2,0,0,0-1.56-.52c-.49,0-.77.23-.77.55v0c0,.4.59.56,1.24.77.8.25,1.71.62,1.71,1.61v0c0,1.16-.9,1.73-2,1.73a3.87,3.87,0,0,1-2.34-.82Z" fill="#fff"/><path d="M108.34,36h-.43v-.57h.43c.22,0,.35.1.35.29s-.13.29-.35.29Zm.87-.32c0-.47-.35-.68-.83-.68h-1v2.07h.5v-.65h.32l.44.65h.6l-.52-.74a.64.64,0,0,0,.46-.64Z" fill="#fff"/><path d="M110,36.06h0a1.76,1.76,0,1,1-3.51,0h0a1.76,1.76,0,1,1,3.51,0ZM108.23,34a2.11,2.11,0,1,0,2.11,2.11A2.11,2.11,0,0,0,108.23,34Z" fill="#fff"/></svg>