<?xml version="1.0" encoding="utf-8"?>
<!-- Generator: Adobe Illustrator 16.0.0, SVG Export Plug-In . SVG Version: 6.00 Build 0)  -->
<!DOCTYPE svg PUBLIC "-//W3C//DTD SVG 1.1//EN" "http://www.w3.org/Graphics/SVG/1.1/DTD/svg11.dtd">
<svg version="1.1" id="Layer_1" xmlns="http://www.w3.org/2000/svg" xmlns:xlink="http://www.w3.org/1999/xlink" x="0px" y="0px"
	 width="24.559px" height="22.23px" viewBox="0 0 24.559 22.23" enable-background="new 0 0 24.559 22.23" xml:space="preserve">
<g>
	<path fill="#FFFFFF" d="M18.276,0.23c-2.639,0-4.934,1.338-6.069,3.289C11.07,1.568,8.776,0.23,6.138,0.23
		c-3.984,0-6.068,3.436-6.068,6.827c0,7.925,11.268,14.775,11.747,15.063c0.12,0.072,0.256,0.108,0.391,0.108
		c0.136,0,0.271-0.036,0.392-0.108c0.479-0.288,11.747-7.14,11.747-15.063C24.345,3.666,22.26,0.23,18.276,0.23z M12.207,20.575
		C10.246,19.309,1.586,13.364,1.586,7.057c0-2.557,1.424-5.311,4.553-5.311c2.556,0,5.311,1.74,5.311,4.552
		c0,0.419,0.339,0.759,0.759,0.759c0.419,0,0.759-0.34,0.759-0.759c0-2.812,2.757-4.552,5.312-4.552
		c3.127,0,4.551,2.754,4.551,5.311C22.827,13.356,14.167,19.308,12.207,20.575z"/>
</g>
</svg>