<?xml version="1.0" encoding="utf-8"?>
<!-- Generator: Adobe Illustrator 16.0.0, SVG Export Plug-In . SVG Version: 6.00 Build 0)  -->
<!DOCTYPE svg PUBLIC "-//W3C//DTD SVG 1.1//EN" "http://www.w3.org/Graphics/SVG/1.1/DTD/svg11.dtd">
<svg version="1.1" id="Layer_1" xmlns="http://www.w3.org/2000/svg" xmlns:xlink="http://www.w3.org/1999/xlink" x="0px" y="0px"
	 width="26.666px" height="25.08px" viewBox="0 0 26.666 25.08" enable-background="new 0 0 26.666 25.08" xml:space="preserve">
<path fill="none" stroke="#404040" stroke-width="1.8" stroke-miterlimit="10" d="M21.113,20.979c0,0-4.038-1.784-4.793-2.364
	c-0.754-0.583-0.492-1.456-0.173-1.751c0.841-0.776,1.276-1.968,1.247-2.229c0,0,0.813-0.987,0.813-1.512
	c0-0.522-0.436-1.066-0.436-1.066s0.117-1.692,0.088-2.825c-0.029-1.133-0.978-3.573-4.133-3.573c-3.157,0-4.107,2.44-4.135,3.573
	c-0.029,1.132,0.086,2.825,0.086,2.825S9.243,12.6,9.243,13.123c0,0.524,0.814,1.512,0.814,1.512
	c-0.029,0.262,0.406,1.453,1.247,2.229c0.319,0.295,0.582,1.168-0.173,1.751c-0.754,0.58-4.792,2.364-4.792,2.364"/>
<circle fill="none" stroke="#404040" stroke-width="1.8" stroke-miterlimit="10" cx="13.726" cy="12.312" r="11.376"/>
</svg>