<?xml version="1.0" encoding="utf-8"?>
<!-- Generator: Adobe Illustrator 16.0.0, SVG Export Plug-In . SVG Version: 6.00 Build 0)  -->
<!DOCTYPE svg PUBLIC "-//W3C//DTD SVG 1.1//EN" "http://www.w3.org/Graphics/SVG/1.1/DTD/svg11.dtd">
<svg version="1.1" id="Layer_1" xmlns="http://www.w3.org/2000/svg" xmlns:xlink="http://www.w3.org/1999/xlink" x="0px" y="0px"
	 width="34.439px" height="33.861px" viewBox="0 0 34.439 33.861" enable-background="new 0 0 34.439 33.861" xml:space="preserve">
<path fill="#FFFFFF" d="M7.2,13.816c0-7.387,6.01-13.397,13.397-13.397c7.387,0,13.398,6.011,13.398,13.397
	c0,7.389-6.012,13.399-13.398,13.399C13.21,27.216,7.2,21.205,7.2,13.816z M10.216,13.816c0,5.727,4.656,10.385,10.383,10.385
	c5.726,0,10.384-4.658,10.384-10.385c0-5.726-4.658-10.381-10.384-10.381C14.872,3.435,10.216,8.092,10.216,13.816z"/>
<rect x="5.266" y="20.574" transform="matrix(-0.707 -0.7073 0.7073 -0.707 -7.4497 51.5134)" fill="#FFFFFF" width="3.362" height="13.452"/>
</svg>
