<?xml version="1.0" encoding="utf-8"?>
<!-- Generator: Adobe Illustrator 20.1.0, SVG Export Plug-In . SVG Version: 6.00 Build 0)  -->
<svg version="1.1" id="Layer_1" xmlns="http://www.w3.org/2000/svg" xmlns:xlink="http://www.w3.org/1999/xlink" x="0px" y="0px"
	 width="612px" height="649.5px" viewBox="0 0 612 649.5" style="enable-background:new 0 0 612 649.5;" xml:space="preserve">
<style type="text/css">
	.st0{fill:none;stroke:#FFFFFF;stroke-miterlimit:10;}
</style>
<line class="st0" x1="13.6" y1="0" x2="-176.9" y2="649.5"/>
<line class="st0" x1="24.9" y1="0" x2="-165.6" y2="649.5"/>
<line class="st0" x1="36.1" y1="0" x2="-154.4" y2="649.5"/>
<line class="st0" x1="47.4" y1="0" x2="-143.1" y2="649.5"/>
<line class="st0" x1="58.7" y1="0" x2="-131.8" y2="649.5"/>
<line class="st0" x1="69.9" y1="0" x2="-120.6" y2="649.5"/>
<line class="st0" x1="81.2" y1="0" x2="-109.3" y2="649.5"/>
<line class="st0" x1="92.5" y1="0" x2="-98" y2="649.5"/>
<line class="st0" x1="103.7" y1="0" x2="-86.8" y2="649.5"/>
<line class="st0" x1="115" y1="0" x2="-75.5" y2="649.5"/>
<line class="st0" x1="126.2" y1="0" x2="-64.2" y2="649.5"/>
<line class="st0" x1="137.5" y1="0" x2="-53" y2="649.5"/>
<line class="st0" x1="148.8" y1="0" x2="-41.7" y2="649.5"/>
<line class="st0" x1="160" y1="0" x2="-30.5" y2="649.5"/>
<line class="st0" x1="171.3" y1="0" x2="-19.2" y2="649.5"/>
<line class="st0" x1="182.6" y1="0" x2="-7.9" y2="649.5"/>
<line class="st0" x1="193.8" y1="0" x2="3.3" y2="649.5"/>
<line class="st0" x1="205.1" y1="0" x2="14.6" y2="649.5"/>
<line class="st0" x1="216.4" y1="0" x2="25.9" y2="649.5"/>
<line class="st0" x1="227.6" y1="0" x2="37.1" y2="649.5"/>
<line class="st0" x1="238.9" y1="0" x2="48.4" y2="649.5"/>
<line class="st0" x1="250.2" y1="0" x2="59.7" y2="649.5"/>
<line class="st0" x1="261.4" y1="0" x2="70.9" y2="649.5"/>
<line class="st0" x1="272.7" y1="0" x2="82.2" y2="649.5"/>
<line class="st0" x1="283.9" y1="0" x2="93.5" y2="649.5"/>
<line class="st0" x1="295.2" y1="0" x2="104.7" y2="649.5"/>
<line class="st0" x1="306.5" y1="0" x2="116" y2="649.5"/>
<line class="st0" x1="317.7" y1="0" x2="127.2" y2="649.5"/>
<line class="st0" x1="329" y1="0" x2="138.5" y2="649.5"/>
<line class="st0" x1="340.3" y1="0" x2="149.8" y2="649.5"/>
<line class="st0" x1="351.5" y1="0" x2="161" y2="649.5"/>
<line class="st0" x1="362.8" y1="0" x2="172.3" y2="649.5"/>
<line class="st0" x1="374.1" y1="0" x2="183.6" y2="649.5"/>
<line class="st0" x1="385.3" y1="0" x2="194.8" y2="649.5"/>
<line class="st0" x1="396.6" y1="0" x2="206.1" y2="649.5"/>
<line class="st0" x1="407.9" y1="0" x2="217.4" y2="649.5"/>
<line class="st0" x1="419.1" y1="0" x2="228.6" y2="649.5"/>
<line class="st0" x1="430.4" y1="0" x2="239.9" y2="649.5"/>
<line class="st0" x1="441.6" y1="0" x2="251.2" y2="649.5"/>
<line class="st0" x1="452.9" y1="0" x2="262.4" y2="649.5"/>
<line class="st0" x1="464.2" y1="0" x2="273.7" y2="649.5"/>
<line class="st0" x1="475.4" y1="0" x2="284.9" y2="649.5"/>
<line class="st0" x1="486.7" y1="0" x2="296.2" y2="649.5"/>
<line class="st0" x1="498" y1="0" x2="307.5" y2="649.5"/>
<line class="st0" x1="509.2" y1="0" x2="318.7" y2="649.5"/>
<line class="st0" x1="520.5" y1="0" x2="330" y2="649.5"/>
<line class="st0" x1="531.8" y1="0" x2="341.3" y2="649.5"/>
<line class="st0" x1="543" y1="0" x2="352.5" y2="649.5"/>
<line class="st0" x1="554.3" y1="0" x2="363.8" y2="649.5"/>
<line class="st0" x1="565.5" y1="0" x2="375.1" y2="649.5"/>
<line class="st0" x1="576.8" y1="0" x2="386.3" y2="649.5"/>
<line class="st0" x1="588.1" y1="0" x2="397.6" y2="649.5"/>
</svg>
