<?xml version="1.0" encoding="utf-8"?>
<!-- Generator: Adobe Illustrator 16.0.0, SVG Export Plug-In . SVG Version: 6.00 Build 0)  -->
<!DOCTYPE svg PUBLIC "-//W3C//DTD SVG 1.1//EN" "http://www.w3.org/Graphics/SVG/1.1/DTD/svg11.dtd">
<svg version="1.1" id="Layer_1" xmlns="http://www.w3.org/2000/svg" xmlns:xlink="http://www.w3.org/1999/xlink" x="0px" y="0px"
	 width="612px" height="649.468px" viewBox="0 0 612 649.468" enable-background="new 0 0 612 649.468" xml:space="preserve">
<g>
	<line fill="none" stroke="#FFFFFF" stroke-miterlimit="10" x1="13.605" y1="0" x2="-176.885" y2="649.468"/>
	<line fill="none" stroke="#FFFFFF" stroke-miterlimit="10" x1="24.869" y1="0" x2="-165.621" y2="649.468"/>
	<line fill="none" stroke="#FFFFFF" stroke-miterlimit="10" x1="36.133" y1="0" x2="-154.357" y2="649.468"/>
	<line fill="none" stroke="#FFFFFF" stroke-miterlimit="10" x1="47.397" y1="0" x2="-143.093" y2="649.468"/>
	<line fill="none" stroke="#FFFFFF" stroke-miterlimit="10" x1="58.662" y1="0" x2="-131.829" y2="649.468"/>
	<line fill="none" stroke="#FFFFFF" stroke-miterlimit="10" x1="69.926" y1="0" x2="-120.564" y2="649.468"/>
	<line fill="none" stroke="#FFFFFF" stroke-miterlimit="10" x1="81.19" y1="0" x2="-109.3" y2="649.468"/>
	<line fill="none" stroke="#FFFFFF" stroke-miterlimit="10" x1="92.454" y1="0" x2="-98.036" y2="649.468"/>
	<line fill="none" stroke="#FFFFFF" stroke-miterlimit="10" x1="103.718" y1="0" x2="-86.772" y2="649.468"/>
	<line fill="none" stroke="#FFFFFF" stroke-miterlimit="10" x1="114.982" y1="0" x2="-75.508" y2="649.468"/>
	<line fill="none" stroke="#FFFFFF" stroke-miterlimit="10" x1="126.246" y1="0" x2="-64.244" y2="649.468"/>
	<line fill="none" stroke="#FFFFFF" stroke-miterlimit="10" x1="137.511" y1="0" x2="-52.98" y2="649.468"/>
	<line fill="none" stroke="#FFFFFF" stroke-miterlimit="10" x1="148.775" y1="0" x2="-41.715" y2="649.468"/>
	<line fill="none" stroke="#FFFFFF" stroke-miterlimit="10" x1="160.039" y1="0" x2="-30.451" y2="649.468"/>
	<line fill="none" stroke="#FFFFFF" stroke-miterlimit="10" x1="171.303" y1="0" x2="-19.188" y2="649.468"/>
	<line fill="none" stroke="#FFFFFF" stroke-miterlimit="10" x1="182.567" y1="0" x2="-7.923" y2="649.468"/>
	<line fill="none" stroke="#FFFFFF" stroke-miterlimit="10" x1="193.831" y1="0" x2="3.341" y2="649.468"/>
	<line fill="none" stroke="#FFFFFF" stroke-miterlimit="10" x1="205.096" y1="0" x2="14.605" y2="649.468"/>
	<line fill="none" stroke="#FFFFFF" stroke-miterlimit="10" x1="216.359" y1="0" x2="25.869" y2="649.468"/>
	<line fill="none" stroke="#FFFFFF" stroke-miterlimit="10" x1="227.624" y1="0" x2="37.134" y2="649.468"/>
	<line fill="none" stroke="#FFFFFF" stroke-miterlimit="10" x1="238.888" y1="0" x2="48.397" y2="649.468"/>
	<line fill="none" stroke="#FFFFFF" stroke-miterlimit="10" x1="250.152" y1="0" x2="59.662" y2="649.468"/>
	<line fill="none" stroke="#FFFFFF" stroke-miterlimit="10" x1="261.416" y1="0" x2="70.926" y2="649.468"/>
	<line fill="none" stroke="#FFFFFF" stroke-miterlimit="10" x1="272.68" y1="0" x2="82.19" y2="649.468"/>
	<line fill="none" stroke="#FFFFFF" stroke-miterlimit="10" x1="283.944" y1="0" x2="93.454" y2="649.468"/>
	<line fill="none" stroke="#FFFFFF" stroke-miterlimit="10" x1="295.208" y1="0" x2="104.718" y2="649.468"/>
	<line fill="none" stroke="#FFFFFF" stroke-miterlimit="10" x1="306.473" y1="0" x2="115.982" y2="649.468"/>
	<line fill="none" stroke="#FFFFFF" stroke-miterlimit="10" x1="317.737" y1="0" x2="127.246" y2="649.468"/>
	<line fill="none" stroke="#FFFFFF" stroke-miterlimit="10" x1="329.001" y1="0" x2="138.511" y2="649.468"/>
	<line fill="none" stroke="#FFFFFF" stroke-miterlimit="10" x1="340.266" y1="0" x2="149.775" y2="649.468"/>
	<line fill="none" stroke="#FFFFFF" stroke-miterlimit="10" x1="351.529" y1="0" x2="161.039" y2="649.468"/>
	<line fill="none" stroke="#FFFFFF" stroke-miterlimit="10" x1="362.793" y1="0" x2="172.303" y2="649.468"/>
	<line fill="none" stroke="#FFFFFF" stroke-miterlimit="10" x1="374.058" y1="0" x2="183.567" y2="649.468"/>
	<line fill="none" stroke="#FFFFFF" stroke-miterlimit="10" x1="385.322" y1="0" x2="194.831" y2="649.468"/>
	<line fill="none" stroke="#FFFFFF" stroke-miterlimit="10" x1="396.586" y1="0" x2="206.096" y2="649.468"/>
	<line fill="none" stroke="#FFFFFF" stroke-miterlimit="10" x1="407.85" y1="0" x2="217.36" y2="649.468"/>
	<line fill="none" stroke="#FFFFFF" stroke-miterlimit="10" x1="419.114" y1="0" x2="228.624" y2="649.468"/>
	<line fill="none" stroke="#FFFFFF" stroke-miterlimit="10" x1="430.378" y1="0" x2="239.888" y2="649.468"/>
	<line fill="none" stroke="#FFFFFF" stroke-miterlimit="10" x1="441.643" y1="0" x2="251.152" y2="649.468"/>
	<line fill="none" stroke="#FFFFFF" stroke-miterlimit="10" x1="452.906" y1="0" x2="262.416" y2="649.468"/>
	<line fill="none" stroke="#FFFFFF" stroke-miterlimit="10" x1="464.17" y1="0" x2="273.681" y2="649.468"/>
	<line fill="none" stroke="#FFFFFF" stroke-miterlimit="10" x1="475.435" y1="0" x2="284.945" y2="649.468"/>
	<line fill="none" stroke="#FFFFFF" stroke-miterlimit="10" x1="486.699" y1="0" x2="296.208" y2="649.468"/>
	<line fill="none" stroke="#FFFFFF" stroke-miterlimit="10" x1="497.963" y1="0" x2="307.473" y2="649.468"/>
	<line fill="none" stroke="#FFFFFF" stroke-miterlimit="10" x1="509.228" y1="0" x2="318.736" y2="649.468"/>
	<line fill="none" stroke="#FFFFFF" stroke-miterlimit="10" x1="520.491" y1="0" x2="330.001" y2="649.468"/>
	<line fill="none" stroke="#FFFFFF" stroke-miterlimit="10" x1="531.755" y1="0" x2="341.266" y2="649.468"/>
	<line fill="none" stroke="#FFFFFF" stroke-miterlimit="10" x1="543.02" y1="0" x2="352.529" y2="649.468"/>
	<line fill="none" stroke="#FFFFFF" stroke-miterlimit="10" x1="554.284" y1="0" x2="363.794" y2="649.468"/>
	<line fill="none" stroke="#FFFFFF" stroke-miterlimit="10" x1="565.548" y1="0" x2="375.058" y2="649.468"/>
	<line fill="none" stroke="#FFFFFF" stroke-miterlimit="10" x1="576.812" y1="0" x2="386.321" y2="649.468"/>
	<line fill="none" stroke="#FFFFFF" stroke-miterlimit="10" x1="588.076" y1="0" x2="397.586" y2="649.468"/>
</g>
</svg>
