<?xml version="1.0" encoding="utf-8"?>
<!-- Generator: Adobe Illustrator 20.1.0, SVG Export Plug-In . SVG Version: 6.00 Build 0)  -->
<svg version="1.1" id="Layer_1" xmlns="http://www.w3.org/2000/svg" xmlns:xlink="http://www.w3.org/1999/xlink" x="0px" y="0px"
	 width="612px" height="649.5px" viewBox="0 0 612 649.5" style="enable-background:new 0 0 612 649.5;" xml:space="preserve">
<style type="text/css">
	.st0{fill:none;stroke:#FFFFFF;stroke-width:0.5;stroke-miterlimit:10;}
</style>
<g>
	<polyline class="st0" points="165.5,-79.5 143.3,-79.5 137.9,-92.9 160.1,-92.9 165.5,-79.5 	"/>
	<polyline class="st0" points="176.3,-52.9 165.5,-79.5 187,-79.5 184.8,-73.9 176.3,-52.9 	"/>
	<polyline class="st0" points="187,-79.5 165.5,-79.5 160.1,-92.9 189.2,-92.9 190.8,-88.9 187.8,-81.5 187,-79.5 	"/>
	<polyline class="st0" points="139.8,-15.9 117.5,-15.9 110.7,-32.8 110.7,-32.8 110.7,-32.8 110.7,-32.8 110.7,-32.8 121.5,-59.5 
		121.9,-60.4 124.9,-52.9 139.8,-15.9 	"/>
	<polyline class="st0" points="154.1,-52.9 124.9,-52.9 121.9,-60.4 125.3,-68.8 125.3,-68.9 135,-92.9 137.9,-92.9 143.3,-79.5 
		154.1,-52.9 	"/>
	<polyline class="st0" points="150.6,10.7 139.8,-15.9 161.4,-15.9 159.1,-10.3 150.6,10.7 	"/>
	<polyline class="st0" points="161.4,-15.9 139.8,-15.9 124.9,-52.9 154.1,-52.9 165.2,-25.3 162.2,-17.9 161.4,-15.9 	"/>
	<polyline class="st0" points="165.2,-25.3 154.1,-52.9 176.3,-52.9 169.8,-37 169.9,-37 165.2,-25.3 	"/>
	<polyline class="st0" points="99.9,-59.5 77.6,-59.5 70.8,-76.4 64,-59.5 64,-59.5 68.6,-71 70.8,-76.5 70.8,-76.5 77.4,-92.9 
		86.4,-92.9 99.9,-59.5 	"/>
	<polyline class="st0" points="110.7,-32.8 110.7,-32.8 99.9,-59.5 121.5,-59.5 110.7,-32.8 	"/>
	<polyline class="st0" points="121.5,-59.5 121.5,-59.5 99.9,-59.5 86.4,-92.9 115.6,-92.9 125.3,-68.9 125.3,-68.8 121.9,-60.4 
		121.5,-59.5 	"/>
	<polyline class="st0" points="125.3,-68.9 125.3,-68.9 115.6,-92.9 135,-92.9 125.3,-68.9 	"/>
	<polyline class="st0" points="114.1,47.8 91.8,47.8 85,30.9 85,30.9 85,30.9 95.8,4.2 96.2,3.3 99.2,10.8 114.1,47.8 	"/>
	<polyline class="st0" points="128.3,10.8 99.2,10.8 96.2,3.3 99.6,-5.2 99.6,-5.2 110.7,-32.8 117.5,-15.9 128.3,10.8 	"/>
	<polyline class="st0" points="124.9,74.3 114.1,47.8 135.7,47.8 133.4,53.4 125.3,73.5 125.2,73.5 124.9,74.3 	"/>
	<polyline class="st0" points="135.7,47.8 114.1,47.8 99.2,10.8 128.3,10.8 139.5,38.4 136.4,45.8 135.7,47.8 	"/>
	<polyline class="st0" points="139.5,38.4 128.3,10.8 150.6,10.8 144.2,26.6 144.2,26.6 139.5,38.4 	"/>
	<polyline class="st0" points="74.2,4.2 51.9,4.2 45.1,-12.7 45.1,-12.8 45.1,-12.8 53.2,-32.8 56.2,-40.3 59.3,-32.8 74.2,4.2 	"/>
	<polyline class="st0" points="88.4,-32.8 59.3,-32.8 56.2,-40.3 64,-59.5 70.8,-76.4 77.6,-59.5 88.4,-32.8 	"/>
	<polyline class="st0" points="85,30.9 85,30.9 74.2,4.2 95.8,4.2 85,30.9 	"/>
	<polyline class="st0" points="95.8,4.2 95.8,4.2 74.2,4.2 59.3,-32.8 88.4,-32.8 99.6,-5.2 99.6,-5.2 96.2,3.3 95.8,4.2 	"/>
	<polyline class="st0" points="99.6,-5.2 99.6,-5.2 88.4,-32.8 110.7,-32.8 110.7,-32.8 110.7,-32.8 99.6,-5.2 	"/>
	<polyline class="st0" points="88.4,111.5 66.1,111.5 59.2,94.6 59.3,94.6 59.3,94.6 70,67.8 70.4,66.9 73.5,74.5 88.4,111.5 	"/>
	<polyline class="st0" points="102.6,74.5 73.5,74.5 70.4,66.9 73.8,58.5 73.8,58.5 85,30.9 85,30.9 91.8,47.8 102.6,74.5 	"/>
	<polyline class="st0" points="99.1,138 88.4,111.5 109.9,111.5 107.6,117.1 99.5,137.1 99.5,137.1 99.1,138 	"/>
	<polyline class="st0" points="109.9,111.5 88.4,111.5 73.5,74.5 102.6,74.5 113.7,102 110.7,109.5 109.9,111.5 	"/>
	<polyline class="st0" points="113.7,102 102.6,74.5 124.8,74.5 113.7,102 	"/>
	<polyline class="st0" points="48.5,67.8 26.1,67.8 19.3,51 19.4,50.9 19.4,50.9 19.4,50.8 19.4,50.8 30.2,24.1 30.5,23.4 
		33.5,30.9 48.5,67.8 	"/>
	<polyline class="st0" points="62.7,30.9 33.5,30.9 30.5,23.4 34,14.8 34,14.8 45.1,-12.7 51.9,4.2 62.7,30.9 	"/>
	<polyline class="st0" points="59.3,94.6 59.3,94.6 48.5,67.8 70,67.8 59.3,94.6 	"/>
	<polyline class="st0" points="70,67.8 70,67.8 48.5,67.8 33.5,30.9 62.7,30.9 73.8,58.5 73.8,58.5 70.4,66.9 70,67.8 	"/>
	<polyline class="st0" points="73.8,58.5 73.8,58.5 62.7,30.9 85,30.9 85,30.9 73.8,58.5 	"/>
	<polyline class="st0" points="62.7,175.1 40.4,175.1 33.5,158.2 33.6,158.2 33.5,158.2 44.3,131.5 44.7,130.6 47.7,138.2 
		62.7,175.1 	"/>
	<polyline class="st0" points="76.9,138.2 47.7,138.2 44.7,130.6 48.1,122.2 48.1,122.2 59.2,94.6 59.2,94.6 66.1,111.5 76.9,138.2 
			"/>
	<polyline class="st0" points="73.4,201.7 62.7,175.1 84.2,175.1 81.9,180.7 73.4,201.7 	"/>
	<polyline class="st0" points="84.2,175.1 62.7,175.1 47.7,138.2 76.9,138.2 88,165.7 85,173.1 84.2,175.1 	"/>
	<polyline class="st0" points="88,165.7 76.9,138.2 99.1,138.2 88,165.7 	"/>
	<polyline class="st0" points="22.7,131.5 0.4,131.5 -6.4,114.6 -13.2,131.5 -13.2,131.5 -8.7,120.2 -6.4,114.5 -6.4,114.5 
		-6.4,114.5 -6.4,114.5 4.4,87.8 4.8,87 7.8,94.6 22.7,131.5 	"/>
	<polyline class="st0" points="36.9,94.6 7.8,94.6 4.8,87 8.2,78.5 8.2,78.5 19.3,51 26.1,67.8 36.9,94.6 	"/>
	<polyline class="st0" points="33.5,158.2 33.5,158.2 22.7,131.5 44.3,131.5 33.5,158.2 	"/>
	<polyline class="st0" points="44.3,131.5 44.3,131.5 22.7,131.5 7.8,94.6 36.9,94.6 48.1,122.2 48.1,122.2 44.7,130.6 44.3,131.5 	
		"/>
	<polyline class="st0" points="48.1,122.2 48.1,122.2 36.9,94.6 59.3,94.6 59.2,94.6 48.1,122.2 	"/>
	<polyline class="st0" points="70.8,-76.5 70.7,-76.5 64.1,-92.9 77.4,-92.9 70.8,-76.5 	"/>
	<polyline class="st0" points="34.3,-39.6 12,-39.6 5.2,-56.4 5.2,-56.4 5.1,-56.4 5.2,-56.5 5.2,-56.5 16,-83.2 16.3,-84.1 
		19.4,-76.5 34.3,-39.6 	"/>
	<polyline class="st0" points="48.5,-76.5 19.4,-76.5 16.3,-84.1 19.7,-92.5 19.7,-92.5 19.7,-92.5 19.9,-92.9 41.9,-92.9 
		48.5,-76.5 	"/>
	<polyline class="st0" points="45.1,-12.9 34.3,-39.6 55.9,-39.6 45.1,-12.9 	"/>
	<polyline class="st0" points="55.9,-39.6 55.9,-39.6 34.3,-39.6 19.4,-76.5 48.5,-76.5 59.7,-48.9 59.7,-48.9 55.9,-39.6 	"/>
	<polyline class="st0" points="59.7,-48.9 59.7,-48.9 48.5,-76.5 70.7,-76.5 70.8,-76.5 70.8,-76.5 70.8,-76.5 68.6,-71 59.7,-48.9 
			"/>
	<polyline class="st0" points="-5.6,-83.2 -27.9,-83.2 -31.9,-92.9 -9.6,-92.9 -5.6,-83.2 	"/>
	<polyline class="st0" points="5.2,-56.5 5.2,-56.5 -5.6,-83.2 16,-83.2 5.2,-56.5 	"/>
	<polyline class="st0" points="16,-83.2 16,-83.2 -5.6,-83.2 -9.6,-92.9 19.6,-92.9 19.7,-92.5 19.7,-92.5 19.7,-92.5 16.3,-84.1 
		16,-83.2 	"/>
	<polyline class="st0" points="8.6,24.1 -13.8,24.1 -20.6,7.3 -20.5,7.2 -20.5,7.2 -9.7,-19.5 -9.4,-20.4 -6.3,-12.8 8.6,24.1 	"/>
	<polyline class="st0" points="22.8,-12.8 -6.3,-12.8 -9.4,-20.4 -6,-28.8 -6,-28.8 5.2,-56.4 12,-39.6 22.8,-12.8 	"/>
	<polyline class="st0" points="19.4,50.8 19.4,50.8 8.6,24.1 30.2,24.1 19.4,50.8 	"/>
	<polyline class="st0" points="30.2,24.1 30.2,24.1 8.6,24.1 -6.3,-12.8 22.8,-12.8 34,14.8 34,14.8 30.5,23.4 30.2,24.1 	"/>
	<polyline class="st0" points="34,14.8 34,14.8 22.8,-12.8 45.1,-12.8 45.1,-12.8 45.1,-12.7 34,14.8 	"/>
	<polyline class="st0" points="-17.1,-56.4 -35.3,-56.4 -35.3,-92.9 -31.9,-92.9 -27.9,-83.2 -17.1,-56.4 	"/>
	<polyline class="st0" points="-20.5,7.2 -20.5,7.2 -31.3,-19.5 -9.7,-19.5 -20.5,7.2 	"/>
	<polyline class="st0" points="-9.7,-19.5 -9.7,-19.5 -31.3,-19.5 -35.3,-29.3 -35.3,-56.4 -17.1,-56.4 -6,-28.8 -6,-28.8 
		-9.4,-20.4 -9.7,-19.5 	"/>
	<polyline class="st0" points="-6,-28.8 -6,-28.8 -17.1,-56.4 5.1,-56.4 5.2,-56.4 5.2,-56.4 -6,-28.8 	"/>
	<polyline class="st0" points="-17.2,87.8 -35.3,87.8 -35.3,43.7 -35.1,43.3 -32.1,50.9 -17.2,87.8 	"/>
	<polyline class="st0" points="-3,50.9 -32.1,50.9 -35.1,43.3 -31.7,34.9 -31.7,34.9 -20.6,7.3 -20.6,7.3 -13.8,24.1 -3,50.9 	"/>
	<polyline class="st0" points="-6.4,114.5 -6.4,114.5 -17.2,87.8 4.4,87.8 -6.4,114.5 	"/>
	<polyline class="st0" points="4.4,87.8 4.4,87.8 -17.2,87.8 -32.1,50.9 -3,50.9 8.2,78.5 8.2,78.5 4.8,87 4.4,87.8 	"/>
	<polyline class="st0" points="8.2,78.5 8.2,78.5 -3,50.9 19.4,50.9 19.4,50.9 19.3,51 8.2,78.5 	"/>
	<polyline class="st0" points="-31.7,34.9 -31.7,34.9 -35.3,26.1 -35.3,7.3 -20.6,7.3 -20.6,7.3 -31.7,34.9 	"/>
	<polyline class="st0" points="-32.1,178.2 -35.3,170.3 -35.3,151.5 -21.3,151.5 -32.1,178.2 	"/>
	<polyline class="st0" points="-21.3,151.5 -21.3,151.5 -35.3,151.5 -35.3,114.5 -28.7,114.5 -17.5,142.1 -17.5,142.1 -21.3,151.5 	
		"/>
	<polyline class="st0" points="-17.5,142.1 -17.5,142.1 -28.7,114.5 -6.4,114.5 -6.4,114.5 -8.7,120.2 -17.5,142.1 	"/>
	<polyline class="st0" points="37,238.7 13.1,238.7 7.1,223.8 7.8,221.8 7.8,221.9 18.6,195.1 19,194.2 22,201.8 37,238.7 	"/>
	<polyline class="st0" points="51.2,201.8 22,201.8 19,194.2 22.4,185.8 22.4,185.8 33.5,158.2 40.4,175.1 51.2,201.8 	"/>
	<polyline class="st0" points="47.7,265.4 37,238.7 58.5,238.7 56.2,244.4 47.7,265.4 	"/>
	<polyline class="st0" points="58.5,238.7 37,238.7 22,201.8 51.2,201.8 62.3,229.3 59.3,236.8 58.5,238.7 	"/>
	<polyline class="st0" points="62.3,229.3 51.2,201.8 73.4,201.8 67,217.7 67,217.7 62.3,229.3 	"/>
	<polyline class="st0" points="-3,195.1 -26.8,195.1 -32.9,180.2 -24,158.2 -20.9,150.6 -17.9,158.2 -3,195.1 	"/>
	<polyline class="st0" points="11.2,158.2 -17.9,158.2 -20.9,150.6 -13.2,131.5 -6.4,114.6 0.4,131.5 11.2,158.2 	"/>
	<polyline class="st0" points="7.8,221.9 7.8,221.8 -3,195.1 18.6,195.1 7.8,221.9 	"/>
	<polyline class="st0" points="18.6,195.1 18.6,195.1 -3,195.1 -17.9,158.2 11.2,158.2 22.4,185.8 22.4,185.8 19,194.2 18.6,195.1 	
		"/>
	<polyline class="st0" points="22.4,185.8 22.4,185.8 11.2,158.2 33.5,158.2 33.5,158.2 33.6,158.2 33.5,158.2 22.4,185.8 	"/>
	<polyline class="st0" points="10.3,303.8 -12,303.8 -18.8,286.9 -18.8,286.8 -18.8,286.8 -8.1,260.2 -7.7,259.3 -4.6,266.9 
		10.3,303.8 	"/>
	<polyline class="st0" points="24.5,266.9 -4.6,266.9 -7.7,259.3 -4.3,250.9 -4.3,250.9 6.9,223.3 7.1,223.8 1,238.7 13.1,238.7 
		24.5,266.9 	"/>
	<polyline class="st0" points="13.1,238.7 1,238.7 7.1,223.8 13.1,238.7 	"/>
	<polyline class="st0" points="21.1,330.4 21.1,330.4 10.3,303.8 31.9,303.8 21.1,330.4 	"/>
	<polyline class="st0" points="31.9,303.8 31.9,303.8 10.3,303.8 -4.6,266.9 24.5,266.9 35.6,294.5 35.6,294.5 31.9,303.8 	"/>
	<polyline class="st0" points="35.6,294.5 35.6,294.5 24.5,266.9 46.8,266.9 35.6,294.5 	"/>
	<path class="st0" d="M-15.5,223.2h-19.8v-28.1h8.5L-15.5,223.2 M-35.3,186.1v-1l2.2-5.5l0.2,0.5L-35.3,186.1"/>
	<polyline class="st0" points="-18.8,286.8 -18.9,286.8 -29.7,260.2 -8.1,260.2 -18.8,286.8 	"/>
	<polyline class="st0" points="-8.1,260.2 -8.1,260.2 -29.7,260.2 -35.3,246.2 -35.3,223.2 -15.5,223.2 -4.3,250.9 -4.3,250.9 
		-7.7,259.3 -8.1,260.2 	"/>
	<polyline class="st0" points="-4.3,250.9 -4.3,250.9 -15.5,223.2 6.9,223.2 6.9,223.3 -4.3,250.9 	"/>
	<polyline class="st0" points="-15.4,367.4 -35.3,367.4 -35.3,327.6 -33.4,322.9 -30.3,330.4 -15.4,367.4 	"/>
	<polyline class="st0" points="-1.2,330.4 -30.3,330.4 -33.4,322.9 -30,314.5 -30,314.5 -18.8,286.9 -12,303.8 -1.2,330.4 	"/>
	<polyline class="st0" points="-4.6,394.1 -15.4,367.4 6.2,367.4 -4.6,394.1 	"/>
	<polyline class="st0" points="6.2,367.4 6.2,367.4 -15.4,367.4 -30.3,330.4 -1.2,330.4 10,358.1 10,358.1 6.2,367.4 	"/>
	<polyline class="st0" points="10,358.1 10,358.1 -1.2,330.4 21.1,330.4 21.1,330.4 21.1,330.4 10,358.1 	"/>
	<polyline class="st0" points="-30,314.5 -30,314.5 -35.3,301.3 -35.3,286.8 -18.9,286.8 -18.8,286.8 -18.8,286.8 -18.8,286.9 
		-30,314.5 	"/>
	<polyline class="st0" points="-30.3,457.8 -35.3,445.4 -35.3,431.1 -19.5,431.1 -30.3,457.8 	"/>
	<polyline class="st0" points="-19.5,431.1 -19.5,431.1 -35.3,431.1 -35.3,394.1 -26.9,394.1 -15.7,421.8 -15.7,421.8 -19.5,431.1 	
		"/>
	<polyline class="st0" points="-15.7,421.8 -15.7,421.8 -26.9,394.1 -4.6,394.1 -15.7,421.8 	"/>
	<polyline class="st0" points="542.3,554.6 519.9,554.6 513.1,537.8 521.3,517.6 524.3,510.1 527.4,517.6 542.3,554.6 	"/>
	<path class="st0" d="M553.1,581.3"/>
	<polyline class="st0" points="553.1,581.3 553.1,581.3 542.3,554.6 	"/>
	<polyline class="st0" points="488.2,403.6 465.9,403.6 459.1,386.8 465.8,370.1 470.3,359.1 473.3,366.7 488.2,403.6 	"/>
	<path class="st0" d="M499,430.3"/>
	<polyline class="st0" points="499,430.3 499,430.3 488.2,403.6 	"/>
	<polyline class="st0" points="502.4,510.9 480.1,510.9 473.3,494 473.3,494 473.3,494 484.1,467.3 484.4,466.4 487.5,474 
		502.4,510.9 	"/>
	<polyline class="st0" points="516.6,474 487.5,474 484.4,466.4 487.8,458 487.8,458 499,430.4 499,430.4 505.8,447.2 516.6,474 	
		"/>
	<polyline class="st0" points="513.2,537.6 502.4,510.9 524,510.9 513.2,537.6 	"/>
	<polyline class="st0" points="524,510.9 524,510.9 502.4,510.9 487.5,474 516.6,474 527.8,501.6 527.8,501.6 524,510.9 	"/>
	<polyline class="st0" points="462.5,467.3 440.2,467.3 433.4,450.5 433.5,450.1 433.5,450.1 444.5,422.9 447.6,430.4 462.5,467.3 	
		"/>
	<polyline class="st0" points="476.7,430.4 447.6,430.4 444.5,422.9 444.7,422.4 444.6,422.4 444.7,422.4 444.7,422.4 455.5,395.7 
		459.1,386.8 459.1,386.8 465.9,403.6 476.7,430.4 	"/>
	<polyline class="st0" points="473.3,494 473.3,494 462.5,467.3 484.1,467.3 473.3,494 	"/>
	<polyline class="st0" points="484.1,467.3 484.1,467.3 462.5,467.3 447.6,430.4 476.7,430.4 487.8,458 487.8,458 484.4,466.4 
		484.1,467.3 	"/>
	<polyline class="st0" points="487.8,458 487.8,458 476.7,430.4 499,430.4 499,430.4 487.8,458 	"/>
	<polyline class="st0" points="476.7,574.6 454.3,574.6 447.5,557.7 447.5,557.7 447.6,557.7 458.3,531 458.7,530 461.8,537.6 
		476.7,574.6 	"/>
	<polyline class="st0" points="490.9,537.6 461.8,537.6 458.7,530 462.1,521.6 462.1,521.6 473.3,494 473.3,494 480.1,510.9 
		490.9,537.6 	"/>
	<polyline class="st0" points="487.5,601.2 476.7,574.6 498.3,574.6 495.5,581.3 487.5,601.2 	"/>
	<polyline class="st0" points="498.3,574.6 476.7,574.6 461.8,537.6 490.9,537.6 502,565.2 498.6,573.8 498.3,574.6 	"/>
	<polyline class="st0" points="502,565.2 490.9,537.6 513.2,537.6 513.1,537.8 513.1,537.7 502,565.2 	"/>
	<polyline class="st0" points="436.8,531 414.4,531 407.6,514.1 407.8,513.8 407.8,513.7 418.8,486.5 421.8,494 436.8,531 	"/>
	<polyline class="st0" points="451,494 421.8,494 418.8,486.5 418.9,486.1 418.9,486.1 418.9,486 419,486.1 429.8,459.4 
		433.4,450.5 440.2,467.3 451,494 	"/>
	<polyline class="st0" points="447.6,557.7 447.5,557.7 436.8,531 458.3,531 447.6,557.7 	"/>
	<polyline class="st0" points="458.3,531 458.3,531 436.8,531 421.8,494 451,494 462.1,521.6 462.1,521.6 458.7,530 458.3,531 	"/>
	<polyline class="st0" points="462.1,521.6 462.1,521.6 451,494 473.3,494 473.3,494 462.1,521.6 	"/>
	<polyline class="st0" points="459.6,332.1 437.3,332.1 437.3,332.1 459.5,332.1 459.6,332.1 	"/>
	<path class="st0" d="M470.4,358.8 M470.4,358.8L470.4,358.8 M470.4,358.8L470.4,358.8l-10.8-26.6h0L470.4,358.8"/>
	<path class="st0" d="M419.6,288.5h-22.2l0,0L419.6,288.5L419.6,288.5 M383.7,288.5L383.7,288.5L383.7,288.5L383.7,288.5
		L383.7,288.5"/>
	<polyline class="st0" points="430.4,315.1 430.4,315.1 419.6,288.5 419.6,288.5 430.4,315.1 	"/>
	<polyline class="st0" points="419.6,288.5 419.6,288.5 419.6,288.5 419.6,288.5 419.6,288.5 	"/>
	<polyline class="st0" points="433.9,395.7 411.6,395.7 404.8,378.9 404.8,378.8 404.7,378.8 404.7,378.8 404.7,378.8 415.5,352.1 
		415.9,351.2 419,358.8 433.9,395.7 	"/>
	<polyline class="st0" points="448.1,358.8 419,358.8 415.9,351.2 419.3,342.8 419.3,342.8 423.6,332.1 437.3,332.1 437.3,332.1 
		448.1,358.8 	"/>
	<polyline class="st0" points="444.7,422.4 433.9,395.7 455.4,395.7 444.7,422.4 	"/>
	<polyline class="st0" points="444.7,422.4 444.7,422.4 455.4,395.7 455.5,395.7 444.7,422.4 	"/>
	<polyline class="st0" points="455.4,395.7 433.9,395.7 419,358.8 448.1,358.8 459.2,386.4 459.2,386.4 459.1,386.8 459.1,386.7 
		455.4,395.7 	"/>
	<polyline class="st0" points="455.5,395.7 455.5,395.7 455.4,395.7 459.1,386.7 459.1,386.8 455.5,395.7 	"/>
	<polyline class="st0" points="459.2,386.4 459.2,386.4 448.1,358.8 470.3,358.8 470.4,358.8 470.4,358.8 470.4,358.8 470.4,358.8 
		470.4,358.8 470.3,359.1 467.2,366.7 465.8,370.1 459.2,386.4 	"/>
	<polyline class="st0" points="465.8,370.1 467.2,366.7 470.3,359.1 470.3,359.1 465.8,370.1 	"/>
	<polyline class="st0" points="470.3,359.1 470.3,359.1 470.4,358.8 470.4,358.8 470.3,359.1 	"/>
	<polyline class="st0" points="394,352.1 371.6,352.1 364.8,335.2 358,352.1 358,352.1 362.6,340.6 364.9,335.1 364.8,335.1 
		372.9,315.1 376,307.6 379,315.1 394,352.1 	"/>
	<polyline class="st0" points="408.2,315.1 379,315.1 376,307.6 383.7,288.5 383.7,288.5 397.4,288.5 397.4,288.5 408.2,315.1 	"/>
	<polyline class="st0" points="404.7,378.8 404.7,378.8 394,352.1 415.5,352.1 404.7,378.8 	"/>
	<polyline class="st0" points="415.5,352.1 415.5,352.1 394,352.1 379,315.1 408.2,315.1 419.3,342.8 419.3,342.8 415.9,351.2 
		415.5,352.1 	"/>
	<polyline class="st0" points="419.3,342.8 419.3,342.8 408.2,315.1 430.4,315.1 430.4,315.1 430.4,315.2 423.6,332.1 423.6,332.1 
		419.3,342.8 	"/>
	<polyline class="st0" points="408.2,459.4 385.8,459.4 379,442.6 379,442.5 379,442.5 389.8,415.8 390.2,414.9 393.3,422.4 
		408.2,459.4 	"/>
	<polyline class="st0" points="422.4,422.4 393.3,422.4 390.2,414.9 393.6,406.5 393.6,406.5 404.8,378.9 411.6,395.7 422.4,422.4 	
		"/>
	<polyline class="st0" points="418.9,486 408.2,459.4 429.7,459.4 418.9,486 	"/>
	<polyline class="st0" points="419,486.1 418.9,486 429.7,459.4 429.8,459.4 419,486.1 	"/>
	<polyline class="st0" points="429.7,459.4 408.2,459.4 393.3,422.4 422.4,422.4 433.5,450 433.3,450.4 433.3,450.4 429.7,459.4 	
		"/>
	<polyline class="st0" points="433.4,450.5 433.3,450.4 433.5,450 433.5,450.1 433.5,450.1 433.4,450.5 	"/>
	<polyline class="st0" points="429.8,459.4 429.8,459.4 429.7,459.4 433.3,450.4 433.3,450.4 433.4,450.5 429.8,459.4 	"/>
	<polyline class="st0" points="433.5,450 422.4,422.4 444.6,422.4 444.5,422.8 441.4,430.4 433.5,450 	"/>
	<polyline class="st0" points="433.5,450.1 433.5,450.1 433.5,450 441.4,430.4 444.5,422.8 444.5,422.9 433.5,450.1 	"/>
	<polyline class="st0" points="444.5,422.9 444.5,422.8 444.6,422.4 444.7,422.4 444.5,422.9 	"/>
	<polyline class="st0" points="368.2,415.8 345.9,415.8 339.1,399 339.1,398.8 339.1,398.8 347.2,378.8 350.3,371.3 353.3,378.8 
		368.2,415.8 	"/>
	<polyline class="st0" points="382.5,378.8 353.3,378.8 350.3,371.3 358,352.1 364.8,335.2 371.6,352.1 382.5,378.8 	"/>
	<polyline class="st0" points="379,442.5 379,442.5 368.2,415.8 389.8,415.8 379,442.5 	"/>
	<polyline class="st0" points="389.8,415.8 389.8,415.8 368.2,415.8 353.3,378.8 382.5,378.8 393.6,406.5 393.6,406.5 390.2,414.9 
		389.8,415.8 	"/>
	<polyline class="st0" points="393.6,406.5 393.6,406.5 382.5,378.8 404.7,378.8 404.8,378.8 404.8,378.9 393.6,406.5 	"/>
	<polyline class="st0" points="382.4,523.1 360.1,523.1 353.3,506.2 353.3,506.2 353.3,506.2 364.1,479.5 364.4,478.6 367.5,486.1 
		382.4,523.1 	"/>
	<polyline class="st0" points="396.6,486.1 367.5,486.1 364.4,478.6 367.8,470.2 367.8,470.1 379,442.5 379,442.6 385.8,459.4 
		396.6,486.1 	"/>
	<polyline class="st0" points="393.2,549.7 382.4,523.1 403.9,523.1 393.2,549.7 	"/>
	<polyline class="st0" points="403.9,523.1 382.4,523.1 367.5,486.1 396.6,486.1 407.8,513.7 407.6,514.1 407.6,514 403.9,523.1 	
		"/>
	<polyline class="st0" points="407.6,514.1 407.6,514.1 407.8,513.7 407.8,513.7 407.8,513.8 407.6,514.1 	"/>
	<polyline class="st0" points="407.8,513.7 396.6,486.1 418.9,486.1 418.8,486.4 415.7,494 407.8,513.7 	"/>
	<polyline class="st0" points="407.8,513.7 407.8,513.7 407.8,513.7 415.7,494 418.8,486.4 418.8,486.5 407.8,513.7 	"/>
	<polyline class="st0" points="418.8,486.5 418.8,486.4 418.9,486.1 418.9,486.1 418.8,486.5 	"/>
	<polyline class="st0" points="342.5,479.5 320.2,479.5 313.3,462.6 313.4,462.5 313.4,462.5 313.4,462.4 313.4,462.5 324.2,435.8 
		324.5,435 327.6,442.5 342.5,479.5 	"/>
	<polyline class="st0" points="356.7,442.5 327.6,442.5 324.5,435 328,426.4 328,426.4 339.1,399 345.9,415.8 356.7,442.5 	"/>
	<polyline class="st0" points="353.3,506.2 353.3,506.2 342.5,479.5 364.1,479.5 353.3,506.2 	"/>
	<polyline class="st0" points="364.1,479.5 364.1,479.5 342.5,479.5 327.6,442.5 356.7,442.5 367.8,470.1 367.8,470.2 364.4,478.6 
		364.1,479.5 	"/>
	<polyline class="st0" points="367.8,470.1 367.8,470.1 356.7,442.5 379,442.5 379,442.5 367.8,470.1 	"/>
	<polyline class="st0" points="356.7,586.7 334.4,586.7 327.6,569.8 327.6,569.8 327.6,569.8 338.4,543.1 338.7,542.2 341.8,549.8 
		356.7,586.7 	"/>
	<polyline class="st0" points="370.9,549.8 341.8,549.8 338.7,542.2 342.1,533.8 342.1,533.8 353.3,506.2 353.3,506.2 360.1,523.1 
		370.9,549.8 	"/>
	<polyline class="st0" points="367.5,613.4 356.7,586.7 378.2,586.7 375,594.6 375,594.6 367.5,613.4 	"/>
	<polyline class="st0" points="378.2,586.7 356.7,586.7 341.8,549.8 370.9,549.8 382,577.3 378.2,586.7 	"/>
	<polyline class="st0" points="382,577.3 370.9,549.8 393.1,549.8 393,550.1 390,557.6 382,577.3 	"/>
	<polyline class="st0" points="316.8,543.1 294.5,543.1 287.6,526.2 280.8,543.1 280.8,543.1 285.4,531.8 287.7,526.1 287.7,526.1 
		287.7,526.1 287.7,526.1 298.5,499.4 298.8,498.6 301.8,506.2 316.8,543.1 	"/>
	<polyline class="st0" points="331,506.2 301.8,506.2 298.8,498.6 302.2,490.1 302.2,490.1 313.3,462.6 320.2,479.5 331,506.2 	"/>
	<polyline class="st0" points="327.6,569.8 327.6,569.8 316.8,543.1 338.4,543.1 327.6,569.8 	"/>
	<polyline class="st0" points="338.4,543.1 338.4,543.1 316.8,543.1 301.8,506.2 331,506.2 342.1,533.8 342.1,533.8 338.7,542.2 
		338.4,543.1 	"/>
	<polyline class="st0" points="342.1,533.8 342.1,533.8 331,506.2 353.3,506.2 353.3,506.2 342.1,533.8 	"/>
	<polyline class="st0" points="354,308.5 331.8,308.5 331.8,308.5 354,308.5 354,308.5 	"/>
	<polyline class="st0" points="368.2,271.5 368.2,271.5 339.1,271.5 368.2,271.5 357.4,244.8 357.4,244.8 368.2,271.5 	"/>
	<polyline class="st0" points="364.8,335.1 364.8,335.1 375.6,308.5 375.6,308.5 364.8,335.1 	"/>
	<polyline class="st0" points="375.6,308.5 375.6,308.5 375.6,308.5 375.6,308.5 379.4,299.1 379.4,299.1 379.4,299.1 379.4,299.1 
		379.4,299.1 375.6,308.5 	"/>
	<polyline class="st0" points="379.4,299.1 379.4,299.1 379.4,299.1 385.1,284.8 383.7,288.5 383.7,288.5 379.4,299.1 	"/>
	<polyline class="st0" points="314.1,264.9 291.8,264.9 291.8,264.9 314.1,264.9 314.1,264.9 	"/>
	<polyline class="st0" points="328.3,227.9 328.3,227.9 299.2,227.9 328.3,227.9 317.5,201.2 317.5,201.2 328.3,227.9 	"/>
	<polyline class="st0" points="328.3,372.1 306,372.1 299.2,355.2 299.2,355.2 299.2,355.2 299.2,355.2 299.2,355.2 310,328.5 
		310.4,327.5 313.4,335.1 328.3,372.1 	"/>
	<polyline class="st0" points="342.5,335.1 313.4,335.1 310.4,327.5 313.8,319.1 313.8,319.1 318.1,308.5 331.8,308.5 331.8,308.5 
		342.5,335.1 	"/>
	<polyline class="st0" points="339.1,398.8 328.3,372.1 349.9,372.1 339.1,398.8 	"/>
	<polyline class="st0" points="349.9,372.1 349.9,372.1 328.3,372.1 313.4,335.1 342.5,335.1 353.7,362.7 353.7,362.7 349.9,372.1 	
		"/>
	<polyline class="st0" points="353.7,362.7 353.7,362.7 342.5,335.1 364.8,335.1 364.8,335.2 364.8,335.1 364.8,335.1 364.8,335.1 
		364.9,335.1 362.6,340.6 353.7,362.7 	"/>
	<polyline class="st0" points="288.4,328.5 266.1,328.5 259.3,311.6 259.3,311.6 259.3,311.6 270,284.9 270.4,284 273.5,291.5 
		288.4,328.5 	"/>
	<polyline class="st0" points="302.6,291.5 273.5,291.5 270.4,284 273.8,275.6 273.8,275.6 278.1,264.9 291.8,264.9 291.8,264.9 
		302.6,291.5 	"/>
	<polyline class="st0" points="299.2,355.2 299.2,355.2 288.4,328.5 310,328.5 299.2,355.2 	"/>
	<polyline class="st0" points="310,328.5 310,328.5 288.4,328.5 273.5,291.5 302.6,291.5 313.8,319.1 313.8,319.1 310.4,327.5 
		310,328.5 	"/>
	<polyline class="st0" points="313.8,319.1 313.8,319.1 302.6,291.5 324.8,291.5 324.9,291.6 318,308.5 318.1,308.5 313.8,319.1 	
		"/>
	<polyline class="st0" points="302.6,435.8 280.3,435.8 273.5,418.9 273.5,418.9 273.5,418.9 284.3,392.2 284.7,391.2 287.7,398.8 
		302.6,435.8 	"/>
	<polyline class="st0" points="316.8,398.8 287.7,398.8 284.7,391.2 288.1,382.8 288.1,382.8 299.2,355.2 306,372.1 316.8,398.8 	
		"/>
	<polyline class="st0" points="313.4,462.5 313.4,462.4 302.6,435.8 324.2,435.8 313.4,462.5 	"/>
	<polyline class="st0" points="324.2,435.8 324.2,435.8 302.6,435.8 287.7,398.8 316.8,398.8 328,426.4 328,426.4 324.5,435 
		324.2,435.8 	"/>
	<polyline class="st0" points="328,426.4 328,426.4 316.8,398.8 339.1,398.8 339.1,398.8 339.1,399 328,426.4 	"/>
	<polyline class="st0" points="262.7,392.2 240.3,392.2 233.6,375.4 233.6,375.3 233.6,375.3 233.6,375.2 233.6,375.2 244.4,348.5 
		244.7,347.6 247.8,355.2 262.7,392.2 	"/>
	<polyline class="st0" points="276.9,355.2 247.8,355.2 244.7,347.6 248.1,339.2 248.1,339.2 259.3,311.6 266.1,328.5 276.9,355.2 	
		"/>
	<polyline class="st0" points="273.5,418.9 273.5,418.9 262.7,392.2 284.3,392.2 273.5,418.9 	"/>
	<polyline class="st0" points="284.3,392.2 284.3,392.2 262.7,392.2 247.8,355.2 276.9,355.2 288.1,382.8 288.1,382.8 284.7,391.2 
		284.3,392.2 	"/>
	<polyline class="st0" points="288.1,382.8 288.1,382.8 276.9,355.2 299.2,355.2 299.2,355.2 299.2,355.2 288.1,382.8 	"/>
	<polyline class="st0" points="276.9,499.4 254.6,499.4 247.7,482.6 247.7,482.5 247.7,482.5 258.5,455.8 258.9,454.9 262,462.5 
		276.9,499.4 	"/>
	<polyline class="st0" points="291.1,462.5 262,462.5 258.9,454.9 262.3,446.5 262.3,446.5 273.5,418.9 273.5,418.9 280.3,435.8 
		291.1,462.5 	"/>
	<polyline class="st0" points="287.7,526.1 287.7,526.1 276.9,499.4 298.5,499.4 287.7,526.1 	"/>
	<polyline class="st0" points="298.5,499.4 298.5,499.4 276.9,499.4 262,462.5 291.1,462.5 302.2,490.1 302.2,490.1 298.8,498.6 
		298.5,499.4 	"/>
	<polyline class="st0" points="302.2,490.1 302.2,490.1 291.1,462.5 313.4,462.5 313.4,462.5 313.3,462.6 302.2,490.1 	"/>
	<polyline class="st0" points="236.9,455.8 214.6,455.8 207.8,439 207.8,439 207.8,439 207.8,439 207.8,438.9 207.9,438.9 
		218.7,412.2 219,411.4 222,418.9 236.9,455.8 	"/>
	<path class="st0" d="M251.1,418.9H222l-3-7.5l3.4-8.5v0l11.1-27.5l6.8,16.8L251.1,418.9 M233.5,375.3L233.5,375.3L233.5,375.3
		L233.5,375.3"/>
	<polyline class="st0" points="247.7,482.5 247.7,482.5 236.9,455.8 258.5,455.8 247.7,482.5 	"/>
	<polyline class="st0" points="258.5,455.8 258.5,455.8 236.9,455.8 222,418.9 251.1,418.9 262.3,446.5 262.3,446.5 258.9,454.9 
		258.5,455.8 	"/>
	<polyline class="st0" points="262.3,446.5 262.3,446.5 251.1,418.9 273.5,418.9 273.5,418.9 262.3,446.5 	"/>
	<polyline class="st0" points="251.1,563.1 228.8,563.1 222,546.2 222,546.2 222,546.2 222,546.2 222,546.2 232.8,519.5 
		233.2,518.6 236.2,526.1 251.1,563.1 	"/>
	<polyline class="st0" points="265.4,526.1 236.2,526.1 233.2,518.6 236.6,510.2 236.6,510.2 247.7,482.6 247.7,482.6 254.6,499.4 
		265.4,526.1 	"/>
	<polyline class="st0" points="261.9,589.8 251.1,563.1 272.7,563.1 261.9,589.8 	"/>
	<polyline class="st0" points="272.7,563.1 272.7,563.1 251.1,563.1 236.2,526.1 265.4,526.1 276.5,553.8 276.5,553.8 272.7,563.1 	
		"/>
	<polyline class="st0" points="276.5,553.8 276.5,553.8 265.4,526.1 287.7,526.1 287.7,526.1 285.4,531.8 276.5,553.8 	"/>
	<polyline class="st0" points="211.2,519.5 188.9,519.5 182.1,502.6 182.1,502.6 182.1,502.6 182.1,502.6 182.1,502.6 182.1,502.6 
		182.1,502.6 182.1,502.6 192.9,475.9 193.3,475 196.3,482.5 211.2,519.5 	"/>
	<path class="st0" d="M225.4,482.5h-29.1l-3-7.5l3.4-8.4v0l11.2-27.6l6.8,16.8L225.4,482.5 M207.8,439L207.8,439L207.8,439
		L207.8,439L207.8,439"/>
	<polyline class="st0" points="222,546.2 222,546.2 211.2,519.5 232.8,519.5 222,546.2 	"/>
	<polyline class="st0" points="232.8,519.5 232.8,519.5 211.2,519.5 196.3,482.5 225.4,482.5 236.6,510.2 236.6,510.2 233.2,518.6 
		232.8,519.5 	"/>
	<polyline class="st0" points="236.6,510.2 236.6,510.2 225.4,482.5 247.7,482.5 247.7,482.6 236.6,510.2 	"/>
	<polyline class="st0" points="225.4,626.8 203.2,626.8 196.3,609.8 207.1,583.2 207.5,582.3 210.5,589.8 225.4,626.8 	"/>
	<polyline class="st0" points="239.6,589.8 210.5,589.8 207.5,582.3 210.9,573.9 210.9,573.8 222,546.2 228.8,563.1 239.6,589.8 	
		"/>
	<polyline class="st0" points="236.2,653.4 236.2,653.4 225.4,626.8 247,626.8 244.3,633.4 236.2,653.4 	"/>
	<polyline class="st0" points="247,626.8 225.4,626.8 210.5,589.8 239.6,589.8 250.8,617.4 247.4,625.8 247,626.8 	"/>
	<path class="st0" d="M250.8,617.4l-11.1-27.6h22.3L250.8,617.4 M261.9,589.8L261.9,589.8L261.9,589.8L261.9,589.8"/>
	<polyline class="st0" points="185.5,583.2 163.2,583.2 156.4,566.2 167.2,539.6 167.5,538.7 170.6,546.2 185.5,583.2 	"/>
	<path class="st0" d="M199.7,546.2h-29.1l-3.1-7.5l3.4-8.4v0l11.2-27.6l6.8,16.8L199.7,546.2 M182.1,502.6L182.1,502.6L182.1,502.6
		L182.1,502.6"/>
	<polyline class="st0" points="196.3,609.8 196.3,609.8 196.3,609.8 196.3,609.8 185.5,583.2 207.1,583.2 196.3,609.8 	"/>
	<polyline class="st0" points="207.1,583.2 207.1,583.2 185.5,583.2 170.6,546.2 199.7,546.2 210.9,573.8 210.9,573.9 207.5,582.3 
		207.1,583.2 	"/>
	<polyline class="st0" points="210.9,573.8 210.9,573.8 199.7,546.2 222,546.2 222,546.2 222,546.2 210.9,573.8 	"/>
	<polyline class="st0" points="248.4,284.9 226.2,284.9 226.2,284.9 248.4,284.9 248.4,284.9 	"/>
	<path class="st0" d="M259.3,311.6L259.3,311.6l10.7-26.6h0L259.3,311.6 M259.2,311.6L259.2,311.6l-10.8-26.6h0L259.2,311.6"/>
	<path class="st0" d="M270,284.9L270,284.9L270,284.9L270,284.9l3.8-9.3l0,0v0l-3.4,8.3L270,284.9 M248.5,284.9L248.5,284.9
		L248.5,284.9L248.5,284.9L248.5,284.9"/>
	<polyline class="st0" points="273.8,275.6 273.8,275.6 273.8,275.6 273.8,275.6 273.8,275.6 278.1,264.9 278.1,264.9 273.8,275.6 	
		"/>
	<path class="st0" d="M208.5,241.3h-22.2l0,0L208.5,241.3L208.5,241.3 M172.6,241.3L172.6,241.3L172.6,241.3L172.6,241.3
		L172.6,241.3"/>
	<polyline class="st0" points="219.3,268 219.3,268 208.5,241.3 208.5,241.3 219.3,268 	"/>
	<polyline class="st0" points="208.5,241.3 208.5,241.3 208.5,241.3 208.5,241.3 208.5,241.3 	"/>
	<polyline class="st0" points="222.8,348.5 200.5,348.5 193.7,331.7 193.7,331.7 193.6,331.7 193.6,331.6 193.6,331.6 204.4,304.9 
		204.8,304 207.9,311.6 222.8,348.5 	"/>
	<polyline class="st0" points="237,311.6 207.9,311.6 204.8,304 208.2,295.6 208.2,295.6 212.5,284.9 226.2,284.9 226.2,284.9 
		237,311.6 	"/>
	<polyline class="st0" points="233.6,375.2 233.6,375.2 222.8,348.5 244.4,348.5 233.6,375.2 	"/>
	<polyline class="st0" points="244.4,348.5 244.4,348.5 222.8,348.5 207.9,311.6 237,311.6 248.1,339.2 248.1,339.2 244.7,347.6 
		244.4,348.5 	"/>
	<polyline class="st0" points="248.1,339.2 248.1,339.2 237,311.6 259.2,311.6 259.2,311.6 259.2,311.6 259.2,311.6 259.3,311.6 
		259.3,311.6 259.3,311.6 248.1,339.2 	"/>
	<polyline class="st0" points="182.8,304.9 160.5,304.9 153.7,288.1 146.9,304.9 146.9,304.9 161.8,268 164.9,260.4 167.9,268 
		182.8,304.9 	"/>
	<polyline class="st0" points="197,268 167.9,268 164.9,260.4 172.6,241.3 172.6,241.3 186.3,241.3 186.3,241.3 197,268 	"/>
	<polyline class="st0" points="193.6,331.6 193.6,331.6 182.8,304.9 204.4,304.9 193.6,331.6 	"/>
	<polyline class="st0" points="204.4,304.9 204.4,304.9 182.8,304.9 167.9,268 197,268 208.2,295.6 208.2,295.6 204.8,304 
		204.4,304.9 	"/>
	<polyline class="st0" points="208.2,295.6 208.2,295.6 197,268 219.3,268 219.3,268 219.3,268 212.5,284.9 212.5,284.9 
		208.2,295.6 	"/>
	<polyline class="st0" points="197.1,412.2 174.7,412.2 167.9,395.4 167.9,395.3 167.9,395.3 178.7,368.6 179.1,367.7 182.1,375.3 
		197.1,412.2 	"/>
	<polyline class="st0" points="211.3,375.3 182.1,375.3 179.1,367.7 182.5,359.3 182.5,359.3 193.7,331.7 200.5,348.5 211.3,375.3 	
		"/>
	<polyline class="st0" points="207.9,438.9 207.8,438.9 197.1,412.2 218.7,412.2 207.9,438.9 	"/>
	<polyline class="st0" points="218.7,412.2 218.7,412.2 197.1,412.2 182.1,375.3 211.3,375.3 222.4,402.9 222.4,402.9 219,411.4 
		218.7,412.2 	"/>
	<polyline class="st0" points="222.4,402.9 222.4,402.9 211.3,375.3 233.5,375.3 233.5,375.3 233.6,375.3 233.6,375.3 233.6,375.4 
		222.4,402.9 	"/>
	<polyline class="st0" points="157.1,368.6 134.8,368.6 128,351.8 136.1,331.7 139.2,324.1 142.2,331.7 157.1,368.6 	"/>
	<polyline class="st0" points="171.3,331.7 142.2,331.7 139.2,324.1 146.9,304.9 153.7,288.1 160.5,304.9 171.3,331.7 	"/>
	<polyline class="st0" points="167.9,395.3 167.9,395.3 157.1,368.6 178.7,368.6 167.9,395.3 	"/>
	<polyline class="st0" points="178.7,368.6 178.7,368.6 157.1,368.6 142.2,331.7 171.3,331.7 182.5,359.3 182.5,359.3 179.1,367.7 
		178.7,368.6 	"/>
	<polyline class="st0" points="182.5,359.3 182.5,359.3 171.3,331.7 193.6,331.7 193.7,331.7 193.7,331.7 182.5,359.3 	"/>
	<polyline class="st0" points="171.3,475.9 149,475.9 142.2,459 142.2,459 142.2,459 153,432.3 153.3,431.4 156.4,439 171.3,475.9 	
		"/>
	<polyline class="st0" points="185.5,439 156.4,439 153.3,431.4 156.7,423 156.7,423 167.9,395.4 167.9,395.4 174.7,412.2 
		185.5,439 	"/>
	<polyline class="st0" points="182.1,502.6 182.1,502.6 171.3,475.9 192.9,475.9 182.1,502.6 	"/>
	<polyline class="st0" points="192.9,475.9 192.9,475.9 171.3,475.9 156.4,439 185.5,439 196.7,466.6 196.7,466.6 193.3,475 
		192.9,475.9 	"/>
	<polyline class="st0" points="196.7,466.6 196.7,466.6 185.5,439 207.8,439 207.8,439 207.8,439 207.8,439 196.7,466.6 	"/>
	<polyline class="st0" points="131.4,432.3 109.1,432.3 102.3,415.5 102.3,415.3 102.3,415.3 110.3,395.4 113.4,387.8 116.5,395.4 
		131.4,432.3 	"/>
	<polyline class="st0" points="145.6,395.4 116.5,395.4 113.4,387.8 128,351.8 128,351.8 134.8,368.6 145.6,395.4 	"/>
	<polyline class="st0" points="142.2,459 142.2,459 131.4,432.3 153,432.3 142.2,459 	"/>
	<polyline class="st0" points="153,432.3 153,432.3 131.4,432.3 116.5,395.4 145.6,395.4 156.7,423 156.7,423 153.3,431.4 
		153,432.3 	"/>
	<polyline class="st0" points="156.7,423 156.7,423 145.6,395.4 167.9,395.4 167.9,395.4 156.7,423 	"/>
	<polyline class="st0" points="145.6,539.6 123.3,539.6 116.5,522.7 116.5,522.7 116.5,522.7 127.2,496 127.6,495.1 130.7,502.6 
		145.6,539.6 	"/>
	<polyline class="st0" points="159.8,502.6 130.7,502.6 127.6,495.1 131,486.7 131,486.6 142.2,459 142.2,459 149,475.9 
		159.8,502.6 	"/>
	<polyline class="st0" points="156.4,566.2 156.4,566.2 156.4,566.2 145.6,539.6 167.2,539.6 156.4,566.2 	"/>
	<polyline class="st0" points="167.2,539.6 167.2,539.6 145.6,539.6 130.7,502.6 159.8,502.6 170.9,530.2 170.9,530.3 167.5,538.7 
		167.2,539.6 	"/>
	<polyline class="st0" points="170.9,530.2 170.9,530.2 159.8,502.6 182.1,502.6 182.1,502.6 182.1,502.6 182.1,502.6 182.1,502.6 
		170.9,530.2 	"/>
	<polyline class="st0" points="105.7,496 83.4,496 76.5,479.1 76.6,479 76.6,478.9 76.6,479 87.4,452.2 87.7,451.5 90.7,459 
		105.7,496 	"/>
	<polyline class="st0" points="119.9,459 90.7,459 87.7,451.5 91.2,442.9 91.2,442.9 102.3,415.5 109.1,432.3 119.9,459 	"/>
	<polyline class="st0" points="116.5,522.7 116.5,522.7 105.7,496 127.2,496 116.5,522.7 	"/>
	<polyline class="st0" points="127.2,496 127.2,496 105.7,496 90.7,459 119.9,459 131,486.6 131,486.7 127.6,495.1 127.2,496 	"/>
	<polyline class="st0" points="131,486.6 131,486.6 119.9,459 142.2,459 142.2,459 131,486.6 	"/>
	<polyline class="st0" points="119.9,603.2 97.6,603.2 90.8,586.3 90.8,586.3 90.8,586.3 101.5,559.6 101.9,558.7 105,566.3 
		119.9,603.2 	"/>
	<polyline class="st0" points="134.1,566.3 105,566.3 101.9,558.7 105.3,550.3 105.3,550.3 116.5,522.7 123.3,539.6 134.1,566.3 	
		"/>
	<polyline class="st0" points="130.6,629.8 119.9,603.2 141.4,603.2 138.8,609.8 130.6,629.8 	"/>
	<polyline class="st0" points="141.4,603.2 119.9,603.2 105,566.3 134.1,566.3 145.2,593.8 141.8,602.2 141.4,603.2 	"/>
	<polyline class="st0" points="145.2,593.8 134.1,566.3 156.3,566.3 145.2,593.8 	"/>
	<polyline class="st0" points="79.9,559.6 57.7,559.6 50.8,542.7 58.9,522.7 62,515.1 65,522.7 79.9,559.6 	"/>
	<polyline class="st0" points="94.1,522.7 65,522.7 62,515.1 74.7,483.6 76.5,479.1 83.4,496 94.1,522.7 	"/>
	<polyline class="st0" points="90.8,586.3 90.7,586.3 79.9,559.6 101.5,559.6 90.8,586.3 	"/>
	<polyline class="st0" points="101.5,559.6 101.5,559.6 79.9,559.6 65,522.7 94.1,522.7 105.3,550.3 105.3,550.3 101.9,558.7 
		101.5,559.6 	"/>
	<polyline class="st0" points="105.3,550.3 105.3,550.3 94.1,522.7 116.5,522.7 116.5,522.7 116.5,522.7 116.5,522.7 105.3,550.3 	
		"/>
	<polyline class="st0" points="117.2,325 94.9,325 88.1,308 88.1,308 88.1,308 98.8,281.4 99.2,280.4 102.2,288 117.2,325 	"/>
	<polyline class="st0" points="131.4,288 102.2,288 99.2,280.4 102.6,272 102.6,272 106.9,261.3 120.6,261.3 131.4,288 	"/>
	<polyline class="st0" points="128,351.6 127.9,351.6 117.2,325 138.8,325 128,351.6 	"/>
	<polyline class="st0" points="138.8,325 138.8,325 117.2,325 102.2,288 131.4,288 142.5,315.6 142.5,315.6 138.8,325 	"/>
	<polyline class="st0" points="142.5,315.6 142.5,315.6 131.4,288 153.7,288 142.5,315.6 	"/>
	<path class="st0" d="M77.2,281.4H55l-6.8-16.9l10.4-25.7l0.7-1.8l3,7.5L77.2,281.4 M41.3,281.4L41.3,281.4l6.4-16l0,0L41.3,281.4"
		/>
	<polyline class="st0" points="47.7,265.4 47.7,265.4 56.2,244.4 58.5,238.7 58.6,238.7 48.2,264.5 48.1,264.4 47.7,265.4 	"/>
	<polyline class="st0" points="58.6,238.7 58.6,238.7 58.5,238.7 59.3,236.8 59.3,236.9 58.6,238.7 	"/>
	<polyline class="st0" points="91.4,244.4 62.3,244.4 59.3,236.9 62.3,229.4 62.3,229.4 67.1,217.7 80.6,217.7 91.4,244.4 	"/>
	<polyline class="st0" points="59.3,236.9 59.3,236.8 62.3,229.3 62.3,229.4 62.3,229.4 59.3,236.9 	"/>
	<polyline class="st0" points="62.3,229.4 62.3,229.4 62.3,229.3 67,217.7 67.1,217.7 62.3,229.4 	"/>
	<polyline class="st0" points="88.1,308 88,308 77.2,281.4 98.8,281.4 88.1,308 	"/>
	<polyline class="st0" points="98.8,281.4 98.8,281.4 77.2,281.4 62.3,244.4 91.4,244.4 102.6,272 102.6,272 99.2,280.4 98.8,281.4 
			"/>
	<polyline class="st0" points="102.6,272 102.6,272 91.4,244.4 113.7,244.4 106.9,261.3 106.9,261.3 102.6,272 	"/>
	<polyline class="st0" points="91.5,388.5 69.2,388.5 62.4,371.7 62.4,371.7 62.3,371.7 62.4,371.6 62.4,371.7 73.2,344.9 73.5,344 
		76.6,351.6 91.5,388.5 	"/>
	<polyline class="st0" points="105.7,351.6 76.6,351.6 73.5,344 76.9,335.6 76.9,335.6 88.1,308 94.9,325 105.7,351.6 	"/>
	<polyline class="st0" points="102.3,415.3 91.5,388.5 113.1,388.5 102.3,415.3 	"/>
	<polyline class="st0" points="113.1,388.5 113.1,388.5 91.5,388.5 76.6,351.6 105.7,351.6 116.9,379.2 116.9,379.2 113.1,388.5 	
		"/>
	<polyline class="st0" points="116.9,379.2 116.9,379.2 105.7,351.6 127.9,351.6 128,351.6 128,351.6 116.9,379.2 	"/>
	<polyline class="st0" points="51.6,344.9 29.3,344.9 22.4,328.1 15.6,344.9 15.6,344.9 30.5,308 33.6,300.4 36.6,308 51.6,344.9 	
		"/>
	<polyline class="st0" points="65.8,308 36.6,308 33.6,300.4 41.3,281.4 47.7,265.4 47.8,265.5 48.2,264.5 55,281.4 65.8,308 	"/>
	<polyline class="st0" points="47.8,265.5 47.7,265.4 48.1,264.4 48.2,264.5 47.8,265.5 	"/>
	<polyline class="st0" points="62.4,371.7 62.4,371.6 51.6,344.9 73.2,344.9 62.4,371.7 	"/>
	<polyline class="st0" points="73.2,344.9 73.2,344.9 51.6,344.9 36.6,308 65.8,308 76.9,335.6 76.9,335.6 73.5,344 73.2,344.9 	"/>
	<polyline class="st0" points="76.9,335.6 76.9,335.6 65.8,308 88,308 88.1,308 88.1,308 88.1,308 76.9,335.6 	"/>
	<polyline class="st0" points="65.8,452.2 43.4,452.2 36.6,435.4 36.7,435.3 36.7,435.3 47.5,408.6 47.8,407.7 50.9,415.3 
		65.8,452.2 	"/>
	<polyline class="st0" points="80,415.3 50.9,415.3 47.8,407.7 51.2,399.3 51.2,399.3 62.4,371.7 69.2,388.5 80,415.3 	"/>
	<polyline class="st0" points="76.6,479 76.6,478.9 65.8,452.2 87.4,452.2 76.6,479 	"/>
	<polyline class="st0" points="87.4,452.2 87.4,452.2 65.8,452.2 50.9,415.3 80,415.3 91.2,442.9 91.2,442.9 87.7,451.5 87.4,452.2 
			"/>
	<polyline class="st0" points="91.2,442.9 91.2,442.9 80,415.3 102.3,415.3 102.3,415.3 102.3,415.5 91.2,442.9 	"/>
	<polyline class="st0" points="25.9,408.6 3.5,408.6 -3.3,391.8 4.8,371.7 7.9,364.1 10.9,371.7 25.9,408.6 	"/>
	<polyline class="st0" points="40.1,371.7 10.9,371.7 7.9,364.1 15.6,344.9 22.4,328.1 29.3,344.9 40.1,371.7 	"/>
	<polyline class="st0" points="36.7,435.3 36.7,435.3 25.9,408.6 47.5,408.6 36.7,435.3 	"/>
	<polyline class="st0" points="47.5,408.6 47.5,408.6 25.9,408.6 10.9,371.7 40.1,371.7 51.2,399.3 51.2,399.3 47.8,407.7 
		47.5,408.6 	"/>
	<polyline class="st0" points="51.2,399.3 51.2,399.3 40.1,371.7 62.3,371.7 62.4,371.7 62.4,371.7 51.2,399.3 	"/>
	<polyline class="st0" points="40,515.9 17.7,515.9 10.9,499 10.9,499 10.9,499 21.7,472.3 22.1,471.4 25.1,479 40,515.9 	"/>
	<polyline class="st0" points="54.2,479 25.1,479 22.1,471.4 25.5,463 25.5,463 36.6,435.4 36.6,435.4 43.4,452.2 54.2,479 	"/>
	<polyline class="st0" points="50.8,542.6 40,515.9 61.6,515.9 50.8,542.6 	"/>
	<polyline class="st0" points="61.6,515.9 61.6,515.9 40,515.9 25.1,479 54.2,479 65.4,506.6 65.4,506.6 61.6,515.9 	"/>
	<polyline class="st0" points="65.4,506.6 65.4,506.6 54.2,479 76.6,479 76.5,479.1 74.7,483.6 65.4,506.6 	"/>
	<polyline class="st0" points="0.1,472.3 -22.2,472.3 -29,455.4 -20.9,435.4 -17.9,427.8 -14.8,435.4 0.1,472.3 	"/>
	<polyline class="st0" points="14.3,435.4 -14.8,435.4 -17.9,427.8 -3.3,391.8 -3.3,391.8 3.5,408.6 14.3,435.4 	"/>
	<polyline class="st0" points="10.9,499 10.9,499 0.1,472.3 21.7,472.3 10.9,499 	"/>
	<polyline class="st0" points="21.7,472.3 21.7,472.3 0.1,472.3 -14.8,435.4 14.3,435.4 25.5,463 25.5,463 22.1,471.4 21.7,472.3 	
		"/>
	<polyline class="st0" points="25.5,463 25.5,463 14.3,435.4 36.6,435.4 36.6,435.4 25.5,463 	"/>
	<polyline class="st0" points="14.3,579.6 -8,579.6 -14.8,562.7 -14.8,562.7 -14.8,562.7 -14.8,562.7 -14.8,562.7 -4,536 
		-3.7,535.1 -0.6,542.6 14.3,579.6 	"/>
	<polyline class="st0" points="28.5,542.6 -0.6,542.6 -3.7,535.1 -0.3,526.7 -0.3,526.6 10.9,499 10.9,499 17.7,515.9 28.5,542.6 	
		"/>
	<polyline class="st0" points="25.1,606.3 14.3,579.6 35.9,579.6 25.1,606.3 	"/>
	<polyline class="st0" points="35.9,579.6 35.9,579.6 14.3,579.6 -0.6,542.6 28.5,542.6 39.7,570.3 39.7,570.3 35.9,579.6 	"/>
	<polyline class="st0" points="39.7,570.3 39.7,570.3 28.5,542.6 50.8,542.6 39.7,570.3 	"/>
	<polyline class="st0" points="-25.6,536 -35.3,536 -35.3,512 -25.6,536 	"/>
	<polyline class="st0" points="-11.4,499 -35.3,499 -35.3,470.9 -29,455.4 -29,455.4 -22.2,472.3 -11.4,499 	"/>
	<polyline class="st0" points="-14.8,562.7 -14.8,562.7 -25.6,536 -4,536 -14.8,562.7 	"/>
	<polyline class="st0" points="-4,536 -4,536 -25.6,536 -35.3,512 -35.3,499 -11.4,499 -0.3,526.6 -0.3,526.7 -3.7,535.1 -4,536 	
		"/>
	<polyline class="st0" points="-0.3,526.6 -0.3,526.6 -11.4,499 10.9,499 10.9,499 -0.3,526.6 	"/>
	<polyline class="st0" points="331,650.4 308.7,650.4 301.9,633.5 312.7,606.8 313,605.9 316.1,613.4 331,650.4 	"/>
	<polyline class="st0" points="345.2,613.4 316.1,613.4 313,605.9 316.4,597.5 316.4,597.4 327.6,569.8 334.4,586.7 345.2,613.4 	
		"/>
	<polyline class="st0" points="341.7,676.9 331,650.4 352.5,650.4 341.7,676.9 	"/>
	<polyline class="st0" points="352.5,650.4 331,650.4 316.1,613.4 345.2,613.4 356.3,641 356.1,641.5 356.1,641.4 352.5,650.4 	"/>
	<polyline class="st0" points="356.3,641 345.2,613.4 367.4,613.4 367.3,613.7 364.3,621.3 356.3,641 	"/>
	<polyline class="st0" points="291.1,606.8 268.8,606.8 261.9,589.8 262,589.8 270,569.8 273.1,562.3 276.1,569.8 291.1,606.8 	"/>
	<polyline class="st0" points="305.3,569.8 276.1,569.8 273.1,562.3 280.8,543.1 287.6,526.2 294.5,543.1 305.3,569.8 	"/>
	<polyline class="st0" points="301.9,633.5 301.9,633.4 301.9,633.4 301.8,633.4 291.1,606.8 312.7,606.8 301.9,633.5 	"/>
	<polyline class="st0" points="312.7,606.8 312.7,606.8 291.1,606.8 276.1,569.8 305.3,569.8 316.4,597.4 316.4,597.5 313,605.9 
		312.7,606.8 	"/>
	<polyline class="st0" points="316.4,597.4 316.4,597.4 305.3,569.8 327.6,569.8 327.6,569.8 327.6,569.8 327.6,569.8 316.4,597.4 	
		"/>
	<polyline class="st0" points="-11.4,643.2 -33.7,643.2 -35.3,639.3 -35.3,613.4 -32.4,606.3 -29.7,599.6 -29.7,599.6 -29.4,598.7 
		-26.3,606.3 -11.4,643.2 	"/>
	<polyline class="st0" points="2.8,606.3 -26.3,606.3 -29.4,598.7 -26,590.3 -26,590.3 -21.6,579.6 -8,579.6 2.8,606.3 	"/>
	<polyline class="st0" points="-8,579.6 -21.6,579.6 -14.8,562.7 -8,579.6 	"/>
	<polyline class="st0" points="-0.6,669.9 -0.6,669.9 -11.4,643.2 10.2,643.2 -0.6,669.9 	"/>
	<polyline class="st0" points="10.2,643.2 10.2,643.2 -11.4,643.2 -26.3,606.3 2.8,606.3 14,633.9 14,633.9 10.2,643.2 	"/>
	<polyline class="st0" points="14,633.9 14,633.9 2.8,606.3 25.1,606.3 18.3,623.2 18.3,623.2 14,633.9 	"/>
	<polyline class="st0" points="-29.7,599.6 -29.7,599.6 -35.3,599.6 -35.3,567.2 -26,590.3 -26,590.3 -29.4,598.7 -29.7,599.6 	"/>
	<polyline class="st0" points="-26,590.3 -26,590.3 -35.3,567.2 -35.3,562.7 -14.8,562.7 -21.6,579.6 -21.6,579.6 -26,590.3 	"/>
	<polyline class="st0" points="-21.6,579.6 -21.6,579.6 -14.8,562.7 -14.8,562.7 -14.8,562.7 -21.6,579.6 	"/>
	<polyline class="st0" points="-22.9,669.9 -35.3,669.9 -35.3,639.3 -33.7,643.2 -22.9,669.9 	"/>
	<path class="st0" d="M-35.3,711.3l-1.8-4.4h1.8V711.3"/>
	<polyline class="st0" points="-19.6,717.1 -33,717.1 -35.3,711.3 -35.3,706.9 -15.5,706.9 -19.6,717.1 	"/>
	<polyline class="st0" points="-15.5,706.9 -15.5,706.9 -35.3,706.9 -35.3,669.9 -22.9,669.9 -11.7,697.6 -11.7,697.6 -15.5,706.9 	
		"/>
	<polyline class="st0" points="-11.7,697.6 -11.7,697.6 -22.9,669.9 -0.6,669.9 -0.6,669.9 -0.6,669.9 -7.4,686.9 -7.4,686.9 
		-11.7,697.6 	"/>
	<polyline class="st0" points="94.2,666.8 71.9,666.8 65,650 65.1,649.9 65,649.9 75.8,623.2 76.2,622.3 79.3,629.9 94.2,666.8 	"/>
	<polyline class="st0" points="108.4,629.9 79.3,629.9 76.2,622.3 79.6,613.9 79.6,613.9 83.9,603.2 97.6,603.2 108.4,629.9 	"/>
	<polyline class="st0" points="97.6,603.2 83.9,603.2 90.8,586.3 97.6,603.2 	"/>
	<polyline class="st0" points="104.9,693.5 94.2,666.8 115.7,666.8 113,673.4 104.9,693.5 	"/>
	<polyline class="st0" points="115.7,666.8 94.2,666.8 79.3,629.9 108.4,629.9 119.5,657.5 116.1,665.9 115.7,666.8 	"/>
	<polyline class="st0" points="119.5,657.5 108.4,629.9 130.6,629.9 123.8,646.7 123.8,646.7 119.5,657.5 	"/>
	<path class="st0" d="M54.2,623.2H31.9l-6.8-16.9l0-0.1h0l8.1-20l3.1-7.6l3.1,7.6L54.2,623.2 M18.3,623.2L18.3,623.2l4.9-12.2
		L18.3,623.2"/>
	<polyline class="st0" points="18.3,623.2 18.3,623.2 25.1,606.3 25.1,606.3 25.1,606.3 25.1,606.3 23.2,611.1 18.3,623.2 	"/>
	<polyline class="st0" points="68.4,586.3 39.3,586.3 36.3,578.7 50.8,542.7 50.8,542.7 44,559.6 57.7,559.6 68.4,586.3 	"/>
	<polyline class="st0" points="57.7,559.6 44,559.6 50.8,542.7 57.7,559.6 	"/>
	<polyline class="st0" points="65,649.9 65,649.9 54.2,623.2 75.8,623.2 65,649.9 	"/>
	<polyline class="st0" points="75.8,623.2 75.8,623.2 54.2,623.2 39.3,586.3 68.4,586.3 79.6,613.9 79.6,613.9 76.2,622.3 
		75.8,623.2 	"/>
	<polyline class="st0" points="79.6,613.9 79.6,613.9 68.4,586.3 90.7,586.3 90.7,586.3 83.9,603.2 83.9,603.2 79.6,613.9 	"/>
	<polyline class="st0" points="83.9,603.2 83.9,603.2 90.7,586.3 90.7,586.3 90.8,586.3 90.8,586.3 90.8,586.3 83.9,603.2 	"/>
	<polyline class="st0" points="90.7,586.3 90.7,586.3 90.7,586.3 90.8,586.3 90.7,586.3 	"/>
	<polyline class="st0" points="63,717.1 37.9,717.1 39.3,713.6 39.3,713.6 50.1,686.9 50.5,686 53.5,693.6 63,717.1 	"/>
	<polyline class="st0" points="82.7,693.6 53.5,693.6 50.5,686 53.9,677.6 53.9,677.6 65,650 71.9,666.8 82.7,693.6 	"/>
	<polyline class="st0" points="92.2,717.1 63,717.1 53.5,693.6 82.7,693.6 92.2,717.1 	"/>
	<polyline class="st0" points="95.5,717.1 92.2,717.1 82.7,693.6 104.9,693.6 98.1,710.4 98.2,710.4 95.5,717.1 	"/>
	<polyline class="st0" points="28.5,686.9 -7.4,686.9 -0.6,669.9 -0.6,669.9 7.5,649.9 10.6,642.4 13.6,649.9 28.5,686.9 	"/>
	<polyline class="st0" points="-7.4,686.9 -7.4,686.9 -0.6,669.9 -0.6,669.9 -7.4,686.9 	"/>
	<polyline class="st0" points="42.7,649.9 13.6,649.9 10.6,642.4 18.3,623.2 23.2,611.1 25.1,606.3 31.9,623.2 42.7,649.9 	"/>
	<polyline class="st0" points="23.2,611.1 25.1,606.3 25.1,606.3 23.2,611.1 	"/>
	<polyline class="st0" points="39.3,713.6 39.3,713.6 28.5,686.9 50.1,686.9 39.3,713.6 	"/>
	<polyline class="st0" points="50.1,686.9 50.1,686.9 28.5,686.9 13.6,649.9 42.7,649.9 53.9,677.6 53.9,677.6 50.5,686 50.1,686.9 
			"/>
	<polyline class="st0" points="53.9,677.6 53.9,677.6 42.7,649.9 65,649.9 65,649.9 65.1,649.9 65,650 53.9,677.6 	"/>
	<polyline class="st0" points="199.7,690.3 177.4,690.3 170.6,673.4 170.6,673.4 170.6,673.4 181.4,646.7 181.7,645.8 184.8,653.4 
		199.7,690.3 	"/>
	<polyline class="st0" points="213.9,653.4 184.8,653.4 181.7,645.8 185.1,637.4 185.1,637.4 196.3,609.8 196.3,609.9 189.5,626.8 
		203.2,626.8 213.9,653.4 	"/>
	<polyline class="st0" points="203.2,626.8 189.5,626.8 196.3,609.9 196.3,609.9 196.3,609.8 203.2,626.8 	"/>
	<polyline class="st0" points="196.3,609.9 196.3,609.9 196.3,609.8 196.3,609.8 196.3,609.8 196.3,609.9 	"/>
	<polyline class="st0" points="210.5,717 199.7,690.3 221.3,690.3 210.5,717 	"/>
	<polyline class="st0" points="221.3,690.3 221.3,690.3 199.7,690.3 184.8,653.4 213.9,653.4 225.1,681 225.1,681 221.3,690.3 	"/>
	<polyline class="st0" points="225.1,681 225.1,681 213.9,653.4 236.2,653.4 236.2,653.4 229.4,670.3 229.4,670.3 225.1,681 	"/>
	<polyline class="st0" points="236.2,653.4 236.2,653.4 236.2,653.4 236.2,653.4 	"/>
	<path class="st0" d="M159.8,646.7h-22.3l-6.8-16.8l10.8-26.7l0.4-0.9l3,7.5L159.8,646.7 M130.6,629.9L130.6,629.9L130.6,629.9
		L130.6,629.9L130.6,629.9"/>
	<polyline class="st0" points="130.7,629.9 130.7,629.8 130.6,629.9 130.6,629.8 138.8,609.8 141.4,603.2 141.5,603.2 130.7,629.9 	
		"/>
	<polyline class="st0" points="141.5,603.2 141.5,603.2 141.4,603.2 141.8,602.2 141.8,602.3 141.5,603.2 	"/>
	<polyline class="st0" points="123.8,646.7 123.8,646.7 130.6,629.9 130.6,629.9 123.8,646.7 	"/>
	<path class="st0" d="M174,609.8h-29.1l-3-7.5l3.4-8.4v0l4.3-10.7h13.7L174,609.8 M156.4,566.3L156.4,566.3L156.4,566.3L156.4,566.3
		L156.4,566.3"/>
	<path class="st0" d="M163.2,583.2h-13.7l6.8-16.9h0l0,0L163.2,583.2 M156.4,566.3L156.4,566.3L156.4,566.3L156.4,566.3"/>
	<polyline class="st0" points="156.4,566.3 156.4,566.3 156.4,566.3 156.4,566.2 156.4,566.2 156.4,566.2 156.4,566.3 	"/>
	<polyline class="st0" points="141.8,602.3 141.8,602.2 145.2,593.8 145.2,593.9 145.2,593.9 141.8,602.3 	"/>
	<polyline class="st0" points="145.2,593.9 145.2,593.9 145.2,593.8 156.3,566.3 156.4,566.3 156.4,566.3 156.4,566.3 156.4,566.3 
		149.6,583.2 145.2,593.9 	"/>
	<polyline class="st0" points="170.6,673.4 170.6,673.4 159.8,646.7 181.4,646.7 170.6,673.4 	"/>
	<polyline class="st0" points="181.4,646.7 181.4,646.7 159.8,646.7 144.9,609.8 174,609.8 185.1,637.4 185.1,637.4 181.7,645.8 
		181.4,646.7 	"/>
	<polyline class="st0" points="185.1,637.4 185.1,637.4 174,609.8 196.3,609.8 196.3,609.8 185.1,637.4 	"/>
	<polyline class="st0" points="196.3,609.8 196.3,609.8 196.3,609.8 196.3,609.8 196.3,609.8 	"/>
	<polyline class="st0" points="188.2,717 159.1,717 156,709.5 159.4,701 159.4,701 170.6,673.4 177.4,690.3 188.2,717 	"/>
	<path class="st0" d="M134.1,710.4H98.2l6.8-16.8h0l10.8-26.7l0.4-0.9l3,7.5L134.1,710.4 M105,693.6L105,693.6L105,693.6L105,693.6"
		/>
	<polyline class="st0" points="105,693.6 105,693.6 104.9,693.5 113,673.4 115.7,666.8 115.8,666.8 105,693.6 	"/>
	<polyline class="st0" points="115.8,666.8 115.8,666.8 115.7,666.8 116.1,665.9 116.1,665.9 115.8,666.8 	"/>
	<polyline class="st0" points="98.2,710.4 98.1,710.4 104.9,693.6 105,693.6 105,693.6 105,693.6 98.2,710.4 	"/>
	<path class="st0" d="M148.3,673.4h-29.1l-3-7.5l3.4-8.4v0l11.2-27.6h0l0,0l6.8,16.8L148.3,673.4 M130.7,629.9L130.7,629.9
		L130.7,629.9L130.7,629.9"/>
	<polyline class="st0" points="130.7,629.9 130.7,629.9 130.6,629.9 130.7,629.8 130.7,629.9 130.7,629.9 	"/>
	<polyline class="st0" points="116.1,665.9 116.1,665.9 119.5,657.5 119.5,657.5 119.5,657.5 116.1,665.9 	"/>
	<polyline class="st0" points="119.5,657.5 119.5,657.5 119.5,657.5 123.8,646.7 130.6,629.9 130.7,629.9 130.7,629.9 130.7,629.9 
		130.7,629.9 119.5,657.5 	"/>
	<polyline class="st0" points="130.7,629.9 130.7,629.9 130.7,629.9 130.7,629.9 	"/>
	<polyline class="st0" points="155.7,710.4 134.1,710.4 119.2,673.4 148.3,673.4 159.4,701 159.4,701 156,709.5 155.7,710.4 	"/>
	<polyline class="st0" points="159.4,701 159.4,701 148.3,673.4 170.6,673.4 170.6,673.4 170.6,673.4 170.6,673.4 159.4,701 	"/>
	<polyline class="st0" points="305.3,713.9 283,713.9 276.2,697 276.2,697 276.1,697 286.9,670.3 287.3,669.4 290.4,677 
		305.3,713.9 	"/>
	<polyline class="st0" points="319.5,677 290.4,677 287.3,669.4 290.7,661 290.7,661 301.8,633.4 301.9,633.5 295,650.4 
		308.7,650.4 319.5,677 	"/>
	<polyline class="st0" points="308.7,650.4 295,650.4 301.9,633.5 301.9,633.5 301.9,633.5 308.7,650.4 	"/>
	<polyline class="st0" points="301.9,633.5 301.9,633.5 301.8,633.4 301.9,633.4 301.9,633.5 301.9,633.5 	"/>
	<polyline class="st0" points="326.8,713.9 305.3,713.9 290.4,677 319.5,677 330.6,704.5 326.8,713.9 	"/>
	<polyline class="st0" points="330.6,704.5 319.5,677 341.7,677 341.5,677.4 338.5,685 330.6,704.5 	"/>
	<polyline class="st0" points="265.3,670.3 243,670.3 236.2,653.4 236.2,653.4 236.2,653.5 247,626.8 247.4,625.9 250.4,633.4 
		265.3,670.3 	"/>
	<polyline class="st0" points="236.2,653.5 236.2,653.4 236.2,653.4 236.2,653.4 244.3,633.4 247,626.8 247,626.8 236.2,653.5 	"/>
	<polyline class="st0" points="247,626.8 247,626.8 247,626.8 247.4,625.8 247.4,625.9 247,626.8 	"/>
	<polyline class="st0" points="229.4,670.3 229.4,670.3 234.2,658.3 229.4,670.3 	"/>
	<polyline class="st0" points="229.4,670.3 229.4,670.3 236.2,653.4 236.2,653.4 236.2,653.4 236.2,653.4 234.2,658.3 229.4,670.3 	
		"/>
	<polyline class="st0" points="236.2,653.4 236.2,653.4 236.2,653.4 236.2,653.4 236.2,653.4 	"/>
	<path class="st0" d="M279.5,633.4h-29.1l-3-7.5l3.4-8.4v0l5.9-14.7l-1.6,4h13.7L279.5,633.4 M261.9,589.8L261.9,589.8L261.9,589.8
		L261.9,589.8"/>
	<polyline class="st0" points="247.4,625.9 247.4,625.8 250.8,617.4 250.8,617.4 250.8,617.5 247.4,625.9 	"/>
	<polyline class="st0" points="250.8,617.4 250.8,617.4 250.8,617.4 261.9,589.8 261.9,589.8 261.9,589.8 256.7,602.8 250.8,617.4 	
		"/>
	<polyline class="st0" points="268.8,606.8 255.1,606.8 256.7,602.8 261.9,589.8 268.8,606.8 	"/>
	<polyline class="st0" points="276.1,697 276.1,697 265.3,670.3 286.9,670.3 276.1,697 	"/>
	<polyline class="st0" points="286.9,670.3 286.9,670.3 265.3,670.3 250.4,633.4 279.5,633.4 290.7,661 290.7,661 287.3,669.4 
		286.9,670.3 	"/>
	<polyline class="st0" points="290.7,661 290.7,661 279.5,633.4 301.8,633.4 301.8,633.4 290.7,661 	"/>
	<polyline class="st0" points="301.8,633.4 301.8,633.4 301.9,633.4 301.9,633.4 301.8,633.4 	"/>
	<polyline class="st0" points="284.2,717.1 268.1,717.1 276.2,697 283,713.9 284.2,717.1 	"/>
	<polyline class="st0" points="232.8,717.1 210.5,717.1 218.6,697 221.7,689.5 224.7,697 232.8,717.1 	"/>
	<polyline class="st0" points="253.8,697 224.7,697 221.7,689.5 229.4,670.3 234.2,658.3 236.2,653.4 243,670.3 253.8,697 	"/>
	<polyline class="st0" points="234.2,658.3 236.2,653.4 236.2,653.4 234.2,658.3 	"/>
	<polyline class="st0" points="261.9,717.1 232.8,717.1 224.7,697 253.8,697 261.9,717.1 	"/>
	<polyline class="st0" points="268.1,717.1 261.9,717.1 253.8,697 276.1,697 276.1,697 276.2,697 276.2,697 268.1,717.1 	"/>
	<polyline class="st0" points="450.9,638.2 428.6,638.2 421.8,621.3 421.8,621.3 421.8,621.3 432.6,594.6 433,593.7 436,601.2 
		450.9,638.2 	"/>
	<polyline class="st0" points="465.1,601.2 436,601.2 433,593.7 436.4,585.3 436.4,585.3 447.5,557.7 447.5,557.7 440.7,574.6 
		454.3,574.6 465.1,601.2 	"/>
	<polyline class="st0" points="454.3,574.6 440.7,574.6 447.5,557.7 454.3,574.6 	"/>
	<polyline class="st0" points="461.7,664.9 461.7,664.9 450.9,638.2 472.5,638.2 461.7,664.9 	"/>
	<polyline class="st0" points="472.5,638.2 472.5,638.2 450.9,638.2 436,601.2 465.1,601.2 476.3,628.9 476.3,628.9 472.5,638.2 	
		"/>
	<polyline class="st0" points="476.3,628.9 476.3,628.9 465.1,601.2 487.4,601.2 476.3,628.9 	"/>
	<polyline class="st0" points="411,594.6 388.7,594.6 381.9,577.8 382.1,577.4 382.1,577.4 393.1,550.2 396.1,557.6 411,594.6 	"/>
	<polyline class="st0" points="375,594.6 375,594.6 378.2,586.7 378.2,586.7 375,594.6 	"/>
	<polyline class="st0" points="378.2,586.7 378.2,586.7 382,577.3 382.1,577.4 382.1,577.4 381.9,577.8 381.9,577.7 378.2,586.7 	
		"/>
	<polyline class="st0" points="382.1,577.4 382.1,577.4 382,577.3 390,557.6 393,550.1 393.1,550.2 382.1,577.4 	"/>
	<polyline class="st0" points="425.2,557.6 396.1,557.6 393.1,550.2 393.2,549.8 393.1,549.8 393.2,549.7 393.2,549.8 400.8,531 
		414.4,531 425.2,557.6 	"/>
	<polyline class="st0" points="414.4,531 400.8,531 404,523.1 407.6,514.1 414.4,531 	"/>
	<polyline class="st0" points="393.2,549.8 393.2,549.7 403.9,523.1 404,523.1 400.8,531 400.8,531 393.2,549.8 	"/>
	<polyline class="st0" points="400.8,531 400.8,531 404,523.1 404,523.1 400.8,531 	"/>
	<polyline class="st0" points="404,523.1 403.9,523.1 407.6,514 407.6,514.1 404,523.1 	"/>
	<polyline class="st0" points="404,523.1 404,523.1 404,523.1 407.6,514.1 407.6,514.1 404,523.1 	"/>
	<polyline class="st0" points="393.1,550.2 393,550.1 393.1,549.8 393.2,549.8 393.1,550.2 	"/>
	<polyline class="st0" points="421.8,621.3 421.8,621.3 411,594.6 432.6,594.6 421.8,621.3 	"/>
	<polyline class="st0" points="432.6,594.6 432.6,594.6 411,594.6 396.1,557.6 425.2,557.6 436.4,585.3 436.4,585.3 433,593.7 
		432.6,594.6 	"/>
	<polyline class="st0" points="436.4,585.3 436.4,585.3 425.2,557.6 447.5,557.6 447.5,557.7 436.4,585.3 	"/>
	<polyline class="st0" points="425.2,701.8 402.8,701.8 396,685.1 396.1,684.9 396.1,684.9 406.9,658.2 407.2,657.3 410.3,664.9 
		425.2,701.8 	"/>
	<polyline class="st0" points="439.4,664.9 410.3,664.9 407.2,657.3 410.7,648.9 410.7,648.9 421.8,621.3 428.6,638.2 439.4,664.9 	
		"/>
	<polyline class="st0" points="440.7,717.1 431.4,717.1 425.2,701.8 446.8,701.8 440.7,717.1 	"/>
	<polyline class="st0" points="446.8,701.8 446.8,701.8 425.2,701.8 410.3,664.9 439.4,664.9 450.6,692.5 450.6,692.5 446.8,701.8 	
		"/>
	<polyline class="st0" points="450.6,692.5 450.6,692.5 439.4,664.9 461.7,664.9 461.7,664.9 461.7,664.9 450.6,692.5 	"/>
	<polyline class="st0" points="385.3,658.2 362.9,658.2 356.2,641.6 356.4,641.1 356.4,641 367.4,613.8 370.4,621.3 385.3,658.2 	
		"/>
	<polyline class="st0" points="356.2,641.6 356.1,641.5 356.3,641 356.4,641 356.4,641.1 356.2,641.6 	"/>
	<polyline class="st0" points="356.4,641 356.4,641 356.3,641 364.3,621.3 367.3,613.7 367.4,613.8 356.4,641 	"/>
	<path class="st0" d="M399.5,621.3h-29.1l-3-7.5l0.2-0.4h0l10.8-26.7l3.6-9l6.8,16.8L399.5,621.3 M367.5,613.4L367.5,613.4
		L367.5,613.4L367.5,613.4"/>
	<polyline class="st0" points="367.5,613.4 367.5,613.4 367.5,613.4 375,594.6 378.2,586.7 378.3,586.7 367.5,613.4 	"/>
	<polyline class="st0" points="378.3,586.7 378.3,586.7 378.2,586.7 381.9,577.7 381.9,577.8 378.3,586.7 	"/>
	<polyline class="st0" points="367.4,613.8 367.3,613.7 367.4,613.4 367.5,613.4 367.5,613.4 367.5,613.4 367.4,613.8 	"/>
	<polyline class="st0" points="396.1,684.9 396.1,684.9 385.3,658.2 406.9,658.2 396.1,684.9 	"/>
	<polyline class="st0" points="406.9,658.2 406.9,658.2 385.3,658.2 370.4,621.3 399.5,621.3 410.7,648.9 410.7,648.9 407.2,657.3 
		406.9,658.2 	"/>
	<polyline class="st0" points="410.7,648.9 410.7,648.9 399.5,621.3 421.8,621.3 421.8,621.3 421.8,621.3 421.8,621.3 410.7,648.9 	
		"/>
	<polyline class="st0" points="409,717.1 383.1,717.1 384.9,712.6 384.9,712.6 396,685 396,685.1 389.3,701.8 402.8,701.8 
		409,717.1 	"/>
	<polyline class="st0" points="402.8,701.8 389.3,701.8 396,685.1 402.8,701.8 	"/>
	<polyline class="st0" points="357.6,717.1 335.3,717.1 330.4,705.1 330.6,704.6 330.6,704.6 341.6,677.5 344.6,685 357.6,717.1 	
		"/>
	<polyline class="st0" points="326.8,713.9 326.8,713.9 330.6,704.5 330.6,704.6 330.6,704.6 330.4,705.1 330.4,705.1 326.8,713.9 	
		"/>
	<polyline class="st0" points="330.6,704.6 330.6,704.6 330.6,704.5 338.5,685 341.5,677.4 341.6,677.5 330.6,704.6 	"/>
	<path class="st0" d="M373.7,685h-29.1l-3-7.5l0.2-0.5l0,0.1l7.6-18.8h13.5L373.7,685 M341.8,677L341.8,677L341.8,677L341.8,677"/>
	<polyline class="st0" points="341.8,677.1 341.8,677 341.8,677 341.8,677 341.7,676.9 352.5,650.4 352.5,650.4 349.3,658.2 
		349.4,658.2 341.8,677.1 	"/>
	<polyline class="st0" points="352.5,650.4 352.5,650.4 356.1,641.4 356.1,641.5 352.5,650.4 	"/>
	<polyline class="st0" points="341.6,677.5 341.5,677.4 341.7,677 341.8,677 341.8,677 341.6,677.5 	"/>
	<polyline class="st0" points="341.8,677 341.8,677 341.8,677 341.8,677 	"/>
	<polyline class="st0" points="362.9,658.2 349.4,658.2 352.6,650.4 356.2,641.6 362.9,658.2 	"/>
	<polyline class="st0" points="349.4,658.2 349.3,658.2 352.5,650.4 352.6,650.4 349.4,658.2 	"/>
	<polyline class="st0" points="352.6,650.4 352.6,650.4 352.5,650.4 356.1,641.5 356.2,641.6 352.6,650.4 	"/>
	<polyline class="st0" points="383.1,717.1 357.6,717.1 344.6,685 373.7,685 384.9,712.6 384.9,712.6 383.1,717.1 	"/>
	<polyline class="st0" points="384.9,712.6 384.9,712.6 373.7,685 396,685 396,685 384.9,712.6 	"/>
	<polyline class="st0" points="335.3,717.1 325.5,717.1 326.8,713.9 326.9,713.9 330.4,705.1 335.3,717.1 	"/>
	<polyline class="st0" points="326.9,713.9 326.8,713.9 330.4,705.1 330.4,705.1 326.9,713.9 	"/>
	<polyline class="st0" points="453.6,717.1 440.7,717.1 444.1,708.7 447.1,701.1 450.2,708.7 453.6,717.1 	"/>
	<polyline class="st0" points="479.3,708.7 450.2,708.7 447.1,701.1 454.9,681.9 468.5,681.9 479.3,708.7 	"/>
	<polyline class="st0" points="556.5,661.9 534.2,661.9 527.4,645 527.4,645 527.4,645 538.1,618.3 538.5,617.4 541.6,624.9 
		556.5,661.9 	"/>
	<polyline class="st0" points="570.7,624.9 541.6,624.9 538.5,617.4 541.9,609 541.9,608.9 553.1,581.3 553.1,581.4 546.3,598.2 
		559.9,598.2 570.7,624.9 	"/>
	<polyline class="st0" points="559.9,598.2 546.3,598.2 553.1,581.4 559.9,598.2 	"/>
	<polyline class="st0" points="567.3,688.6 556.5,661.9 578,661.9 575.4,668.5 567.3,688.6 	"/>
	<polyline class="st0" points="578,661.9 556.5,661.9 541.6,624.9 570.7,624.9 581.8,652.5 578.4,661 578,661.9 	"/>
	<polyline class="st0" points="516.6,618.3 494.3,618.3 487.4,601.4 480.6,618.3 480.6,618.3 487.5,601.2 487.5,601.3 498.3,574.6 
		498.6,573.8 501.6,581.3 516.6,618.3 	"/>
	<polyline class="st0" points="487.5,601.3 487.5,601.2 495.5,581.3 498.3,574.6 498.3,574.6 487.5,601.3 	"/>
	<polyline class="st0" points="498.3,574.6 498.3,574.6 498.3,574.6 498.6,573.8 498.6,573.8 498.3,574.6 	"/>
	<polyline class="st0" points="530.8,581.3 501.6,581.3 498.6,573.8 502,565.2 502,565.2 513.1,537.8 513.1,537.8 506.4,554.6 
		519.9,554.6 530.8,581.3 	"/>
	<polyline class="st0" points="519.9,554.6 506.4,554.6 513.1,537.8 519.9,554.6 	"/>
	<polyline class="st0" points="498.6,573.8 498.6,573.8 502,565.2 502,565.2 502,565.2 498.6,573.8 	"/>
	<polyline class="st0" points="502,565.2 502,565.2 502,565.2 513.1,537.7 513.1,537.8 502,565.2 	"/>
	<polyline class="st0" points="527.4,645 527.3,645 516.6,618.3 538.1,618.3 527.4,645 	"/>
	<polyline class="st0" points="538.1,618.3 538.1,618.3 516.6,618.3 501.6,581.3 530.8,581.3 541.9,608.9 541.9,609 538.5,617.4 
		538.1,618.3 	"/>
	<polyline class="st0" points="541.9,608.9 541.9,608.9 530.8,581.3 553.1,581.3 553.1,581.3 541.9,608.9 	"/>
	<polyline class="st0" points="527.4,717.1 498.2,717.1 501.6,708.6 501.6,708.6 512.4,681.9 512.8,681 515.9,688.6 527.4,717.1 	
		"/>
	<polyline class="st0" points="545,688.6 515.9,688.6 512.8,681 516.2,672.6 516.2,672.6 527.4,645 534.2,661.9 545,688.6 	"/>
	<polyline class="st0" points="555.8,717.1 527.4,717.1 515.9,688.6 545,688.6 556.1,716.2 556.1,716.2 555.8,717.1 	"/>
	<polyline class="st0" points="556.1,716.2 556.1,716.2 545,688.6 567.3,688.6 560.4,705.5 560.5,705.5 556.1,716.2 	"/>
	<polyline class="st0" points="490.8,681.9 468.5,681.9 461.7,665.1 454.9,681.9 454.9,681.9 469.8,645 472.9,637.4 475.9,645 
		490.8,681.9 	"/>
	<polyline class="st0" points="468.5,681.9 454.9,681.9 461.7,665.1 468.5,681.9 	"/>
	<polyline class="st0" points="505,645 475.9,645 472.9,637.4 480.6,618.3 487.4,601.4 494.3,618.3 505,645 	"/>
	<polyline class="st0" points="501.6,708.6 501.6,708.6 490.8,681.9 512.4,681.9 501.6,708.6 	"/>
	<polyline class="st0" points="512.4,681.9 512.4,681.9 490.8,681.9 475.9,645 505,645 516.2,672.6 516.2,672.6 512.8,681 
		512.4,681.9 	"/>
	<polyline class="st0" points="516.2,672.6 516.2,672.6 505,645 527.3,645 527.4,645 527.4,645 527.4,645 516.2,672.6 	"/>
	<path class="st0" d="M594.7,705.5h-34.2l6.8-16.9h0l10.8-26.7l0.4-0.9l3,7.5l13.2,32.8L594.7,705.5 M567.3,688.6L567.3,688.6
		L567.3,688.6L567.3,688.6"/>
	<polyline class="st0" points="567.3,688.6 567.3,688.6 567.3,688.6 575.4,668.5 578,661.9 578.1,661.9 567.3,688.6 	"/>
	<polyline class="st0" points="578.1,661.9 578.1,661.9 578,661.9 578.4,661 578.4,661 578.1,661.9 	"/>
	<polyline class="st0" points="560.5,705.5 560.4,705.5 567.3,688.6 567.3,688.6 567.3,688.6 567.3,688.6 560.5,705.5 	"/>
	<polyline class="st0" points="578.4,661 578.4,661 581.8,652.5 581.8,652.6 581.8,652.6 578.4,661 	"/>
	<polyline class="st0" points="405.4,181.1 383.1,181.1 376.3,164.2 376.3,164.2 376.3,164.2 387.1,137.5 387.5,136.6 390.5,144.2 
		405.4,181.1 	"/>
	<path class="st0" d="M416.2,207.8"/>
	<polyline class="st0" points="416.2,207.8 416.2,207.8 405.4,181.1 	"/>
	<polyline class="st0" points="365.5,137.5 343.2,137.5 336.4,120.7 336.4,120.7 336.4,120.7 336.4,120.6 336.4,120.6 336.4,120.6 
		347.2,93.9 347.6,93.1 350.6,100.6 365.5,137.5 	"/>
	<path class="st0" d="M379.7,100.6h-29.1l-3-7.5l3.4-8.5v0l11.1-27.5l6.8,16.8L379.7,100.6 M362.1,57L362.1,57L362.1,57L362.1,57"/>
	<polyline class="st0" points="376.3,164.2 376.3,164.2 365.5,137.5 387.1,137.5 376.3,164.2 	"/>
	<polyline class="st0" points="387.1,137.5 387.1,137.5 365.5,137.5 350.6,100.6 379.7,100.6 390.9,128.2 390.9,128.2 387.5,136.6 
		387.1,137.5 	"/>
	<polyline class="st0" points="379.7,244.8 357.4,244.8 350.6,227.9 350.6,227.9 350.6,227.9 350.6,227.9 350.6,227.9 350.6,227.9 
		350.6,227.9 361.4,201.2 361.7,200.3 364.8,207.8 379.7,244.8 	"/>
	<polyline class="st0" points="357.4,244.8 357.4,244.8 350.6,227.9 350.6,227.9 357.4,244.8 	"/>
	<polyline class="st0" points="350.6,227.9 350.6,227.9 350.6,227.9 350.6,227.9 350.6,227.9 350.6,227.9 	"/>
	<polyline class="st0" points="393.9,207.8 364.8,207.8 361.7,200.3 365.1,191.9 365.1,191.8 376.3,164.2 376.3,164.2 383.1,181.1 
		393.9,207.8 	"/>
	<polyline class="st0" points="390.5,271.5 379.7,244.8 401.3,244.8 390.5,271.5 	"/>
	<polyline class="st0" points="401.3,244.8 401.3,244.8 379.7,244.8 364.8,207.8 393.9,207.8 405.1,235.4 405.1,235.5 401.3,244.8 	
		"/>
	<polyline class="st0" points="405.1,235.4 405.1,235.4 393.9,207.8 416.2,207.8 416.2,207.8 413.9,213.7 405.1,235.4 	"/>
	<polyline class="st0" points="339.8,201.2 317.5,201.2 310.7,184.3 310.7,184.3 310.6,184.3 310.6,184.3 310.6,184.3 310.6,184.3 
		310.6,184.3 310.6,184.3 310.6,184.3 310.6,184.3 310.7,184.3 321.5,157.6 321.8,156.7 324.9,164.2 339.8,201.2 	"/>
	<path class="st0" d="M317.5,201.2L317.5,201.2l-6.8-16.8l0,0L317.5,201.2 M310.6,184.3L310.6,184.3L310.6,184.3L310.6,184.3"/>
	<path class="st0" d="M354,164.2h-29.1l-3-7.5l3.4-8.4v0l11.2-27.6l6.8,16.8L354,164.2 M336.4,120.7L336.4,120.7L336.4,120.7
		L336.4,120.7L336.4,120.7"/>
	<polyline class="st0" points="350.6,227.9 350.6,227.9 339.8,201.2 361.4,201.2 350.6,227.9 	"/>
	<polyline class="st0" points="361.4,201.2 361.4,201.2 339.8,201.2 324.9,164.2 354,164.2 365.1,191.8 365.1,191.9 361.7,200.3 
		361.4,201.2 	"/>
	<polyline class="st0" points="365.1,191.8 365.1,191.8 354,164.2 376.3,164.2 376.3,164.2 365.1,191.8 	"/>
	<polyline class="st0" points="354,308.5 331.8,308.5 324.9,291.5 324.9,291.5 324.9,291.5 335.7,264.9 336,264 339.1,271.5 
		354,308.5 	"/>
	<polyline class="st0" points="324.9,291.5 324.9,291.5 335.7,264.9 335.7,264.9 324.9,291.5 	"/>
	<polyline class="st0" points="335.7,264.9 335.7,264.9 335.7,264.9 335.7,264.9 336,264 336,264 335.7,264.9 	"/>
	<polyline class="st0" points="331.8,308.5 318.1,308.5 324.9,291.5 331.8,308.5 	"/>
	<polyline class="st0" points="318.1,308.5 318,308.5 324.9,291.6 324.9,291.6 324.9,291.5 324.9,291.5 324.9,291.5 324.9,291.5 
		318.1,308.5 	"/>
	<polyline class="st0" points="339.1,271.5 339.1,271.5 336,264 336,264 339.1,271.5 	"/>
	<polyline class="st0" points="368.2,271.5 339.1,271.5 336,264 339.4,255.5 339.4,255.5 350.6,227.9 357.4,244.8 368.2,271.5 	"/>
	<polyline class="st0" points="336,264 336,264 339.4,255.5 339.4,255.5 339.4,255.5 339.4,255.5 339.4,255.5 336,264 336,264 	"/>
	<polyline class="st0" points="339.4,255.5 339.4,255.5 339.4,255.5 350.6,227.9 350.6,227.9 339.4,255.5 	"/>
	<polyline class="st0" points="364.8,335.1 364.8,335.1 354,308.5 354,308.5 364.8,335.1 	"/>
	<polyline class="st0" points="354,308.5 354,308.5 354,308.5 354,308.5 354,308.5 	"/>
	<polyline class="st0" points="364.8,335.1 364.8,335.1 354,308.5 375.6,308.5 364.8,335.1 	"/>
	<polyline class="st0" points="375.6,308.5 354,308.5 354,308.5 375.6,308.5 375.6,308.5 	"/>
	<polyline class="st0" points="364.8,335.2 364.8,335.1 364.8,335.1 364.8,335.1 364.8,335.2 	"/>
	<polyline class="st0" points="354,308.5 354,308.5 339.1,271.5 339.1,271.5 339.1,271.5 354,308.5 	"/>
	<polyline class="st0" points="368.2,271.5 339.1,271.5 339.1,271.5 368.2,271.5 368.2,271.5 	"/>
	<polyline class="st0" points="375.6,308.5 375.6,308.5 354,308.5 339.1,271.5 368.2,271.5 379.4,299.1 379.4,299.1 375.6,308.5 	
		"/>
	<polyline class="st0" points="390.5,271.5 368.2,271.5 368.2,271.5 368.2,271.5 368.2,271.5 390.5,271.5 390.5,271.5 	"/>
	<polyline class="st0" points="368.2,271.5 368.2,271.5 368.2,271.5 368.2,271.5 368.2,271.5 	"/>
	<polyline class="st0" points="379.4,299.1 379.4,299.1 368.2,271.5 368.2,271.5 379.4,299.1 379.4,299.1 	"/>
	<polyline class="st0" points="379.4,299.1 368.2,271.5 390.5,271.5 385.1,284.8 379.4,299.1 	"/>
	<polyline class="st0" points="284.9,248 284.9,248 284.9,247.9 284.9,248 284.9,248 	"/>
	<path class="st0" d="M314.1,264.9h-22.2l-6.9-17l0,0.1h0l0,0h0l10.8-26.7l0.4-0.9l3.1,7.5L314.1,264.9 M284.9,248L284.9,248
		L284.9,248L284.9,248"/>
	<polyline class="st0" points="291.8,264.9 278.1,264.9 285,248 284.9,248 285,247.9 291.8,264.9 	"/>
	<polyline class="st0" points="278.1,264.9 278.1,264.9 284.9,248 284.9,248 285,248 278.1,264.9 	"/>
	<polyline class="st0" points="299.2,227.9 299.1,227.9 296.1,220.4 296.1,220.4 299.2,227.9 	"/>
	<polyline class="st0" points="328.3,227.9 299.2,227.9 296.1,220.4 299.5,211.9 299.5,211.9 310.7,184.3 317.5,201.2 328.3,227.9 	
		"/>
	<polyline class="st0" points="310.6,184.3 310.6,184.3 310.6,184.3 310.6,184.3 	"/>
	<polyline class="st0" points="324.8,291.5 324.8,291.5 314.1,264.9 314.1,264.9 324.8,291.5 	"/>
	<polyline class="st0" points="314.1,264.9 314.1,264.9 314.1,264.9 314.1,264.9 314.1,264.9 	"/>
	<polyline class="st0" points="324.9,291.5 324.8,291.5 314.1,264.9 335.7,264.9 324.9,291.5 	"/>
	<polyline class="st0" points="335.7,264.9 314.1,264.9 314.1,264.9 335.7,264.9 335.7,264.9 	"/>
	<polyline class="st0" points="324.9,291.6 324.9,291.6 324.8,291.5 324.8,291.5 324.9,291.5 324.9,291.6 	"/>
	<polyline class="st0" points="314.1,264.9 314.1,264.9 299.1,227.9 299.2,227.9 299.2,227.9 314.1,264.9 	"/>
	<polyline class="st0" points="328.3,227.9 299.2,227.9 299.2,227.9 328.3,227.9 328.3,227.9 	"/>
	<polyline class="st0" points="335.7,264.9 335.7,264.9 314.1,264.9 299.2,227.9 328.3,227.9 339.4,255.5 339.4,255.5 336,264 
		335.7,264.9 	"/>
	<polyline class="st0" points="350.6,227.9 328.3,227.9 328.3,227.9 328.3,227.9 328.3,227.9 350.6,227.9 350.6,227.9 350.6,227.9 	
		"/>
	<polyline class="st0" points="328.3,227.9 328.3,227.9 328.3,227.9 328.3,227.9 328.3,227.9 	"/>
	<polyline class="st0" points="339.4,255.5 339.4,255.5 328.3,227.9 328.3,227.9 339.4,255.5 339.4,255.5 	"/>
	<polyline class="st0" points="339.4,255.5 328.3,227.9 350.6,227.9 350.6,227.9 339.4,255.5 	"/>
	<polyline class="st0" points="351.3,30.2 329,30.2 322.2,13.4 322.2,13.4 322.2,13.4 322.2,13.3 322.2,13.3 333,-13.4 333.4,-14.3 
		336.4,-6.7 351.3,30.2 	"/>
	<path class="st0" d="M362.1,56.9"/>
	<polyline class="st0" points="362.1,56.9 362.1,56.9 351.3,30.2 	"/>
	<polyline class="st0" points="311.4,-13.4 289.1,-13.4 282.3,-30.2 275.5,-13.4 275.4,-13.4 282.4,-30.6 282.4,-30.4 293.2,-57.1 
		293.5,-57.7 296.5,-50.3 311.4,-13.4 	"/>
	<polyline class="st0" points="325.6,-50.3 296.5,-50.3 293.5,-57.7 297,-66.4 297,-66.5 307.7,-92.9 308.4,-92.9 314.8,-77 
		325.6,-50.3 	"/>
	<polyline class="st0" points="322.2,13.3 322.2,13.3 311.4,-13.4 333,-13.4 322.2,13.3 	"/>
	<polyline class="st0" points="333,-13.4 333,-13.4 311.4,-13.4 296.5,-50.3 325.6,-50.3 336.8,-22.7 336.8,-22.7 333.4,-14.3 
		333,-13.4 	"/>
	<polyline class="st0" points="325.6,93.9 303.3,93.9 296.5,77.1 296.5,77 296.5,77 307.3,50.3 307.7,49.4 310.7,57 325.6,93.9 	"/>
	<polyline class="st0" points="339.8,57 310.7,57 307.7,49.4 311.1,41 311.1,41 322.2,13.4 329,30.2 339.8,57 	"/>
	<polyline class="st0" points="336.4,120.6 336.4,120.6 325.6,93.9 347.2,93.9 336.4,120.6 	"/>
	<polyline class="st0" points="347.2,93.9 347.2,93.9 325.6,93.9 310.7,57 339.8,57 351,84.6 351,84.6 347.6,93.1 347.2,93.9 	"/>
	<polyline class="st0" points="351,84.6 351,84.6 339.8,57 362.1,57 362.1,57 362.1,57 362.1,57 362.1,57.1 351,84.6 	"/>
	<polyline class="st0" points="285.7,50.3 263.3,50.3 256.5,33.5 264.7,13.4 267.7,5.8 270.8,13.4 285.7,50.3 	"/>
	<polyline class="st0" points="299.9,13.4 270.8,13.4 267.7,5.8 275.5,-13.4 282.3,-30.2 289.1,-13.4 299.9,13.4 	"/>
	<polyline class="st0" points="296.5,77 296.5,77 285.7,50.3 307.3,50.3 296.5,77 	"/>
	<polyline class="st0" points="307.3,50.3 307.3,50.3 285.7,50.3 270.8,13.4 299.9,13.4 311.1,41 311.1,41 307.7,49.4 307.3,50.3 	
		"/>
	<polyline class="st0" points="311.1,41 311.1,41 299.9,13.4 322.2,13.4 322.2,13.4 322.2,13.4 311.1,41 	"/>
	<polyline class="st0" points="299.9,157.6 277.6,157.6 270.7,140.7 270.7,140.7 270.7,140.7 281.5,114 281.9,113.1 285,120.7 
		299.9,157.6 	"/>
	<polyline class="st0" points="314.1,120.7 285,120.7 281.9,113.1 285.3,104.7 285.3,104.7 296.5,77.1 296.5,77.1 303.3,93.9 
		314.1,120.7 	"/>
	<polyline class="st0" points="310.7,184.3 310.6,184.3 299.9,157.6 321.5,157.6 310.7,184.3 	"/>
	<polyline class="st0" points="321.5,157.6 321.5,157.6 299.9,157.6 285,120.7 314.1,120.7 325.2,148.3 325.2,148.3 321.8,156.7 
		321.5,157.6 	"/>
	<polyline class="st0" points="325.2,148.3 325.2,148.3 314.1,120.7 336.3,120.7 336.4,120.7 336.4,120.7 336.4,120.7 325.2,148.3 	
		"/>
	<polyline class="st0" points="259.9,114 237.6,114 230.8,97.1 230.9,97 230.9,97 238.9,77.1 242,69.5 245,77.1 259.9,114 	"/>
	<polyline class="st0" points="274.1,77.1 245,77.1 242,69.5 256.5,33.5 256.5,33.5 263.3,50.3 274.1,77.1 	"/>
	<polyline class="st0" points="270.7,140.7 270.7,140.7 259.9,114 281.5,114 270.7,140.7 	"/>
	<polyline class="st0" points="281.5,114 281.5,114 259.9,114 245,77.1 274.1,77.1 285.3,104.7 285.3,104.7 281.9,113.1 281.5,114 	
		"/>
	<polyline class="st0" points="285.3,104.7 285.3,104.7 274.1,77.1 296.5,77.1 296.5,77.1 285.3,104.7 	"/>
	<polyline class="st0" points="274.1,221.3 251.8,221.3 245,204.4 245,204.4 245,204.4 255.8,177.7 256.2,176.7 259.2,184.3 
		274.1,221.3 	"/>
	<polyline class="st0" points="288.3,184.3 259.2,184.3 256.2,176.7 259.6,168.3 259.6,168.3 270.7,140.7 270.7,140.7 277.6,157.6 
		288.3,184.3 	"/>
	<polyline class="st0" points="284.9,248 284.9,247.9 274.1,221.3 295.7,221.3 293,227.9 284.9,248 	"/>
	<polyline class="st0" points="284.9,248 284.9,248 284.9,248 293,227.9 295.7,221.3 295.7,221.3 284.9,248 	"/>
	<polyline class="st0" points="295.7,221.3 274.1,221.3 259.2,184.3 288.3,184.3 299.5,211.9 296.1,220.3 295.7,221.3 	"/>
	<polyline class="st0" points="295.7,221.3 295.7,221.3 295.7,221.3 296.1,220.3 296.1,220.4 296.1,220.4 295.7,221.3 	"/>
	<polyline class="st0" points="296.1,220.4 296.1,220.3 299.5,211.9 299.5,211.9 299.5,211.9 296.1,220.4 	"/>
	<path class="st0" d="M299.5,211.9l-11.1-27.6h22.3h0h0h0L299.5,211.9 M310.7,184.3L310.7,184.3L310.7,184.3L310.7,184.3"/>
	<polyline class="st0" points="299.5,211.9 299.5,211.9 299.5,211.9 310.6,184.3 310.6,184.3 310.7,184.3 310.7,184.3 299.5,211.9 	
		"/>
	<polyline class="st0" points="234.2,177.7 211.9,177.7 205.1,160.8 205.1,160.7 205.1,160.6 205.2,160.6 215.9,133.9 216.3,133.2 
		219.3,140.7 234.2,177.7 	"/>
	<polyline class="st0" points="248.4,140.7 219.3,140.7 216.3,133.2 219.7,124.6 219.7,124.6 230.8,97.1 237.6,114 248.4,140.7 	"/>
	<polyline class="st0" points="245,204.4 245,204.4 234.2,177.7 255.8,177.7 245,204.4 	"/>
	<polyline class="st0" points="255.8,177.7 255.8,177.7 234.2,177.7 219.3,140.7 248.4,140.7 259.6,168.3 259.6,168.3 256.2,176.7 
		255.8,177.7 	"/>
	<polyline class="st0" points="259.6,168.3 259.6,168.3 248.4,140.7 270.7,140.7 270.7,140.7 259.6,168.3 	"/>
	<polyline class="st0" points="248.4,284.9 226.2,284.9 219.4,268 219.4,268 219.3,268 230.1,241.3 230.5,240.4 233.5,248 
		248.4,284.9 	"/>
	<polyline class="st0" points="233.5,248 233.5,248 230.5,240.4 230.5,240.4 233.5,248 233.5,248 	"/>
	<polyline class="st0" points="248.4,284.9 248.4,284.9 233.5,248 233.5,248 248.4,284.9 	"/>
	<polyline class="st0" points="219.3,268 219.3,268 230.1,241.3 230.1,241.3 219.3,268 	"/>
	<polyline class="st0" points="230.1,241.3 230.1,241.3 230.1,241.3 230.1,241.3 230.5,240.4 230.5,240.4 230.5,240.4 230.1,241.3 	
		"/>
	<polyline class="st0" points="226.2,284.9 212.5,284.9 219.4,268 226.2,284.9 	"/>
	<polyline class="st0" points="212.5,284.9 212.5,284.9 219.3,268 219.3,268 219.3,268 219.3,268 219.4,268 219.4,268 212.5,284.9 	
		"/>
	<polyline class="st0" points="262.6,248 262.6,248 245,204.4 245,204.4 245,204.4 245,204.4 251.8,221.3 262.6,248 	"/>
	<polyline class="st0" points="262.6,248 233.5,248 230.5,240.4 233.9,232 233.9,232 245,204.4 262.6,248 	"/>
	<polyline class="st0" points="230.5,240.4 230.5,240.4 233.9,232 233.9,232 233.9,232 230.5,240.4 	"/>
	<polyline class="st0" points="233.9,232 233.9,232 233.9,232 233.9,232 233.9,232 245,204.4 245,204.4 245,204.4 233.9,232 	"/>
	<polyline class="st0" points="259.2,311.6 259.2,311.6 248.5,284.9 270,284.9 259.2,311.6 	"/>
	<polyline class="st0" points="270,284.9 248.5,284.9 248.4,284.9 270,284.9 270,284.9 	"/>
	<polyline class="st0" points="259.2,311.6 259.2,311.6 259.2,311.6 259.2,311.6 	"/>
	<polyline class="st0" points="262.7,248 262.6,248 233.5,248 262.6,248 262.6,248 262.6,248 262.7,248 	"/>
	<polyline class="st0" points="262.6,248 233.5,248 233.5,248 262.6,248 262.6,248 	"/>
	<polyline class="st0" points="270,284.9 270,284.9 248.4,284.9 233.5,248 262.6,248 273.8,275.6 270,284.9 	"/>
	<polyline class="st0" points="273.8,275.6 262.6,248 262.7,248 273.8,275.6 273.8,275.6 273.8,275.6 	"/>
	<polyline class="st0" points="284.9,248 262.7,248 262.6,248 284.9,248 284.9,248 284.9,248 	"/>
	<polyline class="st0" points="284.9,248 284.9,248 284.9,248 284.9,248 284.9,248 285,248 284.9,248 	"/>
	<polyline class="st0" points="273.8,275.6 273.8,275.6 262.7,248 284.9,248 284.9,248 278.1,264.9 273.8,275.6 	"/>
	<polyline class="st0" points="172.6,241.3 172.5,241.3 187.5,204.4 190.5,196.8 190.5,196.8 190.5,196.8 187.5,204.4 172.6,241.3 	
		"/>
	<polyline class="st0" points="208.5,241.3 186.3,241.3 179.4,224.4 172.6,241.3 172.6,241.3 187.5,204.4 190.5,196.8 193.6,204.4 
		208.5,241.3 	"/>
	<polyline class="st0" points="193.6,204.4 193.6,204.4 190.5,196.8 190.5,196.8 193.6,204.4 193.6,204.4 	"/>
	<polyline class="st0" points="208.5,241.3 208.5,241.3 193.6,204.4 193.6,204.4 208.5,241.3 	"/>
	<polyline class="st0" points="186.3,241.3 172.6,241.3 179.4,224.4 186.3,241.3 	"/>
	<polyline class="st0" points="222.7,204.4 222.7,204.4 205.1,160.8 190.5,196.8 190.5,196.8 203.6,164.3 205.1,160.8 211.9,177.7 
		222.7,204.4 	"/>
	<polyline class="st0" points="222.7,204.4 193.6,204.4 190.5,196.8 205.1,160.8 222.7,204.4 	"/>
	<polyline class="st0" points="219.3,268 219.3,268 208.5,241.3 230.1,241.3 219.3,268 	"/>
	<polyline class="st0" points="230.1,241.3 208.5,241.3 208.5,241.3 230.1,241.3 230.1,241.3 	"/>
	<polyline class="st0" points="219.3,268 219.3,268 219.3,268 219.3,268 219.3,268 	"/>
	<polyline class="st0" points="222.7,204.4 222.7,204.4 193.6,204.4 222.7,204.4 222.7,204.4 222.7,204.4 222.7,204.4 	"/>
	<polyline class="st0" points="222.7,204.4 193.6,204.4 193.6,204.4 222.7,204.4 222.7,204.4 	"/>
	<polyline class="st0" points="230.1,241.3 230.1,241.3 208.5,241.3 193.6,204.4 222.7,204.4 233.9,232 230.5,240.4 230.1,241.3 	
		"/>
	<polyline class="st0" points="233.9,232 222.7,204.4 222.7,204.4 233.9,232 233.9,232 233.9,232 	"/>
	<polyline class="st0" points="245,204.4 222.7,204.4 222.7,204.4 245,204.4 245,204.4 245,204.4 245,204.4 245,204.4 	"/>
	<polyline class="st0" points="233.9,232 233.9,232 222.7,204.4 245,204.4 233.9,232 	"/>
	<polyline class="st0" points="245.7,6.6 223.5,6.6 216.6,-10.3 216.6,-10.3 216.6,-10.3 227.4,-37 227.8,-37.9 230.8,-30.3 
		245.7,6.6 	"/>
	<polyline class="st0" points="259.9,-30.3 230.8,-30.3 227.8,-37.9 231.2,-46.3 231.2,-46.3 242.3,-73.9 242.4,-73.7 235.7,-57.1 
		249.1,-57.1 259.9,-30.3 	"/>
	<polyline class="st0" points="256.6,33.3 256.5,33.3 245.7,6.6 267.3,6.6 256.6,33.3 	"/>
	<polyline class="st0" points="267.3,6.6 267.3,6.6 245.7,6.6 230.8,-30.3 259.9,-30.3 271.1,-2.7 271.1,-2.7 267.3,6.6 	"/>
	<polyline class="st0" points="271.1,-2.7 271.1,-2.7 259.9,-30.3 282.2,-30.3 271.1,-2.7 	"/>
	<path class="st0" d="M205.8-37h-22.2l-6.8-16.9l10.4-25.7l0.8-1.9l3,7.5L205.8-37"/>
	<polyline class="st0" points="176.3,-52.9 176.3,-52.9 184.8,-73.9 187,-79.5 187.1,-79.5 176.7,-53.8 176.7,-53.9 176.3,-52.9 	
		"/>
	<polyline class="st0" points="187.1,-79.5 187.1,-79.5 187,-79.5 187.8,-81.5 187.9,-81.4 187.1,-79.5 	"/>
	<polyline class="st0" points="220,-73.9 190.9,-73.9 187.9,-81.4 190.9,-88.8 190.9,-88.8 190.8,-88.9 192.4,-92.9 212.3,-92.9 
		220,-73.9 	"/>
	<polyline class="st0" points="187.9,-81.4 187.8,-81.5 190.8,-88.9 190.9,-88.8 190.9,-88.8 187.9,-81.4 	"/>
	<polyline class="st0" points="216.6,-10.3 216.6,-10.3 205.8,-37 227.4,-37 216.6,-10.3 	"/>
	<polyline class="st0" points="227.4,-37 227.4,-37 205.8,-37 190.9,-73.9 220,-73.9 231.2,-46.3 231.2,-46.3 227.8,-37.9 
		227.4,-37 	"/>
	<polyline class="st0" points="231.2,-46.3 231.2,-46.3 220,-73.9 242.3,-73.9 242.3,-73.9 231.2,-46.3 	"/>
	<polyline class="st0" points="220.1,70.2 197.7,70.2 190.9,53.4 190.9,53.4 190.9,53.4 190.9,53.3 190.9,53.3 201.7,26.6 
		202.1,25.7 205.1,33.3 220.1,70.2 	"/>
	<polyline class="st0" points="234.3,33.3 205.1,33.3 202.1,25.7 205.5,17.3 205.5,17.3 216.6,-10.3 223.5,6.6 234.3,33.3 	"/>
	<polyline class="st0" points="230.9,96.9 220.1,70.2 241.6,70.2 230.9,96.9 	"/>
	<polyline class="st0" points="241.6,70.2 241.6,70.2 220.1,70.2 205.1,33.3 234.3,33.3 245.4,60.9 245.4,60.9 241.6,70.2 	"/>
	<polyline class="st0" points="245.4,60.9 245.4,60.9 234.3,33.3 256.5,33.3 256.6,33.3 256.6,33.3 245.4,60.9 	"/>
	<path class="st0" d="M180.1,26.6h-22.3L151,9.8l10.4-25.8l0.8-1.9l3,7.5L180.1,26.6 M150.6,10.8L150.6,10.8l0-0.1l0,0L150.6,10.8"
		/>
	<polyline class="st0" points="150.6,10.7 150.6,10.7 159.1,-10.3 161.4,-15.9 161.4,-15.9 151,9.8 151,9.8 150.6,10.7 	"/>
	<polyline class="st0" points="161.4,-15.9 161.4,-15.9 161.4,-15.9 162.2,-17.9 162.2,-17.8 161.4,-15.9 	"/>
	<polyline class="st0" points="144.2,26.6 144.2,26.6 150.6,10.8 150.6,10.8 144.2,26.6 	"/>
	<path class="st0" d="M194.3-10.3h-29.1l-3-7.5l3-7.5v0l11.1-27.6l0.4-1l6.8,16.9L194.3-10.3 M176.3-52.9L176.3-52.9L176.3-52.9
		L176.3-52.9"/>
	<polyline class="st0" points="176.3,-52.9 176.3,-52.9 176.3,-52.9 176.7,-53.9 176.7,-53.8 176.3,-52.9 	"/>
	<polyline class="st0" points="162.2,-17.8 162.2,-17.9 165.2,-25.3 165.2,-25.3 165.2,-25.2 162.2,-17.8 	"/>
	<polygon class="st0" points="176.3,-52.9 165.2,-25.3 165.2,-25.4 169.9,-37 169.8,-37 176.3,-52.9 	"/>
	<polyline class="st0" points="190.9,53.3 190.9,53.3 180.1,26.6 201.7,26.6 190.9,53.3 	"/>
	<polyline class="st0" points="201.7,26.6 201.7,26.6 180.1,26.6 165.2,-10.3 194.3,-10.3 205.5,17.3 205.5,17.3 202.1,25.7 
		201.7,26.6 	"/>
	<polyline class="st0" points="205.5,17.3 205.5,17.3 194.3,-10.3 216.6,-10.3 216.6,-10.3 216.6,-10.3 216.6,-10.3 205.5,17.3 	"/>
	<polyline class="st0" points="194.4,133.9 172,133.9 165.2,117.1 165.2,117 165.2,117 176,90.3 176.4,89.4 179.4,97 194.4,133.9 	
		"/>
	<polyline class="st0" points="208.6,97 179.4,97 176.4,89.4 179.8,81 179.8,81 190.9,53.4 197.7,70.2 208.6,97 	"/>
	<polyline class="st0" points="205.2,160.6 205.1,160.6 194.4,133.9 215.9,133.9 205.2,160.6 	"/>
	<polyline class="st0" points="215.9,133.9 215.9,133.9 194.4,133.9 179.4,97 208.6,97 219.7,124.6 219.7,124.6 216.3,133.2 
		215.9,133.9 	"/>
	<polyline class="st0" points="219.7,124.6 219.7,124.6 208.6,97 230.9,97 230.9,97 230.8,97.1 219.7,124.6 	"/>
	<polyline class="st0" points="154.4,90.3 132.1,90.3 125.3,73.6 135.7,47.8 136.5,45.9 139.5,53.4 154.4,90.3 	"/>
	<polyline class="st0" points="125.3,73.6 125.3,73.5 133.4,53.4 135.7,47.8 135.7,47.8 125.3,73.6 	"/>
	<polyline class="st0" points="135.7,47.8 135.7,47.8 135.7,47.8 136.4,45.8 136.5,45.9 135.7,47.8 	"/>
	<polyline class="st0" points="168.6,53.4 139.5,53.4 136.5,45.9 139.5,38.5 139.5,38.4 150.7,10.8 150.6,10.8 150.6,10.7 
		150.6,10.8 151,9.8 157.8,26.6 168.6,53.4 	"/>
	<polyline class="st0" points="150.6,10.8 150.6,10.7 151,9.8 151,9.8 150.6,10.8 	"/>
	<polyline class="st0" points="136.5,45.9 136.4,45.8 139.5,38.4 139.5,38.4 139.5,38.5 136.5,45.9 	"/>
	<polyline class="st0" points="139.5,38.4 139.5,38.4 139.5,38.4 144.2,26.6 150.6,10.8 150.7,10.8 139.5,38.4 	"/>
	<polyline class="st0" points="165.2,117 165.2,117 154.4,90.3 176,90.3 165.2,117 	"/>
	<polyline class="st0" points="176,90.3 176,90.3 154.4,90.3 139.5,53.4 168.6,53.4 179.8,81 179.8,81 176.4,89.4 176,90.3 	"/>
	<polyline class="st0" points="179.8,81 179.8,81 168.6,53.4 190.9,53.4 190.9,53.4 190.9,53.4 179.8,81 	"/>
	<polyline class="st0" points="168.6,197.6 146.3,197.6 139.5,180.7 139.5,180.7 139.5,180.7 150.3,154 150.6,153.1 153.7,160.7 
		168.6,197.6 	"/>
	<polyline class="st0" points="182.8,160.7 153.7,160.7 150.6,153.1 154,144.7 154,144.7 165.2,117.1 165.2,117.1 172,133.9 
		182.8,160.7 	"/>
	<polyline class="st0" points="179.4,224.3 168.6,197.6 190.2,197.6 179.4,224.3 	"/>
	<polyline class="st0" points="190.2,197.6 190.2,197.6 168.6,197.6 153.7,160.7 182.8,160.7 194,188.3 194,188.3 190.2,197.6 	"/>
	<polyline class="st0" points="194,188.3 194,188.3 182.8,160.7 205.1,160.7 205.1,160.8 203.6,164.3 194,188.3 	"/>
	<polyline class="st0" points="128.7,154 106.4,154 99.6,137.2 110,111.5 110.7,109.6 113.7,117.1 128.7,154 	"/>
	<polyline class="st0" points="99.6,137.2 99.5,137.1 107.6,117.1 109.9,111.5 110,111.5 99.6,137.2 	"/>
	<polyline class="st0" points="110,111.5 110,111.5 109.9,111.5 110.7,109.5 110.7,109.6 110,111.5 	"/>
	<polyline class="st0" points="142.9,117.1 113.7,117.1 110.7,109.6 113.7,102.1 113.7,102.1 124.9,74.5 124.8,74.5 124.9,74.3 
		124.9,74.5 125.3,73.6 132.1,90.3 142.9,117.1 	"/>
	<polyline class="st0" points="124.9,74.5 124.9,74.3 125.2,73.5 125.3,73.5 125.3,73.6 124.9,74.5 	"/>
	<polyline class="st0" points="110.7,109.6 110.7,109.5 113.7,102 113.7,102.1 113.7,102.1 110.7,109.6 	"/>
	<polyline class="st0" points="113.7,102.1 113.7,102.1 113.7,102 124.8,74.5 124.9,74.5 113.7,102.1 	"/>
	<polyline class="st0" points="139.5,180.7 139.5,180.7 128.7,154 150.3,154 139.5,180.7 	"/>
	<polyline class="st0" points="150.3,154 150.3,154 128.7,154 113.7,117.1 142.9,117.1 154,144.7 154,144.7 150.6,153.1 150.3,154 	
		"/>
	<polyline class="st0" points="154,144.7 154,144.7 142.9,117.1 165.2,117.1 165.2,117.1 154,144.7 	"/>
	<polyline class="st0" points="142.9,261.3 120.6,261.3 113.8,244.4 113.8,244.4 113.7,244.4 113.7,244.4 113.7,244.4 124.5,217.7 
		124.9,216.8 128,224.3 142.9,261.3 	"/>
	<polyline class="st0" points="120.6,261.3 106.9,261.3 113.8,244.4 120.6,261.3 	"/>
	<polyline class="st0" points="106.9,261.3 106.9,261.3 113.7,244.4 113.8,244.4 113.8,244.4 106.9,261.3 	"/>
	<polyline class="st0" points="157.1,224.3 128,224.3 124.9,216.8 128.3,208.3 128.3,208.3 139.5,180.7 139.5,180.7 146.3,197.6 
		157.1,224.3 	"/>
	<polyline class="st0" points="153.7,288 142.9,261.3 164.5,261.3 153.7,288 	"/>
	<polyline class="st0" points="164.5,261.3 164.5,261.3 142.9,261.3 128,224.3 157.1,224.3 168.2,251.9 168.2,252 164.5,261.3 	"/>
	<polyline class="st0" points="168.2,251.9 168.2,251.9 157.1,224.3 179.4,224.3 168.2,251.9 	"/>
	<path class="st0" d="M102.9,217.7H80.6l-6.8-16.8l10.4-25.8l0.8-1.9l3,7.5L102.9,217.7 M73.4,201.8L73.4,201.8L73.4,201.8
		L73.4,201.8L73.4,201.8"/>
	<polyline class="st0" points="73.4,201.7 73.4,201.7 81.9,180.7 84.2,175.1 84.3,175.1 73.8,200.9 73.8,200.8 73.4,201.7 	"/>
	<polyline class="st0" points="84.3,175.1 84.3,175.1 84.2,175.1 85,173.1 85,173.2 84.3,175.1 	"/>
	<polyline class="st0" points="67,217.7 67,217.7 73.4,201.8 73.4,201.8 67,217.7 	"/>
	<path class="st0" d="M80.6,217.7H67.1l6.4-15.9h0l0.4-0.9L80.6,217.7 M73.5,201.8L73.5,201.8L73.5,201.8L73.5,201.8"/>
	<polyline class="st0" points="73.5,201.8 73.5,201.8 73.4,201.7 73.8,200.8 73.8,200.9 73.5,201.8 	"/>
	<polyline class="st0" points="67.1,217.7 67,217.7 73.4,201.8 73.5,201.8 73.5,201.8 73.5,201.8 67.1,217.7 	"/>
	<polyline class="st0" points="117.1,180.7 88,180.7 85,173.2 88,165.8 88,165.8 99.2,138.2 99.1,138.2 99.1,138 99.2,138.2 
		99.6,137.2 106.4,154 117.1,180.7 	"/>
	<polyline class="st0" points="99.2,138.2 99.1,138 99.5,137.1 99.5,137.1 99.6,137.2 99.2,138.2 	"/>
	<polyline class="st0" points="85,173.2 85,173.1 88,165.7 88,165.8 88,165.8 85,173.2 	"/>
	<polyline class="st0" points="88,165.8 88,165.8 88,165.7 99.1,138.2 99.2,138.2 88,165.8 	"/>
	<polyline class="st0" points="113.7,244.4 113.7,244.4 102.9,217.7 124.5,217.7 113.7,244.4 	"/>
	<polyline class="st0" points="124.5,217.7 124.5,217.7 102.9,217.7 88,180.7 117.1,180.7 128.3,208.3 128.3,208.3 124.9,216.8 
		124.5,217.7 	"/>
	<polyline class="st0" points="128.3,208.3 128.3,208.3 117.1,180.7 139.5,180.7 139.5,180.7 128.3,208.3 	"/>
	<polyline class="st0" points="459.5,332.1 437.3,332.1 430.5,315.2 430.5,315.1 430.4,315.1 441.2,288.5 441.6,287.6 444.6,295.2 
		459.5,332.1 	"/>
	<polyline class="st0" points="444.7,295.2 444.6,295.2 441.6,287.6 441.6,287.6 444.6,295.1 444.7,295.2 	"/>
	<polyline class="st0" points="459.6,332.1 459.5,332.1 444.6,295.2 444.7,295.2 459.6,332.1 	"/>
	<polyline class="st0" points="430.4,315.1 430.4,315.1 441.2,288.5 441.2,288.5 430.4,315.1 	"/>
	<polyline class="st0" points="441.2,288.5 441.2,288.5 441.2,288.5 441.2,288.5 441.6,287.6 441.6,287.6 441.6,287.6 441.2,288.5 	
		"/>
	<polyline class="st0" points="437.3,332.1 423.6,332.1 430.5,315.2 437.3,332.1 	"/>
	<polyline class="st0" points="423.6,332.1 423.6,332.1 430.4,315.2 430.4,315.2 430.4,315.1 430.4,315.1 430.5,315.1 430.5,315.2 
		423.6,332.1 	"/>
	<polyline class="st0" points="441.6,287.6 441.6,287.6 445,279.2 445,279.2 445,279.2 441.6,287.6 	"/>
	<path class="st0" d="M470.4,358.8"/>
	<polyline class="st0" points="470.4,358.8 470.4,358.8 459.6,332.1 	"/>
	<line class="st0" x1="459.6" y1="332.1" x2="459.6" y2="332.1"/>
	<polyline class="st0" points="470.4,358.8 470.4,358.8 470.4,358.8 470.4,358.8 	"/>
	<path class="st0" d="M383.7,288.5L383.7,288.5l4.5-11.2L383.7,288.5 M390.5,271.5L390.5,271.5L390.5,271.5l8.1-20l3.1-7.6l0,0l0,0
		l-3.1,7.6L390.5,271.5"/>
	<polyline class="st0" points="419.6,288.5 397.4,288.5 390.5,271.5 383.7,288.5 383.7,288.5 388.2,277.2 390.5,271.5 390.5,271.5 
		398.6,251.6 401.6,244 404.7,251.6 419.6,288.5 	"/>
	<polyline class="st0" points="404.7,251.6 404.7,251.6 401.6,244 401.7,244 404.7,251.5 404.7,251.6 	"/>
	<polyline class="st0" points="419.6,288.5 419.6,288.5 404.7,251.6 404.7,251.6 419.6,288.5 	"/>
	<polyline class="st0" points="397.4,288.5 383.7,288.5 390.5,271.5 397.4,288.5 	"/>
	<polyline class="st0" points="383.7,288.5 383.7,288.5 385.1,284.8 390.5,271.5 390.5,271.5 390.5,271.5 388.2,277.2 383.7,288.5 	
		"/>
	<polyline class="st0" points="433.8,251.5 433.8,251.5 416.2,208 401.7,244 401.7,243.9 409.4,224.8 416.2,207.9 423,224.8 
		433.8,251.5 	"/>
	<polyline class="st0" points="433.8,251.5 404.7,251.5 401.7,244 416.2,208 433.8,251.5 	"/>
	<polyline class="st0" points="430.4,315.1 430.4,315.1 419.6,288.5 441.2,288.5 430.4,315.1 	"/>
	<polyline class="st0" points="441.2,288.5 419.6,288.5 419.6,288.5 441.2,288.5 441.2,288.5 	"/>
	<polyline class="st0" points="430.4,315.2 430.4,315.2 430.4,315.1 430.4,315.1 430.4,315.2 	"/>
	<polyline class="st0" points="433.8,251.6 433.8,251.6 404.7,251.6 433.8,251.6 433.8,251.5 433.8,251.5 433.8,251.6 	"/>
	<polyline class="st0" points="433.8,251.6 404.7,251.6 404.7,251.5 433.8,251.5 433.8,251.6 	"/>
	<polyline class="st0" points="441.2,288.5 441.2,288.5 419.6,288.5 404.7,251.6 433.8,251.6 445,279.2 441.6,287.6 441.2,288.5 	
		"/>
	<polyline class="st0" points="445,279.2 433.8,251.6 433.8,251.6 445,279.1 445,279.1 445,279.2 	"/>
	<polyline class="st0" points="271.6,-57.1 249.1,-57.1 242.4,-73.7 242.5,-74 242.5,-74 250.1,-92.9 257.2,-92.9 271.6,-57.1 	"/>
	<polyline class="st0" points="249.1,-57.1 235.7,-57.1 242.4,-73.7 249.1,-57.1 	"/>
	<polyline class="st0" points="282.4,-30.6 271.6,-57.1 293.1,-57.1 290.4,-50.3 282.4,-30.6 	"/>
	<polyline class="st0" points="282.4,-30.4 282.4,-30.6 290.4,-50.3 293.1,-57.1 293.2,-57.1 282.4,-30.4 	"/>
	<polyline class="st0" points="293.1,-57.1 271.6,-57.1 257.2,-92.9 286.3,-92.9 296.9,-66.6 293.4,-57.9 293.1,-57.1 	"/>
	<polyline class="st0" points="293.2,-57.1 293.2,-57.1 293.1,-57.1 293.4,-57.9 293.5,-57.7 293.2,-57.1 	"/>
	<polyline class="st0" points="293.5,-57.7 293.4,-57.9 296.9,-66.6 297,-66.5 297,-66.4 293.5,-57.7 	"/>
	<polyline class="st0" points="296.9,-66.6 286.3,-92.9 307.5,-92.9 301.1,-77 301.1,-77 296.9,-66.6 	"/>
	<polyline class="st0" points="301.1,-77 301.1,-77 307.5,-92.9 307.6,-92.9 301.1,-77 	"/>
	<polyline class="st0" points="297,-66.5 297,-66.5 296.9,-66.6 301.1,-77 307.6,-92.9 307.7,-92.9 297,-66.5 	"/>
	<polyline class="st0" points="242.5,-74 242.5,-74 234.9,-92.9 250.1,-92.9 242.5,-74 	"/>
	<polyline class="st0" points="576,239.8 576,239.8 576,239.7 576.1,239.4 576.2,239.5 576,239.8 	"/>
	<polyline class="st0" points="576,239.7 575.9,239.4 576.1,239.4 576.1,239.4 576,239.7 	"/>
</g>
</svg>
