<?xml version="1.0" encoding="utf-8"?>
<!-- Generator: Adobe Illustrator 20.1.0, SVG Export Plug-In . SVG Version: 6.00 Build 0)  -->
<svg version="1.1" id="Layer_1" xmlns="http://www.w3.org/2000/svg" xmlns:xlink="http://www.w3.org/1999/xlink" x="0px" y="0px"
	 width="863.5px" height="700.2px" viewBox="0 0 863.5 700.2" style="enable-background:new 0 0 863.5 700.2;" xml:space="preserve"
	>
<style type="text/css">
	.st0{fill:#E0E0E0;}
	.st1{fill:#6C696A;}
	.st2{fill:#4D4B4C;}
	.st3{fill:#EEEEEE;}
</style>
<rect x="467" y="236.2" class="st0" width="125.9" height="44.1"/>
<path id="polygon3857" class="st1" d="M466.8,398h149.8l4.2-7.8h-154V398z"/>
<path id="polygon3859" class="st1" d="M614.2,303.8H478.8l-12,44h147.5L614.2,303.8L614.2,303.8z"/>
<path id="polygon4033" class="st1" d="M632.9,236.4h-56l14.1,44h41.9V236.4z"/>
<path id="polygon4035" class="st2" d="M579.3,236.4h-2.4l14.1,44h2.3L579.3,236.4z"/>
<path class="st3" d="M36.5,27.5c0,3.9,0.1,7.6-2.8,10.8c-2.7,2.6-6.2,4-10,4h-3.5c-3.7,0.1-7.3-1.4-9.9-3.9
	c-2.9-3.2-2.8-6.8-2.8-10.8V12.9c0-2.5,0.4-6.5-2.4-7.5V5.2h10.5v0.2c-2.7,1-2.4,5-2.4,7.5v14.7c0,7.3,3.1,10.7,8.7,10.7
	c3.1,0.1,6.1-1.3,8-3.8c1.2-1.6,1.2-3,1.2-5V12.9c0-2.5,0.3-6.5-2.4-7.5V5.2H39v0.2c-2.8,1-2.5,5-2.5,7.6V27.5L36.5,27.5z"/>
<path class="st3" d="M52.9,9.9L46,27.8l-2.9,7.7c-1.2,3.1-1.5,4.7,1.1,5.7v0.2h-10v-0.2c3.2-1.6,4.1-4.7,5.3-7.8l9.2-22.9
	c0.8-2,1.8-4.3-0.8-5.1V5.2h8.7L68,33.4c1.3,3.1,2.2,6.2,5.4,7.8v0.2H62.1v-0.2c2.7-1.2,2.2-1.8,0.8-5.7l-3-7.7L52.9,9.9z"/>
<path class="st3" d="M105.1,8.7c0.5-1.1,0.8-2.2,0.8-3.4l0,0h9.5v0.1c-1.3,0.4-1.7,2-1.7,3.2l3.6,26.9c0.3,2.6,0.6,4.1,2.8,5.6v0.2
	h-10.6v-0.2c1.9-0.6,2.2-2.2,2.2-4.1l-3.1-26.4L96.4,42c-2.7-2.1-3.5-3.6-4.8-6.6L81.1,10.6L78,34.3c-0.4,3.3-0.8,5.8,1.8,6.9v0.2
	h-8.9v-0.2c2.3-2,2.6-4.7,3.1-7.7l3.1-23c0.2-1.5,0.8-3.7-1.7-5.1V5.2H85l0,0c0.1,0.9,0.4,1.7,0.8,2.5L96,31.9L105.1,8.7L105.1,8.7z
	"/>
<path class="st3" d="M142,11.7c-2.3-2.2-5.4-3.5-8.6-3.5c-3.1,0-7.1,1.2-7.1,5c0,7.5,18.9,7.4,18.9,17.6c0,5.9-6.1,11.4-14.7,11.4
	c-3.3,0-6.7-0.5-9.8-1.6l-1.6-6.9c3.4,2.9,7.6,4.5,12,4.6c3.1,0,7.8-1.9,7.8-5.7c0-8.6-18.9-7-18.9-18.7c0-6.9,7.1-9.6,13.8-9.6
	c2.8,0,5.5,0.4,8.2,1.2V11.7L142,11.7z"/>
<path class="st3" d="M53,35c2.5,0,4.6-2.1,4.6-4.6s-2.1-4.6-4.6-4.6s-4.6,2.1-4.6,4.6S50.4,35,53,35L53,35z"/>
<path class="st3" d="M158.2,42.1h-1.1V4.2h1.1V42.1L158.2,42.1z"/>
<path class="st3" d="M167.5,16.1v-5.5h1.7V16c0,1.8,0.9,2.7,2.4,2.7s2.4-0.9,2.4-2.6v-5.5h1.7V16c0,2.9-1.6,4.3-4.1,4.3
	c-2.1,0.2-3.9-1.4-4.1-3.4C167.4,16.6,167.5,16.4,167.5,16.1L167.5,16.1z"/>
<path class="st3" d="M177.3,13h1.6v1.1c0.5-0.8,1.3-1.3,2.2-1.3c1.4-0.1,2.5,0.9,2.6,2.3c0,0.2,0,0.3,0,0.5v4.6h-1.6v-4.1
	c0-1.1-0.6-1.8-1.5-1.8S179,15,179,15.9c0,0.1,0,0.1,0,0.2v4.1h-1.6L177.3,13L177.3,13z"/>
<path class="st3" d="M185.7,13h1.6v7.2h-1.6V13z M185.7,10.3h1.8v1.6h-1.8V10.3L185.7,10.3z"/>
<path class="st3" d="M188.7,13h1.8l1.9,5.3l2-5.3h1.7l-2.9,7.3h-1.5L188.7,13L188.7,13z"/>
<path class="st3" d="M202,16.1c0-1-0.8-1.9-1.8-1.9s-1.8,0.9-1.9,1.9H202z M196.6,16.6L196.6,16.6c-0.1-2,1.4-3.6,3.4-3.7h0.1
	c1.9,0,3.5,1.6,3.5,3.5c0,0.1,0,0.3,0,0.4c0,0.2,0,0.3,0,0.5h-5.2c0.1,1.1,1,1.9,2.1,1.8c0.7,0,1.5-0.3,1.9-0.9l1,0.9
	c-0.7,0.9-1.8,1.4-2.9,1.3c-2,0.1-3.6-1.5-3.7-3.5C196.7,16.8,196.7,16.7,196.6,16.6L196.6,16.6z"/>
<path class="st3" d="M205.2,13h1.6v1.6c0.4-1.1,1.4-1.8,2.6-1.8v1.8h-0.1c-1.5,0-2.5,0.9-2.5,2.9v2.7h-1.6V13L205.2,13z"/>
<path class="st3" d="M210.2,19.2l0.7-1.1c0.7,0.5,1.5,0.9,2.4,0.9c0.7,0,1.1-0.3,1.1-0.8l0,0c0-0.6-0.8-0.7-1.6-1
	c-1.1-0.3-2.2-0.7-2.2-2.1l0,0c0-1.3,1.1-2.3,2.4-2.2c0.1,0,0.2,0,0.2,0c0.9,0,1.8,0.3,2.6,0.8l-0.7,1.2c-0.6-0.4-1.3-0.6-2-0.7
	c-0.6,0-1,0.3-1,0.7l0,0c0,0.5,0.8,0.7,1.6,1c1,0.3,2.2,0.8,2.2,2.1l0,0c0,1.5-1.2,2.3-2.6,2.3C212.2,20.3,211.1,19.9,210.2,19.2
	L210.2,19.2z"/>
<path class="st3" d="M217.6,13h1.6v7.2h-1.6V13z M217.5,10.3h1.8v1.6h-1.8V10.3z"/>
<path class="st3" d="M221.6,18.2v-3.8h-0.9V13h0.9v-2h1.6v2h1.9v1.4h-1.9v3.5c-0.1,0.4,0.2,0.8,0.6,0.9c0.1,0,0.2,0,0.2,0
	c0.4,0,0.7-0.1,1-0.2v1.3c-0.5,0.3-1,0.4-1.5,0.4c-1,0.1-1.9-0.6-2.1-1.6C221.6,18.5,221.6,18.3,221.6,18.2L221.6,18.2z"/>
<path class="st3" d="M226.7,22l0.6-1.2c0.3,0.2,0.6,0.3,1,0.3c0.5,0,0.7-0.2,1-0.8l-3-7.2h1.8l2,5.4l1.9-5.4h1.7l-2.9,7.4
	c-0.6,1.5-1.2,2-2.4,2C227.7,22.4,227.2,22.3,226.7,22L226.7,22z"/>
<path class="st3" d="M243.9,16.6L243.9,16.6c0.1-1.2-0.9-2.3-2.1-2.3h-0.1c-1.2,0-2.2,0.9-2.2,2.1v0.1l0,0c0,1.2,0.9,2.3,2.2,2.3
	l0,0C242.9,18.8,243.9,17.8,243.9,16.6C243.9,16.7,243.9,16.7,243.9,16.6L243.9,16.6z M237.8,16.6L237.8,16.6c0-2.1,1.7-3.8,3.8-3.8
	s3.8,1.7,3.8,3.8l0,0c0,2.1-1.7,3.8-3.8,3.8h-0.1C239.5,20.4,237.9,18.7,237.8,16.6L237.8,16.6L237.8,16.6z"/>
<path class="st3" d="M247.3,14.4h-0.9V13h0.9v-0.5c-0.1-0.7,0.2-1.3,0.6-1.8c0.4-0.4,1-0.6,1.6-0.6c0.4,0,0.9,0.1,1.3,0.2v1.4
	c-0.3-0.1-0.6-0.2-1-0.2c-0.6,0-1,0.3-1,1.1V13h1.9v1.3H249v5.9h-1.6L247.3,14.4L247.3,14.4z"/>
<path class="st3" d="M261.2,16.4l-1.6-3.8l-1.6,3.8H261.2z M258.8,10.6h1.6l4.2,9.6h-1.8l-1-2.3h-4.5l-1,2.3h-1.7L258.8,10.6z"/>
<path class="st3" d="M265.7,13h1.6v1.6c0.4-1.1,1.4-1.8,2.6-1.8v1.8h-0.1c-1.5,0-2.5,0.9-2.5,2.9v2.7h-1.6V13L265.7,13z"/>
<path class="st3" d="M271.2,10.2h1.6v6l3-3.2h2l-2.9,2.9l3,4.3H276l-2.2-3.1l-1,1v2.1h-1.6L271.2,10.2L271.2,10.2z"/>
<path class="st3" d="M283.4,17.2c-0.5-0.2-1.1-0.3-1.6-0.3c-1,0-1.6,0.4-1.6,1.1l0,0c0,0.7,0.6,1.1,1.4,1.1c1.1,0,1.9-0.6,1.9-1.5
	L283.4,17.2L283.4,17.2z M283.4,20.2v-0.9c-0.6,0.7-1.4,1.1-2.3,1c-1.3,0.2-2.4-0.7-2.6-2c0-0.1,0-0.2,0-0.3l0,0
	c0-1.6,1.2-2.4,2.9-2.4c0.7,0,1.3,0.1,2,0.3v-0.2c0-1-0.6-1.5-1.8-1.5c-0.7,0-1.4,0.2-2.1,0.4l-0.4-1.3c0.9-0.4,1.8-0.6,2.7-0.6
	c1.5-0.2,2.9,0.8,3.1,2.4c0,0.2,0,0.4,0,0.6V20L283.4,20.2z"/>
<path class="st3" d="M286.6,13h1.6v1.1c0.5-0.8,1.3-1.3,2.2-1.3c1.4-0.1,2.5,0.9,2.6,2.3c0,0.2,0,0.3,0,0.5v4.6h-1.7v-4.1
	c0-1.1-0.6-1.8-1.5-1.8s-1.6,0.7-1.6,1.6c0,0.1,0,0.1,0,0.2v4.1h-1.7V13H286.6z"/>
<path class="st3" d="M294.5,19.2l0.7-1.1c0.7,0.5,1.5,0.9,2.4,0.9c0.7,0,1.1-0.3,1.1-0.8l0,0c0-0.6-0.8-0.7-1.6-1
	c-1.1-0.3-2.2-0.7-2.2-2.1l0,0c0-1.3,1.1-2.3,2.4-2.2c0.1,0,0.2,0,0.2,0c0.9,0,1.8,0.3,2.6,0.8l-0.7,1.2c-0.6-0.4-1.3-0.6-2-0.7
	c-0.6,0-1,0.3-1,0.7l0,0c0,0.5,0.8,0.7,1.6,1c1,0.3,2.2,0.8,2.2,2.1l0,0c0,1.5-1.2,2.3-2.6,2.3C296.5,20.3,295.4,19.9,294.5,19.2
	L294.5,19.2z"/>
<path class="st3" d="M306.3,17.2c-0.5-0.2-1.1-0.3-1.6-0.3c-1,0-1.6,0.4-1.6,1.1l0,0c0,0.7,0.6,1.1,1.4,1.1c1.1,0,1.9-0.6,1.9-1.5
	L306.3,17.2L306.3,17.2z M306.3,20.2v-0.9c-0.6,0.7-1.4,1.1-2.3,1c-1.3,0.2-2.4-0.7-2.6-2c0-0.1,0-0.2,0-0.3l0,0
	c0-1.6,1.3-2.4,2.9-2.4c0.7,0,1.3,0.1,2,0.3v-0.2c0-1-0.6-1.5-1.8-1.5c-0.7,0-1.4,0.2-2.1,0.4l-0.4-1.3c0.9-0.4,1.8-0.6,2.7-0.6
	c1.5-0.2,2.9,0.8,3.2,2.4c0,0.2,0,0.4,0,0.7v4.3L306.3,20.2z"/>
<path class="st3" d="M309.2,19.2l0.7-1.1c0.7,0.5,1.5,0.9,2.4,0.9c0.7,0,1.1-0.3,1.1-0.8l0,0c0-0.6-0.8-0.7-1.6-1
	c-1.1-0.3-2.2-0.7-2.2-2.1l0,0c0-1.3,1.1-2.3,2.4-2.2c0.1,0,0.2,0,0.2,0c0.9,0,1.8,0.3,2.6,0.8l-0.7,1.2c-0.6-0.4-1.3-0.6-2-0.7
	c-0.6,0-1,0.3-1,0.7l0,0c0,0.5,0.8,0.7,1.6,1c1,0.3,2.2,0.8,2.2,2.1l0,0c0,1.5-1.2,2.3-2.6,2.3C311.3,20.3,310.2,19.9,309.2,19.2
	L309.2,19.2z"/>
<path class="st3" d="M167.8,30.1h-0.9v-1.4h0.9v-0.5c-0.1-0.7,0.2-1.3,0.6-1.8c0.4-0.4,1-0.6,1.6-0.6c0.4,0,0.9,0.1,1.3,0.2v1.4
	c-0.3-0.1-0.6-0.2-1-0.2c-0.6,0-1,0.3-1,1.1v0.4h1.9V30h-1.9v5.8h-1.6L167.8,30.1L167.8,30.1z"/>
<path class="st3" d="M177.8,32.4L177.8,32.4c0.1-1.2-0.9-2.3-2.1-2.3h-0.1c-1.2,0-2.2,0.9-2.2,2.1v0.1l0,0c0,1.2,0.9,2.3,2.2,2.3
	l0,0C176.8,34.6,177.8,33.6,177.8,32.4C177.8,32.5,177.8,32.4,177.8,32.4L177.8,32.4z M171.8,32.4L171.8,32.4c0-2.1,1.7-3.8,3.8-3.8
	s3.8,1.7,3.8,3.8l0,0c0,2.1-1.7,3.8-3.8,3.8h-0.1c-2.1,0.1-3.8-1.6-3.8-3.6C171.7,32.5,171.7,32.4,171.8,32.4L171.8,32.4z"/>
<path class="st3" d="M180.8,28.7h1.6v1.6c0.4-1.1,1.4-1.8,2.6-1.8v1.8h0c-1.5,0-2.5,0.9-2.5,2.9v2.7h-1.6L180.8,28.7L180.8,28.7z"/>
<path class="st3" d="M189.3,26.4h1.8l2.9,4.5l2.9-4.5h1.8v9.5H197v-6.8l-3,4.5h-0.1l-3-4.5v6.8h-1.6L189.3,26.4L189.3,26.4z"/>
<path class="st3" d="M205.4,31.8c0-1-0.8-1.9-1.8-1.9s-1.8,0.9-1.9,1.9H205.4z M200,32.4L200,32.4c-0.1-2,1.4-3.6,3.4-3.7h0.1
	c1.9,0,3.5,1.6,3.5,3.5c0,0.1,0,0.3,0,0.4c0,0.2,0,0.3,0,0.5h-5.2c0.1,1.1,1,1.9,2.1,1.8c0.7,0,1.5-0.3,1.9-0.9l1,0.9
	c-0.7,0.9-1.8,1.4-2.9,1.3c-2,0.1-3.6-1.5-3.7-3.5C200.1,32.6,200.1,32.5,200,32.4L200,32.4z"/>
<path class="st3" d="M213.8,32.3L213.8,32.3c0.1-1.2-0.8-2.2-2-2.3h-0.1c-1.2,0-2.1,1-2.1,2.2c0,0.1,0,0.1,0,0.2l0,0
	c-0.1,1.2,0.8,2.2,2,2.3h0.1C212.9,34.6,213.8,33.6,213.8,32.3C213.8,32.4,213.8,32.4,213.8,32.3L213.8,32.3z M208,32.3L208,32.3
	c-0.2-1.9,1.2-3.6,3.1-3.7c0.1,0,0.1,0,0.2,0c1,0,1.9,0.5,2.5,1.3V26h1.6v10h-1.6v-1.2c-0.5,0.8-1.5,1.3-2.5,1.3
	c-1.9-0.1-3.4-1.6-3.4-3.5C207.9,32.4,208,32.4,208,32.3L208,32.3z"/>
<path class="st3" d="M217.2,28.7h1.6v7.2h-1.6V28.7z M217.2,26.1h1.8v1.5h-1.8V26.1L217.2,26.1z"/>
<path class="st3" d="M220.2,32.4L220.2,32.4c0-2.1,1.6-3.7,3.7-3.8h0.1c1.1,0,2.2,0.4,2.9,1.2l-1,1.1c-0.5-0.6-1.1-0.9-1.9-0.9
	c-1.2,0-2.1,1-2.1,2.2c0,0,0,0,0,0.1l0,0c-0.1,1.2,0.9,2.2,2.1,2.3h0.1c0.7,0,1.4-0.3,1.9-0.9l1,1c-1.3,1.6-3.7,1.8-5.3,0.5
	C220.7,34.5,220.2,33.4,220.2,32.4L220.2,32.4z"/>
<path class="st3" d="M232.6,32.9c-0.5-0.2-1.1-0.3-1.6-0.3c-1,0-1.6,0.4-1.6,1.1l0,0c0,0.7,0.6,1.1,1.4,1.1c1.1,0,1.9-0.6,1.9-1.5
	L232.6,32.9L232.6,32.9z M232.6,35.9V35c-0.6,0.7-1.4,1.1-2.3,1c-1.3,0.2-2.4-0.7-2.6-2c0-0.1,0-0.2,0-0.3l0,0
	c0-1.6,1.2-2.4,2.9-2.4c0.7,0,1.3,0.1,2,0.3v-0.1c0-1-0.6-1.5-1.8-1.5c-0.7,0-1.4,0.2-2.1,0.4l-0.4-1.3c0.9-0.4,1.8-0.6,2.7-0.6
	c1.5-0.2,2.9,0.8,3.2,2.4c0,0.2,0,0.5,0,0.7v4.3H232.6z"/>
<path class="st3" d="M235.9,26h1.7v10h-1.7V26L235.9,26z"/>
<path class="st3" d="M241.9,34.5l1-1.2c0.8,0.8,1.9,1.2,3,1.2c1,0,1.7-0.5,1.7-1.2l0,0c0-0.7-0.4-1-2.2-1.5c-2-0.5-3.2-1.1-3.2-2.9
	l0,0c0.1-1.6,1.4-2.9,3-2.8c0.1,0,0.1,0,0.2,0c1.3,0,2.5,0.4,3.5,1.2l-0.9,1.3c-0.7-0.6-1.7-1-2.6-1c-1,0-1.6,0.5-1.6,1.1l0,0
	c0,0.7,0.4,1.1,2.3,1.5c1.8,0.4,3.1,1.2,3.1,2.8l0,0c0,1.8-1.4,2.9-3.4,2.9C244.4,36.1,243,35.6,241.9,34.5L241.9,34.5z"/>
<path class="st3" d="M250.4,32.4L250.4,32.4c0-2.1,1.6-3.7,3.7-3.8h0.1c1.1,0,2.2,0.4,2.9,1.2l-1,1.1c-0.5-0.6-1.1-0.9-1.9-0.9
	c-1.2,0-2.1,1-2.1,2.2c0,0,0,0,0,0.1l0,0c-0.1,1.2,0.9,2.2,2.1,2.3h0.1c0.7,0,1.4-0.3,1.9-0.9l1,1c-1.3,1.6-3.7,1.8-5.3,0.5
	C250.9,34.5,250.4,33.4,250.4,32.4L250.4,32.4z"/>
<path class="st3" d="M258.2,28.7h1.6v7.2h-1.6V28.7z M258.1,26.1h1.8v1.5h-1.8V26.1L258.1,26.1z"/>
<path class="st3" d="M266.6,31.8c0-1-0.8-1.9-1.8-1.9s-1.8,0.9-1.9,1.9H266.6z M261.2,32.4L261.2,32.4c-0.1-2,1.4-3.6,3.4-3.7h0.1
	c1.9,0,3.5,1.6,3.5,3.5c0,0.1,0,0.3,0,0.4c0,0.2,0,0.3,0,0.5H263c0.1,1.1,1,1.9,2.1,1.8c0.7,0,1.5-0.3,1.9-0.9l1,0.9
	c-0.7,0.9-1.8,1.4-2.9,1.3c-2,0.1-3.6-1.5-3.7-3.5C261.3,32.6,261.3,32.5,261.2,32.4L261.2,32.4z"/>
<path class="st3" d="M269.5,28.7h1.6v1.1c0.5-0.8,1.3-1.3,2.2-1.3c1.4-0.1,2.5,0.9,2.6,2.3c0,0.2,0,0.3,0,0.5v4.6h-1.6v-4.1
	c0-1.1-0.6-1.8-1.5-1.8s-1.6,0.7-1.6,1.6c0,0.1,0,0.1,0,0.2v4.1h-1.6L269.5,28.7L269.5,28.7z"/>
<path class="st3" d="M277.3,32.4L277.3,32.4c0-2.1,1.6-3.7,3.6-3.8h0.1c1.1,0,2.2,0.4,2.9,1.2l-1,1.1c-0.5-0.6-1.1-0.9-1.9-0.9
	c-1.2,0-2.1,1-2.1,2.2c0,0,0,0,0,0.1l0,0c-0.1,1.2,0.9,2.2,2.1,2.3h0.1c0.7,0,1.4-0.3,1.9-0.9l1,1c-0.7,0.9-1.8,1.4-2.9,1.3
	C279,36,277.3,34.4,277.3,32.4C277.3,32.3,277.3,32.3,277.3,32.4L277.3,32.4z"/>
<path class="st3" d="M289.9,31.8c0-1-0.8-1.9-1.8-1.9s-1.8,0.9-1.9,1.9H289.9z M284.5,32.4L284.5,32.4c-0.1-2,1.4-3.6,3.4-3.7h0.1
	c1.9,0,3.5,1.6,3.5,3.5c0,0.1,0,0.3,0,0.4c0,0.2,0,0.3,0,0.5h-5.2c0.1,1.1,1,1.9,2.1,1.8c0.7,0,1.5-0.3,1.9-0.9l1,0.9
	c-0.7,0.9-1.8,1.4-2.9,1.3c-2,0.1-3.6-1.5-3.7-3.5C284.6,32.6,284.6,32.5,284.5,32.4L284.5,32.4z"/>
<path class="st3" d="M292.2,35l0.7-1.1c0.7,0.5,1.5,0.9,2.4,0.9c0.7,0,1.1-0.3,1.1-0.8l0,0c0-0.6-0.8-0.7-1.6-1
	c-1.1-0.3-2.2-0.7-2.2-2.1l0,0c0-1.3,1.1-2.3,2.4-2.2c0.1,0,0.2,0,0.2,0c0.9,0,1.8,0.3,2.6,0.8l-0.7,1.2c-0.6-0.4-1.3-0.6-2-0.7
	c-0.6,0-1,0.3-1,0.7l0,0c0,0.5,0.8,0.7,1.6,1c1,0.3,2.2,0.8,2.2,2.1l0,0c0,1.5-1.2,2.3-2.6,2.3C294.3,36,293.2,35.7,292.2,35
	L292.2,35z"/>
<path class="st3" d="M146.7,39.4h-0.6v-0.7h0.6c0.3,0,0.5,0.1,0.5,0.4S147,39.4,146.7,39.4L146.7,39.4z M147.9,39
	c0-0.6-0.5-0.9-1.1-0.9h-1.3v2.7h0.7V40h0.4l0.6,0.9h0.8l-0.7-1C147.6,39.7,147.8,39.4,147.9,39L147.9,39z"/>
<path class="st3" d="M148.9,39.5L148.9,39.5c0.1,1.3-0.9,2.4-2.1,2.5c-1.3,0.1-2.4-0.9-2.5-2.1c0-0.1,0-0.2,0-0.3l0,0
	c-0.1-1.3,0.9-2.4,2.1-2.5c1.3-0.1,2.4,0.9,2.5,2.1C148.9,39.2,148.9,39.4,148.9,39.5z M146.6,36.8c-1.5,0-2.8,1.2-2.8,2.8
	c0,1.5,1.2,2.8,2.8,2.8c1.5,0,2.8-1.2,2.8-2.8C149.3,38,148.1,36.8,146.6,36.8L146.6,36.8z"/>
</svg>
