<?xml version="1.0" encoding="utf-8"?>
<!-- Generator: Adobe Illustrator 20.1.0, SVG Export Plug-In . SVG Version: 6.00 Build 0)  -->
<svg version="1.1" id="Layer_1" xmlns="http://www.w3.org/2000/svg" xmlns:xlink="http://www.w3.org/1999/xlink" x="0px" y="0px"
	 width="863.5px" height="700.2px" viewBox="0 0 863.5 700.2" style="enable-background:new 0 0 863.5 700.2;" xml:space="preserve"
	>
<style type="text/css">
	.st0{fill:#9D2235;}
	.st1{fill:#BDBDBD;}
	.st2{fill:#D2D3D4;}
	.st3{fill:#919396;}
	.st4{fill:#FFFFFF;}
	.st5{fill:#FED800;}
	.st6{fill:#231F20;}
	.st7{fill:#5A5B5D;}
	.st8{fill:#CD332D;}
	.st9{fill:#CC3732;}
	.st10{fill:#00B386;}
	.st11{fill:#32669A;}
	.st12{fill:#CA2128;}
	.st13{fill:#3B5999;}
	.st14{fill:#017BB6;}
	.st15{fill:#2AA8E0;}
	.st16{fill:#32506D;}
	.st17{fill:#616161;}
	.st18{fill:#616264;}
	.st19{fill:#8C8C8C;}
	.st20{fill:none;stroke:#E6E7E8;stroke-width:0.5;stroke-miterlimit:10;}
	.st21{display:none;fill:#424242;}
	.st22{fill:#666666;}
	.st23{fill:none;stroke:#BDBDBD;stroke-width:3.75;stroke-miterlimit:10;}
	.st24{fill:none;stroke:#9D2235;stroke-width:3.75;stroke-miterlimit:10;}
	.st25{fill:#424242;}
</style>
<path class="st0" d="M463.1,2.7L462.4,2l-3.7,3.6L455,2l-0.7,0.7l4.4,4.3l0,0L463.1,2.7z"/>
<path class="st0" d="M456.9,54.8l-0.7,0.7l3.6,3.7l-3.6,3.7l0.7,0.7l4.3-4.4l0,0L456.9,54.8z"/>
<path d="M463.1,21.8l-0.7-0.7l-3.7,3.6l-3.7-3.6l-0.7,0.7l4.4,4.3l0,0L463.1,21.8z"/>
<path class="st1" d="M463.1,38.4l-0.7-0.7l-3.7,3.6l-3.7-3.6l-0.7,0.7l4.4,4.3l0,0L463.1,38.4z"/>
<path class="st2" d="M691.5,5.1l-8.4,17.6h1.1l8.4-17.6L691.5,5.1z"/>
<path class="st3" d="M718.6,3.6L709.4,36h0.6l9.1-32.4L718.6,3.6z"/>
<path class="st4" d="M764.5,0l-30,111.1h1.1L765.6,0H764.5z"/>
<path class="st4" d="M643.1,13.4c0-7.4,6-13.4,13.4-13.4s13.4,6,13.4,13.4s-6,13.4-13.4,13.4S643.1,20.8,643.1,13.4z M646.1,13.4
	c0,5.7,4.7,10.4,10.4,10.4s10.4-4.7,10.4-10.4S662.3,3,656.5,3C650.8,3,646.1,7.7,646.1,13.4L646.1,13.4L646.1,13.4z"/>
<rect x="636.1" y="25.1" transform="matrix(0.7077 -0.7065 0.7065 0.7077 168.9752 461.9947)" class="st4" width="13.5" height="3.4"/>
<path d="M398.9,21.1c-5.8,0-10.6-4.7-10.6-10.5S393,0,398.8,0s10.6,4.7,10.6,10.5l0,0C409.5,16.4,404.8,21.1,398.9,21.1z M398.9,1.9
	c-4.8,0-8.6,3.9-8.6,8.6s3.9,8.6,8.6,8.6c4.8,0,8.6-3.9,8.6-8.6C407.6,5.8,403.7,1.9,398.9,1.9z"/>
<rect x="395.1" y="9.6" width="7.7" height="1.9"/>
<rect x="398" y="6.7" width="1.9" height="7.7"/>
<path class="st4" d="M123.5,580.3c-7.8,0-14.1-6.3-14.1-14.1s6.3-14.1,14.1-14.1s14.1,6.3,14.1,14.1l0,0
	C137.6,574,131.3,580.3,123.5,580.3z M123.5,554.7c-6.4,0-11.6,5.1-11.6,11.5s5.1,11.6,11.5,11.6s11.6-5.1,11.6-11.5l0,0
	C135,559.8,129.8,554.7,123.5,554.7L123.5,554.7z"/>
<rect x="118.3" y="564.9" class="st4" width="10.3" height="2.6"/>
<rect x="122.2" y="561.1" class="st4" width="2.6" height="10.3"/>
<path class="st4" d="M398.9,99.8c-5.8,0-10.6-4.7-10.6-10.5s4.7-10.6,10.5-10.6s10.6,4.7,10.6,10.5l0,0
	C409.5,95,404.8,99.8,398.9,99.8z M398.9,80.6c-4.8,0-8.6,3.9-8.6,8.6s3.9,8.6,8.6,8.6c4.8,0,8.6-3.9,8.6-8.6
	C407.6,84.5,403.7,80.6,398.9,80.6z"/>
<rect x="395.1" y="88.3" class="st4" width="7.7" height="1.9"/>
<rect x="398" y="85.4" class="st4" width="1.9" height="7.7"/>
<rect x="510" y="116.8" class="st5" width="3.6" height="16.4"/>
<path class="st6" d="M391.5,43.2c-4.1-4.1-4.1-10.8,0-14.9s10.8-4.1,14.9,0s4.1,10.8,0,14.9l0,0C402.3,47.3,395.6,47.3,391.5,43.2z
	 M405,29.7c-3.4-3.4-8.8-3.4-12.2,0c-3.4,3.4-3.4,8.8,0,12.2s8.8,3.4,12.2,0l0,0C408.4,38.5,408.4,33,405,29.7z"/>
<rect x="395.1" y="34.8" class="st6" width="7.7" height="1.9"/>
<path class="st4" d="M391.5,124.1c-4.1-4.1-4.1-10.8,0-14.9c4.1-4.1,10.8-4.1,14.9,0c4.1,4.1,4.1,10.8,0,14.9l0,0
	C402.3,128.1,395.6,128.1,391.5,124.1z M405,110.6c-3.4-3.4-8.8-3.4-12.2,0c-3.4,3.4-3.4,8.8,0,12.2c3.4,3.4,8.8,3.4,12.2,0l0,0
	C408.4,119.3,408.4,113.8,405,110.6z"/>
<rect x="395.1" y="115.7" class="st4" width="7.7" height="1.9"/>
<path class="st5" d="M391.5,69.4c-4.1-4.1-4.1-10.8,0-14.9s10.8-4.1,14.9,0s4.1,10.8,0,14.9l0,0C402.3,73.5,395.6,73.5,391.5,69.4z
	 M405,55.8c-3.4-3.4-8.8-3.4-12.2,0s-3.4,8.8,0,12.2s8.8,3.4,12.2,0l0,0C408.4,64.6,408.4,59.2,405,55.8L405,55.8z"/>
<rect x="395.1" y="61" class="st5" width="7.7" height="1.9"/>
<path class="st0" d="M425.8,21.1c-5.8,0-10.6-4.7-10.6-10.5S419.9,0,425.7,0s10.6,4.7,10.6,10.5l0,0
	C436.3,16.4,431.6,21.1,425.8,21.1L425.8,21.1z M425.8,1.9c-4.8,0-8.6,3.9-8.6,8.6s3.9,8.6,8.6,8.6c4.8,0,8.6-3.9,8.6-8.6
	S430.5,1.9,425.8,1.9z"/>
<rect x="421.9" y="9.6" class="st0" width="7.7" height="1.9"/>
<rect x="424.8" y="6.7" class="st0" width="1.9" height="7.7"/>
<path class="st0" d="M418.3,43.2c-4.1-4.1-4.1-10.8,0-14.9s10.8-4.1,14.9,0s4.1,10.8,0,14.9l0,0C429.1,47.3,422.4,47.3,418.3,43.2z
	 M431.9,29.7c-3.4-3.4-8.8-3.4-12.2,0c-3.4,3.4-3.4,8.8,0,12.2s8.8,3.4,12.2,0l0,0C435.2,38.5,435.2,33,431.9,29.7z"/>
<rect x="421.9" y="34.8" class="st0" width="7.7" height="1.9"/>
<rect x="14.6" y="492.6" transform="matrix(0.707 -0.7072 0.7072 0.707 -348.0374 157.7504)" class="st0" width="3.6" height="12.6"/>
<rect x="10.2" y="503.5" transform="matrix(0.7071 -0.7071 0.7071 0.7071 -352.4712 159.6565)" class="st0" width="12.6" height="3.6"/>
<path class="st0" d="M4.4,576c-5.9-5.9-5.9-15.5,0-21.4s15.5-5.9,21.4,0s5.9,15.5,0,21.4S10.3,581.9,4.4,576z M23.9,556.5
	c-4.8-4.8-12.7-4.8-17.5,0s-4.8,12.7,0,17.5s12.7,4.8,17.5,0S28.7,561.4,23.9,556.5L23.9,556.5z"/>
<path class="st0" d="M5.5,643.6c-6.1-6.1-6.1-15.9,0-22s15.9-6.1,22,0s6.1,15.9,0,22l0,0C21.4,649.6,11.6,649.6,5.5,643.6z
	 M25.5,623.6c-5-5-13-5-18,0s-5,13,0,18s13,5,18,0l0,0C30.5,636.6,30.5,628.6,25.5,623.6z"/>
<rect x="16.5" y="625.2" transform="matrix(0.707 -0.7072 0.7072 0.707 -440.3591 197.254)" class="st0" width="2.8" height="9.8"/>
<rect x="12.9" y="633.7" transform="matrix(0.7067 -0.7075 0.7075 0.7067 -444.0825 198.8901)" class="st0" width="9.9" height="2.8"/>
<path class="st4" d="M53.9,643.6c-6.1-6.1-6.1-15.9,0-22s15.9-6.1,22,0s6.1,15.9,0,22l0,0C69.8,649.6,59.9,649.6,53.9,643.6z
	 M73.9,623.6c-5-5-13-5-18,0s-5,13,0,18s13,5,18,0l0,0C78.8,636.6,78.8,628.6,73.9,623.6z"/>
<rect x="64.8" y="625.1" transform="matrix(0.7072 -0.707 0.707 0.7072 -426.045 231.2832)" class="st4" width="2.8" height="9.9"/>
<rect x="61.3" y="633.6" transform="matrix(0.7067 -0.7075 0.7075 0.7067 -429.8514 233.0625)" class="st4" width="9.8" height="2.8"/>
<path class="st7" d="M363.5,23.3V19h4.1v4.2h4.2v-5.4l-6.2-5.7l-6.3,5.7v5.4L363.5,23.3z"/>
<path class="st7" d="M372.7,17.2l-7.1-6.5l-7.1,6.5l-1.4-1.6l8.5-7.8l8.5,7.8L372.7,17.2z"/>
<rect x="138.3" y="236.5" class="st8" width="25.5" height="25.5"/>
<path class="st4" d="M149.3,239h-1.2l-0.8,3l-0.8-3h-1.2l0.7,2.1c0.3,0.8,0.5,1.6,0.7,2.4v3.1h1.1v-3.1L149.3,239z M152.4,244.8v-2
	c0-0.5-0.1-0.9-0.3-1.4c-0.5-0.7-1.5-0.8-2.2-0.3c-0.1,0.1-0.2,0.2-0.3,0.3c-0.2,0.4-0.4,0.9-0.3,1.4v2c0,0.5,0.1,0.9,0.3,1.4
	c0.5,0.7,1.5,0.8,2.2,0.3c0.1-0.1,0.2-0.2,0.3-0.3C152.3,245.8,152.4,245.3,152.4,244.8L152.4,244.8z M151.4,245
	c0,0.5-0.2,0.8-0.5,0.8s-0.5-0.3-0.5-0.8v-2.4c0-0.5,0.2-0.8,0.5-0.8s0.5,0.3,0.5,0.8V245L151.4,245z M156.2,246.7V241h-1v4.4
	c-0.2,0.3-0.4,0.5-0.6,0.5s-0.2-0.1-0.2-0.2c0-0.1,0-0.3,0-0.4V241h-1v4.5c0,0.3,0,0.6,0.1,0.9c0.1,0.3,0.4,0.5,0.7,0.4
	c0.5-0.1,0.9-0.3,1.2-0.7v0.6H156.2L156.2,246.7z"/>
<path class="st4" d="M159.6,253.6c0,1.3-0.1,2.7-0.3,4c-0.2,0.9-0.9,1.6-1.8,1.7c-2.1,0.2-4.2,0.3-6.4,0.2c-2.1,0-4.2,0-6.4-0.2
	c-0.9-0.1-1.6-0.8-1.8-1.7c-0.4-2.7-0.4-5.3,0-8c0.2-0.9,0.9-1.6,1.8-1.7c2.1-0.2,4.2-0.3,6.4-0.2c2.1,0,4.2,0,6.4,0.2
	c0.9,0.1,1.6,0.8,1.8,1.7C159.5,251,159.6,252.3,159.6,253.6L159.6,253.6z"/>
<path class="st8" d="M147.4,250.8v-1.1h-3.6v1.1h1.2v6.5h1.1v-6.5L147.4,250.8L147.4,250.8z M149.5,257.3v-0.6
	c-0.3,0.4-0.7,0.6-1.2,0.7c-0.3,0-0.6-0.1-0.7-0.4c-0.1-0.3-0.1-0.6-0.1-0.8v-4.5h1v4.2c0,0.1,0,0.3,0,0.4c0,0.2,0.1,0.2,0.2,0.2
	s0.4-0.2,0.6-0.5v-4.3h1v5.7h-0.8V257.3z M153.4,255.7c0,0.5-0.1,0.8-0.4,0.8c-0.2,0-0.4-0.1-0.5-0.2v-3.4c0.1-0.1,0.3-0.2,0.5-0.2
	c0.3,0,0.4,0.3,0.4,0.8V255.7L153.4,255.7z M154.4,255.6v-2.2c0-0.4,0-0.8-0.1-1.1c-0.1-0.4-0.4-0.7-0.8-0.6c-0.4,0-0.8,0.3-1.1,0.6
	v-2.5h-1v7.6h1v-0.5c0.2,0.4,0.6,0.6,1.1,0.6c0.4,0,0.7-0.3,0.8-0.6C154.4,256.4,154.4,256,154.4,255.6L154.4,255.6z M157.2,253.8
	h-1v-0.5c0-0.5,0.2-0.8,0.5-0.8s0.5,0.3,0.5,0.8V253.8L157.2,253.8z M158.2,255.5v-0.1h-1c0,0.2,0,0.5,0,0.7s-0.2,0.4-0.5,0.4
	c-0.4,0-0.5-0.3-0.5-0.8v-1h2.1v-1.2c0-0.5-0.1-0.9-0.3-1.3c-0.3-0.4-0.7-0.6-1.2-0.6s-0.9,0.2-1.2,0.6c-0.2,0.4-0.4,0.9-0.3,1.3v2
	c0,0.5,0.1,0.9,0.3,1.3c0.3,0.4,0.8,0.6,1.2,0.6c0.5,0,1-0.2,1.2-0.6c0.1-0.2,0.2-0.4,0.2-0.6C158.3,256.1,158.3,255.9,158.2,255.5
	L158.2,255.5z"/>
<rect x="276.7" y="236.5" class="st9" width="25.5" height="25.5"/>
<path class="st4" d="M289,240.5c0.2,0.1,0.4,0.3,0.5,0.4c0.2,0.2,0.4,0.5,0.6,0.7c0.2,0.3,0.4,0.6,0.5,1s0.2,0.9,0.2,1.3
	c0,0.8-0.2,1.5-0.6,2.2c-0.2,0.3-0.4,0.5-0.6,0.7s-0.5,0.5-0.8,0.7c-0.2,0.2-0.3,0.3-0.4,0.5c-0.2,0.2-0.2,0.5-0.2,0.7
	s0.1,0.5,0.2,0.7c0.1,0.1,0.2,0.3,0.4,0.4l0.9,0.7c0.5,0.4,1,0.9,1.4,1.4c0.4,0.6,0.6,1.4,0.6,2.1c0,1.3-0.6,2.5-1.6,3.3
	c-1.4,1.1-3.1,1.6-4.9,1.5c-1.4,0.1-2.8-0.3-4-1.1c-0.8-0.6-1.3-1.5-1.3-2.5c0-0.5,0.2-1.1,0.4-1.6c0.3-0.6,0.9-1.2,1.5-1.5
	c0.8-0.5,1.7-0.8,2.6-0.9c0.7-0.1,1.5-0.2,2.2-0.2c-0.2-0.2-0.3-0.5-0.5-0.8s-0.3-0.6-0.2-1c0-0.2,0-0.4,0.1-0.6l0.1-0.4
	c-0.3,0-0.5,0-0.8,0c-1.2,0.1-2.3-0.4-3.1-1.3c-0.7-0.7-1.1-1.7-1.1-2.7c0-1.3,0.6-2.5,1.6-3.4c0.6-0.6,1.4-1,2.2-1.2
	c0.7-0.2,1.4-0.2,2.2-0.2h5.1l-1.6,0.9L289,240.5L289,240.5L289,240.5z M290,255.2c0-0.6-0.2-1.2-0.6-1.7c-0.6-0.6-1.3-1.2-2.1-1.7
	c-0.2,0-0.4,0-0.6,0c-0.3,0-0.7,0-1,0c-0.5,0.1-1.1,0.2-1.6,0.4l-0.5,0.2c-0.3,0.1-0.5,0.3-0.7,0.5s-0.4,0.5-0.6,0.8
	c-0.2,0.4-0.3,0.8-0.3,1.2c0,0.9,0.5,1.7,1.2,2.2c0.9,0.6,2,0.9,3.2,0.9c1,0,1.9-0.2,2.7-0.8C289.7,256.6,290.1,255.9,290,255.2
	L290,255.2z M286.5,247.7c0.6,0,1.2-0.3,1.7-0.7c0.2-0.3,0.4-0.6,0.4-1c0-0.3,0.1-0.6,0.1-0.9c0-1-0.3-2.1-0.8-3
	c-0.2-0.5-0.6-0.9-1-1.2s-0.9-0.4-1.4-0.5c-0.7,0-1.3,0.3-1.7,0.8c-0.4,0.6-0.6,1.2-0.5,1.9c0,1,0.3,2,0.8,2.9
	c0.3,0.5,0.6,0.9,1,1.2C285.4,247.6,285.9,247.7,286.5,247.7L286.5,247.7z"/>
<path class="st4" d="M299.1,242.4h-2.7v-2.7h-1.3v2.7h-2.7v1.3h2.7v2.7h1.3v-2.7h2.7V242.4z"/>
<rect x="230.6" y="236.6" class="st10" width="25.4" height="25.4"/>
<path class="st4" d="M246,244.8c0-1.2,2.3-1.8,2.3,0.2c0,1-0.1,2-0.4,3h2.4c0.2-1.2,0.2-2.3,0.2-3.5c0-3.7-6.8-4.3-6.8,0.4
	c-0.2,2.4,1.1,4.7,3.1,5.9c-0.8,1.5-1.8,2.9-3.1,4.1c-5.1-4.1-4.6-11.1-4.6-11.1H237c0,9.4,5,12.7,5.6,13.2c0.4,0.4,0.9,0.5,1.5,0.4
	c0.7,0,2.4-1.7,4.4-4.9c0.2-0.3,0.4-0.6,0.5-0.9c0.5,0.1,1,0.2,1.5,0.2v-2C247.9,249.6,245.9,247.4,246,244.8L246,244.8L246,244.8z"
	/>
<rect x="322.8" y="236.5" class="st11" width="25.5" height="25.5"/>
<path class="st6" d="M322.8,262L322.8,262h25.5v-25.5h-25.6L322.8,262L322.8,262L322.8,262L322.8,262v-25.4h25.5V262H322.8
	L322.8,262L322.8,262L322.8,262z"/>
<path class="st4" d="M329.3,240.9h12.5c1.2,0,2.2,0.9,2.2,2.1l0,0v12.5c0,1.2-1,2.2-2.1,2.2h-12.5c-1.2,0-2.2-1-2.2-2.2l0,0V243
	C327.2,241.8,328.1,240.8,329.3,240.9L329.3,240.9z M339.4,242.8c-0.4,0-0.8,0.3-0.8,0.8l0,0v1.8c0,0.4,0.3,0.8,0.8,0.8l0,0h1.9
	c0.4,0,0.8-0.3,0.8-0.8v-1.8c0-0.4-0.3-0.8-0.8-0.8H339.4z M342.1,248h-1.5c0.2,0.5,0.2,1,0.2,1.4c-0.1,2.9-2.6,5.1-5.5,5
	c-2.7-0.1-4.9-2.3-5-5c0-0.5,0.1-1,0.2-1.4H329v7.1c0,0.4,0.3,0.7,0.7,0.7l0,0h11.7c0.4,0,0.7-0.3,0.7-0.7l0,0L342.1,248L342.1,248
	L342.1,248z M335.6,246c-1.8,0.1-3.2,1.6-3.2,3.4s1.6,3.2,3.4,3.2c1.8-0.1,3.2-1.5,3.2-3.3C338.9,247.4,337.4,246,335.6,246z"/>
<rect x="92.2" y="236.5" class="st12" width="25.5" height="25.5"/>
<path class="st4" d="M104.9,240.1c-5.1,0-9.2,4.1-9.2,9.2c0,3.7,2.2,7,5.5,8.4c0-0.7,0-1.4,0.2-2.1l1.2-5c-0.2-0.5-0.3-1-0.3-1.5
	c0-1.4,0.8-2.4,1.8-2.4c0.7,0,1.2,0.5,1.3,1.2c0,0.1,0,0.1,0,0.2c-0.2,1.1-0.5,2.2-0.8,3.3c-0.2,0.8,0.3,1.5,1,1.7
	c0.1,0,0.3,0,0.4,0c1.8,0,2.9-2.2,2.9-4.9c0-2-1.4-3.5-3.8-3.5c-2.4-0.1-4.4,1.8-4.5,4.2c0,0.1,0,0.1,0,0.2c0,0.7,0.2,1.3,0.6,1.8
	c0.2,0.1,0.2,0.3,0.1,0.5l-0.2,0.7c0,0.2-0.2,0.3-0.4,0.3h-0.1c-1.3-0.7-2-2.1-1.9-3.5c0-2.6,2.2-5.8,6.6-5.8c3-0.2,5.7,2.1,5.8,5.2
	v0.1c0,3.6-2,6.3-5,6.3c-0.9,0-1.7-0.4-2.2-1.1c0,0-0.5,2.1-0.7,2.5c-0.2,0.7-0.5,1.4-0.9,2c4.9,1.2,10-1.8,11.2-6.7
	c1.2-4.9-1.8-10-6.7-11.2C106.2,240.1,105.6,240,104.9,240.1L104.9,240.1z"/>
<rect y="236.6" class="st13" width="25.4" height="25.4"/>
<path class="st4" d="M22.1,251.8l0.5-3.9h-3.9v-2.5c0-1.1,0.3-1.9,1.9-1.9h2.1V240c-1-0.1-2-0.2-3-0.1c-3,0-5,1.8-5,5.1v2.9h-3.4
	v3.9h3.4v10h4v-10L22.1,251.8z"/>
<rect x="184.4" y="236.5" class="st14" width="25.5" height="25.5"/>
<path class="st4" d="M188.8,246.4h3.6V258h-3.6V246.4z M190.6,240.6c1.1,0,2.1,0.9,2.1,2.1c0,1.1-0.9,2.1-2.1,2.1
	c-1.1,0-2.1-0.9-2.1-2.1S189.5,240.6,190.6,240.6"/>
<path class="st4" d="M194.7,246.4h3.4v1.6l0,0c0.7-1.2,2-1.9,3.4-1.9c3.6,0,4.3,2.4,4.3,5.5v6.3h-3.6v-5.6c0-1.3,0-3.1-1.9-3.1
	s-2.2,1.5-2.2,3v5.7h-3.6L194.7,246.4L194.7,246.4z"/>
<rect x="46.1" y="236.5" class="st15" width="25.5" height="25.5"/>
<path class="st4" d="M67.3,244c-0.6,0.3-1.3,0.5-2,0.6c0.7-0.4,1.3-1.1,1.5-1.9c-0.7,0.4-1.4,0.7-2.2,0.9c-1.3-1.4-3.5-1.6-4.9-0.3
	c-1,0.9-1.4,2.2-1.1,3.5c-2.8-0.2-5.4-1.5-7.2-3.7c-0.9,1.6-0.5,3.6,1.1,4.7c-0.6,0-1.1-0.2-1.6-0.4l0,0c0,1.7,1.2,3.1,2.8,3.4
	c-0.5,0.1-1.1,0.2-1.6,0.1c0.5,1.4,1.8,2.4,3.3,2.4c-1.2,1-2.8,1.5-4.3,1.5c-0.3,0-0.6,0-0.8-0.1c4.6,3,10.8,1.6,13.7-3
	c1-1.6,1.6-3.5,1.6-5.3c0-0.1,0-0.3,0-0.4C66.3,245.3,66.9,244.7,67.3,244z"/>
<path class="st4" d="M151.4,206c0.3,0,0.5-0.3,0.5-0.8v-2.4c0-0.5-0.2-0.8-0.5-0.8s-0.5,0.3-0.5,0.8v2.4
	C150.9,205.7,151.1,206,151.4,206z"/>
<path class="st4" d="M138.9,222.2h25.5v-25.5h-25.5V222.2L138.9,222.2z M153.8,201.2h1v4.2c0,0.1,0,0.3,0,0.4c0,0.2,0.1,0.2,0.2,0.2
	s0.4-0.2,0.6-0.5v-4.4h1v5.7h-1v-0.6c-0.3,0.4-0.7,0.6-1.2,0.7c-0.3,0-0.6-0.1-0.7-0.4c-0.1-0.3-0.1-0.6-0.1-0.9L153.8,201.2
	L153.8,201.2L153.8,201.2z M149.9,203c0-0.5,0.1-0.9,0.3-1.4c0.5-0.7,1.5-0.8,2.2-0.3c0.1,0.1,0.2,0.2,0.3,0.3
	c0.2,0.4,0.4,0.9,0.3,1.4v2c0,0.5-0.1,0.9-0.3,1.4c-0.5,0.7-1.5,0.8-2.2,0.3c-0.1-0.1-0.2-0.2-0.3-0.3c-0.2-0.4-0.4-0.9-0.3-1.4V203
	z M147.1,199.2l0.8,3l0.8-3h1.2l-1.4,4.6v3.1h-1.1v-3.1c-0.2-0.8-0.4-1.6-0.7-2.4l-0.7-2.1L147.1,199.2L147.1,199.2z M143.4,209.8
	c0.2-0.9,0.9-1.6,1.8-1.7c2.1-0.2,4.2-0.3,6.4-0.2c2.1,0,4.2,0,6.4,0.2c0.9,0.1,1.6,0.8,1.8,1.7c0.4,2.7,0.4,5.3,0,8
	c-0.2,0.9-0.9,1.6-1.8,1.7c-2.1,0.2-4.2,0.3-6.4,0.2c-2.1,0-4.2,0-6.4-0.2c-0.9-0.1-1.6-0.8-1.8-1.7c-0.2-1.3-0.3-2.7-0.3-4
	C143.1,212.4,143.2,211.1,143.4,209.8L143.4,209.8z"/>
<path class="st4" d="M148.9,217.6c0.5-0.1,0.9-0.3,1.2-0.7v0.6h1v-5.7h-1v4.3c-0.2,0.3-0.4,0.5-0.6,0.5s-0.2-0.1-0.2-0.2
	c0-0.1,0-0.3,0-0.4v-4.2h-1v4.5c0,0.3,0,0.6,0.1,0.8C148.3,217.4,148.6,217.6,148.9,217.6L148.9,217.6z"/>
<path class="st4" d="M153,216.9c0.2,0.4,0.6,0.6,1.1,0.6c0.4,0,0.7-0.3,0.8-0.6c0.1-0.4,0.1-0.8,0.1-1.1v-2.3c0-0.4,0-0.8-0.1-1.1
	c-0.1-0.4-0.4-0.7-0.8-0.6c-0.4,0-0.8,0.3-1.1,0.6v-2.5h-1v7.6h1V216.9L153,216.9z M153,212.9c0.1-0.1,0.3-0.2,0.5-0.2
	c0.3,0,0.4,0.3,0.4,0.8v2.4c0,0.5-0.1,0.8-0.4,0.8c-0.2,0-0.4-0.1-0.5-0.2V212.9z"/>
<path class="st4" d="M145.6,217.5h1.1V211h1.3v-1.1h-3.6v1.1h1.2V217.5z"/>
<path class="st4" d="M157.3,217.6c0.5,0,1-0.2,1.2-0.6c0.1-0.2,0.2-0.4,0.2-0.6c0-0.1,0-0.3,0-0.7v-0.1h-1c0,0.2,0,0.5,0,0.7
	s-0.2,0.4-0.5,0.4c-0.4,0-0.5-0.3-0.5-0.8v-1h2.1v-1.2c0-0.5-0.1-0.9-0.3-1.3c-0.3-0.4-0.7-0.6-1.2-0.6s-0.9,0.2-1.2,0.6
	c-0.2,0.4-0.4,0.9-0.3,1.3v2c0,0.5,0.1,0.9,0.3,1.3C156.4,217.4,156.9,217.6,157.3,217.6L157.3,217.6z M156.8,213.5
	c0-0.5,0.2-0.8,0.5-0.8s0.5,0.3,0.5,0.8v0.5h-1V213.5L156.8,213.5z"/>
<path class="st4" d="M289.1,206.2c0-0.3,0.1-0.6,0.1-0.9c0-1-0.3-2.1-0.8-3c-0.2-0.5-0.6-0.9-1-1.2s-0.9-0.5-1.4-0.5
	c-0.7,0-1.3,0.3-1.7,0.8c-0.4,0.6-0.6,1.2-0.5,1.9c0,1,0.3,2,0.8,2.9c0.3,0.5,0.6,0.9,1,1.2s0.9,0.5,1.4,0.5c0.6,0,1.2-0.3,1.7-0.7
	C288.8,206.9,289,206.6,289.1,206.2L289.1,206.2z"/>
<path class="st4" d="M283.7,217.2c0.9,0.6,2,0.9,3.2,0.9c1,0.1,1.9-0.2,2.7-0.8c0.6-0.5,0.9-1.2,0.9-1.9c0-0.6-0.2-1.2-0.6-1.7
	c-0.6-0.6-1.3-1.2-2.1-1.7c-0.2,0-0.4,0-0.6,0c-0.3,0-0.7,0-1,0.1c-0.5,0.1-1.1,0.2-1.6,0.4l-0.5,0.2c-0.3,0.1-0.5,0.3-0.7,0.5
	s-0.4,0.5-0.6,0.8c-0.2,0.4-0.3,0.8-0.3,1.2C282.5,215.9,283,216.7,283.7,217.2L283.7,217.2z"/>
<path class="st4" d="M277.2,222.2h25.5v-25.5h-25.5V222.2L277.2,222.2z M293,202.6h2.7v-2.7h1.3v2.7h2.7v1.3H297v2.7h-1.3v-2.7H293
	V202.6z M280.8,214c0.3-0.6,0.9-1.2,1.5-1.5c0.8-0.5,1.7-0.8,2.6-0.9c0.7-0.1,1.5-0.2,2.2-0.2c-0.2-0.2-0.3-0.5-0.5-0.8
	s-0.3-0.6-0.2-1c0-0.2,0-0.4,0.1-0.6l0.2-0.4c-0.3,0-0.5,0-0.8,0c-1.2,0.1-2.3-0.4-3.1-1.3c-0.7-0.7-1.1-1.7-1.1-2.7
	c0-1.3,0.6-2.5,1.6-3.4c0.6-0.6,1.4-1,2.2-1.2c0.7-0.2,1.4-0.2,2.2-0.2h5.1l-1.6,0.9h-1.6c0.2,0.1,0.4,0.3,0.5,0.4
	c0.2,0.2,0.4,0.5,0.6,0.7c0.2,0.3,0.4,0.6,0.5,1s0.2,0.9,0.2,1.3c0,0.8-0.2,1.5-0.6,2.2c-0.2,0.3-0.4,0.5-0.6,0.7l-0.8,0.7
	c-0.2,0.2-0.3,0.3-0.4,0.5c-0.2,0.2-0.2,0.5-0.2,0.7s0.1,0.5,0.2,0.7s0.2,0.3,0.4,0.4l0.9,0.7c0.5,0.4,1,0.9,1.4,1.4
	c0.4,0.6,0.6,1.4,0.6,2.1c0,1.3-0.6,2.5-1.6,3.3c-1.4,1.1-3.1,1.6-4.9,1.5c-1.4,0.1-2.8-0.3-4-1.1c-0.8-0.6-1.3-1.5-1.3-2.5
	C280.4,214.9,280.5,214.4,280.8,214L280.8,214z"/>
<path class="st4" d="M231.2,222.1h25.4v-25.4h-25.4L231.2,222.1L231.2,222.1z M239.7,203.8c0,0-0.5,7,4.6,11.1
	c1.3-1.1,2.4-2.5,3.1-4.1c-2.1-1.2-3.3-3.5-3.1-5.9c0-4.6,6.8-4,6.8-0.4c0,1.2,0,2.4-0.2,3.5h-2.4c0.2-1,0.4-2,0.4-3
	c0-2-2.3-1.4-2.3-0.2c-0.2,2.6,1.8,4.8,4.4,5h0.1v2c-0.5,0-1-0.1-1.5-0.2c-0.2,0.3-0.3,0.6-0.5,0.9c-2,3.2-3.7,4.9-4.4,4.9
	c-0.5,0.1-1.1,0-1.5-0.4c-0.6-0.5-5.6-3.8-5.6-13.2L239.7,203.8L239.7,203.8z"/>
<path class="st4" d="M348.9,196.7h-25.5v25.5h25.5V196.7z M344.5,215.7c0,1.2-1,2.2-2.1,2.2h-12.5c-1.2,0-2.2-1-2.2-2.2l0,0v-12.5
	c0-1.2,1-2.2,2.2-2.2l0,0h12.5c1.2,0,2.1,1,2.1,2.2V215.7L344.5,215.7z"/>
<path class="st4" d="M340,206.2h1.9c0.4,0,0.8-0.3,0.8-0.8l0,0v-1.8c0-0.4-0.3-0.8-0.8-0.8H340c-0.4,0-0.8,0.3-0.8,0.8l0,0v1.8
	C339.2,205.9,339.6,206.2,340,206.2L340,206.2z"/>
<path class="st4" d="M341.4,209.6c-0.1,2.9-2.6,5.1-5.5,5c-2.7-0.1-4.9-2.3-5-5c0-0.5,0.1-1,0.2-1.4h-1.5v7.1c0,0.4,0.3,0.7,0.7,0.7
	l0,0H342c0.4,0,0.7-0.3,0.7-0.7l0,0v-7.1h-1.5C341.3,208.6,341.4,209.1,341.4,209.6L341.4,209.6z"/>
<ellipse class="st4" cx="336.1" cy="209.4" rx="3.4" ry="3.3"/>
<rect x="367.1" y="236.5" class="st16" width="25.5" height="25.5"/>
<path class="st4" d="M92.7,222.2h25.5v-25.5H92.7V222.2L92.7,222.2z M105.5,200.2c5.1,0,9.2,4.1,9.2,9.2s-4.1,9.2-9.2,9.2
	c-0.9,0-1.8-0.1-2.6-0.4c0.4-0.6,0.7-1.3,0.9-2c0.1-0.4,0.7-2.5,0.7-2.5c0.5,0.7,1.4,1.2,2.2,1.1c3,0,5-2.7,5-6.3
	c-0.1-3-2.7-5.4-5.7-5.3h-0.1c-4.4,0-6.6,3.1-6.6,5.8c-0.2,1.5,0.6,2.9,1.9,3.5c0.2,0.1,0.4,0,0.4-0.1v-0.1c0-0.2,0.1-0.6,0.2-0.7
	c0.1-0.2,0-0.4-0.1-0.5c-0.4-0.5-0.6-1.2-0.6-1.8c0-2.4,1.9-4.4,4.3-4.4c0.1,0,0.1,0,0.2,0c2.5,0,3.8,1.5,3.8,3.5
	c0,2.7-1.2,4.9-2.9,4.9c-0.8,0-1.5-0.6-1.5-1.4c0-0.1,0-0.3,0-0.4c0.4-1.1,0.6-2.2,0.8-3.3c0.1-0.7-0.4-1.3-1.1-1.4
	c-0.1,0-0.1,0-0.2,0c-1,0-1.8,1-1.8,2.4c0,0.5,0.1,1,0.3,1.5l-1.2,5c-0.1,0.7-0.2,1.4-0.2,2.1c-4.7-2-6.8-7.5-4.8-12.1
	C98.4,202.3,101.8,200.2,105.5,200.2L105.5,200.2z"/>
<path class="st4" d="M0.5,222.1h25.4v-25.4H0.5V222.1z M12,208h3.4v-2.9c0-3.3,2-5.1,5-5.1c1,0,2,0,3,0.1v3.5h-2.1
	c-1.6,0-1.9,0.8-1.9,1.9v2.5h3.9l-0.5,3.9h-3.4v10h-4v-10H12V208z"/>
<path class="st4" d="M185,222.2h25.5v-25.5H185V222.2L185,222.2z M193,218.1h-3.6v-11.6h3.6V218.1L193,218.1z M195.3,206.6h3.4v1.6
	l0,0c0.7-1.2,2-1.9,3.4-1.9c3.6,0,4.3,2.4,4.3,5.5v6.4h-3.6v-5.6c0-1.3,0-3.1-1.9-3.1s-2.2,1.5-2.2,3v5.7h-3.6L195.3,206.6
	L195.3,206.6z M191.2,200.8c1.1,0,2.1,0.9,2.1,2.1c0,1.1-0.9,2.1-2.1,2.1c-1.1,0-2.1-0.9-2.1-2.1C189.1,201.7,190,200.8,191.2,200.8
	z"/>
<path class="st4" d="M46.6,222.2h25.5v-25.5H46.6V222.2L46.6,222.2z M52.8,210.9c0.2,0,0.4,0.1,0.7,0.1s0.6,0,0.9-0.1
	c-1.6-0.3-2.8-1.8-2.8-3.4l0,0c0.5,0.3,1,0.4,1.6,0.4c-1.6-1-2.1-3.1-1.1-4.7c1.8,2.2,4.4,3.5,7.2,3.6c-0.5-1.9,0.6-3.8,2.5-4.3
	c1.3-0.3,2.6,0.1,3.5,1.1c0.8-0.2,1.5-0.4,2.2-0.9c-0.3,0.8-0.8,1.5-1.5,1.9c0.7-0.1,1.4-0.3,2-0.6c-0.5,0.7-1.1,1.3-1.7,1.8
	c0,0.1,0,0.3,0,0.4c0,5.5-4.5,9.9-9.9,9.9c-1.9,0-3.7-0.5-5.3-1.6c0.3,0,0.6,0,0.8,0.1c1.6,0,3.1-0.5,4.3-1.5
	C54.5,213.3,53.2,212.4,52.8,210.9L52.8,210.9z"/>
<path class="st4" d="M600.9,37.8l8-8l2.3,2.3l-5.7,5.7l5.7,5.7l-2.3,2.3L600.9,37.8L600.9,37.8z"/>
<path class="st4" d="M578.1,45.8l-2.3-2.3l5.7-5.7l-5.7-5.7l2.3-2.4l8,8L578.1,45.8L578.1,45.8z"/>
<path class="st0" d="M556.8,1.3c0.9,0.8,1.4,2,1.3,3.2v9.1c0,2.5-2,4.6-4.6,4.6h-9.1c-2.5,0-4.6-2-4.6-4.6v-9c0-1.2,0.5-2.4,1.3-3.2
	c0.8-0.9,2-1.4,3.2-1.3h9.1C554.7,0,555.9,0.5,556.8,1.3L556.8,1.3z M554.8,6.8l-1-1c-0.1-0.2-0.3-0.2-0.5,0l-5.1,5.1
	c-0.1,0.1-0.3,0.2-0.4,0.1c0,0,0,0-0.1-0.1l-2.2-2.3c-0.2-0.1-0.3-0.1-0.5,0l-1,0.9c0,0,0,0.1,0,0.2c0,0.1,0,0.2,0.1,0.2l2.2,2.4
	c0.1,0,0.1,0.1,0.2,0.1l0.2,0.2c0,0.1,0.1,0.1,0.1,0.1l1,1c0.1,0.1,0.4,0.1,0.5,0l0,0l6.5-6.6C555,7.2,555,7,554.8,6.8
	C554.9,6.8,554.9,6.8,554.8,6.8L554.8,6.8z"/>
<path class="st1" d="M553.3,30c0.2,0,0.4,0.1,0.6,0.2c0.2,0.1,0.3,0.4,0.2,0.6v9.1c0,0.4-0.4,0.8-0.8,0.8h-9.1
	c-0.2,0-0.4-0.1-0.6-0.2c-0.2-0.1-0.3-0.4-0.2-0.6v-9.2c0-0.2,0.1-0.4,0.2-0.6c0.1-0.2,0.4-0.3,0.6-0.2L553.3,30 M553.3,26.2h-9.1
	c-2.5,0-4.6,2-4.6,4.5l0,0v9.1c0,2.5,2,4.6,4.6,4.6l0,0h9.1c2.5,0,4.6-2,4.6-4.6v-9.1C557.8,28.3,555.8,26.2,553.3,26.2z"/>
<path class="st4" d="M617.4,4.4c0.1,0.1,0.1,0.3,0.2,0.4c0,0.1-0.1,0.3-0.2,0.4l-10.9,10.9c-0.2,0.2-0.5,0.3-0.7,0.1
	c0,0-0.1,0-0.1-0.1l-1.6-1.6l-0.8-0.8l-3.7-3.9c-0.1-0.1-0.1-0.3-0.1-0.4c0-0.1,0-0.3,0.1-0.4l1.7-1.5c0.1-0.1,0.3-0.2,0.4-0.2
	c0.2,0,0.3,0.1,0.4,0.2l3.7,3.8c0.2,0.2,0.5,0.3,0.7,0.1c0,0,0.1,0,0.1-0.1l8.5-8.4c0.1-0.1,0.2-0.2,0.4-0.2s0.3,0.1,0.4,0.2
	L617.4,4.4L617.4,4.4L617.4,4.4z"/>
<path class="st4" d="M589.9,70.3L589.9,70.3L577,56.7l-2.9,2.8l10.3,10.9l-10.3,10.9l2.9,2.8L589.9,70.3L589.9,70.3z"/>
<path class="st4" d="M598.9,70.3L598.9,70.3l12.9-13.6l2.9,2.8l-10.3,10.9l10.3,10.9l-2.9,2.8L598.9,70.3L598.9,70.3z"/>
<path class="st4" d="M99.2,321.8c3.2,0,5.8-3.3,5.8-7.3s-2.6-7.3-5.8-7.3s-5.8,3.3-5.8,7.3S96,321.8,99.2,321.8z M99.2,308.7
	c2.3,0,4.2,2.6,4.2,5.8s-1.9,5.8-4.2,5.8s-4.2-2.6-4.2-5.8S96.9,308.7,99.2,308.7z"/>
<path class="st4" d="M88.4,323.1l-1.5,4.6c-0.1,0.4,0.1,0.8,0.5,1c0.1,0,0.1,0,0.2,0h23.2c0.2,0,0.5-0.1,0.6-0.3
	c0.1-0.2,0.2-0.5,0.1-0.7l-1.5-4.6c-0.1-0.2-0.3-0.4-0.5-0.5l-5.4-1.5c-0.2-0.1-0.4,0-0.6,0.1l-4.3,2.1l-4.3-2.1
	c-0.2-0.1-0.4-0.1-0.6-0.1l-5.4,1.5C88.7,322.7,88.5,322.9,88.4,323.1L88.4,323.1z M94.4,322.7l4.4,2.2c0.2,0.1,0.5,0.1,0.7,0
	l4.4-2.2l4.7,1.3l1.1,3.2h-21l1-3.2L94.4,322.7L94.4,322.7z"/>
<path class="st6" d="M478.2,165.9c2.6,0,4.8-2.7,4.8-6.1s-2.1-6.1-4.8-6.1s-4.8,2.7-4.8,6.1S475.6,165.9,478.2,165.9L478.2,165.9z"
	/>
<path class="st6" d="M469.3,167.7l-1.3,3.8c-0.1,0.2,0,0.4,0.1,0.6c0.1,0.2,0.3,0.3,0.5,0.3h19.1c0.4,0,0.6-0.3,0.6-0.6
	c0-0.1,0-0.1,0-0.2l-1.3-3.8c-0.1-0.2-0.2-0.4-0.4-0.4l-4.5-1.3c-0.1-0.1-0.3-0.1-0.5,0l-3.5,1.8l-3.5-1.8c-0.1-0.1-0.3-0.1-0.5,0
	l-4.5,1.3C469.5,167.4,469.3,167.5,469.3,167.7L469.3,167.7z"/>
<path class="st4" d="M65.9,308.7h-3.1v-0.8c0-0.4-0.3-0.8-0.7-0.8l0,0h-2.3c-0.4,0-0.8,0.3-0.8,0.8v0.8h-9.3v-0.8
	c0-0.4-0.3-0.8-0.8-0.8h-2.3c-0.4,0-0.8,0.3-0.8,0.8v0.8h-3.1c-0.4,0-0.8,0.3-0.8,0.8V328c0,0.4,0.3,0.8,0.8,0.8h23.2
	c0.4,0,0.8-0.3,0.8-0.8v-18.5C66.7,309.1,66.3,308.7,65.9,308.7L65.9,308.7z M60.5,308.7h0.8v1.5h-0.8V308.7z M47.4,308.7h0.8v1.5
	h-0.8V308.7z M65.1,327.2H43.5v-17h2.3v0.8c0,0.4,0.3,0.8,0.8,0.8h2.3c0.4,0,0.8-0.3,0.8-0.8v-0.8H59v0.8c0,0.4,0.3,0.8,0.8,0.8h2.3
	c0.4,0,0.8-0.3,0.8-0.8v-0.8h2.3L65.1,327.2z"/>
<path class="st4" d="M49.7,314.9h-3.1c-0.4,0-0.8,0.3-0.8,0.8v3.1c0,0.4,0.3,0.8,0.8,0.8h3.1c0.4,0,0.8-0.3,0.8-0.8v-3.1
	C50.5,315.2,50.1,314.9,49.7,314.9z M48.9,318h-1.5v-1.5h1.5V318z"/>
<path class="st4" d="M55.9,314.9h-3.1c-0.4,0-0.8,0.3-0.8,0.8v3.1c0,0.4,0.3,0.8,0.8,0.8h3.1c0.4,0,0.8-0.3,0.8-0.8v-3.1
	C56.6,315.2,56.3,314.9,55.9,314.9z M55.1,318h-1.5v-1.5h1.5V318L55.1,318z"/>
<path class="st4" d="M62.1,314.9H59c-0.4,0-0.8,0.3-0.8,0.8v3.1c0,0.4,0.3,0.8,0.8,0.8h3.1c0.4,0,0.8-0.3,0.8-0.8v-3.1
	C62.9,315.2,62.5,314.9,62.1,314.9L62.1,314.9z M61.3,318h-1.5v-1.5h1.5V318L61.3,318z"/>
<path class="st4" d="M49.7,321.1h-3.1c-0.4,0-0.8,0.3-0.8,0.8v3.1c0,0.4,0.3,0.8,0.8,0.8h3.1c0.4,0,0.8-0.3,0.8-0.8v-3.1
	C50.5,321.4,50.1,321.1,49.7,321.1z M48.9,324.2h-1.5v-1.5h1.5V324.2z"/>
<path class="st4" d="M55.9,321.1h-3.1c-0.4,0-0.8,0.3-0.8,0.8v3.1c0,0.4,0.3,0.8,0.8,0.8h3.1c0.4,0,0.8-0.3,0.8-0.8v-3.1
	C56.6,321.4,56.3,321.1,55.9,321.1z M55.1,324.2h-1.5v-1.5h1.5V324.2L55.1,324.2z"/>
<path class="st4" d="M62.1,321.1H59c-0.4,0-0.8,0.3-0.8,0.8v3.1c0,0.4,0.3,0.8,0.8,0.8h3.1c0.4,0,0.8-0.3,0.8-0.8v-3.1
	C62.9,321.4,62.5,321.1,62.1,321.1L62.1,321.1z M61.3,324.2h-1.5v-1.5h1.5V324.2L61.3,324.2z"/>
<path class="st4" d="M227.1,330.3h14.7c0.9,0,1.5-0.7,1.5-1.5v-21.6c0-0.8-0.7-1.5-1.5-1.5h-14.7c-0.8,0-1.5,0.7-1.5,1.5v2.3h-0.8
	c-0.4,0-0.8,0.3-0.8,0.8c0,0.4,0.3,0.8,0.8,0.8h0.8v1.5h-0.8c-0.4,0-0.8,0.3-0.8,0.8c0,0.4,0.3,0.8,0.8,0.8h0.8v1.5h-0.8
	c-0.4,0-0.8,0.3-0.8,0.8c0,0.4,0.3,0.8,0.8,0.8h0.8v1.5h-0.8c-0.4,0-0.8,0.3-0.8,0.8c0,0.4,0.3,0.8,0.7,0.8l0,0h0.8v1.5h-0.8
	c-0.4,0-0.8,0.3-0.8,0.8c0,0.4,0.3,0.8,0.8,0.8h0.8v1.5h-0.8c-0.4,0-0.8,0.3-0.8,0.8c0,0.4,0.3,0.8,0.8,0.8h0.8v2.3
	C225.5,329.7,226.2,330.4,227.1,330.3C227.1,330.4,227.1,330.4,227.1,330.3L227.1,330.3z M241.8,328.8h-3.1v-21.6h3.1V328.8z
	 M227.1,323.4h0.8c0.4,0,0.8-0.3,0.8-0.8c0-0.4-0.3-0.8-0.8-0.8h-0.8v-1.5h0.8c0.4,0,0.8-0.3,0.8-0.8c0-0.4-0.3-0.8-0.8-0.8h-0.8
	v-1.5h0.8c0.4,0,0.8-0.3,0.8-0.8c0-0.4-0.3-0.8-0.8-0.8h-0.8v-1.5h0.8c0.4,0,0.8-0.3,0.8-0.8c0-0.4-0.3-0.8-0.8-0.8h-0.8V311h0.8
	c0.4,0,0.8-0.3,0.8-0.8c0-0.4-0.3-0.8-0.8-0.8h-0.8v-2.3h10v21.6h-10v-2.3h0.8c0.4,0,0.8-0.3,0.8-0.8c0-0.4-0.3-0.8-0.8-0.8h-0.8
	V323.4L227.1,323.4z"/>
<path class="st4" d="M155.5,307.2l-11.5,1.5l-11.5-1.5c-0.2,0-0.4,0-0.6,0.2c-0.2,0.1-0.3,0.4-0.3,0.6v18.5c0,0.4,0.3,0.7,0.7,0.8
	l11.6,1.5h0.2l11.6-1.5c0.4-0.1,0.7-0.4,0.7-0.8V308c0-0.2-0.1-0.4-0.3-0.6S155.7,307.1,155.5,307.2L155.5,307.2z M133.2,308.8
	l10,1.3v17l-10-1.3V308.8z M154.8,325.8l-10,1.3v-17l10-1.3V325.8z"/>
<path class="st4" d="M135.4,312.6l6.2,0.8h0.1c0.4,0,0.8-0.3,0.8-0.7s-0.3-0.8-0.7-0.8l0,0l-6.2-0.8c-0.4-0.1-0.8,0.2-0.9,0.7
	C134.7,312.1,135,312.5,135.4,312.6L135.4,312.6L135.4,312.6z"/>
<path class="st4" d="M141.8,315.7l-6.2-0.8c-0.4-0.1-0.8,0.2-0.9,0.6c-0.1,0.4,0.2,0.8,0.6,0.9c0.1,0,0.1,0,0.2,0l6.2,0.8h0.1
	c0.4,0,0.7-0.3,0.8-0.7C142.5,316.1,142.2,315.7,141.8,315.7L141.8,315.7z"/>
<path class="st4" d="M141.8,319.5l-6.2-0.8c-0.4-0.1-0.8,0.2-0.9,0.7c-0.1,0.4,0.2,0.8,0.7,0.9l0,0l6.2,0.8h0.1
	c0.4,0,0.7-0.3,0.8-0.7C142.5,319.9,142.2,319.6,141.8,319.5L141.8,319.5z"/>
<path class="st4" d="M141.8,323.4l-6.2-0.8c-0.4-0.1-0.8,0.2-0.9,0.7c-0.1,0.4,0.2,0.8,0.7,0.9l6.2,0.8h0.1c0.4,0,0.7-0.3,0.8-0.7
	C142.5,323.8,142.2,323.4,141.8,323.4L141.8,323.4L141.8,323.4z"/>
<path class="st4" d="M146.3,313.4h0.1l6.2-0.8c0.4-0.1,0.7-0.4,0.7-0.9c-0.1-0.4-0.4-0.7-0.9-0.7l-6.2,0.8c-0.4,0-0.7,0.4-0.7,0.8
	S145.9,313.4,146.3,313.4L146.3,313.4z"/>
<path class="st4" d="M146.3,317.2h0.1l6.2-0.8c0.4,0,0.8-0.4,0.8-0.8s-0.4-0.8-0.8-0.8c-0.1,0-0.1,0-0.2,0l-6.2,0.8
	c-0.4,0.1-0.7,0.5-0.6,0.9C145.6,316.9,145.9,317.2,146.3,317.2L146.3,317.2z"/>
<path class="st4" d="M146.3,321.1h0.1l6.2-0.8c0.4-0.1,0.7-0.4,0.7-0.9c-0.1-0.4-0.4-0.7-0.9-0.7l-6.2,0.8c-0.4,0.1-0.7,0.4-0.7,0.9
	C145.6,320.8,145.9,321.1,146.3,321.1L146.3,321.1z"/>
<path class="st4" d="M152.4,322.6l-6.2,0.8c-0.4,0-0.7,0.4-0.7,0.8s0.4,0.7,0.8,0.7h0.1l6.2-0.8c0.4-0.1,0.7-0.4,0.7-0.9
	C153.2,322.9,152.8,322.6,152.4,322.6L152.4,322.6z"/>
<path class="st4" d="M177.2,321.1h2.5l0.4,1.3l-2,2c-0.3,0.3-0.3,0.8,0,1.1l0,0l3.1,3.1c0.3,0.3,0.8,0.3,1.1,0l0,0l2-2l1.3,0.5v2.5
	c0,0.4,0.3,0.8,0.8,0.8h4.6c0.4,0,0.8-0.3,0.8-0.8V327l1.3-0.5l2,2c0.3,0.3,0.8,0.3,1.1,0l3.1-3.1c0.3-0.3,0.3-0.8,0-1.1l-2-2
	l0.4-1.3h2.5c0.4,0,0.8-0.3,0.8-0.8v-4.6c0-0.4-0.3-0.8-0.8-0.8h-2.5l-0.4-1.3l2-2c0.3-0.3,0.3-0.8,0-1.1l0,0l-3.1-3.1
	c-0.3-0.3-0.8-0.3-1.1,0l0,0l-2,2l-1.3-0.5v-2.5c0-0.4-0.3-0.8-0.8-0.8h-4.6c-0.4,0-0.8,0.3-0.8,0.8v2.5l-1.3,0.5l-2-2
	c-0.3-0.3-0.8-0.3-1.1,0l0,0l-3.1,3.1c-0.3,0.3-0.3,0.8,0,1.1l0,0l2,2l-0.4,1.3h-2.5c-0.4,0-0.8,0.3-0.8,0.8v4.6
	C176.5,320.7,176.8,321,177.2,321.1L177.2,321.1z M178,316.4h2.3c0.3,0,0.6-0.2,0.7-0.5l0.8-2.3c0.1-0.3,0-0.6-0.2-0.8l-1.8-1.8l2-2
	l1.8,1.8c0.2,0.2,0.5,0.3,0.8,0.2l2.3-0.8c0.3-0.1,0.5-0.4,0.5-0.7v-2.3h3.1v2.3c0,0.3,0.2,0.6,0.5,0.7l2.3,0.8
	c0.3,0.1,0.6,0,0.8-0.2l1.8-1.8l2,2l-1.8,1.8c-0.2,0.2-0.3,0.5-0.2,0.8l0.8,2.3c0.1,0.3,0.4,0.5,0.7,0.5h2.3v3.1h-2.3
	c-0.3,0-0.6,0.2-0.7,0.5l-0.8,2.3c-0.1,0.3,0,0.6,0.2,0.8l1.8,1.8l-2,2l-1.8-1.8c-0.2-0.2-0.5-0.3-0.8-0.2l-2.3,0.8
	c-0.3,0.1-0.5,0.4-0.5,0.7v2.3h-3.1v-2.3c0-0.3-0.2-0.6-0.5-0.7l-2.3-0.8c-0.3-0.1-0.6,0-0.8,0.2l-1.8,1.8l-2-2l1.8-1.8
	c0.2-0.2,0.3-0.5,0.2-0.8L181,320c-0.1-0.3-0.4-0.5-0.7-0.5H178V316.4L178,316.4z"/>
<path class="st4" d="M188.8,321.1c1.7,0,3.1-1.4,3.1-3.1s-1.4-3.1-3.1-3.1c-1.7,0-3.1,1.4-3.1,3.1S187.1,321.1,188.8,321.1z
	 M188.8,316.4c0.9,0,1.6,0.7,1.6,1.5c0,0.9-0.7,1.6-1.5,1.6c-0.9,0-1.6-0.7-1.6-1.5l0,0C187.3,317.1,188,316.4,188.8,316.4z"/>
<path class="st4" d="M12.6,314.5c0-1.7-1.4-3.1-3.1-3.1s-3.1,1.4-3.1,3.1s1.4,3.1,3.1,3.1l0,0C11.2,317.6,12.6,316.2,12.6,314.5z
	 M8,314.5c0-0.9,0.6-1.6,1.5-1.6s1.6,0.6,1.6,1.5s-0.6,1.6-1.5,1.6c0,0,0,0-0.1,0C8.7,316,8,315.3,8,314.5z"/>
<path class="st4" d="M9.5,330.3c0.2,0,0.4-0.1,0.6-0.3c0.3-0.4,8.3-9.5,8.3-15.6c0-4.9-4-8.9-8.9-8.9s-8.9,4-8.9,8.9
	c0,6,7.9,15.2,8.3,15.6C9.1,330.2,9.3,330.3,9.5,330.3L9.5,330.3z M9.5,307.2c4,0,7.3,3.3,7.3,7.4c0,4.6-5.5,11.6-7.4,13.9
	c-1.8-2.2-7.3-9.3-7.3-13.9C2.1,310.5,5.4,307.2,9.5,307.2z"/>
<path class="st4" d="M110.9,360.5H86c-0.5,0-0.8,0.4-0.8,0.8v15c0,0.5,0.4,0.8,0.8,0.8h25c0.5,0,0.8-0.4,0.8-0.8v-15
	C111.8,360.9,111.5,360.6,110.9,360.5C111,360.5,111,360.5,110.9,360.5L110.9,360.5z M108.3,362.2l-9.8,6.1l-9.8-6.1H108.3z
	 M86.8,375.5V363l11.7,7.2l11.6-7.2v12.5H86.8z"/>
<path class="st4" d="M143.8,365.5c-0.5,0-0.8,0.4-0.8,0.8v11.3l-1.9-1.9c-0.4-0.3-0.9-0.3-1.2,0.1c-0.3,0.3-0.3,0.8,0,1.1l3.3,3.3
	c0.3,0.3,0.8,0.3,1.2,0l0,0l3.3-3.3c0.4-0.3,0.4-0.8,0.1-1.2c-0.3-0.4-0.8-0.4-1.2-0.1l-0.1,0.1l-1.9,1.9v-11.3
	C144.6,365.9,144.2,365.6,143.8,365.5L143.8,365.5z"/>
<path class="st4" d="M156.3,357.2h-25c-0.5,0-0.8,0.4-0.8,0.8v15c0,0.5,0.4,0.8,0.8,0.8h9.1c0.5,0,0.8-0.4,0.8-0.8
	c0-0.5-0.4-0.8-0.8-0.8h-8.3v-13.3h23.3v13.3h-8.3c-0.5,0-0.8,0.4-0.8,0.8c0,0.5,0.4,0.8,0.8,0.8h9.1c0.5,0,0.8-0.4,0.8-0.8v-15
	C157.1,357.6,156.7,357.2,156.3,357.2L156.3,357.2z"/>
<path class="st4" d="M13.3,355.6c-7.4,0-13.3,6-13.3,13.3s6,13.3,13.3,13.3c7.4,0,13.3-6,13.3-13.3c0-3.5-1.4-6.9-3.9-9.4
	S16.8,355.6,13.3,355.6z M21.5,377.1c-4.6,4.5-11.9,4.5-16.5-0.1s-4.5-11.9,0.1-16.5s11.9-4.5,16.5,0.1c2.2,2.2,3.4,5.1,3.4,8.2
	C25,372,23.8,374.9,21.5,377.1L21.5,377.1z"/>
<path class="st4" d="M17.4,368.6l-3.3-8.3c-0.2-0.4-0.6-0.6-1.1-0.5c-0.2,0.1-0.4,0.3-0.5,0.5l-3.3,8.3c-0.1,0.2-0.1,0.4,0,0.6l0,0
	l3.3,8.3c0.2,0.4,0.6,0.6,1.1,0.5c0.2-0.1,0.4-0.3,0.5-0.5l3.3-8.3l0,0C17.5,369,17.5,368.8,17.4,368.6z M13.3,362.8l2.1,5.2h-4.2
	L13.3,362.8z M13.3,375l-2.1-5.2h4.2L13.3,375L13.3,375z"/>
<path class="st4" d="M41.2,378h5v3.3c0,0.5,0.4,0.8,0.8,0.8h13.3c0.5,0,0.8-0.4,0.8-0.8V378h5c0.5,0,0.8-0.4,0.8-0.8v-13.3
	c0-0.5-0.4-0.8-0.8-0.8h-5v-6.6c0-0.5-0.4-0.8-0.8-0.8H47c-0.5,0-0.8,0.4-0.8,0.8v6.6h-5c-0.5,0-0.8,0.4-0.8,0.8v13.3
	C40.3,377.6,40.7,378,41.2,378L41.2,378z M59.5,380.5H47.8v-8.3h11.6L59.5,380.5L59.5,380.5z M47.8,357.2h11.7v5.8H47.8V357.2
	L47.8,357.2z M42,364.7h23.3v11.6h-4.2v-5c0-0.5-0.4-0.8-0.8-0.8H47c-0.5,0-0.8,0.4-0.8,0.8v5H42V364.7z"/>
<path class="st4" d="M45.1,366.2c-0.3-0.3-0.8-0.3-1.2,0c-0.2,0.2-0.2,0.4-0.2,0.6s0.1,0.4,0.2,0.6c0.3,0.3,0.8,0.3,1.2,0l0,0
	c0.2-0.2,0.2-0.4,0.2-0.6S45.2,366.4,45.1,366.2L45.1,366.2z"/>
<path class="st4" d="M47,367.6c0.2,0,0.4-0.1,0.6-0.2c0.2-0.2,0.2-0.4,0.2-0.6s-0.1-0.4-0.2-0.6c-0.3-0.3-0.8-0.3-1.2,0
	c-0.2,0.2-0.2,0.4-0.2,0.6s0.1,0.4,0.2,0.6C46.6,367.5,46.8,367.6,47,367.6L47,367.6z"/>
<path class="st4" d="M57.8,373.9h-8.3c-0.5,0-0.8,0.4-0.8,0.8c0,0.5,0.4,0.8,0.8,0.8h8.3c0.5,0,0.8-0.4,0.8-0.8
	C58.6,374.2,58.3,373.9,57.8,373.9z"/>
<path class="st4" d="M57.8,377.2h-8.3c-0.5,0-0.8,0.4-0.8,0.8c0,0.5,0.4,0.8,0.8,0.8h8.3c0.5,0,0.8-0.4,0.8-0.8
	S58.3,377.2,57.8,377.2L57.8,377.2z"/>
<path class="st0" d="M12.8,560.6l7.2,4.7l-7.2,4.7V560.6z"/>
<path class="st4" d="M53,577.4c-5.9-5.9-5.9-15.5,0-21.4s15.5-5.9,21.4,0s5.9,15.5,0,21.4C68.5,583.3,58.9,583.3,53,577.4z
	 M72.4,557.9c-4.8-4.8-12.7-4.8-17.5,0s-4.8,12.7,0,17.5s12.7,4.8,17.5,0C77.3,570.6,77.3,562.8,72.4,557.9z"/>
<path class="st4" d="M61.3,562l7.3,4.7l-7.3,4.7V562z"/>
<path class="st5" d="M469.9,113.8l17.9,10.4l-17.9,10.4V113.8z"/>
<rect x="518.2" y="116.8" class="st5" width="3.6" height="16.4"/>
<path d="M553.2,129.5h3.6l5.6,5.6c0.2,0.2,0.5,0.2,0.7,0.1c0.2-0.1,0.4-0.3,0.4-0.6v-19.3c0-0.3-0.2-0.5-0.4-0.6s-0.5,0-0.7,0.1
	l-5.6,5.6h-3.6c-0.4,0-0.6,0.3-0.6,0.6l0,0v7.7C552.5,129.2,552.8,129.5,553.2,129.5L553.2,129.5z M553.8,121.8h3.2
	c0.2,0,0.3-0.1,0.5-0.2l4.7-4.7v16.2l-4.7-4.7c-0.1-0.1-0.3-0.2-0.5-0.2h-3.2V121.8L553.8,121.8z"/>
<path d="M564.9,128.4c0.2,0.3,0.7,0.3,0.9,0l0,0l2.4-2.4l2.4,2.4c0.3,0.3,0.7,0.3,0.9,0s0.3-0.7,0-0.9l-2.4-2.4l2.4-2.4
	c0.3-0.3,0.3-0.7,0-0.9s-0.7-0.3-0.9,0l-2.4,2.4l-2.4-2.4c-0.3-0.2-0.7-0.2-0.9,0s-0.2,0.6,0,0.9l2.4,2.4l-2.4,2.4
	C564.7,127.7,564.7,128.1,564.9,128.4L564.9,128.4z"/>
<path d="M600.7,129.5h3.6l5.6,5.6c0.1,0.1,0.3,0.2,0.4,0.2c0.4,0,0.6-0.3,0.6-0.6l0,0v-19.3c0-0.3-0.2-0.5-0.4-0.6s-0.5,0-0.7,0.1
	l-5.6,5.6h-3.6c-0.4,0-0.6,0.3-0.6,0.6v7.7C600.1,129.2,600.3,129.5,600.7,129.5L600.7,129.5L600.7,129.5z M601.4,121.8h3.2
	c0.2,0,0.3-0.1,0.5-0.2l4.7-4.7v16.2l-4.7-4.7c-0.1-0.1-0.3-0.2-0.5-0.2h-3.2V121.8L601.4,121.8z"/>
<path d="M612.9,127.6c-0.4,0-0.6,0.3-0.6,0.6c0,0.4,0.3,0.6,0.6,0.6c2.1-0.1,3.8-1.9,3.7-4.1c-0.1-2-1.7-3.6-3.7-3.7
	c-0.4,0-0.6,0.3-0.6,0.6s0.3,0.6,0.6,0.6l0,0c1.4,0.1,2.5,1.3,2.4,2.7C615.3,126.5,614.2,127.5,612.9,127.6L612.9,127.6z"/>
<path d="M645.4,129.5h3.6l5.6,5.6c0.2,0.2,0.5,0.2,0.7,0.1c0.2-0.1,0.4-0.3,0.4-0.6v-19.3c0-0.3-0.2-0.5-0.4-0.6s-0.5,0-0.7,0.1
	l-5.6,5.6h-3.6c-0.4,0-0.6,0.3-0.6,0.6l0,0v7.7C644.8,129.2,645.1,129.5,645.4,129.5L645.4,129.5z M646,121.8h3.2
	c0.2,0,0.3-0.1,0.5-0.2l4.7-4.7v16.2l-4.7-4.7c-0.1-0.1-0.3-0.2-0.5-0.2H646V121.8L646,121.8z"/>
<path d="M657.6,127.6c-0.4,0-0.6,0.3-0.6,0.6c0,0.4,0.3,0.6,0.6,0.6c2.1-0.1,3.8-1.9,3.7-4.1c-0.1-2-1.7-3.6-3.7-3.7
	c-0.4,0-0.6,0.3-0.6,0.6s0.3,0.6,0.6,0.6l0,0c1.4,0.1,2.5,1.3,2.4,2.7C659.9,126.5,658.9,127.5,657.6,127.6L657.6,127.6z"/>
<path d="M657.6,132.1c3.9,0,7.1-3.2,7.1-7.1s-3.2-7.1-7.1-7.1c-0.4,0-0.6,0.3-0.6,0.6c0,0.4,0.3,0.6,0.6,0.6c3.2,0,5.8,2.6,5.8,5.8
	c0,3.2-2.6,5.8-5.8,5.8c-0.4,0-0.7,0.3-0.7,0.6C656.9,131.8,657.2,132.1,657.6,132.1L657.6,132.1z"/>
<path class="st4" d="M650.1,73.5c0-4.2,3.4-7.6,7.6-7.6c4.2,0,7.6,3.4,7.6,7.6s-3.4,7.6-7.6,7.6l0,0
	C653.5,81.1,650.1,77.7,650.1,73.5z M651.8,73.5c0,3.3,2.6,5.9,5.9,5.9c3.3,0,5.9-2.6,5.9-5.9s-2.6-5.9-5.9-5.9l0,0
	C654.4,67.7,651.8,70.3,651.8,73.5z"/>
<rect x="646.1" y="80.3" transform="matrix(0.708 -0.7062 0.7062 0.708 132.4013 482.6984)" class="st4" width="7.6" height="1.9"/>
<path class="st17" d="M466.8,398h151.1l2.9-7.8h-154L466.8,398z"/>
<path class="st17" d="M614.2,303.8H478.8l-12,44h147.5L614.2,303.8L614.2,303.8z"/>
<rect x="166.7" y="496.3" class="st4" width="13.6" height="2.6"/>
<rect x="177.7" y="496.3" class="st4" width="2.6" height="13.6"/>
<rect x="166.6" y="501.9" transform="matrix(0.707 -0.7072 0.7072 0.707 -305.0772 270.0833)" class="st4" width="13.6" height="2.6"/>
<rect x="205.9" y="498.9" transform="matrix(0.7071 -0.7071 0.7071 0.7071 -291.9619 295.1313)" class="st18" width="8.7" height="2.2"/>
<rect x="213.8" y="495.6" transform="matrix(0.7071 -0.7071 0.7071 0.7071 -290.5573 298.3942)" class="st18" width="2.2" height="8.7"/>
<rect x="211.5" y="498.5" class="st18" width="2.2" height="11.2"/>
<rect x="238.9" y="498.9" transform="matrix(0.7071 -0.7071 0.7071 0.7071 -282.3082 318.4635)" class="st4" width="8.7" height="2.2"/>
<rect x="246.8" y="495.6" transform="matrix(0.7071 -0.7071 0.7071 0.7071 -280.9037 321.7264)" class="st4" width="2.2" height="8.7"/>
<rect x="244.5" y="498.5" class="st4" width="2.2" height="11.2"/>
<rect x="117.4" y="496.3" class="st0" width="13.6" height="2.6"/>
<rect x="128.4" y="496.3" class="st0" width="2.6" height="13.6"/>
<rect x="64.2" y="491.5" transform="matrix(0.7069 -0.7074 0.7074 0.7069 -333.2371 192.4133)" class="st4" width="2.6" height="13.6"/>
<rect x="58.7" y="504.6" transform="matrix(0.7071 -0.7071 0.7071 0.7071 -338.541 194.4915)" class="st4" width="13.6" height="2.6"/>
<path class="st19" d="M806.6,0.7l1,0.2l-8.5,30.9l-1-0.1L806.6,0.7z"/>
<path class="st20" d="M422.3,580.3l34.1-128.1"/>
<path class="st20" d="M425.8,580.3l34.1-128.1"/>
<path class="st20" d="M429.3,580.3l34.1-128.1"/>
<path class="st20" d="M432.8,580.3l34.1-128.1"/>
<path class="st20" d="M436.3,580.3l34.1-128.1"/>
<path class="st20" d="M439.8,580.3l34.1-128.1"/>
<path class="st20" d="M443.3,580.3l34.1-128.1"/>
<path class="st20" d="M446.8,580.3l34.1-128.1"/>
<path class="st20" d="M450.4,580.3l34.1-128.1"/>
<path class="st20" d="M453.9,580.3L488,452.2"/>
<path class="st20" d="M457.4,580.3l34.1-128.1"/>
<path class="st20" d="M460.9,580.3L495,452.2"/>
<path class="st20" d="M464.4,580.3l34-128.1"/>
<path class="st20" d="M467.9,580.3L502,452.2"/>
<path class="st20" d="M471.4,580.3l34.1-128.1"/>
<path class="st20" d="M474.9,580.3L509,452.2"/>
<path class="st20" d="M478.4,580.3l34.1-128.1"/>
<path class="st20" d="M481.9,580.3L516,452.2"/>
<path class="st20" d="M485.5,580.3l34.1-128.1"/>
<path class="st20" d="M489,580.3l34-128.1"/>
<path class="st20" d="M492.5,580.3l34.1-128.1"/>
<path class="st20" d="M496,580.3l34-128.1"/>
<path class="st20" d="M499.5,580.3l34-128.1"/>
<path class="st20" d="M503,580.3l34.1-128.1"/>
<path class="st20" d="M506.5,580.3l34.1-128.1"/>
<path class="st20" d="M510,580.3l34.1-128.1"/>
<path class="st20" d="M513.5,580.3l34-128.1"/>
<path class="st20" d="M517,580.3l34.1-128.1"/>
<path class="st20" d="M520.6,580.3l34-128.1"/>
<path class="st20" d="M524.1,580.3l34.1-128.1"/>
<path class="st20" d="M527.6,580.3l34.1-128.1"/>
<path class="st20" d="M531.1,580.3l34.1-128.1"/>
<path class="st20" d="M534.6,580.3l34.1-128.1"/>
<path class="st20" d="M538.1,580.3l34.1-128.1"/>
<path class="st20" d="M541.6,580.3l34.1-128.1"/>
<path class="st20" d="M545.1,580.3l34.1-128.1"/>
<path class="st20" d="M548.6,580.3l34.1-128.1"/>
<path class="st20" d="M552.2,580.3l34.1-128.1"/>
<path class="st20" d="M555.7,580.3l34.1-128.1"/>
<path class="st20" d="M559.2,580.3l34.1-128.1"/>
<path class="st20" d="M562.7,580.3l34.1-128.1"/>
<path class="st20" d="M566.2,580.3l34.1-128.1"/>
<path class="st20" d="M569.7,580.3l34.1-128.1"/>
<path class="st20" d="M573.2,580.3l34.1-128.1"/>
<path class="st20" d="M576.7,580.3l34.1-128.1"/>
<path class="st20" d="M580.2,580.3l34.1-128.1"/>
<path class="st20" d="M583.7,580.3l34.1-128.1"/>
<path class="st20" d="M587.2,580.3l34.1-128.1"/>
<path class="st20" d="M590.8,580.3l34.1-128.1"/>
<path class="st20" d="M594.3,580.3l34.1-128.1"/>
<path class="st20" d="M597.8,580.3l34.1-128.1"/>
<path class="st20" d="M601.3,580.3l34.1-128.1"/>
<path class="st20" d="M604.8,580.3l34.1-128.1"/>
<path class="st20" d="M608.3,580.3l34.1-128.1"/>
<path class="st20" d="M611.8,580.3l34.1-128.1"/>
<path class="st20" d="M615.3,580.3l34.1-128.1"/>
<path class="st20" d="M618.8,580.3l34.1-128.1"/>
<path class="st20" d="M622.3,580.3l34.1-128.1"/>
<path class="st20" d="M625.9,580.3L660,452.2"/>
<path class="st20" d="M629.4,580.3l34.1-128.1"/>
<path class="st20" d="M632.9,580.3L667,452.2"/>
<path class="st20" d="M636.4,580.3l34.1-128.1"/>
<path class="st20" d="M639.9,580.3L674,452.2"/>
<path class="st20" d="M643.4,580.3l34.1-128.1"/>
<path class="st20" d="M646.9,580.3L681,452.2"/>
<path class="st20" d="M650.4,580.3l34.1-128.1"/>
<path class="st20" d="M653.9,580.3L688,452.2"/>
<path class="st20" d="M657.5,580.3l34.1-128.1"/>
<path class="st20" d="M661,580.3l34-128.1"/>
<path class="st20" d="M664.5,580.3l34.1-128.1"/>
<path class="st20" d="M668,580.3l34-128.1"/>
<path class="st20" d="M671.5,580.3l34.1-128.1"/>
<path class="st4" d="M582.1,8.7L582.1,8.7l5.9-6.2l-1.7-1.6L580.5,7l-5.8-6.1L573,2.5l5.9,6.2l0,0l-5.9,6.2l1.7,1.6l5.8-6.1l5.8,6.1
	l1.7-1.6L582.1,8.7L582.1,8.7z"/>
<g>
	<path class="st4" d="M472.5,279.4c-0.6,0-1-0.4-1-1v-39.9c0-0.6,0.4-1,1-1h123.7c0.6,0,1,0.4,1,1v39.9c0,0.6-0.4,1-1,1H472.5z"/>
	<path class="st4" d="M596.2,238.4v39.9H472.5v-39.9H596.2 M596.2,236.4H472.5c-1.1,0-2,0.9-2,2v39.9c0,1.1,0.9,2,2,2h123.7
		c1.1,0,2-0.9,2-2v-39.9C598.2,237.3,597.3,236.4,596.2,236.4L596.2,236.4z"/>
</g>
<path class="st0" d="M632.9,280.4h-38.2l-17.8-44h56V280.4z"/>
<path class="st21" d="M593.3,280.4H591l-14.1-44h2.4L593.3,280.4z"/>
<rect x="536.3" y="76.8" transform="matrix(0.7071 -0.7071 0.7071 0.7071 106.0182 411.0711)" class="st22" width="25.9" height="1.5"/>
<rect x="548.5" y="64.6" transform="matrix(0.7071 -0.7071 0.7071 0.7071 106.0195 411.0765)" class="st22" width="1.5" height="25.9"/>
<path class="st4" d="M384.9,256.4c-0.6,0.3-1.2,0.5-1.9,0.6c-0.6,0.1-1.2,0.2-1.8,0.2c-0.6,0-1.2-0.1-1.7-0.3
	c-0.5-0.2-1-0.4-1.4-0.8c-0.4-0.3-0.6-0.7-0.8-1.1c-0.2-0.5-0.3-1.1-0.2-1.7v-5.6H375v-2.2c0.6-0.2,1.2-0.5,1.8-0.9
	c0.4-0.4,0.8-0.8,1.1-1.4c0.3-0.6,0.5-1.3,0.5-2h2.2v3.6h3.6v2.8h-3.6v4.1c0,0.6,0,1.1,0.1,1.7c0.1,0.3,0.3,0.5,0.6,0.7
	c0.4,0.2,0.8,0.3,1.2,0.3c0.9,0,1.7-0.3,2.4-0.8L384.9,256.4L384.9,256.4z"/>
<path class="st4" d="M367.1,196.7v25.5h25.5v-25.5H367.1z M384.9,216.5c-0.6,0.3-1.2,0.5-1.8,0.7c-0.6,0.1-1.2,0.2-1.8,0.2
	c-0.6,0-1.2-0.1-1.7-0.3s-1-0.4-1.4-0.8c-0.4-0.3-0.6-0.7-0.8-1.1c-0.2-0.5-0.3-1.1-0.2-1.7V208h-2.1v-2.2c0.6-0.2,1.2-0.5,1.8-0.9
	c0.4-0.4,0.8-0.8,1.1-1.4c0.3-0.6,0.5-1.3,0.5-2h2.2v3.7h3.6v2.8h-3.6v4.1c0,0.6,0,1.1,0.1,1.7c0.1,0.3,0.3,0.5,0.6,0.7
	c0.4,0.2,0.8,0.3,1.2,0.3c0.9,0,1.7-0.3,2.4-0.8L384.9,216.5L384.9,216.5z"/>
<path class="st4" d="M277.8,314.4l-0.1-0.9c-0.9,0-1.9-0.2-2.7-0.4c-0.7,0.5-1.4,1-2.1,1.4C274.5,314.6,276.2,314.6,277.8,314.4
	L277.8,314.4z M271.6,310.4c-1.2,0.6-2.5,0.9-3.8,0.9c0.3,0.4,0.6,0.8,1,1.2c1.2-0.3,2.3-0.7,3.4-1.2
	C272,310.9,271.8,310.7,271.6,310.4L271.6,310.4z M272.1,309.2c0.1,0.1,0.3,0.2,0.3,0.3c0,0.1,0.7,2.8,5.3,3l0,0
	c-1-0.6-1.6-1.7-1.4-2.9c0.2-2.1-1.4-3.5-3.2-2.3c-1.5,1-3.2,1.5-5,1.4c-1.2-0.2-2.1,0.2-1.3,1.2l0.4,0.5c1.6,0.1,3.1-0.3,4.5-1
	c0.1-0.1,0.3-0.1,0.5,0L272.1,309.2z M272.9,311.9c-1,0.6-2.1,1-3.2,1.3c0.5,0.4,1.1,0.7,1.7,0.9c0.9-0.4,1.8-0.9,2.5-1.5
	C273.6,312.4,273.2,312.2,272.9,311.9z M284.9,312.6c0.8,0.6,1.6,1.1,2.5,1.5c0.6-0.2,1.2-0.5,1.7-0.9c-1.1-0.3-2.2-0.7-3.2-1.3
	C285.6,312.2,285.3,312.4,284.9,312.6z M286.7,311.2c1.1,0.6,2.2,1,3.4,1.2c0.4-0.4,0.7-0.8,1-1.2c-1.3,0-2.6-0.3-3.8-0.9
	C287.1,310.6,286.9,310.9,286.7,311.2L286.7,311.2z M290.8,308.6c-1.8,0.1-3.5-0.4-5-1.4c-1.8-1.1-3.4,0.2-3.2,2.3
	c0.2,1.2-0.4,2.3-1.4,2.9l0,0c4.5-0.2,5.2-2.8,5.3-3c0.1-0.3,0.3-0.4,0.6-0.4c0.1,0,0.1,0,0.2,0.1c1.4,0.7,2.9,1.1,4.5,1l0.4-0.5
	c0.9-1-0.1-1.4-1.3-1.2l0,0L290.8,308.6z M281.1,313.5l-0.1,0.9c1.6,0.2,3.3,0.3,4.9,0.1c-0.7-0.4-1.4-0.9-2.1-1.4
	C283,313.3,282.1,313.4,281.1,313.5L281.1,313.5z M282.8,316.3c-0.6-0.3-1.4-0.1-1.7,0.5c-0.2,0.5,0.2,1.2,1,1.5
	c0.3,0.1,0.5,0.1,0.8,0.1c-0.1,0.8-0.6,1.8-2.6,2.5l-0.4,0.2l0.2-10.3c1.1-0.4,1.6-1.6,1.2-2.7s-1.6-1.6-2.7-1.2s-1.6,1.6-1.2,2.7
	c0.2,0.6,0.7,1,1.2,1.2l0.2,10.3l-0.5-0.2c-2-0.7-2.5-1.8-2.6-2.5c0.3,0,0.5,0,0.8-0.1c0.8-0.3,1.2-0.9,1-1.5
	c-0.4-0.6-1.1-0.8-1.7-0.5c-0.5,0.1-0.8,0.5-1,0.9c-0.9,1.4,0.1,3.6,4.1,5.1l0.1,3.7c-1.4-0.7-1.9-1.3-1.9-1.8s1-1.2,1-1.2l-1-0.5
	c0,0-0.7,0.3-0.7,1.6s1.2,2,2.5,2.6l0.1,3.5c-0.3-0.2-1.2-0.9-1.2-1.7c0-0.4,0.3-0.8,0.6-1.1L278,327c-0.3,0.3-0.5,0.8-0.5,1.2
	c0,0.9,0.7,1.7,1.6,1.9v2.1c0,0.1,0.1,0.2,0.2,0.2s0.2-0.1,0.2-0.2v-2.1c1-0.1,1.7-0.9,1.6-1.9c0-0.8-0.5-1.5-1.2-1.8
	c3.3-1.8,2.6-3.4,0.5-4.6c3.1-1.4,4-3.4,3.1-4.7C283.5,316.7,283.2,316.3,282.8,316.3L282.8,316.3z M280.8,328.4
	c0,0.8-0.9,1.5-1.2,1.7l0.1-3.2C280.3,327.2,280.7,327.8,280.8,328.4L280.8,328.4z M279.7,326l0.1-3.4
	C283.2,323.9,280.7,325.5,279.7,326z"/>
<ellipse class="st23" cx="491" cy="35.3" rx="8" ry="8"/>
<ellipse class="st24" cx="491" cy="10.6" rx="8" ry="7.9"/>
<ellipse class="st23" cx="515.3" cy="35.3" rx="8" ry="8"/>
<ellipse class="st24" cx="515.3" cy="10.6" rx="8" ry="7.9"/>
<ellipse class="st0" cx="515.3" cy="10.6" rx="2.8" ry="2.8"/>
<ellipse class="st1" cx="515.3" cy="35.3" rx="2.8" ry="2.8"/>
<path class="st4" d="M36.5,28.5c0,3.9,0.1,7.6-2.8,10.8c-2.7,2.6-6.2,4-10,4h-3.5c-3.7,0.1-7.3-1.4-9.9-3.9
	c-2.9-3.2-2.8-6.8-2.8-10.8V13.9c0-2.5,0.4-6.5-2.4-7.5V6.2h10.5v0.2c-2.7,1-2.4,5-2.4,7.5v14.7c0,7.3,3.1,10.7,8.7,10.7
	c3.1,0.1,6.1-1.3,8-3.8c1.2-1.6,1.2-3,1.2-5V13.9c0-2.5,0.3-6.5-2.4-7.5V6.2H39v0.2c-2.8,1-2.5,5-2.5,7.6V28.5L36.5,28.5z"/>
<path class="st4" d="M52.9,10.9L46,28.8l-2.9,7.7c-1.2,3.1-1.5,4.7,1.1,5.7v0.2h-10v-0.2c3.2-1.6,4.1-4.7,5.3-7.8l9.2-22.9
	c0.8-2,1.8-4.3-0.8-5.1V6.2h8.7L68,34.4c1.3,3.1,2.2,6.2,5.4,7.8v0.2H62.1v-0.2c2.7-1.2,2.2-1.8,0.8-5.7l-3-7.7L52.9,10.9z"/>
<path class="st4" d="M105.1,9.7c0.5-1.1,0.8-2.2,0.8-3.4l0,0h9.5v0.1c-1.3,0.4-1.7,2-1.7,3.2l3.6,26.9c0.3,2.6,0.6,4.1,2.8,5.6v0.2
	h-10.6v-0.2c1.9-0.6,2.2-2.2,2.2-4.1l-3.1-26.4L96.4,43c-2.7-2.1-3.5-3.6-4.8-6.6L81.1,11.6L78,35.3c-0.4,3.3-0.8,5.8,1.8,6.9v0.2
	h-8.9v-0.2c2.3-2,2.6-4.7,3.1-7.7l3.1-23c0.2-1.5,0.8-3.7-1.7-5.1V6.2H85l0,0c0.1,0.9,0.4,1.7,0.8,2.5L96,32.9L105.1,9.7L105.1,9.7z
	"/>
<path class="st4" d="M142,12.7c-2.3-2.2-5.4-3.5-8.6-3.5c-3.1,0-7.1,1.2-7.1,5c0,7.5,18.9,7.4,18.9,17.6c0,5.9-6.1,11.4-14.7,11.4
	c-3.3,0-6.7-0.5-9.8-1.6l-1.6-6.9c3.4,2.9,7.6,4.5,12,4.6c3.1,0,7.8-1.9,7.8-5.7c0-8.6-18.9-7-18.9-18.7c0-6.9,7.1-9.6,13.8-9.6
	c2.8,0,5.5,0.4,8.2,1.2V12.7L142,12.7z"/>
<path class="st4" d="M53,36c2.5,0,4.6-2.1,4.6-4.6s-2.1-4.6-4.6-4.6s-4.6,2.1-4.6,4.6S50.4,36,53,36L53,36z"/>
<path class="st4" d="M158.2,43.1h-1.1V5.2h1.1V43.1L158.2,43.1z"/>
<path class="st4" d="M167.5,17.1v-5.5h1.7V17c0,1.8,0.9,2.7,2.4,2.7s2.4-0.9,2.4-2.6v-5.5h1.7V17c0,2.9-1.6,4.3-4.1,4.3
	c-2.1,0.2-3.9-1.4-4.1-3.4C167.4,17.6,167.5,17.4,167.5,17.1L167.5,17.1z"/>
<path class="st4" d="M177.3,14h1.6v1.1c0.5-0.8,1.3-1.3,2.2-1.3c1.4-0.1,2.5,0.9,2.6,2.3c0,0.2,0,0.3,0,0.5v4.6h-1.6v-4.1
	c0-1.1-0.6-1.8-1.5-1.8S179,16,179,16.9c0,0.1,0,0.1,0,0.2v4.1h-1.6L177.3,14L177.3,14z"/>
<path class="st4" d="M185.7,14h1.6v7.2h-1.6V14z M185.7,11.3h1.8v1.6h-1.8V11.3L185.7,11.3z"/>
<path class="st4" d="M188.7,14h1.8l1.9,5.3l2-5.3h1.7l-2.9,7.3h-1.5L188.7,14L188.7,14z"/>
<path class="st4" d="M202,17.1c0-1-0.8-1.9-1.8-1.9s-1.8,0.9-1.9,1.9H202z M196.6,17.6L196.6,17.6c-0.1-2,1.4-3.6,3.4-3.7h0.1
	c1.9,0,3.5,1.6,3.5,3.5c0,0.1,0,0.3,0,0.4c0,0.2,0,0.3,0,0.5h-5.2c0.1,1.1,1,1.9,2.1,1.8c0.7,0,1.5-0.3,1.9-0.9l1,0.9
	c-0.7,0.9-1.8,1.4-2.9,1.3c-2,0.1-3.6-1.5-3.7-3.5C196.7,17.8,196.7,17.7,196.6,17.6L196.6,17.6z"/>
<path class="st4" d="M205.2,14h1.6v1.6c0.4-1.1,1.4-1.8,2.6-1.8v1.8h-0.1c-1.5,0-2.5,0.9-2.5,2.9v2.7h-1.6V14L205.2,14z"/>
<path class="st4" d="M210.2,20.2l0.7-1.1c0.7,0.5,1.5,0.9,2.4,0.9c0.7,0,1.1-0.3,1.1-0.8l0,0c0-0.6-0.8-0.7-1.6-1
	c-1.1-0.3-2.2-0.7-2.2-2.1l0,0c0-1.3,1.1-2.3,2.4-2.2c0.1,0,0.2,0,0.2,0c0.9,0,1.8,0.3,2.6,0.8l-0.7,1.2c-0.6-0.4-1.3-0.6-2-0.7
	c-0.6,0-1,0.3-1,0.7l0,0c0,0.5,0.8,0.7,1.6,1c1,0.3,2.2,0.8,2.2,2.1l0,0c0,1.5-1.2,2.3-2.6,2.3C212.2,21.3,211.1,20.9,210.2,20.2
	L210.2,20.2z"/>
<path class="st4" d="M217.6,14h1.6v7.2h-1.6V14z M217.5,11.3h1.8v1.6h-1.8V11.3z"/>
<path class="st4" d="M221.6,19.2v-3.8h-0.9V14h0.9v-2h1.6v2h1.9v1.4h-1.9v3.5c-0.1,0.4,0.2,0.8,0.6,0.9c0.1,0,0.2,0,0.2,0
	c0.4,0,0.7-0.1,1-0.2v1.3c-0.5,0.3-1,0.4-1.5,0.4c-1,0.1-1.9-0.6-2.1-1.6C221.6,19.5,221.6,19.3,221.6,19.2L221.6,19.2z"/>
<path class="st4" d="M226.7,23l0.6-1.2c0.3,0.2,0.6,0.3,1,0.3c0.5,0,0.7-0.2,1-0.8l-3-7.2h1.8l2,5.4l1.9-5.4h1.7l-2.9,7.4
	c-0.6,1.5-1.2,2-2.4,2C227.7,23.4,227.2,23.3,226.7,23L226.7,23z"/>
<path class="st4" d="M243.9,17.6L243.9,17.6c0.1-1.2-0.9-2.3-2.1-2.3h-0.1c-1.2,0-2.2,0.9-2.2,2.1v0.1l0,0c0,1.2,0.9,2.3,2.2,2.3
	l0,0C242.9,19.8,243.9,18.8,243.9,17.6C243.9,17.7,243.9,17.7,243.9,17.6L243.9,17.6z M237.8,17.6L237.8,17.6c0-2.1,1.7-3.8,3.8-3.8
	s3.8,1.7,3.8,3.8l0,0c0,2.1-1.7,3.8-3.8,3.8h-0.1C239.5,21.4,237.9,19.7,237.8,17.6L237.8,17.6L237.8,17.6z"/>
<path class="st4" d="M247.3,15.4h-0.9V14h0.9v-0.5c-0.1-0.7,0.2-1.3,0.6-1.8c0.4-0.4,1-0.6,1.6-0.6c0.4,0,0.9,0.1,1.3,0.2v1.4
	c-0.3-0.1-0.6-0.2-1-0.2c-0.6,0-1,0.3-1,1.1V14h1.9v1.3H249v5.9h-1.6L247.3,15.4L247.3,15.4z"/>
<path class="st4" d="M261.2,17.4l-1.6-3.8l-1.6,3.8H261.2z M258.8,11.6h1.6l4.2,9.6h-1.8l-1-2.3h-4.5l-1,2.3h-1.7L258.8,11.6z"/>
<path class="st4" d="M265.7,14h1.6v1.6c0.4-1.1,1.4-1.8,2.6-1.8v1.8h-0.1c-1.5,0-2.5,0.9-2.5,2.9v2.7h-1.6V14L265.7,14z"/>
<path class="st4" d="M271.2,11.2h1.6v6l3-3.2h2l-2.9,2.9l3,4.3H276l-2.2-3.1l-1,1v2.1h-1.6L271.2,11.2L271.2,11.2z"/>
<path class="st4" d="M283.4,18.2c-0.5-0.2-1.1-0.3-1.6-0.3c-1,0-1.6,0.4-1.6,1.1l0,0c0,0.7,0.6,1.1,1.4,1.1c1.1,0,1.9-0.6,1.9-1.5
	L283.4,18.2L283.4,18.2z M283.4,21.2v-0.9c-0.6,0.7-1.4,1.1-2.3,1c-1.3,0.2-2.4-0.7-2.6-2c0-0.1,0-0.2,0-0.3l0,0
	c0-1.6,1.2-2.4,2.9-2.4c0.7,0,1.3,0.1,2,0.3v-0.2c0-1-0.6-1.5-1.8-1.5c-0.7,0-1.4,0.2-2.1,0.4l-0.4-1.3c0.9-0.4,1.8-0.6,2.7-0.6
	c1.5-0.2,2.9,0.8,3.1,2.4c0,0.2,0,0.4,0,0.6V21L283.4,21.2z"/>
<path class="st4" d="M286.6,14h1.6v1.1c0.5-0.8,1.3-1.3,2.2-1.3c1.4-0.1,2.5,0.9,2.6,2.3c0,0.2,0,0.3,0,0.5v4.6h-1.7v-4.1
	c0-1.1-0.6-1.8-1.5-1.8s-1.6,0.7-1.6,1.6c0,0.1,0,0.1,0,0.2v4.1h-1.7V14H286.6z"/>
<path class="st4" d="M294.5,20.2l0.7-1.1c0.7,0.5,1.5,0.9,2.4,0.9c0.7,0,1.1-0.3,1.1-0.8l0,0c0-0.6-0.8-0.7-1.6-1
	c-1.1-0.3-2.2-0.7-2.2-2.1l0,0c0-1.3,1.1-2.3,2.4-2.2c0.1,0,0.2,0,0.2,0c0.9,0,1.8,0.3,2.6,0.8l-0.7,1.2c-0.6-0.4-1.3-0.6-2-0.7
	c-0.6,0-1,0.3-1,0.7l0,0c0,0.5,0.8,0.7,1.6,1c1,0.3,2.2,0.8,2.2,2.1l0,0c0,1.5-1.2,2.3-2.6,2.3C296.5,21.3,295.4,20.9,294.5,20.2
	L294.5,20.2z"/>
<path class="st4" d="M306.3,18.2c-0.5-0.2-1.1-0.3-1.6-0.3c-1,0-1.6,0.4-1.6,1.1l0,0c0,0.7,0.6,1.1,1.4,1.1c1.1,0,1.9-0.6,1.9-1.5
	L306.3,18.2L306.3,18.2z M306.3,21.2v-0.9c-0.6,0.7-1.4,1.1-2.3,1c-1.3,0.2-2.4-0.7-2.6-2c0-0.1,0-0.2,0-0.3l0,0
	c0-1.6,1.3-2.4,2.9-2.4c0.7,0,1.3,0.1,2,0.3v-0.2c0-1-0.6-1.5-1.8-1.5c-0.7,0-1.4,0.2-2.1,0.4l-0.4-1.3c0.9-0.4,1.8-0.6,2.7-0.6
	c1.5-0.2,2.9,0.8,3.2,2.4c0,0.2,0,0.4,0,0.7v4.3L306.3,21.2z"/>
<path class="st4" d="M309.2,20.2l0.7-1.1c0.7,0.5,1.5,0.9,2.4,0.9c0.7,0,1.1-0.3,1.1-0.8l0,0c0-0.6-0.8-0.7-1.6-1
	c-1.1-0.3-2.2-0.7-2.2-2.1l0,0c0-1.3,1.1-2.3,2.4-2.2c0.1,0,0.2,0,0.2,0c0.9,0,1.8,0.3,2.6,0.8l-0.7,1.2c-0.6-0.4-1.3-0.6-2-0.7
	c-0.6,0-1,0.3-1,0.7l0,0c0,0.5,0.8,0.7,1.6,1c1,0.3,2.2,0.8,2.2,2.1l0,0c0,1.5-1.2,2.3-2.6,2.3C311.3,21.3,310.2,20.9,309.2,20.2
	L309.2,20.2z"/>
<path class="st4" d="M167.8,31.1h-0.9v-1.4h0.9v-0.5c-0.1-0.7,0.2-1.3,0.6-1.8c0.4-0.4,1-0.6,1.6-0.6c0.4,0,0.9,0.1,1.3,0.2v1.4
	c-0.3-0.1-0.6-0.2-1-0.2c-0.6,0-1,0.3-1,1.1v0.4h1.9V31h-1.9v5.8h-1.6L167.8,31.1L167.8,31.1z"/>
<path class="st4" d="M177.8,33.4L177.8,33.4c0.1-1.2-0.9-2.3-2.1-2.3h-0.1c-1.2,0-2.2,0.9-2.2,2.1v0.1l0,0c0,1.2,0.9,2.3,2.2,2.3
	l0,0C176.8,35.6,177.8,34.6,177.8,33.4C177.8,33.5,177.8,33.4,177.8,33.4L177.8,33.4z M171.8,33.4L171.8,33.4c0-2.1,1.7-3.8,3.8-3.8
	s3.8,1.7,3.8,3.8l0,0c0,2.1-1.7,3.8-3.8,3.8h-0.1c-2.1,0.1-3.8-1.6-3.8-3.6C171.7,33.5,171.7,33.4,171.8,33.4L171.8,33.4z"/>
<path class="st4" d="M180.8,29.7h1.6v1.6c0.4-1.1,1.4-1.8,2.6-1.8v1.8l0,0c-1.5,0-2.5,0.9-2.5,2.9v2.7h-1.6L180.8,29.7L180.8,29.7z"
	/>
<path class="st4" d="M189.3,27.4h1.8l2.9,4.5l2.9-4.5h1.8v9.5H197v-6.8l-3,4.5h-0.1l-3-4.5v6.8h-1.6L189.3,27.4L189.3,27.4z"/>
<path class="st4" d="M205.4,32.8c0-1-0.8-1.9-1.8-1.9s-1.8,0.9-1.9,1.9H205.4z M200,33.4L200,33.4c-0.1-2,1.4-3.6,3.4-3.7h0.1
	c1.9,0,3.5,1.6,3.5,3.5c0,0.1,0,0.3,0,0.4c0,0.2,0,0.3,0,0.5h-5.2c0.1,1.1,1,1.9,2.1,1.8c0.7,0,1.5-0.3,1.9-0.9l1,0.9
	c-0.7,0.9-1.8,1.4-2.9,1.3c-2,0.1-3.6-1.5-3.7-3.5C200.1,33.6,200.1,33.5,200,33.4L200,33.4z"/>
<path class="st4" d="M213.8,33.3L213.8,33.3c0.1-1.2-0.8-2.2-2-2.3h-0.1c-1.2,0-2.1,1-2.1,2.2c0,0.1,0,0.1,0,0.2l0,0
	c-0.1,1.2,0.8,2.2,2,2.3h0.1C212.9,35.6,213.8,34.6,213.8,33.3C213.8,33.4,213.8,33.4,213.8,33.3L213.8,33.3z M208,33.3L208,33.3
	c-0.2-1.9,1.2-3.6,3.1-3.7c0.1,0,0.1,0,0.2,0c1,0,1.9,0.5,2.5,1.3V27h1.6v10h-1.6v-1.2c-0.5,0.8-1.5,1.3-2.5,1.3
	c-1.9-0.1-3.4-1.6-3.4-3.5C207.9,33.4,208,33.4,208,33.3L208,33.3z"/>
<path class="st4" d="M217.2,29.7h1.6v7.2h-1.6V29.7z M217.2,27.1h1.8v1.5h-1.8V27.1L217.2,27.1z"/>
<path class="st4" d="M220.2,33.4L220.2,33.4c0-2.1,1.6-3.7,3.7-3.8h0.1c1.1,0,2.2,0.4,2.9,1.2l-1,1.1c-0.5-0.6-1.1-0.9-1.9-0.9
	c-1.2,0-2.1,1-2.1,2.2c0,0,0,0,0,0.1l0,0c-0.1,1.2,0.9,2.2,2.1,2.3h0.1c0.7,0,1.4-0.3,1.9-0.9l1,1c-1.3,1.6-3.7,1.8-5.3,0.5
	C220.7,35.5,220.2,34.4,220.2,33.4L220.2,33.4z"/>
<path class="st4" d="M232.6,33.9c-0.5-0.2-1.1-0.3-1.6-0.3c-1,0-1.6,0.4-1.6,1.1l0,0c0,0.7,0.6,1.1,1.4,1.1c1.1,0,1.9-0.6,1.9-1.5
	L232.6,33.9L232.6,33.9z M232.6,36.9V36c-0.6,0.7-1.4,1.1-2.3,1c-1.3,0.2-2.4-0.7-2.6-2c0-0.1,0-0.2,0-0.3l0,0
	c0-1.6,1.2-2.4,2.9-2.4c0.7,0,1.3,0.1,2,0.3v-0.1c0-1-0.6-1.5-1.8-1.5c-0.7,0-1.4,0.2-2.1,0.4l-0.4-1.3c0.9-0.4,1.8-0.6,2.7-0.6
	c1.5-0.2,2.9,0.8,3.2,2.4c0,0.2,0,0.5,0,0.7v4.3L232.6,36.9z"/>
<path class="st4" d="M235.9,27h1.7v10h-1.7V27L235.9,27z"/>
<path class="st4" d="M241.9,35.5l1-1.2c0.8,0.8,1.9,1.2,3,1.2c1,0,1.7-0.5,1.7-1.2l0,0c0-0.7-0.4-1-2.2-1.5c-2-0.5-3.2-1.1-3.2-2.9
	l0,0c0.1-1.6,1.4-2.9,3-2.8c0.1,0,0.1,0,0.2,0c1.3,0,2.5,0.4,3.5,1.2l-0.9,1.3c-0.7-0.6-1.7-1-2.6-1c-1,0-1.6,0.5-1.6,1.1l0,0
	c0,0.7,0.4,1.1,2.3,1.5c1.8,0.4,3.1,1.2,3.1,2.8l0,0c0,1.8-1.4,2.9-3.4,2.9C244.4,37.1,243,36.6,241.9,35.5L241.9,35.5z"/>
<path class="st4" d="M250.4,33.4L250.4,33.4c0-2.1,1.6-3.7,3.7-3.8h0.1c1.1,0,2.2,0.4,2.9,1.2l-1,1.1c-0.5-0.6-1.1-0.9-1.9-0.9
	c-1.2,0-2.1,1-2.1,2.2c0,0,0,0,0,0.1l0,0c-0.1,1.2,0.9,2.2,2.1,2.3h0.1c0.7,0,1.4-0.3,1.9-0.9l1,1c-1.3,1.6-3.7,1.8-5.3,0.5
	C250.9,35.5,250.4,34.4,250.4,33.4L250.4,33.4z"/>
<path class="st4" d="M258.2,29.7h1.6v7.2h-1.6V29.7z M258.1,27.1h1.8v1.5h-1.8V27.1L258.1,27.1z"/>
<path class="st4" d="M266.6,32.8c0-1-0.8-1.9-1.8-1.9s-1.8,0.9-1.9,1.9H266.6z M261.2,33.4L261.2,33.4c-0.1-2,1.4-3.6,3.4-3.7h0.1
	c1.9,0,3.5,1.6,3.5,3.5c0,0.1,0,0.3,0,0.4c0,0.2,0,0.3,0,0.5H263c0.1,1.1,1,1.9,2.1,1.8c0.7,0,1.5-0.3,1.9-0.9l1,0.9
	c-0.7,0.9-1.8,1.4-2.9,1.3c-2,0.1-3.6-1.5-3.7-3.5C261.3,33.6,261.3,33.5,261.2,33.4L261.2,33.4z"/>
<path class="st4" d="M269.5,29.7h1.6v1.1c0.5-0.8,1.3-1.3,2.2-1.3c1.4-0.1,2.5,0.9,2.6,2.3c0,0.2,0,0.3,0,0.5v4.6h-1.6v-4.1
	c0-1.1-0.6-1.8-1.5-1.8s-1.6,0.7-1.6,1.6c0,0.1,0,0.1,0,0.2v4.1h-1.6L269.5,29.7L269.5,29.7z"/>
<path class="st4" d="M277.3,33.4L277.3,33.4c0-2.1,1.6-3.7,3.6-3.8h0.1c1.1,0,2.2,0.4,2.9,1.2l-1,1.1c-0.5-0.6-1.1-0.9-1.9-0.9
	c-1.2,0-2.1,1-2.1,2.2c0,0,0,0,0,0.1l0,0c-0.1,1.2,0.9,2.2,2.1,2.3h0.1c0.7,0,1.4-0.3,1.9-0.9l1,1c-0.7,0.9-1.8,1.4-2.9,1.3
	C279,37,277.3,35.4,277.3,33.4C277.3,33.3,277.3,33.3,277.3,33.4L277.3,33.4z"/>
<path class="st4" d="M289.9,32.8c0-1-0.8-1.9-1.8-1.9s-1.8,0.9-1.9,1.9H289.9z M284.5,33.4L284.5,33.4c-0.1-2,1.4-3.6,3.4-3.7h0.1
	c1.9,0,3.5,1.6,3.5,3.5c0,0.1,0,0.3,0,0.4c0,0.2,0,0.3,0,0.5h-5.2c0.1,1.1,1,1.9,2.1,1.8c0.7,0,1.5-0.3,1.9-0.9l1,0.9
	c-0.7,0.9-1.8,1.4-2.9,1.3c-2,0.1-3.6-1.5-3.7-3.5C284.6,33.6,284.6,33.5,284.5,33.4L284.5,33.4z"/>
<path class="st4" d="M292.2,36l0.7-1.1c0.7,0.5,1.5,0.9,2.4,0.9c0.7,0,1.1-0.3,1.1-0.8l0,0c0-0.6-0.8-0.7-1.6-1
	c-1.1-0.3-2.2-0.7-2.2-2.1l0,0c0-1.3,1.1-2.3,2.4-2.2c0.1,0,0.2,0,0.2,0c0.9,0,1.8,0.3,2.6,0.8l-0.7,1.2c-0.6-0.4-1.3-0.6-2-0.7
	c-0.6,0-1,0.3-1,0.7l0,0c0,0.5,0.8,0.7,1.6,1c1,0.3,2.2,0.8,2.2,2.1l0,0c0,1.5-1.2,2.3-2.6,2.3C294.3,37,293.2,36.7,292.2,36
	L292.2,36z"/>
<path class="st4" d="M146.7,40.4h-0.6v-0.7h0.6c0.3,0,0.5,0.1,0.5,0.4S147,40.4,146.7,40.4L146.7,40.4z M147.9,40
	c0-0.6-0.5-0.9-1.1-0.9h-1.3v2.7h0.7V41h0.4l0.6,0.9h0.8l-0.7-1C147.6,40.7,147.8,40.4,147.9,40L147.9,40z"/>
<path class="st4" d="M148.9,40.5L148.9,40.5c0.1,1.3-0.9,2.4-2.1,2.5c-1.3,0.1-2.4-0.9-2.5-2.1c0-0.1,0-0.2,0-0.3l0,0
	c-0.1-1.3,0.9-2.4,2.1-2.5c1.3-0.1,2.4,0.9,2.5,2.1C148.9,40.2,148.9,40.4,148.9,40.5z M146.6,37.8c-1.5,0-2.8,1.2-2.8,2.8
	c0,1.5,1.2,2.8,2.8,2.8c1.5,0,2.8-1.2,2.8-2.8C149.3,39,148.1,37.8,146.6,37.8L146.6,37.8z"/>
<polygon class="st25" points="596.7,280.4 594.7,280.4 576.9,236.4 578.9,236.4 "/>
<path class="st0" d="M791,286.8h-43.7l-20.4-50.4H791V286.8z"/>
</svg>
