<?xml version="1.0" encoding="UTF-8" standalone="no"?>
<!-- Generator: Adobe Illustrator 16.0.0, SVG Export Plug-In . SVG Version: 6.00 Build 0)  -->
<!DOCTYPE svg  PUBLIC '-//W3C//DTD SVG 1.1//EN'  'http://www.w3.org/Graphics/SVG/1.1/DTD/svg11.dtd'>
<svg id="Layer_1" xmlns="http://www.w3.org/2000/svg" xml:space="preserve" height="700.17px" viewBox="0 0 863.5 700.167" width="863.5px" version="1.1" y="0px" x="0px" xmlns:xlink="http://www.w3.org/1999/xlink" enable-background="new 0 0 863.5 700.167">
	<polygon points="363.12 2.716 362.42 2.002 358.72 5.623 355.01 2.002 354.31 2.716 358.71 7.025 358.72 7.021 358.72 7.025" fill="#4C2F83"/>
	<polygon points="356.92 54.772 356.2 55.471 359.82 59.174 356.2 62.879 356.92 63.579 361.23 59.178 361.22 59.174 361.23 59.172" fill="#4C2F83"/>
	<polygon points="363.12 21.825 362.42 21.111 358.72 24.732 355.01 21.111 354.31 21.825 358.71 26.135 358.72 26.131 358.72 26.135"/>
	<polygon points="363.12 38.411 362.42 37.697 358.72 41.318 355.01 37.697 354.31 38.411 358.71 42.72 358.72 42.716 358.72 42.72" fill="#D1D3D4"/>
	<path d="m317.19 448.88v-12.078l8.379 13.471h0.824v-14.729l1.396-1.389h-4.21l1.396 1.389v10.248l-7.267-11.635h-3.336l1.368 1.389v13.336l-1.368 1.395h4.211l-1.39-1.4zm-12.45 0.51c-3.226 0-4.342-3.855-4.342-7.186 0-3.334 1.12-7.189 4.342-7.189 3.251 0 4.372 3.855 4.372 7.189 0 3.34-1.12 7.19-4.37 7.19m-6.45-7.18c0 4.098 2.323 8.414 6.445 8.414 4.148 0 6.476-4.316 6.476-8.414 0-4.096-2.312-8.414-6.476-8.414-4.12 0-6.45 4.31-6.45 8.41m-7.28 6.78v-13.637h3.058l1.719 1.725v-2.922h-11.337v2.918l1.749-1.723h3.033v13.635l-1.258 1.281h4.316l-1.28-1.29zm-11.94-6.05v5.189c-0.381 0.387-1.145 1.146-2.647 1.146-3.581 0-5.379-3.605-5.379-7.074 0-3.496 2.267-7.074 5.379-7.074 0.817 0 1.42 0.189 1.967 0.766l1.776 1.744v-2.785c-0.956-0.488-1.913-0.93-3.743-0.93-4.398 0-7.486 3.936-7.486 8.279 0 4.26 3.09 8.277 7.486 8.277 2.487 0 3.551-0.605 4.425-1.189v-6.354l1.255-1.281h-4.316l1.27 1.27zm-23.9 5.94v-12.078l8.479 13.479 0.732-0.008v-14.729l1.39-1.389h-4.206l1.395 1.389v10.248l-7.265-11.635h-3.335l1.369 1.389v13.336l-1.369 1.395h4.211l-1.4-1.4zm-11.55-14.73l1.284 1.283v13.549l-1.284 1.279h4.339l-1.281-1.279v-13.549l1.281-1.283h-4.34zm-14.32 8.03h6.776v6.809l-1.283 1.279h4.343l-1.285-1.279v-13.549l1.285-1.283h-4.343l1.283 1.283v5.541h-6.776v-5.541l1.287-1.283h-4.318l1.257 1.283v13.549l-1.257 1.279h4.318l-1.287-1.279v-6.81zm-7.26 3.61c0-1.586-0.738-2.572-1.502-3.092l-3.28-2.377c-1.175-0.846-1.776-1.936-1.776-2.76 0-1.689 1.449-2.295 2.323-2.295 0.461 0 0.79 0.189 1.037 0.189l1.418 1.533 1.503-2.24-3.197-0.605c-0.218-0.053-0.355-0.082-0.761-0.082-2.816 0-4.1 2.404-4.1 3.963 0 1.227 0.624 2.621 2.073 3.682l3.305 2.379c0.901 0.631 1.146 1.559 1.146 2.352 0 1.369-0.844 2.855-2.673 2.855-0.439 0-0.824-0.084-1.124-0.23l-1.53-1.799-1.393 2.512 3.086 0.605s0.519 0.105 0.958 0.105c1.93 0.03 4.47-1.61 4.47-4.67m-18.04-8.06l2.213 6.666h-4.509l2.3-6.67zm-3.88 11.28l1.172-3.414h5.331l1.118 3.414-1.256 1.26h4.565l-1.286-1.312-5.025-14.803h-0.819l-5.112 14.803-1.311 1.312h3.878l-1.24-1.26zm-17.14 1.25l3.688-11.662 3.577 11.662h0.82l4.669-14.828 1.311-1.283h-3.876l1.257 1.256-3.414 11.145-3.308-11.145 1.259-1.256h-4.564l1.285 1.283 0.327 1.062-3.09 10.055-3.303-11.146 1.256-1.256h-4.561l1.311 1.283 4.535 14.83h0.8zm-23.88-9.66l-0.613 0.59 0.068 0.227h1.883c-0.295 2.047-0.565 3.814-0.999 6.678-0.61 4.24-1.133 5.742-1.565 6.105-0.137 0.133-0.363 0.201-0.565 0.201-0.274 0-0.705-0.201-1.002-0.34-0.27-0.139-0.497 0.021-0.633 0.158-0.181 0.205-0.384 0.523-0.384 0.773 0 0.451 0.589 0.682 0.976 0.682 0.431 0 1.521-0.359 2.498-1.564 0.77-0.951 1.811-3.158 2.697-8.285 0.16-0.953 0.343-1.904 0.73-4.402l2.313-0.229 0.495-0.588h-2.675c0.68-4.203 1.247-5.473 2.224-5.473 0.683 0 1.246 0.271 1.747 0.75 0.161 0.16 0.409 0.16 0.634-0.023 0.18-0.158 0.455-0.521 0.455-0.838 0.022-0.455-0.592-0.953-1.366-0.953-1.317 0-2.697 0.771-3.65 1.904-0.885 1.07-1.474 2.789-1.795 4.635h-1.473-0.01zm-10.21 5.95c0-3.357 1.699-5.176 2.406-5.471 0.2-0.092 0.521-0.18 0.747-0.18 1.135 0 1.794 0.854 1.794 2.604 0.045 2.951-1.499 5.631-2.451 5.947-0.181 0.061-0.476 0.158-0.7 0.158-1.28 0-1.8-1.35-1.8-3.06m3.88-6.49c-0.589 0-1.52 0.27-2.45 0.814-1.568 0.932-3.27 3.041-3.27 6.219 0 1.592 0.748 3.361 2.86 3.361 1 0 2.428-0.662 3.383-1.523 1.499-1.361 2.379-3.699 2.379-5.723 0.01-1.88-0.99-3.15-2.9-3.15m-26.3-4.62l4.071 7.346v6.203l-1.281 1.279h4.341l-1.281-1.279v-6.203l4.147-7.322 1.339-1.309h-3.987l1.259 1.256-3.389 6.033-3.225-6.033 1.257-1.256h-4.561l1.31 1.28zm-8.49 13.55v-13.637h3.059l1.721 1.725v-2.922h-11.339v2.918l1.749-1.723h3.031v13.635l-1.255 1.281h4.314l-1.27-1.29zm-14.62-14.84l1.284 1.283v13.549l-1.284 1.279h4.345l-1.283-1.279v-13.549l1.283-1.283h-4.34zm-4.67 11.64c0-1.586-0.742-2.572-1.503-3.092l-3.281-2.377c-1.174-0.846-1.775-1.936-1.775-2.76 0-1.689 1.449-2.295 2.322-2.295 0.465 0 0.792 0.189 1.039 0.189l1.419 1.533 1.501-2.24-3.193-0.605c-0.22-0.055-0.354-0.082-0.762-0.082-2.817 0-4.099 2.4-4.099 3.965 0 1.225 0.626 2.619 2.077 3.684l3.305 2.379c0.901 0.627 1.147 1.557 1.147 2.35 0 1.367-0.848 2.855-2.677 2.855-0.437 0-0.818-0.086-1.119-0.23l-1.532-1.801-1.394 2.521 3.088 0.604s0.519 0.105 0.954 0.105c1.943 0.01 4.483-1.63 4.483-4.69m-20.709-10.44h1.967c1.721 0 3.088 1.475 3.088 3.227 0 1.664-1.395 2.977-3.088 2.977h-1.967v-6.21zm0 13.64v-6.23h2.434l3.904 7.51h2.677l-1.258-1.27-3.604-6.611c1.802-0.549 3.03-2.24 3.03-3.77 0-2.73-2.539-4.451-5.218-4.451h-4.998l1.257 1.283v13.549l-1.257 1.27h4.312l-1.279-1.28zm-7.238 1.27v-2.947l-1.724 1.744h-4.888v-6.77h3.632l1.286 1.279v-3.76l-1.286 1.285h-3.632v-5.74h4.89l1.724 1.729v-2.922h-9.645l1.257 1.279v13.555l-1.257 1.275h9.643zm-20.9-16.11h-4.563l1.313 1.283 4.533 14.828h0.819l4.669-14.828 1.312-1.283h-3.881l1.26 1.254-3.417 11.145-3.3-11.145 1.255-1.25zm-12.51 0l1.285 1.283v13.549l-1.285 1.279h4.343l-1.283-1.279v-13.549l1.283-1.283h-4.343zm-14.998 14.73v-12.078l8.647 13.471h0.558v-14.729l1.394-1.389h-4.207l1.394 1.389v10.248l-7.265-11.635h-3.333l1.366 1.389v13.336l-1.366 1.395h4.205l-1.393-1.4zm-18.142-2.92c0 2.645 2.243 4.668 5.001 4.668 2.621 0 5.217-1.938 5.217-4.668v-10.414l1.367-1.389h-4.207l1.393 1.389v10.414c0 1.854-1.473 3.328-3.333 3.328-1.884 0-3.552-1.447-3.552-3.328v-10.414l1.397-1.389h-4.673l1.391 1.389-0.001 10.41z" fill="#fff"/>
<path d="m88.27 9.119v14.584h10.25l-11.44 42.609s-14.011-56.4-14.206-57.193h-14.816c-0.207 0.773-15.374 57.193-15.374 57.193l-10.536-42.609h10.675v-14.584h-42.823v14.584h9.49s16.365 65.506 16.57 66.297h22.987c0.204-0.779 10.968-41.715 10.968-41.715 6.83 27.308 6.493 25.58 10.429 41.715h22.998c0.198-0.779 17.431-66.297 17.431-66.297h9.413v-14.584h-32.01z" fill="#fff"/>
<polygon points="591.55 5.064 583.17 22.69 584.28 22.69 592.66 5.064" fill="#D2D3D4"/>
<polygon points="619.76 3.579 607.65 35.953 608.18 35.953 620.29 3.579" fill="#919396"/>
<polygon points="667.91 0 631.27 111.06 632.36 111.06 669 0" fill="#fff"/>
<g fill="#fff">
	<path d="m543.09 13.397c0-7.387 6.01-13.397 13.39-13.397 7.387 0 13.396 6.011 13.396 13.397 0 7.389-6.012 13.399-13.396 13.399-7.38 0.001-13.39-6.01-13.39-13.399zm3.01 0c0 5.727 4.656 10.385 10.396 10.385 5.726 0 10.384-4.658 10.384-10.385 0-5.726-4.658-10.381-10.384-10.381-5.74 0.001-10.4 4.657-10.4 10.381z"/>
		<rect transform="matrix(-.7067 -.7075 .7075 -.7067 907.47 429.84)" height="13.455" width="3.363" y="20.111" x="541.14"/>
</g>
<path d="m298.94 21.092c-5.815 0-10.545-4.731-10.545-10.546 0-5.816 4.73-10.546 10.54-10.546s10.544 4.73 10.544 10.546c0.01 5.813-4.72 10.546-10.54 10.546zm0-19.175c-4.757 0-8.627 3.872-8.627 8.629s3.87 8.627 8.627 8.627c4.758 0 8.627-3.871 8.627-8.627 0-4.758-3.87-8.629-8.63-8.629z"/>
<rect y="9.586" x="295.11" height="1.918" width="7.668"/>
<rect y="6.711" x="297.98" height="7.669" width="1.918"/>
<path d="m123.48 580.35c-7.785 0-14.118-6.336-14.118-14.121-0.001-7.783 6.333-14.117 14.118-14.117s14.117 6.334 14.117 14.117-6.34 14.12-14.12 14.12zm0-25.68c-6.368 0-11.55 5.188-11.55 11.553 0 6.369 5.182 11.551 11.55 11.551 6.371 0 11.551-5.184 11.551-11.551 0-6.36-5.18-11.55-11.55-11.55z" fill="#fff"/>
<rect y="564.94" x="118.35" height="2.568" width="10.266" fill="#fff"/>
<rect y="561.09" x="122.2" height="10.268" width="2.568" fill="#fff"/>
<path d="m298.94 99.766c-5.815 0-10.545-4.731-10.545-10.546-0.001-5.816 4.73-10.546 10.545-10.546s10.544 4.73 10.544 10.546c0.01 5.813-4.72 10.546-10.54 10.546zm0-19.175c-4.757 0-8.627 3.872-8.627 8.629s3.87 8.627 8.627 8.627c4.758 0 8.627-3.871 8.627-8.627 0-4.758-3.87-8.629-8.63-8.629z" fill="#fff"/>
<rect y="88.26" x="295.11" height="1.918" width="7.668" fill="#fff"/>
<rect y="85.385" x="297.98" height="7.669" width="1.918" fill="#fff"/>
<rect y="116.83" x="409.98" height="16.424" width="3.646" fill="#FED800"/>
<path d="m291.49 43.22c-4.111-4.112-4.111-10.802 0-14.914 4.112-4.112 10.802-4.112 14.917 0 4.104 4.112 4.104 10.801-0.002 14.914-4.12 4.11-10.81 4.112-14.92 0zm13.55-13.559c-3.364-3.364-8.838-3.363-12.202 0-3.363 3.364-3.364 8.837 0 12.202s8.837 3.363 12.2 0c3.37-3.364 3.37-8.837 0-12.202z" fill="#231F20"/>
<rect y="34.784" x="295.1" height="1.917" width="7.668" fill="#231F20"/>
<path d="m291.49 69.395c-4.111-4.112-4.111-10.802 0-14.914 4.112-4.112 10.802-4.112 14.917 0 4.104 4.112 4.104 10.801-0.002 14.914-4.12 4.11-10.81 4.112-14.92 0zm13.55-13.559c-3.364-3.364-8.838-3.363-12.202 0-3.363 3.364-3.364 8.837 0 12.202s8.837 3.363 12.2 0c3.37-3.364 3.37-8.837 0-12.202z" fill="#FED800"/>
<rect y="60.998" x="295.09" height="1.918" width="7.669" fill="#FED800"/>
<path d="m325.76 21.092c-5.812 0-10.545-4.731-10.545-10.546 0-5.816 4.73-10.546 10.54-10.546 5.815 0 10.546 4.73 10.546 10.546 0 5.813-4.73 10.546-10.55 10.546zm0-19.175c-4.757 0-8.626 3.872-8.626 8.629s3.869 8.627 8.626 8.627c4.768 0 8.629-3.871 8.629-8.627 0-4.758-3.87-8.629-8.63-8.629z" fill="#4C2F83"/>
<rect y="9.586" x="321.93" height="1.918" width="7.668" fill="#4C2F83"/>
<rect y="6.711" x="324.8" height="7.669" width="1.918" fill="#4C2F83"/>
<path d="m318.31 43.22c-4.104-4.112-4.104-10.802 0-14.914 4.113-4.112 10.811-4.112 14.915 0 4.111 4.112 4.111 10.801-0.002 14.914-4.11 4.11-10.8 4.112-14.91 0zm13.56-13.559c-3.364-3.364-8.838-3.363-12.202 0-3.364 3.364-3.364 8.837 0 12.202s8.837 3.363 12.201 0c3.36-3.364 3.36-8.837 0-12.202z" fill="#4C2F83"/>
<rect y="34.823" x="321.91" height="1.917" width="7.668" fill="#4C2F83"/>
<g fill="#4C2F83">
		<rect transform="matrix(-.7072 -.707 .707 -.7072 -324.67 863.35)" height="3.629" width="12.603" y="497.09" x="10.127"/>
		<rect transform="matrix(-.7072 -.707 .707 -.7072 -329.09 874.29)" height="12.605" width="3.624" y="498.99" x="14.689"/>
</g>
<path d="m4.423 576.01c-5.897-5.896-5.895-15.49 0-21.389 5.898-5.896 15.491-5.896 21.389 0 5.897 5.895 5.897 15.49-0.001 21.389-5.897 5.89-15.493 5.9-21.388 0zm19.445-19.45c-4.824-4.822-12.673-4.822-17.5 0.004-4.824 4.822-4.824 12.672 0 17.496 4.828 4.826 12.673 4.824 17.5 0 4.823-4.82 4.825-12.67 0-17.5z" fill="#4C2F83"/>
<path d="m5.506 643.59c-6.074-6.076-6.074-15.961 0-22.035 6.078-6.076 15.963-6.076 22.04-0.002 6.074 6.078 6.074 15.959-0.004 22.037-6.073 6.07-15.962 6.07-22.036-0.01zm20.036-20.03c-4.972-4.973-13.059-4.973-18.032 0-4.971 4.971-4.971 13.061 0 18.027 4.973 4.975 13.058 4.971 18.03 0 4.97-4.97 4.974-13.06 0.002-18.03z" fill="#4C2F83"/>
<g fill="#4C2F83">
		<rect transform="matrix(-.7072 -.707 .707 -.7072 -414.97 1088.4)" height="2.836" width="9.854" y="628.71" x="12.962"/>
		<rect transform="matrix(-.7075 -.7067 .7067 -.7075 -418.33 1097.1)" height="9.856" width="2.833" y="630.17" x="16.433"/>
</g>
<path d="m53.856 643.59c-6.076-6.076-6.074-15.961 0-22.035 6.078-6.076 15.962-6.076 22.038-0.002 6.076 6.078 6.076 15.959-0.002 22.037-6.076 6.07-15.962 6.07-22.036-0.01zm20.035-20.03c-4.974-4.973-13.057-4.973-18.034 0-4.971 4.971-4.971 13.061 0 18.027 4.977 4.975 13.058 4.971 18.034 0 4.967-4.97 4.97-13.06 0-18.03z" fill="#fff"/>
<g fill="#fff">
		<rect transform="matrix(-.707 -.7072 .7072 -.707 -332.66 1122.4)" height="2.832" width="9.857" y="628.7" x="61.251"/>
		<rect transform="matrix(-.7074 -.7068 .7068 -.7074 -335.77 1131.1)" height="9.847" width="2.832" y="630.15" x="64.841"/>
</g>
<g fill="#5A5B5D">
	<polygon points="263.49 23.276 263.49 19.049 267.61 19.049 267.61 23.276 271.86 23.276 271.86 17.873 265.65 12.167 259.38 17.91 259.38 23.276"/>
	<polygon points="272.69 17.222 265.62 10.756 258.54 17.222 257.1 15.64 265.62 7.852 274.14 15.64"/>
</g>
	<rect y="236.52" x="138.31" height="25.523" width="25.522" fill="#CD332D"/>
	<path d="m149.3 239.02h-1.162l-0.785 3.015-0.815-3.015h-1.21c0.242 0.711 0.494 1.427 0.737 2.139 0.369 1.07 0.599 1.877 0.703 2.429v3.108h1.15v-3.108l1.38-4.57zm3.07 5.82v-2.004c0-0.611-0.105-1.058-0.321-1.348-0.288-0.389-0.691-0.586-1.21-0.586-0.516 0-0.92 0.197-1.208 0.586-0.222 0.29-0.325 0.737-0.325 1.348v2.004c0 0.608 0.103 1.059 0.325 1.346 0.286 0.39 0.691 0.586 1.208 0.586 0.52 0 0.922-0.196 1.21-0.586 0.22-0.29 0.33-0.74 0.33-1.35zm-1.04 0.2c0 0.529-0.16 0.794-0.494 0.794-0.335 0-0.495-0.265-0.495-0.794v-2.407c0-0.528 0.16-0.791 0.495-0.791s0.494 0.263 0.494 0.791v2.41zm4.87 1.65v-5.72h-1.037v4.372c-0.23 0.325-0.447 0.485-0.655 0.485-0.139 0-0.22-0.083-0.242-0.242-0.014-0.034-0.014-0.161-0.014-0.404v-4.209h-1.033v4.524c0 0.404 0.036 0.678 0.092 0.848 0.103 0.292 0.334 0.427 0.668 0.427 0.379 0 0.771-0.23 1.184-0.704v0.624h1.04z" fill="#fff"/>
	<path d="m159.56 253.64c0 1.323-0.001 2.729-0.298 4.013-0.208 0.902-0.946 1.57-1.835 1.669-2.105 0.235-4.236 0.235-6.356 0.235-2.121 0.002-4.251 0-6.356-0.235-0.89-0.1-1.628-0.767-1.834-1.669-0.296-1.284-0.296-2.69-0.296-4.013s0.002-2.727 0.299-4.013c0.207-0.902 0.945-1.569 1.834-1.668 2.104-0.235 4.235-0.235 6.356-0.235s4.251 0 6.356 0.235c0.889 0.099 1.628 0.766 1.834 1.668 0.31 1.28 0.31 2.68 0.31 4.01z" fill="#fff"/>
	<path d="m147.43 250.78v-1.068h-3.577v1.068h1.207v6.528h1.141v-6.528h1.23zm2.07 6.53v-0.617c-0.406 0.468-0.793 0.696-1.171 0.696-0.332 0-0.559-0.134-0.661-0.419-0.056-0.172-0.09-0.442-0.09-0.843v-4.477h1.025v4.17c0 0.239 0 0.365 0.01 0.398 0.025 0.16 0.104 0.238 0.24 0.238 0.206 0 0.421-0.16 0.648-0.481v-4.326h1.028v5.661h-1.03zm3.9-1.62c0 0.511-0.151 0.763-0.446 0.763-0.168 0-0.341-0.081-0.511-0.252v-3.45c0.171-0.168 0.343-0.25 0.511-0.25 0.295 0 0.446 0.265 0.446 0.774v2.42zm1.02-0.08v-2.254c0-0.536-0.035-0.911-0.104-1.139-0.137-0.423-0.412-0.638-0.82-0.638-0.377 0-0.729 0.206-1.06 0.614v-2.48h-1.026v7.599h1.026v-0.551c0.343 0.424 0.695 0.627 1.06 0.627 0.409 0 0.683-0.217 0.82-0.635 0.07-0.25 0.1-0.63 0.1-1.15zm2.85-1.8h-1.025v-0.523c0-0.523 0.17-0.786 0.515-0.786 0.339 0 0.511 0.264 0.511 0.786v0.52zm1.03 1.69v-0.15h-1.047c0 0.414-0.012 0.638-0.022 0.694-0.059 0.274-0.206 0.414-0.458 0.414-0.352 0-0.523-0.261-0.523-0.785v-1.003h2.051v-1.173c0-0.605-0.103-1.048-0.317-1.333-0.288-0.388-0.696-0.581-1.21-0.581-0.523 0-0.933 0.193-1.229 0.581-0.218 0.286-0.316 0.728-0.316 1.333v1.984c0 0.6 0.112 1.048 0.329 1.329 0.297 0.388 0.705 0.582 1.242 0.582s0.957-0.203 1.241-0.614c0.125-0.182 0.204-0.388 0.238-0.615 0.01-0.1 0.03-0.33 0.03-0.66z" fill="#CD332D"/>
	<rect y="236.52" x="276.69" height="25.523" width="25.522" fill="#CC3732"/>
	<path d="m289.04 240.52c0.164 0.098 0.342 0.243 0.539 0.434 0.194 0.198 0.38 0.443 0.562 0.731 0.177 0.272 0.332 0.596 0.469 0.968 0.112 0.371 0.163 0.807 0.163 1.302-0.014 0.909-0.216 1.638-0.599 2.184-0.188 0.265-0.389 0.509-0.602 0.732-0.234 0.225-0.484 0.452-0.749 0.682-0.152 0.159-0.292 0.336-0.417 0.534-0.152 0.205-0.231 0.445-0.231 0.718 0 0.266 0.081 0.484 0.235 0.658 0.13 0.164 0.26 0.31 0.382 0.434l0.862 0.705c0.535 0.441 1.005 0.921 1.409 1.453 0.38 0.536 0.578 1.24 0.597 2.107 0 1.231-0.545 2.324-1.633 3.275-1.13 0.984-2.758 1.492-4.886 1.525-1.781-0.018-3.109-0.396-3.989-1.137-0.885-0.692-1.329-1.521-1.329-2.488 0-0.468 0.143-0.993 0.434-1.571 0.278-0.577 0.785-1.084 1.519-1.521 0.823-0.47 1.688-0.784 2.594-0.941 0.898-0.131 1.644-0.206 2.236-0.223-0.184-0.241-0.346-0.499-0.49-0.774-0.164-0.267-0.247-0.587-0.247-0.958 0-0.225 0.028-0.413 0.092-0.561 0.056-0.16 0.108-0.303 0.155-0.437-0.289 0.033-0.559 0.049-0.813 0.049-1.354-0.016-2.385-0.441-3.095-1.276-0.74-0.778-1.115-1.682-1.115-2.716 0-1.248 0.526-2.381 1.579-3.398 0.723-0.596 1.474-0.984 2.253-1.167 0.774-0.158 1.497-0.235 2.167-0.235h5.084l-1.57 0.918h-1.57v-0.005l0.02 0.02zm0.98 14.64c0-0.644-0.21-1.209-0.632-1.685-0.446-0.454-1.141-1.013-2.088-1.676-0.163-0.019-0.352-0.023-0.571-0.023-0.126-0.017-0.458 0-0.993 0.049-0.525 0.074-1.065 0.195-1.615 0.36-0.126 0.049-0.307 0.125-0.546 0.224-0.234 0.108-0.473 0.261-0.717 0.458-0.234 0.207-0.433 0.463-0.594 0.769-0.187 0.323-0.279 0.711-0.279 1.166 0 0.894 0.404 1.63 1.213 2.209 0.77 0.578 1.821 0.876 3.158 0.892 1.198-0.018 2.113-0.283 2.743-0.794 0.63-0.52 0.93-1.17 0.93-1.96zm-3.54-7.46c0.669-0.024 1.227-0.267 1.677-0.722 0.216-0.323 0.353-0.654 0.415-0.993 0.036-0.344 0.056-0.626 0.056-0.858 0-1.002-0.256-2.012-0.772-3.031-0.238-0.487-0.557-0.886-0.95-1.193-0.401-0.289-0.862-0.442-1.382-0.459-0.689 0.019-1.262 0.296-1.719 0.834-0.382 0.562-0.566 1.193-0.552 1.889 0 0.92 0.269 1.875 0.807 2.871 0.265 0.463 0.597 0.856 1.009 1.18 0.39 0.32 0.86 0.48 1.39 0.48z" fill="#fff"/>
	<polygon points="299.07 242.38 296.4 242.38 296.4 239.71 295.11 239.71 295.11 242.38 292.44 242.38 292.44 243.67 295.11 243.67 295.11 246.34 296.4 246.34 296.4 243.67 299.07 243.67" fill="#fff"/>
	<rect y="236.58" x="230.62" height="25.401" width="25.402" fill="#00B386"/>
	<path d="m245.97 244.78c0-1.182 2.323-1.794 2.323 0.204-0.007 1.096-0.155 2.108-0.391 3.035h2.415c0.184-1.119 0.176-2.223 0.176-3.524 0-3.666-6.765-4.279-6.765 0.367 0 3.265 1.536 4.98 3.145 5.884-1.34 2.629-3.145 4.062-3.145 4.062-5.052-4.117-4.564-11.085-4.564-11.085h-2.201c0.042 9.412 5.014 12.714 5.625 13.204 0.611 0.488 0.733 0.45 1.467 0.408 0.732-0.041 2.402-1.713 4.44-4.891 0.198-0.307 0.374-0.601 0.534-0.886 0.852 0.191 1.463 0.196 1.463 0.196v-1.999c-4.29-0.4-4.53-4.07-4.53-4.97z" fill="#fff"/>
	<rect y="236.52" x="322.81" height="25.523" width="25.521" fill="#32669A"/>
	<polygon points="322.81 262.04 322.81 262.07 348.36 262.07 348.36 236.5 322.78 236.5 322.78 262.07 322.81 262.07 322.81 262.04 322.84 262.04 322.84 236.55 348.31 236.55 348.31 262.02 322.81 262.02 322.81 262.04 322.84 262.04" fill="#231F20"/>
	<path d="m329.33 240.88h12.495c1.187 0 2.154 0.971 2.154 2.158v12.495c0 1.187-0.971 2.156-2.154 2.156h-12.495c-1.188 0-2.158-0.97-2.158-2.156v-12.495c0.01-1.19 0.98-2.16 2.17-2.16zm10.08 1.87c-0.415 0-0.757 0.343-0.757 0.758v1.81c0 0.416 0.343 0.758 0.757 0.758h1.9c0.411 0 0.756-0.342 0.756-0.758v-1.81c0-0.415-0.348-0.758-0.756-0.758h-1.9zm2.67 5.24h-1.479c0.144 0.458 0.22 0.941 0.22 1.443 0 2.796-2.344 5.062-5.229 5.062-2.881 0-5.222-2.266-5.222-5.062 0-0.502 0.076-0.985 0.217-1.443h-1.544v7.101c0 0.369 0.3 0.667 0.668 0.667h11.708c0.368 0 0.668-0.298 0.668-0.667v-7.101h-0.02zm-6.49-2.01c-1.861 0-3.375 1.463-3.375 3.271 0 1.806 1.511 3.271 3.375 3.271 1.866 0 3.377-1.464 3.377-3.271s-1.53-3.27-3.39-3.27z" fill="#fff"/>
	<rect y="236.52" x="92.188" height="25.523" width="25.523" fill="#CA2128"/>
	<path d="m104.95 240.05c-5.098 0-9.232 4.134-9.232 9.23 0 3.778 2.273 7.027 5.526 8.455-0.026-0.646-0.005-1.419 0.161-2.12 0.178-0.75 1.188-5.032 1.188-5.032s-0.295-0.588-0.295-1.46c0-1.366 0.794-2.39 1.782-2.39 0.839 0 1.245 0.632 1.245 1.387 0 0.844-0.539 2.106-0.815 3.275-0.231 0.98 0.492 1.778 1.456 1.778 1.75 0 2.928-2.246 2.928-4.908 0-2.022-1.362-3.537-3.841-3.537-2.799 0-4.544 2.088-4.544 4.421 0 0.804 0.238 1.371 0.609 1.811 0.171 0.2 0.195 0.283 0.132 0.514-0.043 0.17-0.145 0.58-0.188 0.74-0.062 0.235-0.25 0.318-0.462 0.233-1.291-0.525-1.891-1.938-1.891-3.525 0-2.62 2.211-5.767 6.599-5.767 3.523 0 5.845 2.55 5.845 5.29 0 3.622-2.015 6.326-4.982 6.326-0.997 0-1.934-0.539-2.255-1.15 0 0-0.536 2.126-0.649 2.539-0.196 0.709-0.579 1.424-0.93 1.977 0.831 0.245 1.708 0.378 2.617 0.378 5.098 0 9.23-4.132 9.23-9.23-0.01-5.1-4.14-9.24-9.24-9.24z" fill="#fff"/>
	<rect y="236.58" width="25.401" height="25.401" fill="#3B5999"/>
	<path d="m22.152 251.79l0.502-3.887h-3.85v-2.482c0-1.125 0.313-1.895 1.927-1.895l2.058-0.001v-3.478c-0.355-0.047-1.577-0.153-3-0.153-2.969 0-5 1.812-5 5.14v2.867h-3.358v3.888h3.358v9.977h4.015v-9.977h3.348z" fill="#fff"/>
	<rect y="236.52" x="184.44" height="25.522" width="25.523" fill="#017BB6"/>
	<path d="m188.8 246.38h3.6v11.57h-3.6v-11.57zm1.81-5.76c1.151 0 2.084 0.935 2.084 2.084 0 1.151-0.933 2.085-2.084 2.085-1.155 0-2.087-0.934-2.087-2.085 0-1.14 0.93-2.08 2.09-2.08" fill="#fff"/>
	<path d="m194.66 246.38h3.448v1.581h0.049c0.48-0.911 1.654-1.868 3.404-1.868 3.64 0 4.314 2.396 4.314 5.51v6.346h-3.594v-5.625c0-1.343-0.027-3.069-1.871-3.069-1.872 0-2.157 1.462-2.157 2.969v5.724h-3.593v-11.56z" fill="#fff"/>
	<rect y="236.52" x="46.063" height="25.523" width="25.523" fill="#2AA8E0"/>
	<path d="m67.332 244.01c-0.626 0.276-1.299 0.465-2.004 0.549 0.721-0.432 1.275-1.115 1.535-1.932-0.673 0.399-1.42 0.692-2.216 0.849-0.638-0.679-1.545-1.102-2.549-1.102-1.928 0-3.491 1.564-3.491 3.49 0 0.274 0.031 0.54 0.09 0.795-2.901-0.146-5.473-1.535-7.195-3.648-0.3 0.518-0.472 1.116-0.472 1.756 0 1.21 0.616 2.28 1.552 2.905-0.572-0.017-1.109-0.176-1.581-0.437v0.044c0 1.691 1.203 3.103 2.8 3.423-0.292 0.081-0.603 0.124-0.92 0.124-0.225 0-0.444-0.021-0.657-0.062 0.445 1.388 1.733 2.396 3.261 2.425-1.193 0.936-2.699 1.495-4.335 1.495-0.282 0-0.559-0.018-0.832-0.05 1.544 0.991 3.379 1.57 5.352 1.57 6.42 0 9.932-5.321 9.932-9.933 0-0.151-0.004-0.303-0.009-0.452 0.679-0.5 1.27-1.11 1.739-1.81z" fill="#fff"/>
<g fill="#fff">
	<path d="m151.38 206.01c0.334 0 0.494-0.265 0.494-0.793v-2.407c0-0.529-0.161-0.793-0.494-0.793-0.335 0-0.496 0.264-0.496 0.793v2.407c0.01 0.53 0.17 0.79 0.5 0.79z"/>
	<path d="m138.86 222.23h25.522v-25.523h-25.522v25.52zm14.9-21.07h1.034v4.211c0 0.243 0 0.37 0.013 0.404 0.023 0.161 0.104 0.242 0.243 0.242 0.207 0 0.425-0.161 0.655-0.485v-4.372h1.038v5.721h-1.038v-0.624c-0.414 0.473-0.807 0.704-1.185 0.704-0.333 0-0.563-0.136-0.667-0.427-0.057-0.172-0.093-0.447-0.093-0.85v-4.51zm-3.91 1.86c0-0.611 0.103-1.058 0.324-1.348 0.287-0.39 0.691-0.586 1.208-0.586 0.519 0 0.921 0.196 1.21 0.586 0.216 0.29 0.322 0.737 0.322 1.348v2.004c0 0.608-0.106 1.059-0.322 1.346-0.288 0.39-0.691 0.586-1.21 0.586-0.517 0-0.92-0.196-1.208-0.586-0.221-0.287-0.324-0.738-0.324-1.346v-2zm-2.77-3.82l0.815 3.015 0.786-3.015h1.161l-1.383 4.568v3.108h-1.149v-3.108c-0.104-0.552-0.335-1.358-0.703-2.43-0.242-0.712-0.495-1.427-0.737-2.139h1.2zm-3.65 10.61c0.206-0.902 0.944-1.568 1.833-1.667 2.105-0.235 4.236-0.236 6.357-0.235 2.12-0.001 4.25 0 6.356 0.235 0.888 0.099 1.627 0.766 1.834 1.667 0.295 1.287 0.294 2.688 0.294 4.014 0 1.323-0.001 2.727-0.297 4.012-0.208 0.902-0.946 1.569-1.835 1.668-2.106 0.235-4.237 0.235-6.356 0.235-2.122 0-4.251 0-6.357-0.235-0.889-0.1-1.627-0.766-1.833-1.668-0.297-1.285-0.297-2.689-0.297-4.012 0.02-1.32 0.02-2.73 0.32-4.01z"/>
	<path d="m148.87 217.57c0.377 0 0.765-0.228 1.172-0.696v0.618h1.028v-5.662h-1.028v4.327c-0.227 0.321-0.443 0.48-0.648 0.48-0.136 0-0.215-0.082-0.24-0.239-0.01-0.034-0.01-0.159-0.01-0.399v-4.168h-1.025v4.478c0 0.4 0.035 0.669 0.09 0.841 0.1 0.29 0.33 0.42 0.66 0.42z"/>
	<path d="m152.98 216.94c0.343 0.423 0.695 0.627 1.06 0.627 0.41 0 0.684-0.215 0.82-0.636 0.068-0.239 0.104-0.617 0.104-1.14v-2.255c0-0.535-0.036-0.91-0.104-1.138-0.137-0.424-0.412-0.639-0.82-0.639-0.377 0-0.728 0.206-1.06 0.614v-2.481h-1.026v7.599h1.026v-0.55zm0-4c0.171-0.169 0.343-0.25 0.511-0.25 0.296 0 0.447 0.263 0.447 0.773v2.416c0 0.512-0.151 0.764-0.447 0.764-0.167 0-0.34-0.082-0.511-0.252v-3.45z"/>
	<polygon points="145.6 217.49 146.74 217.49 146.74 210.96 147.97 210.96 147.97 209.89 144.39 209.89 144.39 210.96 145.6 210.96"/>
	<path d="m157.34 217.57c0.536 0 0.957-0.203 1.241-0.613 0.124-0.182 0.204-0.388 0.238-0.615 0.01-0.103 0.022-0.332 0.022-0.662v-0.15h-1.048c0 0.413-0.012 0.638-0.021 0.694-0.059 0.274-0.206 0.413-0.458 0.413-0.352 0-0.523-0.262-0.523-0.786v-1.002h2.051v-1.173c0-0.606-0.103-1.048-0.318-1.334-0.287-0.389-0.695-0.581-1.209-0.581-0.523 0-0.934 0.192-1.229 0.581-0.218 0.286-0.316 0.728-0.316 1.334v1.983c0 0.601 0.111 1.048 0.328 1.33 0.3 0.4 0.71 0.59 1.25 0.59zm-0.55-4.1c0-0.523 0.171-0.786 0.515-0.786 0.339 0 0.511 0.263 0.511 0.786v0.524h-1.025l0.01-0.52z"/>
</g>
<g fill="#fff">
	<path d="m289.11 206.17c0.036-0.341 0.056-0.625 0.056-0.858 0-1.002-0.256-2.012-0.768-3.032-0.242-0.488-0.561-0.886-0.953-1.192-0.401-0.289-0.862-0.443-1.382-0.459-0.689 0.018-1.262 0.295-1.719 0.833-0.382 0.563-0.567 1.193-0.553 1.889 0 0.92 0.269 1.875 0.807 2.871 0.265 0.464 0.597 0.856 1.009 1.179 0.416 0.324 0.885 0.486 1.413 0.486 0.669-0.025 1.227-0.267 1.677-0.722 0.2-0.33 0.34-0.66 0.4-1z"/>
	<path d="m283.74 217.19c0.771 0.578 1.821 0.876 3.157 0.893 1.198-0.017 2.113-0.282 2.744-0.793 0.616-0.505 0.923-1.154 0.923-1.948 0-0.646-0.211-1.208-0.632-1.687-0.446-0.454-1.142-1.012-2.089-1.675-0.162-0.017-0.349-0.024-0.57-0.024-0.127-0.016-0.458 0-0.993 0.05-0.525 0.074-1.065 0.195-1.616 0.36-0.126 0.049-0.307 0.125-0.545 0.224-0.234 0.107-0.474 0.26-0.718 0.458-0.234 0.206-0.433 0.462-0.594 0.769-0.188 0.323-0.279 0.711-0.279 1.165 0 0.89 0.4 1.63 1.21 2.21z"/>
	<path d="m277.23 222.23h25.523v-25.523h-25.523v25.52zm15.75-19.67h2.663v-2.667h1.292v2.667h2.667v1.292h-2.667v2.668h-1.292v-2.668h-2.663v-1.29zm-12.18 11.39c0.279-0.577 0.785-1.084 1.519-1.522 0.823-0.47 1.688-0.784 2.594-0.941 0.898-0.131 1.644-0.205 2.236-0.223-0.183-0.241-0.343-0.499-0.487-0.773-0.167-0.266-0.25-0.586-0.25-0.959 0-0.224 0.027-0.413 0.091-0.561 0.057-0.16 0.108-0.304 0.159-0.437-0.289 0.033-0.561 0.049-0.816 0.049-1.353-0.017-2.386-0.443-3.095-1.277-0.74-0.778-1.116-1.683-1.116-2.716 0-1.249 0.526-2.38 1.58-3.398 0.723-0.595 1.473-0.982 2.253-1.166 0.773-0.157 1.496-0.236 2.17-0.236h5.082l-1.57 0.917h-1.57c0.163 0.099 0.342 0.244 0.538 0.433 0.195 0.199 0.38 0.444 0.562 0.732 0.176 0.272 0.332 0.595 0.468 0.967 0.112 0.372 0.164 0.806 0.164 1.302-0.014 0.909-0.216 1.637-0.599 2.183-0.19 0.266-0.39 0.509-0.602 0.733-0.235 0.223-0.485 0.451-0.75 0.682-0.151 0.157-0.291 0.334-0.417 0.533-0.151 0.207-0.23 0.446-0.23 0.719 0 0.266 0.081 0.484 0.234 0.658 0.13 0.166 0.26 0.31 0.384 0.434l0.86 0.706c0.536 0.439 1.006 0.921 1.409 1.451 0.381 0.539 0.58 1.24 0.597 2.108 0 1.231-0.545 2.323-1.634 3.275-1.127 0.984-2.758 1.492-4.886 1.525-1.781-0.017-3.109-0.396-3.988-1.138-0.885-0.694-1.33-1.522-1.33-2.488 0.04-0.44 0.19-0.97 0.47-1.54z"/>
</g>
<path d="m231.17 222.11h25.401v-25.4h-25.401v25.4zm8.54-18.27s-0.489 6.969 4.564 11.085c0 0 1.805-1.432 3.145-4.06-1.607-0.904-3.145-2.621-3.145-5.884 0-4.646 6.765-4.035 6.765-0.368 0 1.301 0.008 2.406-0.175 3.525h-2.416c0.235-0.927 0.383-1.939 0.39-3.035 0-1.997-2.324-1.386-2.324-0.204 0 0.897 0.244 4.564 4.524 4.972v1.998s-0.61-0.003-1.463-0.195c-0.161 0.286-0.337 0.581-0.534 0.887-2.039 3.177-3.708 4.848-4.439 4.89-0.736 0.041-0.856 0.082-1.468-0.408-0.611-0.49-5.583-3.79-5.624-13.204l2.2-0.01z" fill="#fff"/>
<g fill="#fff">
	<path d="m348.85 196.71h-25.476v25.473h25.476v-25.47zm-4.33 18.98c0 1.187-0.974 2.156-2.157 2.156h-12.495c-1.188 0-2.158-0.97-2.158-2.156v-12.495c0-1.187 0.972-2.158 2.158-2.158h12.495c1.187 0 2.157 0.971 2.157 2.158v12.49z"/>
	<path d="m339.96 206.23h1.9c0.417 0 0.757-0.341 0.757-0.757v-1.811c0-0.416-0.348-0.758-0.757-0.758h-1.9c-0.415 0-0.757 0.342-0.757 0.758v1.811c0 0.42 0.34 0.76 0.76 0.76z"/>
	<path d="m341.36 209.59c0 2.794-2.344 5.062-5.229 5.062-2.882 0-5.222-2.268-5.222-5.062 0-0.502 0.076-0.985 0.216-1.444h-1.543v7.101c0 0.368 0.3 0.667 0.668 0.667h11.707c0.368 0 0.667-0.299 0.667-0.667v-7.101h-1.479c0.12 0.45 0.2 0.94 0.2 1.44z"/>
	<ellipse cy="209.41" cx="336.13" rx="3.377" ry="3.271"/>
</g>
<rect y="236.52" x="367.15" height="25.523" width="25.52" fill="#32506D"/>
<path d="m92.731 222.23h25.523v-25.523h-25.519v25.52zm12.759-21.99c5.098 0 9.231 4.133 9.231 9.231s-4.133 9.231-9.231 9.231c-0.909 0-1.786-0.134-2.616-0.378 0.35-0.556 0.734-1.267 0.93-1.978 0.113-0.411 0.649-2.538 0.649-2.538 0.321 0.611 1.258 1.15 2.255 1.15 2.967 0 4.982-2.705 4.982-6.327 0-2.739-2.321-5.289-5.845-5.289-4.387 0-6.598 3.146-6.598 5.767 0 1.588 0.601 3 1.891 3.526 0.211 0.087 0.4 0.003 0.461-0.232 0.044-0.162 0.145-0.569 0.188-0.74 0.063-0.231 0.039-0.312-0.132-0.514-0.372-0.439-0.609-1.007-0.609-1.812 0-2.332 1.745-4.42 4.544-4.42 2.478 0 3.841 1.514 3.841 3.537 0 2.663-1.178 4.908-2.927 4.908-0.964 0-1.688-0.798-1.456-1.777 0.276-1.169 0.814-2.432 0.814-3.276 0-0.755-0.405-1.386-1.245-1.386-0.988 0-1.781 1.022-1.781 2.389 0 0.871 0.295 1.46 0.295 1.46s-1.01 4.281-1.188 5.032c-0.165 0.7-0.186 1.473-0.161 2.119-3.253-1.427-5.525-4.676-5.525-8.455 0.015-5.09 4.155-9.22 9.245-9.22z" fill="#fff"/>
<path d="m0.542 222.11h25.401v-25.4h-25.401v25.4zm11.433-14.09h3.358v-2.867c0-3.328 2.031-5.14 5-5.14 1.423 0 2.645 0.106 3 0.153v3.478h-2.058c-1.614 0-1.927 0.768-1.927 1.894v2.482h3.85l-0.502 3.888h-3.348v9.976h-4.015v-9.976h-3.358v-3.88z" fill="#fff"/>
<path d="m184.98 222.23h25.523v-25.522h-25.523v25.52zm7.97-4.1h-3.601v-11.569h3.601v11.57zm2.26-11.57h3.448v1.582h0.049c0.48-0.911 1.653-1.869 3.405-1.869 3.64 0 4.314 2.395 4.314 5.51v6.345h-3.595v-5.624c0-1.344-0.026-3.069-1.871-3.069-1.871 0-2.156 1.461-2.156 2.969v5.724h-3.593l-0.01-11.56zm-4.06-5.75c1.151 0 2.085 0.935 2.085 2.084 0 1.151-0.934 2.085-2.085 2.085-1.155 0-2.087-0.935-2.087-2.085-0.01-1.16 0.92-2.09 2.08-2.09z" fill="#fff"/>
<path d="m46.606 222.23h25.524v-25.524h-25.524v25.52zm6.161-11.29c0.213 0.042 0.432 0.063 0.657 0.063 0.318 0 0.627-0.043 0.92-0.123-1.597-0.32-2.8-1.731-2.8-3.423v-0.044c0.471 0.261 1.009 0.419 1.581 0.437-0.936-0.625-1.552-1.695-1.552-2.905 0-0.64 0.173-1.239 0.473-1.756 1.722 2.113 4.293 3.503 7.194 3.648-0.059-0.255-0.09-0.521-0.09-0.795 0-1.927 1.562-3.491 3.491-3.491 1.003 0 1.911 0.424 2.549 1.103 0.795-0.157 1.542-0.448 2.216-0.848-0.26 0.815-0.813 1.499-1.535 1.931 0.706-0.084 1.379-0.271 2.004-0.55-0.469 0.701-1.061 1.316-1.741 1.807 0.005 0.151 0.009 0.301 0.009 0.453 0 4.613-3.512 9.931-9.932 9.931-1.973 0-3.808-0.578-5.352-1.568 0.273 0.032 0.55 0.05 0.832 0.05 1.636 0 3.142-0.561 4.335-1.494-1.526-0.04-2.815-1.05-3.259-2.44z" fill="#fff"/>
<path d="m500.94 37.808l7.979-7.979 2.28 2.351-5.735 5.664 5.735 5.699-2.28 2.28-7.98-8.015z" fill="#fff"/>
<path d="m478.06 45.822l-2.271-2.28 5.729-5.699-5.729-5.664 2.271-2.351 7.979 7.979-7.98 8.015z" fill="#fff"/>
<path d="m401.25 35.143c0 2.517-0.891 4.667-2.672 6.447-1.781 1.781-3.938 2.672-6.447 2.672-2.518 0-4.667-0.891-6.447-2.672-1.773-1.781-2.672-3.93-2.672-6.447s0.896-4.667 2.672-6.448c1.78-1.781 3.938-2.671 6.447-2.671 2.521 0 4.666 0.891 6.447 2.671 1.78 1.782 2.67 3.931 2.67 6.448zm-3.64 0c0-1.52-0.534-2.814-1.604-3.883-1.062-1.069-2.355-1.603-3.883-1.603-1.521 0-2.812 0.534-3.883 1.603-1.069 1.069-1.604 2.363-1.604 3.883s0.534 2.814 1.604 3.883c1.068 1.068 2.362 1.603 3.883 1.603s2.813-0.534 3.883-1.603 1.6-2.363 1.6-3.883zm-2.74 0c0 0.76-0.271 1.407-0.802 1.941-0.534 0.534-1.188 0.801-1.941 0.801s-1.407-0.267-1.941-0.801c-0.526-0.535-0.802-1.182-0.802-1.941 0-0.76 0.271-1.407 0.802-1.941 0.534-0.534 1.188-0.802 1.941-0.802s1.407 0.268 1.941 0.802c0.53 0.534 0.8 1.181 0.8 1.941z" fill="#FED800"/>
<path d="m401.25 9.119c0 2.517-0.891 4.667-2.672 6.448s-3.938 2.671-6.447 2.671c-2.518 0-4.667-0.891-6.447-2.671-1.773-1.781-2.672-3.931-2.672-6.448s0.896-4.667 2.672-6.447c1.78-1.781 3.93-2.672 6.45-2.672 2.521 0 4.666 0.891 6.447 2.672 1.78 1.781 2.67 3.93 2.67 6.447zm-3.64 0c0-1.52-0.534-2.814-1.604-3.883-1.062-1.068-2.355-1.603-3.883-1.603-1.521 0-2.812 0.534-3.883 1.603-1.068 1.069-1.604 2.363-1.604 3.883s0.534 2.814 1.604 3.883 2.362 1.603 3.883 1.603c1.521 0 2.813-0.534 3.883-1.603s1.6-2.363 1.6-3.883z" fill="#fff"/>
<path d="m426.13 35.143c0 2.517-0.891 4.667-2.672 6.447-1.781 1.781-3.931 2.672-6.447 2.672-2.518 0-4.667-0.891-6.446-2.672-1.771-1.781-2.673-3.93-2.673-6.447s0.896-4.667 2.673-6.448c1.779-1.781 3.938-2.671 6.446-2.671 2.521 0 4.666 0.891 6.447 2.671 1.78 1.782 2.67 3.931 2.67 6.448zm-3.64 0c0-1.52-0.534-2.814-1.604-3.883-1.062-1.069-2.354-1.603-3.883-1.603-1.521 0-2.812 0.534-3.883 1.603-1.069 1.069-1.604 2.363-1.604 3.883s0.534 2.814 1.604 3.883c1.068 1.068 2.362 1.603 3.883 1.603s2.813-0.534 3.883-1.603 1.6-2.363 1.6-3.883zm-2.74 0c0 0.76-0.268 1.407-0.802 1.941s-1.188 0.801-1.941 0.801-1.407-0.267-1.938-0.801c-0.534-0.535-0.812-1.182-0.812-1.941 0-0.76 0.271-1.407 0.812-1.941 0.521-0.534 1.182-0.802 1.938-0.802s1.407 0.268 1.941 0.802c0.53 0.534 0.8 1.181 0.8 1.941z" fill="#4C2F83"/>
<path d="m426.13 9.119c0 2.517-0.891 4.667-2.672 6.448s-3.931 2.671-6.447 2.671c-2.518 0-4.667-0.891-6.446-2.671-1.771-1.781-2.673-3.931-2.673-6.448s0.896-4.667 2.673-6.447c1.78-1.781 3.93-2.672 6.45-2.672 2.521 0 4.666 0.891 6.447 2.672 1.78 1.781 2.67 3.93 2.67 6.447zm-3.64 0c0-1.52-0.534-2.814-1.604-3.883-1.062-1.068-2.354-1.603-3.883-1.603-1.521 0-2.812 0.534-3.883 1.603-1.068 1.069-1.604 2.363-1.604 3.883s0.534 2.814 1.604 3.883 2.362 1.603 3.883 1.603c1.521 0 2.813-0.534 3.883-1.603s1.6-2.363 1.6-3.883z" fill="#fff"/>
<path d="m456.76 1.335c0.896 0.891 1.336 1.965 1.336 3.224v9.119c0 1.259-0.438 2.333-1.336 3.224-0.891 0.89-1.965 1.335-3.225 1.335h-9.117c-1.26 0-2.334-0.445-3.225-1.335-0.896-0.891-1.336-1.965-1.336-3.224v-9.118c0-1.259 0.438-2.333 1.336-3.224 0.88-0.891 1.96-1.336 3.22-1.336h9.117c1.26 0 2.33 0.445 3.22 1.335zm-1.91 5.433l-0.961-0.962c-0.143-0.166-0.297-0.166-0.463 0l-5.094 5.058c-0.166 0.167-0.334 0.167-0.5 0l-2.207-2.28c-0.072-0.047-0.154-0.071-0.25-0.071s-0.178 0.024-0.25 0.071l-0.996 0.891c-0.072 0.071-0.104 0.154-0.104 0.25 0 0.095 0.021 0.178 0.104 0.249l2.244 2.387c0.047 0.024 0.1 0.065 0.16 0.125 0.059 0.059 0.125 0.125 0.195 0.196 0.062 0.071 0.104 0.119 0.143 0.143l0.961 0.997c0.166 0.143 0.334 0.143 0.5 0l6.518-6.554c0.18-0.167 0.18-0.334 0.01-0.5z" fill="#4C2F83"/>
<path d="m444.16 26.205h9.119c1.258 0 2.332 0.445 3.223 1.335s1.336 1.965 1.336 3.224v9.119c0 1.259-0.445 2.333-1.336 3.224s-1.965 1.336-3.223 1.336h-9.119c-1.26 0-2.334-0.445-3.229-1.336-0.891-0.89-1.336-1.965-1.336-3.224v-9.119c0-1.258 0.445-2.333 1.336-3.224 0.9-0.891 1.97-1.335 3.23-1.335z" fill="#BCBEC0"/>
<path d="m517.38 4.39c0.095 0.119 0.143 0.255 0.143 0.41s-0.048 0.291-0.143 0.41l-10.899 10.9c-0.262 0.261-0.521 0.261-0.812 0l-1.604-1.639c-0.164-0.166-0.438-0.439-0.812-0.819l-3.74-3.918c-0.095-0.119-0.145-0.261-0.145-0.428 0-0.143 0.05-0.273 0.145-0.392l1.646-1.46c0.109-0.119 0.27-0.178 0.436-0.178 0.146 0 0.271 0.059 0.396 0.178l3.698 3.776c0.285 0.261 0.562 0.261 0.82 0l8.479-8.442c0.109-0.119 0.258-0.178 0.4-0.178 0.154 0 0.291 0.06 0.41 0.178l1.56 1.602z" fill="#fff"/>
	<polygon points="489.88 70.322 489.89 70.317 476.97 56.712 474.07 59.465 484.37 70.322 474.07 81.18 476.97 83.932 489.89 70.327" fill="#fff"/>
	<polygon points="498.88 70.322 498.87 70.317 511.78 56.712 514.69 59.465 504.39 70.322 514.69 81.18 511.78 83.932 498.87 70.327" fill="#fff"/>
<g fill="#fff">
	<path d="m99.167 321.84c3.193 0 5.791-3.292 5.791-7.337s-2.598-7.337-5.791-7.337c-3.194 0-5.793 3.292-5.793 7.337s2.597 7.34 5.791 7.34zm0-13.13c2.301 0 4.247 2.652 4.247 5.793s-1.946 5.792-4.247 5.792c-2.303 0-4.248-2.651-4.248-5.792s1.949-5.79 4.252-5.79z"/>
	<path d="m88.394 323.14l-1.545 4.643c-0.078 0.229-0.038 0.484 0.106 0.688 0.145 0.202 0.378 0.321 0.626 0.321h23.168c0.249 0 0.481-0.119 0.627-0.321 0.145-0.202 0.184-0.46 0.106-0.688l-1.545-4.643c-0.081-0.234-0.274-0.43-0.52-0.5l-5.406-1.543c-0.187-0.055-0.384-0.036-0.558 0.061l-4.288 2.146-4.289-2.146c-0.173-0.089-0.371-0.104-0.558-0.061l-5.405 1.543c-0.24 0.07-0.435 0.26-0.516 0.5zm6.062-0.48l4.365 2.184c0.217 0.108 0.474 0.108 0.69 0l4.365-2.184 4.727 1.352 1.076 3.23h-21.036l1.077-3.23 4.725-1.35z"/>
</g>
<g fill="#231F20">
	<path d="m378.21 165.86c2.64 0 4.787-2.722 4.787-6.066s-2.147-6.065-4.787-6.065c-2.641 0-4.79 2.722-4.79 6.065 0 3.36 2.15 6.08 4.79 6.08z"/>
	<path d="m369.3 167.74l-1.273 3.83c-0.064 0.194-0.03 0.408 0.088 0.574 0.12 0.167 0.312 0.266 0.518 0.266h19.154c0.206 0 0.396-0.099 0.519-0.266 0.119-0.167 0.151-0.38 0.087-0.574l-1.273-3.83c-0.066-0.202-0.229-0.355-0.434-0.413l-4.47-1.276c-0.153-0.045-0.313-0.03-0.461 0.042l-3.545 1.775-3.546-1.775c-0.146-0.072-0.311-0.085-0.462-0.042l-4.468 1.276c-0.21 0.07-0.37 0.22-0.44 0.42z"/>
</g>
<g fill="#fff">
	<path d="m65.922 308.71h-3.09v-0.771c0-0.436-0.345-0.771-0.772-0.771h-2.317c-0.426 0-0.771 0.347-0.771 0.771v0.771h-9.268v-0.771c0-0.436-0.347-0.771-0.773-0.771h-2.316c-0.428 0-0.773 0.347-0.773 0.771v0.771h-3.088c-0.427 0-0.773 0.346-0.773 0.771v18.525c0 0.436 0.346 0.771 0.773 0.771h23.169c0.426 0 0.772-0.351 0.772-0.771v-18.525c-0.001-0.42-0.346-0.77-0.773-0.77zm-5.406 0h0.772v1.544h-0.772v-1.54zm-13.13 0h0.773v1.544h-0.773v-1.54zm17.764 18.54h-21.625v-16.99h2.316v0.772c0 0.427 0.346 0.771 0.773 0.771h2.316c0.426 0 0.773-0.345 0.773-0.771v-0.772h9.268v0.772c0 0.427 0.345 0.771 0.771 0.771h2.317c0.427 0 0.772-0.345 0.772-0.771v-0.772h2.318l0.001 16.99z"/>
	<path d="m49.704 314.89h-3.089c-0.428 0-0.773 0.354-0.773 0.771v3.089c0 0.427 0.346 0.771 0.773 0.771h3.089c0.427 0 0.772-0.354 0.772-0.771v-3.089c0-0.42-0.345-0.77-0.772-0.77zm-0.773 3.09h-1.545v-1.545h1.545v1.54z"/>
	<path d="m55.882 314.89h-3.089c-0.426 0-0.771 0.354-0.771 0.771v3.089c0 0.427 0.345 0.771 0.771 0.771h3.089c0.425 0 0.772-0.354 0.772-0.771v-3.089c0-0.42-0.347-0.77-0.772-0.77zm-0.774 3.09h-1.544v-1.545h1.544v1.54z"/>
	<path d="m62.06 314.89h-3.088c-0.428 0-0.773 0.354-0.773 0.771v3.089c0 0.427 0.345 0.771 0.773 0.771h3.088c0.427 0 0.772-0.354 0.772-0.771v-3.089c0.001-0.42-0.345-0.77-0.772-0.77zm-0.772 3.09h-1.545v-1.545h1.545v1.54z"/>
	<path d="m49.704 321.07h-3.089c-0.428 0-0.773 0.346-0.773 0.771v3.089c0 0.427 0.346 0.771 0.773 0.771h3.089c0.427 0 0.772-0.354 0.772-0.771v-3.089c0-0.43-0.345-0.77-0.772-0.77zm-0.773 3.09h-1.545v-1.546h1.545v1.55z"/>
	<path d="m55.882 321.07h-3.089c-0.426 0-0.771 0.346-0.771 0.771v3.089c0 0.427 0.345 0.771 0.771 0.771h3.089c0.425 0 0.772-0.354 0.772-0.771v-3.089c0-0.43-0.347-0.77-0.772-0.77zm-0.774 3.09h-1.544v-1.546h1.544v1.55z"/>
	<path d="m62.06 321.07h-3.088c-0.428 0-0.773 0.346-0.773 0.771v3.089c0 0.427 0.345 0.771 0.773 0.771h3.088c0.427 0 0.772-0.354 0.772-0.771v-3.089c0.001-0.43-0.345-0.77-0.772-0.77zm-0.772 3.09h-1.545v-1.546h1.545v1.55z"/>
</g>
	<path d="m227.09 330.34h14.674c0.852 0 1.544-0.692 1.544-1.546v-21.624c0-0.851-0.693-1.544-1.544-1.544h-14.674c-0.851 0-1.543 0.693-1.543 1.544v2.317h-0.772c-0.426 0-0.772 0.346-0.772 0.771 0 0.429 0.346 0.771 0.772 0.771h0.772v1.545h-0.772c-0.426 0-0.772 0.348-0.772 0.771s0.346 0.771 0.772 0.771h0.772v1.545h-0.772c-0.426 0-0.772 0.346-0.772 0.771 0 0.435 0.346 0.771 0.772 0.771h0.772v1.545h-0.772c-0.426 0-0.772 0.346-0.772 0.771 0 0.438 0.346 0.771 0.772 0.771h0.772v1.545h-0.772c-0.426 0-0.772 0.347-0.772 0.771 0 0.436 0.346 0.771 0.772 0.771h0.772v1.546h-0.772c-0.426 0-0.772 0.346-0.772 0.771 0 0.427 0.346 0.771 0.772 0.771h0.772v2.316c-0.01 0.87 0.69 1.57 1.54 1.57zm14.67-1.55h-3.088v-21.624h3.088v21.62zm-14.67-5.41h0.772c0.427 0 0.772-0.346 0.772-0.771s-0.346-0.771-0.772-0.771h-0.772v-1.545h0.772c0.427 0 0.772-0.344 0.772-0.771 0-0.436-0.346-0.771-0.772-0.771h-0.772v-1.545h0.772c0.427 0 0.772-0.346 0.772-0.771 0-0.435-0.346-0.771-0.772-0.771h-0.772v-1.545h0.772c0.427 0 0.772-0.348 0.772-0.771 0-0.428-0.346-0.771-0.772-0.771h-0.772v-1.545h0.772c0.427 0 0.772-0.345 0.772-0.771s-0.346-0.771-0.772-0.771h-0.772v-2.317h10.042v21.6h-10.042v-2.312h0.772c0.427 0 0.772-0.354 0.772-0.771s-0.346-0.771-0.772-0.771h-0.772v-1.57z" fill="#fff"/>
<g fill="#fff">
	<path d="m155.48 307.17l-11.483 1.53-11.481-1.53c-0.223-0.03-0.445 0.037-0.611 0.188-0.167 0.146-0.264 0.354-0.264 0.58v18.527c0 0.396 0.286 0.723 0.67 0.771l11.585 1.544c0.034 0.005 0.068 0.007 0.101 0.007 0.034 0 0.068-0.002 0.103-0.007l11.583-1.544c0.384-0.052 0.671-0.38 0.671-0.771v-18.53c0-0.229-0.097-0.438-0.263-0.58-0.17-0.15-0.39-0.21-0.61-0.19zm-22.3 1.65l10.04 1.339v16.976l-10.04-1.338v-16.98zm21.63 16.98l-10.04 1.338v-16.98l10.04-1.339v16.98z"/>
	<path d="m135.4 312.57l6.178 0.771c0.032 0.004 0.065 0.007 0.097 0.007 0.383 0 0.718-0.287 0.765-0.678 0.053-0.422-0.246-0.809-0.669-0.861l-6.18-0.771c-0.421-0.055-0.809 0.246-0.861 0.67-0.05 0.42 0.25 0.81 0.67 0.86z"/>
	<path d="m141.78 315.67l-6.18-0.771c-0.421-0.062-0.809 0.238-0.861 0.67-0.052 0.425 0.247 0.812 0.671 0.854l6.178 0.772c0.032 0.004 0.065 0.005 0.097 0.005 0.383 0 0.718-0.286 0.765-0.676 0.04-0.41-0.26-0.8-0.68-0.85z"/>
	<path d="m141.78 319.53l-6.18-0.773c-0.421-0.054-0.809 0.247-0.861 0.671-0.052 0.423 0.247 0.812 0.671 0.862l6.178 0.771c0.032 0.014 0.065 0.016 0.097 0.016 0.383 0 0.718-0.285 0.765-0.686 0.04-0.42-0.26-0.81-0.68-0.86z"/>
	<path d="m141.78 323.39l-6.18-0.771c-0.421-0.057-0.809 0.247-0.861 0.67s0.247 0.811 0.671 0.861l6.178 0.771c0.032 0.004 0.065 0.006 0.097 0.006 0.383 0 0.718-0.285 0.765-0.677 0.04-0.42-0.26-0.81-0.68-0.86z"/>
	<path d="m146.31 313.35c0.033 0 0.066-0.004 0.097-0.008l6.178-0.771c0.424-0.062 0.724-0.438 0.672-0.861-0.054-0.424-0.445-0.727-0.863-0.67l-6.178 0.771c-0.424 0.062-0.725 0.439-0.671 0.861 0.05 0.39 0.38 0.68 0.76 0.68z"/>
	<path d="m146.31 317.21c0.033 0 0.066-0.001 0.097-0.005l6.178-0.773c0.424-0.052 0.724-0.438 0.672-0.854-0.054-0.434-0.445-0.729-0.863-0.671l-6.178 0.771c-0.424 0.053-0.725 0.438-0.671 0.863 0.05 0.38 0.38 0.67 0.76 0.67z"/>
	<path d="m146.31 321.07c0.033 0 0.066-0.002 0.097-0.016l6.178-0.771c0.424-0.055 0.724-0.439 0.672-0.862-0.054-0.424-0.445-0.725-0.863-0.671l-6.178 0.773c-0.424 0.053-0.725 0.438-0.671 0.854 0.05 0.41 0.38 0.7 0.76 0.7z"/>
	<path d="m152.4 322.62l-6.178 0.771c-0.424 0.061-0.725 0.438-0.671 0.859 0.049 0.395 0.382 0.677 0.765 0.677 0.033 0 0.066-0.002 0.097-0.006l6.178-0.771c0.424-0.062 0.724-0.438 0.672-0.862-0.07-0.42-0.46-0.73-0.87-0.67z"/>
</g>
<g fill="#fff">
	<path d="m177.24 321.07h2.531l0.446 1.336-1.979 1.979c-0.302 0.303-0.302 0.791 0 1.094l3.088 3.1c0.303 0.301 0.793 0.301 1.093 0l1.981-1.98 1.334 0.445v2.533c0 0.426 0.347 0.771 0.772 0.771h4.634c0.427 0 0.773-0.348 0.773-0.771v-2.533l1.336-0.445 1.978 1.98c0.303 0.301 0.792 0.301 1.094 0l3.089-3.1c0.301-0.303 0.301-0.791 0-1.094l-1.98-1.979 0.446-1.336h2.531c0.429 0 0.772-0.354 0.772-0.772v-4.633c0-0.427-0.344-0.771-0.772-0.771h-2.531l-0.446-1.339 1.98-1.979c0.301-0.312 0.301-0.791 0-1.093l-3.089-3.1c-0.302-0.302-0.791-0.302-1.094 0l-1.978 1.979-1.336-0.446v-2.531c0-0.428-0.346-0.771-0.773-0.771h-4.634c-0.425 0-0.772 0.345-0.772 0.771v2.531l-1.334 0.446-1.981-1.979c-0.3-0.302-0.79-0.302-1.093 0l-3.088 3.1c-0.302 0.303-0.302 0.779 0 1.093l1.979 1.979-0.446 1.339h-2.531c-0.427 0-0.773 0.354-0.773 0.771v4.633c0 0.42 0.34 0.77 0.77 0.77zm0.77-4.63h2.317c0.333 0 0.628-0.213 0.733-0.521l0.771-2.317c0.093-0.271 0.022-0.583-0.186-0.79l-1.77-1.771 1.997-1.996 1.771 1.771c0.207 0.206 0.513 0.278 0.79 0.188l2.317-0.771c0.315-0.104 0.527-0.396 0.527-0.729v-2.316h3.089v2.316c0 0.332 0.213 0.628 0.528 0.729l2.317 0.771c0.279 0.092 0.583 0.021 0.791-0.188l1.771-1.771 1.997 1.996-1.772 1.771c-0.206 0.206-0.278 0.521-0.184 0.79l0.771 2.317c0.106 0.312 0.401 0.521 0.733 0.521h2.316v3.098h-2.316c-0.333 0-0.627 0.215-0.733 0.521l-0.771 2.316c-0.094 0.271-0.022 0.583 0.184 0.79l1.772 1.771-1.997 1.997-1.771-1.771c-0.207-0.207-0.513-0.279-0.791-0.188l-2.317 0.772c-0.315 0.104-0.528 0.396-0.528 0.729v2.316h-3.089v-2.316c0-0.332-0.212-0.627-0.527-0.729l-2.317-0.772c-0.276-0.092-0.583-0.02-0.79 0.188l-1.771 1.771-1.997-1.997 1.77-1.771c0.208-0.207 0.279-0.521 0.186-0.79l-0.771-2.316c-0.105-0.312-0.4-0.521-0.733-0.521h-2.317v-3.1z"/>
	<path d="m188.82 321.07c1.703 0 3.09-1.396 3.09-3.098 0-1.695-1.387-3.088-3.09-3.088s-3.09 1.395-3.09 3.088c0.01 1.71 1.39 3.1 3.09 3.1zm0-4.63c0.851 0 1.544 0.693 1.544 1.555 0 0.853-0.693 1.543-1.544 1.543-0.853 0-1.545-0.69-1.545-1.543 0-0.87 0.69-1.56 1.54-1.56z"/>
</g>
<g fill="#fff">
	<path d="m12.598 314.5c0-1.704-1.386-3.089-3.09-3.089-1.703 0-3.088 1.386-3.088 3.089s1.385 3.089 3.088 3.089c1.704 0 3.09-1.38 3.09-3.09zm-4.635 0c0-0.852 0.693-1.544 1.545-1.544 0.853 0 1.545 0.692 1.545 1.544 0 0.854-0.692 1.545-1.545 1.545-0.852 0.01-1.545-0.69-1.545-1.54z"/>
	<path d="m9.495 330.33c0.222 0 0.433-0.094 0.579-0.261 0.341-0.396 8.344-9.53 8.316-15.562-0.022-4.896-4.006-8.893-8.882-8.893-4.897 0-8.881 3.988-8.881 8.896 0 6.025 7.949 15.168 8.287 15.562 0.147 0.16 0.348 0.25 0.581 0.25zm0.013-23.16c4.028 0 7.318 3.299 7.336 7.354 0.021 4.562-5.514 11.633-7.348 13.847-1.825-2.216-7.326-9.277-7.326-13.854 0.001-4.06 3.293-7.35 7.338-7.35z"/>
</g>
	<path d="m110.94 360.55h-24.956c-0.459 0-0.833 0.371-0.833 0.83v14.977c0 0.459 0.373 0.832 0.833 0.832h24.958c0.459 0 0.832-0.373 0.832-0.832v-14.977c0.01-0.46-0.37-0.83-0.83-0.83zm-2.66 1.67l-9.815 6.094-9.815-6.094h19.63zm-21.465 13.31v-12.49l11.648 7.229 11.648-7.229v12.49h-23.295z" fill="#fff"/>
<g fill="#fff">
	<path d="m143.79 365.54c-0.46 0-0.833 0.373-0.833 0.832v11.303l-1.906-1.908c-0.325-0.322-0.852-0.322-1.177 0-0.325 0.326-0.325 0.854 0 1.18l3.328 3.326c0.163 0.162 0.375 0.244 0.589 0.244s0.425-0.082 0.587-0.244l3.329-3.326c0.325-0.326 0.325-0.854 0-1.18-0.325-0.322-0.852-0.322-1.177 0l-1.908 1.91v-11.305c0-0.4-0.37-0.82-0.83-0.82z"/>
	<path d="m156.27 357.23h-24.96c-0.459 0-0.833 0.373-0.833 0.832v14.977c0 0.459 0.374 0.832 0.833 0.832h9.152c0.46 0 0.833-0.373 0.833-0.832 0-0.461-0.373-0.832-0.833-0.832h-8.321v-13.32h23.296v13.311h-8.319c-0.459 0-0.833 0.371-0.833 0.832 0 0.459 0.374 0.832 0.833 0.832h9.15c0.459 0 0.833-0.373 0.833-0.832v-14.977c0-0.45-0.37-0.82-0.83-0.82z"/>
</g>
<g fill="#fff">
	<path d="m13.312 355.56c-3.556 0-6.898 1.387-9.412 3.898-2.516 2.516-3.9 5.854-3.9 9.412 0 3.557 1.384 6.895 3.899 9.412 2.514 2.514 5.856 3.895 9.412 3.895s6.899-1.389 9.412-3.895c2.515-2.521 3.901-5.855 3.901-9.412 0-3.561-1.386-6.896-3.901-9.412-2.512-2.51-5.856-3.9-9.411-3.9zm8.236 21.55c-2.201 2.197-5.126 3.41-8.237 3.41-3.112 0-6.035-1.213-8.236-3.412-2.2-2.199-3.412-5.123-3.412-8.234 0-3.105 1.212-6.037 3.412-8.23 2.201-2.188 5.124-3.41 8.236-3.41 3.11 0 6.036 1.229 8.237 3.412 2.2 2.193 3.411 5.125 3.411 8.229 0 3.1-1.21 6.03-3.411 8.23z"/>
	<path d="m17.413 368.56l-3.329-8.318c-0.126-0.312-0.432-0.521-0.772-0.521s-0.646 0.207-0.773 0.521l-3.327 8.318c-0.08 0.201-0.076 0.422 0.002 0.617h-0.002l3.327 8.318c0.127 0.311 0.433 0.52 0.773 0.52s0.646-0.209 0.772-0.52l3.329-8.318h-0.002c0.077-0.2 0.082-0.42 0.002-0.62zm-4.101-5.77l2.099 5.248h-4.197l2.098-5.25zm0 12.16l-2.099-5.248h4.197l-2.098 5.25z"/>
</g>
<g fill="#fff">
	<path d="m41.16 378.02h4.991v3.324c0 0.459 0.373 0.834 0.833 0.834h13.312c0.459 0 0.831-0.373 0.831-0.834v-3.324h4.992c0.459 0 0.831-0.373 0.831-0.834v-13.31c0-0.459-0.372-0.832-0.831-0.832h-4.992v-6.656c0-0.459-0.372-0.832-0.831-0.832h-13.313c-0.459 0-0.833 0.373-0.833 0.832v6.656h-4.99c-0.459 0-0.833 0.373-0.833 0.832v13.312c0 0.46 0.374 0.83 0.833 0.83zm18.302 2.5h-11.648v-8.318h11.648v8.32zm-11.648-23.3h11.648v5.824h-11.648v-5.82zm-5.823 7.49h23.295v11.646h-4.16v-4.989c0-0.459-0.372-0.832-0.831-0.832h-13.312c-0.459 0-0.833 0.373-0.833 0.832v4.989h-4.16l0.001-11.65z"/>
	<path d="m45.073 366.21c-0.307-0.312-0.866-0.312-1.174 0-0.157 0.154-0.245 0.365-0.245 0.586 0 0.217 0.087 0.438 0.245 0.59 0.155 0.154 0.368 0.242 0.587 0.242 0.221 0 0.433-0.088 0.59-0.246 0.154-0.146 0.241-0.369 0.241-0.586 0.001-0.22-0.086-0.43-0.244-0.58z"/>
	<path d="m46.983 367.62c0.221 0 0.433-0.088 0.586-0.246 0.159-0.146 0.245-0.369 0.245-0.586s-0.086-0.432-0.245-0.592c-0.309-0.309-0.866-0.309-1.174 0.006-0.157 0.154-0.245 0.365-0.245 0.586 0 0.217 0.088 0.438 0.245 0.59 0.155 0.16 0.367 0.24 0.588 0.24z"/>
	<path d="m57.798 373.86h-8.319c-0.459 0-0.832 0.373-0.832 0.832s0.373 0.832 0.832 0.832h8.319c0.459 0 0.832-0.373 0.832-0.832 0-0.45-0.372-0.83-0.832-0.83z"/>
	<path d="m57.798 377.19h-8.319c-0.459 0-0.832 0.371-0.832 0.834 0 0.457 0.373 0.832 0.832 0.832h8.319c0.459 0 0.832-0.373 0.832-0.832 0-0.46-0.372-0.83-0.832-0.83z"/>
</g>
<polygon points="12.782 560.58 20.05 565.31 12.782 570.04" fill="#4C2F83"/>
<path d="m52.971 577.38c-5.897-5.896-5.895-15.492 0-21.389 5.899-5.898 15.49-5.898 21.389 0 5.897 5.895 5.897 15.479-0.001 21.387-5.897 5.9-15.493 5.9-21.388 0zm19.445-19.44c-4.824-4.824-12.675-4.822-17.502 0.002-4.821 4.824-4.821 12.674 0 17.496 4.827 4.826 12.676 4.826 17.502 0 4.823-4.83 4.825-12.68 0-17.5z" fill="#fff"/>
<polygon points="61.331 561.96 68.599 566.68 61.331 571.41" fill="#fff"/>
<polygon points="369.91 113.84 387.82 124.29 369.91 134.74" fill="#FED800"/>
<rect y="116.83" x="418.15" height="16.424" width="3.646" fill="#FED800"/>
	<path d="m453.18 129.5h3.59l5.604 5.595c0.123 0.124 0.287 0.188 0.454 0.188 0.083 0 0.166-0.016 0.246-0.049 0.229-0.099 0.396-0.333 0.396-0.594v-19.277c0-0.26-0.151-0.495-0.396-0.594-0.241-0.1-0.521-0.045-0.7 0.139l-5.604 5.595h-3.59c-0.354 0-0.643 0.288-0.643 0.643v7.71c0 0.34 0.28 0.63 0.64 0.63zm0.64-7.71h3.213c0.171 0 0.334-0.068 0.455-0.188l4.686-4.687v16.175l-4.686-4.686c-0.121-0.121-0.284-0.188-0.455-0.188h-3.213v-6.41z"/>
	<path d="m464.93 128.35c0.126 0.125 0.29 0.188 0.454 0.188 0.165 0 0.329-0.063 0.454-0.188l2.438-2.438 2.438 2.438c0.126 0.125 0.29 0.188 0.454 0.188 0.165 0 0.329-0.063 0.455-0.188 0.25-0.251 0.25-0.658 0-0.909l-2.43-2.44 2.438-2.438c0.25-0.251 0.25-0.658 0-0.909-0.251-0.251-0.658-0.251-0.909 0l-2.438 2.438-2.438-2.438c-0.25-0.251-0.657-0.251-0.908 0s-0.251 0.658 0 0.909l2.44 2.44-2.438 2.437c-0.25 0.25-0.25 0.65 0 0.91z"/>
	<path d="m500.73 129.5h3.604l5.595 5.595c0.123 0.124 0.287 0.188 0.455 0.188 0.082 0 0.166-0.016 0.246-0.049 0.24-0.099 0.396-0.333 0.396-0.594v-19.277c0-0.26-0.146-0.495-0.396-0.594-0.241-0.1-0.521-0.045-0.701 0.139l-5.595 5.595h-3.604c-0.354 0-0.643 0.288-0.643 0.643v7.71c-0.01 0.34 0.27 0.63 0.63 0.63zm0.64-7.71h3.214c0.17 0 0.333-0.068 0.453-0.188l4.687-4.687v16.175l-4.687-4.686c-0.12-0.121-0.283-0.188-0.453-0.188h-3.214v-6.41z"/>
	<path d="m512.94 127.57c-0.354 0-0.644 0.288-0.644 0.643 0 0.354 0.289 0.642 0.644 0.642 2.142 0 3.855-1.729 3.855-3.855s-1.729-3.855-3.855-3.855c-0.354 0-0.644 0.288-0.644 0.642 0 0.355 0.289 0.643 0.644 0.643 1.433 0 2.569 1.153 2.569 2.57 0 1.43-1.15 2.58-2.57 2.58z"/>
	<path d="m545.39 129.5h3.589l5.604 5.595c0.122 0.124 0.287 0.188 0.454 0.188 0.082 0 0.166-0.016 0.244-0.049 0.229-0.099 0.396-0.333 0.396-0.594v-19.277c0-0.26-0.157-0.495-0.396-0.594-0.239-0.1-0.521-0.045-0.698 0.139l-5.604 5.595h-3.589c-0.354 0-0.643 0.288-0.643 0.643v7.71c0.01 0.34 0.29 0.63 0.65 0.63zm0.64-7.71h3.213c0.171 0 0.334-0.068 0.454-0.188l4.687-4.687v16.175l-4.687-4.686c-0.12-0.121-0.283-0.188-0.454-0.188h-3.213v-6.41z"/>
	<path d="m557.6 127.57c-0.354 0-0.643 0.288-0.643 0.643 0 0.354 0.288 0.642 0.643 0.642 2.126 0 3.855-1.729 3.855-3.855s-1.729-3.855-3.855-3.855c-0.354 0-0.643 0.288-0.643 0.642 0 0.355 0.288 0.643 0.643 0.643 1.418 0 2.57 1.153 2.57 2.57s-1.15 2.58-2.57 2.58z"/>
	<path d="m557.6 132.07c3.897 0 7.068-3.171 7.068-7.068 0-3.898-3.171-7.068-7.068-7.068-0.354 0-0.643 0.288-0.643 0.643s0.288 0.643 0.643 0.643c3.188 0 5.783 2.594 5.783 5.783s-2.595 5.783-5.783 5.783c-0.354 0-0.643 0.288-0.643 0.643 0 0.37 0.28 0.66 0.64 0.66z"/>
<g fill="#fff">
	<path d="m550.09 73.526c0-4.186 3.403-7.591 7.591-7.591s7.604 3.406 7.604 7.591c0 4.187-3.406 7.593-7.604 7.593-4.18 0.001-7.59-3.406-7.59-7.593zm1.71 0c0 3.246 2.646 5.885 5.884 5.885 3.244 0 5.896-2.64 5.896-5.885s-2.646-5.882-5.896-5.882c-3.24 0.001-5.88 2.639-5.88 5.882z"/>
		<rect transform="matrix(-.7063 -.7079 .7079 -.7063 880.85 527.89)" height="7.62" width="1.901" y="77.426" x="548.97"/>
</g>
<polygon points="632.89 236.42 478.75 236.42 466.75 280.42 632.89 280.42" fill="#B7A57A"/>
<polygon points="466.75 398.04 616.58 398.04 620.77 390.23 466.75 390.23" fill="#B7A57A"/>
<polygon points="614.25 303.75 478.75 303.75 466.75 347.75 614.25 347.75" fill="#666"/>
<rect y="496.32" x="166.68" height="2.627" width="13.605" fill="#fff"/>
<rect y="496.32" x="177.66" height="13.604" width="2.626" fill="#fff"/>
<rect transform="matrix(-.707 .7072 -.7072 -.707 651.98 736.31)" height="2.624" width="13.605" y="501.9" x="166.67" fill="#fff"/>
<g fill="#616264">
		<rect transform="matrix(-.7071 .7071 -.7071 -.7071 712.38 704.84)" height="2.162" width="8.723" y="498.88" x="205.85"/>
		<rect transform="matrix(-.7071 .7071 -.7071 -.7071 720.3 701.52)" height="8.72" width="2.16" y="495.58" x="213.78"/>
	<rect y="498.46" x="211.5" height="11.189" width="2.159"/>
</g>
<rect y="496.32" x="117.42" height="2.627" width="13.605" fill="#4C2F83"/>
<rect y="496.32" x="128.4" height="13.604" width="2.626" fill="#4C2F83"/>
<rect transform="matrix(-.7073 -.7069 .7069 -.7073 -240.38 896.87)" height="2.626" width="13.604" y="496.89" x="58.687" fill="#fff"/>
<rect transform="matrix(.707 -.7072 .7072 .707 -338.62 194.53)" height="2.627" width="13.607" y="504.62" x="58.658" fill="#fff"/>
<path d="m706.62 0.662l0.99 0.147-8.461 30.856-0.988-0.148 8.46-30.855z" fill="#8C8C8C"/>
<g stroke="#E6E7E8" stroke-width=".5" stroke-miterlimit="10" fill="none">
		<line y2="452.22" x1="422.27" x2="473.88" y1="580.35"/>
		<line y2="452.22" x1="425.78" x2="477.39" y1="580.35"/>
		<line y2="452.22" x1="429.29" x2="480.9" y1="580.34"/>
		<line y2="452.22" x1="432.8" x2="484.41" y1="580.35"/>
		<line y2="452.22" x1="436.31" x2="487.92" y1="580.35"/>
		<line y2="452.22" x1="439.82" x2="491.43" y1="580.35"/>
		<line y2="452.22" x1="443.33" x2="494.94" y1="580.35"/>
		<line y2="452.22" x1="446.84" x2="498.45" y1="580.35"/>
		<line y2="452.22" x1="450.35" x2="501.96" y1="580.35"/>
		<line y2="452.22" x1="453.86" x2="505.47" y1="580.35"/>
		<line y2="452.22" x1="457.37" x2="508.98" y1="580.35"/>
		<line y2="452.22" x1="460.88" x2="512.49" y1="580.35"/>
		<line y2="452.22" x1="464.4" x2="516" y1="580.35"/>
		<line y2="452.22" x1="467.9" x2="519.51" y1="580.35"/>
		<line y2="452.22" x1="471.41" x2="523.02" y1="580.35"/>
		<line y2="452.22" x1="474.92" x2="526.53" y1="580.35"/>
		<line y2="452.22" x1="478.43" x2="530.04" y1="580.35"/>
		<line y2="452.22" x1="481.94" x2="533.55" y1="580.35"/>
		<line y2="452.22" x1="485.45" x2="537.06" y1="580.35"/>
		<line y2="452.22" x1="488.96" x2="540.57" y1="580.35"/>
		<line y2="452.22" x1="492.48" x2="544.08" y1="580.35"/>
		<line y2="452.22" x1="495.98" x2="547.59" y1="580.35"/>
		<line y2="452.22" x1="499.5" x2="551.1" y1="580.35"/>
		<line y2="452.22" x1="503" x2="554.61" y1="580.35"/>
		<line y2="452.22" x1="506.52" x2="558.12" y1="580.35"/>
		<line y2="452.22" x1="510.02" x2="561.64" y1="580.35"/>
		<line y2="452.22" x1="513.54" x2="565.14" y1="580.35"/>
		<line y2="452.22" x1="517.05" x2="568.66" y1="580.35"/>
		<line y2="452.22" x1="520.56" x2="572.16" y1="580.35"/>
		<line y2="452.22" x1="524.07" x2="575.68" y1="580.35"/>
		<line y2="452.22" x1="527.58" x2="579.19" y1="580.35"/>
		<line y2="452.22" x1="531.09" x2="582.7" y1="580.35"/>
		<line y2="452.22" x1="534.6" x2="586.21" y1="580.35"/>
		<line y2="452.22" x1="538.11" x2="589.72" y1="580.35"/>
		<line y2="452.22" x1="541.62" x2="593.23" y1="580.35"/>
		<line y2="452.22" x1="545.13" x2="596.74" y1="580.35"/>
		<line y2="452.22" x1="548.64" x2="600.25" y1="580.35"/>
		<line y2="452.22" x1="552.15" x2="603.76" y1="580.35"/>
		<line y2="452.22" x1="555.66" x2="607.27" y1="580.35"/>
		<line y2="452.22" x1="559.17" x2="610.78" y1="580.35"/>
		<line y2="452.22" x1="562.68" x2="614.29" y1="580.35"/>
		<line y2="452.22" x1="566.19" x2="617.8" y1="580.35"/>
		<line y2="452.22" x1="569.7" x2="621.31" y1="580.35"/>
		<line y2="452.22" x1="573.21" x2="624.82" y1="580.35"/>
		<line y2="452.22" x1="576.72" x2="628.33" y1="580.35"/>
		<line y2="452.22" x1="580.23" x2="631.84" y1="580.35"/>
		<line y2="452.22" x1="583.74" x2="635.35" y1="580.35"/>
		<line y2="452.22" x1="587.25" x2="638.86" y1="580.35"/>
		<line y2="452.22" x1="590.76" x2="642.37" y1="580.35"/>
		<line y2="452.22" x1="594.27" x2="645.88" y1="580.35"/>
		<line y2="452.22" x1="597.78" x2="649.39" y1="580.35"/>
		<line y2="452.22" x1="601.29" x2="652.9" y1="580.35"/>
	<line y2="452.22" x1="604.8" x2="656.41" y1="580.35"/>
		<line y2="452.22" x1="608.31" x2="659.92" y1="580.35"/>
	<line y2="452.22" x1="611.82" x2="663.43" y1="580.35"/>
		<line y2="452.22" x1="615.33" x2="666.94" y1="580.35"/>
		<line y2="452.22" x1="618.84" x2="670.45" y1="580.35"/>
		<line y2="452.22" x1="622.35" x2="673.96" y1="580.35"/>
	<line y2="452.22" x1="625.86" x2="677.47" y1="580.35"/>
		<line y2="452.22" x1="629.37" x2="680.98" y1="580.35"/>
		<line y2="452.22" x1="632.88" x2="684.49" y1="580.35"/>
		<line y2="452.22" x1="636.39" x2="688" y1="580.35"/>
		<line y2="452.22" x1="639.9" x2="691.51" y1="580.35"/>
		<line y2="452.22" x1="643.41" x2="695.02" y1="580.35"/>
		<line y2="452.22" x1="646.92" x2="698.53" y1="580.35"/>
		<line y2="452.22" x1="650.43" x2="702.04" y1="580.35"/>
		<line y2="452.22" x1="653.94" x2="705.55" y1="580.35"/>
		<line y2="452.22" x1="657.45" x2="709.06" y1="580.35"/>
		<line y2="452.22" x1="660.96" x2="712.57" y1="580.35"/>
		<line y2="452.22" x1="664.47" x2="716.08" y1="580.35"/>
		<line y2="452.22" x1="667.98" x2="719.59" y1="580.35"/>
		<line y2="452.22" x1="671.49" x2="723.1" y1="580.35"/>
</g>
	<polygon points="482.08 8.717 482.08 8.717 487.96 2.516 486.3 0.943 480.5 7.055 474.7 0.943 473.04 2.516 478.92 8.717 478.92 8.717 478.92 8.719 473.04 14.923 474.7 16.497 480.5 10.385 486.3 16.497 487.96 14.923 482.07 8.719" fill="#fff"/>
<polygon points="632.89 236.42 590.98 236.42 576.91 280.42 632.89 280.42" fill="#85754D"/>
<polygon points="593.3 236.42 590.98 236.42 576.91 280.42 579.28 280.42" fill="#746041"/>
<rect transform="matrix(-.7071 .7071 -.7071 -.7071 821.85 -185.27)" height="1.493" width="25.902" y="76.828" x="436.34" fill="#666"/>
<rect transform="matrix(-.7071 -.7071 .7071 -.7071 712.14 450.08)" height="1.494" width="25.902" y="76.802" x="436.33" fill="#666"/>
<path d="m384.87 256.36c-0.675 0.318-1.287 0.544-1.835 0.673s-1.144 0.193-1.777 0.193c-0.723 0-1.146-0.091-1.704-0.273-0.555-0.184-1.025-0.448-1.421-0.785-0.393-0.341-0.664-0.703-0.812-1.084-0.151-0.382-0.229-0.937-0.229-1.665v-5.572h-2.146v-2.25c0.621-0.202 1.341-0.493 1.778-0.872 0.445-0.379 0.803-0.834 1.067-1.365 0.269-0.53 0.453-1.205 0.554-2.025h2.249v3.676h3.655v2.836h-3.655v4.075c0 0.922-0.012 1.453 0.085 1.713 0.1 0.261 0.338 0.531 0.604 0.687 0.35 0.21 0.749 0.316 1.199 0.316 0.801 0 1.597-0.262 2.389-0.785v2.48z" fill="#fff"/>
<path d="m367.15 196.71v25.523h25.52v-25.523h-25.52zm17.72 19.78c-0.675 0.318-1.287 0.544-1.835 0.673s-1.144 0.193-1.777 0.193c-0.723 0-1.146-0.091-1.704-0.273-0.555-0.184-1.025-0.448-1.421-0.785-0.393-0.341-0.664-0.703-0.812-1.084-0.151-0.382-0.229-0.937-0.229-1.665v-5.572h-2.146v-2.25c0.621-0.202 1.341-0.493 1.778-0.872 0.445-0.379 0.803-0.834 1.067-1.365 0.269-0.53 0.453-1.205 0.554-2.025h2.249v3.676h3.655v2.836h-3.655v4.075c0 0.922-0.012 1.453 0.085 1.713 0.1 0.261 0.338 0.531 0.604 0.687 0.35 0.21 0.749 0.316 1.199 0.316 0.801 0 1.597-0.262 2.389-0.785v2.47z" fill="#fff"/>
<path d="m277.83 314.35l-0.089-0.93c-1.089-0.034-1.993-0.197-2.744-0.437-0.344 0.292-1.078 0.867-2.104 1.443 1.25 0.19 2.84 0.19 4.93-0.07zm-6.18-4.04c-1.22 0.641-2.666 0.845-3.774 0.894 0.306 0.408 0.616 0.808 0.963 1.18 1.506-0.331 2.71-0.889 3.353-1.23-0.25-0.31-0.43-0.6-0.54-0.84zm0.42-1.16c0.149 0.059 0.26 0.188 0.295 0.344 0.028 0.114 0.734 2.758 5.28 2.95l-0.002-0.022s-1.595-0.705-1.41-2.857c0.186-2.152-1.41-3.488-3.228-2.337-1.817 1.151-3.784 1.559-4.971 1.373-1.188-0.185-2.135 0.169-1.262 1.188 0.13 0.151 0.254 0.304 0.375 0.458 1.142 0.011 3.112-0.122 4.473-1.045 0.14-0.09 0.31-0.11 0.46-0.05zm0.83 2.72c-0.534 0.303-1.681 0.89-3.198 1.3 0.476 0.36 1.034 0.669 1.723 0.904 1.123-0.512 2.002-1.109 2.539-1.516-0.42-0.2-0.77-0.44-1.06-0.68zm12 0.69c0.537 0.407 1.417 1.004 2.538 1.516 0.689-0.235 1.248-0.544 1.723-0.904-1.516-0.411-2.664-0.997-3.198-1.3-0.29 0.23-0.64 0.47-1.06 0.68zm1.78-1.41c0.642 0.341 1.846 0.899 3.352 1.229 0.348-0.372 0.658-0.772 0.963-1.18-1.107-0.049-2.554-0.253-3.773-0.894-0.12 0.24-0.3 0.53-0.54 0.84zm4.15-2.55c-1.188 0.186-3.153-0.223-4.972-1.373-1.818-1.15-3.414 0.186-3.229 2.337 0.186 2.152-1.41 2.857-1.41 2.857l-0.002 0.022c4.546-0.192 5.252-2.835 5.28-2.95 0.036-0.156 0.146-0.285 0.295-0.344 0.148-0.058 0.318-0.041 0.45 0.05 1.362 0.923 3.333 1.056 4.474 1.045 0.12-0.154 0.245-0.307 0.374-0.458 0.87-1.04-0.07-1.39-1.26-1.2zm-9.71 4.82l-0.089 0.93c2.083 0.264 3.678 0.264 4.938 0.077-1.027-0.576-1.76-1.15-2.104-1.443-0.75 0.23-1.66 0.39-2.75 0.43zm1.65 2.8c-0.748-0.276-1.517-0.059-1.717 0.485s0.243 1.208 0.991 1.483c0.275 0.102 0.552 0.136 0.804 0.112-0.085 0.751-0.586 1.837-2.572 2.538-0.147 0.052-0.292 0.105-0.436 0.16l0.238-10.335c0.807-0.286 1.386-1.052 1.386-1.957 0-1.148-0.93-2.078-2.078-2.078-1.147 0-2.078 0.93-2.078 2.078 0 0.89 0.562 1.647 1.349 1.943l0.24 10.394c-0.18-0.07-0.363-0.139-0.549-0.204-1.986-0.7-2.486-1.787-2.573-2.538 0.252 0.024 0.529-0.01 0.804-0.112 0.748-0.276 1.191-0.939 0.991-1.483-0.201-0.543-0.969-0.76-1.716-0.485-0.507 0.188-0.875 0.553-0.995 0.939-0.913 1.432 0.139 3.654 4.066 5.089l0.084 3.656c-1.363-0.67-1.849-1.297-1.849-1.838 0-0.594 1.039-1.187 1.039-1.187l-1.039-0.482s-0.668 0.339-0.668 1.558c0 1.154 1.165 1.995 2.532 2.607l0.08 3.468c-0.33-0.22-1.166-0.854-1.166-1.66 0-0.385 0.251-0.769 0.605-1.09l-0.55-0.29c-0.42 0.455-0.477 0.887-0.477 1.224 0 0.54 0.213 1.532 1.612 1.861l0.049 2.12c0.003 0.119 0.098 0.211 0.213 0.211 0.114 0 0.209-0.092 0.213-0.211l0.048-2.11c1.433-0.322 1.649-1.326 1.649-1.87 0-0.469-0.109-1.123-1.157-1.763 3.312-1.774 2.606-3.378 0.521-4.594 3.145-1.423 3.955-3.391 3.124-4.7-0.1-0.39-0.47-0.76-0.98-0.95zm-1.94 12.15c0 0.839-0.906 1.493-1.204 1.685l0.073-3.162c0.61 0.36 1.13 0.92 1.13 1.47zm-1.11-2.41l0.079-3.401c3.38 1.32 0.93 2.88-0.08 3.4z" fill="#fff"/>
</svg>
