<?xml version="1.0" encoding="utf-8"?>
<!-- Generator: Adobe Illustrator 16.0.0, SVG Export Plug-In . SVG Version: 6.00 Build 0)  -->
<!DOCTYPE svg PUBLIC "-//W3C//DTD SVG 1.1//EN" "http://www.w3.org/Graphics/SVG/1.1/DTD/svg11.dtd">
<svg version="1.1"
	 id="Layer_1" xmlns:svg="http://www.w3.org/2000/svg" xmlns:rdf="http://www.w3.org/1999/02/22-rdf-syntax-ns#" xmlns:dc="http://purl.org/dc/elements/1.1/" xmlns:sodipodi="http://sodipodi.sourceforge.net/DTD/sodipodi-0.dtd" xmlns:cc="http://creativecommons.org/ns#" xmlns:inkscape="http://www.inkscape.org/namespaces/inkscape" sodipodi:docname="uw-sprite-focus.svg" inkscape:version="0.48.4 r9939"
	 xmlns="http://www.w3.org/2000/svg" xmlns:xlink="http://www.w3.org/1999/xlink" x="0px" y="0px" width="863.5px"
	 height="700.17px" viewBox="0 0 863.5 700.17" enable-background="new 0 0 863.5 700.17" xml:space="preserve">
<sodipodi:namedview  id="namedview4059" showgrid="false" inkscape:cy="390.08499" bordercolor="#666666" gridtolerance="10" pagecolor="#ffffff" inkscape:cx="276.58475" guidetolerance="10" objecttolerance="10" borderopacity="1" inkscape:zoom="2.67" inkscape:window-maximized="0" inkscape:current-layer="Layer_1" inkscape:window-y="252" inkscape:pageopacity="0" inkscape:pageshadow="2" inkscape:window-height="1103" inkscape:window-width="1955" inkscape:window-x="1114">
	</sodipodi:namedview>
<path id="path3553" fill="#B7A57A" d="M317.19,448.882v-12.078l8.379,13.472h0.822v-14.729l1.396-1.39h-4.21l1.396,1.39v10.248
	l-7.267-11.636h-3.336l1.368,1.39v13.336l-1.368,1.396h4.211l-1.39-1.399L317.19,448.882z M304.74,449.392
	c-3.226,0-4.342-3.854-4.342-7.187c0-3.334,1.12-7.188,4.342-7.188c3.251,0,4.372,3.854,4.372,7.188c0,3.341-1.12,7.189-4.37,7.189
	 M298.292,442.216c0,4.099,2.323,8.414,6.445,8.414c4.148,0,6.476-4.315,6.476-8.414c0-4.097-2.312-8.414-6.476-8.414
	c-4.12,0-6.45,4.311-6.45,8.41 M291.007,448.991v-13.638h3.058l1.719,1.726v-2.922h-11.337v2.918l1.749-1.724h3.033v13.636
	l-1.258,1.28h4.316l-1.28-1.289V448.991z M279.067,442.941v5.188c-0.381,0.387-1.145,1.146-2.647,1.146
	c-3.581,0-5.379-3.604-5.379-7.074c0-3.496,2.267-7.073,5.379-7.073c0.817,0,1.42,0.188,1.967,0.766l1.776,1.744v-2.785
	c-0.956-0.487-1.913-0.93-3.743-0.93c-4.398,0-7.486,3.937-7.486,8.278c0,4.261,3.09,8.276,7.486,8.276
	c2.487,0,3.551-0.604,4.425-1.188v-6.354l1.255-1.28h-4.316l1.27,1.271L279.067,442.941z M255.167,448.882v-12.078l8.479,13.479
	l0.732-0.008v-14.729l1.39-1.39h-4.206l1.395,1.39v10.248l-7.265-11.636h-3.335l1.369,1.39v13.336l-1.369,1.396h4.211l-1.4-1.399
	L255.167,448.882z M243.617,434.151l1.284,1.282v13.55l-1.284,1.278h4.339l-1.281-1.278v-13.55l1.281-1.282H243.617L243.617,434.151
	z M229.297,442.182h6.776v6.81l-1.283,1.278h4.343l-1.285-1.278v-13.549l1.285-1.283h-4.343l1.283,1.283v5.541h-6.776v-5.541
	l1.287-1.283h-4.318l1.257,1.283v13.549l-1.257,1.278h4.318l-1.287-1.278V442.182L229.297,442.182z M222.037,445.791
	c0-1.586-0.738-2.571-1.502-3.092l-3.28-2.377c-1.175-0.847-1.776-1.937-1.776-2.761c0-1.688,1.449-2.295,2.323-2.295
	c0.461,0,0.79,0.188,1.037,0.188l1.418,1.533l1.503-2.24l-3.197-0.604c-0.218-0.053-0.355-0.082-0.761-0.082
	c-2.816,0-4.1,2.404-4.1,3.964c0,1.227,0.624,2.62,2.073,3.682l3.305,2.38c0.901,0.631,1.146,1.559,1.146,2.352
	c0,1.369-0.844,2.854-2.673,2.854c-0.439,0-0.824-0.084-1.124-0.229l-1.53-1.799l-1.393,2.513l3.086,0.604
	c0,0,0.519,0.104,0.958,0.104c1.93,0.029,4.47-1.609,4.47-4.67 M203.98,437.757l2.213,6.666h-4.509l2.3-6.671L203.98,437.757z
	 M200.1,449.036l1.172-3.414h5.331l1.118,3.414l-1.256,1.261h4.565l-1.286-1.312l-5.025-14.804H203.9l-5.112,14.804l-1.311,1.312
	h3.878l-1.24-1.261H200.1z M182.96,450.286l3.688-11.662l3.577,11.662h0.82l4.669-14.828l1.311-1.282h-3.876l1.257,1.256
	l-3.414,11.146l-3.308-11.146l1.259-1.256h-4.564l1.285,1.282l0.327,1.062l-3.09,10.056l-3.303-11.146l1.256-1.256h-4.561
	l1.311,1.282l4.535,14.83h0.8L182.96,450.286L182.96,450.286z M159.08,440.626l-0.613,0.591l0.068,0.228h1.883
	c-0.295,2.047-0.565,3.813-0.999,6.678c-0.61,4.24-1.133,5.742-1.565,6.104c-0.137,0.134-0.363,0.201-0.565,0.201
	c-0.274,0-0.705-0.201-1.002-0.34c-0.27-0.14-0.497,0.021-0.633,0.157c-0.181,0.205-0.384,0.522-0.384,0.772
	c0,0.451,0.589,0.683,0.976,0.683c0.431,0,1.521-0.358,2.498-1.563c0.77-0.95,1.811-3.157,2.697-8.285
	c0.16-0.952,0.343-1.903,0.73-4.401l2.313-0.229l0.495-0.588h-2.675c0.68-4.203,1.247-5.474,2.224-5.474
	c0.683,0,1.246,0.271,1.747,0.75c0.161,0.16,0.409,0.16,0.634-0.022c0.18-0.157,0.455-0.521,0.455-0.838
	c0.022-0.455-0.592-0.953-1.366-0.953c-1.317,0-2.697,0.771-3.65,1.903c-0.885,1.07-1.474,2.789-1.795,4.636h-1.473h-0.01
	L159.08,440.626z M148.87,446.576c0-3.356,1.699-5.176,2.406-5.471c0.2-0.093,0.521-0.181,0.747-0.181
	c1.135,0,1.794,0.854,1.794,2.604c0.045,2.951-1.499,5.631-2.451,5.946c-0.181,0.062-0.476,0.158-0.7,0.158
	c-1.28,0-1.8-1.351-1.8-3.061 M152.746,440.084c-0.589,0-1.52,0.271-2.45,0.814c-1.568,0.932-3.27,3.041-3.27,6.219
	c0,1.592,0.748,3.36,2.86,3.36c1,0,2.428-0.661,3.383-1.522c1.499-1.36,2.379-3.698,2.379-5.723c0.01-1.881-0.99-3.15-2.9-3.15
	 M126.448,435.463l4.071,7.346v6.203l-1.281,1.278h4.341l-1.281-1.278v-6.203l4.147-7.321l1.339-1.31h-3.987l1.259,1.256
	l-3.389,6.033l-3.225-6.033l1.257-1.256h-4.561l1.31,1.279C126.448,435.457,126.448,435.463,126.448,435.463z M117.958,449.013
	v-13.638h3.059l1.721,1.726v-2.922h-11.339v2.918l1.749-1.724h3.031v13.636l-1.255,1.28h4.314l-1.27-1.29L117.958,449.013z
	 M103.338,434.173l1.284,1.282v13.55l-1.284,1.278h4.345l-1.283-1.278v-13.55l1.283-1.282h-4.34H103.338z M98.668,445.812
	c0-1.587-0.742-2.572-1.503-3.093l-3.281-2.377c-1.174-0.847-1.775-1.937-1.775-2.761c0-1.688,1.449-2.295,2.322-2.295
	c0.465,0,0.792,0.188,1.039,0.188l1.419,1.533l1.501-2.24l-3.193-0.604c-0.22-0.055-0.354-0.082-0.762-0.082
	c-2.817,0-4.099,2.4-4.099,3.966c0,1.226,0.626,2.618,2.077,3.685l3.305,2.379c0.901,0.627,1.147,1.557,1.147,2.35
	c0,1.367-0.848,2.855-2.677,2.855c-0.437,0-0.818-0.086-1.119-0.23l-1.532-1.801l-1.394,2.521l3.088,0.604
	c0,0,0.519,0.104,0.954,0.104c1.943,0.011,4.483-1.63,4.483-4.689 M77.959,435.386h1.967c1.721,0,3.088,1.476,3.088,3.228
	c0,1.664-1.395,2.978-3.088,2.978h-1.967v-6.211V435.386z M77.959,449.025v-6.23h2.434l3.904,7.511h2.677l-1.258-1.271l-3.604-6.61
	c1.802-0.55,3.03-2.24,3.03-3.771c0-2.729-2.539-4.451-5.218-4.451h-4.998l1.257,1.283v13.549l-1.257,1.271h4.312L77.959,449.025
	L77.959,449.025z M70.721,450.295v-2.946l-1.724,1.744h-4.888v-6.771h3.632l1.286,1.278v-3.76l-1.286,1.284h-3.632v-5.739h4.89
	l1.724,1.729v-2.922h-9.645l1.257,1.278v13.556l-1.257,1.274h9.643V450.295z M49.821,434.186h-4.563l1.313,1.283l4.533,14.828h0.819
	l4.669-14.828l1.312-1.283h-3.881l1.26,1.255l-3.417,11.145l-3.3-11.145l1.255-1.25V434.186z M37.311,434.186l1.285,1.283v13.549
	l-1.285,1.279h4.343l-1.283-1.279v-13.549l1.283-1.283H37.311z M22.313,448.915v-12.077l8.647,13.471h0.558V435.58l1.394-1.389
	h-4.207l1.394,1.389v10.248l-7.265-11.635h-3.333l1.366,1.389v13.336l-1.366,1.396h4.205L22.313,448.915L22.313,448.915z
	 M4.171,445.995c0,2.646,2.243,4.668,5.001,4.668c2.621,0,5.217-1.938,5.217-4.668v-10.414l1.367-1.389h-4.207l1.393,1.389v10.414
	c0,1.854-1.473,3.328-3.333,3.328c-1.884,0-3.552-1.447-3.552-3.328v-10.414l1.397-1.389H2.781l1.391,1.389l-0.001,10.41V445.995z"
	/>
<path id="path3555" inkscape:connector-curvature="0" fill="#B7A57A" d="M88.77,9.121v14.584h10.25L87.58,66.313
	c0,0-14.011-56.4-14.206-57.193H58.558c-0.207,0.773-15.374,57.193-15.374,57.193L32.648,23.705h10.675V9.121H0.5v14.584h9.49
	c0,0,16.365,65.506,16.57,66.297h22.987c0.204-0.779,10.968-41.715,10.968-41.715c6.83,27.308,6.493,25.58,10.429,41.715h22.998
	c0.198-0.779,17.431-66.297,17.431-66.297h9.413V9.121h-32.01H88.77z"/>
<polygon id="polygon3855" fill="#B7A57A" points="632.89,236.421 478.75,236.421 466.75,280.421 632.89,280.421 "/>
<polygon id="polygon3857" fill="#B7A57A" points="466.75,398.041 616.58,398.041 620.77,390.231 466.75,390.231 "/>
<polygon id="polygon3859" fill="#666666" points="614.25,303.751 478.75,303.751 466.75,347.751 614.25,347.751 "/>
<polygon id="polygon4033" fill="#85754D" points="632.89,236.421 590.98,236.421 576.91,280.421 632.89,280.421 "/>
<polygon id="polygon4035" fill="#746041" points="593.3,236.421 590.98,236.421 576.91,280.421 579.28,280.421 "/>
</svg>
