<?xml version="1.0" encoding="utf-8"?>
<!-- Generator: Adobe Illustrator 16.0.0, SVG Export Plug-In . SVG Version: 6.00 Build 0)  -->
<!DOCTYPE svg PUBLIC "-//W3C//DTD SVG 1.1//EN" "http://www.w3.org/Graphics/SVG/1.1/DTD/svg11.dtd">
<svg version="1.1" id="Layer_1" xmlns="http://www.w3.org/2000/svg" xmlns:xlink="http://www.w3.org/1999/xlink" x="0px" y="0px"
	 width="612px" height="476.334px" viewBox="0 0 612 476.334" enable-background="new 0 0 612 476.334" xml:space="preserve">
<g>
	<polygon fill="#4C2F83" points="309.785,91.821 309.085,91.107 305.382,94.729 301.678,91.107 300.979,91.821 305.378,96.131 
		305.382,96.127 305.385,96.131 	"/>
</g>
<g>
	<polygon points="309.785,110.931 309.085,110.217 305.382,113.838 301.678,110.217 300.979,110.931 305.378,115.24 
		305.382,115.236 305.385,115.24 	"/>
</g>
<g>
	<polygon fill="#D1D3D4" points="309.785,127.516 309.085,126.802 305.382,130.423 301.678,126.802 300.979,127.516 
		305.378,131.826 305.382,131.822 305.385,131.826 	"/>
</g>
<g>
	<path fill="#FFFFFF" d="M203.842,11.698V3.976l5.359,8.613h0.526V3.172l0.894-0.891h-2.691l0.891,0.891v6.552l-4.646-7.441h-2.133
		l0.875,0.891v8.526l-0.875,0.891h2.692L203.842,11.698z M195.879,12.03c-2.062,0-2.777-2.465-2.777-4.596s0.717-4.595,2.777-4.595
		c2.08,0,2.795,2.464,2.795,4.595S197.959,12.03,195.879,12.03 M191.758,7.435c0,2.622,1.484,5.381,4.121,5.381
		c2.656,0,4.141-2.76,4.141-5.381c0-2.619-1.483-5.379-4.141-5.379C193.242,2.056,191.758,4.814,191.758,7.435 M187.098,11.769V3.05
		h1.955l1.1,1.102v-1.87h-7.25V4.15l1.119-1.103h1.939v8.72l-0.805,0.819h2.76L187.098,11.769z M179.465,7.906v3.319
		c-0.244,0.246-0.732,0.733-1.693,0.733c-2.289,0-3.44-2.305-3.44-4.525c0-2.234,1.449-4.523,3.44-4.523
		c0.523,0,0.908,0.121,1.258,0.49l1.136,1.117V2.734c-0.611-0.314-1.224-0.594-2.394-0.594c-2.812,0-4.787,2.516-4.787,5.293
		c0,2.727,1.976,5.293,4.787,5.293c1.59,0,2.271-0.383,2.83-0.75v-4.07l0.803-0.82h-2.76L179.465,7.906z M164.184,11.698V3.976
		l5.422,8.618l0.468-0.005V3.172l0.889-0.891h-2.689l0.892,0.891v6.552l-4.646-7.441h-2.133l0.875,0.891v8.526l-0.875,0.891h2.693
		L164.184,11.698z M156.795,2.281l0.82,0.822v8.665l-0.82,0.819h2.774l-0.819-0.819V3.104l0.819-0.822H156.795z M147.641,7.416
		h4.332v4.353l-0.82,0.819h2.777l-0.822-0.819V3.104l0.822-0.822h-2.777l0.82,0.822v3.545h-4.332V3.104l0.822-0.822h-2.762
		l0.805,0.822v8.665l-0.805,0.819h2.762l-0.822-0.819V7.416z M142.994,9.724c0-1.015-0.472-1.644-0.961-1.976l-2.097-1.52
		c-0.752-0.541-1.135-1.238-1.135-1.765c0-1.082,0.926-1.467,1.484-1.467c0.295,0,0.506,0.121,0.664,0.121l0.907,0.979l0.961-1.433
		l-2.045-0.385c-0.139-0.035-0.227-0.053-0.487-0.053c-1.8,0-2.621,1.537-2.621,2.533c0,0.784,0.399,1.678,1.326,2.356l2.114,1.521
		c0.576,0.401,0.732,0.996,0.732,1.504c0,0.873-0.539,1.815-1.709,1.815c-0.281,0-0.527-0.053-0.719-0.141l-0.978-1.152
		l-0.891,1.607l1.973,0.385c0,0,0.332,0.068,0.613,0.068C141.369,12.728,142.994,11.681,142.994,9.724 M131.463,4.57l1.416,4.262
		h-2.883L131.463,4.57z M128.981,11.784l0.75-2.184h3.408l0.715,2.184l-0.803,0.805h2.918l-0.822-0.84l-3.213-9.467h-0.524
		l-3.269,9.467l-0.838,0.84h2.48L128.981,11.784z M118.022,12.588l2.359-7.459l2.287,7.459h0.524l2.986-9.484l0.838-0.822h-2.479
		l0.805,0.805l-2.184,7.125l-2.115-7.125l0.805-0.805h-2.918l0.822,0.822l0.209,0.68l-1.976,6.428l-2.112-7.125l0.803-0.805h-2.916
		l0.838,0.822l2.9,9.484H118.022z M102.749,6.41l-0.392,0.377l0.043,0.146h1.204c-0.188,1.307-0.362,2.438-0.638,4.268
		c-0.391,2.713-0.725,3.672-1.001,3.904c-0.088,0.086-0.232,0.129-0.362,0.129c-0.175,0-0.451-0.129-0.64-0.217
		c-0.173-0.088-0.318,0.014-0.406,0.102c-0.115,0.131-0.245,0.334-0.245,0.494c0,0.289,0.377,0.436,0.624,0.436
		c0.276,0,0.973-0.231,1.597-1.002c0.492-0.608,1.158-2.018,1.725-5.297c0.102-0.61,0.219-1.219,0.467-2.815l1.479-0.146
		l0.317-0.377h-1.711c0.435-2.686,0.797-3.498,1.422-3.498c0.437,0,0.797,0.174,1.117,0.479c0.103,0.102,0.262,0.102,0.406-0.015
		c0.115-0.102,0.291-0.334,0.291-0.536c0.014-0.291-0.379-0.609-0.873-0.609c-0.842,0-1.725,0.494-2.334,1.219
		c-0.566,0.683-0.943,1.785-1.148,2.961h-0.942V6.41z M96.22,10.211c0-2.146,1.087-3.309,1.539-3.497
		c0.128-0.059,0.333-0.116,0.478-0.116c0.726,0,1.147,0.553,1.147,1.67c0.029,1.887-0.958,3.6-1.567,3.803
		c-0.116,0.043-0.305,0.1-0.448,0.1C96.553,12.17,96.22,11.302,96.22,10.211 M98.7,6.062c-0.377,0-0.972,0.172-1.566,0.521
		c-1.003,0.597-2.091,1.945-2.091,3.978c0,1.016,0.478,2.147,1.829,2.147c0.639,0,1.553-0.422,2.163-0.973
		c0.958-0.871,1.521-2.366,1.521-3.659C100.558,6.873,99.919,6.062,98.7,6.062 M81.883,3.104l2.603,4.697v3.967l-0.819,0.819h2.776
		l-0.819-0.819V7.802l2.653-4.683l0.856-0.838h-2.55l0.804,0.805L85.22,6.945l-2.062-3.859l0.804-0.805h-2.917L81.883,3.104z
		 M76.452,11.769V3.05h1.956l1.101,1.102v-1.87h-7.25V4.15l1.118-1.103h1.938v8.72l-0.803,0.819h2.759L76.452,11.769z M67.104,2.281
		l0.822,0.822v8.665l-0.822,0.819h2.779l-0.821-0.819V3.104l0.821-0.822H67.104z M64.119,9.724c0-1.015-0.474-1.644-0.961-1.976
		l-2.098-1.52c-0.751-0.541-1.135-1.238-1.135-1.765c0-1.082,0.926-1.467,1.485-1.467c0.297,0,0.506,0.121,0.664,0.121l0.908,0.979
		l0.96-1.433L61.9,2.28c-0.14-0.035-0.227-0.053-0.488-0.053c-1.801,0-2.621,1.537-2.621,2.533c0,0.784,0.401,1.678,1.328,2.356
		l2.114,1.521c0.576,0.401,0.733,0.996,0.733,1.504c0,0.873-0.542,1.815-1.712,1.815c-0.279,0-0.524-0.053-0.716-0.141l-0.979-1.152
		l-0.891,1.607l1.974,0.385c0,0,0.332,0.068,0.611,0.068C62.494,12.728,64.119,11.681,64.119,9.724 M50.876,3.05h1.258
		c1.101,0,1.975,0.942,1.975,2.062c0,1.064-0.892,1.904-1.975,1.904h-1.258V3.05z M50.876,11.769V7.785h1.556l2.497,4.803h1.712
		l-0.804-0.819l-2.305-4.229c1.152-0.35,1.938-1.432,1.938-2.41c0-1.745-1.624-2.848-3.337-2.848h-3.196l0.804,0.822v8.665
		l-0.804,0.819h2.759L50.876,11.769z M46.248,12.588v-1.886l-1.102,1.117H42.02V7.488h2.323l0.822,0.818V5.898L44.343,6.72H42.02
		V3.05h3.127l1.102,1.102v-1.87h-6.167l0.804,0.822v8.665l-0.804,0.819H46.248z M32.883,2.281h-2.917l0.839,0.822l2.899,9.484h0.523
		l2.986-9.484l0.839-0.822h-2.481l0.805,0.805l-2.185,7.125l-2.11-7.125L32.883,2.281z M24.884,2.281l0.821,0.822v8.665
		l-0.821,0.819h2.777l-0.821-0.819V3.104l0.821-0.822H24.884z M15.293,11.698V3.976l5.53,8.613h0.356V3.172l0.892-0.891h-2.69
		l0.891,0.891v6.552l-4.646-7.441h-2.131l0.874,0.891v8.526l-0.874,0.891h2.689L15.293,11.698z M3.692,9.828
		c0,1.694,1.434,2.987,3.198,2.987c1.676,0,3.336-1.24,3.336-2.987V3.172l0.874-0.891H8.41l0.891,0.891v6.656
		c0,1.188-0.942,2.131-2.131,2.131c-1.205,0-2.271-0.926-2.271-2.131V3.172l0.893-0.891H2.803l0.89,0.891V9.828z"/>
</g>
<path fill="#FFFFFF" d="M38.132,49.703v6.3h4.428L37.618,74.41c0,0-6.053-24.364-6.137-24.707H25.08
	c-0.09,0.335-6.641,24.707-6.641,24.707l-4.551-18.407H18.5v-6.3H0v6.3h4.1c0,0,7.07,28.298,7.158,28.64h9.93
	c0.088-0.336,4.738-18.021,4.738-18.021c2.951,11.798,2.806,11.051,4.505,18.021h9.936c0.085-0.336,7.529-28.64,7.529-28.64h4.066
	v-6.3H38.132z"/>
<polygon fill="#D2D3D4" points="348.884,89.731 340.503,107.357 341.61,107.357 349.991,89.731 "/>
<polygon fill="#D2D3D4" points="348.884,120.018 340.503,137.644 341.61,137.644 349.991,120.018 "/>
<g>
	<path fill="#FFFFFF" d="M543.088,13.397c0-7.387,6.01-13.397,13.397-13.397c7.387,0,13.398,6.011,13.398,13.397
		c0,7.389-6.012,13.399-13.398,13.399C549.098,26.797,543.088,20.786,543.088,13.397z M546.104,13.397
		c0,5.727,4.656,10.385,10.383,10.385c5.726,0,10.384-4.658,10.384-10.385c0-5.726-4.658-10.381-10.384-10.381
		C550.76,3.017,546.104,7.673,546.104,13.397z"/>
	
		<rect x="541.154" y="20.156" transform="matrix(-0.707 -0.7073 0.7073 -0.707 907.5865 429.8065)" fill="#FFFFFF" width="3.362" height="13.452"/>
</g>
<path fill="#FFFFFF" d="M304.983,33.173c-9.146,0-16.586-7.441-16.586-16.586C288.397,7.44,295.838,0,304.983,0
	c9.146,0,16.585,7.439,16.585,16.587C321.568,25.73,314.129,33.173,304.983,33.173z M304.983,3.015
	c-7.482,0-13.569,6.089-13.569,13.571c0,7.481,6.087,13.569,13.569,13.569c7.483,0,13.569-6.088,13.569-13.569
	C318.553,9.104,312.467,3.015,304.983,3.015z"/>
<rect x="298.953" y="15.078" fill="#FFFFFF" width="12.062" height="3.017"/>
<rect x="303.476" y="10.556" fill="#FFFFFF" width="3.016" height="12.062"/>
<path fill="#FED800" d="M293.255,67.976c-6.467-6.467-6.466-16.99,0-23.456c6.468-6.467,16.99-6.467,23.457,0
	c6.467,6.468,6.467,16.988-0.002,23.456C310.245,74.441,299.722,74.443,293.255,67.976z M314.58,46.651
	c-5.291-5.291-13.9-5.29-19.191,0.001c-5.29,5.291-5.291,13.899,0,19.19c5.292,5.292,13.899,5.29,19.189,0
	C319.869,60.552,319.871,51.943,314.58,46.651z"/>
<rect x="298.953" y="54.74" transform="matrix(-0.7071 -0.7071 0.7071 -0.7071 480.8661 311.6778)" fill="#FED800" width="12.062" height="3.016"/>
<rect x="303.475" y="50.217" transform="matrix(-0.707 -0.7072 0.7072 -0.707 480.8356 311.6974)" fill="#FED800" width="3.015" height="12.062"/>
<path fill="#4C2F83" d="M347.168,33.173c-9.145,0-16.586-7.441-16.586-16.586C330.582,7.44,338.023,0,347.168,0
	c9.146,0,16.586,7.439,16.586,16.587C363.754,25.73,356.314,33.173,347.168,33.173z M347.168,3.015
	c-7.482,0-13.568,6.089-13.568,13.571c0,7.481,6.086,13.569,13.568,13.569c7.484,0,13.57-6.088,13.57-13.569
	C360.738,9.104,354.652,3.015,347.168,3.015z"/>
<rect x="341.139" y="15.078" fill="#4C2F83" width="12.061" height="3.017"/>
<rect x="345.66" y="10.556" fill="#4C2F83" width="3.016" height="12.062"/>
<path fill="#4C2F83" d="M335.439,67.976c-6.467-6.467-6.466-16.99,0-23.456c6.469-6.467,16.99-6.467,23.457,0
	c6.467,6.468,6.467,16.988-0.002,23.456C352.43,74.441,341.906,74.443,335.439,67.976z M356.766,46.651
	c-5.291-5.291-13.9-5.29-19.191,0.001s-5.291,13.899,0,19.19c5.291,5.292,13.898,5.29,19.189,0
	C362.055,60.552,362.057,51.943,356.766,46.651z"/>
<rect x="341.138" y="54.74" transform="matrix(-0.7071 -0.7071 0.7071 -0.7071 552.8891 341.5015)" fill="#4C2F83" width="12.062" height="3.016"/>
<rect x="345.661" y="50.217" transform="matrix(-0.7069 -0.7073 0.7073 -0.7069 552.7812 341.5773)" fill="#4C2F83" width="3.015" height="12.062"/>
<g>
	<polygon fill="#BBBBBB" points="263.494,23.276 263.494,19.049 267.609,19.049 267.609,23.276 271.859,23.276 271.859,17.873 
		265.652,12.167 259.376,17.91 259.376,23.276 	"/>
	<polygon fill="#BBBBBB" points="272.693,17.222 265.619,10.756 258.544,17.222 257.097,15.64 265.619,7.852 274.138,15.64 	"/>
</g>
<g>
	<rect x="159.595" y="242.648" fill="#CD332D" width="29.45" height="29.45"/>
	<path fill="#FFFFFF" d="M172.269,245.526h-1.341l-0.905,3.479l-0.941-3.479h-1.396c0.279,0.82,0.57,1.646,0.85,2.468
		c0.426,1.235,0.691,2.166,0.811,2.803v3.587h1.327v-3.587L172.269,245.526z M175.814,252.247v-2.312
		c0-0.705-0.121-1.221-0.371-1.555c-0.332-0.45-0.797-0.676-1.396-0.676c-0.596,0-1.062,0.226-1.393,0.676
		c-0.256,0.334-0.375,0.85-0.375,1.555v2.312c0,0.702,0.119,1.222,0.375,1.553c0.33,0.45,0.797,0.676,1.393,0.676
		c0.6,0,1.064-0.226,1.396-0.676C175.693,253.468,175.814,252.949,175.814,252.247z M174.617,252.472c0,0.61-0.185,0.916-0.57,0.916
		c-0.387,0-0.571-0.306-0.571-0.916v-2.777c0-0.611,0.185-0.915,0.571-0.915c0.386,0,0.57,0.304,0.57,0.915V252.472z
		 M180.238,254.384v-6.601h-1.197v5.045c-0.266,0.375-0.516,0.56-0.756,0.56c-0.16,0-0.254-0.095-0.279-0.28
		c-0.016-0.039-0.016-0.185-0.016-0.466v-4.859h-1.192v5.22c0,0.466,0.041,0.782,0.106,0.981c0.119,0.335,0.385,0.492,0.771,0.492
		c0.437,0,0.89-0.266,1.366-0.812v0.72H180.238z"/>
	<path fill="#FFFFFF" d="M184.113,262.396c0,1.527-0.002,3.147-0.344,4.63c-0.239,1.041-1.092,1.81-2.117,1.925
		c-2.429,0.271-4.888,0.272-7.334,0.271c-2.447,0.001-4.906,0-7.334-0.271c-1.027-0.115-1.879-0.884-2.117-1.925
		c-0.341-1.483-0.341-3.103-0.341-4.63c0-1.529,0.003-3.146,0.345-4.631c0.239-1.041,1.091-1.81,2.117-1.924
		c2.428-0.271,4.887-0.272,7.334-0.271c2.447-0.001,4.905,0,7.334,0.271c1.026,0.114,1.879,0.883,2.117,1.924
		C184.114,259.25,184.113,260.867,184.113,262.396z"/>
	<path fill="#CD332D" d="M170.113,259.101v-1.235h-4.128v1.235h1.393v7.533h1.316v-7.533H170.113z M172.504,266.633v-0.712
		c-0.469,0.54-0.916,0.803-1.352,0.803c-0.383,0-0.645-0.155-0.763-0.486c-0.065-0.199-0.104-0.509-0.104-0.971v-5.166h1.183v4.81
		c0,0.277,0,0.422,0.011,0.46c0.029,0.183,0.119,0.276,0.277,0.276c0.237,0,0.486-0.184,0.748-0.554v-4.993h1.186v6.533H172.504z
		 M177.002,264.766c0,0.59-0.174,0.881-0.515,0.881c-0.194,0-0.393-0.093-0.59-0.291v-3.982c0.197-0.195,0.396-0.288,0.59-0.288
		c0.341,0,0.515,0.303,0.515,0.892V264.766z M178.186,264.673v-2.602c0-0.618-0.04-1.05-0.119-1.313
		c-0.158-0.489-0.475-0.737-0.946-0.737c-0.435,0-0.841,0.238-1.223,0.708v-2.863h-1.184v8.768h1.184V266
		c0.396,0.489,0.802,0.723,1.223,0.723c0.472,0,0.788-0.249,0.946-0.734C178.146,265.712,178.186,265.277,178.186,264.673z
		 M181.47,262.597h-1.183v-0.604c0-0.604,0.197-0.907,0.594-0.907c0.391,0,0.589,0.303,0.589,0.907V262.597z M182.654,264.543
		v-0.173h-1.209c0,0.476-0.014,0.737-0.025,0.801c-0.068,0.317-0.238,0.476-0.529,0.476c-0.406,0-0.604-0.301-0.604-0.907v-1.157
		h2.367v-1.354c0-0.699-0.119-1.209-0.367-1.539c-0.332-0.448-0.803-0.67-1.396-0.67c-0.604,0-1.076,0.222-1.418,0.67
		c-0.252,0.33-0.365,0.84-0.365,1.539v2.289c0,0.693,0.129,1.209,0.38,1.535c0.342,0.447,0.813,0.67,1.433,0.67
		s1.104-0.234,1.432-0.708c0.144-0.209,0.236-0.447,0.275-0.709C182.639,265.187,182.654,264.924,182.654,264.543z"/>
</g>
<g>
	<rect x="319.26" y="242.648" fill="#CC3732" width="29.449" height="29.45"/>
	<path fill="#FFFFFF" d="M333.516,247.264c0.185,0.114,0.391,0.281,0.621,0.5c0.221,0.229,0.437,0.512,0.648,0.845
		c0.204,0.314,0.383,0.686,0.541,1.116c0.129,0.429,0.192,0.93,0.192,1.502c-0.017,1.049-0.249,1.889-0.695,2.519
		c-0.218,0.306-0.449,0.587-0.694,0.845c-0.271,0.257-0.559,0.52-0.864,0.787c-0.176,0.181-0.337,0.386-0.484,0.616
		c-0.175,0.238-0.263,0.514-0.263,0.829c0,0.307,0.09,0.559,0.27,0.759c0.151,0.191,0.3,0.358,0.443,0.501l0.996,0.815
		c0.617,0.507,1.16,1.063,1.626,1.674c0.438,0.621,0.667,1.431,0.687,2.432c0,1.421-0.629,2.68-1.884,3.779
		c-1.3,1.135-3.179,1.721-5.634,1.76c-2.055-0.019-3.588-0.457-4.603-1.313c-1.021-0.8-1.533-1.757-1.533-2.871
		c0-0.542,0.165-1.147,0.5-1.814c0.321-0.666,0.906-1.251,1.753-1.756c0.949-0.542,1.947-0.905,2.993-1.086
		c1.036-0.151,1.896-0.237,2.58-0.257c-0.212-0.278-0.399-0.575-0.565-0.892c-0.193-0.307-0.289-0.677-0.289-1.107
		c0-0.259,0.036-0.476,0.109-0.647c0.064-0.184,0.125-0.35,0.18-0.504c-0.333,0.038-0.648,0.057-0.942,0.057
		c-1.562-0.019-2.752-0.511-3.571-1.473c-0.857-0.898-1.287-1.942-1.287-3.134c0-1.441,0.607-2.747,1.822-3.921
		c0.834-0.687,1.7-1.134,2.6-1.345c0.89-0.181,1.724-0.272,2.501-0.272h5.866l-1.812,1.058H333.516z M334.647,264.15
		c0-0.745-0.242-1.394-0.728-1.946c-0.515-0.524-1.316-1.168-2.41-1.933c-0.188-0.02-0.406-0.028-0.658-0.028
		c-0.149-0.019-0.533,0-1.149,0.057c-0.606,0.086-1.228,0.225-1.863,0.416c-0.149,0.057-0.358,0.144-0.63,0.258
		c-0.271,0.124-0.546,0.3-0.827,0.529c-0.271,0.238-0.499,0.534-0.686,0.887c-0.216,0.373-0.322,0.821-0.322,1.345
		c0,1.031,0.466,1.88,1.399,2.548c0.889,0.667,2.102,1.011,3.644,1.03c1.382-0.02,2.438-0.325,3.165-0.916
		C334.293,265.814,334.647,265.066,334.647,264.15z M330.559,255.551c0.772-0.029,1.416-0.308,1.931-0.833
		c0.249-0.373,0.407-0.755,0.479-1.147c0.042-0.393,0.064-0.721,0.064-0.99c0-1.156-0.296-2.322-0.888-3.498
		c-0.278-0.563-0.643-1.023-1.096-1.376c-0.463-0.333-0.994-0.511-1.595-0.53c-0.796,0.02-1.456,0.34-1.983,0.961
		c-0.444,0.65-0.657,1.376-0.637,2.18c0,1.061,0.31,2.164,0.931,3.312c0.302,0.535,0.688,0.988,1.164,1.361
		C329.404,255.365,329.947,255.551,330.559,255.551z"/>
	<polygon fill="#FFFFFF" points="345.083,249.41 342.005,249.41 342.005,246.332 340.514,246.332 340.514,249.41 337.436,249.41 
		337.436,250.901 340.514,250.901 340.514,253.979 342.005,253.979 342.005,250.901 345.083,250.901 	"/>
</g>
<g>
	<rect x="266.108" y="242.719" fill="#00B386" width="29.31" height="29.309"/>
	<path fill="#FFFFFF" d="M283.815,252.18c0-1.363,2.681-2.069,2.681,0.236c-0.008,1.264-0.179,2.432-0.451,3.502h2.787
		c0.212-1.291,0.203-2.566,0.203-4.068c0-4.231-7.805-4.936-7.805,0.425c0,3.765,1.772,5.745,3.628,6.789
		c-1.546,3.032-3.628,4.685-3.628,4.685c-5.83-4.75-5.267-12.791-5.267-12.791h-2.539c0.048,10.862,5.785,14.67,6.49,15.236
		c0.705,0.564,0.846,0.518,1.693,0.47c0.844-0.047,2.771-1.976,5.123-5.642c0.228-0.354,0.431-0.694,0.616-1.024
		c0.983,0.221,1.688,0.225,1.688,0.225v-2.305C284.097,257.446,283.815,253.214,283.815,252.18z"/>
</g>
<g>
	<rect x="372.48" y="242.648" fill="#32669A" width="29.45" height="29.451"/>
	<polygon fill="#231F20" points="372.48,272.099 372.48,272.128 401.96,272.128 401.96,242.619 372.451,242.619 372.451,272.128 
		372.48,272.128 372.48,272.099 372.51,272.099 372.51,242.677 401.902,242.677 401.902,272.069 372.48,272.069 372.48,272.099 
		372.51,272.099 	"/>
	<path fill="#FFFFFF" d="M379.998,247.676h14.418c1.369,0,2.489,1.12,2.489,2.49v14.417c0,1.369-1.12,2.488-2.489,2.488h-14.418
		c-1.369,0-2.49-1.119-2.49-2.488v-14.417C377.508,248.796,378.629,247.676,379.998,247.676z M391.639,249.83
		c-0.481,0-0.874,0.395-0.874,0.875v2.089c0,0.481,0.393,0.874,0.874,0.874h2.192c0.479,0,0.872-0.393,0.872-0.874v-2.089
		c0-0.48-0.393-0.875-0.872-0.875H391.639z M394.712,255.877h-1.706c0.161,0.529,0.249,1.086,0.249,1.666
		c0,3.225-2.7,5.841-6.03,5.841c-3.329,0-6.029-2.616-6.029-5.841c0-0.58,0.088-1.137,0.25-1.666h-1.781v8.194
		c0,0.425,0.347,0.77,0.771,0.77h13.507c0.425,0,0.771-0.345,0.771-0.77V255.877z M387.225,253.557
		c-2.151,0-3.895,1.689-3.895,3.775c0,2.084,1.743,3.774,3.895,3.774c2.152,0,3.896-1.69,3.896-3.774
		C391.121,255.247,389.377,253.557,387.225,253.557z"/>
</g>
<g>
	<rect x="106.373" y="242.648" fill="#CA2128" width="29.45" height="29.45"/>
	<path fill="#FFFFFF" d="M121.098,246.721c-5.882,0-10.652,4.769-10.652,10.652c0,4.361,2.623,8.109,6.376,9.756
		c-0.03-0.745-0.006-1.638,0.185-2.446c0.206-0.866,1.371-5.806,1.371-5.806s-0.341-0.679-0.341-1.685
		c0-1.577,0.916-2.757,2.056-2.757c0.968,0,1.436,0.728,1.436,1.599c0,0.974-0.622,2.431-0.94,3.78
		c-0.267,1.13,0.567,2.051,1.68,2.051c2.019,0,3.378-2.591,3.378-5.663c0-2.333-1.572-4.081-4.432-4.081
		c-3.23,0-5.244,2.409-5.244,5.1c0,0.928,0.274,1.583,0.703,2.09c0.197,0.232,0.225,0.326,0.152,0.593
		c-0.049,0.197-0.167,0.668-0.216,0.854c-0.071,0.271-0.289,0.367-0.533,0.268c-1.489-0.607-2.182-2.237-2.182-4.069
		c0-3.025,2.551-6.654,7.614-6.654c4.065,0,6.744,2.943,6.744,6.103c0,4.179-2.325,7.3-5.749,7.3c-1.151,0-2.232-0.622-2.602-1.327
		c0,0-0.619,2.454-0.749,2.928c-0.226,0.82-0.668,1.642-1.073,2.282c0.958,0.282,1.97,0.436,3.019,0.436
		c5.882,0,10.651-4.768,10.651-10.652S126.98,246.721,121.098,246.721z"/>
</g>
<g>
	<rect y="242.719" fill="#3B5999" width="29.309" height="29.309"/>
	<path fill="#FFFFFF" d="M25.561,260.264l0.579-4.486h-4.442v-2.864c0-1.299,0.362-2.185,2.224-2.185l2.374-0.001v-4.013
		c-0.41-0.055-1.819-0.177-3.461-0.177c-3.426,0-5.769,2.091-5.769,5.931v3.308h-3.875v4.486h3.875v11.511h4.632v-11.511H25.561z"/>
</g>
<g>
	<rect x="212.815" y="242.649" fill="#017BB6" width="29.45" height="29.449"/>
	<path fill="#FFFFFF" d="M217.855,254.018h4.154v13.349h-4.154V254.018z M219.935,247.381c1.328,0,2.405,1.079,2.405,2.405
		c0,1.328-1.077,2.406-2.405,2.406c-1.333,0-2.408-1.078-2.408-2.406C217.526,248.46,218.602,247.381,219.935,247.381"/>
	<path fill="#FFFFFF" d="M224.615,254.018h3.979v1.825h0.057c0.554-1.051,1.908-2.156,3.928-2.156c4.2,0,4.978,2.763,4.978,6.358
		v7.322h-4.147v-6.49c0-1.55-0.031-3.541-2.158-3.541c-2.16,0-2.489,1.686-2.489,3.426v6.604h-4.146V254.018z"/>
</g>
<g>
	<rect x="53.151" y="242.648" fill="#2AA8E0" width="29.451" height="29.451"/>
	<path fill="#FFFFFF" d="M77.692,251.285c-0.723,0.32-1.499,0.537-2.313,0.634c0.832-0.498,1.471-1.287,1.771-2.228
		c-0.777,0.461-1.639,0.797-2.557,0.978c-0.736-0.783-1.783-1.272-2.941-1.272c-2.225,0-4.028,1.804-4.028,4.028
		c0,0.316,0.036,0.623,0.104,0.917c-3.347-0.167-6.315-1.771-8.302-4.209c-0.346,0.597-0.545,1.288-0.545,2.026
		c0,1.396,0.711,2.631,1.791,3.352c-0.66-0.02-1.28-0.203-1.824-0.504v0.051c0,1.952,1.389,3.58,3.231,3.95
		c-0.338,0.092-0.695,0.142-1.062,0.142c-0.259,0-0.512-0.026-0.758-0.073c0.513,1.6,2,2.764,3.762,2.798
		c-1.377,1.08-3.114,1.724-5.002,1.724c-0.325,0-0.645-0.02-0.96-0.057c1.782,1.143,3.899,1.81,6.175,1.81
		c7.408,0,11.46-6.137,11.46-11.46c0-0.174-0.005-0.348-0.011-0.522C76.469,252.802,77.151,252.092,77.692,251.285z"/>
</g>
<g>
	<path fill="#FFFFFF" d="M174.674,207.446c0.385,0,0.57-0.306,0.57-0.916v-2.777c0-0.611-0.186-0.915-0.57-0.915
		c-0.387,0-0.572,0.304-0.572,0.915v2.777C174.102,207.14,174.287,207.446,174.674,207.446z"/>
	<path fill="#FFFFFF" d="M160.221,226.156h29.45v-29.45h-29.45V226.156z M177.424,201.84h1.193v4.859c0,0.281,0,0.427,0.015,0.466
		c0.026,0.186,0.12,0.28,0.28,0.28c0.239,0,0.49-0.186,0.756-0.56v-5.045h1.197v6.601h-1.197v-0.72
		c-0.477,0.546-0.931,0.812-1.367,0.812c-0.385,0-0.65-0.157-0.77-0.492c-0.066-0.199-0.107-0.516-0.107-0.981V201.84z
		 M172.906,203.992c0-0.705,0.119-1.221,0.374-1.555c0.331-0.45,0.798-0.676,1.394-0.676c0.599,0,1.063,0.226,1.396,0.676
		c0.25,0.334,0.372,0.85,0.372,1.555v2.312c0,0.702-0.122,1.222-0.372,1.553c-0.332,0.45-0.797,0.676-1.396,0.676
		c-0.596,0-1.062-0.226-1.394-0.676c-0.255-0.331-0.374-0.851-0.374-1.553V203.992z M169.707,199.583l0.941,3.479l0.906-3.479h1.34
		l-1.596,5.271v3.587h-1.326v-3.587c-0.119-0.637-0.386-1.567-0.811-2.803c-0.279-0.822-0.571-1.647-0.851-2.468H169.707z
		 M165.498,211.823c0.238-1.041,1.09-1.81,2.116-1.924c2.429-0.271,4.888-0.272,7.335-0.271c2.446-0.001,4.904,0,7.334,0.271
		c1.025,0.114,1.878,0.883,2.117,1.924c0.34,1.485,0.339,3.102,0.339,4.631c0,1.527-0.001,3.146-0.343,4.63
		c-0.24,1.041-1.092,1.81-2.117,1.925c-2.43,0.271-4.889,0.271-7.334,0.271c-2.448,0.001-4.906,0-7.335-0.271
		c-1.026-0.115-1.878-0.884-2.116-1.925c-0.342-1.483-0.342-3.103-0.342-4.63C165.152,214.925,165.156,213.308,165.498,211.823z"/>
	<path fill="#FFFFFF" d="M171.779,220.781c0.435,0,0.882-0.263,1.352-0.803v0.713h1.186v-6.533h-1.186v4.993
		c-0.262,0.37-0.512,0.554-0.748,0.554c-0.158,0-0.248-0.094-0.277-0.276c-0.012-0.039-0.012-0.184-0.012-0.46v-4.81h-1.183v5.166
		c0,0.462,0.04,0.772,0.104,0.971C171.134,220.626,171.396,220.781,171.779,220.781z"/>
	<path fill="#FFFFFF" d="M176.523,220.058c0.396,0.488,0.802,0.723,1.223,0.723c0.473,0,0.789-0.248,0.947-0.734
		c0.078-0.276,0.119-0.712,0.119-1.315v-2.602c0-0.618-0.041-1.05-0.119-1.313c-0.158-0.489-0.475-0.737-0.947-0.737
		c-0.435,0-0.84,0.238-1.223,0.708v-2.863h-1.184v8.768h1.184V220.058z M176.523,215.432c0.197-0.195,0.396-0.288,0.59-0.288
		c0.342,0,0.516,0.303,0.516,0.892v2.788c0,0.59-0.174,0.881-0.516,0.881c-0.193,0-0.393-0.094-0.59-0.291V215.432z"/>
	<polygon fill="#FFFFFF" points="168.004,220.691 169.32,220.691 169.32,213.158 170.739,213.158 170.739,211.923 166.611,211.923 
		166.611,213.158 168.004,213.158 	"/>
	<path fill="#FFFFFF" d="M181.547,220.781c0.618,0,1.104-0.234,1.432-0.708c0.143-0.209,0.236-0.447,0.275-0.709
		c0.012-0.119,0.026-0.382,0.026-0.763v-0.173h-1.209c0,0.476-0.014,0.736-0.024,0.801c-0.068,0.316-0.238,0.476-0.529,0.476
		c-0.406,0-0.604-0.302-0.604-0.907v-1.157h2.367v-1.354c0-0.699-0.119-1.209-0.367-1.539c-0.331-0.448-0.802-0.67-1.396-0.67
		c-0.604,0-1.077,0.222-1.418,0.67c-0.252,0.33-0.365,0.84-0.365,1.539v2.289c0,0.693,0.129,1.209,0.379,1.535
		C180.455,220.558,180.927,220.781,181.547,220.781z M180.913,216.051c0-0.604,0.198-0.907,0.594-0.907
		c0.391,0,0.589,0.303,0.589,0.907v0.604h-1.183V216.051z"/>
</g>
<g>
	<path fill="#FFFFFF" d="M333.594,207.629c0.042-0.393,0.064-0.721,0.064-0.99c0-1.156-0.296-2.322-0.887-3.498
		c-0.279-0.563-0.644-1.023-1.096-1.376c-0.463-0.333-0.995-0.511-1.595-0.53c-0.796,0.02-1.456,0.34-1.983,0.961
		c-0.445,0.65-0.658,1.376-0.638,2.18c0,1.061,0.31,2.164,0.931,3.312c0.302,0.535,0.688,0.988,1.164,1.361
		c0.476,0.374,1.019,0.561,1.63,0.561c0.772-0.029,1.416-0.308,1.931-0.833C333.364,208.403,333.523,208.021,333.594,207.629z"/>
	<path fill="#FFFFFF" d="M327.4,220.34c0.889,0.667,2.102,1.011,3.643,1.03c1.383-0.02,2.438-0.325,3.166-0.916
		c0.711-0.583,1.065-1.331,1.065-2.247c0-0.745-0.243-1.394-0.728-1.946c-0.515-0.524-1.317-1.168-2.41-1.933
		c-0.188-0.02-0.406-0.028-0.658-0.028c-0.15-0.019-0.533,0-1.149,0.057c-0.606,0.086-1.229,0.225-1.864,0.416
		c-0.148,0.057-0.358,0.144-0.629,0.258c-0.271,0.124-0.547,0.3-0.828,0.529c-0.271,0.238-0.499,0.534-0.686,0.887
		c-0.216,0.373-0.322,0.821-0.322,1.345C326,218.823,326.467,219.672,327.4,220.34z"/>
	<path fill="#FFFFFF" d="M319.886,226.156h29.45v-29.45h-29.45V226.156z M338.062,203.467h3.077v-3.078h1.491v3.078h3.078v1.491
		h-3.078v3.078h-1.491v-3.078h-3.077V203.467z M324.012,216.6c0.322-0.666,0.906-1.251,1.753-1.756
		c0.949-0.542,1.948-0.905,2.993-1.086c1.036-0.151,1.896-0.237,2.58-0.257c-0.211-0.278-0.399-0.575-0.565-0.892
		c-0.192-0.307-0.288-0.677-0.288-1.107c0-0.259,0.035-0.476,0.108-0.647c0.065-0.184,0.125-0.35,0.18-0.504
		c-0.333,0.038-0.647,0.057-0.941,0.057c-1.562-0.019-2.753-0.511-3.571-1.473c-0.857-0.898-1.287-1.942-1.287-3.134
		c0-1.441,0.607-2.747,1.822-3.921c0.834-0.687,1.7-1.134,2.599-1.345c0.89-0.181,1.724-0.272,2.502-0.272h5.866l-1.812,1.058
		h-1.808c0.184,0.114,0.391,0.281,0.621,0.5c0.221,0.229,0.437,0.512,0.648,0.845c0.203,0.314,0.383,0.686,0.54,1.116
		c0.129,0.429,0.193,0.93,0.193,1.502c-0.017,1.049-0.249,1.889-0.695,2.519c-0.219,0.306-0.45,0.587-0.694,0.845
		c-0.271,0.257-0.56,0.52-0.865,0.787c-0.175,0.181-0.336,0.386-0.484,0.616c-0.175,0.238-0.263,0.514-0.263,0.829
		c0,0.307,0.091,0.559,0.27,0.759c0.151,0.191,0.3,0.358,0.443,0.501l0.996,0.815c0.618,0.507,1.161,1.063,1.626,1.674
		c0.439,0.621,0.668,1.431,0.688,2.432c0,1.421-0.629,2.68-1.885,3.779c-1.3,1.135-3.179,1.721-5.634,1.76
		c-2.055-0.02-3.588-0.457-4.602-1.313c-1.021-0.801-1.534-1.757-1.534-2.871C323.512,217.873,323.678,217.267,324.012,216.6z"/>
</g>
<path fill="#FFFFFF" d="M266.735,226.014h29.309v-29.308h-29.309V226.014z M276.591,204.944c0,0-0.564,8.041,5.266,12.791
	c0,0,2.083-1.652,3.629-4.685c-1.855-1.043-3.629-3.024-3.629-6.789c0-5.361,7.805-4.656,7.805-0.425
	c0,1.501,0.01,2.777-0.202,4.068h-2.787c0.271-1.07,0.442-2.238,0.45-3.502c0-2.305-2.681-1.599-2.681-0.236
	c0,1.035,0.281,5.267,5.22,5.737v2.305c0,0-0.704-0.004-1.688-0.225c-0.185,0.33-0.389,0.67-0.616,1.024
	c-2.352,3.666-4.278,5.594-5.122,5.642c-0.849,0.047-0.988,0.094-1.694-0.471c-0.705-0.565-6.442-4.373-6.489-15.235H276.591z"/>
<g>
	<path fill="#FFFFFF" d="M402.528,196.706h-29.392v29.392h29.392V196.706z M397.531,218.611c0,1.369-1.119,2.488-2.489,2.488
		h-14.417c-1.369,0-2.49-1.119-2.49-2.488v-14.417c0-1.37,1.121-2.49,2.49-2.49h14.417c1.37,0,2.489,1.12,2.489,2.49V218.611z"/>
	<path fill="#FFFFFF" d="M392.265,207.696h2.192c0.48,0,0.873-0.393,0.873-0.874v-2.089c0-0.48-0.393-0.875-0.873-0.875h-2.192
		c-0.481,0-0.874,0.395-0.874,0.875v2.089C391.391,207.303,391.783,207.696,392.265,207.696z"/>
	<path fill="#FFFFFF" d="M393.881,211.572c0,3.225-2.7,5.841-6.029,5.841c-3.33,0-6.029-2.616-6.029-5.841
		c0-0.58,0.088-1.137,0.249-1.666h-1.78v8.194c0,0.425,0.346,0.77,0.77,0.77h13.508c0.424,0,0.77-0.345,0.77-0.77v-8.194h-1.706
		C393.793,210.435,393.881,210.992,393.881,211.572z"/>
	<ellipse fill="#FFFFFF" cx="387.852" cy="211.361" rx="3.896" ry="3.775"/>
</g>
<path fill="#FFFFFF" d="M106.999,226.156h29.45v-29.45h-29.45V226.156z M121.724,200.779c5.882,0,10.651,4.769,10.651,10.652
	s-4.769,10.651-10.651,10.651c-1.049,0-2.061-0.154-3.019-0.436c0.404-0.641,0.847-1.462,1.073-2.282
	c0.13-0.474,0.749-2.928,0.749-2.928c0.37,0.705,1.451,1.327,2.602,1.327c3.424,0,5.749-3.121,5.749-7.3
	c0-3.16-2.678-6.103-6.744-6.103c-5.062,0-7.614,3.629-7.614,6.654c0,1.832,0.693,3.462,2.182,4.069
	c0.244,0.1,0.462,0.004,0.533-0.268c0.05-0.187,0.167-0.657,0.216-0.854c0.073-0.267,0.045-0.36-0.152-0.593
	c-0.429-0.507-0.703-1.162-0.703-2.09c0-2.691,2.014-5.1,5.244-5.1c2.859,0,4.432,1.747,4.432,4.081
	c0,3.072-1.359,5.663-3.378,5.663c-1.112,0-1.947-0.921-1.68-2.051c0.319-1.349,0.94-2.806,0.94-3.78
	c0-0.871-0.468-1.599-1.436-1.599c-1.14,0-2.056,1.18-2.056,2.757c0,1.005,0.341,1.685,0.341,1.685s-1.166,4.94-1.371,5.806
	c-0.19,0.808-0.215,1.7-0.185,2.445c-3.754-1.647-6.376-5.395-6.376-9.756C111.072,205.547,115.842,200.779,121.724,200.779z"/>
<path fill="#FFFFFF" d="M0.626,226.014h29.309v-29.308H0.626V226.014z M13.817,209.765h3.875v-3.308c0-3.84,2.343-5.931,5.769-5.931
	c1.642,0,3.051,0.122,3.461,0.177v4.013l-2.374,0.001c-1.862,0-2.224,0.886-2.224,2.185v2.864h4.442l-0.579,4.486h-3.864v11.51
	h-4.632v-11.51h-3.875V209.765z"/>
<path fill="#FFFFFF" d="M213.442,226.155h29.45v-29.449h-29.45V226.155z M222.637,221.423h-4.155v-13.349h4.155V221.423z
	 M225.242,208.075h3.979v1.825h0.057c0.554-1.051,1.908-2.156,3.929-2.156c4.199,0,4.978,2.763,4.978,6.358v7.322h-4.148v-6.49
	c0-1.55-0.03-3.541-2.158-3.541c-2.159,0-2.488,1.686-2.488,3.426v6.604h-4.146V208.075z M220.561,201.438
	c1.328,0,2.406,1.079,2.406,2.405c0,1.328-1.078,2.406-2.406,2.406c-1.333,0-2.408-1.078-2.408-2.406
	C218.152,202.518,219.228,201.438,220.561,201.438z"/>
<path fill="#FFFFFF" d="M53.777,226.157h29.451v-29.451H53.777V226.157z M60.886,213.134c0.246,0.047,0.499,0.073,0.758,0.073
	c0.367,0,0.724-0.05,1.062-0.142c-1.842-0.37-3.231-1.998-3.231-3.95v-0.051c0.543,0.301,1.164,0.484,1.824,0.504
	c-1.08-0.721-1.791-1.956-1.791-3.352c0-0.738,0.199-1.43,0.545-2.026c1.987,2.438,4.955,4.042,8.302,4.209
	c-0.068-0.294-0.104-0.601-0.104-0.917c0-2.224,1.803-4.028,4.028-4.028c1.158,0,2.205,0.489,2.941,1.272
	c0.917-0.181,1.779-0.517,2.557-0.978c-0.3,0.941-0.939,1.73-1.771,2.228c0.814-0.097,1.591-0.313,2.313-0.634
	c-0.541,0.808-1.224,1.518-2.009,2.084c0.006,0.174,0.011,0.348,0.011,0.522c0,5.323-4.052,11.459-11.46,11.459
	c-2.276,0-4.393-0.667-6.175-1.809c0.315,0.037,0.635,0.057,0.96,0.057c1.888,0,3.625-0.644,5.002-1.724
	C62.886,215.898,61.399,214.734,60.886,213.134z"/>
<path fill="#FFFFFF" d="M500.939,37.808l7.979-7.979l2.28,2.351l-5.735,5.664l5.735,5.699l-2.28,2.28L500.939,37.808z"/>
<path fill="#FFFFFF" d="M478.056,45.822l-2.28-2.28l5.735-5.699l-5.735-5.664l2.28-2.351l7.979,7.979L478.056,45.822z"/>
<path fill="#FED800" d="M401.248,35.143c0,2.517-0.891,4.667-2.672,6.447c-1.781,1.781-3.931,2.672-6.447,2.672
	c-2.518,0-4.667-0.891-6.447-2.672c-1.781-1.781-2.672-3.93-2.672-6.447s0.891-4.667,2.672-6.448c1.78-1.781,3.93-2.671,6.447-2.671
	c2.517,0,4.666,0.891,6.447,2.671C400.357,30.477,401.248,32.626,401.248,35.143z M397.614,35.143c0-1.52-0.534-2.814-1.603-3.883
	c-1.069-1.069-2.363-1.603-3.883-1.603c-1.521,0-2.814,0.534-3.883,1.603s-1.603,2.363-1.603,3.883c0,1.52,0.534,2.814,1.603,3.883
	c1.068,1.068,2.362,1.603,3.883,1.603c1.52,0,2.813-0.534,3.883-1.603C397.08,37.957,397.614,36.663,397.614,35.143z
	 M394.872,35.143c0,0.76-0.268,1.407-0.802,1.941c-0.534,0.534-1.182,0.801-1.941,0.801s-1.407-0.267-1.941-0.801
	c-0.534-0.535-0.802-1.182-0.802-1.941c0-0.76,0.268-1.407,0.802-1.941s1.182-0.802,1.941-0.802s1.407,0.268,1.941,0.802
	S394.872,34.383,394.872,35.143z"/>
<path fill="#FFFFFF" d="M401.248,9.119c0,2.517-0.891,4.667-2.672,6.448c-1.781,1.781-3.931,2.671-6.447,2.671
	c-2.518,0-4.667-0.891-6.447-2.671c-1.781-1.781-2.672-3.931-2.672-6.448s0.891-4.667,2.672-6.447
	c1.78-1.781,3.93-2.672,6.447-2.672c2.517,0,4.666,0.891,6.447,2.672C400.357,4.453,401.248,6.602,401.248,9.119z M397.614,9.119
	c0-1.52-0.534-2.814-1.603-3.883c-1.069-1.068-2.363-1.603-3.883-1.603c-1.521,0-2.814,0.534-3.883,1.603
	c-1.068,1.069-1.603,2.363-1.603,3.883c0,1.52,0.534,2.814,1.603,3.883s2.362,1.603,3.883,1.603c1.52,0,2.813-0.534,3.883-1.603
	C397.08,11.933,397.614,10.639,397.614,9.119z"/>
<path fill="#4C2F83" d="M426.126,35.143c0,2.517-0.891,4.667-2.672,6.447c-1.781,1.781-3.931,2.672-6.447,2.672
	c-2.518,0-4.667-0.891-6.447-2.672c-1.781-1.781-2.672-3.93-2.672-6.447s0.891-4.667,2.672-6.448c1.78-1.781,3.93-2.671,6.447-2.671
	c2.517,0,4.666,0.891,6.447,2.671C425.235,30.477,426.126,32.626,426.126,35.143z M422.492,35.143c0-1.52-0.534-2.814-1.603-3.883
	c-1.069-1.069-2.363-1.603-3.883-1.603c-1.521,0-2.814,0.534-3.883,1.603s-1.603,2.363-1.603,3.883c0,1.52,0.534,2.814,1.603,3.883
	c1.068,1.068,2.362,1.603,3.883,1.603c1.52,0,2.813-0.534,3.883-1.603C421.958,37.957,422.492,36.663,422.492,35.143z
	 M419.75,35.143c0,0.76-0.268,1.407-0.802,1.941c-0.534,0.534-1.182,0.801-1.941,0.801s-1.407-0.267-1.941-0.801
	c-0.534-0.535-0.802-1.182-0.802-1.941c0-0.76,0.268-1.407,0.802-1.941s1.182-0.802,1.941-0.802s1.407,0.268,1.941,0.802
	S419.75,34.383,419.75,35.143z"/>
<path fill="#FFFFFF" d="M426.126,9.119c0,2.517-0.891,4.667-2.672,6.448c-1.781,1.781-3.931,2.671-6.447,2.671
	c-2.518,0-4.667-0.891-6.447-2.671c-1.781-1.781-2.672-3.931-2.672-6.448s0.891-4.667,2.672-6.447C412.34,0.891,414.489,0,417.007,0
	c2.517,0,4.666,0.891,6.447,2.672C425.235,4.453,426.126,6.602,426.126,9.119z M422.492,9.119c0-1.52-0.534-2.814-1.603-3.883
	c-1.069-1.068-2.363-1.603-3.883-1.603c-1.521,0-2.814,0.534-3.883,1.603c-1.068,1.069-1.603,2.363-1.603,3.883
	c0,1.52,0.534,2.814,1.603,3.883s2.362,1.603,3.883,1.603c1.52,0,2.813-0.534,3.883-1.603
	C421.958,11.933,422.492,10.639,422.492,9.119z"/>
<path fill="#4C2F83" d="M456.76,1.335c0.891,0.891,1.336,1.965,1.336,3.224v9.119c0,1.259-0.445,2.333-1.336,3.224
	c-0.891,0.89-1.965,1.335-3.225,1.335h-9.117c-1.26,0-2.334-0.445-3.225-1.335c-0.891-0.891-1.336-1.965-1.336-3.224V4.56
	c0-1.259,0.445-2.333,1.336-3.224C442.084,0.445,443.158,0,444.418,0h9.117C454.795,0,455.869,0.445,456.76,1.335z M454.854,6.768
	l-0.961-0.962c-0.143-0.166-0.297-0.166-0.463,0l-5.094,5.058c-0.166,0.167-0.334,0.167-0.5,0l-2.207-2.28
	c-0.072-0.047-0.154-0.071-0.25-0.071s-0.178,0.024-0.25,0.071l-0.996,0.891c-0.072,0.071-0.107,0.154-0.107,0.25
	c0,0.095,0.035,0.178,0.107,0.249l2.244,2.387c0.047,0.024,0.1,0.065,0.16,0.125c0.059,0.059,0.125,0.125,0.195,0.196
	s0.119,0.119,0.143,0.143l0.961,0.997c0.166,0.143,0.334,0.143,0.5,0l6.518-6.554C455.02,7.101,455.02,6.934,454.854,6.768z"/>
<path fill="#BCBEC0" d="M444.162,26.205h9.119c1.258,0,2.332,0.445,3.223,1.335s1.336,1.965,1.336,3.224v9.119
	c0,1.259-0.445,2.333-1.336,3.224c-0.891,0.891-1.965,1.336-3.223,1.336h-9.119c-1.26,0-2.334-0.445-3.225-1.336
	c-0.891-0.89-1.336-1.965-1.336-3.224v-9.119c0-1.258,0.445-2.333,1.336-3.224S442.902,26.205,444.162,26.205z"/>
<path fill="#FFFFFF" d="M487.758,3.092c0.119,0.119,0.179,0.255,0.179,0.41c0,0.154-0.06,0.291-0.179,0.409l-4.452,4.417
	c-0.261,0.261-0.261,0.534,0,0.819l4.452,4.417c0.119,0.119,0.179,0.255,0.179,0.409c0,0.155-0.06,0.291-0.179,0.41l-1.603,1.603
	c-0.118,0.119-0.255,0.178-0.409,0.178s-0.291-0.06-0.41-0.178l-4.417-4.417c-0.118-0.119-0.255-0.178-0.409-0.178
	s-0.291,0.06-0.41,0.178l-4.417,4.417c-0.118,0.119-0.255,0.178-0.409,0.178s-0.291-0.06-0.41-0.178l-1.603-1.603
	c-0.119-0.119-0.179-0.255-0.179-0.41c0-0.154,0.06-0.291,0.179-0.409l4.417-4.417c0.261-0.285,0.261-0.558,0-0.819l-4.417-4.417
	c-0.285-0.285-0.285-0.558,0-0.819l1.603-1.603c0.119-0.119,0.256-0.178,0.41-0.178s0.291,0.06,0.409,0.178l4.417,4.417
	c0.119,0.119,0.256,0.178,0.41,0.178s0.291-0.06,0.409-0.178l4.417-4.417c0.262-0.285,0.534-0.285,0.819,0L487.758,3.092z"/>
<path fill="#FFFFFF" d="M517.376,4.39c0.095,0.119,0.143,0.255,0.143,0.41s-0.048,0.291-0.143,0.41l-10.899,10.9
	c-0.262,0.261-0.535,0.261-0.82,0l-1.603-1.639c-0.166-0.166-0.439-0.439-0.819-0.819l-3.74-3.918
	c-0.095-0.119-0.143-0.261-0.143-0.428c0-0.143,0.048-0.273,0.143-0.392l1.639-1.46c0.119-0.119,0.262-0.178,0.428-0.178
	c0.143,0,0.272,0.059,0.392,0.178l3.704,3.776c0.285,0.261,0.559,0.261,0.82,0l8.478-8.442c0.118-0.119,0.255-0.178,0.409-0.178
	s0.291,0.06,0.41,0.178L517.376,4.39z"/>
<g>
	<polygon fill="#FFFFFF" points="489.883,70.322 489.887,70.317 476.974,56.712 474.071,59.465 484.369,70.322 474.071,81.18 
		476.974,83.932 489.887,70.327 	"/>
</g>
<g>
	<polygon fill="#FFFFFF" points="498.875,70.322 498.871,70.317 511.784,56.712 514.687,59.465 504.389,70.322 514.687,81.18 
		511.784,83.932 498.871,70.327 	"/>
</g>
<g>
	<path fill="#FFFFFF" d="M123.57,325.857c3.984,0,7.225-4.106,7.225-9.154c0-5.048-3.241-9.154-7.225-9.154
		c-3.985,0-7.228,4.106-7.228,9.154C116.342,321.75,119.584,325.857,123.57,325.857z M123.57,309.476
		c2.871,0,5.299,3.309,5.299,7.228c0,3.917-2.428,7.226-5.299,7.226c-2.874,0-5.3-3.309-5.3-7.226
		C118.27,312.785,120.696,309.476,123.57,309.476z"/>
	<path fill="#FFFFFF" d="M110.129,327.479l-1.927,5.781c-0.098,0.293-0.048,0.616,0.133,0.868s0.472,0.4,0.781,0.4h28.906
		c0.31,0,0.6-0.148,0.782-0.4c0.18-0.252,0.229-0.574,0.132-0.868l-1.927-5.781c-0.101-0.303-0.343-0.535-0.649-0.623l-6.745-1.926
		c-0.232-0.068-0.479-0.045-0.696,0.063l-5.349,2.676l-5.351-2.676c-0.216-0.108-0.463-0.131-0.696-0.063l-6.744,1.926
		C110.473,326.944,110.229,327.176,110.129,327.479z M117.692,326.885l5.446,2.724c0.271,0.135,0.591,0.135,0.861,0l5.446-2.724
		l5.897,1.686l1.343,4.03h-26.232l1.343-4.03L117.692,326.885z"/>
</g>
<g>
	<path fill="#FFFFFF" d="M82.092,309.477h-3.854v-0.964c0-0.532-0.431-0.963-0.964-0.963h-2.891c-0.532,0-0.963,0.432-0.963,0.963
		v0.964H61.857v-0.964c0-0.532-0.433-0.963-0.964-0.963h-2.89c-0.533,0-0.965,0.432-0.965,0.963v0.964h-3.854
		c-0.532,0-0.964,0.432-0.964,0.963v23.125c0,0.532,0.432,0.963,0.964,0.963h28.907c0.532,0,0.964-0.431,0.964-0.963V310.44
		C83.056,309.909,82.624,309.477,82.092,309.477z M75.347,309.477h0.964v1.927h-0.964V309.477z M58.966,309.477h0.964v1.927h-0.964
		V309.477z M81.129,332.601H54.148v-21.197h2.891v0.962c0,0.533,0.432,0.964,0.965,0.964h2.89c0.531,0,0.964-0.431,0.964-0.964
		v-0.962H73.42v0.962c0,0.533,0.431,0.964,0.963,0.964h2.891c0.533,0,0.964-0.431,0.964-0.964v-0.962h2.892V332.601z"/>
	<path fill="#FFFFFF" d="M61.857,317.186h-3.854c-0.533,0-0.965,0.432-0.965,0.963v3.854c0,0.533,0.432,0.963,0.965,0.963h3.854
		c0.533,0,0.963-0.431,0.963-0.963v-3.854C62.82,317.617,62.39,317.186,61.857,317.186z M60.894,321.039h-1.928v-1.926h1.928
		V321.039z"/>
	<path fill="#FFFFFF" d="M69.565,317.186h-3.854c-0.532,0-0.963,0.432-0.963,0.963v3.854c0,0.533,0.431,0.963,0.963,0.963h3.854
		c0.53,0,0.963-0.431,0.963-0.963v-3.854C70.528,317.617,70.096,317.186,69.565,317.186z M68.6,321.039h-1.926v-1.926H68.6V321.039z
		"/>
	<path fill="#FFFFFF" d="M77.273,317.186H73.42c-0.533,0-0.964,0.432-0.964,0.963v3.854c0,0.533,0.431,0.963,0.964,0.963h3.854
		c0.533,0,0.964-0.431,0.964-0.963v-3.854C78.237,317.617,77.807,317.186,77.273,317.186z M76.311,321.039h-1.928v-1.926h1.928
		V321.039z"/>
	<path fill="#FFFFFF" d="M61.857,324.894h-3.854c-0.533,0-0.965,0.43-0.965,0.963v3.854c0,0.532,0.432,0.962,0.965,0.962h3.854
		c0.533,0,0.963-0.43,0.963-0.962v-3.854C62.82,325.324,62.39,324.894,61.857,324.894z M60.894,328.748h-1.928v-1.928h1.928V328.748
		z"/>
	<path fill="#FFFFFF" d="M69.565,324.894h-3.854c-0.532,0-0.963,0.43-0.963,0.963v3.854c0,0.532,0.431,0.962,0.963,0.962h3.854
		c0.53,0,0.963-0.43,0.963-0.962v-3.854C70.528,325.324,70.096,324.894,69.565,324.894z M68.6,328.748h-1.926v-1.928H68.6V328.748z"
		/>
	<path fill="#FFFFFF" d="M77.273,324.894H73.42c-0.533,0-0.964,0.43-0.964,0.963v3.854c0,0.532,0.431,0.962,0.964,0.962h3.854
		c0.533,0,0.964-0.43,0.964-0.962v-3.854C78.237,325.324,77.807,324.894,77.273,324.894z M76.311,328.748h-1.928v-1.928h1.928
		V328.748z"/>
</g>
<g>
	<path fill="#FFFFFF" d="M283.17,336.457h18.308c1.062,0,1.927-0.865,1.927-1.928v-26.979c0-1.062-0.864-1.927-1.927-1.927H283.17
		c-1.062,0-1.926,0.865-1.926,1.927v2.891h-0.963c-0.532,0-0.963,0.432-0.963,0.964c0,0.533,0.431,0.963,0.963,0.963h0.963v1.926
		h-0.963c-0.532,0-0.963,0.433-0.963,0.964s0.431,0.963,0.963,0.963h0.963v1.927h-0.963c-0.532,0-0.963,0.432-0.963,0.964
		c0,0.532,0.431,0.963,0.963,0.963h0.963v1.928h-0.963c-0.532,0-0.963,0.43-0.963,0.963c0,0.533,0.431,0.963,0.963,0.963h0.963
		v1.928h-0.963c-0.532,0-0.963,0.432-0.963,0.963c0,0.532,0.431,0.964,0.963,0.964h0.963v1.927h-0.963
		c-0.532,0-0.963,0.432-0.963,0.963c0,0.532,0.431,0.964,0.963,0.964h0.963v2.89C281.245,335.592,282.108,336.457,283.17,336.457z
		 M301.478,334.528h-3.853v-26.979h3.853V334.528z M283.17,327.784h0.963c0.533,0,0.964-0.432,0.964-0.964
		c0-0.531-0.432-0.963-0.964-0.963h-0.963v-1.928h0.963c0.533,0,0.964-0.43,0.964-0.963c0-0.533-0.432-0.963-0.964-0.963h-0.963
		v-1.928h0.963c0.533,0,0.964-0.431,0.964-0.963c0-0.533-0.432-0.964-0.964-0.964h-0.963v-1.927h0.963
		c0.533,0,0.964-0.432,0.964-0.963s-0.432-0.964-0.964-0.964h-0.963v-1.926h0.963c0.533,0,0.964-0.431,0.964-0.963
		c0-0.532-0.432-0.964-0.964-0.964h-0.963v-2.891h12.528v26.979H283.17v-2.89h0.963c0.533,0,0.964-0.432,0.964-0.964
		c0-0.531-0.432-0.963-0.964-0.963h-0.963V327.784z"/>
</g>
<g>
	<path fill="#FFFFFF" d="M193.825,307.558l-14.326,1.909l-14.325-1.909c-0.277-0.039-0.555,0.046-0.762,0.229
		c-0.208,0.184-0.33,0.447-0.33,0.724v23.126c0,0.483,0.356,0.892,0.836,0.956l14.454,1.926c0.042,0.006,0.086,0.009,0.126,0.009
		c0.042,0,0.085-0.003,0.128-0.009l14.452-1.926c0.479-0.064,0.837-0.472,0.837-0.956v-23.126c0-0.277-0.121-0.541-0.329-0.724
		C194.377,307.604,194.104,307.522,193.825,307.558z M166.009,309.614l12.525,1.67v21.181l-12.525-1.67V309.614z M192.99,330.794
		l-12.527,1.67v-21.181l12.527-1.67V330.794z"/>
	<path fill="#FFFFFF" d="M168.782,314.288l7.708,0.963c0.04,0.004,0.082,0.007,0.121,0.007c0.479,0,0.896-0.357,0.955-0.845
		c0.065-0.527-0.308-1.009-0.835-1.075l-7.71-0.963c-0.526-0.067-1.009,0.308-1.075,0.836
		C167.879,313.739,168.252,314.221,168.782,314.288z"/>
	<path fill="#FFFFFF" d="M176.729,318.155l-7.71-0.963c-0.526-0.069-1.009,0.308-1.075,0.836c-0.065,0.528,0.308,1.01,0.837,1.076
		l7.708,0.964c0.04,0.005,0.082,0.007,0.121,0.007c0.479,0,0.896-0.356,0.955-0.843C177.63,318.702,177.257,318.221,176.729,318.155
		z"/>
	<path fill="#FFFFFF" d="M176.729,322.974l-7.71-0.964c-0.526-0.067-1.009,0.307-1.075,0.837c-0.065,0.527,0.308,1.009,0.837,1.076
		l7.708,0.963c0.04,0.005,0.082,0.008,0.121,0.008c0.479,0,0.896-0.357,0.955-0.845C177.63,323.521,177.257,323.04,176.729,322.974z
		"/>
	<path fill="#FFFFFF" d="M176.729,327.791l-7.71-0.962c-0.526-0.069-1.009,0.308-1.075,0.835c-0.065,0.528,0.308,1.009,0.837,1.075
		l7.708,0.963c0.04,0.006,0.082,0.007,0.121,0.007c0.479,0,0.896-0.355,0.955-0.844C177.63,328.338,177.257,327.856,176.729,327.791
		z"/>
	<path fill="#FFFFFF" d="M182.388,315.258c0.042,0,0.082-0.003,0.121-0.007l7.709-0.963c0.528-0.067,0.903-0.549,0.838-1.077
		c-0.068-0.529-0.555-0.904-1.076-0.836l-7.708,0.963c-0.529,0.066-0.904,0.548-0.838,1.075
		C181.495,314.9,181.91,315.258,182.388,315.258z"/>
	<path fill="#FFFFFF" d="M182.388,320.075c0.042,0,0.082-0.002,0.121-0.007l7.709-0.964c0.528-0.065,0.903-0.547,0.838-1.076
		c-0.068-0.528-0.555-0.905-1.076-0.836l-7.708,0.963c-0.529,0.066-0.904,0.547-0.838,1.077
		C181.495,319.719,181.91,320.075,182.388,320.075z"/>
	<path fill="#FFFFFF" d="M182.388,324.894c0.042,0,0.082-0.003,0.121-0.008l7.709-0.963c0.528-0.067,0.903-0.548,0.838-1.076
		c-0.068-0.53-0.555-0.904-1.076-0.837l-7.708,0.964c-0.529,0.066-0.904,0.547-0.838,1.075
		C181.495,324.536,181.91,324.894,182.388,324.894z"/>
	<path fill="#FFFFFF" d="M189.979,326.829l-7.708,0.962c-0.529,0.065-0.904,0.547-0.838,1.075c0.062,0.489,0.476,0.844,0.954,0.844
		c0.042,0,0.082-0.001,0.121-0.007l7.709-0.963c0.528-0.066,0.903-0.547,0.838-1.075
		C190.988,327.136,190.501,326.76,189.979,326.829z"/>
</g>
<g>
	<path fill="#FFFFFF" d="M220.979,324.894h3.158l0.557,1.667l-2.469,2.469c-0.377,0.376-0.377,0.986,0,1.362l3.853,3.854
		c0.378,0.376,0.989,0.376,1.364,0l2.471-2.47l1.664,0.555v3.161c0,0.532,0.434,0.964,0.964,0.964h5.782
		c0.532,0,0.964-0.432,0.964-0.964v-3.161l1.667-0.555l2.468,2.47c0.377,0.376,0.987,0.376,1.364,0l3.854-3.854
		c0.376-0.376,0.376-0.986,0-1.362l-2.47-2.469l0.557-1.667h3.158c0.535,0,0.964-0.432,0.964-0.964v-5.781
		c0-0.531-0.429-0.963-0.964-0.963h-3.158l-0.557-1.667l2.47-2.469c0.376-0.377,0.376-0.986,0-1.363l-3.854-3.855
		c-0.377-0.375-0.987-0.375-1.364,0l-2.468,2.471l-1.667-0.557v-3.16c0-0.532-0.432-0.963-0.964-0.963h-5.782
		c-0.53,0-0.964,0.431-0.964,0.963v3.16l-1.664,0.557l-2.471-2.471c-0.375-0.375-0.985-0.375-1.364,0l-3.853,3.855
		c-0.377,0.376-0.377,0.986,0,1.363l2.469,2.469l-0.557,1.667h-3.158c-0.533,0-0.965,0.432-0.965,0.963v5.781
		C220.014,324.461,220.445,324.894,220.979,324.894z M221.941,319.113h2.891c0.416,0,0.783-0.265,0.914-0.66l0.962-2.891
		c0.116-0.346,0.027-0.728-0.231-0.985l-2.209-2.21l2.492-2.491l2.208,2.209c0.258,0.257,0.64,0.347,0.986,0.233l2.891-0.963
		c0.394-0.132,0.658-0.5,0.658-0.915v-2.891h3.855v2.891c0,0.415,0.265,0.783,0.658,0.915l2.891,0.963
		c0.348,0.114,0.728,0.025,0.986-0.233l2.21-2.209l2.492,2.491l-2.211,2.21c-0.257,0.257-0.347,0.64-0.229,0.985l0.961,2.891
		c0.132,0.395,0.5,0.66,0.915,0.66h2.889v3.853h-2.889c-0.415,0-0.783,0.267-0.915,0.66l-0.961,2.89
		c-0.118,0.346-0.027,0.728,0.229,0.985l2.211,2.21l-2.492,2.492l-2.21-2.21c-0.258-0.257-0.64-0.348-0.986-0.232l-2.891,0.964
		c-0.393,0.131-0.658,0.498-0.658,0.914v2.89h-3.855v-2.89c0-0.416-0.264-0.783-0.658-0.914l-2.891-0.964
		c-0.344-0.115-0.728-0.025-0.986,0.232l-2.208,2.21l-2.492-2.492l2.209-2.21c0.259-0.257,0.348-0.64,0.231-0.985l-0.962-2.89
		c-0.131-0.394-0.499-0.66-0.914-0.66h-2.891V319.113z"/>
	<path fill="#FFFFFF" d="M235.431,324.894c2.125,0,3.855-1.73,3.855-3.854c0-2.125-1.729-3.854-3.855-3.854
		c-2.124,0-3.855,1.728-3.855,3.854C231.575,323.164,233.307,324.894,235.431,324.894z M235.431,319.113
		c1.062,0,1.927,0.865,1.927,1.926c0,1.063-0.865,1.927-1.927,1.927c-1.063,0-1.928-0.864-1.928-1.927
		C233.503,319.978,234.367,319.113,235.431,319.113z"/>
</g>
<g>
	<path fill="#FFFFFF" d="M15.562,316.703c0-2.126-1.729-3.854-3.854-3.854s-3.854,1.729-3.854,3.854
		c0,2.125,1.728,3.854,3.854,3.854S15.562,318.828,15.562,316.703z M9.78,316.703c0-1.062,0.865-1.927,1.928-1.927
		c1.063,0,1.928,0.865,1.928,1.927c0,1.062-0.865,1.927-1.928,1.927C10.645,318.63,9.78,317.765,9.78,316.703z"/>
	<path fill="#FFFFFF" d="M11.691,336.455c0.277,0,0.54-0.118,0.723-0.326c0.425-0.482,10.41-11.89,10.375-19.413
		c-0.028-6.118-4.999-11.094-11.081-11.094c-6.11,0-11.081,4.978-11.081,11.097c0,7.52,9.917,18.926,10.339,19.408
		C11.149,336.335,11.4,336.449,11.691,336.455z M11.708,307.549c5.025,0,9.13,4.115,9.153,9.174
		c0.026,5.697-6.88,14.513-9.167,17.274c-2.276-2.764-9.14-11.575-9.14-17.279C2.554,311.663,6.661,307.549,11.708,307.549z"/>
</g>
</svg>
