<?xml version="1.0" encoding="utf-8"?>
<!-- Generator: Adobe Illustrator 16.0.0, SVG Export Plug-In . SVG Version: 6.00 Build 0)  -->
<!DOCTYPE svg PUBLIC "-//W3C//DTD SVG 1.1//EN" "http://www.w3.org/Graphics/SVG/1.1/DTD/svg11.dtd">
<svg version="1.1" id="Layer_1" xmlns="http://www.w3.org/2000/svg" xmlns:xlink="http://www.w3.org/1999/xlink" x="0px" y="0px"
	 width="612px" height="792px" viewBox="0 0 612 792" enable-background="new 0 0 612 792" xml:space="preserve">
<rect fill="#4C2F83" width="495.684" height="285.141"/>
<g>
	<polygon fill="#4C2F83" points="225.282,131.508 224.582,130.794 220.878,134.415 217.174,130.794 216.475,131.508 
		220.875,135.817 220.878,135.813 220.881,135.817 	"/>
</g>
<g>
	<path fill="#FFFFFF" d="M203.842,11.698V3.976l5.359,8.613h0.526V3.172l0.894-0.891h-2.691l0.891,0.891v6.552l-4.646-7.441h-2.133
		l0.875,0.891v8.526l-0.875,0.891h2.692L203.842,11.698z M195.879,12.03c-2.062,0-2.777-2.465-2.777-4.596s0.717-4.595,2.777-4.595
		c2.08,0,2.795,2.464,2.795,4.595S197.959,12.03,195.879,12.03 M191.758,7.435c0,2.622,1.484,5.381,4.121,5.381
		c2.656,0,4.141-2.76,4.141-5.381c0-2.619-1.483-5.379-4.141-5.379C193.242,2.056,191.758,4.814,191.758,7.435 M187.098,11.769V3.05
		h1.955l1.1,1.102v-1.87h-7.25V4.15l1.119-1.103h1.939v8.72l-0.805,0.819h2.76L187.098,11.769z M179.465,7.906v3.319
		c-0.244,0.246-0.732,0.733-1.693,0.733c-2.289,0-3.44-2.305-3.44-4.525c0-2.234,1.449-4.523,3.44-4.523
		c0.523,0,0.908,0.121,1.258,0.49l1.136,1.117V2.734c-0.611-0.314-1.224-0.594-2.394-0.594c-2.812,0-4.787,2.516-4.787,5.293
		c0,2.727,1.976,5.293,4.787,5.293c1.59,0,2.271-0.383,2.83-0.75v-4.07l0.803-0.82h-2.76L179.465,7.906z M164.184,11.698V3.976
		l5.422,8.618l0.468-0.005V3.172l0.889-0.891h-2.689l0.892,0.891v6.552l-4.646-7.441h-2.133l0.875,0.891v8.526l-0.875,0.891h2.693
		L164.184,11.698z M156.795,2.281l0.82,0.822v8.665l-0.82,0.819h2.774l-0.819-0.819V3.104l0.819-0.822H156.795z M147.641,7.416
		h4.332v4.353l-0.82,0.819h2.777l-0.822-0.819V3.104l0.822-0.822h-2.777l0.82,0.822v3.545h-4.332V3.104l0.822-0.822h-2.762
		l0.805,0.822v8.665l-0.805,0.819h2.762l-0.822-0.819V7.416z M142.994,9.724c0-1.015-0.472-1.644-0.961-1.976l-2.097-1.52
		c-0.752-0.541-1.135-1.238-1.135-1.765c0-1.082,0.926-1.467,1.484-1.467c0.295,0,0.506,0.121,0.664,0.121l0.907,0.979l0.961-1.433
		l-2.045-0.385c-0.139-0.035-0.227-0.053-0.487-0.053c-1.8,0-2.621,1.537-2.621,2.533c0,0.784,0.399,1.678,1.326,2.356l2.114,1.521
		c0.576,0.401,0.732,0.996,0.732,1.504c0,0.873-0.539,1.815-1.709,1.815c-0.281,0-0.527-0.053-0.719-0.141l-0.978-1.152
		l-0.891,1.607l1.973,0.385c0,0,0.332,0.068,0.613,0.068C141.369,12.728,142.994,11.681,142.994,9.724 M131.463,4.57l1.416,4.262
		h-2.883L131.463,4.57z M128.981,11.784l0.75-2.184h3.408l0.715,2.184l-0.803,0.805h2.918l-0.822-0.84l-3.213-9.467h-0.524
		l-3.269,9.467l-0.838,0.84h2.48L128.981,11.784z M118.022,12.588l2.359-7.459l2.287,7.459h0.524l2.986-9.484l0.838-0.822h-2.479
		l0.805,0.805l-2.184,7.125l-2.115-7.125l0.805-0.805h-2.918l0.822,0.822l0.209,0.68l-1.976,6.428l-2.112-7.125l0.803-0.805h-2.916
		l0.838,0.822l2.9,9.484H118.022z M102.749,6.41l-0.392,0.377l0.043,0.146h1.204c-0.188,1.307-0.362,2.438-0.638,4.268
		c-0.391,2.713-0.725,3.672-1.001,3.904c-0.088,0.086-0.232,0.129-0.362,0.129c-0.175,0-0.451-0.129-0.64-0.217
		c-0.173-0.088-0.318,0.014-0.406,0.102c-0.115,0.131-0.245,0.334-0.245,0.494c0,0.289,0.377,0.436,0.624,0.436
		c0.276,0,0.973-0.231,1.597-1.002c0.492-0.608,1.158-2.018,1.725-5.297c0.102-0.61,0.219-1.219,0.467-2.815l1.479-0.146
		l0.317-0.377h-1.711c0.435-2.686,0.797-3.498,1.422-3.498c0.437,0,0.797,0.174,1.117,0.479c0.103,0.102,0.262,0.102,0.406-0.015
		c0.115-0.102,0.291-0.334,0.291-0.536c0.014-0.291-0.379-0.609-0.873-0.609c-0.842,0-1.725,0.494-2.334,1.219
		c-0.566,0.683-0.943,1.785-1.148,2.961h-0.942V6.41z M96.22,10.211c0-2.146,1.087-3.309,1.539-3.497
		c0.128-0.059,0.333-0.116,0.478-0.116c0.726,0,1.147,0.553,1.147,1.67c0.029,1.887-0.958,3.6-1.567,3.803
		c-0.116,0.043-0.305,0.1-0.448,0.1C96.553,12.17,96.22,11.302,96.22,10.211 M98.7,6.062c-0.377,0-0.972,0.172-1.566,0.521
		c-1.003,0.597-2.091,1.945-2.091,3.978c0,1.016,0.478,2.147,1.829,2.147c0.639,0,1.553-0.422,2.163-0.973
		c0.958-0.871,1.521-2.366,1.521-3.659C100.558,6.873,99.919,6.062,98.7,6.062 M81.883,3.104l2.603,4.697v3.967l-0.819,0.819h2.776
		l-0.819-0.819V7.802l2.653-4.683l0.856-0.838h-2.55l0.804,0.805L85.22,6.945l-2.062-3.859l0.804-0.805h-2.917L81.883,3.104z
		 M76.452,11.769V3.05h1.956l1.101,1.102v-1.87h-7.25V4.15l1.118-1.103h1.938v8.72l-0.803,0.819h2.759L76.452,11.769z M67.104,2.281
		l0.822,0.822v8.665l-0.822,0.819h2.779l-0.821-0.819V3.104l0.821-0.822H67.104z M64.119,9.724c0-1.015-0.474-1.644-0.961-1.976
		l-2.098-1.52c-0.751-0.541-1.135-1.238-1.135-1.765c0-1.082,0.926-1.467,1.485-1.467c0.297,0,0.506,0.121,0.664,0.121l0.908,0.979
		l0.96-1.433L61.9,2.28c-0.14-0.035-0.227-0.053-0.488-0.053c-1.801,0-2.621,1.537-2.621,2.533c0,0.784,0.401,1.678,1.328,2.356
		l2.114,1.521c0.576,0.401,0.733,0.996,0.733,1.504c0,0.873-0.542,1.815-1.712,1.815c-0.279,0-0.524-0.053-0.716-0.141l-0.979-1.152
		l-0.891,1.607l1.974,0.385c0,0,0.332,0.068,0.611,0.068C62.494,12.728,64.119,11.681,64.119,9.724 M50.876,3.05h1.258
		c1.101,0,1.975,0.942,1.975,2.062c0,1.064-0.892,1.904-1.975,1.904h-1.258V3.05z M50.876,11.769V7.785h1.556l2.497,4.803h1.712
		l-0.804-0.819l-2.305-4.229c1.152-0.35,1.938-1.432,1.938-2.41c0-1.745-1.624-2.848-3.337-2.848h-3.196l0.804,0.822v8.665
		l-0.804,0.819h2.759L50.876,11.769z M46.248,12.588v-1.886l-1.102,1.117H42.02V7.488h2.323l0.822,0.818V5.898L44.343,6.72H42.02
		V3.05h3.127l1.102,1.102v-1.87h-6.167l0.804,0.822v8.665l-0.804,0.819H46.248z M32.883,2.281h-2.917l0.839,0.822l2.899,9.484h0.523
		l2.986-9.484l0.839-0.822h-2.481l0.805,0.805l-2.185,7.125l-2.11-7.125L32.883,2.281z M24.884,2.281l0.821,0.822v8.665
		l-0.821,0.819h2.777l-0.821-0.819V3.104l0.821-0.822H24.884z M15.293,11.698V3.976l5.53,8.613h0.356V3.172l0.892-0.891h-2.69
		l0.891,0.891v6.552l-4.646-7.441h-2.131l0.874,0.891v8.526l-0.874,0.891h2.689L15.293,11.698z M3.692,9.828
		c0,1.694,1.434,2.987,3.198,2.987c1.676,0,3.336-1.24,3.336-2.987V3.172l0.874-0.891H8.41l0.891,0.891v6.656
		c0,1.188-0.942,2.131-2.131,2.131c-1.205,0-2.271-0.926-2.271-2.131V3.172l0.893-0.891H2.803l0.89,0.891V9.828z"/>
</g>
<path fill="#FFFFFF" d="M44.125,22.451v6.3h4.428l-4.941,18.407c0,0-6.053-24.364-6.137-24.707h-6.401
	c-0.09,0.335-6.641,24.707-6.641,24.707L19.882,28.75h4.611v-6.3h-18.5v6.3h4.1c0,0,7.07,28.298,7.158,28.64h9.93
	c0.088-0.336,4.738-18.021,4.738-18.021c2.951,11.798,2.806,11.051,4.505,18.021h9.936c0.085-0.336,7.529-28.64,7.529-28.64h4.066
	v-6.3H44.125z"/>
<polygon fill="#D2D3D4" points="174.292,120.622 165.911,138.248 167.019,138.248 175.4,120.622 "/>
<path fill="#FFFFFF" d="M267.065,124.119c0-7.387,6.01-13.397,13.397-13.397c7.387,0,13.398,6.011,13.398,13.397
	c0,7.389-6.012,13.399-13.398,13.399C273.075,137.519,267.065,131.508,267.065,124.119z M270.081,124.119
	c0,5.727,4.656,10.385,10.383,10.385c5.726,0,10.384-4.658,10.384-10.385c0-5.726-4.658-10.381-10.384-10.381
	C274.737,113.738,270.081,118.395,270.081,124.119z"/>
<rect x="265.131" y="130.877" transform="matrix(-0.707 -0.7073 0.7073 -0.707 358.1187 423.5867)" fill="#FFFFFF" width="3.362" height="13.452"/>
<path fill="#FFFFFF" d="M225.429,201.013c-9.146,0-16.586-7.441-16.586-16.586c0-9.146,7.44-16.587,16.586-16.587
	c9.146,0,16.585,7.439,16.585,16.587C242.014,193.571,234.575,201.013,225.429,201.013z M225.429,170.855
	c-7.482,0-13.569,6.089-13.569,13.571c0,7.481,6.087,13.569,13.569,13.569c7.483,0,13.569-6.088,13.569-13.569
	C238.999,176.944,232.913,170.855,225.429,170.855z"/>
<rect x="219.399" y="182.918" fill="#FFFFFF" width="12.062" height="3.017"/>
<rect x="223.921" y="178.396" fill="#FFFFFF" width="3.016" height="12.062"/>
<polygon fill="#BBBBBB" points="170.148,189.303 170.148,185.076 174.263,185.076 174.263,189.303 178.513,189.303 178.513,183.9 
	172.306,178.194 166.031,183.937 166.031,189.303 "/>
<polygon fill="#BBBBBB" points="179.347,183.249 172.273,176.783 165.199,183.249 163.751,181.667 172.273,173.878 180.792,181.667 
	"/>
</svg>
