<?xml version="1.0" encoding="utf-8"?>
<!-- Generator: Adobe Illustrator 14.0.0, SVG Export Plug-In . SVG Version: 6.00 Build 43363)  -->
<!DOCTYPE svg PUBLIC "-//W3C//DTD SVG 1.1//EN" "http://www.w3.org/Graphics/SVG/1.1/DTD/svg11.dtd">
<svg version="1.1" id="Layer_1" xmlns="http://www.w3.org/2000/svg" xmlns:xlink="http://www.w3.org/1999/xlink" x="0px" y="0px"
	 width="612px" height="476.334px" viewBox="0 0 612 476.334" enable-background="new 0 0 612 476.334" xml:space="preserve">
<rect x="-668.167" y="-19" fill="#A7A9AC" width="647.333" height="518"/>
<g>
	<polygon fill="#4C2F83" points="363.119,2.716 362.42,2.002 358.717,5.623 355.012,2.002 354.312,2.716 358.713,7.025 
		358.717,7.021 358.719,7.025 	"/>
</g>
<g>
	<polygon points="363.119,21.825 362.42,21.111 358.717,24.732 355.012,21.111 354.312,21.825 358.713,26.135 358.717,26.131 
		358.719,26.135 	"/>
</g>
<g>
	<polygon fill="#D1D3D4" points="363.119,38.411 362.42,37.697 358.717,41.318 355.012,37.697 354.312,38.411 358.713,42.72 
		358.717,42.716 358.719,42.72 	"/>
</g>
<g>
	<path fill="#FFFFFF" d="M203.842,11.698V3.976l5.359,8.613h0.526V3.172l0.894-0.891h-2.691l0.891,0.891v6.552l-4.646-7.441h-2.133
		l0.875,0.891V11.7l-0.875,0.891h2.692L203.842,11.698z M195.879,12.03c-2.062,0-2.777-2.465-2.777-4.596
		c0-2.131,0.717-4.595,2.777-4.595c2.08,0,2.795,2.464,2.795,4.595C198.674,9.565,197.959,12.03,195.879,12.03 M191.758,7.435
		c0,2.622,1.484,5.381,4.121,5.381c2.656,0,4.141-2.76,4.141-5.381c0-2.619-1.483-5.379-4.141-5.379
		C193.242,2.056,191.758,4.814,191.758,7.435 M187.098,11.769V3.05h1.955l1.1,1.102v-1.87h-7.25V4.15l1.119-1.103h1.939v8.72
		l-0.805,0.819h2.76L187.098,11.769z M179.465,7.906v3.319c-0.244,0.246-0.732,0.733-1.693,0.733c-2.289,0-3.44-2.305-3.44-4.525
		c0-2.234,1.449-4.523,3.44-4.523c0.523,0,0.908,0.121,1.258,0.49l1.136,1.117V2.734c-0.611-0.314-1.224-0.594-2.394-0.594
		c-2.812,0-4.787,2.516-4.787,5.293c0,2.727,1.976,5.293,4.787,5.293c1.59,0,2.271-0.383,2.83-0.75v-4.07l0.803-0.82h-2.76
		L179.465,7.906z M164.184,11.698V3.976l5.422,8.618l0.468-0.005V3.172l0.889-0.891h-2.689l0.892,0.891v6.552l-4.646-7.441h-2.133
		l0.875,0.891V11.7l-0.875,0.891h2.693L164.184,11.698z M156.795,2.281l0.82,0.822v8.665l-0.82,0.819h2.774l-0.819-0.819V3.104
		l0.819-0.822L156.795,2.281L156.795,2.281z M147.641,7.416h4.332v4.353l-0.82,0.819h2.777l-0.822-0.819V3.104l0.822-0.822h-2.777
		l0.82,0.822v3.545h-4.332V3.104l0.822-0.822h-2.762l0.805,0.822v8.665l-0.805,0.819h2.762l-0.822-0.819V7.416z M142.994,9.724
		c0-1.015-0.472-1.644-0.961-1.976l-2.097-1.52c-0.752-0.541-1.135-1.238-1.135-1.765c0-1.082,0.926-1.467,1.484-1.467
		c0.295,0,0.506,0.121,0.664,0.121l0.907,0.979l0.961-1.433l-2.045-0.385c-0.139-0.035-0.227-0.053-0.487-0.053
		c-1.8,0-2.621,1.537-2.621,2.533c0,0.784,0.399,1.678,1.326,2.356l2.114,1.521c0.576,0.401,0.732,0.996,0.732,1.504
		c0,0.873-0.539,1.815-1.709,1.815c-0.281,0-0.527-0.053-0.719-0.141l-0.978-1.152l-0.891,1.607l1.973,0.385
		c0,0,0.332,0.068,0.613,0.068C141.369,12.728,142.994,11.681,142.994,9.724 M131.463,4.57l1.416,4.262h-2.883L131.463,4.57z
		 M128.981,11.784l0.75-2.184h3.408l0.715,2.184l-0.803,0.805h2.918l-0.822-0.84l-3.213-9.467h-0.524l-3.269,9.467l-0.838,0.84h2.48
		L128.981,11.784z M118.022,12.588l2.359-7.459l2.287,7.459h0.524l2.986-9.484l0.838-0.822h-2.479l0.805,0.805l-2.184,7.125
		l-2.115-7.125l0.805-0.805h-2.918l0.822,0.822l0.209,0.68l-1.976,6.428l-2.112-7.125l0.803-0.805h-2.916l0.838,0.822l2.9,9.484
		H118.022z M102.749,6.41l-0.392,0.377l0.043,0.146h1.204c-0.188,1.307-0.362,2.438-0.638,4.268
		c-0.391,2.713-0.725,3.672-1.001,3.904c-0.088,0.086-0.232,0.129-0.362,0.129c-0.175,0-0.451-0.129-0.64-0.217
		c-0.173-0.088-0.318,0.014-0.406,0.102c-0.115,0.131-0.245,0.334-0.245,0.494c0,0.289,0.377,0.436,0.624,0.436
		c0.276,0,0.973-0.231,1.597-1.002c0.492-0.608,1.158-2.018,1.725-5.297c0.102-0.61,0.219-1.219,0.467-2.815l1.479-0.146
		l0.317-0.377h-1.711c0.435-2.686,0.797-3.498,1.422-3.498c0.437,0,0.797,0.174,1.117,0.479c0.103,0.102,0.262,0.102,0.406-0.015
		c0.115-0.102,0.291-0.334,0.291-0.536c0.014-0.291-0.379-0.609-0.873-0.609c-0.842,0-1.725,0.494-2.334,1.219
		c-0.566,0.683-0.943,1.785-1.148,2.961h-0.942V6.41z M96.22,10.211c0-2.146,1.087-3.309,1.539-3.497
		c0.128-0.059,0.333-0.116,0.478-0.116c0.726,0,1.147,0.553,1.147,1.67c0.029,1.887-0.958,3.6-1.567,3.803
		c-0.116,0.043-0.305,0.1-0.448,0.1C96.553,12.17,96.22,11.302,96.22,10.211 M98.7,6.062c-0.377,0-0.972,0.172-1.566,0.521
		c-1.003,0.597-2.091,1.945-2.091,3.978c0,1.016,0.478,2.147,1.829,2.147c0.639,0,1.553-0.422,2.163-0.973
		c0.958-0.871,1.521-2.366,1.521-3.659C100.558,6.873,99.919,6.062,98.7,6.062 M81.883,3.104l2.603,4.697v3.967l-0.819,0.819h2.776
		l-0.819-0.819V7.802l2.653-4.683l0.856-0.838h-2.55l0.804,0.805L85.22,6.945l-2.062-3.859l0.804-0.805h-2.917L81.883,3.104z
		 M76.452,11.769V3.05h1.956l1.101,1.102v-1.87h-7.25V4.15l1.118-1.103h1.938v8.72l-0.803,0.819h2.759L76.452,11.769z M67.104,2.281
		l0.822,0.822v8.665l-0.822,0.819h2.779l-0.821-0.819V3.104l0.821-0.822L67.104,2.281L67.104,2.281z M64.119,9.724
		c0-1.015-0.474-1.644-0.961-1.976l-2.098-1.52c-0.751-0.541-1.135-1.238-1.135-1.765c0-1.082,0.926-1.467,1.485-1.467
		c0.297,0,0.506,0.121,0.664,0.121l0.908,0.979l0.96-1.433L61.9,2.28c-0.14-0.035-0.227-0.053-0.488-0.053
		c-1.801,0-2.621,1.537-2.621,2.533c0,0.784,0.401,1.678,1.328,2.356l2.114,1.521c0.576,0.401,0.733,0.996,0.733,1.504
		c0,0.873-0.542,1.815-1.712,1.815c-0.279,0-0.524-0.053-0.716-0.141l-0.979-1.152l-0.891,1.607l1.974,0.385
		c0,0,0.332,0.068,0.611,0.068C62.494,12.728,64.119,11.681,64.119,9.724 M50.876,3.05h1.258c1.101,0,1.975,0.942,1.975,2.062
		c0,1.064-0.892,1.904-1.975,1.904h-1.258V3.05z M50.876,11.769V7.785h1.556l2.497,4.803h1.712l-0.804-0.819L53.532,7.54
		c1.152-0.35,1.938-1.432,1.938-2.41c0-1.745-1.624-2.848-3.337-2.848h-3.196l0.804,0.822v8.665l-0.804,0.819h2.759L50.876,11.769z
		 M46.248,12.588v-1.886l-1.102,1.117H42.02V7.488h2.323l0.822,0.818V5.898L44.343,6.72H42.02V3.05h3.127l1.102,1.102v-1.87h-6.167
		l0.804,0.822v8.665l-0.804,0.819H46.248z M32.883,2.281h-2.917l0.839,0.822l2.899,9.484h0.523l2.986-9.484l0.839-0.822h-2.481
		l0.805,0.805l-2.185,7.125l-2.11-7.125L32.883,2.281z M24.884,2.281l0.821,0.822v8.665l-0.821,0.819h2.777l-0.821-0.819V3.104
		l0.821-0.822L24.884,2.281L24.884,2.281z M15.293,11.698V3.976l5.53,8.613h0.356V3.172l0.892-0.891h-2.69l0.891,0.891v6.552
		l-4.646-7.441h-2.131l0.874,0.891V11.7l-0.874,0.891h2.689L15.293,11.698z M3.692,9.828c0,1.694,1.434,2.987,3.198,2.987
		c1.676,0,3.336-1.24,3.336-2.987V3.172L11.1,2.281H8.41l0.891,0.891v6.656c0,1.188-0.942,2.131-2.131,2.131
		c-1.205,0-2.271-0.926-2.271-2.131V3.172l0.893-0.891H2.803l0.89,0.891L3.692,9.828L3.692,9.828z"/>
</g>
<path fill="#FFFFFF" d="M38.132,49.703v6.3h4.428L37.618,74.41c0,0-6.053-24.364-6.137-24.707H25.08
	c-0.09,0.335-6.641,24.707-6.641,24.707l-4.551-18.407H18.5v-6.3H0v6.3h4.1c0,0,7.07,28.298,7.158,28.64h9.93
	c0.088-0.336,4.738-18.021,4.738-18.021c2.951,11.798,2.806,11.051,4.505,18.021h9.936c0.085-0.336,7.529-28.64,7.529-28.64h4.066
	v-6.3H38.132z"/>
<polygon fill="#D2D3D4" points="591.551,5.064 583.17,22.69 584.277,22.69 592.658,5.064 "/>
<g>
	<path fill="#FFFFFF" d="M543.088,13.397C543.088,6.01,549.098,0,556.485,0c7.387,0,13.397,6.011,13.397,13.397
		c0,7.389-6.012,13.399-13.397,13.399C549.098,26.797,543.088,20.786,543.088,13.397z M546.104,13.397
		c0,5.727,4.656,10.385,10.384,10.385c5.726,0,10.384-4.658,10.384-10.385c0-5.726-4.658-10.381-10.384-10.381
		C550.76,3.017,546.104,7.673,546.104,13.397z"/>
	
		<rect x="541.135" y="20.127" transform="matrix(0.707 0.7073 -0.7073 0.707 178.0581 -376.0385)" fill="#FFFFFF" width="3.362" height="13.453"/>
</g>
<path fill="#FFFFFF" d="M298.943,21.092c-5.815,0-10.545-4.731-10.545-10.546C288.397,4.73,293.128,0,298.943,0
	s10.544,4.73,10.544,10.546C309.487,16.359,304.758,21.092,298.943,21.092z M298.943,1.917c-4.757,0-8.627,3.872-8.627,8.629
	s3.87,8.627,8.627,8.627c4.758,0,8.627-3.871,8.627-8.627C307.57,5.788,303.701,1.917,298.943,1.917z"/>
<rect x="295.109" y="9.586" fill="#FFFFFF" width="7.668" height="1.918"/>
<rect x="297.984" y="6.711" fill="#FFFFFF" width="1.918" height="7.669"/>
<rect x="409.982" y="116.828" fill="#FED800" width="3.661" height="16.424"/>
<path fill="#FED800" d="M291.486,43.22c-4.111-4.112-4.111-10.802,0-14.914c4.112-4.112,10.802-4.112,14.915,0
	c4.111,4.112,4.111,10.801-0.002,14.914C302.288,47.33,295.597,47.332,291.486,43.22z M305.044,29.661
	c-3.364-3.364-8.838-3.363-12.202,0c-3.363,3.364-3.364,8.837,0,12.202c3.364,3.365,8.837,3.363,12.2,0
	C308.408,38.499,308.408,33.026,305.044,29.661z"/>
<rect x="295.099" y="34.814" transform="matrix(0.7071 0.7071 -0.7071 0.7071 112.8511 -200.9002)" fill="#FED800" width="7.669" height="1.918"/>
<rect x="297.986" y="31.931" transform="matrix(0.7071 0.7071 -0.7071 0.7071 112.8489 -200.91)" fill="#FED800" width="1.917" height="7.669"/>
<path fill="#4C2F83" d="M325.764,21.092c-5.812,0-10.545-4.731-10.545-10.546C315.219,4.73,319.95,0,325.764,0
	c5.815,0,10.546,4.73,10.546,10.546C336.31,16.359,331.579,21.092,325.764,21.092z M325.764,1.917c-4.757,0-8.626,3.872-8.626,8.629
	s3.869,8.627,8.626,8.627c4.761,0,8.629-3.871,8.629-8.627C334.393,5.788,330.523,1.917,325.764,1.917z"/>
<rect x="321.931" y="9.586" fill="#4C2F83" width="7.668" height="1.918"/>
<rect x="324.805" y="6.711" fill="#4C2F83" width="1.918" height="7.669"/>
<path fill="#4C2F83" d="M318.307,43.22c-4.11-4.112-4.109-10.802,0-14.914c4.113-4.112,10.804-4.112,14.915,0
	c4.111,4.112,4.111,10.801-0.002,14.914C329.109,47.33,322.418,47.332,318.307,43.22z M331.866,29.661
	c-3.364-3.364-8.838-3.363-12.202,0c-3.364,3.364-3.364,8.837,0,12.202c3.364,3.365,8.837,3.363,12.201,0
	C335.229,38.499,335.23,33.026,331.866,29.661z"/>
<rect x="321.932" y="34.806" transform="matrix(0.7071 0.7071 -0.7071 0.7071 120.7049 -219.8763)" fill="#4C2F83" width="7.669" height="1.918"/>
<rect x="324.807" y="31.932" transform="matrix(0.707 0.7072 -0.7072 0.707 120.7507 -219.9125)" fill="#4C2F83" width="1.917" height="7.668"/>
<path fill="#4C2F83" d="M264.301,85.714c-5.872-5.873-5.871-15.428,0-21.3c5.875-5.874,15.429-5.874,21.302-0.001
	c5.872,5.874,5.872,15.426-0.003,21.3C279.73,91.584,270.172,91.587,264.301,85.714z M283.667,66.35
	c-4.806-4.804-12.622-4.804-17.428,0.001c-4.805,4.805-4.805,12.622,0,17.426c4.806,4.805,12.621,4.804,17.427,0
	C288.469,78.972,288.472,71.155,283.667,66.35z"/>
<g>
	
		<rect x="271.513" y="71.292" transform="matrix(0.7071 0.7071 -0.7071 0.7071 132.2983 -174.0741)" fill="#4C2F83" width="9.525" height="2.739"/>
	
		<rect x="274.89" y="72.707" transform="matrix(0.7073 0.7069 -0.7069 0.7073 135.6303 -172.619)" fill="#4C2F83" width="2.738" height="9.525"/>
</g>
<path fill="#FFFFFF" d="M308.701,85.714c-5.873-5.873-5.871-15.428,0-21.3c5.875-5.874,15.428-5.874,21.301-0.001
	c5.873,5.874,5.873,15.426-0.002,21.3C324.129,91.584,314.572,91.587,308.701,85.714z M328.066,66.35
	c-4.806-4.804-12.621-4.804-17.429,0.001c-4.804,4.805-4.804,12.622,0,17.426c4.808,4.805,12.621,4.804,17.429,0
	C332.869,78.972,332.871,71.155,328.066,66.35z"/>
<path fill="#4C2F83" d="M260.701,138.353c-7.527-7.527-7.524-19.774,0-27.3c7.53-7.528,19.773-7.528,27.301-0.001
	c7.527,7.528,7.527,19.771-0.002,27.3C280.475,145.876,268.226,145.88,260.701,138.353z M285.521,113.534
	c-6.158-6.158-16.176-6.157-22.337,0.001c-6.158,6.158-6.158,16.177,0,22.335c6.161,6.159,16.176,6.157,22.337,0
	C291.677,129.712,291.679,119.693,285.521,113.534z"/>
<g>
	
		<rect x="315.894" y="71.304" transform="matrix(0.7071 0.7071 -0.7071 0.7071 145.3057 -205.4523)" fill="#FFFFFF" width="9.524" height="2.739"/>
	
		<rect x="319.299" y="72.703" transform="matrix(0.7071 0.7071 -0.7071 0.7071 148.6978 -204.057)" fill="#FFFFFF" width="2.737" height="9.525"/>
</g>
<g>
	<polygon fill="#BBBBBB" points="263.494,23.276 263.494,19.049 267.609,19.049 267.609,23.276 271.859,23.276 271.859,17.873 
		265.652,12.167 259.376,17.91 259.376,23.276 	"/>
	<polygon fill="#BBBBBB" points="272.693,17.222 265.619,10.756 258.544,17.222 257.097,15.64 265.619,7.852 274.138,15.64 	"/>
</g>
<g>
	<rect x="159.595" y="242.647" fill="#CD332D" width="29.45" height="29.451"/>
	<path fill="#FFFFFF" d="M172.269,245.526h-1.341l-0.905,3.479l-0.941-3.479h-1.396c0.279,0.82,0.57,1.646,0.85,2.468
		c0.426,1.235,0.691,2.166,0.811,2.803v3.587h1.327v-3.587L172.269,245.526z M175.814,252.247v-2.312
		c0-0.705-0.121-1.221-0.371-1.555c-0.332-0.449-0.797-0.676-1.396-0.676c-0.596,0-1.062,0.227-1.393,0.676
		c-0.256,0.334-0.375,0.85-0.375,1.555v2.312c0,0.702,0.119,1.222,0.375,1.553c0.33,0.45,0.797,0.676,1.393,0.676
		c0.6,0,1.064-0.226,1.396-0.676C175.693,253.468,175.814,252.949,175.814,252.247z M174.617,252.472c0,0.61-0.185,0.916-0.57,0.916
		c-0.387,0-0.571-0.306-0.571-0.916v-2.777c0-0.61,0.185-0.914,0.571-0.914c0.386,0,0.57,0.304,0.57,0.914V252.472z
		 M180.238,254.384v-6.601h-1.197v5.045c-0.266,0.375-0.516,0.56-0.756,0.56c-0.16,0-0.254-0.095-0.279-0.279
		c-0.016-0.039-0.016-0.186-0.016-0.467v-4.858h-1.192v5.22c0,0.466,0.041,0.782,0.106,0.98c0.119,0.336,0.385,0.492,0.771,0.492
		c0.437,0,0.89-0.266,1.366-0.812v0.72H180.238z"/>
	<path fill="#FFFFFF" d="M184.113,262.396c0,1.527-0.002,3.147-0.344,4.631c-0.239,1.041-1.092,1.81-2.117,1.925
		c-2.429,0.271-4.888,0.272-7.334,0.271c-2.447,0.002-4.906,0-7.334-0.271c-1.027-0.115-1.879-0.884-2.117-1.925
		c-0.341-1.483-0.341-3.104-0.341-4.631c0-1.528,0.003-3.146,0.345-4.631c0.239-1.041,1.091-1.81,2.117-1.924
		c2.428-0.271,4.887-0.271,7.334-0.271c2.447,0,4.905,0,7.334,0.271c1.026,0.114,1.879,0.883,2.117,1.924
		C184.114,259.25,184.113,260.867,184.113,262.396z"/>
	<path fill="#CD332D" d="M170.113,259.101v-1.234h-4.128v1.234h1.393v7.533h1.316v-7.533H170.113z M172.504,266.633v-0.712
		c-0.469,0.54-0.916,0.803-1.352,0.803c-0.383,0-0.645-0.154-0.763-0.485c-0.065-0.199-0.104-0.509-0.104-0.972v-5.166h1.183v4.811
		c0,0.277,0,0.422,0.011,0.46c0.029,0.183,0.119,0.276,0.277,0.276c0.237,0,0.486-0.185,0.748-0.555v-4.992h1.186v6.532H172.504z
		 M177.002,264.767c0,0.59-0.174,0.881-0.515,0.881c-0.194,0-0.393-0.094-0.59-0.291v-3.982c0.197-0.195,0.396-0.288,0.59-0.288
		c0.341,0,0.515,0.304,0.515,0.892V264.767z M178.186,264.673v-2.602c0-0.618-0.04-1.051-0.119-1.313
		c-0.158-0.489-0.475-0.737-0.946-0.737c-0.435,0-0.841,0.238-1.223,0.709v-2.863h-1.184v8.768h1.184V266
		c0.396,0.489,0.802,0.724,1.223,0.724c0.472,0,0.788-0.25,0.946-0.734C178.146,265.712,178.186,265.276,178.186,264.673z
		 M181.47,262.597h-1.183v-0.604c0-0.604,0.197-0.907,0.594-0.907c0.391,0,0.589,0.304,0.589,0.907V262.597z M182.654,264.543
		v-0.173h-1.209c0,0.477-0.014,0.736-0.025,0.801c-0.068,0.316-0.238,0.477-0.529,0.477c-0.406,0-0.604-0.301-0.604-0.907v-1.157
		h2.367v-1.354c0-0.699-0.119-1.209-0.367-1.539c-0.332-0.448-0.803-0.67-1.396-0.67c-0.604,0-1.076,0.222-1.418,0.67
		c-0.252,0.33-0.365,0.84-0.365,1.539v2.289c0,0.692,0.129,1.209,0.38,1.534c0.342,0.447,0.813,0.671,1.433,0.671
		s1.104-0.234,1.432-0.709c0.144-0.209,0.236-0.447,0.275-0.709C182.639,265.187,182.654,264.924,182.654,264.543z"/>
</g>
<g>
	<rect x="319.26" y="242.647" fill="#CC3732" width="29.449" height="29.451"/>
	<path fill="#FFFFFF" d="M333.516,247.265c0.186,0.113,0.392,0.28,0.621,0.5c0.222,0.229,0.438,0.512,0.648,0.844
		c0.204,0.314,0.383,0.687,0.541,1.117c0.129,0.428,0.191,0.93,0.191,1.502c-0.017,1.049-0.249,1.889-0.694,2.519
		c-0.218,0.306-0.449,0.587-0.694,0.845c-0.271,0.258-0.559,0.52-0.864,0.787c-0.176,0.182-0.337,0.387-0.483,0.616
		c-0.176,0.237-0.264,0.514-0.264,0.829c0,0.307,0.091,0.559,0.271,0.759c0.15,0.19,0.3,0.358,0.442,0.501l0.996,0.814
		c0.617,0.508,1.16,1.063,1.626,1.675c0.438,0.62,0.667,1.431,0.688,2.432c0,1.421-0.629,2.681-1.884,3.779
		c-1.301,1.135-3.18,1.721-5.635,1.76c-2.055-0.019-3.588-0.457-4.603-1.313c-1.021-0.799-1.533-1.756-1.533-2.871
		c0-0.541,0.165-1.146,0.5-1.813c0.321-0.666,0.906-1.251,1.753-1.756c0.949-0.542,1.947-0.905,2.993-1.086
		c1.036-0.151,1.896-0.237,2.58-0.257c-0.212-0.278-0.399-0.575-0.565-0.893c-0.192-0.307-0.288-0.677-0.288-1.106
		c0-0.259,0.035-0.476,0.108-0.647c0.064-0.184,0.125-0.35,0.18-0.504c-0.333,0.038-0.647,0.057-0.941,0.057
		c-1.562-0.019-2.752-0.511-3.571-1.473c-0.856-0.898-1.287-1.941-1.287-3.134c0-1.44,0.607-2.747,1.822-3.921
		c0.834-0.688,1.7-1.135,2.6-1.346c0.891-0.181,1.725-0.271,2.501-0.271h5.866l-1.812,1.059h-1.809V247.265z M334.647,264.149
		c0-0.744-0.242-1.394-0.729-1.945c-0.515-0.523-1.316-1.168-2.41-1.934c-0.188-0.02-0.406-0.027-0.658-0.027
		c-0.148-0.02-0.532,0-1.148,0.057c-0.606,0.086-1.229,0.225-1.863,0.416c-0.148,0.057-0.357,0.145-0.63,0.258
		c-0.271,0.124-0.546,0.301-0.827,0.529c-0.271,0.238-0.499,0.534-0.686,0.887c-0.216,0.373-0.322,0.821-0.322,1.346
		c0,1.031,0.466,1.879,1.399,2.548c0.889,0.667,2.102,1.011,3.644,1.03c1.382-0.021,2.438-0.326,3.165-0.916
		C334.293,265.813,334.647,265.065,334.647,264.149z M330.559,255.551c0.772-0.028,1.416-0.308,1.932-0.833
		c0.249-0.373,0.407-0.755,0.479-1.146c0.042-0.394,0.064-0.721,0.064-0.99c0-1.156-0.296-2.322-0.889-3.498
		c-0.277-0.562-0.643-1.023-1.096-1.376c-0.463-0.333-0.994-0.511-1.595-0.53c-0.796,0.021-1.456,0.34-1.983,0.961
		c-0.443,0.65-0.656,1.377-0.637,2.18c0,1.062,0.31,2.164,0.931,3.312c0.303,0.535,0.688,0.988,1.164,1.361
		C329.404,255.365,329.947,255.551,330.559,255.551z"/>
	<polygon fill="#FFFFFF" points="345.083,249.41 342.005,249.41 342.005,246.332 340.514,246.332 340.514,249.41 337.436,249.41 
		337.436,250.901 340.514,250.901 340.514,253.979 342.005,253.979 342.005,250.901 345.083,250.901 	"/>
</g>
<g>
	<rect x="266.108" y="242.719" fill="#00B386" width="29.31" height="29.31"/>
	<path fill="#FFFFFF" d="M283.815,252.181c0-1.363,2.681-2.07,2.681,0.235c-0.008,1.265-0.179,2.433-0.451,3.502h2.787
		c0.212-1.291,0.203-2.565,0.203-4.067c0-4.231-7.805-4.937-7.805,0.424c0,3.766,1.772,5.746,3.628,6.789
		c-1.546,3.033-3.628,4.686-3.628,4.686c-5.83-4.75-5.267-12.791-5.267-12.791h-2.539c0.048,10.861,5.785,14.67,6.49,15.236
		c0.705,0.563,0.846,0.518,1.693,0.47c0.844-0.047,2.771-1.976,5.123-5.642c0.228-0.354,0.431-0.694,0.616-1.024
		c0.983,0.221,1.688,0.226,1.688,0.226v-2.306C284.097,257.446,283.815,253.214,283.815,252.181z"/>
</g>
<g>
	<rect x="372.48" y="242.647" fill="#32669A" width="29.449" height="29.451"/>
	<polygon fill="#231F20" points="372.48,272.099 372.48,272.128 401.96,272.128 401.96,242.619 372.451,242.619 372.451,272.128 
		372.48,272.128 372.48,272.099 372.51,272.099 372.51,242.677 401.902,242.677 401.902,272.069 372.48,272.069 372.48,272.099 
		372.51,272.099 	"/>
	<path fill="#FFFFFF" d="M379.998,247.676h14.418c1.369,0,2.489,1.12,2.489,2.49v14.417c0,1.369-1.12,2.488-2.489,2.488h-14.418
		c-1.369,0-2.49-1.119-2.49-2.488v-14.417C377.508,248.796,378.629,247.676,379.998,247.676z M391.639,249.83
		c-0.48,0-0.874,0.396-0.874,0.875v2.089c0,0.48,0.394,0.874,0.874,0.874h2.192c0.479,0,0.872-0.394,0.872-0.874v-2.089
		c0-0.479-0.394-0.875-0.872-0.875H391.639z M394.712,255.877h-1.706c0.161,0.529,0.249,1.086,0.249,1.666
		c0,3.226-2.7,5.841-6.03,5.841c-3.328,0-6.028-2.615-6.028-5.841c0-0.58,0.088-1.137,0.25-1.666h-1.781v8.194
		c0,0.425,0.347,0.77,0.771,0.77h13.508c0.425,0,0.771-0.345,0.771-0.77v-8.194H394.712z M387.225,253.558
		c-2.15,0-3.895,1.688-3.895,3.774c0,2.084,1.743,3.774,3.895,3.774c2.152,0,3.896-1.69,3.896-3.774
		C391.121,255.247,389.377,253.558,387.225,253.558z"/>
</g>
<g>
	<rect x="106.373" y="242.647" fill="#CA2128" width="29.45" height="29.451"/>
	<path fill="#FFFFFF" d="M121.098,246.722c-5.882,0-10.652,4.769-10.652,10.651c0,4.36,2.623,8.108,6.376,9.756
		c-0.03-0.745-0.006-1.638,0.185-2.446c0.206-0.865,1.371-5.806,1.371-5.806s-0.341-0.679-0.341-1.685
		c0-1.577,0.916-2.758,2.056-2.758c0.968,0,1.436,0.729,1.436,1.6c0,0.974-0.622,2.431-0.94,3.779
		c-0.267,1.131,0.567,2.052,1.68,2.052c2.019,0,3.378-2.591,3.378-5.663c0-2.333-1.572-4.081-4.432-4.081
		c-3.23,0-5.244,2.409-5.244,5.101c0,0.928,0.274,1.582,0.703,2.09c0.197,0.231,0.225,0.325,0.152,0.592
		c-0.049,0.197-0.167,0.669-0.216,0.854c-0.071,0.271-0.289,0.367-0.533,0.269c-1.489-0.607-2.182-2.237-2.182-4.069
		c0-3.024,2.551-6.654,7.614-6.654c4.065,0,6.744,2.943,6.744,6.104c0,4.179-2.325,7.3-5.749,7.3c-1.151,0-2.232-0.622-2.602-1.327
		c0,0-0.619,2.454-0.749,2.929c-0.226,0.819-0.668,1.642-1.073,2.281c0.958,0.282,1.97,0.436,3.019,0.436
		c5.882,0,10.651-4.768,10.651-10.651S126.98,246.722,121.098,246.722z"/>
</g>
<g>
	<rect y="242.719" fill="#3B5999" width="29.309" height="29.31"/>
	<path fill="#FFFFFF" d="M25.561,260.265l0.579-4.486h-4.442v-2.864c0-1.299,0.362-2.185,2.224-2.185l2.374-0.002v-4.013
		c-0.41-0.055-1.819-0.177-3.461-0.177c-3.426,0-5.769,2.091-5.769,5.931v3.308h-3.875v4.486h3.875v11.512h4.632v-11.512h3.863
		V260.265z"/>
</g>
<g>
	<rect x="212.815" y="242.649" fill="#017BB6" width="29.45" height="29.449"/>
	<path fill="#FFFFFF" d="M217.855,254.019h4.154v13.349h-4.154V254.019z M219.935,247.381c1.328,0,2.405,1.079,2.405,2.405
		c0,1.328-1.077,2.406-2.405,2.406c-1.333,0-2.408-1.078-2.408-2.406C217.526,248.46,218.602,247.381,219.935,247.381"/>
	<path fill="#FFFFFF" d="M224.615,254.019h3.979v1.824h0.057c0.554-1.051,1.908-2.156,3.928-2.156c4.2,0,4.978,2.764,4.978,6.358
		v7.322h-4.147v-6.49c0-1.55-0.031-3.541-2.158-3.541c-2.16,0-2.489,1.687-2.489,3.426v6.604h-4.146v-13.348H224.615z"/>
</g>
<g>
	<rect x="53.151" y="242.647" fill="#2AA8E0" width="29.451" height="29.451"/>
	<path fill="#FFFFFF" d="M77.692,251.285c-0.723,0.319-1.499,0.537-2.313,0.634c0.832-0.498,1.471-1.287,1.771-2.229
		c-0.777,0.461-1.639,0.798-2.557,0.979c-0.736-0.783-1.783-1.271-2.941-1.271c-2.225,0-4.028,1.804-4.028,4.027
		c0,0.316,0.036,0.623,0.104,0.917c-3.347-0.167-6.315-1.771-8.302-4.209c-0.346,0.597-0.545,1.288-0.545,2.026
		c0,1.396,0.711,2.631,1.791,3.352c-0.66-0.02-1.28-0.203-1.824-0.504v0.051c0,1.952,1.389,3.58,3.231,3.95
		c-0.338,0.093-0.695,0.142-1.062,0.142c-0.259,0-0.512-0.025-0.758-0.072c0.513,1.6,2,2.764,3.762,2.798
		c-1.377,1.08-3.114,1.724-5.002,1.724c-0.325,0-0.645-0.02-0.96-0.057c1.782,1.143,3.899,1.811,6.175,1.811
		c7.408,0,11.46-6.138,11.46-11.461c0-0.174-0.005-0.348-0.011-0.521C76.469,252.802,77.151,252.092,77.692,251.285z"/>
</g>
<g>
	<path fill="#FFFFFF" d="M174.674,207.446c0.385,0,0.57-0.306,0.57-0.916v-2.777c0-0.611-0.186-0.915-0.57-0.915
		c-0.387,0-0.572,0.304-0.572,0.915v2.777C174.102,207.14,174.287,207.446,174.674,207.446z"/>
	<path fill="#FFFFFF" d="M160.221,226.156h29.45v-29.45h-29.45V226.156z M177.424,201.84h1.193v4.859c0,0.281,0,0.427,0.015,0.466
		c0.026,0.186,0.12,0.28,0.28,0.28c0.239,0,0.49-0.186,0.756-0.56v-5.045h1.197v6.601h-1.197v-0.72
		c-0.477,0.546-0.931,0.812-1.367,0.812c-0.385,0-0.65-0.157-0.77-0.492c-0.066-0.199-0.107-0.516-0.107-0.981V201.84
		L177.424,201.84z M172.906,203.992c0-0.705,0.119-1.221,0.374-1.555c0.331-0.45,0.798-0.676,1.394-0.676
		c0.599,0,1.063,0.226,1.396,0.676c0.25,0.334,0.372,0.85,0.372,1.555v2.312c0,0.702-0.122,1.222-0.372,1.553
		c-0.332,0.45-0.797,0.676-1.396,0.676c-0.596,0-1.062-0.226-1.394-0.676c-0.255-0.331-0.374-0.851-0.374-1.553V203.992z
		 M169.707,199.583l0.941,3.479l0.906-3.479h1.34l-1.596,5.271v3.587h-1.326v-3.587c-0.119-0.637-0.386-1.567-0.811-2.803
		c-0.279-0.822-0.571-1.647-0.851-2.468H169.707z M165.498,211.823c0.238-1.041,1.09-1.81,2.116-1.924
		c2.429-0.271,4.888-0.272,7.335-0.271c2.446-0.001,4.904,0,7.334,0.271c1.025,0.114,1.878,0.883,2.117,1.924
		c0.34,1.485,0.339,3.102,0.339,4.631c0,1.527-0.001,3.146-0.343,4.63c-0.24,1.041-1.092,1.81-2.117,1.925
		c-2.43,0.271-4.889,0.271-7.334,0.271c-2.448,0.001-4.906,0-7.335-0.271c-1.026-0.115-1.878-0.884-2.116-1.925
		c-0.342-1.483-0.342-3.103-0.342-4.63C165.152,214.925,165.156,213.308,165.498,211.823z"/>
	<path fill="#FFFFFF" d="M171.779,220.781c0.435,0,0.882-0.263,1.352-0.803v0.713h1.186v-6.533h-1.186v4.993
		c-0.262,0.37-0.512,0.554-0.748,0.554c-0.158,0-0.248-0.094-0.277-0.276c-0.012-0.039-0.012-0.184-0.012-0.46v-4.81h-1.183v5.166
		c0,0.462,0.04,0.772,0.104,0.971C171.134,220.626,171.396,220.781,171.779,220.781z"/>
	<path fill="#FFFFFF" d="M176.523,220.058c0.396,0.488,0.802,0.723,1.223,0.723c0.473,0,0.789-0.248,0.947-0.734
		c0.078-0.276,0.119-0.712,0.119-1.315v-2.602c0-0.618-0.041-1.05-0.119-1.313c-0.158-0.489-0.475-0.737-0.947-0.737
		c-0.435,0-0.84,0.238-1.223,0.708v-2.863h-1.184v8.768h1.184V220.058z M176.523,215.432c0.197-0.195,0.396-0.288,0.59-0.288
		c0.342,0,0.516,0.303,0.516,0.892v2.788c0,0.59-0.174,0.881-0.516,0.881c-0.193,0-0.393-0.094-0.59-0.291V215.432z"/>
	<polygon fill="#FFFFFF" points="168.004,220.691 169.32,220.691 169.32,213.158 170.739,213.158 170.739,211.923 166.611,211.923 
		166.611,213.158 168.004,213.158 	"/>
	<path fill="#FFFFFF" d="M181.547,220.781c0.618,0,1.104-0.234,1.432-0.708c0.143-0.209,0.236-0.447,0.275-0.709
		c0.012-0.119,0.026-0.382,0.026-0.763v-0.173h-1.209c0,0.476-0.014,0.736-0.024,0.801c-0.068,0.316-0.238,0.476-0.529,0.476
		c-0.406,0-0.604-0.302-0.604-0.907v-1.157h2.367v-1.354c0-0.699-0.119-1.209-0.367-1.539c-0.331-0.448-0.802-0.67-1.396-0.67
		c-0.604,0-1.077,0.222-1.418,0.67c-0.252,0.33-0.365,0.84-0.365,1.539v2.289c0,0.693,0.129,1.209,0.379,1.535
		C180.455,220.558,180.927,220.781,181.547,220.781z M180.913,216.051c0-0.604,0.198-0.907,0.594-0.907
		c0.391,0,0.589,0.303,0.589,0.907v0.604h-1.183V216.051z"/>
</g>
<g>
	<path fill="#FFFFFF" d="M333.594,207.629c0.042-0.393,0.064-0.721,0.064-0.99c0-1.156-0.296-2.322-0.887-3.498
		c-0.279-0.563-0.645-1.023-1.097-1.376c-0.463-0.333-0.995-0.511-1.595-0.53c-0.796,0.02-1.456,0.34-1.983,0.961
		c-0.444,0.65-0.657,1.376-0.638,2.18c0,1.061,0.31,2.164,0.931,3.312c0.303,0.535,0.688,0.988,1.164,1.361
		c0.477,0.374,1.02,0.561,1.63,0.561c0.772-0.029,1.416-0.308,1.932-0.833C333.364,208.403,333.523,208.021,333.594,207.629z"/>
	<path fill="#FFFFFF" d="M327.4,220.34c0.889,0.667,2.102,1.011,3.643,1.03c1.383-0.02,2.438-0.325,3.166-0.916
		c0.711-0.583,1.065-1.331,1.065-2.247c0-0.745-0.243-1.394-0.729-1.946c-0.515-0.524-1.317-1.168-2.41-1.933
		c-0.188-0.02-0.405-0.028-0.658-0.028c-0.149-0.019-0.532,0-1.148,0.057c-0.606,0.086-1.229,0.225-1.864,0.416
		c-0.147,0.057-0.357,0.144-0.629,0.258c-0.271,0.124-0.547,0.3-0.828,0.529c-0.271,0.238-0.499,0.534-0.686,0.887
		c-0.216,0.373-0.322,0.821-0.322,1.345C326,218.823,326.467,219.672,327.4,220.34z"/>
	<path fill="#FFFFFF" d="M319.886,226.156h29.45v-29.45h-29.45V226.156z M338.062,203.467h3.076v-3.078h1.491v3.078h3.078v1.491
		h-3.078v3.078h-1.491v-3.078h-3.076V203.467z M324.012,216.6c0.322-0.666,0.906-1.251,1.753-1.756
		c0.949-0.542,1.948-0.905,2.993-1.086c1.036-0.151,1.896-0.237,2.58-0.257c-0.211-0.278-0.398-0.575-0.564-0.892
		c-0.192-0.307-0.288-0.677-0.288-1.107c0-0.259,0.034-0.476,0.107-0.647c0.065-0.184,0.125-0.35,0.181-0.504
		c-0.333,0.038-0.647,0.057-0.941,0.057c-1.562-0.019-2.753-0.511-3.571-1.473c-0.856-0.898-1.287-1.942-1.287-3.134
		c0-1.441,0.607-2.747,1.822-3.921c0.834-0.687,1.7-1.134,2.599-1.345c0.891-0.181,1.725-0.272,2.502-0.272h5.866l-1.812,1.058
		h-1.809c0.185,0.114,0.392,0.281,0.621,0.5c0.222,0.229,0.438,0.512,0.648,0.845c0.203,0.314,0.383,0.686,0.54,1.116
		c0.129,0.429,0.192,0.93,0.192,1.502c-0.017,1.049-0.249,1.889-0.694,2.519c-0.22,0.306-0.45,0.587-0.694,0.845
		c-0.271,0.257-0.56,0.52-0.865,0.787c-0.175,0.181-0.336,0.386-0.483,0.616c-0.175,0.238-0.264,0.514-0.264,0.829
		c0,0.307,0.092,0.559,0.271,0.759c0.15,0.191,0.3,0.358,0.443,0.501l0.995,0.815c0.618,0.507,1.161,1.063,1.626,1.674
		c0.439,0.621,0.668,1.431,0.688,2.432c0,1.421-0.629,2.68-1.885,3.779c-1.3,1.135-3.18,1.721-5.635,1.76
		c-2.055-0.02-3.588-0.457-4.602-1.313c-1.021-0.801-1.534-1.757-1.534-2.871C323.512,217.873,323.678,217.267,324.012,216.6z"/>
</g>
<path fill="#FFFFFF" d="M266.735,226.014h29.309v-29.308h-29.309V226.014z M276.591,204.944c0,0-0.564,8.041,5.266,12.791
	c0,0,2.083-1.652,3.629-4.685c-1.855-1.043-3.629-3.024-3.629-6.789c0-5.361,7.805-4.656,7.805-0.425
	c0,1.501,0.01,2.777-0.202,4.068h-2.787c0.271-1.07,0.442-2.238,0.45-3.502c0-2.305-2.681-1.599-2.681-0.236
	c0,1.035,0.281,5.267,5.22,5.737v2.305c0,0-0.704-0.004-1.688-0.225c-0.185,0.33-0.389,0.67-0.616,1.024
	c-2.352,3.666-4.278,5.594-5.122,5.642c-0.849,0.047-0.988,0.094-1.694-0.471c-0.705-0.565-6.442-4.373-6.489-15.235
	L276.591,204.944L276.591,204.944z"/>
<g>
	<path fill="#FFFFFF" d="M402.528,196.706h-29.393v29.392h29.393V196.706z M397.531,218.611c0,1.369-1.119,2.488-2.489,2.488
		h-14.417c-1.369,0-2.49-1.119-2.49-2.488v-14.417c0-1.37,1.121-2.49,2.49-2.49h14.417c1.37,0,2.489,1.12,2.489,2.49V218.611z"/>
	<path fill="#FFFFFF" d="M392.265,207.696h2.192c0.48,0,0.873-0.393,0.873-0.874v-2.089c0-0.48-0.394-0.875-0.873-0.875h-2.192
		c-0.48,0-0.874,0.395-0.874,0.875v2.089C391.391,207.303,391.783,207.696,392.265,207.696z"/>
	<path fill="#FFFFFF" d="M393.881,211.572c0,3.225-2.7,5.841-6.029,5.841s-6.028-2.616-6.028-5.841c0-0.58,0.088-1.137,0.249-1.666
		h-1.78v8.194c0,0.425,0.346,0.77,0.771,0.77h13.508c0.424,0,0.77-0.345,0.77-0.77v-8.194h-1.706
		C393.793,210.435,393.881,210.992,393.881,211.572z"/>
	<ellipse fill="#FFFFFF" cx="387.852" cy="211.361" rx="3.896" ry="3.775"/>
</g>
<path fill="#FFFFFF" d="M106.999,226.156h29.45v-29.45h-29.45V226.156z M121.724,200.779c5.882,0,10.651,4.769,10.651,10.652
	c0,5.883-4.769,10.651-10.651,10.651c-1.049,0-2.061-0.154-3.019-0.436c0.404-0.641,0.847-1.462,1.073-2.282
	c0.13-0.474,0.749-2.928,0.749-2.928c0.37,0.705,1.451,1.327,2.602,1.327c3.424,0,5.749-3.121,5.749-7.3
	c0-3.16-2.678-6.103-6.744-6.103c-5.062,0-7.614,3.629-7.614,6.654c0,1.832,0.693,3.462,2.182,4.069
	c0.244,0.1,0.462,0.004,0.533-0.268c0.05-0.187,0.167-0.657,0.216-0.854c0.073-0.267,0.045-0.36-0.152-0.593
	c-0.429-0.507-0.703-1.162-0.703-2.09c0-2.691,2.014-5.1,5.244-5.1c2.859,0,4.432,1.747,4.432,4.081
	c0,3.072-1.359,5.663-3.378,5.663c-1.112,0-1.947-0.921-1.68-2.051c0.319-1.349,0.94-2.806,0.94-3.78
	c0-0.871-0.468-1.599-1.436-1.599c-1.14,0-2.056,1.18-2.056,2.757c0,1.005,0.341,1.685,0.341,1.685s-1.166,4.94-1.371,5.806
	c-0.19,0.808-0.215,1.7-0.185,2.445c-3.754-1.647-6.376-5.395-6.376-9.756C111.072,205.547,115.842,200.779,121.724,200.779z"/>
<path fill="#FFFFFF" d="M0.626,226.014h29.309v-29.308H0.626V226.014z M13.817,209.765h3.875v-3.308c0-3.84,2.343-5.931,5.769-5.931
	c1.642,0,3.051,0.122,3.461,0.177v4.013l-2.374,0.001c-1.862,0-2.224,0.886-2.224,2.185v2.864h4.442l-0.579,4.486h-3.864v11.51
	h-4.632v-11.51h-3.875L13.817,209.765L13.817,209.765z"/>
<path fill="#FFFFFF" d="M213.442,226.155h29.45v-29.449h-29.45V226.155z M222.637,221.423h-4.155v-13.349h4.155V221.423z
	 M225.242,208.075h3.979v1.825h0.057c0.554-1.051,1.908-2.156,3.929-2.156c4.199,0,4.978,2.763,4.978,6.358v7.322h-4.148v-6.49
	c0-1.55-0.03-3.541-2.158-3.541c-2.159,0-2.488,1.686-2.488,3.426v6.604h-4.146v-13.348H225.242z M220.561,201.438
	c1.328,0,2.406,1.079,2.406,2.405c0,1.328-1.078,2.406-2.406,2.406c-1.333,0-2.408-1.078-2.408-2.406
	C218.152,202.518,219.228,201.438,220.561,201.438z"/>
<path fill="#FFFFFF" d="M53.777,226.157h29.451v-29.451H53.777V226.157z M60.886,213.134c0.246,0.047,0.499,0.073,0.758,0.073
	c0.367,0,0.724-0.05,1.062-0.142c-1.842-0.37-3.231-1.998-3.231-3.95v-0.051c0.543,0.301,1.164,0.484,1.824,0.504
	c-1.08-0.721-1.791-1.956-1.791-3.352c0-0.738,0.199-1.43,0.545-2.026c1.987,2.438,4.955,4.042,8.302,4.209
	c-0.068-0.294-0.104-0.601-0.104-0.917c0-2.224,1.803-4.028,4.028-4.028c1.158,0,2.205,0.489,2.941,1.272
	c0.917-0.181,1.779-0.517,2.557-0.978c-0.3,0.941-0.939,1.73-1.771,2.228c0.814-0.097,1.591-0.313,2.313-0.634
	c-0.541,0.808-1.224,1.518-2.009,2.084c0.006,0.174,0.011,0.348,0.011,0.522c0,5.323-4.052,11.459-11.46,11.459
	c-2.276,0-4.393-0.667-6.175-1.809c0.315,0.037,0.635,0.057,0.96,0.057c1.888,0,3.625-0.645,5.002-1.724
	C62.886,215.898,61.399,214.734,60.886,213.134z"/>
<path fill="#FFFFFF" d="M500.939,37.808l7.979-7.979l2.28,2.351l-5.735,5.664l5.735,5.699l-2.28,2.28L500.939,37.808z"/>
<path fill="#FFFFFF" d="M478.056,45.822l-2.279-2.28l5.734-5.699l-5.734-5.664l2.279-2.351l7.979,7.979L478.056,45.822z"/>
<path fill="#FED800" d="M401.248,35.143c0,2.517-0.891,4.667-2.672,6.447c-1.781,1.781-3.932,2.672-6.447,2.672
	c-2.518,0-4.667-0.891-6.447-2.672c-1.78-1.781-2.672-3.93-2.672-6.447s0.892-4.667,2.672-6.448c1.78-1.781,3.931-2.671,6.447-2.671
	c2.518,0,4.666,0.891,6.447,2.671C400.357,30.477,401.248,32.626,401.248,35.143z M397.614,35.143c0-1.52-0.534-2.814-1.604-3.883
	c-1.068-1.069-2.362-1.603-3.883-1.603s-2.813,0.534-3.883,1.603c-1.069,1.069-1.604,2.363-1.604,3.883s0.534,2.814,1.604,3.883
	c1.068,1.068,2.362,1.603,3.883,1.603s2.813-0.534,3.883-1.603S397.614,36.663,397.614,35.143z M394.872,35.143
	c0,0.76-0.269,1.407-0.802,1.941c-0.534,0.534-1.183,0.801-1.941,0.801s-1.407-0.267-1.941-0.801
	c-0.533-0.535-0.802-1.182-0.802-1.941c0-0.76,0.269-1.407,0.802-1.941c0.534-0.534,1.183-0.802,1.941-0.802
	s1.407,0.268,1.941,0.802C394.604,33.736,394.872,34.383,394.872,35.143z"/>
<path fill="#FFFFFF" d="M401.248,9.119c0,2.517-0.891,4.667-2.672,6.448c-1.781,1.781-3.932,2.671-6.447,2.671
	c-2.518,0-4.667-0.891-6.447-2.671c-1.78-1.781-2.672-3.931-2.672-6.448c0-2.517,0.892-4.667,2.672-6.447
	C387.462,0.891,389.612,0,392.129,0c2.518,0,4.666,0.891,6.447,2.672C400.357,4.453,401.248,6.602,401.248,9.119z M397.614,9.119
	c0-1.52-0.534-2.814-1.604-3.883c-1.068-1.068-2.362-1.603-3.883-1.603s-2.813,0.534-3.883,1.603
	c-1.068,1.069-1.604,2.363-1.604,3.883s0.534,2.814,1.604,3.883s2.362,1.603,3.883,1.603s2.813-0.534,3.883-1.603
	S397.614,10.639,397.614,9.119z"/>
<path fill="#4C2F83" d="M426.126,35.143c0,2.517-0.891,4.667-2.672,6.447c-1.781,1.781-3.931,2.672-6.447,2.672
	c-2.518,0-4.667-0.891-6.447-2.672c-1.78-1.781-2.672-3.93-2.672-6.447s0.892-4.667,2.672-6.448c1.78-1.781,3.931-2.671,6.447-2.671
	c2.518,0,4.666,0.891,6.447,2.671C425.235,30.477,426.126,32.626,426.126,35.143z M422.492,35.143c0-1.52-0.534-2.814-1.604-3.883
	c-1.068-1.069-2.362-1.603-3.883-1.603s-2.813,0.534-3.883,1.603c-1.069,1.069-1.604,2.363-1.604,3.883s0.534,2.814,1.604,3.883
	c1.068,1.068,2.362,1.603,3.883,1.603s2.813-0.534,3.883-1.603S422.492,36.663,422.492,35.143z M419.75,35.143
	c0,0.76-0.268,1.407-0.802,1.941s-1.183,0.801-1.941,0.801s-1.407-0.267-1.94-0.801c-0.534-0.535-0.803-1.182-0.803-1.941
	c0-0.76,0.269-1.407,0.803-1.941c0.533-0.534,1.182-0.802,1.94-0.802s1.407,0.268,1.941,0.802
	C419.482,33.736,419.75,34.383,419.75,35.143z"/>
<path fill="#FFFFFF" d="M426.126,9.119c0,2.517-0.891,4.667-2.672,6.448c-1.781,1.781-3.931,2.671-6.447,2.671
	c-2.518,0-4.667-0.891-6.447-2.671c-1.78-1.781-2.672-3.931-2.672-6.448c0-2.517,0.892-4.667,2.672-6.447
	C412.34,0.891,414.489,0,417.007,0s4.666,0.891,6.447,2.672C425.235,4.453,426.126,6.602,426.126,9.119z M422.492,9.119
	c0-1.52-0.534-2.814-1.604-3.883c-1.068-1.068-2.362-1.603-3.883-1.603s-2.813,0.534-3.883,1.603
	c-1.068,1.069-1.604,2.363-1.604,3.883s0.534,2.814,1.604,3.883s2.362,1.603,3.883,1.603s2.813-0.534,3.883-1.603
	S422.492,10.639,422.492,9.119z"/>
<path fill="#4C2F83" d="M456.76,1.335c0.892,0.891,1.336,1.965,1.336,3.224v9.119c0,1.259-0.444,2.333-1.336,3.224
	c-0.891,0.89-1.965,1.335-3.225,1.335h-9.117c-1.26,0-2.334-0.445-3.225-1.335c-0.892-0.891-1.336-1.965-1.336-3.224V4.56
	c0-1.259,0.444-2.333,1.336-3.224C442.084,0.445,443.158,0,444.418,0h9.117C454.795,0,455.869,0.445,456.76,1.335z M454.854,6.768
	l-0.961-0.962c-0.143-0.166-0.297-0.166-0.463,0l-5.094,5.058c-0.166,0.167-0.334,0.167-0.5,0l-2.207-2.28
	c-0.072-0.047-0.154-0.071-0.25-0.071s-0.178,0.024-0.25,0.071l-0.996,0.891c-0.072,0.071-0.106,0.154-0.106,0.25
	c0,0.095,0.034,0.178,0.106,0.249l2.244,2.387c0.047,0.024,0.1,0.065,0.16,0.125c0.059,0.059,0.125,0.125,0.195,0.196
	c0.069,0.071,0.118,0.119,0.143,0.143l0.961,0.997c0.166,0.143,0.334,0.143,0.5,0l6.518-6.554
	C455.02,7.101,455.02,6.934,454.854,6.768z"/>
<path fill="#BCBEC0" d="M444.162,26.205h9.119c1.258,0,2.332,0.445,3.223,1.335s1.336,1.965,1.336,3.224v9.119
	c0,1.259-0.445,2.333-1.336,3.224s-1.965,1.336-3.223,1.336h-9.119c-1.26,0-2.334-0.445-3.226-1.336
	c-0.891-0.89-1.336-1.965-1.336-3.224v-9.119c0-1.258,0.445-2.333,1.336-3.224C441.828,26.649,442.902,26.205,444.162,26.205z"/>
<path fill="#FFFFFF" d="M487.758,3.092c0.119,0.119,0.179,0.255,0.179,0.41c0,0.154-0.06,0.291-0.179,0.409l-4.452,4.417
	c-0.261,0.261-0.261,0.534,0,0.819l4.452,4.417c0.119,0.119,0.179,0.255,0.179,0.409c0,0.155-0.06,0.291-0.179,0.41l-1.603,1.603
	c-0.118,0.119-0.255,0.178-0.409,0.178s-0.291-0.06-0.41-0.178l-4.417-4.417c-0.118-0.119-0.255-0.178-0.409-0.178
	c-0.153,0-0.291,0.06-0.41,0.178l-4.417,4.417c-0.117,0.119-0.255,0.178-0.408,0.178c-0.154,0-0.291-0.06-0.41-0.178l-1.604-1.603
	c-0.119-0.119-0.179-0.255-0.179-0.41c0-0.154,0.06-0.291,0.179-0.409l4.417-4.417c0.262-0.285,0.262-0.558,0-0.819l-4.417-4.417
	c-0.285-0.285-0.285-0.558,0-0.819l1.604-1.603c0.119-0.119,0.256-0.178,0.41-0.178c0.153,0,0.291,0.06,0.408,0.178l4.417,4.417
	c0.119,0.119,0.257,0.178,0.41,0.178c0.154,0,0.291-0.06,0.409-0.178l4.417-4.417c0.262-0.285,0.534-0.285,0.819,0L487.758,3.092z"
	/>
<path fill="#FFFFFF" d="M517.376,4.39c0.095,0.119,0.143,0.255,0.143,0.41c0,0.155-0.048,0.291-0.143,0.41l-10.899,10.9
	c-0.262,0.261-0.534,0.261-0.819,0l-1.604-1.639c-0.166-0.166-0.438-0.439-0.818-0.819l-3.74-3.918
	c-0.095-0.119-0.144-0.261-0.144-0.428c0-0.143,0.049-0.273,0.144-0.392l1.639-1.46c0.119-0.119,0.263-0.178,0.429-0.178
	c0.143,0,0.271,0.059,0.392,0.178l3.704,3.776c0.285,0.261,0.559,0.261,0.82,0l8.478-8.442c0.118-0.119,0.255-0.178,0.409-0.178
	s0.291,0.06,0.41,0.178L517.376,4.39z"/>
<g>
	<polygon fill="#FFFFFF" points="489.883,70.322 489.887,70.317 476.974,56.712 474.071,59.465 484.369,70.322 474.071,81.18 
		476.974,83.932 489.887,70.327 	"/>
</g>
<g>
	<polygon fill="#FFFFFF" points="498.875,70.322 498.871,70.317 511.784,56.712 514.688,59.465 504.389,70.322 514.688,81.18 
		511.784,83.932 498.871,70.327 	"/>
</g>
<g>
	<path fill="#FFFFFF" d="M99.167,321.841c3.193,0,5.791-3.292,5.791-7.337s-2.598-7.337-5.791-7.337
		c-3.194,0-5.793,3.292-5.793,7.337S95.973,321.841,99.167,321.841z M99.167,308.71c2.301,0,4.247,2.652,4.247,5.793
		s-1.946,5.792-4.247,5.792c-2.303,0-4.248-2.651-4.248-5.792S96.864,308.71,99.167,308.71z"/>
	<path fill="#FFFFFF" d="M88.394,323.142l-1.545,4.633c-0.078,0.234-0.038,0.494,0.106,0.694c0.145,0.202,0.378,0.321,0.626,0.321
		h23.168c0.249,0,0.481-0.119,0.627-0.321c0.145-0.202,0.184-0.46,0.106-0.694l-1.545-4.633c-0.081-0.244-0.274-0.43-0.52-0.5
		l-5.406-1.543c-0.187-0.055-0.384-0.037-0.558,0.051l-4.288,2.145l-4.289-2.145c-0.173-0.088-0.371-0.105-0.558-0.051l-5.405,1.543
		C88.67,322.712,88.475,322.897,88.394,323.142z M94.456,322.665l4.365,2.184c0.217,0.108,0.474,0.108,0.69,0l4.365-2.184
		l4.727,1.352l1.076,3.23H88.654l1.077-3.23L94.456,322.665z"/>
</g>
<g>
	<path fill="#FFFFFF" d="M65.922,308.712h-3.09v-0.773c0-0.426-0.345-0.771-0.772-0.771h-2.317c-0.426,0-0.771,0.346-0.771,0.771
		v0.773h-9.268v-0.773c0-0.426-0.347-0.771-0.773-0.771h-2.316c-0.428,0-0.773,0.346-0.773,0.771v0.773h-3.088
		c-0.427,0-0.773,0.346-0.773,0.771v18.535c0,0.426,0.346,0.771,0.773,0.771h23.169c0.426,0,0.772-0.346,0.772-0.771v-18.535
		C66.694,309.058,66.349,308.712,65.922,308.712z M60.516,308.712h0.772v1.544h-0.772V308.712z M47.386,308.712h0.773v1.544h-0.773
		V308.712z M65.15,327.246H43.525v-16.99h2.316v0.772c0,0.427,0.346,0.771,0.773,0.771h2.316c0.426,0,0.773-0.345,0.773-0.771
		v-0.772h9.268v0.772c0,0.427,0.345,0.771,0.771,0.771h2.317c0.427,0,0.772-0.345,0.772-0.771v-0.772h2.318L65.15,327.246
		L65.15,327.246z"/>
	<path fill="#FFFFFF" d="M49.704,314.892h-3.089c-0.428,0-0.773,0.346-0.773,0.771v3.089c0,0.427,0.346,0.771,0.773,0.771h3.089
		c0.427,0,0.772-0.345,0.772-0.771v-3.089C50.476,315.235,50.131,314.892,49.704,314.892z M48.931,317.979h-1.545v-1.545h1.545
		V317.979z"/>
	<path fill="#FFFFFF" d="M55.882,314.892h-3.089c-0.426,0-0.771,0.346-0.771,0.771v3.089c0,0.427,0.345,0.771,0.771,0.771h3.089
		c0.425,0,0.772-0.345,0.772-0.771v-3.089C56.654,315.235,56.307,314.892,55.882,314.892z M55.108,317.979h-1.544v-1.545h1.544
		V317.979z"/>
	<path fill="#FFFFFF" d="M62.06,314.892h-3.088c-0.428,0-0.773,0.346-0.773,0.771v3.089c0,0.427,0.345,0.771,0.773,0.771h3.088
		c0.427,0,0.772-0.345,0.772-0.771v-3.089C62.833,315.235,62.487,314.892,62.06,314.892z M61.288,317.979h-1.545v-1.545h1.545
		V317.979z"/>
	<path fill="#FFFFFF" d="M49.704,321.067h-3.089c-0.428,0-0.773,0.346-0.773,0.772v3.089c0,0.426,0.346,0.771,0.773,0.771h3.089
		c0.427,0,0.772-0.346,0.772-0.771v-3.089C50.476,321.413,50.131,321.067,49.704,321.067z M48.931,324.158h-1.545v-1.546h1.545
		V324.158z"/>
	<path fill="#FFFFFF" d="M55.882,321.067h-3.089c-0.426,0-0.771,0.346-0.771,0.772v3.089c0,0.426,0.345,0.771,0.771,0.771h3.089
		c0.425,0,0.772-0.346,0.772-0.771v-3.089C56.654,321.413,56.307,321.067,55.882,321.067z M55.108,324.158h-1.544v-1.546h1.544
		V324.158z"/>
	<path fill="#FFFFFF" d="M62.06,321.067h-3.088c-0.428,0-0.773,0.346-0.773,0.772v3.089c0,0.426,0.345,0.771,0.773,0.771h3.088
		c0.427,0,0.772-0.346,0.772-0.771v-3.089C62.833,321.413,62.487,321.067,62.06,321.067z M61.288,324.158h-1.545v-1.546h1.545
		V324.158z"/>
</g>
<g>
	<path fill="#FFFFFF" d="M227.089,330.336h14.674c0.852,0,1.544-0.692,1.544-1.546v-21.624c0-0.851-0.693-1.544-1.544-1.544h-14.674
		c-0.851,0-1.543,0.693-1.543,1.544v2.317h-0.772c-0.426,0-0.772,0.346-0.772,0.771c0,0.428,0.346,0.771,0.772,0.771h0.772v1.545
		h-0.772c-0.426,0-0.772,0.347-0.772,0.773c0,0.426,0.346,0.771,0.772,0.771h0.772v1.545h-0.772c-0.426,0-0.772,0.346-0.772,0.772
		c0,0.426,0.346,0.771,0.772,0.771h0.772v1.545h-0.772c-0.426,0-0.772,0.346-0.772,0.771c0,0.428,0.346,0.771,0.772,0.771h0.772
		v1.545h-0.772c-0.426,0-0.772,0.346-0.772,0.771c0,0.427,0.346,0.772,0.772,0.772h0.772v1.546h-0.772
		c-0.426,0-0.772,0.346-0.772,0.771c0,0.427,0.346,0.771,0.772,0.771h0.772v2.316C225.545,329.644,226.238,330.336,227.089,330.336z
		 M241.763,328.791h-3.088v-21.624h3.088V328.791z M227.089,323.385h0.772c0.427,0,0.772-0.346,0.772-0.772
		c0-0.426-0.346-0.771-0.772-0.771h-0.772v-1.545h0.772c0.427,0,0.772-0.344,0.772-0.771c0-0.426-0.346-0.771-0.772-0.771h-0.772
		v-1.545h0.772c0.427,0,0.772-0.346,0.772-0.771c0-0.427-0.346-0.772-0.772-0.772h-0.772v-1.545h0.772
		c0.427,0,0.772-0.347,0.772-0.771c0-0.428-0.346-0.773-0.772-0.773h-0.772v-1.545h0.772c0.427,0,0.772-0.344,0.772-0.771
		c0-0.426-0.346-0.771-0.772-0.771h-0.772v-2.317h10.042v21.624h-10.042v-2.316h0.772c0.427,0,0.772-0.346,0.772-0.771
		s-0.346-0.771-0.772-0.771h-0.772V323.385L227.089,323.385z"/>
</g>
<g>
	<path fill="#FFFFFF" d="M155.478,307.174l-11.483,1.53l-11.481-1.53c-0.223-0.03-0.445,0.037-0.611,0.185
		c-0.167,0.146-0.264,0.357-0.264,0.58v18.537c0,0.387,0.286,0.713,0.67,0.766l11.585,1.544c0.034,0.005,0.068,0.007,0.101,0.007
		c0.034,0,0.068-0.002,0.103-0.007l11.583-1.544c0.384-0.051,0.671-0.379,0.671-0.766v-18.537c0-0.222-0.097-0.434-0.263-0.58
		C155.92,307.211,155.702,307.146,155.478,307.174z M133.183,308.821l10.04,1.339v16.976l-10.04-1.338V308.821z M154.808,325.798
		l-10.04,1.338V310.16l10.04-1.339V325.798z"/>
	<path fill="#FFFFFF" d="M135.405,312.567l6.178,0.771c0.032,0.004,0.065,0.007,0.097,0.007c0.383,0,0.718-0.287,0.765-0.678
		c0.053-0.422-0.246-0.809-0.669-0.861l-6.18-0.772c-0.421-0.054-0.809,0.247-0.861,0.67
		C134.682,312.128,134.981,312.515,135.405,312.567z"/>
	<path fill="#FFFFFF" d="M141.775,315.667l-6.18-0.771c-0.421-0.055-0.809,0.248-0.861,0.67c-0.052,0.424,0.247,0.811,0.671,0.863
		l6.178,0.772c0.032,0.004,0.065,0.005,0.097,0.005c0.383,0,0.718-0.286,0.765-0.676
		C142.498,316.106,142.199,315.72,141.775,315.667z"/>
	<path fill="#FFFFFF" d="M141.775,319.53l-6.18-0.773c-0.421-0.054-0.809,0.247-0.861,0.671c-0.052,0.423,0.247,0.81,0.671,0.862
		l6.178,0.771c0.032,0.004,0.065,0.006,0.097,0.006c0.383,0,0.718-0.285,0.765-0.676
		C142.498,319.968,142.199,319.583,141.775,319.53z"/>
	<path fill="#FFFFFF" d="M141.775,323.392l-6.18-0.772c-0.421-0.056-0.809,0.247-0.861,0.67c-0.052,0.423,0.247,0.81,0.671,0.862
		l6.178,0.771c0.032,0.004,0.065,0.006,0.097,0.006c0.383,0,0.718-0.285,0.765-0.677
		C142.498,323.83,142.199,323.442,141.775,323.392z"/>
	<path fill="#FFFFFF" d="M146.311,313.347c0.033,0,0.066-0.004,0.097-0.008l6.178-0.771c0.424-0.053,0.724-0.438,0.672-0.862
		c-0.054-0.424-0.445-0.726-0.863-0.67l-6.178,0.772c-0.424,0.053-0.725,0.439-0.671,0.861
		C145.595,313.06,145.928,313.347,146.311,313.347z"/>
	<path fill="#FFFFFF" d="M146.311,317.206c0.033,0,0.066-0.001,0.097-0.005l6.178-0.773c0.424-0.052,0.724-0.438,0.672-0.862
		c-0.054-0.424-0.445-0.726-0.863-0.67l-6.178,0.771c-0.424,0.053-0.725,0.439-0.671,0.863
		C145.595,316.92,145.928,317.206,146.311,317.206z"/>
	<path fill="#FFFFFF" d="M146.311,321.067c0.033,0,0.066-0.002,0.097-0.006l6.178-0.771c0.424-0.053,0.724-0.439,0.672-0.862
		c-0.054-0.424-0.445-0.725-0.863-0.671l-6.178,0.773c-0.424,0.053-0.725,0.438-0.671,0.861
		C145.595,320.782,145.928,321.067,146.311,321.067z"/>
	<path fill="#FFFFFF" d="M152.396,322.619l-6.178,0.772c-0.424,0.051-0.725,0.438-0.671,0.86c0.049,0.394,0.382,0.677,0.765,0.677
		c0.033,0,0.066-0.002,0.097-0.006l6.178-0.771c0.424-0.053,0.724-0.438,0.672-0.862
		C153.204,322.866,152.813,322.563,152.396,322.619z"/>
</g>
<g>
	<path fill="#FFFFFF" d="M177.242,321.067h2.531l0.446,1.336l-1.979,1.979c-0.302,0.302-0.302,0.791,0,1.093l3.088,3.09
		c0.303,0.301,0.793,0.301,1.093,0l1.981-1.98l1.334,0.445v2.533c0,0.427,0.347,0.772,0.772,0.772h4.634
		c0.427,0,0.773-0.347,0.773-0.772v-2.533l1.336-0.445l1.978,1.98c0.303,0.301,0.792,0.301,1.094,0l3.089-3.09
		c0.301-0.302,0.301-0.791,0-1.093l-1.98-1.979l0.446-1.336h2.531c0.429,0,0.772-0.346,0.772-0.772v-4.633
		c0-0.427-0.344-0.771-0.772-0.771h-2.531l-0.446-1.338l1.98-1.979c0.301-0.303,0.301-0.791,0-1.092l-3.089-3.09
		c-0.302-0.302-0.791-0.302-1.094,0l-1.978,1.979l-1.336-0.446v-2.531c0-0.428-0.346-0.772-0.773-0.772h-4.634
		c-0.425,0-0.772,0.345-0.772,0.772v2.531l-1.334,0.446l-1.981-1.979c-0.3-0.302-0.79-0.302-1.093,0l-3.088,3.09
		c-0.302,0.302-0.302,0.789,0,1.092l1.979,1.979l-0.446,1.338h-2.531c-0.427,0-0.773,0.346-0.773,0.771v4.633
		C176.468,320.722,176.814,321.067,177.242,321.067z M178.013,316.435h2.317c0.333,0,0.628-0.213,0.733-0.528l0.771-2.317
		c0.093-0.277,0.022-0.583-0.186-0.79l-1.77-1.771l1.997-1.997l1.771,1.771c0.207,0.206,0.513,0.278,0.79,0.188l2.317-0.771
		c0.315-0.105,0.527-0.4,0.527-0.732v-2.317h3.089v2.317c0,0.332,0.213,0.627,0.528,0.732l2.317,0.771
		c0.279,0.092,0.583,0.021,0.791-0.188l1.771-1.771l1.997,1.997l-1.772,1.771c-0.206,0.206-0.278,0.513-0.184,0.79l0.771,2.317
		c0.106,0.315,0.401,0.528,0.733,0.528h2.316v3.088h-2.316c-0.333,0-0.627,0.215-0.733,0.529l-0.771,2.316
		c-0.094,0.277-0.022,0.583,0.184,0.79l1.772,1.771l-1.997,1.997l-1.771-1.771c-0.207-0.207-0.513-0.279-0.791-0.188l-2.317,0.772
		c-0.315,0.104-0.528,0.399-0.528,0.731v2.316h-3.089v-2.316c0-0.332-0.212-0.627-0.527-0.731l-2.317-0.772
		c-0.276-0.092-0.583-0.02-0.79,0.188l-1.771,1.771l-1.997-1.997l1.77-1.771c0.208-0.207,0.279-0.513,0.186-0.79l-0.771-2.316
		c-0.105-0.314-0.4-0.529-0.733-0.529h-2.317V316.435z"/>
	<path fill="#FFFFFF" d="M188.825,321.067c1.703,0,3.09-1.387,3.09-3.088c0-1.705-1.387-3.088-3.09-3.088
		c-1.703,0-3.09,1.385-3.09,3.088S187.123,321.067,188.825,321.067z M188.825,316.435c0.851,0,1.544,0.693,1.544,1.545
		s-0.693,1.543-1.544,1.543c-0.853,0-1.545-0.691-1.545-1.543S187.973,316.435,188.825,316.435z"/>
</g>
<g>
	<path fill="#FFFFFF" d="M12.598,314.503c0-1.704-1.386-3.089-3.09-3.089c-1.703,0-3.088,1.386-3.088,3.089s1.385,3.089,3.088,3.089
		C11.212,317.592,12.598,316.207,12.598,314.503z M7.963,314.503c0-0.852,0.693-1.544,1.545-1.544c0.853,0,1.545,0.692,1.545,1.544
		s-0.692,1.545-1.545,1.545C8.656,316.049,7.963,315.354,7.963,314.503z"/>
	<path fill="#FFFFFF" d="M9.495,330.334c0.222,0,0.433-0.094,0.579-0.261c0.341-0.387,8.344-9.53,8.316-15.561
		c-0.022-4.902-4.006-8.892-8.882-8.892c-4.897,0-8.881,3.989-8.881,8.896c0,6.026,7.949,15.168,8.287,15.555
		C9.061,330.239,9.262,330.33,9.495,330.334z M9.508,307.167c4.028,0,7.318,3.299,7.336,7.354
		c0.021,4.565-5.514,11.633-7.348,13.846c-1.825-2.215-7.326-9.277-7.326-13.85C2.171,310.464,5.463,307.167,9.508,307.167z"/>
</g>
<g>
	<path fill="#FFFFFF" d="M110.943,360.554H85.984c-0.459,0-0.833,0.371-0.833,0.83v14.977c0,0.459,0.373,0.832,0.833,0.832h24.958
		c0.459,0,0.832-0.373,0.832-0.832v-14.977C111.775,360.925,111.402,360.554,110.943,360.554z M108.279,362.217l-9.815,6.093
		l-9.815-6.093H108.279z M86.815,375.526v-12.489l11.648,7.229l11.648-7.229v12.489H86.815z"/>
</g>
<g>
	<path fill="#FFFFFF" d="M143.791,365.544c-0.46,0-0.833,0.373-0.833,0.832v11.303l-1.906-1.908c-0.325-0.324-0.852-0.324-1.177,0
		c-0.325,0.326-0.325,0.854,0,1.178l3.328,3.328c0.163,0.162,0.375,0.244,0.589,0.244s0.425-0.082,0.587-0.244l3.329-3.328
		c0.325-0.325,0.325-0.852,0-1.178c-0.325-0.324-0.852-0.324-1.177,0l-1.908,1.91v-11.304
		C144.62,365.959,144.249,365.544,143.791,365.544z"/>
	<path fill="#FFFFFF" d="M156.268,357.226H131.31c-0.459,0-0.833,0.373-0.833,0.832v14.976c0,0.459,0.374,0.831,0.833,0.831h9.152
		c0.46,0,0.833-0.372,0.833-0.831c0-0.461-0.373-0.833-0.833-0.833h-8.321v-13.312h23.296V372.2h-8.319
		c-0.459,0-0.833,0.372-0.833,0.833c0,0.459,0.374,0.831,0.833,0.831h9.15c0.459,0,0.833-0.372,0.833-0.831v-14.976
		C157.101,357.597,156.728,357.226,156.268,357.226z"/>
</g>
<g>
	<path fill="#FFFFFF" d="M13.312,355.562c-3.556,0-6.898,1.385-9.412,3.898c-2.516,2.516-3.9,5.857-3.9,9.413
		s1.384,6.897,3.899,9.412c2.514,2.514,5.856,3.899,9.412,3.899s6.899-1.386,9.412-3.899c2.515-2.515,3.901-5.857,3.901-9.412
		c0-3.556-1.386-6.897-3.901-9.413C20.211,356.946,16.867,355.562,13.312,355.562z M21.548,377.108
		c-2.201,2.199-5.126,3.412-8.237,3.412c-3.112,0-6.035-1.213-8.236-3.414c-2.2-2.198-3.412-5.123-3.412-8.234
		s1.212-6.036,3.412-8.236c2.201-2.199,5.124-3.41,8.236-3.41c3.11,0,6.036,1.211,8.237,3.412c2.2,2.199,3.411,5.125,3.411,8.235
		S23.749,374.908,21.548,377.108z"/>
	<path fill="#FFFFFF" d="M17.413,368.563l-3.329-8.319c-0.126-0.315-0.432-0.522-0.772-0.522s-0.646,0.207-0.773,0.522l-3.327,8.319
		c-0.08,0.201-0.076,0.42,0.002,0.617H9.212l3.327,8.319c0.127,0.315,0.433,0.524,0.773,0.524s0.646-0.209,0.772-0.524l3.329-8.319
		h-0.002C17.488,368.983,17.493,368.765,17.413,368.563z M13.312,362.792l2.099,5.248h-4.197L13.312,362.792z M13.312,374.952
		l-2.099-5.248h4.197L13.312,374.952z"/>
</g>
<g>
	<path fill="#FFFFFF" d="M41.16,378.024h4.991v3.326c0,0.459,0.373,0.834,0.833,0.834h13.312c0.459,0,0.831-0.373,0.831-0.834
		v-3.326h4.992c0.459,0,0.831-0.373,0.831-0.834V363.88c0-0.459-0.372-0.832-0.831-0.832h-4.992v-6.656
		c0-0.459-0.372-0.832-0.831-0.832H46.983c-0.459,0-0.833,0.373-0.833,0.832v6.656h-4.99c-0.459,0-0.833,0.373-0.833,0.832v13.312
		C40.327,377.651,40.701,378.024,41.16,378.024z M59.462,380.521H47.814v-8.32h11.648V380.521z M47.814,357.224h11.648v5.824H47.814
		V357.224z M41.991,364.711h4.992h13.312h4.991v11.647h-4.16v-4.991c0-0.459-0.372-0.832-0.831-0.832H46.983
		c-0.459,0-0.833,0.373-0.833,0.832v4.991h-4.16L41.991,364.711L41.991,364.711z"/>
	<path fill="#FFFFFF" d="M45.073,366.206c-0.307-0.312-0.866-0.312-1.174,0c-0.157,0.154-0.245,0.365-0.245,0.587
		c0,0.216,0.087,0.433,0.245,0.59c0.155,0.154,0.368,0.241,0.587,0.241c0.221,0,0.433-0.087,0.59-0.245
		c0.154-0.153,0.241-0.37,0.241-0.586C45.318,366.571,45.231,366.358,45.073,366.206z"/>
	<path fill="#FFFFFF" d="M46.983,367.624c0.221,0,0.433-0.087,0.586-0.245c0.159-0.153,0.245-0.37,0.245-0.586
		c0-0.217-0.086-0.433-0.245-0.592c-0.309-0.308-0.866-0.308-1.174,0.005c-0.157,0.154-0.245,0.365-0.245,0.587
		c0,0.216,0.088,0.433,0.245,0.59C46.55,367.537,46.762,367.624,46.983,367.624z"/>
	<path fill="#FFFFFF" d="M57.798,373.864h-8.319c-0.459,0-0.832,0.373-0.832,0.832s0.373,0.832,0.832,0.832h8.319
		c0.459,0,0.832-0.372,0.832-0.832C58.63,374.235,58.258,373.864,57.798,373.864z"/>
	<path fill="#FFFFFF" d="M57.798,377.19h-8.319c-0.459,0-0.832,0.373-0.832,0.834c0,0.457,0.373,0.832,0.832,0.832h8.319
		c0.459,0,0.832-0.373,0.832-0.832C58.63,377.563,58.258,377.19,57.798,377.19z"/>
</g>
<polygon fill="#4C2F83" points="271.372,118.668 280.649,124.702 271.372,130.736 "/>
<path fill="#FFFFFF" d="M311.451,138.353c-7.527-7.527-7.524-19.774,0-27.3c7.529-7.528,19.772-7.528,27.301-0.001
	c7.527,7.528,7.527,19.771-0.002,27.3C331.225,145.876,318.977,145.88,311.451,138.353z M336.271,113.534
	c-6.158-6.158-16.177-6.157-22.338,0.001c-6.156,6.158-6.156,16.177,0,22.335c6.161,6.159,16.178,6.157,22.338,0
	C342.427,129.712,342.43,119.693,336.271,113.534z"/>
<polygon fill="#FFFFFF" points="322.122,118.668 331.399,124.702 322.122,130.736 "/>
<polygon fill="#FED800" points="369.913,113.835 387.816,124.291 369.913,134.744 "/>
<rect x="418.146" y="116.828" fill="#FED800" width="3.661" height="16.424"/>
</svg>
