<?xml version="1.0" encoding="utf-8"?>
<!-- Generator: Adobe Illustrator 16.0.0, SVG Export Plug-In . SVG Version: 6.00 Build 0)  -->
<!DOCTYPE svg PUBLIC "-//W3C//DTD SVG 1.1//EN" "http://www.w3.org/Graphics/SVG/1.1/DTD/svg11.dtd">
<svg version="1.1" id="Layer_1" xmlns="http://www.w3.org/2000/svg" xmlns:xlink="http://www.w3.org/1999/xlink" x="0px" y="0px"
	 width="863.5px" height="700.167px" viewBox="0 0 863.5 700.167" enable-background="new 0 0 863.5 700.167" xml:space="preserve">
<g>
	<polygon fill="#4C2F83" points="363.119,2.716 362.42,2.002 358.717,5.623 355.012,2.002 354.312,2.716 358.713,7.025 
		358.717,7.021 358.719,7.025 	"/>
</g>
<g>
	<polygon fill="#4C2F83" points="356.918,54.772 356.204,55.471 359.825,59.174 356.204,62.879 356.918,63.579 361.228,59.178 
		361.224,59.174 361.228,59.172 	"/>
</g>
<g>
	<polygon points="363.119,21.825 362.42,21.111 358.717,24.732 355.012,21.111 354.312,21.825 358.713,26.135 358.717,26.131 
		358.719,26.135 	"/>
</g>
<g>
	<polygon fill="#D1D3D4" points="363.119,38.411 362.42,37.697 358.717,41.318 355.012,37.697 354.312,38.411 358.713,42.72 
		358.717,42.716 358.719,42.72 	"/>
</g>
<g>
	<path fill="#FFFFFF" d="M317.193,448.876v-12.078l8.379,13.471h0.824v-14.729l1.396-1.389h-4.21l1.396,1.389v10.248l-7.267-11.635
		h-3.336l1.368,1.389v13.336l-1.368,1.395h4.211L317.193,448.876z M304.74,449.394c-3.226,0-4.342-3.855-4.342-7.186
		c0-3.334,1.12-7.189,4.342-7.189c3.251,0,4.372,3.855,4.372,7.189C309.111,445.539,307.991,449.394,304.74,449.394 M298.294,442.21
		c0,4.098,2.323,8.414,6.445,8.414c4.15,0,6.476-4.316,6.476-8.414c0-4.096-2.314-8.414-6.476-8.414
		C300.617,433.796,298.294,438.109,298.294,442.21 M291.008,448.986v-13.637h3.058l1.719,1.725v-2.922h-11.337v2.918l1.749-1.723
		h3.033v13.635l-1.258,1.281h4.316L291.008,448.986z M279.071,442.945v5.189c-0.381,0.387-1.145,1.146-2.647,1.146
		c-3.581,0-5.379-3.605-5.379-7.074c0-3.496,2.267-7.074,5.379-7.074c0.817,0,1.42,0.189,1.967,0.766l1.776,1.744v-2.785
		c-0.956-0.488-1.913-0.93-3.743-0.93c-4.398,0-7.486,3.936-7.486,8.279c0,4.26,3.09,8.277,7.486,8.277
		c2.487,0,3.551-0.605,4.425-1.189v-6.354l1.255-1.281h-4.316L279.071,442.945z M255.174,448.876v-12.078l8.479,13.479l0.732-0.008
		v-14.729l1.39-1.389h-4.206l1.395,1.389v10.248l-7.265-11.635h-3.335l1.369,1.389v13.336l-1.369,1.395h4.211L255.174,448.876z
		 M243.619,434.152l1.284,1.283v13.549l-1.284,1.279h4.339l-1.281-1.279v-13.549l1.281-1.283H243.619L243.619,434.152z
		 M229.303,442.177h6.776v6.809l-1.283,1.279h4.343l-1.285-1.279v-13.549l1.285-1.283h-4.343l1.283,1.283v5.541h-6.776v-5.541
		l1.287-1.283h-4.318l1.257,1.283v13.549l-1.257,1.279h4.318l-1.287-1.279V442.177z M222.037,445.789
		c0-1.586-0.738-2.572-1.502-3.092l-3.28-2.377c-1.175-0.846-1.776-1.936-1.776-2.76c0-1.689,1.449-2.295,2.323-2.295
		c0.461,0,0.79,0.189,1.037,0.189l1.418,1.533l1.503-2.24l-3.197-0.605c-0.218-0.053-0.355-0.082-0.761-0.082
		c-2.816,0-4.1,2.404-4.1,3.963c0,1.227,0.624,2.621,2.073,3.682l3.305,2.379c0.901,0.631,1.146,1.559,1.146,2.352
		c0,1.369-0.844,2.855-2.673,2.855c-0.439,0-0.824-0.084-1.124-0.23l-1.53-1.799l-1.393,2.512l3.086,0.605
		c0,0,0.519,0.105,0.958,0.105C219.496,450.486,222.037,448.847,222.037,445.789 M204.005,437.728l2.213,6.666h-4.509
		L204.005,437.728z M200.123,449.009l1.172-3.414h5.331l1.118,3.414l-1.256,1.26h4.565l-1.286-1.312l-5.025-14.803h-0.819
		l-5.112,14.803l-1.311,1.312h3.878L200.123,449.009z M182.985,450.265l3.688-11.662l3.577,11.662h0.82l4.669-14.828l1.311-1.283
		h-3.876l1.257,1.256l-3.414,11.145l-3.308-11.145l1.259-1.256h-4.564l1.285,1.283l0.327,1.062l-3.09,10.055l-3.303-11.146
		l1.256-1.256h-4.561l1.311,1.283l4.535,14.83H182.985L182.985,450.265z M159.101,440.605l-0.613,0.59l0.068,0.227h1.883
		c-0.295,2.047-0.565,3.814-0.999,6.678c-0.61,4.24-1.133,5.742-1.565,6.105c-0.137,0.133-0.363,0.201-0.565,0.201
		c-0.274,0-0.705-0.201-1.002-0.34c-0.27-0.139-0.497,0.021-0.633,0.158c-0.181,0.205-0.384,0.523-0.384,0.773
		c0,0.451,0.589,0.682,0.976,0.682c0.431,0,1.521-0.359,2.498-1.564c0.77-0.951,1.811-3.158,2.697-8.285
		c0.16-0.953,0.343-1.904,0.73-4.402l2.313-0.229l0.495-0.588h-2.675c0.68-4.203,1.247-5.473,2.224-5.473
		c0.683,0,1.246,0.271,1.747,0.75c0.161,0.16,0.409,0.16,0.634-0.023c0.18-0.158,0.455-0.521,0.455-0.838
		c0.022-0.455-0.592-0.953-1.366-0.953c-1.317,0-2.697,0.771-3.65,1.904c-0.885,1.07-1.474,2.789-1.795,4.635h-1.473V440.605
		L159.101,440.605z M148.891,446.55c0-3.357,1.699-5.176,2.406-5.471c0.2-0.092,0.521-0.18,0.747-0.18
		c1.135,0,1.794,0.854,1.794,2.604c0.045,2.951-1.499,5.631-2.451,5.947c-0.181,0.061-0.476,0.158-0.7,0.158
		C149.412,449.613,148.891,448.255,148.891,446.55 M152.769,440.062c-0.589,0-1.52,0.27-2.45,0.814
		c-1.568,0.932-3.27,3.041-3.27,6.219c0,1.592,0.748,3.361,2.86,3.361c1,0,2.428-0.662,3.383-1.523
		c1.499-1.361,2.379-3.699,2.379-5.723C155.675,441.33,154.675,440.062,152.769,440.062 M126.47,435.437l4.071,7.346v6.203
		l-1.281,1.279h4.341l-1.281-1.279v-6.203l4.147-7.322l1.339-1.309h-3.987l1.259,1.256l-3.389,6.033l-3.225-6.033l1.257-1.256
		h-4.561L126.47,435.437z M117.978,448.986v-13.637h3.059l1.721,1.725v-2.922h-11.339v2.918l1.749-1.723h3.031v13.635l-1.255,1.281
		h4.314L117.978,448.986z M103.359,434.152l1.284,1.283v13.549l-1.284,1.279h4.345l-1.283-1.279v-13.549l1.283-1.283H103.359
		L103.359,434.152z M98.69,445.789c0-1.586-0.742-2.572-1.503-3.092l-3.281-2.377c-1.174-0.846-1.775-1.936-1.775-2.76
		c0-1.689,1.449-2.295,2.322-2.295c0.465,0,0.792,0.189,1.039,0.189l1.419,1.533l1.501-2.24l-3.193-0.605
		c-0.22-0.055-0.354-0.082-0.762-0.082c-2.817,0-4.099,2.4-4.099,3.965c0,1.225,0.626,2.619,2.077,3.684l3.305,2.379
		c0.901,0.627,1.147,1.557,1.147,2.35c0,1.367-0.848,2.855-2.677,2.855c-0.437,0-0.818-0.086-1.119-0.23l-1.532-1.801l-1.394,2.521
		l3.088,0.604c0,0,0.519,0.105,0.954,0.105C96.15,450.486,98.69,448.847,98.69,445.789 M77.981,435.351h1.967
		c1.721,0,3.088,1.475,3.088,3.227c0,1.664-1.395,2.977-3.088,2.977h-1.967V435.351z M77.981,448.986v-6.23h2.434l3.904,7.51h2.677
		l-1.258-1.27l-3.604-6.611c1.802-0.549,3.03-2.24,3.03-3.77c0-2.73-2.539-4.451-5.218-4.451h-4.998l1.257,1.283v13.549l-1.257,1.27
		h4.312L77.981,448.986z M70.743,450.265v-2.947l-1.724,1.744h-4.888v-6.77h3.632l1.286,1.279V439.8l-1.286,1.285h-3.632v-5.74h4.89
		l1.724,1.729v-2.922H61.1l1.257,1.279v13.555l-1.257,1.275h9.643V450.265z M49.843,434.152H45.28l1.313,1.283l4.533,14.828h0.819
		l4.669-14.828l1.312-1.283h-3.881l1.26,1.254l-3.417,11.145l-3.3-11.145L49.843,434.152z M37.333,434.152l1.285,1.283v13.549
		l-1.285,1.279h4.343l-1.283-1.279v-13.549l1.283-1.283H37.333L37.333,434.152z M22.335,448.876v-12.078l8.647,13.471h0.558v-14.729
		l1.394-1.389h-4.207l1.394,1.389v10.248l-7.265-11.635h-3.333l1.366,1.389v13.336l-1.366,1.395h4.205L22.335,448.876z
		 M4.193,445.955c0,2.645,2.243,4.668,5.001,4.668c2.621,0,5.217-1.938,5.217-4.668v-10.414l1.367-1.389h-4.207l1.393,1.389v10.414
		c0,1.854-1.473,3.328-3.333,3.328c-1.884,0-3.552-1.447-3.552-3.328v-10.414l1.397-1.389H2.803l1.391,1.389L4.193,445.955
		L4.193,445.955z"/>
</g>
<path fill="#FFFFFF" d="M88.27,9.119v14.584h10.25L87.08,66.312c0,0-14.011-56.4-14.206-57.193H58.058
	c-0.207,0.773-15.374,57.193-15.374,57.193L32.148,23.703h10.675V9.119H0v14.584h9.49c0,0,16.365,65.506,16.57,66.297h22.987
	c0.204-0.779,10.968-41.715,10.968-41.715c6.83,27.308,6.493,25.58,10.429,41.715h22.998c0.198-0.779,17.431-66.297,17.431-66.297
	h9.413V9.119H88.27z"/>
<polygon fill="#D2D3D4" points="591.551,5.064 583.17,22.69 584.277,22.69 592.658,5.064 "/>
<polygon fill="#919396" points="619.763,3.579 607.651,35.953 608.178,35.953 620.289,3.579 "/>
<polygon fill="#FFFFFF" points="667.909,0 631.271,111.063 632.363,111.063 669,0 "/>
<g>
	<path fill="#FFFFFF" d="M543.088,13.397C543.088,6.01,549.098,0,556.485,0c7.387,0,13.396,6.011,13.396,13.397
		c0,7.389-6.012,13.399-13.396,13.399C549.098,26.797,543.088,20.786,543.088,13.397z M546.104,13.397
		c0,5.727,4.656,10.385,10.396,10.385c5.726,0,10.384-4.658,10.384-10.385c0-5.726-4.658-10.381-10.384-10.381
		C550.76,3.017,546.104,7.673,546.104,13.397z"/>
	
		<rect x="541.141" y="20.111" transform="matrix(-0.7068 -0.7074 0.7074 -0.7068 907.5121 429.8)" fill="#FFFFFF" width="3.363" height="13.456"/>
</g>
<path d="M298.943,21.092c-5.815,0-10.545-4.731-10.545-10.546C288.397,4.73,293.128,0,298.943,0s10.544,4.73,10.544,10.546
	C309.487,16.359,304.758,21.092,298.943,21.092z M298.943,1.917c-4.757,0-8.627,3.872-8.627,8.629c0,4.757,3.87,8.627,8.627,8.627
	c4.758,0,8.627-3.871,8.627-8.627C307.57,5.788,303.701,1.917,298.943,1.917z"/>
<rect x="295.109" y="9.586" width="7.668" height="1.918"/>
<rect x="297.984" y="6.711" width="1.918" height="7.669"/>
<path fill="#FFFFFF" d="M123.479,580.347c-7.785,0-14.118-6.336-14.118-14.121c-0.001-7.783,6.333-14.117,14.118-14.117
	s14.117,6.334,14.117,14.117S131.264,580.347,123.479,580.347z M123.479,554.673c-6.368,0-11.55,5.188-11.55,11.553
	c0,6.369,5.182,11.551,11.55,11.551c6.371,0,11.551-5.184,11.551-11.551C135.03,559.857,129.85,554.673,123.479,554.673z"/>
<rect x="118.346" y="564.943" fill="#FFFFFF" width="10.266" height="2.568"/>
<rect x="122.195" y="561.093" fill="#FFFFFF" width="2.568" height="10.268"/>
<path fill="#FFFFFF" d="M298.943,99.766c-5.815,0-10.545-4.731-10.545-10.546c-0.001-5.816,4.73-10.546,10.545-10.546
	s10.544,4.73,10.544,10.546C309.487,95.033,304.758,99.766,298.943,99.766z M298.943,80.591c-4.757,0-8.627,3.872-8.627,8.629
	c0,4.757,3.87,8.627,8.627,8.627c4.758,0,8.627-3.871,8.627-8.627C307.57,84.462,303.701,80.591,298.943,80.591z"/>
<rect x="295.109" y="88.26" fill="#FFFFFF" width="7.668" height="1.918"/>
<rect x="297.984" y="85.385" fill="#FFFFFF" width="1.918" height="7.669"/>
<rect x="409.982" y="116.828" fill="#FED800" width="3.646" height="16.424"/>
<path fill="#231F20" d="M291.486,43.22c-4.111-4.112-4.111-10.802,0-14.914c4.112-4.112,10.802-4.112,14.917,0
	c4.106,4.112,4.106,10.801-0.002,14.914C302.288,47.33,295.597,47.332,291.486,43.22z M305.044,29.661
	c-3.364-3.364-8.838-3.363-12.202,0c-3.363,3.364-3.364,8.837,0,12.202c3.364,3.365,8.837,3.363,12.2,0
	C308.408,38.499,308.408,33.026,305.044,29.661z"/>
<rect x="295.105" y="34.784" fill="#231F20" width="7.668" height="1.917"/>
<path fill="#FED800" d="M291.486,69.395c-4.111-4.112-4.111-10.802,0-14.914c4.112-4.112,10.802-4.112,14.917,0
	c4.106,4.112,4.106,10.801-0.002,14.914C302.288,73.505,295.597,73.507,291.486,69.395z M305.044,55.836
	c-3.364-3.364-8.838-3.363-12.202,0c-3.363,3.364-3.364,8.837,0,12.202c3.364,3.365,8.837,3.363,12.2,0
	C308.408,64.674,308.408,59.201,305.044,55.836z"/>
<rect x="295.089" y="60.998" fill="#FED800" width="7.669" height="1.918"/>
<path fill="#4C2F83" d="M325.764,21.092c-5.812,0-10.545-4.731-10.545-10.546C315.219,4.73,319.95,0,325.764,0
	c5.815,0,10.546,4.73,10.546,10.546C336.31,16.359,331.579,21.092,325.764,21.092z M325.764,1.917c-4.757,0-8.626,3.872-8.626,8.629
	c0,4.757,3.869,8.627,8.626,8.627c4.766,0,8.629-3.871,8.629-8.627C334.393,5.788,330.523,1.917,325.764,1.917z"/>
<rect x="321.931" y="9.586" fill="#4C2F83" width="7.668" height="1.918"/>
<rect x="324.805" y="6.711" fill="#4C2F83" width="1.918" height="7.669"/>
<path fill="#4C2F83" d="M318.307,43.22c-4.105-4.112-4.104-10.802,0-14.914c4.113-4.112,10.809-4.112,14.915,0
	c4.111,4.112,4.111,10.801-0.002,14.914C329.109,47.33,322.418,47.332,318.307,43.22z M331.866,29.661
	c-3.364-3.364-8.838-3.363-12.202,0c-3.364,3.364-3.364,8.837,0,12.202c3.364,3.365,8.837,3.363,12.201,0
	C335.229,38.499,335.23,33.026,331.866,29.661z"/>
<rect x="321.911" y="34.823" fill="#4C2F83" width="7.668" height="1.917"/>
<g>
	
		<rect x="10.127" y="497.089" transform="matrix(-0.7072 -0.707 0.707 -0.7072 -324.6832 863.3455)" fill="#4C2F83" width="12.603" height="3.629"/>
	
		<rect x="14.689" y="498.992" transform="matrix(-0.7072 -0.707 0.707 -0.7072 -329.0922 874.2928)" fill="#4C2F83" width="3.624" height="12.605"/>
</g>
<path fill="#4C2F83" d="M4.423,576.007c-5.897-5.896-5.895-15.49,0-21.389c5.898-5.896,15.491-5.896,21.389,0
	c5.897,5.895,5.897,15.49-0.001,21.389C19.914,581.902,10.318,581.906,4.423,576.007z M23.868,556.562
	c-4.824-4.822-12.673-4.822-17.5,0.004c-4.824,4.822-4.824,12.672,0,17.496c4.828,4.826,12.673,4.824,17.5,0
	C28.691,569.238,28.693,561.388,23.868,556.562z"/>
<path fill="#4C2F83" d="M5.506,643.593c-6.074-6.076-6.074-15.961,0-22.035c6.078-6.076,15.963-6.076,22.04-0.002
	c6.074,6.078,6.074,15.959-0.004,22.037C21.469,649.667,11.58,649.669,5.506,643.593z M25.542,623.562
	c-4.972-4.973-13.059-4.973-18.032,0c-4.971,4.971-4.971,13.061,0,18.027c4.973,4.975,13.058,4.971,18.03,0
	C30.51,636.621,30.514,628.533,25.542,623.562z"/>
<g>
	
		<rect x="12.962" y="628.71" transform="matrix(-0.7072 -0.707 0.707 -0.7072 -414.9651 1088.4067)" fill="#4C2F83" width="9.854" height="2.836"/>
	
		<rect x="16.44" y="630.11" transform="matrix(-0.7075 -0.7067 0.7067 -0.7075 -418.2747 1096.9695)" fill="#4C2F83" width="2.833" height="9.855"/>
</g>
<path fill="#FFFFFF" d="M53.856,643.593c-6.076-6.076-6.074-15.961,0-22.035c6.078-6.076,15.962-6.076,22.038-0.002
	c6.076,6.078,6.076,15.959-0.002,22.037C69.816,649.667,59.93,649.669,53.856,643.593z M73.891,623.562
	c-4.974-4.973-13.057-4.973-18.034,0c-4.971,4.971-4.971,13.061,0,18.027c4.977,4.975,13.058,4.971,18.034,0
	C78.858,636.621,78.861,628.533,73.891,623.562z"/>
<g>
	
		<rect x="61.251" y="628.705" transform="matrix(-0.707 -0.7072 0.7072 -0.707 -332.6566 1122.423)" fill="#FFFFFF" width="9.857" height="2.832"/>
	
		<rect x="64.841" y="630.148" transform="matrix(-0.7074 -0.7068 0.7068 -0.7074 -335.7747 1131.1331)" fill="#FFFFFF" width="2.832" height="9.848"/>
</g>
<g>
	<polygon fill="#5A5B5D" points="263.494,23.276 263.494,19.049 267.609,19.049 267.609,23.276 271.859,23.276 271.859,17.873 
		265.652,12.167 259.376,17.91 259.376,23.276 	"/>
	<polygon fill="#5A5B5D" points="272.693,17.222 265.619,10.756 258.544,17.222 257.097,15.64 265.619,7.852 274.138,15.64 	"/>
</g>
<g>
	<rect x="138.313" y="236.521" fill="#CD332D" width="25.522" height="25.523"/>
	<path fill="#FFFFFF" d="M149.297,239.016h-1.162l-0.785,3.015l-0.815-3.015h-1.21c0.242,0.711,0.494,1.427,0.737,2.139
		c0.369,1.07,0.599,1.877,0.703,2.429v3.108h1.15v-3.108L149.297,239.016z M152.369,244.841v-2.004c0-0.611-0.105-1.058-0.321-1.348
		c-0.288-0.389-0.691-0.586-1.21-0.586c-0.516,0-0.92,0.197-1.208,0.586c-0.222,0.29-0.325,0.737-0.325,1.348v2.004
		c0,0.608,0.103,1.059,0.325,1.346c0.286,0.39,0.691,0.586,1.208,0.586c0.52,0,0.922-0.196,1.21-0.586
		C152.264,245.898,152.369,245.449,152.369,244.841z M151.332,245.036c0,0.529-0.16,0.794-0.494,0.794
		c-0.335,0-0.495-0.265-0.495-0.794v-2.407c0-0.528,0.16-0.791,0.495-0.791s0.494,0.263,0.494,0.791V245.036z M156.203,246.692
		v-5.72h-1.037v4.372c-0.23,0.325-0.447,0.485-0.655,0.485c-0.139,0-0.22-0.083-0.242-0.242c-0.014-0.034-0.014-0.161-0.014-0.404
		v-4.209h-1.033v4.524c0,0.404,0.036,0.678,0.092,0.848c0.103,0.292,0.334,0.427,0.668,0.427c0.379,0,0.771-0.23,1.184-0.704v0.624
		L156.203,246.692L156.203,246.692z"/>
	<path fill="#FFFFFF" d="M159.562,253.636c0,1.323-0.001,2.729-0.298,4.013c-0.208,0.902-0.946,1.57-1.835,1.669
		c-2.105,0.235-4.236,0.235-6.356,0.235c-2.121,0.002-4.251,0-6.356-0.235c-0.89-0.1-1.628-0.767-1.834-1.669
		c-0.296-1.284-0.296-2.69-0.296-4.013c0-1.323,0.002-2.727,0.299-4.013c0.207-0.902,0.945-1.569,1.834-1.668
		c2.104-0.235,4.235-0.235,6.356-0.235c2.121,0,4.251,0,6.356,0.235c0.889,0.099,1.628,0.766,1.834,1.668
		C159.562,250.91,159.562,252.312,159.562,253.636z"/>
	<path fill="#CD332D" d="M147.428,250.781v-1.068h-3.577v1.068h1.207v6.528h1.141v-6.528H147.428L147.428,250.781z M149.5,257.308
		v-0.617c-0.406,0.468-0.793,0.696-1.171,0.696c-0.332,0-0.559-0.134-0.661-0.419c-0.056-0.172-0.09-0.442-0.09-0.843v-4.477h1.025
		v4.17c0,0.239,0,0.365,0.01,0.398c0.025,0.16,0.104,0.238,0.24,0.238c0.206,0,0.421-0.16,0.648-0.481v-4.326h1.028v5.661H149.5
		L149.5,257.308z M153.399,255.691c0,0.511-0.151,0.763-0.446,0.763c-0.168,0-0.341-0.081-0.511-0.252v-3.45
		c0.171-0.168,0.343-0.25,0.511-0.25c0.295,0,0.446,0.265,0.446,0.774V255.691z M154.425,255.609v-2.254
		c0-0.536-0.035-0.911-0.104-1.139c-0.137-0.423-0.412-0.638-0.82-0.638c-0.377,0-0.729,0.206-1.06,0.614v-2.48h-1.026v7.599h1.026
		v-0.551c0.343,0.424,0.695,0.627,1.06,0.627c0.409,0,0.683-0.217,0.82-0.635C154.391,256.51,154.425,256.132,154.425,255.609z
		 M157.271,253.811h-1.025v-0.523c0-0.523,0.17-0.786,0.515-0.786c0.339,0,0.511,0.264,0.511,0.786L157.271,253.811L157.271,253.811
		z M158.297,255.497v-0.15h-1.047c0,0.414-0.012,0.638-0.022,0.694c-0.059,0.274-0.206,0.414-0.458,0.414
		c-0.352,0-0.523-0.261-0.523-0.785v-1.003h2.051v-1.173c0-0.605-0.103-1.048-0.317-1.333c-0.288-0.388-0.696-0.581-1.21-0.581
		c-0.523,0-0.933,0.193-1.229,0.581c-0.218,0.286-0.316,0.728-0.316,1.333v1.984c0,0.6,0.112,1.048,0.329,1.329
		c0.297,0.388,0.705,0.582,1.242,0.582s0.957-0.203,1.241-0.614c0.125-0.182,0.204-0.388,0.238-0.615
		C158.284,256.055,158.297,255.827,158.297,255.497z"/>
</g>
<g>
	<rect x="276.687" y="236.521" fill="#CC3732" width="25.522" height="25.523"/>
	<path fill="#FFFFFF" d="M289.042,240.523c0.164,0.098,0.342,0.243,0.539,0.434c0.194,0.198,0.38,0.443,0.562,0.731
		c0.177,0.272,0.332,0.596,0.469,0.968c0.112,0.371,0.163,0.807,0.163,1.302c-0.014,0.909-0.216,1.638-0.599,2.184
		c-0.188,0.265-0.389,0.509-0.602,0.732c-0.234,0.225-0.484,0.452-0.749,0.682c-0.152,0.159-0.292,0.336-0.417,0.534
		c-0.152,0.205-0.231,0.445-0.231,0.718c0,0.266,0.081,0.484,0.235,0.658c0.13,0.164,0.26,0.31,0.382,0.434l0.862,0.705
		c0.535,0.441,1.005,0.921,1.409,1.453c0.38,0.536,0.578,1.24,0.597,2.107c0,1.231-0.545,2.324-1.633,3.275
		c-1.13,0.984-2.758,1.492-4.886,1.525c-1.781-0.018-3.109-0.396-3.989-1.137c-0.885-0.692-1.329-1.521-1.329-2.488
		c0-0.468,0.143-0.993,0.434-1.571c0.278-0.577,0.785-1.084,1.519-1.521c0.823-0.47,1.688-0.784,2.594-0.941
		c0.898-0.131,1.644-0.206,2.236-0.223c-0.184-0.241-0.346-0.499-0.49-0.774c-0.164-0.267-0.247-0.587-0.247-0.958
		c0-0.225,0.028-0.413,0.092-0.561c0.056-0.16,0.108-0.303,0.155-0.437c-0.289,0.033-0.559,0.049-0.813,0.049
		c-1.354-0.016-2.385-0.441-3.095-1.276c-0.74-0.778-1.115-1.682-1.115-2.716c0-1.248,0.526-2.381,1.579-3.398
		c0.723-0.596,1.474-0.984,2.253-1.167c0.774-0.158,1.497-0.235,2.167-0.235h5.084l-1.57,0.918h-1.57v-0.005L289.042,240.523
		L289.042,240.523z M290.022,255.155c0-0.644-0.21-1.209-0.632-1.685c-0.446-0.454-1.141-1.013-2.088-1.676
		c-0.163-0.019-0.352-0.023-0.571-0.023c-0.126-0.017-0.458,0-0.993,0.049c-0.525,0.074-1.065,0.195-1.615,0.36
		c-0.126,0.049-0.307,0.125-0.546,0.224c-0.234,0.108-0.473,0.261-0.717,0.458c-0.234,0.207-0.433,0.463-0.594,0.769
		c-0.187,0.323-0.279,0.711-0.279,1.166c0,0.894,0.404,1.63,1.213,2.209c0.77,0.578,1.821,0.876,3.158,0.892
		c1.198-0.018,2.113-0.283,2.743-0.794C289.715,256.598,290.022,255.949,290.022,255.155z M286.479,247.704
		c0.669-0.024,1.227-0.267,1.677-0.722c0.216-0.323,0.353-0.654,0.415-0.993c0.036-0.344,0.056-0.626,0.056-0.858
		c0-1.002-0.256-2.012-0.772-3.031c-0.238-0.487-0.557-0.886-0.95-1.193c-0.401-0.289-0.862-0.442-1.382-0.459
		c-0.689,0.019-1.262,0.296-1.719,0.834c-0.382,0.562-0.566,1.193-0.552,1.889c0,0.92,0.269,1.875,0.807,2.871
		c0.265,0.463,0.597,0.856,1.009,1.18C285.479,247.544,285.949,247.704,286.479,247.704z"/>
	<polygon fill="#FFFFFF" points="299.066,242.382 296.399,242.382 296.399,239.714 295.106,239.714 295.106,242.382 
		292.439,242.382 292.439,243.674 295.106,243.674 295.106,246.342 296.399,246.342 296.399,243.674 299.066,243.674 	"/>
</g>
<g>
	<rect x="230.623" y="236.583" fill="#00B386" width="25.402" height="25.401"/>
	<path fill="#FFFFFF" d="M245.969,244.784c0-1.182,2.323-1.794,2.323,0.204c-0.007,1.096-0.155,2.108-0.391,3.035h2.415
		c0.184-1.119,0.176-2.223,0.176-3.524c0-3.666-6.765-4.279-6.765,0.367c0,3.265,1.536,4.98,3.145,5.884
		c-1.34,2.629-3.145,4.062-3.145,4.062c-5.052-4.117-4.564-11.085-4.564-11.085h-2.201c0.042,9.412,5.014,12.714,5.625,13.204
		c0.611,0.488,0.733,0.45,1.467,0.408c0.732-0.041,2.402-1.713,4.44-4.891c0.198-0.307,0.374-0.601,0.534-0.886
		c0.852,0.191,1.463,0.196,1.463,0.196v-1.999C246.213,249.347,245.969,245.679,245.969,244.784z"/>
</g>
<g>
	<rect x="322.811" y="236.521" fill="#32669A" width="25.521" height="25.523"/>
	<polygon fill="#231F20" points="322.811,262.045 322.811,262.07 348.359,262.07 348.359,236.497 322.785,236.497 322.785,262.07 
		322.811,262.07 322.811,262.045 322.836,262.045 322.836,236.546 348.309,236.546 348.309,262.019 322.811,262.019 
		322.811,262.045 322.836,262.045 	"/>
	<path fill="#FFFFFF" d="M329.326,240.879h12.495c1.187,0,2.156,0.971,2.156,2.158v12.495c0,1.187-0.971,2.156-2.156,2.156h-12.495
		c-1.188,0-2.158-0.97-2.158-2.156v-12.495C327.167,241.85,328.139,240.879,329.326,240.879z M339.414,242.746
		c-0.415,0-0.757,0.343-0.757,0.758v1.81c0,0.416,0.343,0.758,0.757,0.758h1.9c0.413,0,0.756-0.342,0.756-0.758v-1.81
		c0-0.415-0.346-0.758-0.756-0.758H339.414z M342.078,247.987h-1.479c0.142,0.458,0.218,0.941,0.218,1.443
		c0,2.796-2.342,5.062-5.229,5.062c-2.881,0-5.222-2.266-5.222-5.062c0-0.502,0.076-0.985,0.217-1.443h-1.544v7.101
		c0,0.369,0.3,0.667,0.668,0.667h11.708c0.368,0,0.668-0.298,0.668-0.667v-7.101H342.078L342.078,247.987z M335.588,245.977
		c-1.861,0-3.375,1.463-3.375,3.271c0,1.806,1.511,3.271,3.375,3.271c1.866,0,3.377-1.464,3.377-3.271
		S337.454,245.977,335.588,245.977z"/>
</g>
<g>
	<rect x="92.188" y="236.521" fill="#CA2128" width="25.523" height="25.523"/>
	<path fill="#FFFFFF" d="M104.95,240.053c-5.098,0-9.232,4.134-9.232,9.23c0,3.778,2.273,7.027,5.526,8.455
		c-0.026-0.646-0.005-1.419,0.161-2.12c0.178-0.75,1.188-5.032,1.188-5.032s-0.295-0.588-0.295-1.46c0-1.366,0.794-2.39,1.782-2.39
		c0.839,0,1.245,0.632,1.245,1.387c0,0.844-0.539,2.106-0.815,3.275c-0.231,0.98,0.492,1.778,1.456,1.778
		c1.75,0,2.928-2.246,2.928-4.908c0-2.022-1.362-3.537-3.841-3.537c-2.799,0-4.544,2.088-4.544,4.421
		c0,0.804,0.238,1.371,0.609,1.811c0.171,0.2,0.195,0.283,0.132,0.514c-0.043,0.17-0.145,0.58-0.188,0.74
		c-0.062,0.235-0.25,0.318-0.462,0.233c-1.291-0.525-1.891-1.938-1.891-3.525c0-2.62,2.211-5.767,6.599-5.767
		c3.523,0,5.845,2.55,5.845,5.29c0,3.622-2.015,6.326-4.982,6.326c-0.997,0-1.934-0.539-2.255-1.15c0,0-0.536,2.126-0.649,2.539
		c-0.196,0.709-0.579,1.424-0.93,1.977c0.831,0.245,1.708,0.378,2.617,0.378c5.098,0,9.23-4.132,9.23-9.23
		C114.181,244.191,110.047,240.053,104.95,240.053z"/>
</g>
<g>
	<rect y="236.583" fill="#3B5999" width="25.401" height="25.401"/>
	<path fill="#FFFFFF" d="M22.152,251.79l0.502-3.887h-3.85v-2.482c0-1.125,0.313-1.895,1.927-1.895l2.058-0.001v-3.478
		c-0.355-0.047-1.577-0.153-3-0.153c-2.969,0-5,1.812-5,5.14v2.867h-3.358v3.888h3.358v9.977h4.015v-9.977L22.152,251.79
		L22.152,251.79z"/>
</g>
<g>
	<rect x="184.437" y="236.522" fill="#017BB6" width="25.523" height="25.522"/>
	<path fill="#FFFFFF" d="M188.804,246.376h3.6v11.57h-3.6V246.376z M190.607,240.624c1.151,0,2.084,0.935,2.084,2.084
		c0,1.151-0.933,2.085-2.084,2.085c-1.155,0-2.087-0.934-2.087-2.085C188.519,241.559,189.452,240.624,190.607,240.624"/>
	<path fill="#FFFFFF" d="M194.663,246.376h3.448v1.581h0.049c0.48-0.911,1.654-1.868,3.404-1.868c3.64,0,4.314,2.396,4.314,5.51
		v6.346h-3.594v-5.625c0-1.343-0.027-3.069-1.871-3.069c-1.872,0-2.157,1.462-2.157,2.969v5.724h-3.593V246.376L194.663,246.376
		L194.663,246.376z"/>
</g>
<g>
	<rect x="46.063" y="236.521" fill="#2AA8E0" width="25.523" height="25.523"/>
	<path fill="#FFFFFF" d="M67.332,244.007c-0.626,0.276-1.299,0.465-2.004,0.549c0.721-0.432,1.275-1.115,1.535-1.932
		c-0.673,0.399-1.42,0.692-2.216,0.849c-0.638-0.679-1.545-1.102-2.549-1.102c-1.928,0-3.491,1.564-3.491,3.49
		c0,0.274,0.031,0.54,0.09,0.795c-2.901-0.146-5.473-1.535-7.195-3.648c-0.3,0.518-0.472,1.116-0.472,1.756
		c0,1.21,0.616,2.28,1.552,2.905c-0.572-0.017-1.109-0.176-1.581-0.437v0.044c0,1.691,1.203,3.103,2.8,3.423
		c-0.292,0.081-0.603,0.124-0.92,0.124c-0.225,0-0.444-0.021-0.657-0.062c0.445,1.388,1.733,2.396,3.261,2.425
		c-1.193,0.936-2.699,1.495-4.335,1.495c-0.282,0-0.559-0.018-0.832-0.05c1.544,0.991,3.379,1.57,5.352,1.57
		c6.42,0,9.932-5.321,9.932-9.933c0-0.151-0.004-0.303-0.009-0.452C66.272,245.321,66.863,244.706,67.332,244.007z"/>
</g>
<g>
	<path fill="#FFFFFF" d="M151.381,206.014c0.334,0,0.494-0.265,0.494-0.793v-2.407c0-0.529-0.161-0.793-0.494-0.793
		c-0.335,0-0.496,0.264-0.496,0.793v2.407C150.886,205.749,151.046,206.014,151.381,206.014z"/>
	<path fill="#FFFFFF" d="M138.856,222.229h25.522v-25.523h-25.522V222.229z M153.765,201.155h1.034v4.211
		c0,0.243,0,0.37,0.013,0.404c0.023,0.161,0.104,0.242,0.243,0.242c0.207,0,0.425-0.161,0.655-0.485v-4.372h1.038v5.721h-1.038
		v-0.624c-0.414,0.473-0.807,0.704-1.185,0.704c-0.333,0-0.563-0.136-0.667-0.427c-0.057-0.172-0.093-0.447-0.093-0.85V201.155
		L153.765,201.155z M149.85,203.021c0-0.611,0.103-1.058,0.324-1.348c0.287-0.39,0.691-0.586,1.208-0.586
		c0.519,0,0.921,0.196,1.21,0.586c0.216,0.29,0.322,0.737,0.322,1.348v2.004c0,0.608-0.106,1.059-0.322,1.346
		c-0.288,0.39-0.691,0.586-1.21,0.586c-0.517,0-0.92-0.196-1.208-0.586c-0.221-0.287-0.324-0.738-0.324-1.346V203.021z
		 M147.077,199.199l0.815,3.015l0.786-3.015h1.161l-1.383,4.568v3.108h-1.149v-3.108c-0.104-0.552-0.335-1.358-0.703-2.43
		c-0.242-0.712-0.495-1.427-0.737-2.139L147.077,199.199L147.077,199.199z M143.429,209.807c0.206-0.902,0.944-1.568,1.833-1.667
		c2.105-0.235,4.236-0.236,6.357-0.235c2.12-0.001,4.25,0,6.356,0.235c0.888,0.099,1.627,0.766,1.834,1.667
		c0.295,1.287,0.294,2.688,0.294,4.014c0,1.323-0.001,2.727-0.297,4.012c-0.208,0.902-0.946,1.569-1.835,1.668
		c-2.106,0.235-4.237,0.235-6.356,0.235c-2.122,0-4.251,0-6.357-0.235c-0.889-0.1-1.627-0.766-1.833-1.668
		c-0.297-1.285-0.297-2.689-0.297-4.012C143.129,212.496,143.133,211.094,143.429,209.807z"/>
	<path fill="#FFFFFF" d="M148.872,217.571c0.377,0,0.765-0.228,1.172-0.696v0.618h1.028v-5.662h-1.028v4.327
		c-0.227,0.321-0.443,0.48-0.648,0.48c-0.136,0-0.215-0.082-0.24-0.239c-0.01-0.034-0.01-0.159-0.01-0.399v-4.168h-1.025v4.478
		c0,0.4,0.035,0.669,0.09,0.841C148.313,217.436,148.541,217.571,148.872,217.571z"/>
	<path fill="#FFFFFF" d="M152.984,216.944c0.343,0.423,0.695,0.627,1.06,0.627c0.41,0,0.684-0.215,0.82-0.636
		c0.068-0.239,0.104-0.617,0.104-1.14v-2.255c0-0.535-0.036-0.91-0.104-1.138c-0.137-0.424-0.412-0.639-0.82-0.639
		c-0.377,0-0.728,0.206-1.06,0.614v-2.481h-1.026v7.599h1.026V216.944z M152.984,212.935c0.171-0.169,0.343-0.25,0.511-0.25
		c0.296,0,0.447,0.263,0.447,0.773v2.416c0,0.512-0.151,0.764-0.447,0.764c-0.167,0-0.34-0.082-0.511-0.252V212.935z"/>
	<polygon fill="#FFFFFF" points="145.601,217.493 146.741,217.493 146.741,210.964 147.971,210.964 147.971,209.894 
		144.394,209.894 144.394,210.964 145.601,210.964 	"/>
	<path fill="#FFFFFF" d="M157.338,217.571c0.536,0,0.957-0.203,1.241-0.613c0.124-0.182,0.204-0.388,0.238-0.615
		c0.01-0.103,0.022-0.332,0.022-0.662v-0.15h-1.048c0,0.413-0.012,0.638-0.021,0.694c-0.059,0.274-0.206,0.413-0.458,0.413
		c-0.352,0-0.523-0.262-0.523-0.786v-1.002h2.051v-1.173c0-0.606-0.103-1.048-0.318-1.334c-0.287-0.389-0.695-0.581-1.209-0.581
		c-0.523,0-0.934,0.192-1.229,0.581c-0.218,0.286-0.316,0.728-0.316,1.334v1.983c0,0.601,0.111,1.048,0.328,1.33
		C156.392,217.377,156.8,217.571,157.338,217.571z M156.789,213.471c0-0.523,0.171-0.786,0.515-0.786
		c0.339,0,0.511,0.263,0.511,0.786v0.524h-1.025L156.789,213.471L156.789,213.471z"/>
</g>
<g>
	<path fill="#FFFFFF" d="M289.109,206.172c0.036-0.341,0.056-0.625,0.056-0.858c0-1.002-0.256-2.012-0.768-3.032
		c-0.242-0.488-0.561-0.886-0.953-1.192c-0.401-0.289-0.862-0.443-1.382-0.459c-0.689,0.018-1.262,0.295-1.719,0.833
		c-0.382,0.563-0.567,1.193-0.553,1.889c0,0.92,0.269,1.875,0.807,2.871c0.265,0.464,0.597,0.856,1.009,1.179
		c0.416,0.324,0.885,0.486,1.413,0.486c0.669-0.025,1.227-0.267,1.677-0.722C288.911,206.843,289.048,206.512,289.109,206.172z"/>
	<path fill="#FFFFFF" d="M283.742,217.188c0.771,0.578,1.821,0.876,3.157,0.893c1.198-0.017,2.113-0.282,2.744-0.793
		c0.616-0.505,0.923-1.154,0.923-1.948c0-0.646-0.211-1.208-0.632-1.687c-0.446-0.454-1.142-1.012-2.089-1.675
		c-0.162-0.017-0.349-0.024-0.57-0.024c-0.127-0.016-0.458,0-0.993,0.05c-0.525,0.074-1.065,0.195-1.616,0.36
		c-0.126,0.049-0.307,0.125-0.545,0.224c-0.234,0.107-0.474,0.26-0.718,0.458c-0.234,0.206-0.433,0.462-0.594,0.769
		c-0.188,0.323-0.279,0.711-0.279,1.165C282.528,215.874,282.933,216.609,283.742,217.188z"/>
	<path fill="#FFFFFF" d="M277.229,222.229h25.523v-25.523h-25.523V222.229z M292.982,202.565h2.663v-2.667h1.292v2.667h2.667v1.292
		h-2.667v2.668h-1.292v-2.668h-2.663V202.565z M280.805,213.947c0.279-0.577,0.785-1.084,1.519-1.522
		c0.823-0.47,1.688-0.784,2.594-0.941c0.898-0.131,1.644-0.205,2.236-0.223c-0.183-0.241-0.343-0.499-0.487-0.773
		c-0.167-0.266-0.25-0.586-0.25-0.959c0-0.224,0.027-0.413,0.091-0.561c0.057-0.16,0.108-0.304,0.159-0.437
		c-0.289,0.033-0.561,0.049-0.816,0.049c-1.353-0.017-2.386-0.443-3.095-1.277c-0.74-0.778-1.116-1.683-1.116-2.716
		c0-1.249,0.526-2.38,1.58-3.398c0.723-0.595,1.473-0.982,2.253-1.166c0.773-0.157,1.496-0.236,2.17-0.236h5.082l-1.57,0.917h-1.57
		c0.163,0.099,0.342,0.244,0.538,0.433c0.195,0.199,0.38,0.444,0.562,0.732c0.176,0.272,0.332,0.595,0.468,0.967
		c0.112,0.372,0.164,0.806,0.164,1.302c-0.014,0.909-0.216,1.637-0.599,2.183c-0.19,0.266-0.39,0.509-0.602,0.733
		c-0.235,0.223-0.485,0.451-0.75,0.682c-0.151,0.157-0.291,0.334-0.417,0.533c-0.151,0.207-0.23,0.446-0.23,0.719
		c0,0.266,0.081,0.484,0.234,0.658c0.13,0.166,0.26,0.31,0.384,0.434l0.86,0.706c0.536,0.439,1.006,0.921,1.409,1.451
		c0.381,0.539,0.58,1.24,0.597,2.108c0,1.231-0.545,2.323-1.634,3.275c-1.127,0.984-2.758,1.492-4.886,1.525
		c-1.781-0.017-3.109-0.396-3.988-1.138c-0.885-0.694-1.33-1.522-1.33-2.488C280.372,215.05,280.516,214.525,280.805,213.947z"/>
</g>
<path fill="#FFFFFF" d="M231.166,222.106h25.401v-25.4h-25.401V222.106L231.166,222.106z M239.708,203.845
	c0,0-0.489,6.969,4.564,11.085c0,0,1.805-1.432,3.145-4.06c-1.607-0.904-3.145-2.621-3.145-5.884c0-4.646,6.765-4.035,6.765-0.368
	c0,1.301,0.008,2.406-0.175,3.525h-2.416c0.235-0.927,0.383-1.939,0.39-3.035c0-1.997-2.324-1.386-2.324-0.204
	c0,0.897,0.244,4.564,4.524,4.972v1.998c0,0-0.61-0.003-1.463-0.195c-0.161,0.286-0.337,0.581-0.534,0.887
	c-2.039,3.177-3.708,4.848-4.439,4.89c-0.736,0.041-0.856,0.082-1.468-0.408c-0.611-0.49-5.583-3.79-5.624-13.204L239.708,203.845
	L239.708,203.845z"/>
<g>
	<path fill="#FFFFFF" d="M348.852,196.706h-25.476v25.473h25.476V196.706z M344.521,215.69c0,1.187-0.972,2.156-2.157,2.156h-12.495
		c-1.188,0-2.158-0.97-2.158-2.156v-12.495c0-1.187,0.972-2.158,2.158-2.158h12.495c1.187,0,2.157,0.971,2.157,2.158V215.69z"/>
	<path fill="#FFFFFF" d="M339.957,206.23h1.9c0.417,0,0.757-0.341,0.757-0.757v-1.811c0-0.416-0.346-0.758-0.757-0.758h-1.9
		c-0.415,0-0.757,0.342-0.757,0.758v1.811C339.199,205.89,339.539,206.23,339.957,206.23z"/>
	<path fill="#FFFFFF" d="M341.357,209.59c0,2.794-2.342,5.062-5.228,5.062c-2.882,0-5.222-2.268-5.222-5.062
		c0-0.502,0.076-0.985,0.216-1.444h-1.543v7.101c0,0.368,0.3,0.667,0.668,0.667h11.707c0.368,0,0.667-0.299,0.667-0.667v-7.101
		h-1.479C341.281,208.604,341.357,209.087,341.357,209.59z"/>
	<ellipse fill="#FFFFFF" cx="336.132" cy="209.407" rx="3.377" ry="3.271"/>
</g>
<rect x="367.146" y="236.521" fill="#32506D" width="25.52" height="25.523"/>
<path fill="#FFFFFF" d="M92.731,222.229h25.523v-25.523H92.731V222.229z M105.492,200.236c5.098,0,9.231,4.133,9.231,9.231
	c0,5.098-4.133,9.231-9.231,9.231c-0.909,0-1.786-0.134-2.616-0.378c0.35-0.556,0.734-1.267,0.93-1.978
	c0.113-0.411,0.649-2.538,0.649-2.538c0.321,0.611,1.258,1.15,2.255,1.15c2.967,0,4.982-2.705,4.982-6.327
	c0-2.739-2.321-5.289-5.845-5.289c-4.387,0-6.598,3.146-6.598,5.767c0,1.588,0.601,3,1.891,3.526c0.211,0.087,0.4,0.003,0.461-0.232
	c0.044-0.162,0.145-0.569,0.188-0.74c0.063-0.231,0.039-0.312-0.132-0.514c-0.372-0.439-0.609-1.007-0.609-1.812
	c0-2.332,1.745-4.42,4.544-4.42c2.478,0,3.841,1.514,3.841,3.537c0,2.663-1.178,4.908-2.927,4.908c-0.964,0-1.688-0.798-1.456-1.777
	c0.276-1.169,0.814-2.432,0.814-3.276c0-0.755-0.405-1.386-1.245-1.386c-0.988,0-1.781,1.022-1.781,2.389
	c0,0.871,0.295,1.46,0.295,1.46s-1.01,4.281-1.188,5.032c-0.165,0.7-0.186,1.473-0.161,2.119c-3.253-1.427-5.525-4.676-5.525-8.455
	C96.26,204.368,100.395,200.236,105.492,200.236z"/>
<path fill="#FFFFFF" d="M0.542,222.106h25.401v-25.4H0.542V222.106z M11.975,208.024h3.358v-2.867c0-3.328,2.031-5.14,5-5.14
	c1.423,0,2.645,0.106,3,0.153v3.478h-2.058c-1.614,0-1.927,0.768-1.927,1.894v2.482h3.85l-0.502,3.888h-3.348v9.976h-4.015v-9.976
	h-3.358V208.024L11.975,208.024z"/>
<path fill="#FFFFFF" d="M184.979,222.228h25.523v-25.522h-25.523V222.228z M192.949,218.127h-3.601v-11.569h3.601V218.127z
	 M195.207,206.559h3.448v1.582h0.049c0.48-0.911,1.653-1.869,3.405-1.869c3.64,0,4.314,2.395,4.314,5.51v6.345h-3.595v-5.624
	c0-1.344-0.026-3.069-1.871-3.069c-1.871,0-2.156,1.461-2.156,2.969v5.724h-3.593L195.207,206.559L195.207,206.559L195.207,206.559z
	 M191.149,200.807c1.151,0,2.085,0.935,2.085,2.084c0,1.151-0.934,2.085-2.085,2.085c-1.155,0-2.087-0.935-2.087-2.085
	C189.062,201.743,189.994,200.807,191.149,200.807z"/>
<path fill="#FFFFFF" d="M46.606,222.23H72.13v-25.524H46.606V222.23z M52.767,210.943c0.213,0.042,0.432,0.063,0.657,0.063
	c0.318,0,0.627-0.043,0.92-0.123c-1.597-0.32-2.8-1.731-2.8-3.423v-0.044c0.471,0.261,1.009,0.419,1.581,0.437
	c-0.936-0.625-1.552-1.695-1.552-2.905c0-0.64,0.173-1.239,0.473-1.756c1.722,2.113,4.293,3.503,7.194,3.648
	c-0.059-0.255-0.09-0.521-0.09-0.795c0-1.927,1.562-3.491,3.491-3.491c1.003,0,1.911,0.424,2.549,1.103
	c0.795-0.157,1.542-0.448,2.216-0.848c-0.26,0.815-0.813,1.499-1.535,1.931c0.706-0.084,1.379-0.271,2.004-0.55
	c-0.469,0.701-1.061,1.316-1.741,1.807c0.005,0.151,0.009,0.301,0.009,0.453c0,4.613-3.512,9.931-9.932,9.931
	c-1.973,0-3.808-0.578-5.352-1.568c0.273,0.032,0.55,0.05,0.832,0.05c1.636,0,3.142-0.561,4.335-1.494
	C54.5,213.339,53.211,212.33,52.767,210.943z"/>
<path fill="#FFFFFF" d="M500.939,37.808l7.979-7.979l2.28,2.351l-5.735,5.664l5.735,5.699l-2.28,2.28L500.939,37.808z"/>
<path fill="#FFFFFF" d="M478.056,45.822l-2.271-2.28l5.729-5.699l-5.729-5.664l2.271-2.351l7.979,7.979L478.056,45.822z"/>
<path fill="#FED800" d="M401.248,35.143c0,2.517-0.891,4.667-2.672,6.447c-1.781,1.781-3.937,2.672-6.447,2.672
	c-2.518,0-4.667-0.891-6.447-2.672c-1.775-1.781-2.672-3.93-2.672-6.447s0.896-4.667,2.672-6.448
	c1.78-1.781,3.936-2.671,6.447-2.671c2.521,0,4.666,0.891,6.447,2.671C400.357,30.477,401.248,32.626,401.248,35.143z
	 M397.614,35.143c0-1.52-0.534-2.814-1.604-3.883c-1.063-1.069-2.357-1.603-3.883-1.603c-1.521,0-2.812,0.534-3.883,1.603
	c-1.069,1.069-1.604,2.363-1.604,3.883s0.534,2.814,1.604,3.883c1.068,1.068,2.362,1.603,3.883,1.603
	c1.521,0,2.813-0.534,3.883-1.603C397.08,37.957,397.614,36.663,397.614,35.143z M394.872,35.143c0,0.76-0.271,1.407-0.802,1.941
	c-0.534,0.534-1.188,0.801-1.941,0.801s-1.407-0.267-1.941-0.801c-0.528-0.535-0.802-1.182-0.802-1.941
	c0-0.76,0.271-1.407,0.802-1.941c0.534-0.534,1.188-0.802,1.941-0.802s1.407,0.268,1.941,0.802
	C394.604,33.736,394.872,34.383,394.872,35.143z"/>
<path fill="#FFFFFF" d="M401.248,9.119c0,2.517-0.891,4.667-2.672,6.448c-1.781,1.781-3.937,2.671-6.447,2.671
	c-2.518,0-4.667-0.891-6.447-2.671c-1.775-1.781-2.672-3.931-2.672-6.448c0-2.517,0.896-4.667,2.672-6.447
	C387.462,0.891,389.612,0,392.129,0c2.521,0,4.666,0.891,6.447,2.672C400.357,4.453,401.248,6.602,401.248,9.119z M397.614,9.119
	c0-1.52-0.534-2.814-1.604-3.883c-1.063-1.068-2.357-1.603-3.883-1.603c-1.521,0-2.812,0.534-3.883,1.603
	c-1.068,1.069-1.604,2.363-1.604,3.883s0.534,2.814,1.604,3.883s2.362,1.603,3.883,1.603c1.521,0,2.813-0.534,3.883-1.603
	C397.08,11.933,397.614,10.639,397.614,9.119z"/>
<path fill="#4C2F83" d="M426.126,35.143c0,2.517-0.891,4.667-2.672,6.447c-1.781,1.781-3.931,2.672-6.447,2.672
	c-2.518,0-4.667-0.891-6.446-2.672c-1.771-1.781-2.673-3.93-2.673-6.447s0.896-4.667,2.673-6.448
	c1.779-1.781,3.938-2.671,6.446-2.671c2.521,0,4.666,0.891,6.447,2.671C425.235,30.477,426.126,32.626,426.126,35.143z
	 M422.492,35.143c0-1.52-0.534-2.814-1.604-3.883c-1.062-1.069-2.354-1.603-3.883-1.603c-1.521,0-2.812,0.534-3.883,1.603
	c-1.069,1.069-1.604,2.363-1.604,3.883s0.534,2.814,1.604,3.883c1.068,1.068,2.362,1.603,3.883,1.603
	c1.521,0,2.813-0.534,3.883-1.603C421.958,37.957,422.492,36.663,422.492,35.143z M419.75,35.143c0,0.76-0.268,1.407-0.802,1.941
	s-1.188,0.801-1.941,0.801s-1.407-0.267-1.938-0.801c-0.534-0.535-0.812-1.182-0.812-1.941c0-0.76,0.271-1.407,0.812-1.941
	c0.521-0.534,1.182-0.802,1.938-0.802s1.407,0.268,1.941,0.802C419.482,33.736,419.75,34.383,419.75,35.143z"/>
<path fill="#FFFFFF" d="M426.126,9.119c0,2.517-0.891,4.667-2.672,6.448c-1.781,1.781-3.931,2.671-6.447,2.671
	c-2.518,0-4.667-0.891-6.446-2.671c-1.771-1.781-2.673-3.931-2.673-6.448c0-2.517,0.896-4.667,2.673-6.447
	C412.34,0.891,414.489,0,417.007,0c2.521,0,4.666,0.891,6.447,2.672C425.235,4.453,426.126,6.602,426.126,9.119z M422.492,9.119
	c0-1.52-0.534-2.814-1.604-3.883c-1.062-1.068-2.354-1.603-3.883-1.603c-1.521,0-2.812,0.534-3.883,1.603
	c-1.068,1.069-1.604,2.363-1.604,3.883s0.534,2.814,1.604,3.883s2.362,1.603,3.883,1.603c1.521,0,2.813-0.534,3.883-1.603
	C421.958,11.933,422.492,10.639,422.492,9.119z"/>
<path fill="#4C2F83" d="M456.76,1.335c0.896,0.891,1.336,1.965,1.336,3.224v9.119c0,1.259-0.438,2.333-1.336,3.224
	c-0.891,0.89-1.965,1.335-3.225,1.335h-9.117c-1.26,0-2.334-0.445-3.225-1.335c-0.896-0.891-1.336-1.965-1.336-3.224V4.56
	c0-1.259,0.438-2.333,1.336-3.224C442.084,0.445,443.158,0,444.418,0h9.117C454.795,0,455.869,0.445,456.76,1.335z M454.854,6.768
	l-0.961-0.962c-0.143-0.166-0.297-0.166-0.463,0l-5.094,5.058c-0.166,0.167-0.334,0.167-0.5,0l-2.207-2.28
	c-0.072-0.047-0.154-0.071-0.25-0.071s-0.178,0.024-0.25,0.071l-0.996,0.891c-0.072,0.071-0.104,0.154-0.104,0.25
	c0,0.095,0.021,0.178,0.104,0.249l2.244,2.387c0.047,0.024,0.1,0.065,0.16,0.125c0.059,0.059,0.125,0.125,0.195,0.196
	c0.062,0.071,0.104,0.119,0.143,0.143l0.961,0.997c0.166,0.143,0.334,0.143,0.5,0l6.518-6.554
	C455.02,7.101,455.02,6.934,454.854,6.768z"/>
<path fill="#BCBEC0" d="M444.162,26.205h9.119c1.258,0,2.332,0.445,3.223,1.335s1.336,1.965,1.336,3.224v9.119
	c0,1.259-0.445,2.333-1.336,3.224s-1.965,1.336-3.223,1.336h-9.119c-1.26,0-2.334-0.445-3.229-1.336
	c-0.891-0.89-1.336-1.965-1.336-3.224v-9.119c0-1.258,0.445-2.333,1.336-3.224C441.828,26.649,442.902,26.205,444.162,26.205z"/>
<path fill="#FFFFFF" d="M517.376,4.39c0.095,0.119,0.143,0.255,0.143,0.41c0,0.155-0.048,0.291-0.143,0.41l-10.899,10.9
	c-0.262,0.261-0.521,0.261-0.812,0l-1.604-1.639c-0.164-0.166-0.438-0.439-0.812-0.819l-3.74-3.918
	c-0.095-0.119-0.145-0.261-0.145-0.428c0-0.143,0.05-0.273,0.145-0.392l1.646-1.46c0.111-0.119,0.27-0.178,0.436-0.178
	c0.146,0,0.271,0.059,0.396,0.178l3.7,3.776c0.285,0.261,0.562,0.261,0.82,0l8.479-8.442c0.111-0.119,0.258-0.178,0.402-0.178
	c0.154,0,0.291,0.06,0.41,0.178L517.376,4.39z"/>
<g>
	<polygon fill="#FFFFFF" points="489.883,70.322 489.887,70.317 476.974,56.712 474.071,59.465 484.369,70.322 474.071,81.18 
		476.974,83.932 489.887,70.327 	"/>
</g>
<g>
	<polygon fill="#FFFFFF" points="498.875,70.322 498.871,70.317 511.784,56.712 514.688,59.465 504.389,70.322 514.688,81.18 
		511.784,83.932 498.871,70.327 	"/>
</g>
<g>
	<path fill="#FFFFFF" d="M99.167,321.841c3.193,0,5.791-3.292,5.791-7.337s-2.598-7.337-5.791-7.337
		c-3.194,0-5.793,3.292-5.793,7.337S95.973,321.841,99.167,321.841z M99.167,308.71c2.301,0,4.247,2.652,4.247,5.793
		s-1.946,5.792-4.247,5.792c-2.303,0-4.248-2.651-4.248-5.792S96.864,308.71,99.167,308.71z"/>
	<path fill="#FFFFFF" d="M88.394,323.142l-1.545,4.643c-0.078,0.229-0.038,0.484,0.106,0.688c0.145,0.202,0.378,0.321,0.626,0.321
		h23.168c0.249,0,0.481-0.119,0.627-0.321c0.145-0.202,0.184-0.46,0.106-0.688l-1.545-4.643c-0.081-0.234-0.274-0.43-0.52-0.5
		l-5.406-1.543c-0.187-0.055-0.384-0.036-0.558,0.061l-4.288,2.146l-4.289-2.146c-0.173-0.089-0.371-0.104-0.558-0.061l-5.405,1.543
		C88.67,322.712,88.475,322.897,88.394,323.142z M94.456,322.665l4.365,2.184c0.217,0.108,0.474,0.108,0.69,0l4.365-2.184
		l4.727,1.352l1.076,3.23H88.654l1.077-3.23L94.456,322.665z"/>
</g>
<g>
	<path fill="#231F20" d="M378.207,165.861c2.64,0,4.787-2.722,4.787-6.066c0-3.344-2.147-6.065-4.787-6.065
		c-2.641,0-4.79,2.722-4.79,6.065C373.417,163.139,375.566,165.861,378.207,165.861z"/>
	<path fill="#231F20" d="M369.299,167.742l-1.275,3.83c-0.064,0.194-0.03,0.408,0.088,0.574c0.12,0.167,0.312,0.266,0.518,0.266
		h19.154c0.206,0,0.396-0.099,0.519-0.266c0.119-0.167,0.151-0.38,0.087-0.574l-1.275-3.83c-0.066-0.202-0.228-0.355-0.432-0.413
		l-4.47-1.276c-0.153-0.045-0.315-0.03-0.461,0.042l-3.545,1.775l-3.546-1.775c-0.145-0.072-0.309-0.085-0.462-0.042l-4.468,1.276
		C369.528,167.386,369.368,167.54,369.299,167.742z"/>
</g>
<g>
	<path fill="#FFFFFF" d="M65.922,308.712h-3.09v-0.771c0-0.436-0.345-0.771-0.772-0.771h-2.317c-0.426,0-0.771,0.347-0.771,0.771
		v0.771h-9.268v-0.771c0-0.436-0.347-0.771-0.773-0.771h-2.316c-0.428,0-0.773,0.347-0.773,0.771v0.771h-3.088
		c-0.427,0-0.773,0.346-0.773,0.771v18.525c0,0.436,0.346,0.771,0.773,0.771h23.169c0.426,0,0.772-0.351,0.772-0.771v-18.525
		C66.694,309.058,66.349,308.712,65.922,308.712z M60.516,308.712h0.772v1.544h-0.772V308.712z M47.386,308.712h0.773v1.544h-0.773
		V308.712z M65.15,327.246H43.525v-16.99h2.316v0.772c0,0.427,0.346,0.771,0.773,0.771h2.316c0.426,0,0.773-0.345,0.773-0.771
		v-0.772h9.268v0.772c0,0.427,0.345,0.771,0.771,0.771h2.317c0.427,0,0.772-0.345,0.772-0.771v-0.772h2.318L65.15,327.246
		L65.15,327.246z"/>
	<path fill="#FFFFFF" d="M49.704,314.892h-3.089c-0.428,0-0.773,0.354-0.773,0.771v3.089c0,0.427,0.346,0.771,0.773,0.771h3.089
		c0.427,0,0.772-0.354,0.772-0.771v-3.089C50.476,315.235,50.131,314.892,49.704,314.892z M48.931,317.979h-1.545v-1.545h1.545
		V317.979z"/>
	<path fill="#FFFFFF" d="M55.882,314.892h-3.089c-0.426,0-0.771,0.354-0.771,0.771v3.089c0,0.427,0.345,0.771,0.771,0.771h3.089
		c0.425,0,0.772-0.354,0.772-0.771v-3.089C56.654,315.235,56.307,314.892,55.882,314.892z M55.108,317.979h-1.544v-1.545h1.544
		V317.979z"/>
	<path fill="#FFFFFF" d="M62.06,314.892h-3.088c-0.428,0-0.773,0.354-0.773,0.771v3.089c0,0.427,0.345,0.771,0.773,0.771h3.088
		c0.427,0,0.772-0.354,0.772-0.771v-3.089C62.833,315.235,62.487,314.892,62.06,314.892z M61.288,317.979h-1.545v-1.545h1.545
		V317.979z"/>
	<path fill="#FFFFFF" d="M49.704,321.067h-3.089c-0.428,0-0.773,0.346-0.773,0.771v3.089c0,0.427,0.346,0.771,0.773,0.771h3.089
		c0.427,0,0.772-0.354,0.772-0.771v-3.089C50.476,321.413,50.131,321.067,49.704,321.067z M48.931,324.158h-1.545v-1.546h1.545
		V324.158z"/>
	<path fill="#FFFFFF" d="M55.882,321.067h-3.089c-0.426,0-0.771,0.346-0.771,0.771v3.089c0,0.427,0.345,0.771,0.771,0.771h3.089
		c0.425,0,0.772-0.354,0.772-0.771v-3.089C56.654,321.413,56.307,321.067,55.882,321.067z M55.108,324.158h-1.544v-1.546h1.544
		V324.158z"/>
	<path fill="#FFFFFF" d="M62.06,321.067h-3.088c-0.428,0-0.773,0.346-0.773,0.771v3.089c0,0.427,0.345,0.771,0.773,0.771h3.088
		c0.427,0,0.772-0.354,0.772-0.771v-3.089C62.833,321.413,62.487,321.067,62.06,321.067z M61.288,324.158h-1.545v-1.546h1.545
		V324.158z"/>
</g>
<g>
	<path fill="#FFFFFF" d="M227.089,330.336h14.674c0.852,0,1.544-0.692,1.544-1.546v-21.624c0-0.851-0.693-1.544-1.544-1.544h-14.674
		c-0.851,0-1.543,0.693-1.543,1.544v2.317h-0.772c-0.426,0-0.772,0.346-0.772,0.771c0,0.429,0.346,0.771,0.772,0.771h0.772v1.545
		h-0.772c-0.426,0-0.772,0.348-0.772,0.771c0,0.423,0.346,0.771,0.772,0.771h0.772v1.545h-0.772c-0.426,0-0.772,0.346-0.772,0.771
		c0,0.435,0.346,0.771,0.772,0.771h0.772v1.545h-0.772c-0.426,0-0.772,0.346-0.772,0.771c0,0.438,0.346,0.771,0.772,0.771h0.772
		v1.545h-0.772c-0.426,0-0.772,0.347-0.772,0.771c0,0.436,0.346,0.771,0.772,0.771h0.772v1.546h-0.772
		c-0.426,0-0.772,0.346-0.772,0.771c0,0.427,0.346,0.771,0.772,0.771h0.772v2.316C225.545,329.644,226.238,330.336,227.089,330.336z
		 M241.763,328.791h-3.088v-21.624h3.088V328.791z M227.089,323.385h0.772c0.427,0,0.772-0.346,0.772-0.771
		c0-0.425-0.346-0.771-0.772-0.771h-0.772v-1.545h0.772c0.427,0,0.772-0.344,0.772-0.771c0-0.436-0.346-0.771-0.772-0.771h-0.772
		v-1.545h0.772c0.427,0,0.772-0.346,0.772-0.771c0-0.435-0.346-0.771-0.772-0.771h-0.772v-1.545h0.772
		c0.427,0,0.772-0.348,0.772-0.771c0-0.428-0.346-0.771-0.772-0.771h-0.772v-1.545h0.772c0.427,0,0.772-0.345,0.772-0.771
		c0-0.426-0.346-0.771-0.772-0.771h-0.772v-2.317h10.042V328.8h-10.042v-2.312h0.772c0.427,0,0.772-0.354,0.772-0.771
		s-0.346-0.771-0.772-0.771h-0.772V323.385L227.089,323.385z"/>
</g>
<g>
	<path fill="#FFFFFF" d="M155.478,307.174l-11.483,1.53l-11.481-1.53c-0.223-0.03-0.445,0.037-0.611,0.188
		c-0.167,0.146-0.264,0.354-0.264,0.58v18.527c0,0.396,0.286,0.723,0.67,0.771l11.585,1.544c0.034,0.005,0.068,0.007,0.101,0.007
		c0.034,0,0.068-0.002,0.103-0.007l11.583-1.544c0.384-0.052,0.671-0.38,0.671-0.771V307.94c0-0.229-0.097-0.438-0.263-0.58
		C155.92,307.211,155.702,307.146,155.478,307.174z M133.183,308.821l10.04,1.339v16.976l-10.04-1.338V308.821z M154.808,325.798
		l-10.04,1.338V310.16l10.04-1.339V325.798z"/>
	<path fill="#FFFFFF" d="M135.405,312.567l6.178,0.771c0.032,0.004,0.065,0.007,0.097,0.007c0.383,0,0.718-0.287,0.765-0.678
		c0.053-0.422-0.246-0.809-0.669-0.861l-6.18-0.771c-0.421-0.055-0.809,0.246-0.861,0.67
		C134.682,312.128,134.981,312.515,135.405,312.567z"/>
	<path fill="#FFFFFF" d="M141.775,315.667l-6.18-0.771c-0.421-0.062-0.809,0.238-0.861,0.67c-0.052,0.425,0.247,0.812,0.671,0.854
		l6.178,0.772c0.032,0.004,0.065,0.005,0.097,0.005c0.383,0,0.718-0.286,0.765-0.676
		C142.498,316.106,142.199,315.72,141.775,315.667z"/>
	<path fill="#FFFFFF" d="M141.775,319.53l-6.18-0.773c-0.421-0.054-0.809,0.247-0.861,0.671c-0.052,0.423,0.247,0.812,0.671,0.862
		l6.178,0.771c0.032,0.014,0.065,0.016,0.097,0.016c0.383,0,0.718-0.285,0.765-0.686
		C142.498,319.968,142.199,319.583,141.775,319.53z"/>
	<path fill="#FFFFFF" d="M141.775,323.392l-6.18-0.771c-0.421-0.057-0.809,0.247-0.861,0.67c-0.052,0.423,0.247,0.811,0.671,0.861
		l6.178,0.771c0.032,0.004,0.065,0.006,0.097,0.006c0.383,0,0.718-0.285,0.765-0.677
		C142.498,323.83,142.199,323.442,141.775,323.392z"/>
	<path fill="#FFFFFF" d="M146.311,313.347c0.033,0,0.066-0.004,0.097-0.008l6.178-0.771c0.424-0.062,0.724-0.438,0.672-0.861
		c-0.054-0.424-0.445-0.727-0.863-0.67l-6.178,0.771c-0.424,0.062-0.725,0.439-0.671,0.861
		C145.595,313.06,145.928,313.347,146.311,313.347z"/>
	<path fill="#FFFFFF" d="M146.311,317.206c0.033,0,0.066-0.001,0.097-0.005l6.178-0.773c0.424-0.052,0.724-0.438,0.672-0.854
		c-0.054-0.434-0.445-0.729-0.863-0.671l-6.178,0.771c-0.424,0.053-0.725,0.438-0.671,0.863
		C145.595,316.92,145.928,317.206,146.311,317.206z"/>
	<path fill="#FFFFFF" d="M146.311,321.067c0.033,0,0.066-0.002,0.097-0.016l6.178-0.771c0.424-0.055,0.724-0.439,0.672-0.862
		c-0.054-0.424-0.445-0.725-0.863-0.671l-6.178,0.773c-0.424,0.053-0.725,0.438-0.671,0.854
		C145.595,320.782,145.928,321.067,146.311,321.067z"/>
	<path fill="#FFFFFF" d="M152.396,322.619l-6.178,0.771c-0.424,0.061-0.725,0.438-0.671,0.859c0.049,0.395,0.382,0.677,0.765,0.677
		c0.033,0,0.066-0.002,0.097-0.006l6.178-0.771c0.424-0.062,0.724-0.438,0.672-0.862
		C153.204,322.866,152.813,322.562,152.396,322.619z"/>
</g>
<g>
	<path fill="#FFFFFF" d="M177.242,321.067h2.531l0.446,1.336l-1.979,1.979c-0.302,0.303-0.302,0.791,0,1.094l3.088,3.1
		c0.303,0.301,0.793,0.301,1.093,0l1.981-1.98l1.334,0.445v2.533c0,0.426,0.347,0.771,0.772,0.771h4.634
		c0.427,0,0.773-0.348,0.773-0.771v-2.533l1.336-0.445l1.978,1.98c0.303,0.301,0.792,0.301,1.094,0l3.089-3.1
		c0.301-0.303,0.301-0.791,0-1.094l-1.98-1.979l0.446-1.336h2.531c0.429,0,0.772-0.354,0.772-0.772v-4.633
		c0-0.427-0.344-0.771-0.772-0.771h-2.531l-0.446-1.339l1.98-1.979c0.301-0.312,0.301-0.791,0-1.093l-3.089-3.1
		c-0.302-0.302-0.791-0.302-1.094,0l-1.978,1.979l-1.336-0.446v-2.531c0-0.428-0.346-0.771-0.773-0.771h-4.634
		c-0.425,0-0.772,0.345-0.772,0.771v2.531l-1.334,0.446l-1.981-1.979c-0.3-0.302-0.79-0.302-1.093,0l-3.088,3.1
		c-0.302,0.303-0.302,0.779,0,1.093l1.979,1.979l-0.446,1.339h-2.531c-0.427,0-0.773,0.354-0.773,0.771v4.633
		C176.468,320.722,176.814,321.067,177.242,321.067z M178.013,316.435h2.317c0.333,0,0.628-0.213,0.733-0.521l0.771-2.317
		c0.093-0.271,0.022-0.583-0.186-0.79l-1.77-1.771l1.997-1.996l1.771,1.771c0.207,0.206,0.513,0.278,0.79,0.188l2.317-0.771
		c0.315-0.104,0.527-0.396,0.527-0.729v-2.316h3.089v2.316c0,0.332,0.213,0.628,0.528,0.729l2.317,0.771
		c0.279,0.092,0.583,0.021,0.791-0.188l1.771-1.771l1.997,1.996l-1.772,1.771c-0.206,0.206-0.278,0.521-0.184,0.79l0.771,2.317
		c0.106,0.312,0.401,0.521,0.733,0.521h2.316v3.098h-2.316c-0.333,0-0.627,0.215-0.733,0.521l-0.771,2.316
		c-0.094,0.271-0.022,0.583,0.184,0.79l1.772,1.771l-1.997,1.997l-1.771-1.771c-0.207-0.207-0.513-0.279-0.791-0.188l-2.317,0.772
		c-0.315,0.104-0.528,0.396-0.528,0.729v2.316h-3.089v-2.316c0-0.332-0.212-0.627-0.527-0.729l-2.317-0.772
		c-0.276-0.092-0.583-0.02-0.79,0.188l-1.771,1.771l-1.997-1.997l1.77-1.771c0.208-0.207,0.279-0.521,0.186-0.79l-0.771-2.316
		c-0.105-0.312-0.4-0.521-0.733-0.521h-2.317V316.435z"/>
	<path fill="#FFFFFF" d="M188.825,321.067c1.703,0,3.09-1.396,3.09-3.098c0-1.695-1.387-3.088-3.09-3.088
		c-1.703,0-3.09,1.395-3.09,3.088C185.735,319.682,187.123,321.067,188.825,321.067z M188.825,316.435
		c0.851,0,1.544,0.693,1.544,1.555c0,0.853-0.693,1.543-1.544,1.543c-0.853,0-1.545-0.69-1.545-1.543
		C187.28,317.128,187.973,316.435,188.825,316.435z"/>
</g>
<g>
	<path fill="#FFFFFF" d="M12.598,314.503c0-1.704-1.386-3.089-3.09-3.089c-1.703,0-3.088,1.386-3.088,3.089s1.385,3.089,3.088,3.089
		C11.212,317.592,12.598,316.207,12.598,314.503z M7.963,314.503c0-0.852,0.693-1.544,1.545-1.544c0.853,0,1.545,0.692,1.545,1.544
		c0,0.854-0.692,1.545-1.545,1.545C8.656,316.049,7.963,315.354,7.963,314.503z"/>
	<path fill="#FFFFFF" d="M9.495,330.334c0.222,0,0.433-0.094,0.579-0.261c0.341-0.396,8.344-9.53,8.316-15.562
		c-0.022-4.896-4.006-8.893-8.882-8.893c-4.897,0-8.881,3.988-8.881,8.896c0,6.025,7.949,15.168,8.287,15.562
		C9.061,330.239,9.262,330.33,9.495,330.334z M9.508,307.167c4.028,0,7.318,3.299,7.336,7.354
		c0.021,4.562-5.514,11.633-7.348,13.847c-1.825-2.216-7.326-9.277-7.326-13.854C2.171,310.464,5.463,307.167,9.508,307.167z"/>
</g>
<g>
	<path fill="#FFFFFF" d="M110.943,360.554H85.984c-0.459,0-0.833,0.371-0.833,0.83v14.977c0,0.459,0.373,0.832,0.833,0.832h24.958
		c0.459,0,0.832-0.373,0.832-0.832v-14.977C111.775,360.925,111.402,360.554,110.943,360.554z M108.279,362.216l-9.815,6.094
		l-9.815-6.094H108.279z M86.815,375.527v-12.49l11.648,7.229l11.648-7.229v12.49H86.815z"/>
</g>
<g>
	<path fill="#FFFFFF" d="M143.791,365.544c-0.46,0-0.833,0.373-0.833,0.832v11.303l-1.906-1.908c-0.325-0.322-0.852-0.322-1.177,0
		c-0.325,0.326-0.325,0.854,0,1.18l3.328,3.326c0.163,0.162,0.375,0.244,0.589,0.244s0.425-0.082,0.587-0.244l3.329-3.326
		c0.325-0.326,0.325-0.854,0-1.18c-0.325-0.322-0.852-0.322-1.177,0l-1.908,1.91v-11.305
		C144.62,365.958,144.249,365.544,143.791,365.544z"/>
	<path fill="#FFFFFF" d="M156.268,357.226H131.31c-0.459,0-0.833,0.373-0.833,0.832v14.977c0,0.459,0.374,0.832,0.833,0.832h9.152
		c0.46,0,0.833-0.373,0.833-0.832c0-0.461-0.373-0.832-0.833-0.832h-8.321V358.89h23.296v13.311h-8.319
		c-0.459,0-0.833,0.371-0.833,0.832c0,0.459,0.374,0.832,0.833,0.832h9.15c0.459,0,0.833-0.373,0.833-0.832v-14.977
		C157.101,357.597,156.728,357.226,156.268,357.226z"/>
</g>
<g>
	<path fill="#FFFFFF" d="M13.312,355.562c-3.556,0-6.898,1.387-9.412,3.898c-2.516,2.516-3.9,5.854-3.9,9.412
		c0,3.557,1.384,6.895,3.899,9.412c2.514,2.514,5.856,3.895,9.412,3.895s6.899-1.389,9.412-3.895
		c2.515-2.521,3.901-5.855,3.901-9.412c0-3.559-1.386-6.896-3.901-9.412C20.211,356.947,16.867,355.562,13.312,355.562z
		 M21.548,377.109c-2.201,2.197-5.126,3.41-8.237,3.41c-3.112,0-6.035-1.213-8.236-3.412c-2.2-2.199-3.412-5.123-3.412-8.234
		c0-3.107,1.212-6.037,3.412-8.232c2.201-2.188,5.124-3.41,8.236-3.41c3.11,0,6.036,1.229,8.237,3.412
		c2.2,2.195,3.411,5.125,3.411,8.23C24.959,371.984,23.749,374.908,21.548,377.109z"/>
	<path fill="#FFFFFF" d="M17.413,368.562l-3.329-8.318c-0.126-0.312-0.432-0.521-0.772-0.521s-0.646,0.207-0.773,0.521l-3.327,8.318
		c-0.08,0.201-0.076,0.422,0.002,0.617H9.212l3.327,8.318c0.127,0.311,0.433,0.52,0.773,0.52s0.646-0.209,0.772-0.52l3.329-8.318
		h-0.002C17.488,368.984,17.493,368.765,17.413,368.562z M13.312,362.792l2.099,5.248h-4.197L13.312,362.792z M13.312,374.953
		l-2.099-5.248h4.197L13.312,374.953z"/>
</g>
<g>
	<path fill="#FFFFFF" d="M41.16,378.025h4.991v3.324c0,0.459,0.373,0.834,0.833,0.834h13.312c0.459,0,0.831-0.373,0.831-0.834
		v-3.324h4.992c0.459,0,0.831-0.373,0.831-0.834V363.88c0-0.459-0.372-0.832-0.831-0.832h-4.992v-6.656
		c0-0.459-0.372-0.832-0.831-0.832H46.983c-0.459,0-0.833,0.373-0.833,0.832v6.656h-4.99c-0.459,0-0.833,0.373-0.833,0.832v13.312
		C40.327,377.652,40.701,378.025,41.16,378.025z M59.462,380.521H47.814v-8.318h11.648V380.521z M47.814,357.224h11.648v5.824
		H47.814V357.224z M41.991,364.71h4.992h13.312h4.991v11.646h-4.16v-4.989c0-0.459-0.372-0.832-0.831-0.832H46.983
		c-0.459,0-0.833,0.373-0.833,0.832v4.989h-4.16L41.991,364.71L41.991,364.71z"/>
	<path fill="#FFFFFF" d="M45.073,366.207c-0.307-0.312-0.866-0.312-1.174,0c-0.157,0.154-0.245,0.365-0.245,0.586
		c0,0.217,0.087,0.438,0.245,0.59c0.155,0.154,0.368,0.242,0.587,0.242c0.221,0,0.433-0.088,0.59-0.246
		c0.154-0.148,0.241-0.369,0.241-0.586C45.318,366.572,45.231,366.359,45.073,366.207z"/>
	<path fill="#FFFFFF" d="M46.983,367.625c0.221,0,0.433-0.088,0.586-0.246c0.159-0.148,0.245-0.369,0.245-0.586
		s-0.086-0.432-0.245-0.592c-0.309-0.309-0.866-0.309-1.174,0.006c-0.157,0.154-0.245,0.365-0.245,0.586
		c0,0.217,0.088,0.438,0.245,0.59C46.55,367.537,46.762,367.625,46.983,367.625z"/>
	<path fill="#FFFFFF" d="M57.798,373.865h-8.319c-0.459,0-0.832,0.373-0.832,0.832s0.373,0.832,0.832,0.832h8.319
		c0.459,0,0.832-0.373,0.832-0.832C58.63,374.236,58.258,373.865,57.798,373.865z"/>
	<path fill="#FFFFFF" d="M57.798,377.191h-8.319c-0.459,0-0.832,0.371-0.832,0.834c0,0.457,0.373,0.832,0.832,0.832h8.319
		c0.459,0,0.832-0.373,0.832-0.832C58.63,377.562,58.258,377.191,57.798,377.191z"/>
</g>
<polygon fill="#4C2F83" points="12.782,560.585 20.05,565.312 12.782,570.042 "/>
<path fill="#FFFFFF" d="M52.971,577.38c-5.897-5.896-5.895-15.492,0-21.389c5.899-5.898,15.49-5.898,21.389,0
	c5.897,5.895,5.897,15.479-0.001,21.387C68.462,583.275,58.866,583.277,52.971,577.38z M72.416,557.935
	c-4.824-4.824-12.675-4.822-17.502,0.002c-4.821,4.824-4.821,12.674,0,17.496c4.827,4.826,12.676,4.826,17.502,0
	C77.239,570.611,77.241,562.761,72.416,557.935z"/>
<polygon fill="#FFFFFF" points="61.331,561.958 68.599,566.683 61.331,571.414 "/>
<polygon fill="#FED800" points="369.913,113.835 387.816,124.291 369.913,134.744 "/>
<rect x="418.146" y="116.828" fill="#FED800" width="3.646" height="16.424"/>
<g>
	<path d="M453.178,129.498h3.59l5.604,5.595c0.123,0.124,0.287,0.188,0.454,0.188c0.083,0,0.166-0.016,0.246-0.049
		c0.229-0.099,0.396-0.333,0.396-0.594v-19.277c0-0.26-0.153-0.495-0.396-0.594c-0.241-0.1-0.521-0.045-0.7,0.139l-5.604,5.595
		h-3.59c-0.354,0-0.643,0.288-0.643,0.643v7.71C452.535,129.21,452.823,129.498,453.178,129.498z M453.82,121.786h3.213
		c0.171,0,0.334-0.068,0.455-0.188l4.686-4.687v16.175l-4.686-4.686c-0.121-0.121-0.284-0.188-0.455-0.188h-3.213V121.786z"/>
	<path d="M464.933,128.346c0.126,0.125,0.29,0.188,0.454,0.188c0.165,0,0.329-0.063,0.454-0.188l2.438-2.438l2.438,2.438
		c0.126,0.125,0.29,0.188,0.454,0.188c0.165,0,0.329-0.063,0.455-0.188c0.25-0.251,0.25-0.658,0-0.909L469.188,125l2.438-2.438
		c0.25-0.251,0.25-0.658,0-0.909c-0.251-0.251-0.658-0.251-0.909,0l-2.438,2.438l-2.438-2.438c-0.25-0.251-0.657-0.251-0.908,0
		s-0.251,0.658,0,0.909L467.37,125l-2.438,2.437C464.682,127.688,464.682,128.094,464.933,128.346z"/>
</g>
<g>
	<path d="M500.729,129.498h3.604l5.595,5.595c0.123,0.124,0.287,0.188,0.455,0.188c0.082,0,0.166-0.016,0.246-0.049
		c0.24-0.099,0.396-0.333,0.396-0.594v-19.277c0-0.26-0.146-0.495-0.396-0.594c-0.241-0.1-0.521-0.045-0.701,0.139l-5.595,5.595
		h-3.604c-0.354,0-0.643,0.288-0.643,0.643v7.71C500.086,129.21,500.374,129.498,500.729,129.498z M501.371,121.786h3.214
		c0.17,0,0.333-0.068,0.453-0.188l4.687-4.687v16.175l-4.687-4.686c-0.12-0.121-0.283-0.188-0.453-0.188h-3.214V121.786z"/>
	<path d="M512.938,127.57c-0.354,0-0.644,0.288-0.644,0.643c0,0.354,0.289,0.642,0.644,0.642c2.14,0,3.855-1.729,3.855-3.855
		s-1.729-3.855-3.855-3.855c-0.354,0-0.644,0.288-0.644,0.642c0,0.355,0.289,0.643,0.644,0.643c1.431,0,2.569,1.153,2.569,2.57
		C515.508,126.417,514.355,127.57,512.938,127.57z"/>
</g>
<g>
	<path d="M545.389,129.498h3.589l5.604,5.595c0.122,0.124,0.287,0.188,0.454,0.188c0.082,0,0.166-0.016,0.244-0.049
		c0.229-0.099,0.396-0.333,0.396-0.594v-19.277c0-0.26-0.157-0.495-0.396-0.594c-0.239-0.1-0.521-0.045-0.698,0.139l-5.604,5.595
		h-3.589c-0.354,0-0.643,0.288-0.643,0.643v7.71C544.746,129.21,545.034,129.498,545.389,129.498z M546.031,121.786h3.213
		c0.171,0,0.334-0.068,0.454-0.188l4.687-4.687v16.175l-4.687-4.686c-0.12-0.121-0.283-0.188-0.454-0.188h-3.213V121.786z"/>
	<path d="M557.598,127.57c-0.354,0-0.643,0.288-0.643,0.643c0,0.354,0.288,0.642,0.643,0.642c2.126,0,3.855-1.729,3.855-3.855
		s-1.729-3.855-3.855-3.855c-0.354,0-0.643,0.288-0.643,0.642c0,0.355,0.288,0.643,0.643,0.643c1.418,0,2.57,1.153,2.57,2.57
		S559.016,127.57,557.598,127.57z"/>
	<path d="M557.598,132.068c3.897,0,7.068-3.171,7.068-7.068c0-3.898-3.171-7.068-7.068-7.068c-0.354,0-0.643,0.288-0.643,0.643
		s0.288,0.643,0.643,0.643c3.188,0,5.783,2.594,5.783,5.783s-2.595,5.783-5.783,5.783c-0.354,0-0.643,0.288-0.643,0.643
		C556.955,131.782,557.243,132.068,557.598,132.068z"/>
</g>
<g>
	<path fill="#FFFFFF" d="M550.094,73.526c0-4.186,3.403-7.591,7.591-7.591c4.188,0,7.604,3.406,7.604,7.591
		c0,4.187-3.406,7.593-7.604,7.593C553.497,81.12,550.094,77.713,550.094,73.526z M551.802,73.526c0,3.246,2.646,5.885,5.884,5.885
		c3.244,0,5.896-2.64,5.896-5.885c0-3.245-2.646-5.882-5.896-5.882C554.439,67.645,551.802,70.283,551.802,73.526z"/>
	
		<rect x="548.973" y="77.426" transform="matrix(-0.7065 -0.7077 0.7077 -0.7065 880.9289 527.8337)" fill="#FFFFFF" width="1.901" height="7.621"/>
</g>
<polygon fill="#B7A57A" points="632.894,236.417 478.75,236.417 466.75,280.417 632.894,280.417 "/>
<polygon fill="#B7A57A" points="466.75,398.042 616.578,398.042 620.771,390.234 466.75,390.234 "/>
<polygon fill="#666666" points="614.25,303.75 478.75,303.75 466.75,347.75 614.25,347.75 "/>
<rect x="166.678" y="496.318" fill="#FFFFFF" width="13.605" height="2.627"/>
<rect x="177.657" y="496.318" fill="#FFFFFF" width="2.626" height="13.604"/>
<rect x="166.667" y="501.896" transform="matrix(-0.707 0.7072 -0.7072 -0.707 651.9818 736.3088)" fill="#FFFFFF" width="13.605" height="2.624"/>
<g>
	
		<rect x="205.849" y="498.878" transform="matrix(-0.7071 0.7071 -0.7071 -0.7071 712.376 704.8431)" fill="#616264" width="8.723" height="2.162"/>
	
		<rect x="213.779" y="495.58" transform="matrix(-0.7071 0.7071 -0.7071 -0.7071 720.2988 701.5223)" fill="#616264" width="2.16" height="8.72"/>
	<rect x="211.5" y="498.458" fill="#616264" width="2.159" height="11.189"/>
</g>
<rect x="117.416" y="496.318" fill="#4C2F83" width="13.605" height="2.627"/>
<rect x="128.395" y="496.318" fill="#4C2F83" width="2.626" height="13.604"/>
<rect x="58.687" y="496.891" transform="matrix(-0.7073 -0.7069 0.7069 -0.7073 -240.3849 896.8723)" fill="#FFFFFF" width="13.604" height="2.626"/>
<rect x="58.658" y="504.616" transform="matrix(0.707 -0.7072 0.7072 0.707 -338.6202 194.5328)" fill="#FFFFFF" width="13.607" height="2.627"/>
<path fill="#8C8C8C" d="M706.624,0.662l0.99,0.147l-8.461,30.856l-0.988-0.148L706.624,0.662z"/>
<g>
	
		<line fill="none" stroke="#E6E7E8" stroke-width="0.5" stroke-miterlimit="10" x1="422.271" y1="580.347" x2="473.881" y2="452.22"/>
	
		<line fill="none" stroke="#E6E7E8" stroke-width="0.5" stroke-miterlimit="10" x1="425.782" y1="580.347" x2="477.391" y2="452.22"/>
	
		<line fill="none" stroke="#E6E7E8" stroke-width="0.5" stroke-miterlimit="10" x1="429.292" y1="580.345" x2="480.901" y2="452.22"/>
	
		<line fill="none" stroke="#E6E7E8" stroke-width="0.5" stroke-miterlimit="10" x1="432.802" y1="580.347" x2="484.411" y2="452.22"/>
	
		<line fill="none" stroke="#E6E7E8" stroke-width="0.5" stroke-miterlimit="10" x1="436.312" y1="580.347" x2="487.922" y2="452.22"/>
	
		<line fill="none" stroke="#E6E7E8" stroke-width="0.5" stroke-miterlimit="10" x1="439.822" y1="580.347" x2="491.432" y2="452.22"/>
	
		<line fill="none" stroke="#E6E7E8" stroke-width="0.5" stroke-miterlimit="10" x1="443.332" y1="580.347" x2="494.941" y2="452.22"/>
	
		<line fill="none" stroke="#E6E7E8" stroke-width="0.5" stroke-miterlimit="10" x1="446.843" y1="580.347" x2="498.452" y2="452.22"/>
	
		<line fill="none" stroke="#E6E7E8" stroke-width="0.5" stroke-miterlimit="10" x1="450.354" y1="580.347" x2="501.962" y2="452.22"/>
	
		<line fill="none" stroke="#E6E7E8" stroke-width="0.5" stroke-miterlimit="10" x1="453.863" y1="580.347" x2="505.473" y2="452.22"/>
	
		<line fill="none" stroke="#E6E7E8" stroke-width="0.5" stroke-miterlimit="10" x1="457.373" y1="580.347" x2="508.982" y2="452.22"/>
	
		<line fill="none" stroke="#E6E7E8" stroke-width="0.5" stroke-miterlimit="10" x1="460.884" y1="580.347" x2="512.492" y2="452.22"/>
	
		<line fill="none" stroke="#E6E7E8" stroke-width="0.5" stroke-miterlimit="10" x1="464.395" y1="580.347" x2="516.003" y2="452.22"/>
	
		<line fill="none" stroke="#E6E7E8" stroke-width="0.5" stroke-miterlimit="10" x1="467.903" y1="580.347" x2="519.513" y2="452.22"/>
	
		<line fill="none" stroke="#E6E7E8" stroke-width="0.5" stroke-miterlimit="10" x1="471.414" y1="580.347" x2="523.021" y2="452.22"/>
	
		<line fill="none" stroke="#E6E7E8" stroke-width="0.5" stroke-miterlimit="10" x1="474.924" y1="580.347" x2="526.533" y2="452.22"/>
	
		<line fill="none" stroke="#E6E7E8" stroke-width="0.5" stroke-miterlimit="10" x1="478.434" y1="580.347" x2="530.043" y2="452.22"/>
	
		<line fill="none" stroke="#E6E7E8" stroke-width="0.5" stroke-miterlimit="10" x1="481.944" y1="580.347" x2="533.554" y2="452.22"/>
	
		<line fill="none" stroke="#E6E7E8" stroke-width="0.5" stroke-miterlimit="10" x1="485.454" y1="580.347" x2="537.062" y2="452.22"/>
	
		<line fill="none" stroke="#E6E7E8" stroke-width="0.5" stroke-miterlimit="10" x1="488.964" y1="580.347" x2="540.573" y2="452.22"/>
	
		<line fill="none" stroke="#E6E7E8" stroke-width="0.5" stroke-miterlimit="10" x1="492.475" y1="580.347" x2="544.084" y2="452.22"/>
	
		<line fill="none" stroke="#E6E7E8" stroke-width="0.5" stroke-miterlimit="10" x1="495.984" y1="580.347" x2="547.594" y2="452.22"/>
	
		<line fill="none" stroke="#E6E7E8" stroke-width="0.5" stroke-miterlimit="10" x1="499.495" y1="580.347" x2="551.104" y2="452.22"/>
	
		<line fill="none" stroke="#E6E7E8" stroke-width="0.5" stroke-miterlimit="10" x1="503.005" y1="580.347" x2="554.614" y2="452.22"/>
	
		<line fill="none" stroke="#E6E7E8" stroke-width="0.5" stroke-miterlimit="10" x1="506.516" y1="580.347" x2="558.124" y2="452.22"/>
	
		<line fill="none" stroke="#E6E7E8" stroke-width="0.5" stroke-miterlimit="10" x1="510.025" y1="580.347" x2="561.635" y2="452.22"/>
	
		<line fill="none" stroke="#E6E7E8" stroke-width="0.5" stroke-miterlimit="10" x1="513.536" y1="580.347" x2="565.145" y2="452.22"/>
	
		<line fill="none" stroke="#E6E7E8" stroke-width="0.5" stroke-miterlimit="10" x1="517.046" y1="580.347" x2="568.655" y2="452.22"/>
	
		<line fill="none" stroke="#E6E7E8" stroke-width="0.5" stroke-miterlimit="10" x1="520.556" y1="580.347" x2="572.165" y2="452.22"/>
	
		<line fill="none" stroke="#E6E7E8" stroke-width="0.5" stroke-miterlimit="10" x1="524.066" y1="580.347" x2="575.675" y2="452.22"/>
	
		<line fill="none" stroke="#E6E7E8" stroke-width="0.5" stroke-miterlimit="10" x1="527.576" y1="580.347" x2="579.186" y2="452.22"/>
	
		<line fill="none" stroke="#E6E7E8" stroke-width="0.5" stroke-miterlimit="10" x1="531.086" y1="580.347" x2="582.695" y2="452.22"/>
	
		<line fill="none" stroke="#E6E7E8" stroke-width="0.5" stroke-miterlimit="10" x1="534.597" y1="580.347" x2="586.206" y2="452.22"/>
	
		<line fill="none" stroke="#E6E7E8" stroke-width="0.5" stroke-miterlimit="10" x1="538.106" y1="580.347" x2="589.716" y2="452.22"/>
	
		<line fill="none" stroke="#E6E7E8" stroke-width="0.5" stroke-miterlimit="10" x1="541.616" y1="580.347" x2="593.227" y2="452.22"/>
	
		<line fill="none" stroke="#E6E7E8" stroke-width="0.5" stroke-miterlimit="10" x1="545.127" y1="580.347" x2="596.737" y2="452.22"/>
	
		<line fill="none" stroke="#E6E7E8" stroke-width="0.5" stroke-miterlimit="10" x1="548.638" y1="580.347" x2="600.247" y2="452.22"/>
	
		<line fill="none" stroke="#E6E7E8" stroke-width="0.5" stroke-miterlimit="10" x1="552.146" y1="580.347" x2="603.757" y2="452.22"/>
	
		<line fill="none" stroke="#E6E7E8" stroke-width="0.5" stroke-miterlimit="10" x1="555.657" y1="580.347" x2="607.267" y2="452.22"/>
	
		<line fill="none" stroke="#E6E7E8" stroke-width="0.5" stroke-miterlimit="10" x1="559.168" y1="580.347" x2="610.777" y2="452.22"/>
	
		<line fill="none" stroke="#E6E7E8" stroke-width="0.5" stroke-miterlimit="10" x1="562.678" y1="580.347" x2="614.287" y2="452.22"/>
	
		<line fill="none" stroke="#E6E7E8" stroke-width="0.5" stroke-miterlimit="10" x1="566.188" y1="580.347" x2="617.798" y2="452.22"/>
	
		<line fill="none" stroke="#E6E7E8" stroke-width="0.5" stroke-miterlimit="10" x1="569.698" y1="580.347" x2="621.308" y2="452.22"/>
	
		<line fill="none" stroke="#E6E7E8" stroke-width="0.5" stroke-miterlimit="10" x1="573.208" y1="580.347" x2="624.817" y2="452.22"/>
	
		<line fill="none" stroke="#E6E7E8" stroke-width="0.5" stroke-miterlimit="10" x1="576.719" y1="580.347" x2="628.328" y2="452.22"/>
	
		<line fill="none" stroke="#E6E7E8" stroke-width="0.5" stroke-miterlimit="10" x1="580.229" y1="580.347" x2="631.838" y2="452.22"/>
	
		<line fill="none" stroke="#E6E7E8" stroke-width="0.5" stroke-miterlimit="10" x1="583.739" y1="580.347" x2="635.349" y2="452.22"/>
	
		<line fill="none" stroke="#E6E7E8" stroke-width="0.5" stroke-miterlimit="10" x1="587.249" y1="580.347" x2="638.858" y2="452.22"/>
	
		<line fill="none" stroke="#E6E7E8" stroke-width="0.5" stroke-miterlimit="10" x1="590.759" y1="580.347" x2="642.368" y2="452.22"/>
	
		<line fill="none" stroke="#E6E7E8" stroke-width="0.5" stroke-miterlimit="10" x1="594.27" y1="580.347" x2="645.879" y2="452.22"/>
	
		<line fill="none" stroke="#E6E7E8" stroke-width="0.5" stroke-miterlimit="10" x1="597.779" y1="580.347" x2="649.389" y2="452.22"/>
	
		<line fill="none" stroke="#E6E7E8" stroke-width="0.5" stroke-miterlimit="10" x1="601.29" y1="580.347" x2="652.899" y2="452.22"/>
	<line fill="none" stroke="#E6E7E8" stroke-width="0.5" stroke-miterlimit="10" x1="604.8" y1="580.347" x2="656.409" y2="452.22"/>
	
		<line fill="none" stroke="#E6E7E8" stroke-width="0.5" stroke-miterlimit="10" x1="608.311" y1="580.347" x2="659.919" y2="452.22"/>
	<line fill="none" stroke="#E6E7E8" stroke-width="0.5" stroke-miterlimit="10" x1="611.82" y1="580.347" x2="663.43" y2="452.22"/>
	
		<line fill="none" stroke="#E6E7E8" stroke-width="0.5" stroke-miterlimit="10" x1="615.331" y1="580.347" x2="666.939" y2="452.22"/>
	
		<line fill="none" stroke="#E6E7E8" stroke-width="0.5" stroke-miterlimit="10" x1="618.841" y1="580.347" x2="670.45" y2="452.22"/>
	
		<line fill="none" stroke="#E6E7E8" stroke-width="0.5" stroke-miterlimit="10" x1="622.351" y1="580.347" x2="673.96" y2="452.22"/>
	<line fill="none" stroke="#E6E7E8" stroke-width="0.5" stroke-miterlimit="10" x1="625.86" y1="580.347" x2="677.47" y2="452.22"/>
	
		<line fill="none" stroke="#E6E7E8" stroke-width="0.5" stroke-miterlimit="10" x1="629.371" y1="580.347" x2="680.98" y2="452.22"/>
	
		<line fill="none" stroke="#E6E7E8" stroke-width="0.5" stroke-miterlimit="10" x1="632.882" y1="580.347" x2="684.49" y2="452.22"/>
	
		<line fill="none" stroke="#E6E7E8" stroke-width="0.5" stroke-miterlimit="10" x1="636.392" y1="580.347" x2="688.001" y2="452.22"/>
	
		<line fill="none" stroke="#E6E7E8" stroke-width="0.5" stroke-miterlimit="10" x1="639.901" y1="580.347" x2="691.511" y2="452.22"/>
	
		<line fill="none" stroke="#E6E7E8" stroke-width="0.5" stroke-miterlimit="10" x1="643.412" y1="580.347" x2="695.021" y2="452.22"/>
	
		<line fill="none" stroke="#E6E7E8" stroke-width="0.5" stroke-miterlimit="10" x1="646.922" y1="580.347" x2="698.531" y2="452.22"/>
	
		<line fill="none" stroke="#E6E7E8" stroke-width="0.5" stroke-miterlimit="10" x1="650.432" y1="580.347" x2="702.041" y2="452.22"/>
	
		<line fill="none" stroke="#E6E7E8" stroke-width="0.5" stroke-miterlimit="10" x1="653.942" y1="580.347" x2="705.552" y2="452.22"/>
	
		<line fill="none" stroke="#E6E7E8" stroke-width="0.5" stroke-miterlimit="10" x1="657.452" y1="580.347" x2="709.062" y2="452.22"/>
	
		<line fill="none" stroke="#E6E7E8" stroke-width="0.5" stroke-miterlimit="10" x1="660.963" y1="580.347" x2="712.572" y2="452.22"/>
	
		<line fill="none" stroke="#E6E7E8" stroke-width="0.5" stroke-miterlimit="10" x1="664.473" y1="580.347" x2="716.082" y2="452.22"/>
	
		<line fill="none" stroke="#E6E7E8" stroke-width="0.5" stroke-miterlimit="10" x1="667.983" y1="580.347" x2="719.593" y2="452.22"/>
	
		<line fill="none" stroke="#E6E7E8" stroke-width="0.5" stroke-miterlimit="10" x1="671.493" y1="580.347" x2="723.104" y2="452.22"/>
</g>
<g>
	<polygon fill="#FFFFFF" points="482.076,8.717 482.075,8.717 487.957,2.516 486.299,0.943 480.498,7.055 474.697,0.943 
		473.039,2.516 478.922,8.717 478.921,8.717 478.924,8.719 473.039,14.923 474.697,16.497 480.498,10.385 486.299,16.497 
		487.957,14.923 482.073,8.719 	"/>
</g>
<polygon fill="#85754D" points="632.894,236.417 590.979,236.417 576.913,280.417 632.894,280.417 "/>
<polygon fill="#746041" points="590.979,236.417 590.979,236.417 576.913,280.417 587.11,280.417 "/>
<rect x="436.344" y="76.828" transform="matrix(-0.7071 0.7071 -0.7071 -0.7071 821.848 -185.2712)" fill="#666666" width="25.902" height="1.493"/>
<rect x="436.331" y="76.803" transform="matrix(-0.7071 -0.7071 0.7071 -0.7071 712.1371 450.0754)" fill="#666666" width="25.902" height="1.493"/>
<path fill="#FFFFFF" d="M384.87,256.362c-0.675,0.318-1.287,0.544-1.835,0.673s-1.142,0.193-1.777,0.193
	c-0.723,0-1.147-0.091-1.704-0.273c-0.555-0.184-1.027-0.448-1.421-0.785c-0.393-0.341-0.664-0.703-0.814-1.084
	c-0.151-0.382-0.229-0.937-0.229-1.665v-5.572h-2.146v-2.25c0.621-0.202,1.341-0.493,1.78-0.872
	c0.445-0.379,0.801-0.834,1.067-1.365c0.269-0.53,0.453-1.205,0.554-2.025h2.249v3.676h3.655v2.836h-3.655v4.075
	c0,0.922-0.012,1.453,0.085,1.713c0.098,0.261,0.338,0.531,0.604,0.687c0.35,0.21,0.749,0.316,1.199,0.316
	c0.801,0,1.597-0.262,2.389-0.785L384.87,256.362L384.87,256.362z"/>
<path fill="#FFFFFF" d="M367.146,196.706v25.523h25.52v-25.523H367.146z M384.87,216.486c-0.675,0.318-1.287,0.544-1.835,0.673
	c-0.548,0.129-1.142,0.193-1.777,0.193c-0.723,0-1.147-0.091-1.704-0.273c-0.555-0.184-1.027-0.448-1.421-0.785
	c-0.393-0.341-0.664-0.703-0.814-1.084c-0.151-0.382-0.229-0.937-0.229-1.665v-5.572h-2.146v-2.25
	c0.621-0.202,1.341-0.493,1.78-0.872c0.445-0.379,0.801-0.834,1.067-1.365c0.269-0.53,0.453-1.205,0.554-2.025h2.249v3.676h3.655
	v2.836h-3.655v4.075c0,0.922-0.012,1.453,0.085,1.713c0.098,0.261,0.338,0.531,0.604,0.687c0.35,0.21,0.749,0.316,1.199,0.316
	c0.801,0,1.597-0.262,2.389-0.785L384.87,216.486L384.87,216.486z"/>
</svg>
