<?xml version="1.0" encoding="utf-8"?>
<!-- Generator: Adobe Illustrator 16.0.0, SVG Export Plug-In . SVG Version: 6.00 Build 0)  -->
<!DOCTYPE svg PUBLIC "-//W3C//DTD SVG 1.1//EN" "http://www.w3.org/Graphics/SVG/1.1/DTD/svg11.dtd">
<svg version="1.1" id="Layer_1" xmlns="http://www.w3.org/2000/svg" xmlns:xlink="http://www.w3.org/1999/xlink" x="0px" y="0px"
	 width="612px" height="792px" viewBox="0 0 612 792" enable-background="new 0 0 612 792" xml:space="preserve">
<g>
	
		<rect x="2.634" y="6.101" fill="none" stroke="#010101" stroke-width="1.1583" stroke-miterlimit="10" width="17.76" height="12.385"/>
	<polyline fill="none" stroke="#010101" stroke-width="1.1583" stroke-miterlimit="10" points="2.634,6.101 11.515,14.981 
		20.395,6.101 	"/>
	<line fill="none" stroke="#010101" stroke-width="1.1583" stroke-miterlimit="10" x1="8.853" y1="12.267" x2="2.634" y2="18.486"/>
	
		<line fill="none" stroke="#010101" stroke-width="1.1583" stroke-miterlimit="10" x1="20.395" y1="18.486" x2="14.166" y2="12.258"/>
</g>
<path fill="#010101" d="M19.48,48.622c-0.576-0.383-1.04-0.736-1.498-1.083c-0.417-0.318-0.85-0.646-1.302-0.935
	c-1.062-0.676-2.161-0.673-2.837,0.003c-0.302,0.303-0.584,0.477-0.739,0.55c-0.41-0.265-1.523-1.13-2.579-2.186l-0.044-0.045
	c-1.059-1.057-1.921-2.169-2.185-2.579c0.07-0.15,0.24-0.423,0.54-0.723c0.697-0.697,0.703-1.758,0.016-2.839
	c-0.289-0.452-0.615-0.883-0.93-1.3c-0.337-0.447-0.686-0.909-1.074-1.49c-0.104-0.156-0.215-0.293-0.332-0.41
	c-0.354-0.354-0.777-0.54-1.228-0.54c-0.477,0-0.811,0.203-0.921,0.281l-1.469,1.459c-0.917,0.916-1.336,1.762-0.766,3.375
	c0.525,1.489,3.124,5.562,5.333,7.771l0.053,0.054c2.221,2.22,6.304,4.828,7.792,5.354c0.527,0.186,0.954,0.272,1.344,0.272
	c0.725,0,1.339-0.304,2.053-1.018l1.421-1.423l0.062-0.076c0.25-0.387,0.51-1.333-0.299-2.144
	C19.774,48.837,19.635,48.726,19.48,48.622z M19.315,50.482l-1.361,1.362c-0.458,0.457-0.8,0.705-1.304,0.705
	c-0.264,0-0.576-0.067-0.986-0.212c-1.211-0.427-5.167-2.876-7.393-5.103L8.217,47.18c-2.213-2.212-4.653-6.16-5.081-7.371
	c-0.394-1.117-0.226-1.527,0.515-2.269l1.365-1.364c0.053-0.028,0.147-0.066,0.266-0.066c0.167,0,0.329,0.076,0.481,0.229
	c0.068,0.069,0.135,0.152,0.199,0.247c0.404,0.605,0.779,1.104,1.116,1.548c0.331,0.438,0.615,0.816,0.876,1.226
	c0.192,0.302,0.59,1.053,0.129,1.514c-0.452,0.452-0.953,1.152-0.874,1.635c0.07,0.43,1.436,2.088,2.52,3.171l0.044,0.044
	c1.085,1.085,2.743,2.452,3.173,2.521c0.481,0.08,1.208-0.442,1.651-0.885c0.14-0.14,0.312-0.208,0.525-0.208
	c0.382,0,0.782,0.219,0.987,0.35c0.408,0.258,0.787,0.546,1.225,0.879l0.025,0.018c0.437,0.333,0.933,0.708,1.532,1.108
	c0.096,0.064,0.179,0.131,0.247,0.199C19.47,50.039,19.38,50.349,19.315,50.482z M17.657,38.243c1.189,1.189,2.023,2.699,2.41,4.367
	l0.027,0.118l1.061-0.136l-0.032-0.142c-0.425-1.895-1.364-3.609-2.713-4.96c-1.504-1.502-3.429-2.482-5.569-2.831l-0.137-0.023
	l-0.134,1.056l0.126,0.021C14.605,36.031,16.32,36.906,17.657,38.243z M16.225,39.675c0.873,0.874,1.503,1.979,1.824,3.196
	l0.029,0.113l1.061-0.135l-0.035-0.146c-0.359-1.441-1.094-2.748-2.125-3.78c-1.184-1.183-2.701-1.961-4.391-2.253l-0.137-0.023
	l-0.135,1.055l0.125,0.022C13.897,37.982,15.207,38.658,16.225,39.675z M14.792,41.109c0.566,0.565,0.979,1.248,1.226,2.027
	l0.033,0.105l1.068-0.135l-0.044-0.15c-0.292-1.001-0.806-1.876-1.531-2.601c-0.864-0.865-1.974-1.444-3.211-1.677l-0.139-0.026
	l-0.134,1.056l0.122,0.025C13.188,39.931,14.091,40.407,14.792,41.109z"/>
<g>
	<path fill="#FFFFFF" d="M2.931,72.733c0.435,0,0.787-0.352,0.787-0.787v-4.394l6.917,6.917c0.153,0.154,0.355,0.231,0.557,0.231
		c0.201,0,0.402-0.077,0.556-0.231c0.308-0.307,0.308-0.805,0-1.112L4.83,66.44h4.394c0.435,0,0.787-0.353,0.787-0.787
		c0-0.434-0.353-0.786-0.787-0.786H2.931c-0.435,0-0.787,0.352-0.787,0.786v6.293C2.145,72.381,2.497,72.733,2.931,72.733z"/>
	<path fill="#FFFFFF" d="M2.931,86.893h6.293c0.435,0,0.787-0.352,0.787-0.787c0-0.434-0.353-0.787-0.787-0.787H4.83l6.917-6.917
		c0.308-0.307,0.308-0.805,0-1.112c-0.307-0.307-0.806-0.307-1.112,0l-6.917,6.917v-4.394c0-0.435-0.352-0.787-0.787-0.787
		s-0.787,0.352-0.787,0.787v6.292C2.145,86.541,2.497,86.893,2.931,86.893z"/>
	<path fill="#FFFFFF" d="M26.53,79.026c-0.434,0-0.787,0.352-0.787,0.787v4.394l-6.917-6.917c-0.307-0.307-0.805-0.307-1.112,0
		c-0.307,0.307-0.307,0.806,0,1.112l6.917,6.917h-4.394c-0.435,0-0.787,0.353-0.787,0.787c0,0.435,0.352,0.787,0.787,0.787h6.293
		c0.435,0,0.787-0.352,0.787-0.787v-6.292C27.316,79.378,26.964,79.026,26.53,79.026z"/>
	<path fill="#FFFFFF" d="M26.53,64.867h-6.293c-0.435,0-0.787,0.352-0.787,0.786c0,0.435,0.352,0.787,0.787,0.787h4.394
		l-6.917,6.917c-0.307,0.307-0.307,0.805,0,1.112c0.153,0.154,0.355,0.231,0.556,0.231c0.201,0,0.402-0.077,0.556-0.231l6.917-6.917
		v4.394c0,0.435,0.353,0.787,0.787,0.787c0.435,0,0.787-0.352,0.787-0.787v-6.293C27.316,65.219,26.964,64.867,26.53,64.867z"/>
</g>
<g>
	<path fill="#FFFFFF" d="M9.207,105.414h-1.96c-0.418,0-0.758,0.339-0.758,0.758c0,0.418,0.339,0.758,0.758,0.758h4.548v-4.548
		c0-0.419-0.339-0.758-0.757-0.758c-0.419,0-0.759,0.339-0.759,0.758v1.96l-6.286-6.286c-0.295-0.296-0.776-0.296-1.073,0
		c-0.295,0.296-0.295,0.775,0,1.071L9.207,105.414z"/>
	<path fill="#FFFFFF" d="M20.448,111.479h1.96c0.419,0,0.758-0.339,0.758-0.758c0-0.419-0.339-0.758-0.758-0.758h-4.548v4.549
		c0,0.418,0.338,0.757,0.757,0.757s0.758-0.339,0.758-0.757v-1.96l6.287,6.286c0.147,0.148,0.341,0.222,0.536,0.222
		c0.195,0,0.389-0.074,0.536-0.222c0.297-0.296,0.297-0.775,0-1.072L20.448,111.479z"/>
	<path fill="#FFFFFF" d="M3.457,119.06c0.194,0,0.388-0.074,0.536-0.222l6.286-6.286v1.96c0,0.418,0.34,0.757,0.759,0.757
		c0.418,0,0.757-0.339,0.757-0.757v-4.549H7.247c-0.418,0-0.758,0.339-0.758,0.758c0,0.418,0.339,0.758,0.758,0.758h1.96
		l-6.287,6.287c-0.295,0.296-0.295,0.775,0,1.072C3.068,118.985,3.262,119.06,3.457,119.06z"/>
	<path fill="#FFFFFF" d="M25.663,98.056l-6.287,6.286v-1.96c0-0.419-0.339-0.758-0.758-0.758s-0.757,0.339-0.757,0.758v4.548h4.548
		c0.419,0,0.758-0.339,0.758-0.758c0-0.419-0.339-0.758-0.758-0.758h-1.96l6.286-6.287c0.297-0.296,0.297-0.775,0-1.071
		C26.44,97.759,25.958,97.759,25.663,98.056z"/>
</g>
</svg>
