<?xml version="1.0" encoding="utf-8"?>
<!-- Generator: Adobe Illustrator 16.0.0, SVG Export Plug-In . SVG Version: 6.00 Build 0)  -->
<!DOCTYPE svg PUBLIC "-//W3C//DTD SVG 1.1//EN" "http://www.w3.org/Graphics/SVG/1.1/DTD/svg11.dtd">
<svg version="1.1" id="Layer_1" xmlns="http://www.w3.org/2000/svg" xmlns:xlink="http://www.w3.org/1999/xlink" x="0px" y="0px"
	 width="207.858px" height="14.069px" viewBox="0 0 207.858 14.069" enable-background="new 0 0 207.858 14.069"
	 xml:space="preserve">
<g>
	<path fill="#FFFFFF" d="M201.051,9.679V1.956l5.359,8.614h0.527V1.153l0.893-0.891h-2.691l0.891,0.891v6.551l-4.646-7.441h-2.133
		l0.875,0.891v8.526l-0.875,0.891h2.693L201.051,9.679z M193.088,10.011c-2.061,0-2.777-2.465-2.777-4.596s0.717-4.594,2.777-4.594
		c2.08,0,2.795,2.463,2.795,4.594S195.168,10.011,193.088,10.011 M188.967,5.415c0,2.622,1.484,5.381,4.121,5.381
		c2.656,0,4.141-2.76,4.141-5.381c0-2.619-1.484-5.379-4.141-5.379C190.451,0.036,188.967,2.795,188.967,5.415 M184.307,9.749V1.03
		h1.955l1.1,1.102V0.262h-7.25v1.869l1.119-1.102h1.939v8.719l-0.805,0.82h2.76L184.307,9.749z M176.674,5.887v3.319
		c-0.244,0.246-0.732,0.734-1.693,0.734c-2.289,0-3.441-2.305-3.441-4.526c0-2.234,1.449-4.523,3.441-4.523
		c0.523,0,0.908,0.121,1.258,0.49l1.135,1.117V0.715c-0.611-0.314-1.223-0.594-2.393-0.594c-2.812,0-4.787,2.516-4.787,5.293
		c0,2.727,1.975,5.293,4.787,5.293c1.59,0,2.271-0.383,2.83-0.75V5.887l0.803-0.82h-2.76L176.674,5.887z M161.393,9.679V1.956
		l5.422,8.618l0.467-0.004V1.153l0.889-0.891h-2.689l0.891,0.891v6.551l-4.646-7.441h-2.133l0.875,0.891v8.526l-0.875,0.891h2.693
		L161.393,9.679z M154.004,0.262l0.82,0.822v8.665l-0.82,0.82h2.775l-0.82-0.82V1.084l0.82-0.822H154.004z M144.85,5.397h4.332
		v4.352l-0.82,0.82h2.777l-0.822-0.82V1.084l0.822-0.822h-2.777l0.82,0.822v3.545h-4.332V1.084l0.822-0.822h-2.762l0.805,0.822
		v8.665l-0.805,0.82h2.762l-0.822-0.82V5.397z M140.203,7.704c0-1.014-0.471-1.643-0.961-1.975l-2.096-1.52
		c-0.752-0.541-1.135-1.238-1.135-1.764c0-1.082,0.926-1.467,1.484-1.467c0.295,0,0.506,0.121,0.664,0.121l0.908,0.979l0.961-1.432
		l-2.045-0.385c-0.139-0.035-0.227-0.053-0.488-0.053c-1.799,0-2.621,1.537-2.621,2.533c0,0.785,0.4,1.678,1.326,2.357l2.115,1.52
		c0.576,0.402,0.732,0.996,0.732,1.504c0,0.873-0.539,1.816-1.709,1.816c-0.281,0-0.527-0.053-0.719-0.141l-0.977-1.152
		l-0.891,1.607l1.973,0.385c0,0,0.332,0.068,0.613,0.068C138.578,10.708,140.203,9.661,140.203,7.704 M128.672,2.551l1.416,4.262
		h-2.883L128.672,2.551z M126.191,9.765l0.75-2.184h3.408l0.715,2.184l-0.803,0.805h2.918l-0.822-0.84l-3.213-9.467h-0.525
		l-3.268,9.467l-0.838,0.84h2.48L126.191,9.765z M115.232,10.569l2.359-7.459l2.287,7.459h0.525l2.986-9.485l0.838-0.822h-2.48
		l0.805,0.805l-2.184,7.125l-2.115-7.125l0.805-0.805h-2.918l0.822,0.822l0.209,0.68l-1.975,6.428l-2.113-7.125l0.803-0.805h-2.916
		l0.838,0.822l2.9,9.485H115.232z M99.958,4.391l-0.391,0.377l0.043,0.145h1.204c-0.189,1.307-0.363,2.439-0.638,4.268
		c-0.391,2.713-0.725,3.672-1.001,3.904c-0.088,0.086-0.232,0.129-0.362,0.129c-0.175,0-0.451-0.129-0.64-0.217
		c-0.173-0.088-0.318,0.014-0.406,0.102c-0.115,0.131-0.245,0.334-0.245,0.494c0,0.289,0.377,0.436,0.624,0.436
		c0.276,0,0.972-0.232,1.596-1.002c0.493-0.609,1.159-2.018,1.725-5.297c0.102-0.611,0.219-1.219,0.467-2.816l1.479-0.145
		l0.318-0.377h-1.711c0.434-2.686,0.797-3.498,1.422-3.498c0.436,0,0.797,0.174,1.117,0.479c0.102,0.102,0.262,0.102,0.406-0.014
		c0.115-0.102,0.291-0.334,0.291-0.537c0.014-0.291-0.379-0.609-0.873-0.609c-0.842,0-1.725,0.494-2.334,1.219
		c-0.566,0.682-0.943,1.785-1.148,2.961H99.958z M93.429,8.192c0-2.147,1.087-3.309,1.539-3.497
		c0.128-0.059,0.333-0.117,0.478-0.117c0.725,0,1.147,0.553,1.147,1.67c0.029,1.887-0.958,3.6-1.567,3.803
		c-0.117,0.043-0.305,0.1-0.449,0.1C93.762,10.151,93.429,9.282,93.429,8.192 M95.909,4.043c-0.377,0-0.971,0.172-1.566,0.521
		c-1.003,0.596-2.091,1.945-2.091,3.977c0,1.016,0.478,2.148,1.829,2.148c0.639,0,1.553-0.422,2.163-0.973
		c0.958-0.871,1.522-2.366,1.522-3.659C97.767,4.854,97.128,4.043,95.909,4.043 M79.092,1.084l2.603,4.697v3.967l-0.82,0.82h2.777
		l-0.82-0.82V5.782L85.486,1.1l0.856-0.838h-2.55l0.804,0.805l-2.167,3.859l-2.062-3.859l0.804-0.805h-2.917L79.092,1.084z
		 M73.661,9.749V1.03h1.956l1.101,1.102V0.262h-7.25v1.869l1.118-1.102h1.938v8.719l-0.803,0.82h2.759L73.661,9.749z M64.313,0.262
		l0.822,0.822v8.665l-0.822,0.82h2.779l-0.821-0.82V1.084l0.821-0.822H64.313z M61.328,7.704c0-1.014-0.473-1.643-0.961-1.975
		l-2.097-1.52c-0.751-0.541-1.135-1.238-1.135-1.764c0-1.082,0.926-1.467,1.485-1.467c0.297,0,0.506,0.121,0.664,0.121l0.909,0.979
		l0.96-1.432l-2.043-0.385c-0.14-0.035-0.227-0.053-0.489-0.053c-1.8,0-2.621,1.537-2.621,2.533c0,0.785,0.402,1.678,1.328,2.357
		l2.115,1.52c0.576,0.402,0.733,0.996,0.733,1.504c0,0.873-0.542,1.816-1.712,1.816c-0.279,0-0.524-0.053-0.716-0.141l-0.979-1.152
		l-0.891,1.607l1.974,0.385c0,0,0.332,0.068,0.611,0.068C59.703,10.708,61.328,9.661,61.328,7.704 M48.085,1.03h1.258
		c1.101,0,1.975,0.943,1.975,2.062c0,1.064-0.892,1.904-1.975,1.904h-1.258V1.03z M48.085,9.749V5.766h1.556l2.497,4.803h1.712
		l-0.804-0.82L50.741,5.52c1.153-0.35,1.939-1.432,1.939-2.41c0-1.746-1.624-2.848-3.337-2.848h-3.196l0.803,0.822v8.665
		l-0.803,0.82h2.759L48.085,9.749z M43.457,10.569V8.683L42.356,9.8h-3.127V5.469h2.323l0.822,0.818V3.879L41.552,4.7h-2.323V1.03
		h3.127l1.101,1.102V0.262h-6.167l0.804,0.822v8.665l-0.804,0.82H43.457z M30.092,0.262h-2.917l0.839,0.822l2.899,9.485h0.524
		l2.986-9.485l0.839-0.822h-2.481l0.804,0.805l-2.184,7.125L29.29,1.067L30.092,0.262z M22.093,0.262l0.821,0.822v8.665l-0.821,0.82
		h2.777l-0.821-0.82V1.084l0.821-0.822H22.093z M12.502,9.679V1.956l5.53,8.614h0.357V1.153l0.892-0.891H16.59l0.891,0.891v6.551
		l-4.646-7.441h-2.131l0.874,0.891v8.526l-0.874,0.891h2.69L12.502,9.679z M0.902,7.809c0,1.694,1.433,2.987,3.198,2.987
		c1.676,0,3.336-1.24,3.336-2.987V1.153L8.31,0.262H5.619L6.51,1.153v6.656c0,1.188-0.942,2.131-2.131,2.131
		c-1.205,0-2.271-0.926-2.271-2.131V1.153L3,0.262H0.012l0.89,0.891V7.809z"/>
</g>
</svg>
