<?xml version="1.0" standalone="no"?>
<!DOCTYPE svg PUBLIC "-//W3C//DTD SVG 1.1//EN" "http://www.w3.org/Graphics/SVG/1.1/DTD/svg11.dtd" >
<svg xmlns="http://www.w3.org/2000/svg">
<metadata>Generated by IcoMoon</metadata>
<defs>
<font id="icomoon" horiz-adv-x="1024">
<font-face units-per-em="1024" ascent="960" descent="-64" />
<missing-glyph horiz-adv-x="1024" />
<glyph unicode="&#x20;" horiz-adv-x="512" d="" />
<glyph unicode="&#xe900;" glyph-name="flag" horiz-adv-x="1047" d="M299.786 797.344c-13.005 0-23.56-10.555-23.56-23.56v-706.792c0-13.005 10.555-23.56 23.56-23.56s23.56 10.555 23.56 23.56v353.396h447.635c8.163 0 15.75 4.229 20.038 11.179 4.288 6.938 4.677 15.608 1.037 22.912l-65.414 130.815 65.414 130.815c3.652 7.304 3.251 15.973-1.037 22.924s-11.874 11.167-20.038 11.167h-447.635v23.56c0 13.040-10.555 23.583-23.56 23.583zM732.849 703.105l-53.634-107.256c-3.31-6.62-3.31-14.442 0-21.074l53.634-107.256h-409.503v235.597h409.503z" />
<glyph unicode="&#xe901;" glyph-name="check" horiz-adv-x="1047" d="M522.508 65.955c100.682 0 195.345 39.215 266.531 110.413 71.197 71.197 110.424 165.86 110.424 266.543 0 100.694-39.215 195.345-110.413 266.543s-165.86 110.413-266.543 110.413-195.345-39.215-266.531-110.413c-71.197-71.197-110.424-165.849-110.424-266.543 0-100.682 39.215-195.345 110.413-266.531 71.197-71.209 165.86-110.424 266.543-110.424zM289.302 676.141c62.292 62.304 145.116 96.607 233.218 96.607s170.926-34.303 233.218-96.618c62.304-62.28 96.618-145.104 96.618-233.218 0-88.102-34.315-170.926-96.618-233.218-62.292-62.304-145.116-96.618-233.218-96.618s-170.926 34.315-233.218 96.618c-62.304 62.292-96.618 145.116-96.618 233.218-0.012 88.102 34.303 170.938 96.618 233.23zM427.527 254.433c0.247 0 0.495 0 0.742 0 6.396 0 12.534 2.615 16.987 7.233l294.497 306.276c9.012 9.377 8.729 24.29-0.66 33.313s-24.29 8.717-33.313-0.66l-276.391-287.452-112.71 133.207c-8.411 9.942-23.277 11.179-33.207 2.768s-11.167-23.277-2.768-33.207l129.578-153.138c4.311-5.101 10.578-8.34 17.246-8.34z" />
<glyph unicode="&#xe902;" glyph-name="minus" horiz-adv-x="1047" d="M522.508 819.867c-100.694 0-195.357-39.215-266.543-110.413-71.209-71.197-110.424-165.849-110.424-266.543 0-100.682 39.215-195.345 110.424-266.531 71.186-71.209 165.849-110.424 266.543-110.424s195.357 39.215 266.543 110.413c71.209 71.197 110.424 165.86 110.424 266.543 0 100.694-39.215 195.345-110.424 266.543-71.186 71.197-165.849 110.413-266.543 110.413zM755.737 209.693c-62.292-62.304-145.116-96.618-233.23-96.618s-170.938 34.315-233.23 96.618c-62.304 62.292-96.618 145.116-96.618 233.218s34.315 170.938 96.618 233.23c62.292 62.304 145.116 96.607 233.23 96.607s170.938-34.303 233.23-96.618c62.304-62.28 96.618-145.104 96.618-233.218 0-88.102-34.315-170.926-96.618-233.218zM734.545 466.471h-424.075c-13.005 0-23.56-10.555-23.56-23.56s10.555-23.56 23.56-23.56h424.075c13.005 0 23.56 10.555 23.56 23.56s-10.543 23.56-23.56 23.56z" />
<glyph unicode="&#xe903;" glyph-name="person" horiz-adv-x="1047" d="M522.508 325.112c97.431 0 176.698 100.4 176.698 223.817s-79.267 223.817-176.698 223.817-176.698-100.4-176.698-223.817 79.267-223.817 176.698-223.817zM522.508 725.628c70.243 0 129.578-80.916 129.578-176.698s-59.335-176.698-129.578-176.698-129.578 80.916-129.578 176.698 59.347 176.698 129.578 176.698zM193.885 285.45l-47.119-141.358c-2.391-7.186-1.19-15.078 3.239-21.227 4.417-6.149 11.532-9.789 19.107-9.789h706.792c7.574 0 14.689 3.64 19.107 9.789 4.429 6.137 5.643 14.030 3.239 21.227l-47.119 141.358c-2.462 7.374-8.399 13.052-15.879 15.196l-164.918 47.119c-5.678 1.637-11.733 1.060-17.010-1.579l-130.815-65.414-130.815 65.414c-5.277 2.639-11.332 3.204-17.010 1.579l-164.918-47.119c-7.48-2.144-13.417-7.822-15.879-15.196zM378.817 299.939l133.16-66.58c6.62-3.31 14.454-3.31 21.074 0l133.16 66.58 144.162-41.182 32.854-98.562h-641.425l32.854 98.562 144.162 41.182z" />
<glyph unicode="&#xe904;" glyph-name="plus" horiz-adv-x="1047" d="M522.508 819.879c-100.694 0-195.357-39.227-266.543-110.424-71.209-71.197-110.424-165.849-110.424-266.543 0-100.682 39.215-195.334 110.424-266.531 71.186-71.209 165.849-110.424 266.543-110.424 100.682 0 195.345 39.215 266.543 110.424 71.209 71.197 110.424 165.849 110.424 266.531 0 100.694-39.215 195.345-110.424 266.531-71.197 71.209-165.86 110.436-266.543 110.436zM755.737 209.693c-62.304-62.304-145.128-96.618-233.23-96.618s-170.938 34.315-233.23 96.63c-62.304 62.292-96.618 145.104-96.618 233.206s34.315 170.926 96.618 233.218c62.292 62.315 145.116 96.63 233.23 96.63 88.102 0 170.926-34.315 233.23-96.63 62.304-62.292 96.618-145.116 96.618-233.218s-34.315-170.914-96.618-233.218zM734.545 466.471h-188.478v188.478c0 13.005-10.555 23.56-23.56 23.56s-23.56-10.555-23.56-23.56v-188.478h-188.478c-13.005 0-23.56-10.555-23.56-23.56s10.555-23.56 23.56-23.56h188.478v-188.478c0-13.005 10.555-23.56 23.56-23.56s23.56 10.555 23.56 23.56v188.478h188.478c13.005 0 23.56 10.555 23.56 23.56s-10.543 23.56-23.56 23.56z" />
<glyph unicode="&#xe905;" glyph-name="camera" horiz-adv-x="1047" d="M145.552 195.534c0-13.005 10.555-23.56 23.56-23.56h706.792c13.005 0 23.56 10.555 23.56 23.56v424.075c0 13.005-10.555 23.56-23.56 23.56h-494.754v47.119c0 13.005-10.555 23.56-23.56 23.56h-117.799c-13.005 0-23.56-10.555-23.56-23.56v-47.119h-47.119c-13.005 0-23.56-10.555-23.56-23.56v-424.075zM263.351 666.729h70.679v-23.56h-70.679v23.56zM192.671 596.049h659.672v-376.956h-659.672v376.956zM616.747 548.93c-77.947 0-141.358-63.411-141.358-141.358s63.411-141.358 141.358-141.358 141.358 63.411 141.358 141.358-63.411 141.358-141.358 141.358zM616.747 313.333c-51.961 0-94.239 42.278-94.239 94.239s42.278 94.239 94.239 94.239 94.239-42.278 94.239-94.239-42.266-94.239-94.239-94.239zM334.030 537.15h-70.679c-13.005 0-23.56-10.555-23.56-23.56s10.555-23.56 23.56-23.56h70.679c13.005 0 23.56 10.555 23.56 23.56s-10.543 23.56-23.56 23.56z" />
<glyph unicode="&#xe906;" glyph-name="mail" horiz-adv-x="1047" d="M875.904 678.508h-706.792c-13.005 0-23.56-10.555-23.56-23.56v-424.075c0-13.005 10.555-23.56 23.56-23.56h706.792c13.005 0 23.56 10.555 23.56 23.56v424.075c0 13.005-10.543 23.56-23.56 23.56zM800.477 631.389l-277.969-172.528-277.958 172.528h555.927zM192.671 254.433v353.69l329.836-204.722 329.836 204.722v-353.69h-659.672z" />
<glyph unicode="&#xe907;" glyph-name="search" horiz-adv-x="1047" d="M680.534 388.889c-9.2 9.2-24.113 9.2-33.313 0l-18.683-18.683-44.893 44.905c35.375 42.796 56.673 97.643 56.673 157.379 0 136.411-110.978 247.377-247.377 247.377s-247.377-110.966-247.377-247.377c0-136.399 110.978-247.377 247.377-247.377 59.736 0 114.595 21.298 157.391 56.685l44.893-44.905-18.683-18.683c-9.2-9.188-9.2-24.113 0-33.313l212.038-212.038c4.606-4.606 10.625-6.903 16.657-6.903s12.051 2.297 16.657 6.903l70.679 70.679c9.2 9.2 9.2 24.125 0 33.313l-212.038 212.038zM192.671 572.49c0 110.424 89.833 200.258 200.258 200.258s200.258-89.833 200.258-200.258-89.833-200.258-200.258-200.258-200.258 89.833-200.258 200.258zM805.224 122.84l-178.712 178.712 37.366 37.366 178.724-178.724-37.378-37.354z" />
<glyph unicode="&#xe908;" glyph-name="key" horiz-adv-x="1047" d="M734.545 607.829c-82.918 0-151.536-61.573-163.033-141.358h-402.4c-13.005 0-23.56-10.555-23.56-23.56s10.555-23.56 23.56-23.56h23.56v-70.679c0-13.005 10.555-23.56 23.56-23.56s23.56 10.555 23.56 23.56v70.679h47.119v-23.56c0-13.005 10.555-23.56 23.56-23.56s23.56 10.555 23.56 23.56v23.56h237.482c11.497-79.785 80.115-141.358 163.033-141.358 90.941 0 164.918 73.978 164.918 164.918s-73.978 164.918-164.918 164.918zM734.545 325.112c-64.954 0-117.799 52.844-117.799 117.799 0 64.966 52.844 117.799 117.799 117.799s117.799-52.833 117.799-117.799c0-64.954-52.844-117.799-117.799-117.799z" />
<glyph unicode="&#xe909;" glyph-name="clipboard" horiz-adv-x="1047" d="M666.658 749.188l-28.825 57.662c-3.993 7.987-12.157 13.017-21.074 13.017h-188.478c-8.917 0-17.081-5.042-21.074-13.017l-28.825-57.662h-115.019c-13.005 0-23.56-10.555-23.56-23.56v-636.113c0-13.005 10.555-23.56 23.56-23.56h518.314c13.005 0 23.56 10.555 23.56 23.56v636.113c0 13.005-10.555 23.56-23.56 23.56h-115.019zM442.829 772.747h159.358l47.119-94.239h-253.597l47.119 94.239zM758.105 113.075h-471.195v588.993h67.899l-18.294-36.576c-3.652-7.304-3.263-15.973 1.037-22.912 4.288-6.95 11.874-11.179 20.038-11.179h329.836c0.082 0 0.153 0 0.236 0 13.005 0 23.56 10.555 23.56 23.56 0 4.924-1.508 9.495-4.088 13.276l-16.928 33.844h67.899v-589.005zM687.426 560.71h-212.038c-13.005 0-23.56-10.555-23.56-23.56s10.555-23.56 23.56-23.56h212.038c13.005 0 23.56 10.555 23.56 23.56s-10.543 23.56-23.56 23.56zM687.426 442.911h-212.038c-13.005 0-23.56-10.555-23.56-23.56s10.555-23.56 23.56-23.56h212.038c13.005 0 23.56 10.555 23.56 23.56s-10.543 23.56-23.56 23.56zM687.426 325.112h-212.038c-13.005 0-23.56-10.555-23.56-23.56s10.555-23.56 23.56-23.56h212.038c13.005 0 23.56 10.555 23.56 23.56s-10.543 23.56-23.56 23.56zM687.426 207.314h-212.038c-13.005 0-23.56-10.555-23.56-23.56s10.555-23.56 23.56-23.56h212.038c13.005 0 23.56 10.555 23.56 23.56s-10.543 23.56-23.56 23.56zM381.149 560.71h-23.56c-13.005 0-23.56-10.555-23.56-23.56s10.555-23.56 23.56-23.56h23.56c13.005 0 23.56 10.555 23.56 23.56s-10.543 23.56-23.56 23.56zM381.149 442.911h-23.56c-13.005 0-23.56-10.555-23.56-23.56s10.555-23.56 23.56-23.56h23.56c13.005 0 23.56 10.555 23.56 23.56s-10.543 23.56-23.56 23.56zM381.149 325.112h-23.56c-13.005 0-23.56-10.555-23.56-23.56s10.555-23.56 23.56-23.56h23.56c13.005 0 23.56 10.555 23.56 23.56s-10.543 23.56-23.56 23.56zM381.149 207.314h-23.56c-13.005 0-23.56-10.555-23.56-23.56s10.555-23.56 23.56-23.56h23.56c13.005 0 23.56 10.555 23.56 23.56s-10.543 23.56-23.56 23.56z" />
<glyph unicode="&#xe90a;" glyph-name="bookmark" horiz-adv-x="1047" d="M435.172 72.858c4.594-4.606 10.625-6.903 16.657-6.903s12.063 2.297 16.657 6.903l424.075 424.075c4.417 4.417 6.903 10.413 6.903 16.657v282.717c0 13.005-10.555 23.56-23.56 23.56h-282.717c-6.243 0-12.239-2.486-16.657-6.903l-424.075-424.075c-9.2-9.2-9.2-24.113 0-33.313l282.717-282.717zM602.952 772.747h249.391v-249.403l-400.515-400.515-249.391 249.403 400.515 400.515zM699.206 525.37c51.961 0 94.239 42.278 94.239 94.239s-42.278 94.239-94.239 94.239-94.239-42.278-94.239-94.239 42.278-94.239 94.239-94.239zM699.206 666.729c25.986 0 47.119-21.133 47.119-47.119s-21.133-47.119-47.119-47.119-47.119 21.133-47.119 47.119 21.145 47.119 47.119 47.119z" />
<glyph unicode="&#xe90b;" glyph-name="ticket" horiz-adv-x="1047" d="M152.455 332.015l62.952-62.94c9.2-9.2 24.125-9.2 33.313 0 13.347 13.347 31.099 20.697 49.97 20.697 38.98 0 70.679-31.7 70.679-70.679 0-18.883-7.362-36.624-20.709-49.982-4.417-4.417-6.903-10.413-6.903-16.657s2.486-12.239 6.903-16.657l62.952-62.94c4.606-4.606 10.625-6.903 16.657-6.903s12.063 2.297 16.657 6.903l447.635 447.635c4.417 4.417 6.903 10.413 6.903 16.657s-2.486 12.239-6.903 16.657l-62.952 62.94c-9.2 9.2-24.125 9.2-33.313 0-13.347-13.347-31.099-20.697-49.97-20.697-38.98 0-70.679 31.7-70.679 70.679 0 18.883 7.362 36.624 20.709 49.982 4.417 4.417 6.903 10.413 6.903 16.657s-2.486 12.239-6.903 16.657l-62.952 62.94c-9.2 9.2-24.125 9.2-33.313 0l-447.635-447.635c-4.417-4.417-6.903-10.413-6.903-16.657s2.486-12.239 6.903-16.657zM451.828 598.075l18.683-18.683c4.594-4.606 10.625-6.903 16.657-6.903s12.063 2.297 16.657 6.903c9.2 9.2 9.2 24.113 0 33.313l-18.683 18.683 131.605 131.605 31.287-31.276c-12.687-19.107-19.507-41.524-19.507-64.99 0-64.954 52.844-117.799 117.799-117.799 23.465 0 45.871 6.809 64.978 19.496l31.287-31.276-131.605-131.605-18.683 18.683c-9.188 9.2-24.125 9.2-33.313 0-9.2-9.2-9.2-24.113 0-33.313l18.683-18.683-249.403-249.403-31.287 31.276c12.687 19.107 19.507 41.524 19.507 64.99 0 64.954-52.844 117.799-117.799 117.799-23.465 0-45.871-6.809-64.978-19.496l-31.287 31.276 249.403 249.403zM541.19 508.713c4.594-4.606 10.625-6.903 16.657-6.903s12.063 2.297 16.657 6.903c9.2 9.2 9.2 24.113 0 33.313l-23.56 23.56c-9.188 9.2-24.125 9.2-33.313 0-9.2-9.2-9.2-24.113 0-33.313l23.56-23.56zM588.31 461.594l23.56-23.56c4.594-4.606 10.625-6.903 16.657-6.903s12.063 2.297 16.657 6.903c9.2 9.2 9.2 24.113 0 33.313l-23.56 23.56c-9.188 9.2-24.125 9.2-33.313 0-9.2-9.2-9.2-24.113 0-33.313z" />
<glyph unicode="&#xe90c;" glyph-name="heart" horiz-adv-x="1047" d="M710.985 784.527c-81.953 0-153.185-41.548-188.478-102.179-35.269 60.619-106.525 102.179-188.478 102.179-123.736 0-188.478-106.667-188.478-212.038 0-246.117 349.944-458.896 364.834-467.837 3.746-2.226 7.94-3.357 12.121-3.357 4.205 0 8.399 1.131 12.121 3.357 14.913 8.941 364.834 221.721 364.834 467.837 0 105.371-64.742 212.038-188.478 212.038zM522.508 152.691c-60.902 39.298-329.836 223.959-329.836 419.799 0 79.42 44.245 164.918 141.358 164.918 79.326 0 164.918-54.046 164.918-141.358 0-13.005 10.555-23.56 23.56-23.56 13.017 0 23.56 10.555 23.56 23.56 0 87.312 85.616 141.358 164.918 141.358 97.137 0 141.358-85.498 141.358-164.918 0-195.605-268.981-380.478-329.836-419.799z" />
<glyph unicode="&#xe90d;" glyph-name="watch" horiz-adv-x="1047" d="M381.149 65.955h282.717c13.005 0 23.56 10.555 23.56 23.56v153.633c57.521 47.579 94.239 119.46 94.239 199.763s-36.718 152.184-94.239 199.763v153.633c0 13.005-10.555 23.56-23.56 23.56h-282.717c-13.005 0-23.56-10.555-23.56-23.56v-153.633c-57.521-47.579-94.239-119.46-94.239-199.763s36.718-152.184 94.239-199.763v-153.633c0-13.005 10.555-23.56 23.56-23.56zM640.306 113.075h-235.597v99.116c35.375-18.129 75.391-28.437 117.799-28.437s82.424 10.307 117.799 28.437v-99.116zM404.709 772.747h235.597v-99.116c-35.375 18.129-75.391 28.437-117.799 28.437s-82.424-10.307-117.799-28.437v99.116zM310.47 442.911c0 116.915 95.122 212.038 212.038 212.038s212.038-95.122 212.038-212.038-95.122-212.038-212.038-212.038-212.038 95.122-212.038 212.038zM511.976 421.837l94.239-47.119c3.381-1.696 6.974-2.486 10.519-2.486 8.635 0 16.963 4.759 21.098 13.017 5.819 11.639 1.096 25.786-10.543 31.617l-81.222 40.605v126.798c0 13.005-10.555 23.56-23.56 23.56s-23.56-10.555-23.56-23.56v-141.358c0-8.929 5.054-17.081 13.029-21.074z" />
<glyph unicode="&#xe90e;" glyph-name="letter" horiz-adv-x="1047" d="M884.668 535.465l-102.991 41.194v219.647c0 13.005-10.555 23.56-23.56 23.56h-471.195c-13.005 0-23.56-10.555-23.56-23.56v-219.647l-102.991-41.194c-9.2-3.687-14.772-12.522-14.784-21.875h-0.024v-424.075c0-13.005 10.555-23.56 23.56-23.56h706.792c13.005 0 23.56 10.555 23.56 23.56v424.075h-0.024c-0.012 9.353-5.584 18.188-14.784 21.875zM828.254 507.276l-46.578-28.92v47.544l46.578-18.624zM734.545 772.747v-212.403c0-0.047 0-0.094 0-0.141v-111.096l-212.038-131.616-212.038 131.616v111.096c0 0.047 0 0.094 0 0.141v212.403h424.075zM263.351 478.357l-46.578 28.92 46.578 18.624v-47.544zM192.671 113.075v353.69l317.408-197.018c3.805-2.356 8.105-3.546 12.428-3.546s8.611 1.19 12.428 3.546l317.408 197.018v-353.69h-659.672zM569.627 678.508h94.239c13.005 0 23.56 10.555 23.56 23.56s-10.555 23.56-23.56 23.56h-94.239c-13.005 0-23.56-10.555-23.56-23.56s10.555-23.56 23.56-23.56zM381.149 584.269h282.717c13.005 0 23.56 10.555 23.56 23.56s-10.555 23.56-23.56 23.56h-282.717c-13.005 0-23.56-10.555-23.56-23.56s10.555-23.56 23.56-23.56zM381.149 490.031h282.717c13.005 0 23.56 10.555 23.56 23.56s-10.555 23.56-23.56 23.56h-282.717c-13.005 0-23.56-10.555-23.56-23.56s10.555-23.56 23.56-23.56z" />
<glyph unicode="&#xe90f;" glyph-name="marker" horiz-adv-x="1047" d="M616.747 548.93c0 51.961-42.278 94.239-94.239 94.239s-94.239-42.278-94.239-94.239 42.278-94.239 94.239-94.239 94.239 42.278 94.239 94.239zM475.388 548.93c0 25.986 21.133 47.119 47.119 47.119s47.119-21.133 47.119-47.119c0-25.975-21.133-47.119-47.119-47.119s-47.119 21.145-47.119 47.119zM522.107 65.955c6.762 0 13.193 2.91 17.67 7.987 10.39 11.78 254.504 290.751 253.668 474.705-0.683 149.545-122.216 271.22-270.937 271.22-149.404 0-270.937-121.721-270.937-271.337 0-183.837 242.488-462.748 252.819-474.528 4.476-5.112 10.59-7.869 17.717-8.046zM522.508 772.747c122.852 0 223.252-100.635 223.817-224.324 0.636-139.285-168.228-354.833-224.159-422.367-55.66 67.581-223.476 283.023-223.476 422.473 0 123.641 100.412 224.218 223.817 224.218z" />
<glyph unicode="&#xe910;" glyph-name="social" horiz-adv-x="1047" d="M286.91 183.754c45.506 0 85.958 21.71 111.826 55.224l195.805-72.14c8.258-56.944 57.25-100.871 116.444-100.871 64.954 0 117.799 52.844 117.799 117.799 0 64.966-52.844 117.799-117.799 117.799-53.81 0-99.21-36.306-113.24-85.687l-176.639 65.072c4.594 13.924 7.162 28.743 7.162 44.174 0 29.709-9.259 57.274-24.973 80.056l217.621 130.556c29.615-28.236 69.584-45.706 113.629-45.706 90.941 0 164.918 73.978 164.918 164.918s-73.978 164.918-164.918 164.918-164.918-73.978-164.918-164.918c0-29.803 8.069-57.698 21.946-81.858l-222.251-133.348c-23.242 16.751-51.655 26.74-82.412 26.74-77.947 0-141.358-63.411-141.358-141.358s63.411-141.37 141.358-141.37zM710.985 254.433c38.98 0 70.679-31.7 70.679-70.679s-31.7-70.679-70.679-70.679-70.679 31.7-70.679 70.679 31.711 70.679 70.679 70.679zM734.545 772.747c64.954 0 117.799-52.833 117.799-117.799 0-64.954-52.844-117.799-117.799-117.799s-117.799 52.844-117.799 117.799c0 64.966 52.856 117.799 117.799 117.799zM286.91 419.351c51.961 0 94.239-42.278 94.239-94.239s-42.278-94.239-94.239-94.239-94.239 42.278-94.239 94.239 42.278 94.239 94.239 94.239z" />
<glyph unicode="&#xe911;" glyph-name="close" horiz-adv-x="1047" d="M352.713 273.116c4.606-4.606 10.625-6.903 16.657-6.903s12.051 2.297 16.657 6.903l136.481 136.481 136.481-136.481c4.606-4.606 10.625-6.903 16.657-6.903s12.051 2.297 16.657 6.903c9.2 9.2 9.2 24.125 0 33.313l-136.47 136.481 136.481 136.481c9.2 9.2 9.2 24.125 0 33.313-9.2 9.2-24.113 9.2-33.313 0l-136.493-136.481-136.47 136.481c-9.2 9.2-24.113 9.2-33.313 0-9.2-9.188-9.2-24.113 0-33.313l136.481-136.481-136.493-136.481c-9.2-9.188-9.2-24.113 0-33.313zM522.508 65.955c100.682 0 195.345 39.215 266.531 110.413 71.209 71.197 110.424 165.86 110.424 266.543 0 100.694-39.215 195.345-110.424 266.543-71.186 71.197-165.849 110.413-266.531 110.413s-195.345-39.215-266.531-110.413c-71.209-71.197-110.424-165.849-110.424-266.543 0-100.682 39.215-195.345 110.424-266.531 71.186-71.209 165.86-110.424 266.531-110.424zM289.302 676.141c62.292 62.304 145.116 96.607 233.218 96.607s170.926-34.303 233.218-96.618c62.304-62.292 96.618-145.116 96.618-233.218s-34.315-170.926-96.618-233.218c-62.292-62.304-145.116-96.618-233.218-96.618s-170.926 34.315-233.218 96.618c-62.304 62.292-96.618 145.116-96.618 233.218s34.315 170.926 96.618 233.23z" />
<glyph unicode="&#xe912;" glyph-name="calendar" horiz-adv-x="1047" d="M875.904 725.628h-94.239v23.56c0 13.005-10.555 23.56-23.56 23.56h-70.679c-13.005 0-23.56-10.555-23.56-23.56v-23.56h-282.717v23.56c0 13.005-10.555 23.56-23.56 23.56h-70.679c-13.005 0-23.56-10.555-23.56-23.56v-23.56h-94.239c-13.005 0-23.56-10.555-23.56-23.56v-565.433c0-13.005 10.555-23.56 23.56-23.56h706.792c13.005 0 23.56 10.555 23.56 23.56v565.433c0 13.005-10.543 23.56-23.56 23.56zM710.985 725.628h23.56v-47.119h-23.56v47.119zM310.47 725.628h23.56v-47.119h-23.56v47.119zM852.344 160.194h-659.672v518.314h70.679v-23.56c0-13.005 10.555-23.56 23.56-23.56h70.679c13.005 0 23.56 10.555 23.56 23.56v23.56h282.717v-23.56c0-13.005 10.555-23.56 23.56-23.56h70.679c13.005 0 23.56 10.555 23.56 23.56v23.56h70.679v-518.314zM381.149 537.15h-94.239c-13.005 0-23.56-10.555-23.56-23.56v-94.239c0-13.005 10.555-23.56 23.56-23.56h94.239c13.005 0 23.56 10.555 23.56 23.56v94.239c0 13.005-10.543 23.56-23.56 23.56zM357.59 442.911h-47.119v47.119h47.119v-47.119zM569.627 537.15h-94.239c-13.005 0-23.56-10.555-23.56-23.56v-94.239c0-13.005 10.555-23.56 23.56-23.56h94.239c13.005 0 23.56 10.555 23.56 23.56v94.239c0 13.005-10.543 23.56-23.56 23.56zM546.067 442.911h-47.119v47.119h47.119v-47.119zM758.105 537.15h-94.239c-13.005 0-23.56-10.555-23.56-23.56v-94.239c0-13.005 10.555-23.56 23.56-23.56h94.239c13.005 0 23.56 10.555 23.56 23.56v94.239c0 13.005-10.543 23.56-23.56 23.56zM734.545 442.911h-47.119v47.119h47.119v-47.119zM381.149 348.672h-94.239c-13.005 0-23.56-10.555-23.56-23.56v-94.239c0-13.005 10.555-23.56 23.56-23.56h94.239c13.005 0 23.56 10.555 23.56 23.56v94.239c0 13.005-10.543 23.56-23.56 23.56zM357.59 254.433h-47.119v47.119h47.119v-47.119zM569.627 348.672h-94.239c-13.005 0-23.56-10.555-23.56-23.56v-94.239c0-13.005 10.555-23.56 23.56-23.56h94.239c13.005 0 23.56 10.555 23.56 23.56v94.239c0 13.005-10.543 23.56-23.56 23.56zM546.067 254.433h-47.119v47.119h47.119v-47.119zM758.105 348.672h-94.239c-13.005 0-23.56-10.555-23.56-23.56v-94.239c0-13.005 10.555-23.56 23.56-23.56h94.239c13.005 0 23.56 10.555 23.56 23.56v94.239c0 13.005-10.543 23.56-23.56 23.56zM734.545 254.433h-47.119v47.119h47.119v-47.119z" />
<glyph unicode="&#xe913;" glyph-name="pencil" horiz-adv-x="1047" d="M184.084 74.637c5.548 0 11.403 1.355 17.422 4.029l168.994 75.108c14.536 6.467 34.008 19.837 45.27 31.099l461.417 461.429c8.882 8.882 13.782 20.721 13.782 33.325s-4.9 24.443-13.771 33.313l-84.497 84.497c-8.882 8.87-20.709 13.759-33.313 13.759s-24.431-4.889-33.313-13.771l-473.209-473.209c-11.403-11.391-24.62-31.228-30.769-46.142l-64.507-156.684c-6.997-17.010-2.050-28.507 1.52-33.844 5.489-8.199 14.595-12.911 24.973-12.911zM382.445 218.198c0 0 0-0.012 0 0l-84.485 84.473 390.762 390.762 84.485-84.485-390.762-390.75zM759.401 764.113l84.485-84.485-37.366-37.366-84.485 84.485 37.366 37.366zM265.683 260.123c0.695 1.673 1.626 3.569 2.662 5.525l73.188-73.188-126.94-56.39 51.089 124.054z" />
<glyph unicode="&#xe914;" glyph-name="computer" horiz-adv-x="1047" d="M169.112 183.754h706.792c13.005 0 23.56 10.555 23.56 23.56v70.679c0 13.005-10.555 23.56-23.56 23.56h-47.119v376.956c0 13.005-10.555 23.56-23.56 23.56h-565.433c-13.005 0-23.56-10.555-23.56-23.56v-376.956h-47.119c-13.005 0-23.56-10.555-23.56-23.56v-70.679c0-13.005 10.555-23.56 23.56-23.56zM263.351 654.949h518.314v-353.396h-518.314v353.396zM192.671 254.433h659.672v-23.56h-659.672v23.56zM505.792 624.557c-4.359-4.476-6.832-10.59-6.832-16.727 0-6.243 2.474-12.251 6.95-16.61 4.359-4.476 10.366-6.95 16.61-6.95s12.251 2.474 16.727 6.95c4.359 4.359 6.832 10.496 6.832 16.61 0 6.137-2.474 12.251-6.95 16.727-8.729 8.717-24.502 8.717-33.337 0z" />
<glyph unicode="&#xe915;" glyph-name="page" horiz-adv-x="1047" d="M758.105 65.955c25.986 0 47.119 21.133 47.119 47.119v659.672c0 25.986-21.133 47.119-47.119 47.119h-306.276c-19.295 0-43.209-9.907-56.873-23.56l-131.593-131.593c-13.653-13.653-23.56-37.566-23.56-56.885v-494.754c0-25.986 21.133-47.119 47.119-47.119h471.183zM758.105 772.747v-659.672h-471.195v494.754h117.799c25.986 0 47.119 21.133 47.119 47.119v117.799h306.276zM404.709 739.434v-84.485h-84.485l84.485 84.485zM522.508 631.389h141.358c13.005 0 23.56 10.555 23.56 23.56s-10.555 23.56-23.56 23.56h-141.358c-13.005 0-23.56-10.555-23.56-23.56s10.555-23.56 23.56-23.56zM663.866 560.71h-282.717c-13.005 0-23.56-10.555-23.56-23.56s10.555-23.56 23.56-23.56h282.717c13.005 0 23.56 10.555 23.56 23.56s-10.543 23.56-23.56 23.56zM663.866 442.911h-282.717c-13.005 0-23.56-10.555-23.56-23.56s10.555-23.56 23.56-23.56h282.717c13.005 0 23.56 10.555 23.56 23.56s-10.543 23.56-23.56 23.56zM663.866 325.112h-282.717c-13.005 0-23.56-10.555-23.56-23.56s10.555-23.56 23.56-23.56h282.717c13.005 0 23.56 10.555 23.56 23.56s-10.543 23.56-23.56 23.56zM663.866 207.314h-282.717c-13.005 0-23.56-10.555-23.56-23.56s10.555-23.56 23.56-23.56h282.717c13.005 0 23.56 10.555 23.56 23.56s-10.543 23.56-23.56 23.56z" />
<glyph unicode="&#xe916;" glyph-name="view" horiz-adv-x="1047" d="M522.508 643.169c-245.375 0-367.885-179.549-372.998-187.194-5.266-7.916-5.266-18.223 0-26.14 5.112-7.633 127.623-187.194 372.998-187.194 245.398 0 367.909 179.549 372.998 187.194 5.289 7.916 5.289 18.223 0 26.14-5.089 7.645-127.599 187.194-372.998 187.194zM522.508 289.773c-182.659 0-291.74 114.006-323.805 153.185 31.959 39.262 140.463 153.091 323.805 153.091 182.682 0 291.74-114.006 323.805-153.185-31.959-39.262-140.463-153.091-323.805-153.091zM522.508 548.93c-58.463 0-106.019-47.555-106.019-106.019s47.555-106.019 106.019-106.019 106.019 47.555 106.019 106.019-47.555 106.019-106.019 106.019zM522.508 384.012c-32.465 0-58.899 26.422-58.899 58.899s26.434 58.899 58.899 58.899c32.489 0 58.899-26.422 58.899-58.899s-26.41-58.899-58.899-58.899z" />
<glyph unicode="&#xe917;" glyph-name="eating" horiz-adv-x="1047" d="M239.791 819.867c-13.005 0-23.56-10.555-23.56-23.56v-188.478c0-10.142 6.491-19.142 16.115-22.346l54.564-18.188v-477.779c0-13.005 10.555-23.56 23.56-23.56s23.56 10.555 23.56 23.56v477.779l54.564 18.188c9.624 3.204 16.115 12.204 16.115 22.346v188.478c0 13.005-10.555 23.56-23.56 23.56s-23.56-10.555-23.56-23.56v-171.503l-23.56-7.845v179.348c0 13.005-10.555 23.56-23.56 23.56s-23.56-10.555-23.56-23.56v-179.348l-23.56 7.845v171.503c0 13.005-10.543 23.56-23.56 23.56zM546.067 65.955c13.005 0 23.56 10.555 23.56 23.56v294.002c0 0.342 0 0.683 0 1.025v411.765c0 13.005-10.543 23.56-23.56 23.56h-47.119c-11.921 0-21.958-8.906-23.383-20.733l-47.119-388.735c-1.437-11.792 6.149-22.806 17.67-25.692l76.381-19.095v-276.096c0.012-13.005 10.567-23.56 23.572-23.56zM477.732 425.383l42.101 347.365h2.686v-358.555l-44.787 11.191zM722.765 65.955c13.005 0 23.56 10.555 23.56 23.56v450.921c47.119 13.417 82.459 66.38 82.459 114.512 0 50.371-40.052 164.918-106.019 164.918s-106.019-114.547-106.019-164.918c0-48.133 35.34-101.095 82.459-114.512v-450.921c0-13.005 10.555-23.56 23.56-23.56zM663.878 654.949c0 48.545 38.096 117.799 58.899 117.799s58.899-69.254 58.899-117.799c0-32.018-26.269-70.679-58.899-70.679s-58.899 38.662-58.899 70.679z" />
<glyph unicode="&#xe918;" glyph-name="book" horiz-adv-x="1047" d="M872.794 772.535l-350.274-46.707-350.274 46.707c-6.785 0.931-13.523-1.154-18.636-5.631s-8.046-10.943-8.046-17.729v-565.433c0-11.803 8.741-21.793 20.438-23.348l353.396-47.119c1.037-0.141 2.085-0.212 3.122-0.212s2.085 0.071 3.122 0.212l353.396 47.119c11.697 1.567 20.438 11.544 20.438 23.348v565.433c0 6.785-2.933 13.252-8.046 17.729-5.124 4.488-11.839 6.502-18.636 5.631zM192.671 722.282l306.276-40.841v-517.902l-306.276 40.841v517.902zM852.344 204.381l-306.276-40.841v517.902l306.276 40.841v-517.902zM260.429 608.018l188.478-23.56c0.99-0.13 1.979-0.188 2.957-0.188 11.697 0 21.852 8.717 23.336 20.638 1.614 12.911-7.551 24.691-20.45 26.293l-188.478 23.56c-12.875 1.649-24.691-7.539-26.293-20.45-1.614-12.911 7.551-24.691 20.45-26.293zM454.75 513.402l-188.478 23.56c-12.875 1.696-24.691-7.539-26.293-20.45-1.614-12.911 7.551-24.691 20.45-26.293l188.478-23.56c0.99-0.13 1.979-0.188 2.957-0.188 11.697 0 21.852 8.717 23.336 20.638 1.626 12.911-7.539 24.691-20.45 26.293zM454.75 395.603l-188.478 23.56c-12.875 1.673-24.691-7.539-26.293-20.45-1.614-12.911 7.551-24.691 20.45-26.293l188.478-23.56c0.99-0.13 1.979-0.188 2.957-0.188 11.697 0 21.852 8.717 23.336 20.638 1.626 12.911-7.539 24.691-20.45 26.293zM454.75 277.805l-188.478 23.56c-12.875 1.649-24.691-7.539-26.293-20.45-1.614-12.911 7.551-24.691 20.45-26.293l188.478-23.56c0.99-0.13 1.979-0.188 2.957-0.188 11.697 0 21.852 8.717 23.336 20.638 1.626 12.911-7.539 24.691-20.45 26.293zM593.163 584.269c0.978 0 1.967 0.059 2.957 0.188l188.478 23.56c12.911 1.614 22.064 13.394 20.45 26.293-1.614 12.923-13.523 22.099-26.293 20.45l-188.478-23.56c-12.911-1.614-22.064-13.394-20.45-26.293 1.472-11.921 11.627-20.638 23.336-20.638zM593.163 466.471c0.978 0 1.967 0.059 2.957 0.188l188.478 23.56c12.911 1.614 22.064 13.394 20.45 26.293-1.614 12.923-13.523 22.146-26.293 20.45l-188.478-23.56c-12.911-1.614-22.064-13.394-20.45-26.293 1.472-11.921 11.627-20.638 23.336-20.638zM593.163 348.672c0.978 0 1.967 0.059 2.957 0.188l188.478 23.56c12.911 1.614 22.064 13.394 20.45 26.293-1.614 12.923-13.523 22.123-26.293 20.45l-188.478-23.56c-12.911-1.614-22.064-13.394-20.45-26.293 1.472-11.921 11.627-20.638 23.336-20.638zM778.743 301.364l-188.478-23.56c-12.911-1.614-22.064-13.394-20.45-26.293 1.484-11.921 11.639-20.638 23.336-20.638 0.978 0 1.967 0.059 2.957 0.188l188.478 23.56c12.911 1.614 22.064 13.394 20.45 26.293-1.602 12.923-13.523 22.099-26.293 20.45z" />
<glyph unicode="&#xe919;" glyph-name="stop" horiz-adv-x="1047" d="M522.508 819.867c-100.682 0-195.345-39.215-266.531-110.424-71.209-71.186-110.436-165.849-110.436-266.531s39.227-195.345 110.424-266.531c71.197-71.209 165.849-110.424 266.531-110.424s195.345 39.215 266.531 110.424c71.209 71.186 110.436 165.849 110.436 266.531s-39.227 195.345-110.424 266.531c-71.186 71.209-165.837 110.424-266.531 110.424zM755.725 209.693c-62.292-62.304-145.116-96.618-233.206-96.618s-170.914 34.315-233.218 96.618c-62.315 62.292-96.63 145.116-96.63 233.218s34.315 170.926 96.63 233.218c62.292 62.304 145.116 96.618 233.206 96.618s170.914-34.315 233.218-96.618c62.315-62.292 96.63-145.116 96.63-233.218s-34.315-170.926-96.63-233.218zM640.306 584.269h-235.597c-13.005 0-23.56-10.555-23.56-23.56v-235.597c0-13.005 10.555-23.56 23.56-23.56h235.597c13.005 0 23.56 10.555 23.56 23.56v235.597c0 13.005-10.543 23.56-23.56 23.56zM616.747 348.672h-188.478v188.478h188.478v-188.478z" />
<glyph unicode="&#xe91a;" glyph-name="compass" horiz-adv-x="1047" d="M522.508 819.879c-100.694 0-195.357-39.227-266.543-110.424-71.209-71.197-110.424-165.849-110.424-266.543 0-100.682 39.215-195.334 110.424-266.531 71.186-71.209 165.849-110.424 266.543-110.424 100.682 0 195.345 39.215 266.543 110.424 71.209 71.197 110.424 165.849 110.424 266.531 0 100.694-39.215 195.345-110.424 266.531-71.197 71.209-165.86 110.436-266.543 110.436zM755.737 209.693c-62.304-62.304-145.128-96.618-233.23-96.618s-170.938 34.315-233.23 96.63c-62.304 62.292-96.618 145.104-96.618 233.206s34.315 170.926 96.618 233.218c62.292 62.315 145.116 96.63 233.23 96.63 88.102 0 170.926-34.315 233.23-96.63 62.304-62.292 96.618-145.116 96.618-233.218s-34.315-170.914-96.618-233.218zM638.634 451.664l-94.239 235.597c-3.581 8.941-12.251 14.807-21.875 14.807s-18.306-5.866-21.875-14.807l-94.239-235.597c-2.262-5.678-2.144-11.921 0.071-17.47l-0.071-0.024 94.239-235.597c3.581-8.953 12.251-14.819 21.875-14.819s18.306 5.866 21.875 14.819l94.239 235.597-0.071 0.024c2.215 5.548 2.332 11.792 0.071 17.47zM522.508 615.074l59.441-148.603h-118.871l59.429 148.603zM522.508 270.76l-59.441 148.591h118.882l-59.441-148.591z" />
<glyph unicode="&#xe91b;" glyph-name="home" horiz-adv-x="1047" d="M616.747 65.955h141.358c13.017 0 23.56 10.555 23.56 23.56v329.836h94.239c9.53 0 18.129 5.737 21.769 14.536 3.664 8.811 1.637 18.93-5.112 25.68l-353.396 353.396c-9.2 9.2-24.113 9.2-33.313 0l-353.396-353.396c-6.738-6.738-8.741-16.869-5.112-25.68 3.664-8.8 12.239-14.536 21.769-14.536h94.239v-329.836c0-13.005 10.555-23.56 23.56-23.56h141.358c13.017 0 23.56 10.555 23.56 23.56v164.918h141.358v-164.918c0-13.005 10.567-23.56 23.56-23.56zM428.269 301.553c-13.005 0-23.56-10.555-23.56-23.56v-164.918h-94.239v329.836c0 13.005-10.543 23.56-23.56 23.56h-60.925l296.523 296.523 296.523-296.523h-60.925c-13.005 0-23.56-10.555-23.56-23.56v-329.836h-94.239v164.918c0 13.005-10.543 23.56-23.56 23.56h-188.478z" />
<glyph unicode="&#xe91c;" glyph-name="play" horiz-adv-x="1047" d="M522.508 819.879c-100.682 0-195.345-39.215-266.531-110.424-71.197-71.197-110.424-165.86-110.424-266.543s39.215-195.345 110.413-266.543c71.197-71.209 165.86-110.424 266.543-110.424s195.345 39.215 266.543 110.424c71.197 71.197 110.424 165.86 110.424 266.543s-39.215 195.345-110.424 266.543c-71.197 71.209-165.849 110.424-266.543 110.424zM755.737 209.682c-62.304-62.304-145.128-96.618-233.23-96.618s-170.926 34.315-233.218 96.618c-62.304 62.304-96.618 145.128-96.618 233.23s34.315 170.926 96.618 233.23c62.292 62.304 145.116 96.618 233.218 96.618s170.926-34.315 233.23-96.618c62.304-62.304 96.618-145.128 96.618-233.23s-34.315-170.926-96.618-233.23zM643.086 461.429l-164.918 129.578c-7.091 5.572-16.739 6.609-24.856 2.674-8.105-3.946-13.252-12.169-13.252-21.192v-259.157c0-9.023 5.148-17.246 13.252-21.192 3.275-1.59 6.797-2.368 10.296-2.368 5.183 0 10.331 1.72 14.56 5.042l164.918 129.578c5.678 4.465 9 11.297 9 18.518s-3.31 14.053-9 18.518zM487.168 361.807v162.209l103.227-81.104-103.227-81.104z" />
<glyph unicode="&#xe91d;" glyph-name="picture" horiz-adv-x="1047" d="M169.112 171.974h706.792c13.005 0 23.56 10.555 23.56 23.56v494.754c0 13.005-10.555 23.56-23.56 23.56h-706.792c-13.005 0-23.56-10.555-23.56-23.56v-494.754c0-13.005 10.555-23.56 23.56-23.56zM192.671 219.094v36.694l234.82 213.475 125.479-125.467c4.83-4.83 11.474-7.268 18.329-6.844 6.821 0.483 13.076 3.899 17.175 9.365l55.224 73.636 208.645-187.783v-13.064h-659.672zM852.344 666.729v-371.184l-196.276 176.651c-4.912 4.417-11.438 6.62-18.047 5.937-6.585-0.636-12.593-4.017-16.562-9.306l-54.376-72.505-122.157 122.145c-8.894 8.894-23.195 9.235-32.501 0.766l-219.753-199.763v347.259h659.672zM746.325 478.251c45.47 0 82.459 37.001 82.459 82.459s-36.989 82.459-82.459 82.459-82.459-37.001-82.459-82.459 37.001-82.459 82.459-82.459zM746.325 596.049c19.484 0 35.34-15.856 35.34-35.34s-15.856-35.34-35.34-35.34-35.34 15.856-35.34 35.34 15.856 35.34 35.34 35.34z" />
<glyph unicode="&#xe91e;" glyph-name="address-book" horiz-adv-x="1047" d="M322.25 65.955h447.635c25.986 0 47.119 21.133 47.119 47.119v659.672c0 25.986-21.133 47.119-47.119 47.119h-447.635c-25.986 0-47.119-21.133-47.119-47.119v-70.679h-23.56c-13.005 0-23.56-10.555-23.56-23.56s10.555-23.56 23.56-23.56h23.56v-47.119h-23.56c-13.005 0-23.56-10.555-23.56-23.56s10.555-23.56 23.56-23.56h23.56v-47.119h-23.56c-13.005 0-23.56-10.555-23.56-23.56s10.555-23.56 23.56-23.56h23.56v-47.119h-23.56c-13.005 0-23.56-10.555-23.56-23.56s10.555-23.56 23.56-23.56h23.56v-47.119h-23.56c-13.005 0-23.56-10.555-23.56-23.56s10.555-23.56 23.56-23.56h23.56v-47.119h-23.56c-13.005 0-23.56-10.555-23.56-23.56s10.555-23.56 23.56-23.56h23.56v-70.679c0-25.986 21.145-47.119 47.119-47.119zM769.885 113.075h-94.239v659.672h94.239v-659.672zM322.25 277.993h23.56c13.005 0 23.56 10.555 23.56 23.56s-10.555 23.56-23.56 23.56h-23.56v47.119h23.56c13.005 0 23.56 10.555 23.56 23.56s-10.555 23.56-23.56 23.56h-23.56v47.119h23.56c13.005 0 23.56 10.555 23.56 23.56s-10.555 23.56-23.56 23.56h-23.56v47.119h23.56c13.005 0 23.56 10.555 23.56 23.56s-10.555 23.56-23.56 23.56h-23.56v47.119h23.56c13.005 0 23.56 10.555 23.56 23.56s-10.555 23.56-23.56 23.56h-23.56v70.679h306.276v-659.672h-306.276v70.679h23.56c13.005 0 23.56 10.555 23.56 23.56s-10.555 23.56-23.56 23.56h-23.56v47.119z" />
<glyph unicode="&#xe91f;" glyph-name="map" horiz-adv-x="1047" d="M889.121 780.475c-6.479 4.37-14.689 5.266-21.958 2.368l-226.845-90.74-226.845 90.74c-5.643 2.238-11.874 2.238-17.505 0l-235.597-94.239c-8.941-3.581-14.807-12.239-14.807-21.875v-541.874c0-7.81 3.876-15.125 10.355-19.507 3.958-2.674 8.564-4.052 13.205-4.052 2.957 0 5.925 0.565 8.752 1.696l226.845 90.729 226.845-90.729c5.643-2.238 11.874-2.238 17.505 0l235.597 94.239c8.941 3.581 14.807 12.239 14.807 21.863v541.874c-0.012 7.822-3.887 15.125-10.355 19.507zM428.269 726.17l188.478-75.379v-491.126l-188.478 75.391v491.114zM192.671 650.779l188.478 75.379v-491.114l-188.478-75.391v491.126zM852.344 235.044l-188.478-75.391v491.126l188.478 75.379v-491.114z" />
<glyph unicode="&#xe920;" glyph-name="music" horiz-adv-x="1047" d="M312.567 65.955c64.966 0 117.799 52.844 117.799 117.799v334.348l282.717 60.584v-230.237c-23.56 14.866-44.139 23.795-70.679 23.795-64.954 0-117.799-52.844-117.799-117.799s52.833-117.799 117.799-117.799 117.799 52.844 117.799 117.799v353.537c0 0.035 0 0.059 0 0.082v188.242c0 7.115-3.204 13.853-8.741 18.318-5.537 4.488-12.805 6.208-19.743 4.712l-329.836-70.679c-10.861-2.321-18.624-11.921-18.624-23.030v-188.631c0-0.035 0-0.059 0-0.082v-259.157c-23.56 14.866-44.139 23.795-70.679 23.795-64.954 0-117.799-52.844-117.799-117.799s52.833-117.799 117.787-117.799zM642.403 183.754c-38.98 0-70.679 31.7-70.679 70.679s31.7 70.679 70.679 70.679 70.679-31.7 70.679-70.679-31.7-70.679-70.679-70.679zM713.082 767.152v-140.275l-282.717-60.584v140.286l282.717 60.572zM312.567 254.433c38.98 0 70.679-31.7 70.679-70.679s-31.7-70.679-70.679-70.679-70.679 31.7-70.679 70.679 31.711 70.679 70.679 70.679z" />
<glyph unicode="&#xe921;" glyph-name="settings" horiz-adv-x="1047" d="M169.112 348.672h77.264l13.594-40.758-60.395-60.384c-9.2-9.2-9.2-24.113 0-33.313l94.239-94.239c9.2-9.2 24.137-9.2 33.313 0l60.395 60.384 40.747-13.582v-77.264c0-13.005 10.555-23.56 23.56-23.56h141.358c13.017 0 23.56 10.555 23.56 23.56v77.264l40.77 13.582 60.372-60.384c9.2-9.2 24.137-9.2 33.313 0l94.239 94.239c9.2 9.2 9.2 24.113 0 33.313l-60.372 60.384 13.57 40.758h77.264c13.017 0 23.56 10.555 23.56 23.56v141.358c0 13.005-10.543 23.56-23.56 23.56h-77.264l-13.57 40.758 60.372 60.384c9.2 9.2 9.2 24.113 0 33.313l-94.239 94.239c-9.177 9.2-24.113 9.2-33.313 0l-60.372-60.384-40.77 13.582v77.264c0 13.005-10.543 23.56-23.56 23.56h-141.358c-13.005 0-23.56-10.555-23.56-23.56v-77.264l-40.747-13.582-60.395 60.384c-9.177 9.2-24.113 9.2-33.313 0l-94.239-94.239c-9.2-9.2-9.2-24.113 0-33.313l60.395-60.384-13.594-40.758h-77.264c-13.005 0-23.56-10.555-23.56-23.56v-141.358c0-13.005 10.567-23.56 23.56-23.56zM192.671 490.031h70.679c10.142 0 19.142 6.491 22.358 16.103l23.56 70.679c2.804 8.47 0.613 17.811-5.701 24.113l-54.011 54.022 60.914 60.925 54.022-54.022c6.302-6.302 15.644-8.505 24.113-5.69l70.679 23.56c9.612 3.204 16.103 12.204 16.103 22.346v70.679h94.239v-70.679c0-10.142 6.491-19.142 16.115-22.346l70.679-23.56c8.482-2.815 17.799-0.624 24.102 5.69l54.022 54.022 60.925-60.925-54.022-54.022c-6.302-6.302-8.517-15.644-5.678-24.113l23.56-70.679c3.192-9.612 12.204-16.103 22.335-16.103h70.679v-94.239h-70.679c-10.131 0-19.142-6.491-22.335-16.103l-23.56-70.679c-2.827-8.47-0.624-17.811 5.678-24.113l54.022-54.022-60.925-60.925-54.022 54.022c-6.302 6.314-15.644 8.529-24.102 5.69l-70.679-23.56c-9.624-3.204-16.115-12.204-16.115-22.346v-70.679h-94.239v70.679c0 10.142-6.491 19.142-16.103 22.346l-70.679 23.56c-8.446 2.815-17.799 0.613-24.113-5.69l-54.022-54.022-60.914 60.925 54.011 54.022c6.314 6.302 8.517 15.644 5.701 24.113l-23.56 70.679c-3.216 9.612-12.216 16.103-22.358 16.103h-70.679v94.239zM522.508 348.672c51.973 0 94.239 42.278 94.239 94.239s-42.266 94.239-94.239 94.239c-51.949 0-94.239-42.278-94.239-94.239s42.29-94.239 94.239-94.239zM522.508 490.031c25.986 0 47.119-21.145 47.119-47.119s-21.133-47.119-47.119-47.119c-25.975 0-47.119 21.145-47.119 47.119s21.145 47.119 47.119 47.119z" />
<glyph unicode="&#xe922;" glyph-name="tools" horiz-adv-x="1047" d="M680.534 412.448c-9.188 9.2-24.125 9.2-33.313 0l-18.683-18.683-37.366 37.366 82.459 82.459h37.354c92.484 0 141.358 57.038 141.358 164.918 0 8.163-4.229 15.75-11.179 20.038-6.938 4.3-15.62 4.688-22.924 1.037l-79.043-39.521-23.1 23.1 39.521 79.055c3.652 7.304 3.263 15.973-1.037 22.912-4.288 6.95-11.874 11.179-20.049 11.179-107.88 0-164.918-48.875-164.918-141.358v-37.366l-82.459-82.459-131.581 131.605 18.683 18.683c5.136 5.136 7.61 12.334 6.726 19.531s-5.042 13.594-11.262 17.328l-117.799 70.679c-9.259 5.572-21.121 4.099-28.778-3.546l-23.56-23.56c-7.645-7.633-9.106-19.507-3.546-28.778l70.679-117.799c3.734-6.208 10.119-10.378 17.328-11.25 0.966-0.13 1.92-0.188 2.874-0.188 6.208 0 12.216 2.462 16.657 6.903l18.683 18.683 131.605-131.605-277.852-277.84c-2.592-2.58-4.535-5.725-5.69-9.2l-23.56-70.679c-2.815-8.47-0.613-17.811 5.69-24.113l23.56-23.56c4.488-4.488 10.508-6.903 16.669-6.903 2.486 0 5.006 0.389 7.445 1.213l70.679 23.56c3.475 1.166 6.62 3.11 9.212 5.69l277.84 277.84 37.366-37.366-18.683-18.683c-9.2-9.2-9.2-24.113 0-33.313l212.038-212.038c4.594-4.606 10.625-6.903 16.657-6.903s12.063 2.297 16.657 6.903l70.679 70.679c9.2 9.2 9.2 24.113 0 33.313l-212.038 212.038zM291.587 669.391l-42.007 70.008 70.008-41.995-28.001-28.013zM250.628 157.226l-51.584-17.199-2.969 2.969 17.199 51.596 396.569 396.581c4.417 4.417 6.903 10.413 6.903 16.657v47.119c0 39.875 10.248 80.527 78.277 91.412l-28.66-57.309c-4.535-9.070-2.756-20.026 4.417-27.2l47.119-47.119c7.174-7.174 18.141-8.953 27.2-4.417l57.321 28.672c-10.896-68.017-51.537-78.277-91.412-78.277h-47.119c-6.243 0-12.239-2.486-16.657-6.903l-396.604-396.581zM805.224 146.388l-178.712 178.724 37.354 37.366 178.712-178.724-37.354-37.366z" />
<glyph unicode="&#xe923;" glyph-name="globe" horiz-adv-x="1047" d="M481.278 772.747c155.883 0 282.717-126.822 282.717-282.717 0-155.883-126.834-282.717-282.717-282.717-49.44 0-93.391 1.579-130.474 20.886-11.521 5.996-25.763 1.543-31.77-10.001s-1.531-25.774 10.013-31.782c33.019-17.21 67.805-23.112 105.124-25.15v-48.203h-70.679c-13.005 0-23.56-10.555-23.56-23.56s10.555-23.56 23.56-23.56h188.478c13.005 0 23.56 10.555 23.56 23.56s-10.555 23.56-23.56 23.56h-70.679v47.119c181.869 0 329.836 147.967 329.836 329.836s-147.967 329.836-329.836 329.836c-13.005 0-23.56-10.555-23.56-23.56s10.543-23.548 23.548-23.548zM481.278 242.653c136.399 0 247.377 110.978 247.377 247.377 0 136.411-110.978 247.377-247.377 247.377s-247.377-110.966-247.377-247.377c0-136.399 110.978-247.377 247.377-247.377zM481.278 690.288c110.424 0 200.258-89.833 200.258-200.258s-89.833-200.258-200.258-200.258-200.258 89.833-200.258 200.258 89.833 200.258 200.258 200.258z" />
<glyph unicode="&#xe924;" glyph-name="briefcase" horiz-adv-x="1047" d="M875.904 631.389h-227.033c-7.798 34.374-34.586 94.239-126.363 94.239s-118.553-59.865-126.363-94.239h-227.033c-13.005 0-23.56-10.555-23.56-23.56v-424.075c0-13.005 10.555-23.56 23.56-23.56h706.792c13.017 0 23.56 10.555 23.56 23.56v424.075c0 13.005-10.531 23.56-23.56 23.56zM522.508 678.508c51.077 0 70.444-26.434 77.853-47.119h-155.73c7.41 20.568 26.87 47.119 77.877 47.119zM852.344 584.269v-94.239h-659.672v94.239h659.672zM487.168 442.911h70.679v-23.56h-70.679v23.56zM192.671 207.314v235.597h247.377v-47.119c0-13.005 10.555-23.56 23.56-23.56h117.799c13.017 0 23.56 10.555 23.56 23.56v47.119h247.377v-235.597h-659.672z" />
<glyph unicode="&#xe925;" glyph-name="pause" horiz-adv-x="1047" d="M428.269 572.49c-13.005 0-23.56-10.555-23.56-23.56v-212.038c0-13.005 10.555-23.56 23.56-23.56s23.56 10.555 23.56 23.56v212.038c0 13.005-10.543 23.56-23.56 23.56zM616.747 572.49c-13.005 0-23.56-10.555-23.56-23.56v-212.038c0-13.005 10.555-23.56 23.56-23.56s23.56 10.555 23.56 23.56v212.038c0 13.005-10.543 23.56-23.56 23.56zM522.508 819.867c-100.682 0-195.345-39.215-266.531-110.424-71.197-71.186-110.424-165.849-110.424-266.531s39.215-195.345 110.413-266.531c71.197-71.209 165.86-110.424 266.543-110.424s195.345 39.215 266.543 110.424c71.197 71.186 110.424 165.849 110.424 266.531s-39.215 195.345-110.413 266.531c-71.209 71.209-165.86 110.424-266.555 110.424zM755.737 209.693c-62.292-62.304-145.128-96.618-233.218-96.618-88.102 0-170.926 34.315-233.218 96.618-62.304 62.292-96.618 145.116-96.618 233.218s34.315 170.926 96.618 233.218c62.292 62.304 145.116 96.618 233.218 96.618s170.926-34.315 233.23-96.618c62.304-62.292 96.618-145.116 96.618-233.218s-34.327-170.926-96.63-233.218z" />
<glyph unicode="&#xe926;" glyph-name="trash" horiz-adv-x="1047" d="M604.967 819.867h-164.918c-13.005 0-23.56-10.555-23.56-23.56v-70.679h-153.138c-13.005 0-23.56-10.555-23.56-23.56s10.555-23.56 23.56-23.56h23.56v-588.993c0-13.005 10.555-23.56 23.56-23.56h424.075c13.017 0 23.56 10.555 23.56 23.56v588.993h23.56c13.017 0 23.56 10.555 23.56 23.56s-10.543 23.56-23.56 23.56h-153.138v70.679c0 13.005-10.531 23.56-23.56 23.56zM710.985 678.508v-565.433h-376.956v565.433h376.956zM463.608 725.628v47.119h117.799v-47.119h-117.799zM451.828 160.194c13.017 0 23.56 10.555 23.56 23.56v400.515c0 13.005-10.543 23.56-23.56 23.56-13.005 0-23.56-10.555-23.56-23.56v-400.515c0-13.005 10.567-23.56 23.56-23.56zM593.187 160.194c13.017 0 23.56 10.555 23.56 23.56v400.515c0 13.005-10.543 23.56-23.56 23.56-13.005 0-23.56-10.555-23.56-23.56v-400.515c0-13.005 10.567-23.56 23.56-23.56z" />
<glyph unicode="&#xe927;" glyph-name="right-arrow-full" horiz-adv-x="1047" d="M900.194 442.923c0 100.859-39.298 195.699-110.648 267.038-71.315 71.351-166.167 110.648-267.050 110.648-100.895 0-195.746-39.298-267.061-110.648-71.351-71.339-110.625-166.167-110.625-267.038 0-100.895 39.274-195.722 110.625-267.061 71.315-71.351 166.155-110.648 267.061-110.648 100.871 0 195.734 39.298 267.050 110.648 71.362 71.351 110.648 166.179 110.648 267.061zM288.83 209.258c-62.421 62.398-96.807 145.399-96.807 233.665 0 88.243 34.385 171.232 96.807 233.642 62.433 62.421 145.411 96.807 233.677 96.807 88.255 0 171.256-34.385 233.689-96.807 62.433-62.41 96.783-145.411 96.783-233.642 0-88.267-34.35-171.279-96.807-233.689-62.41-62.445-145.411-96.795-233.665-96.795-88.267 0-171.244 34.35-233.677 96.819zM702.257 442.899c0-13.029-10.555-23.619-23.607-23.619h-312.261c-13.052 0-23.619 10.578-23.619 23.619v0c0 13.052 10.555 23.642 23.619 23.642h312.261c13.052 0 23.607-10.59 23.607-23.642v0zM695.354 459.639l-161.525 161.537c-9.188 9.212-24.161 9.212-33.396 0-9.212-9.247-9.212-24.184 0-33.396l144.857-144.857-144.857-144.881c-9.212-9.212-9.212-24.172 0-33.384s24.172-9.212 33.396 0l161.525 161.537c4.594 4.594 6.903 10.625 6.903 16.68 0.035 6.067-2.285 12.133-6.903 16.763z" />
<glyph unicode="&#xe928;" glyph-name="list" horiz-adv-x="1047" d="M169.112 560.71h70.679c13.017 0 23.56 10.555 23.56 23.56s-10.543 23.56-23.56 23.56h-70.679c-13.005 0-23.56-10.555-23.56-23.56s10.567-23.56 23.56-23.56zM875.904 607.829h-471.195c-13.005 0-23.56-10.555-23.56-23.56s10.555-23.56 23.56-23.56h471.195c13.017 0 23.56 10.555 23.56 23.56s-10.531 23.56-23.56 23.56zM169.112 419.351h70.679c13.017 0 23.56 10.555 23.56 23.56s-10.543 23.56-23.56 23.56h-70.679c-13.005 0-23.56-10.555-23.56-23.56s10.567-23.56 23.56-23.56zM875.904 466.471h-471.195c-13.005 0-23.56-10.555-23.56-23.56s10.555-23.56 23.56-23.56h471.195c13.017 0 23.56 10.555 23.56 23.56s-10.531 23.56-23.56 23.56zM169.112 277.993h70.679c13.017 0 23.56 10.555 23.56 23.56s-10.543 23.56-23.56 23.56h-70.679c-13.005 0-23.56-10.555-23.56-23.56s10.567-23.56 23.56-23.56zM875.904 325.112h-471.195c-13.005 0-23.56-10.555-23.56-23.56s10.555-23.56 23.56-23.56h471.195c13.017 0 23.56 10.555 23.56 23.56s-10.531 23.56-23.56 23.56z" />
<glyph unicode="&#xe929;" glyph-name="page2" horiz-adv-x="1047" d="M875.904 760.967h-706.792c-13.005 0-23.56-10.555-23.56-23.56v-588.993c0-13.005 10.555-23.56 23.56-23.56h706.792c13.017 0 23.56 10.555 23.56 23.56v588.993c0 13.005-10.531 23.56-23.56 23.56zM852.344 713.848v-94.239h-659.672v94.239h659.672zM192.671 171.974v400.515h659.672v-400.515h-659.672zM263.351 643.169c6.126 0 12.263 2.474 16.61 6.95 4.488 4.359 6.95 10.496 6.95 16.61s-2.462 12.251-6.95 16.727c-8.717 8.717-24.502 8.717-33.337-0.118-4.347-4.359-6.832-10.366-6.832-16.61 0-6.232 2.486-12.251 6.95-16.727 4.37-4.359 10.496-6.832 16.61-6.832zM334.030 643.169c6.126 0 12.263 2.474 16.727 6.95 4.37 4.359 6.832 10.496 6.832 16.61s-2.462 12.251-6.95 16.727c-8.717 8.717-24.502 8.717-33.337-0.118-4.347-4.359-6.832-10.496-6.832-16.61s2.486-12.251 6.95-16.727c4.37-4.359 10.496-6.832 16.61-6.832zM404.709 643.169c6.255 0 12.263 2.474 16.61 6.95 4.488 4.359 6.95 10.378 6.95 16.61 0 6.126-2.462 12.251-6.95 16.727-8.717 8.717-24.502 8.717-33.337-0.118-4.347-4.359-6.832-10.496-6.832-16.61 0-6.232 2.486-12.251 6.95-16.61 4.37-4.476 10.496-6.95 16.61-6.95zM510.728 525.37h-247.377c-13.005 0-23.56-10.555-23.56-23.56s10.555-23.56 23.56-23.56h247.377c13.017 0 23.56 10.555 23.56 23.56s-10.531 23.56-23.56 23.56zM510.728 431.131h-247.377c-13.005 0-23.56-10.555-23.56-23.56s10.555-23.56 23.56-23.56h247.377c13.017 0 23.56 10.555 23.56 23.56s-10.531 23.56-23.56 23.56zM510.728 336.892h-247.377c-13.005 0-23.56-10.555-23.56-23.56s10.555-23.56 23.56-23.56h247.377c13.017 0 23.56 10.555 23.56 23.56s-10.531 23.56-23.56 23.56zM781.665 525.37h-176.698c-13.005 0-23.56-10.555-23.56-23.56v-188.478c0-13.005 10.555-23.56 23.56-23.56h176.698c13.017 0 23.56 10.555 23.56 23.56v188.478c0 13.005-10.531 23.56-23.56 23.56zM758.105 336.892h-129.578v141.358h129.578v-141.358z" />
<glyph unicode="&#xe92a;" glyph-name="right-arrow" horiz-adv-x="1047" d="M474.493 653.299c-9.459 8.929-24.361 8.505-33.302-0.954-8.929-9.459-8.505-24.373 0.954-33.302l193.897-183.13-193.897-183.13c-9.459-8.941-9.883-23.842-0.954-33.302 4.641-4.912 10.873-7.386 17.14-7.386 5.807 0 11.615 2.144 16.174 6.432l212.038 200.258c4.712 4.453 7.386 10.649 7.386 17.128s-2.674 12.675-7.386 17.128l-212.049 200.258zM517.218 812.869c-100.682 0-195.345-39.215-266.531-110.413-71.209-71.197-110.436-165.86-110.436-266.543s39.227-195.345 110.424-266.543c71.197-71.197 165.849-110.413 266.531-110.413s195.345 39.215 266.519 110.413c71.209 71.197 110.436 165.86 110.436 266.543s-39.227 195.345-110.424 266.531c-71.174 71.209-165.825 110.424-266.519 110.424zM750.436 202.684c-62.292-62.304-145.104-96.607-233.206-96.607s-170.914 34.303-233.218 96.618c-62.315 62.292-96.63 145.128-96.63 233.218s34.315 170.926 96.63 233.218c62.292 62.304 145.116 96.618 233.206 96.618 88.102 0 170.914-34.315 233.206-96.618 62.315-62.292 96.63-145.116 96.63-233.218s-34.303-170.926-96.618-233.23z" />
<glyph unicode="&#xe92b;" glyph-name="passport" horiz-adv-x="1047" d="M734.863 774.361h-430.884c-27.859 0-50.524-22.664-50.524-50.536v-546.291c0-27.859 22.664-50.547 50.524-50.547h430.884c27.848 0 50.5 22.688 50.5 50.547v546.291c0 27.859-22.653 50.536-50.5 50.536zM750.024 177.523c0-8.375-6.797-15.208-15.161-15.208h-430.884c-8.375 0-15.184 6.832-15.184 15.208v546.303c0 8.375 6.809 15.196 15.184 15.196h430.884c8.364 0 15.161-6.821 15.161-15.196v-546.303zM640.212 352.383h-241.581c-9.766 0-17.67-7.916-17.67-17.67s7.904-17.67 17.67-17.67h241.581c9.754 0 17.67 7.916 17.67 17.67s-7.916 17.67-17.67 17.67zM640.212 263.775h-241.581c-9.766 0-17.67-7.916-17.67-17.67s7.904-17.67 17.67-17.67h241.581c9.754 0 17.67 7.916 17.67 17.67s-7.916 17.67-17.67 17.67zM519.421 705.802c-83.024 0-150.558-67.522-150.558-150.523 0-83.013 67.534-150.547 150.558-150.547s150.558 67.534 150.558 150.547c0 82.989-67.534 150.523-150.558 150.523zM633.144 572.949h-39.274c-1.708 29.65-7.657 58.899-17.646 82.424 29.933-17.057 51.431-47.108 56.92-82.424zM519.421 440.060c-14.407 0-35.481 38.285-39.097 97.537h78.183c-3.605-59.253-24.679-97.537-39.086-97.537zM480.324 572.949c3.616 59.241 24.691 97.514 39.097 97.514s35.481-38.273 39.086-97.514h-78.183zM462.619 655.361c-9.989-23.524-15.95-52.762-17.658-82.424h-39.262c5.478 35.328 26.976 65.378 56.92 82.424zM405.699 537.609h39.262c1.708-29.662 7.669-58.923 17.658-82.459-29.944 17.057-51.443 47.119-56.92 82.459zM576.224 455.15c9.989 23.536 15.95 52.786 17.646 82.459h39.274c-5.478-35.34-26.988-65.402-56.92-82.459z" />
<glyph unicode="&#xe92c;" glyph-name="map-marker" horiz-adv-x="1047" d="M685.635 712.046c0 32.454-26.41 58.852-58.876 58.852s-58.864-26.399-58.864-58.852c0-32.465 26.399-58.876 58.864-58.876s58.876 26.41 58.876 58.876zM603.235 712.046c0 12.97 10.555 23.513 23.524 23.513s23.536-10.555 23.536-23.513c0-12.981-10.555-23.536-23.536-23.536s-23.524 10.567-23.524 23.536zM842.967 570.64l-111.862 52.856c14.56 35.422 25.009 67.97 25.009 88.549 0 71.304-58.028 129.308-129.343 129.308s-129.343-58.004-129.343-129.308c0-21.298 11.179-55.401 26.54-92.248l-96.548-45.6-196.465 92.849c-5.478 2.603-11.898 2.203-17.010-1.048-5.112-3.239-8.211-8.87-8.211-14.925v-463.667c0-6.832 3.934-13.064 10.119-15.985l204.015-96.43c4.783-2.25 10.319-2.25 15.102 0l196.441 92.861 196.465-92.861c2.391-1.131 4.971-1.685 7.551-1.685 3.287 0 6.585 0.919 9.459 2.733 5.112 3.239 8.211 8.882 8.211 14.937v463.691c-0.012 6.832-3.946 13.052-10.131 15.973zM626.759 806.014c51.831 0 94.003-42.16 94.003-93.968 0-40.181-58.299-155.942-94.003-221.662-35.705 65.72-94.003 181.481-94.003 221.662 0 51.82 42.172 93.968 94.003 93.968zM817.746 118.882l-178.783 84.509c-4.783 2.25-10.319 2.25-15.102 0l-196.441-92.861-186.346 88.078v424.582l178.795-84.497c4.783-2.262 10.319-2.262 15.102 0l103.192 48.733c29.944-65.414 66.544-130.427 73.259-142.207 3.133-5.525 9-8.953 15.349-8.953 6.361 0 12.216 3.428 15.373 8.953 6.821 12.004 44.657 79.208 74.896 145.846l100.718-47.591v-424.593z" />
<glyph unicode="&#xe92d;" glyph-name="plane" horiz-adv-x="1047" d="M811.68 401.069c-4.512 4.512-11.108 6.255-17.234 4.535l-111.19-30.946c-24.502 31.641-54.47 67.675-87.725 105.536l214.382 154.352c4.194 3.027 6.856 7.751 7.28 12.911s-1.461 10.26-5.124 13.924l-53.669 53.669c-5.054 5.065-12.687 6.597-19.295 3.817l-263.504-109.93c-3.027 3.063-6.043 6.102-9.047 9.094-107.397 107.421-179.596 159.641-220.684 159.641-14.619 0-23.784-6.102-28.884-11.214-27.164-27.129 2.003-74.307 11.591-89.81 24.714-39.969 70.75-93.732 136.8-159.759 3.004-3.016 6.055-6.031 9.118-9.070l-109.918-263.516c-2.756-6.609-1.249-14.218 3.817-19.284l53.669-53.681c3.664-3.664 8.823-5.525 13.912-5.136 5.171 0.412 9.895 3.086 12.923 7.292l154.363 214.405c37.754-33.172 73.789-63.128 105.536-87.701l-30.946-111.214c-1.708-6.137 0.024-12.722 4.535-17.234l36.282-36.282c3.322-3.334 7.822-5.171 12.498-5.171 0.648 0 1.284 0.047 1.932 0.118 5.336 0.577 10.095 3.569 12.981 8.105l61.479 96.889c20.521-8.423 32.972-3.016 38.261 2.226 10.519 10.555 7.433 25.81 2.321 38.308l96.795 61.432c4.535 2.874 7.504 7.633 8.105 12.981 0.589 5.336-1.272 10.625-5.077 14.43l-36.282 36.282zM715.862 297.324c-7.834-4.971-10.484-15.137-6.090-23.289 0.141-0.247 0.271-0.507 0.401-0.754-0.247 0.118-0.495 0.247-0.742 0.389-8.152 4.417-18.353 1.743-23.312-6.078l-58.075-91.53-13.394 13.394 31.37 112.757c1.944 6.974-0.565 14.43-6.326 18.801-37.224 28.342-81.364 65.084-127.623 106.266-3.746 3.334-8.752 4.9-13.688 4.37-4.971-0.554-9.483-3.192-12.404-7.245l-153.621-213.357-30.604 30.604 109.953 263.598c2.78 6.667 1.225 14.36-3.923 19.413-5.878 5.772-11.697 11.497-17.399 17.199-64.141 64.13-108.469 115.737-131.746 153.386-19.955 32.277-18.235 44.669-16.669 46.236 0.777 0.777 2.98 0.872 3.899 0.872 13.959 0 60.984-14.548 195.699-149.286 5.69-5.701 11.438-11.532 17.246-17.422 5.054-5.136 12.722-6.691 19.39-3.911l263.574 109.953 30.604-30.604-213.38-153.621c-4.052-2.921-6.679-7.433-7.233-12.404-0.542-4.971 1.048-9.942 4.359-13.688 41.336-46.448 78.089-90.575 106.313-127.647 4.37-5.725 11.827-8.234 18.801-6.302l112.733 31.358 13.382-13.394-91.494-58.063z" />
<glyph unicode="&#xe92e;" glyph-name="podium" horiz-adv-x="1047" d="M529.422 646.444c41.689 0 75.603 33.914 75.603 75.615s-33.914 75.627-75.603 75.627c-41.701 0-75.615-33.926-75.615-75.627-0.012-41.689 33.914-75.615 75.615-75.615zM529.422 762.346c22.205 0 40.264-18.070 40.264-40.287 0-22.205-18.059-40.275-40.264-40.275-22.217 0-40.275 18.070-40.275 40.275-0.012 22.217 18.059 40.287 40.275 40.287zM801.255 481.514h-132.889c-7.009 89.48-66.639 159.594-138.955 159.594-72.328 0-131.982-70.114-138.991-159.594h-33.078c0.695 20.367 7.080 68.359 50.218 94.887 8.317 5.112 10.908 15.997 5.796 24.302-5.136 8.328-16.021 10.896-24.302 5.796-58.016-35.681-66.238-98.586-67.016-124.996h-64.471c-9.766 0-17.67-7.916-17.67-17.67 0-9.766 7.904-17.67 17.67-17.67h77.288v-278.205c0-9.754 7.904-17.67 17.67-17.67h353.785c9.754 0 17.67 7.916 17.67 17.67v278.229h77.288c9.754 0 17.67 7.904 17.67 17.67-0.012 9.742-7.928 17.658-17.682 17.658zM529.422 605.779c53.115 0 96.995-54.329 103.415-124.254h-206.878c6.432 69.925 50.324 124.254 103.463 124.254zM688.627 185.651h-318.433v260.535h318.445v-260.535zM523.474 421.083c-0.153 0-0.271-0.024-0.424-0.024-0.059 0-0.13 0.024-0.2 0.024-0.212 0-0.412-0.047-0.624-0.047-59.641-0.695-107.974-49.346-107.974-109.152s48.321-108.481 107.974-109.152c0.212 0 0.412-0.071 0.624-0.071 0.094 0 0.165 0.024 0.247 0.024 0.118 0 0.236-0.024 0.365-0.024 60.207 0 109.211 49.004 109.211 109.211s-48.992 109.211-109.199 109.211zM595.107 329.553h-26.387c-0.719 14.56-2.391 30.321-5.807 44.681 15.832-10.072 27.565-25.951 32.194-44.681zM522.461 239.225c-5.136 5.501-13.453 24.208-15.891 54.988h26.964c-1.449-32.041-7.162-49.322-11.073-54.988zM506.569 329.553c2.391 30.18 10.425 48.757 15.585 54.647 3.934-6.232 9.424-23.701 11.132-54.647h-26.717zM477.603 369.687c-3.381-12.451-5.489-26.187-6.467-40.122h-19.307c3.97 16.080 13.182 30.109 25.774 40.122zM451.828 294.214h19.307c0.978-13.947 3.098-27.706 6.479-40.122-12.604 10.013-21.816 24.043-25.786 40.122zM563.678 250.004c2.804 12.404 4.571 27.153 5.218 44.222h26.21c-4.547-18.412-15.973-34.126-31.429-44.222z" />
<glyph unicode="&#xe92f;" glyph-name="globe2" horiz-adv-x="1047" d="M529.399 785.894c-178.465 0-323.675-145.199-323.675-323.687 0-178.477 145.199-323.699 323.675-323.699 178.488 0 323.699 145.222 323.699 323.699-0.012 178.488-145.21 323.687-323.699 323.687zM779.686 319.305h-75.862c10.932 37.943 17.576 80.233 18.954 125.232h94.38c-2.768-45.341-16.068-87.89-37.472-125.232zM241.652 444.548h94.345c1.378-45.011 8.034-87.301 18.954-125.232h-75.839c-21.392 37.33-34.692 79.879-37.46 125.232zM279.112 605.096h75.839c-10.92-37.943-17.564-80.221-18.942-125.208h-94.345c2.756 45.352 16.056 87.878 37.448 125.208zM547.069 640.436v108.186c42.207-9 79.95-49.652 105.701-108.186h-105.701zM666.128 605.096c12.086-37.542 19.672-80.15 21.251-125.208h-140.31v125.208h119.059zM511.729 748.622v-108.186h-105.712c25.751 58.534 63.493 99.186 105.712 108.186zM511.729 605.096v-125.208h-140.322c1.579 45.058 9.165 87.666 21.251 125.208h119.071zM371.407 444.548h140.322v-125.232h-119.071c-12.098 37.542-19.672 80.15-21.251 125.232zM511.729 283.965v-108.163c-42.207 8.976-79.95 49.629-105.701 108.163h105.701zM547.069 175.814v108.163h105.701c-25.751-58.534-63.505-99.198-105.701-108.163zM547.069 319.305v125.244h140.31c-1.579-45.082-9.165-87.689-21.263-125.232h-119.047zM722.777 479.888c-1.378 44.987-8.034 87.265-18.93 125.208h75.851c21.392-37.33 34.692-79.856 37.46-125.208h-94.38zM755.808 640.436h-63.894c-13.37 34.421-30.569 64.106-50.677 87.536 45.258-19.107 84.579-49.487 114.571-87.536zM417.525 727.96c-20.108-23.43-37.307-53.104-50.665-87.524h-63.87c30.003 38.049 69.313 68.417 114.536 87.524zM303.002 283.965h63.859c13.358-34.421 30.557-64.094 50.665-87.524-45.211 19.13-84.509 49.499-114.524 87.524zM641.249 196.453c20.096 23.418 37.307 53.104 50.677 87.524h63.882c-30.015-38.061-69.336-68.429-114.559-87.524z" />
<glyph unicode="&#xe930;" glyph-name="administration" horiz-adv-x="1047" d="M849.658 634.758l-312.673 155.93c-4.971 2.474-10.802 2.474-15.773 0l-312.638-155.93c-6.090-3.027-9.883-9.294-9.789-16.080l0.483-31.429c0.153-9.648 7.999-17.387 17.646-17.399l30.875-0.035v-38.061c0-9.766 7.904-17.67 17.67-17.67h4.182v-276.073h-42.867c-9.766 0-17.67-7.916-17.67-17.67v-70.797c0-9.754 7.904-17.67 17.67-17.67h604.649c9.766 0 17.67 7.916 17.67 17.67v70.797c0 9.754-7.904 17.67-17.67 17.67h-46.106v276.061h4.205c9.766 0 17.67 7.904 17.67 17.67v37.271l35.128-0.047c0.012 0 0.012 0 0.024 0 4.724 0 9.271 1.908 12.593 5.277 3.334 3.381 5.16 7.963 5.077 12.71l-0.577 32.312c-0.118 6.585-3.876 12.557-9.777 15.491zM386.733 549.696c-1.355 0.33-2.745 0.554-4.205 0.554h-95.205c-1.449 0-2.839-0.224-4.182-0.554v19.26h103.604v-19.26zM364.858 514.073v-274.989h-59.865v274.989h59.865zM400.197 514.073h4.205c9.766 0 17.67 7.904 17.67 17.67v37.813l18.271-0.024v-37.79c0-9.766 7.904-17.67 17.67-17.67h4.182v-276.073h-62.009v276.073zM497.546 239.084v274.989h59.865v-274.989h-59.865zM579.287 549.696c-1.355 0.33-2.745 0.554-4.205 0.554h-95.205c-1.449 0-2.839-0.224-4.182-0.554v19.26h103.604v-19.26zM813.753 167.203h-569.297v35.457h569.297v-35.457zM749.977 239.084h-59.842v274.989h59.842v-274.989zM771.864 549.696c-1.355 0.33-2.745 0.554-4.205 0.554h-95.181c-1.461 0-2.851-0.236-4.205-0.554v19.26h103.604v-19.26zM650.59 514.073h4.205v-276.073h-62.056v276.073h4.205c9.766 0 17.67 7.904 17.67 17.67v37.542l18.294-0.024v-37.519c0.012-9.766 7.916-17.67 17.682-17.67zM234.337 605.155l-0.047 2.945 294.815 147.036 295.203-147.225 0.071-3.593-590.042 0.836z" />
<glyph unicode="&#xe931;" glyph-name="handshake" horiz-adv-x="1047" d="M842.072 761.003h-100.588c-5.065 0-9.895-2.179-13.252-5.972l-108.339-122.687c-2.733-3.11-4.123-6.903-4.311-10.743-7.28-2.933-16.48-6.809-26.929-11.544l-117.009-19.613 2.556 18.824c0.848 6.255-1.708 12.498-6.703 16.362l-170.408 131.687c-3.098 2.391-6.891 3.687-10.802 3.687h-69.537c-9.766 0-17.67-7.904-17.67-17.67v-435.725c0-7.021 4.147-13.37 10.567-16.174 2.285-1.013 4.7-1.496 7.103-1.496 4.347 0 8.635 1.59 11.957 4.653l49.475 45.458 12.428-10.355c-8.588-3.31-16.244-8.929-22.123-16.539-17.316-22.429-13.735-55.177 7.975-72.929 9-7.386 20.32-11.462 31.865-11.462 0.789 0 1.567 0.118 2.356 0.141 2.061-12.015 7.999-23.324 17.941-31.499 8.988-7.386 20.308-11.438 31.876-11.438 0.801 0 1.579 0.094 2.38 0.141 2.061-12.015 7.999-23.348 17.941-31.546 8.988-7.362 20.297-11.438 31.841-11.438 0.813 0 1.602 0.118 2.403 0.141 2.061-11.992 7.999-23.312 17.941-31.452 9.012-7.386 20.356-11.485 31.912-11.485 15.809 0 30.498 7.292 40.275 19.99 5.266 6.809 8.364 14.607 9.836 22.641l37.33-31.064c8.14-6.785 18.294-10.402 28.978-10.402 1.649 0 3.298 0.094 4.959 0.247 13.5 1.402 26.281 8.564 35.069 19.602 0.035 0.047 0.047 0.094 0.082 0.118 2.262 2.874 4.147 5.913 5.737 9.047 0.565 1.131 0.919 2.297 1.402 3.452 0.883 2.12 1.755 4.182 2.368 6.349 0.094 0.365 0.283 0.695 0.377 1.037 2.132-0.294 4.288-0.436 6.479-0.459 0.141 0 0.247-0.024 0.389-0.024 1.661 0 3.31 0.071 4.995 0.247 3.334 0.342 6.62 1.060 9.813 2.073 0.035 0 0.059 0 0.082 0.024 2.438 0.777 4.736 1.908 7.056 3.063 0.766 0.389 1.59 0.601 2.332 1.013 1.131 0.648 2.12 1.52 3.216 2.25 3.098 2.050 5.961 4.417 8.599 7.115 1.331 1.355 2.756 2.603 3.958 4.099 0.024 0.047 0.035 0.071 0.059 0.094 1.908 2.438 3.499 4.995 4.936 7.633 0.389 0.719 0.73 1.425 1.096 2.167 1.072 2.215 1.991 4.465 2.733 6.738 0.188 0.554 0.412 1.107 0.577 1.661 0.742 2.533 1.343 5.089 1.696 7.657 0.99 0.047 1.979 0.118 2.969 0.236 13.512 1.402 26.269 8.54 34.998 19.578 2.321 2.945 4.229 6.078 5.855 9.294 0.53 1.060 0.86 2.144 1.319 3.216 0.942 2.215 1.814 4.441 2.45 6.715 0.353 1.308 0.565 2.627 0.813 3.934 0.412 2.12 0.754 4.205 0.895 6.326 0.106 1.378 0.106 2.756 0.094 4.17-0.024 2.050-0.153 4.052-0.412 6.078-0.094 0.73-0.024 1.496-0.141 2.226 2.321 0.872 4.571 1.955 6.75 3.157 0.377 0.212 0.73 0.483 1.096 0.695 2.285 1.331 4.465 2.874 6.55 4.559 0.636 0.53 1.249 1.037 1.861 1.567 2.309 2.050 4.512 4.229 6.455 6.691 2.167 2.733 4.029 5.619 5.595 8.599 10.543 20.155 7.080 44.87-9.047 59.724l50.418 37.295 21.616-21.922c3.381-3.428 7.951-5.266 12.581-5.266 2.25 0 4.535 0.436 6.691 1.331 6.644 2.709 10.979 9.177 10.979 16.339v382.092c0.012 9.766-7.904 17.67-17.658 17.67zM749.435 725.663h74.955v-315.948l-168.829 209.634 93.874 106.313zM234.419 725.663h45.835l157.544-121.757-3.192-23.454-159.817-201.73c-4.158-0.071-8.317-1.425-11.615-4.465l-28.755-26.434v377.839zM298.843 267.556c-7.068 5.796-8.14 16.562-2.391 24.019 3.051 3.958 7.551 6.208 12.322 6.208 2.415 0 6.020-0.601 9.471-3.404 7.056-5.819 8.128-16.586 2.391-24.043-3.051-3.958-7.539-6.232-12.322-6.232-2.403 0-5.996 0.601-9.471 3.452zM351.052 224.713c-7.080 5.819-8.163 16.586-2.415 24.043 3.051 3.958 7.551 6.232 12.334 6.232 2.415 0 6.020-0.601 9.459-3.404 7.068-5.819 8.152-16.61 2.438-24.043 0 0 0-0.024-0.012-0.024-3.051-3.958-7.551-6.208-12.345-6.208-2.427 0-6.020 0.577-9.459 3.404zM403.248 181.869c-6.962 5.725-8.081 16.751-2.415 24.066 3.051 3.982 7.551 6.232 12.334 6.232 2.403 0 5.996-0.577 9.436-3.404 7.056-5.796 8.14-16.539 2.45-23.972-0.012-0.024-0.024-0.047-0.035-0.047-0.024-0.024-0.024-0.071-0.047-0.094-3.063-3.934-7.551-6.184-12.322-6.184-2.403 0-5.984 0.601-9.4 3.404zM477.202 141.912c-3.051-3.958-7.527-6.232-12.298-6.232-2.415 0-6.020 0.601-9.506 3.475-7.056 5.772-8.128 16.515-2.427 23.948 0.012 0.024 0.024 0.024 0.024 0.047 0.012 0 0.012 0.024 0.024 0.047 3.075 3.934 7.551 6.184 12.322 6.184 2.403 0 5.996-0.577 9.424-3.404 7.103-5.819 8.199-16.61 2.438-24.066zM699.583 228.435c-2.851-3.616-6.832-5.937-10.932-6.373-2.073-0.188-5.16 0-7.845 2.226l-0.448 0.389-97.007 80.68c-7.504 6.255-18.636 5.218-24.867-2.274-6.243-7.504-5.218-18.636 2.274-24.891l7.527-6.255c0.071-0.071 0.118-0.118 0.177-0.188l82.082-68.288c1.308-1.107 2.297-2.533 2.969-4.17 1.979-4.9 0.99-11.615-2.957-16.633-2.898-3.64-6.915-5.984-11.038-6.396-1.060-0.118-2.332-0.118-3.675 0.165-1.331 0.294-2.733 0.895-4.052 1.979l-105.253 87.619c-7.504 6.208-18.636 5.218-24.879-2.274s-5.218-18.659 2.274-24.891l15.443-12.864c0 0 0.012-0.024 0.024-0.024l74.331-61.868c0.719-0.601 1.084-1.472 1.614-2.25 0.436-0.648 1.060-1.154 1.355-1.908 0.483-1.202 0.589-2.556 0.719-3.934 0.047-0.483 0.247-0.919 0.247-1.425 0-3.793-1.331-7.916-3.982-11.25-2.898-3.64-6.903-5.984-11.002-6.396-2.073-0.188-5.112-0.024-7.728 2.167l-268.169 223.122 150.523 189.986 40.452 6.773c-32.395-22.7-62.74-50.559-80.61-82.989-9.4-17.175-19.142-51.537 4.040-71.41 24.408-20.803 58.617-20.344 79.561 1.084 20.638 21.18 44.116 41.23 56.437 48.745l160.477-133.525c0.071-0.047 0.118-0.094 0.188-0.141l15.42-12.816c5.277-4.394 5.266-14.124-0.071-20.85-2.851-3.616-6.844-5.937-10.932-6.349-1.037-0.118-2.309-0.141-3.664 0.165-0.389 0.094-0.801 0.247-1.202 0.389-0.294 0.118-0.577 0.165-0.872 0.294-0.271 0.141-0.53 0.365-0.801 0.53-0.412 0.236-0.825 0.436-1.225 0.777l-82.047 68.276c0 0-0.012 0-0.024 0l-7.728 6.444c-7.504 6.232-18.648 5.218-24.867-2.274-6.255-7.504-5.218-18.659 2.274-24.891l97.525-81.199c5.289-4.359 5.254-14.089-0.059-20.815zM729.692 356.895l-63.599 52.915c-0.059 0.047-0.118 0.071-0.177 0.118l-94.475 78.607c-0.177 0.141-0.353 0.236-0.542 0.365-0.483 0.377-0.99 0.707-1.52 1.025-0.53 0.33-1.084 0.648-1.649 0.919-0.353 0.177-0.73 0.318-1.119 0.471-0.73 0.283-1.472 0.542-2.238 0.73-0.259 0.071-0.542 0.106-0.813 0.165-0.883 0.177-1.767 0.294-2.674 0.33-0.212 0.012-0.436 0-0.648 0-0.978 0-1.944-0.059-2.898-0.224-0.094-0.012-0.188 0-0.271-0.012-0.141-0.024-0.271-0.082-0.412-0.106-0.754-0.153-1.52-0.342-2.25-0.589-23.63-6.55-62.763-44.646-78.937-61.22-6.785-6.95-19.719-8.8-31.323 1.060-4.523 3.876-0.636 18.966 3.97 27.541 37.99 68.924 149.027 117.304 185.227 131.605l153.916-191.093-57.568-42.608z" />
<glyph unicode="&#xe932;" glyph-name="suitcase" horiz-adv-x="1047" d="M792.514 697.662h-130.521v70.561c0 9.766-7.916 17.67-17.67 17.67h-229.802c-9.754 0-17.67-7.904-17.67-17.67v-70.561h-130.474c-33.443 0-60.643-29.191-60.643-65.072v-429.011c0-35.87 27.211-65.060 60.643-65.060h526.136c33.408 0 60.584 29.202 60.584 65.060v429.023c-0.012 35.87-27.176 65.060-60.584 65.060zM737.596 662.323v-488.476h-419.622v488.476h419.622zM432.191 750.554h194.462v-52.892h-194.462v52.892zM241.063 203.58v429.023c0 16.115 11.58 29.732 25.303 29.732h16.268v-488.476h-16.268c-13.712 0-25.303 13.618-25.303 29.721zM817.746 203.58c0-16.103-11.556-29.721-25.244-29.721h-19.578v488.464h19.578c13.676 0 25.244-13.618 25.244-29.732v-429.011zM562.382 497.735c34.091 0 61.821 27.73 61.821 61.833s-27.73 61.833-61.821 61.833c-34.103 0-61.844-27.73-61.844-61.833s27.753-61.833 61.844-61.833zM562.382 586.048c14.595 0 26.481-11.886 26.481-26.493s-11.886-26.493-26.481-26.493c-14.607 0-26.505 11.886-26.505 26.493s11.898 26.493 26.505 26.493zM499.949 417.184l26.293-66.45c4.712-11.921 16.009-19.602 28.79-19.602 3.911 0 7.739 0.719 11.391 2.167l131.369 51.996c15.856 6.279 23.654 24.314 17.387 40.193l-26.328 66.438c-4.677 11.921-15.985 19.613-28.802 19.613-3.899 0-7.739-0.73-11.391-2.179l-131.369-51.985c-15.844-6.314-23.63-24.361-17.34-40.193zM657.587 474.893l23.124-58.357-123.217-48.78-23.1 58.393 123.194 48.745z" />
<glyph unicode="&#xe933;" glyph-name="capitol" horiz-adv-x="1047" d="M792.785 109.706h-37.566v184.826c8.588 1.225 15.208 8.517 15.208 17.422v39.993h4.736c9.754 0 17.67 7.916 17.67 17.67s-7.916 17.67-17.67 17.67h-54.611v142.442h16.998c9.754 0 17.67 7.904 17.67 17.67s-7.916 17.67-17.67 17.67h-18.424c-7.186 77.759-61.22 142.124-133.607 164.459v40.428c0 24.714-16.174 45.506-38.426 52.95v9.483c0 9.766-7.916 17.67-17.67 17.67s-17.67-7.904-17.67-17.67v-9.483c-22.264-7.445-38.449-28.236-38.449-52.95v-40.428c-72.375-22.335-126.386-86.7-133.584-164.459h-18.424c-9.754 0-17.67-7.904-17.67-17.67s7.916-17.67 17.67-17.67h16.998v-142.454h-54.635c-9.754 0-17.67-7.916-17.67-17.67s7.916-17.67 17.67-17.67h4.736v-39.993c0-8.906 6.632-16.221 15.231-17.422v-184.814h-37.59c-9.754 0-17.67-7.916-17.67-17.67s7.916-17.67 17.67-17.67h526.748c9.754 0 17.67 7.916 17.67 17.67s-7.916 17.67-17.67 17.67zM470.099 294.273v-184.567h-47.897v184.567h47.897zM505.439 294.273h47.92v-184.567h-47.92v184.567zM588.71 294.273h47.897v-184.567h-47.897v184.567zM671.947 294.273h47.92v-184.567h-47.92v184.567zM633.804 387.275v96.018h51.396v-96.018h-51.396zM547.092 387.275v96.018h51.372v-96.018h-51.372zM460.369 387.275v96.018h51.372v-96.018h-51.372zM685.199 529.729v-11.097h-311.566v11.097h311.566zM508.643 769.955c0 11.438 9.318 20.733 20.78 20.733 11.45 0 20.756-9.306 20.756-20.733v-33.16c-6.832 0.742-13.747 1.19-20.78 1.19-7.021 0-13.936-0.448-20.756-1.19v33.16zM529.399 702.634c79.644 0 145.387-60.278 154.198-137.577h-308.35c8.811 77.311 74.531 137.577 154.151 137.577zM373.634 483.292h51.396v-96.018h-51.396v96.018zM735.087 351.935v-22.323h-411.353v22.323h411.353zM338.966 294.273h47.897v-184.567h-47.897v184.567z" />
<glyph unicode="&#xe934;" glyph-name="directions" horiz-adv-x="1047" d="M827.3 749.023c-3.357 4.111-8.387 6.502-13.688 6.502h-249.085v29.709c0 24.867-20.238 45.105-45.093 45.105-24.844 0-45.070-20.226-45.070-45.105v-29.709h-184.296c-9.754 0-17.67-7.904-17.67-17.67v-189.456c0-9.766 7.916-17.67 17.67-17.67h184.296v-60.207h-231.686c-5.324 0-10.378-2.403-13.724-6.55l-74.779-92.272c-5.254-6.491-5.254-15.761 0-22.252l74.779-92.236c3.345-4.147 8.399-6.538 13.724-6.538h231.686v-115.337c0-9.754 7.916-17.67 17.67-17.67h54.823c9.754 0 17.67 7.916 17.67 17.67v115.337h186.77c9.754 0 17.67 7.916 17.67 17.67v184.496c0 9.754-7.916 17.67-17.67 17.67h-186.77v60.207h249.085c5.301 0 10.331 2.391 13.688 6.502l77.299 94.722c5.301 6.502 5.301 15.844 0 22.335l-77.299 94.745zM509.703 785.234c0 5.383 4.37 9.766 9.73 9.766 5.383 0 9.754-4.382 9.754-9.766v-29.709h-19.484v29.709zM529.187 152.997h-19.484v97.667h19.484v-97.667zM733.638 286.003h-482.539l-60.454 74.567 60.454 74.59h482.527v-149.157zM529.187 470.511h-19.484v60.207h19.484v-60.207zM805.224 566.058h-497.487v154.128h497.487l62.881-77.064-62.881-77.064z" />
<glyph unicode="&#xe935;" glyph-name="umbrella" horiz-adv-x="1047" d="M890.381 419.858l-1.897 28.095c-0.212 4.806-0.565 9.577-0.966 14.336l-0.082 1.154h-0.012c-15.432 172.198-160.772 309.163-341.086 319.446v51.443c0 12.039-9.754 21.793-21.793 21.793s-21.793-9.754-21.793-21.793v-51.443c-185.78-10.602-334.501-155.694-342.146-335.231l-2.226-27.789h344.384v-195.876c0-44.457-34.114-80.633-76.063-80.633s-76.074 36.164-76.074 80.633c0 12.027-9.766 21.793-21.793 21.793s-21.793-9.754-21.793-21.793c0-68.488 53.681-124.207 119.672-124.207 65.979 0 119.648 55.707 119.648 124.207v195.864h344.019zM364.834 463.443c7.633 187.677 86.123 253.55 154.941 274.812 118.164-35.893 151.089-162.868 155.765-274.812h-310.706zM843.721 463.443h-124.56c-4.5 116.833-35.316 204.593-90.729 259.923 116.42-38.237 202.814-138.814 215.289-259.923zM407.831 718.854c-52.738-55.542-82.2-141.606-86.582-255.411h-115.867c12.015 116.609 92.566 214.181 202.449 255.411z" />
<glyph unicode="&#xe936;" glyph-name="ribbon" horiz-adv-x="1047" d="M867.764 220.46l-131.923 177.228c0.071 0.141 0.165 0.353 0.236 0.483 1.743 1.92 5.925 5.737 8.764 8.34 11.603 10.614 24.761 22.653 31.005 38.709 6.29 16.268 4.582 33.961 3.075 49.57-0.353 3.722-0.883 9.188-0.919 11.745 0.66 2.474 2.509 7.669 3.77 11.214 5.266 14.76 11.238 31.499 9.129 48.686-2.156 17.258-12.039 32.112-20.78 45.199-2.097 3.145-5.16 7.716-6.408 10.001-0.601 2.509-1.402 7.869-1.955 11.532-2.332 15.526-4.995 33.125-15.008 47.331-9.883 14.053-25.598 22.641-39.474 30.227-3.404 1.861-8.387 4.582-10.567 6.043-1.72 1.932-5.042 6.385-7.304 9.436-9.377 12.616-20.014 26.917-35.446 34.845-15.22 7.822-33.043 8.269-48.769 8.67-4.005 0.106-9.907 0.247-12.487 0.565-2.427 0.895-7.704 3.44-11.285 5.16-14.148 6.821-30.18 14.536-47.343 14.536-16.904 0-32.3-7.539-45.894-14.195-3.499-1.72-8.646-4.229-11.12-5.16-2.556-0.259-8.14-0.436-11.968-0.542-16.551-0.495-35.304-1.037-50.913-9.059-15.761-8.128-26.964-23.053-36.847-36.211-2.203-2.921-5.383-7.162-7.091-9.141-2.215-1.472-7.162-4.135-10.543-5.961-13.358-7.197-28.507-15.373-38.273-29.202-10.025-14.218-12.663-31.759-14.996-47.237-0.554-3.711-1.378-9.165-1.979-11.639-1.225-2.25-4.323-6.903-6.444-10.084-8.705-13.076-18.577-27.906-20.709-45.058-2.132-17.269 3.852-34.044 9.141-48.839 1.249-3.51 3.086-8.623 3.746-11.132-0.035-2.58-0.554-7.963-0.919-11.65-1.52-15.644-3.239-33.361 3.027-49.581 6.22-16.115 19.413-28.166 31.052-38.803 0.507-0.471 1.096-1.013 1.673-1.543l-139.815-124.631c-6.29-5.619-8.54-14.489-5.654-22.417s10.296-13.311 18.718-13.57l126.504-4.029 26.941-122.428c1.861-8.482 8.847-14.89 17.446-16.009 0.907-0.118 1.802-0.177 2.686-0.177 7.622 0 14.737 4.241 18.306 11.144l90.281 174.601c2.427-0.247 4.912-0.401 7.516-0.401 11.58 0 23.407 2.544 33.844 4.783 3.923 0.836 9.718 2.085 12.286 2.38 2.58-0.294 8.352-1.543 12.286-2.38 10.425-2.238 22.252-4.783 33.82-4.783 0.636 0 1.202 0.082 1.826 0.106l60.124-204.18c2.474-8.411 10.001-14.336 18.754-14.772 0.342-0.012 0.695-0.024 1.037-0.024 8.34 0 15.926 5.065 19.083 12.852l51.454 126.634 115.266-19.814c8.293-1.402 16.645 2.356 21.051 9.542s4.029 16.327-1.013 23.089zM379.736 182.411l-18.129 82.388c-2.026 9.212-10.048 15.879-19.472 16.174l-90.941 2.898 94.51 84.25c4.406-8.434 9.707-16.539 17.151-23.006 12.958-11.25 30.204-15.891 45.423-19.967 3.852-1.037 9.53-2.556 11.945-3.452 2.12-1.437 6.62-5.136 9.659-7.645 4.029-3.31 8.269-6.773 12.71-10.060l-62.857-121.58zM534.087 335.455c-11.332 0-32.383-7.197-46.142-7.197-2.179 0-4.17 0.188-5.913 0.601-12.71 3.075-31.311 23.56-42.949 29.532-11.58 5.984-39.404 9.33-49.216 17.858-9.824 8.54-16.562 35.128-24.031 45.706-7.457 10.567-30.463 26.198-35.092 38.214-4.653 12.027 1.979 38.662 0.424 51.419-1.59 12.758-14.536 37.059-12.97 49.817 1.59 12.746 20.108 33.325 24.749 45.341 4.665 12.015 4.7 39.427 12.157 50.006 7.468 10.578 34.138 19.802 43.432 28.872 9.283 9.082 22.865 32.772 34.491 38.756 11.615 5.972 39.239 3.463 52.149 5.796 12.887 2.332 35.775 18.6 48.91 18.6 13.123 0 36.176-15.514 48.922-18.6 12.746-3.075 40.499 0.177 52.114-5.796 11.662-5.984 24.714-30.215 34.491-38.756 9.824-8.505 36.011-18.294 43.444-28.872 7.457-10.567 7.527-37.99 12.145-50.006 4.665-12.027 23.195-32.595 24.785-45.341 1.567-12.758-11.391-37.059-12.958-49.817-1.59-12.758 5.042-39.404 0.389-51.419-4.665-12.015-27.636-27.636-35.092-38.214s-14.218-37.165-24.043-45.706c-9.801-8.529-37.59-11.874-49.193-17.858-11.639-5.972-30.227-26.458-42.973-29.532-1.743-0.424-3.734-0.601-5.913-0.601-13.735 0-34.786 7.197-46.118 7.197zM723.119 251.076c-9.424 1.602-18.93-3.569-22.582-12.546l-35.505-87.359-44.033 149.545c6.161 4.205 11.921 8.894 17.316 13.347 3.051 2.509 7.539 6.196 9.659 7.622 2.415 0.907 8.093 2.427 11.945 3.463 15.22 4.088 32.477 8.717 45.423 19.979 3.828 3.322 7.009 7.15 9.907 11.179l88.667-119.118-80.798 13.888zM683.373 538.516c0 80.845-66.98 146.624-149.286 146.624-82.294 0-149.251-65.779-149.251-146.624 0-80.857 66.957-146.636 149.251-146.636 82.306-0.012 149.286 65.779 149.286 146.636zM534.087 433.098c-59.571 0-108.021 47.284-108.021 105.406s48.462 105.394 108.021 105.394c59.583 0 108.057-47.284 108.057-105.394s-48.474-105.406-108.057-105.406z" />
<glyph unicode="&#xe937;" glyph-name="money" horiz-adv-x="992" d="M500.752 65.339c-212.488 0-385.355 172.142-385.355 383.748 0 211.59 172.867 383.732 385.355 383.732 212.472 0 385.323-172.142 385.323-383.732 0.016-211.606-172.851-383.748-385.323-383.748zM500.752 786.314c-186.841 0-338.849-151.284-338.849-337.227 0-185.958 152.009-337.243 338.849-337.243 186.825 0 338.818 151.284 338.818 337.243 0 185.943-151.993 337.227-338.818 337.227zM480.445 203.752v60.369c-34.658 0.599-70.546 11.359-91.451 26.309l14.383 40.015c21.457-14.336 52.523-25.695 86.016-25.695 42.425 0 71.129 24.513 71.129 58.589 0 32.847-23.3 53.153-67.537 71.113-60.967 23.867-98.619 51.389-98.619 103.377 0 49.609 35.289 87.245 90.27 96.224v60.369h37.053v-57.974c35.84-1.197 60.337-10.744 77.682-20.937l-14.935-39.416c-12.54 7.168-37.069 20.307-75.335 20.307-46.001 0-63.315-27.49-63.315-51.373 0-31.098 22.118-46.631 74.075-68.135 61.566-25.112 92.617-56.178 92.617-109.363 0-47.23-32.831-91.435-94.381-101.597v-62.165h-37.652z" />
<glyph unicode="&#xe938;" glyph-name="checkmark" horiz-adv-x="1047" d="M829.479 62.209h-594.86c-64.777 0-117.481 51.301-117.481 114.382v575.223c0 63.069 52.703 114.371 117.481 114.371h542.192v-47.119h-542.192c-38.791 0-70.361-30.168-70.361-67.251v-575.223c0-37.083 31.558-67.263 70.361-67.263h594.86c38.803 0 70.385 30.18 70.385 67.263v383.317h47.119v-383.317c0-63.069-52.715-114.382-117.504-114.382zM494.106 236.763c-6.903 0-13.464 3.027-17.941 8.281l-214.983 252.466c-8.434 9.907-7.245 24.785 2.662 33.219 9.919 8.423 24.773 7.233 33.219-2.662l196.83-231.156 429.741 516.606c8.328 10.001 23.171 11.368 33.172 3.051 10.001-8.328 11.368-23.171 3.039-33.172l-447.635-538.128c-4.441-5.336-11.026-8.446-17.976-8.493-0.047-0.012-0.094-0.012-0.13-0.012z" />
<glyph unicode="&#xe939;" glyph-name="simple_arrow" horiz-adv-x="1047" d="M527.973 229.389c-6.031 0-12.051 2.285-16.657 6.903-9.188 9.188-9.188 24.113 0 33.313l151.913 151.913h-295.757c-13.005 0-23.56 10.555-23.56 23.56s10.555 23.56 23.56 23.56h289.172l-145.328 145.293c-9.188 9.2-9.188 24.113 0 33.313s24.125 9.2 33.313 0l185.498-185.498c0.13-0.118 0.247-0.247 0.353-0.365v0c0 0 0 0 0.012-0.012 2.073-2.167 3.664-4.629 4.747-7.245 1.178-2.792 1.802-5.866 1.802-9.082 0-1.119-0.082-2.215-0.236-3.298 0.99-7.091-1.225-14.489-6.667-19.943l-185.533-185.533c-4.582-4.594-10.614-6.879-16.633-6.879z" />
<glyph unicode="&#xe93a;" glyph-name="external" horiz-adv-x="1047" d="M837.725 739.328c0 1.543-0.165 3.098-0.459 4.618-0.13 0.66-0.377 1.272-0.565 1.908-0.247 0.836-0.436 1.685-0.766 2.486-0.33 0.813-0.801 1.555-1.225 2.332-0.306 0.565-0.554 1.166-0.919 1.72-0.86 1.296-1.849 2.509-2.957 3.616v0c-0.024 0.012-0.047 0.024-0.059 0.047-1.084 1.060-2.25 2.026-3.522 2.874-0.577 0.377-1.202 0.648-1.779 0.978-0.742 0.412-1.472 0.86-2.262 1.19-0.754 0.318-1.555 0.495-2.344 0.73-0.683 0.212-1.331 0.471-2.050 0.613-1.319 0.259-2.662 0.377-3.993 0.412-0.212 0-0.389 0.059-0.601 0.059-0.012 0-0.035 0-0.047 0-0.035 0-0.059-0.012-0.082-0.012-1.52 0-3.039-0.153-4.523-0.459-0.094-0.012-0.188-0.035-0.259-0.047l-195.817 0.518c-13.017 0.024-23.583-10.519-23.607-23.513 0-0.012 0-0.035 0-0.047 0-12.993 10.519-23.536 23.513-23.56l143.491-0.389-213.039-213.039c-9.2-9.2-9.2-24.113 0-33.313 4.606-4.629 10.614-6.903 16.657-6.903 6.031 0 12.051 2.274 16.657 6.903l213.286 213.274-0.377-155.435c-0.024-13.017 10.519-23.583 23.513-23.607 0.012 0 0.035 0 0.047 0 12.993 0 23.536 10.519 23.56 23.513l0.53 211.955c0 0 0 0 0 0.012s0 0.035 0 0.047c0 0 0 0 0 0.012v0.471c0 0.012 0 0.024 0 0.035zM791.524 428.787c0 0.459-0.118 0.883-0.141 1.343v0.2h-0.024c-0.825 12.263-10.955 21.993-23.442 21.969-12.44-0.024-22.523-9.73-23.348-21.969h-0.294v-176.309c0-19.767-16.657-35.846-37.13-35.846h-384.353c-20.45 0-37.107 16.080-37.107 35.846v376.284c0 19.767 16.645 35.846 37.107 35.846l188.984 0.106c12.51 0.577 22.488 10.849 22.464 23.501-0.024 12.616-9.989 22.818-22.464 23.395v0.106h-188.984c-46.436 0-84.226-37.213-84.226-82.966v-376.284c0-45.741 37.79-82.966 84.226-82.966h384.342c46.448 0 84.25 37.224 84.25 82.966v174.778h0.141z" />
<glyph unicode="&#xe93b;" glyph-name="check2" horiz-adv-x="1047" d="M431.214 148.214c-7.857 0-15.42 3.145-20.968 8.776l-164.624 166.968c-11.415 11.568-11.285 30.215 0.294 41.642 11.591 11.426 30.227 11.285 41.654-0.294l141.264-143.278 356.576 448.99c10.131 12.734 28.66 14.854 41.383 4.747 12.734-10.107 14.866-28.637 4.747-41.371l-377.262-475.047c-5.242-6.609-13.064-10.637-21.486-11.085-0.53-0.035-1.048-0.047-1.579-0.047z" />
<glyph unicode="&#xe93c;" glyph-name="people" horiz-adv-x="1047" d="M526.207 718.725c-44.127 0-80.021 35.893-80.021 80.009 0 44.127 35.905 80.021 80.021 80.021s80.021-35.893 80.021-80.021c0-44.116-35.905-80.009-80.021-80.009zM526.207 838.844c-22.111 0-40.11-17.988-40.11-40.099s17.988-40.099 40.11-40.099c22.111 0 40.099 17.988 40.099 40.099s-17.988 40.099-40.099 40.099zM638.775 578.415h-227.387c-10.39 0-18.918 7.94-19.873 18.094-0.094 0.789-0.141 1.626-0.141 2.344v32.194c0 28.166 18.577 63.965 70.903 72.14 3.758 0.601 7.622 0.082 11.108-1.449l6.856-3.086c13.405-6.137 30.098-13.759 45.965-13.759 14.76 0 28.978 6.726 41.512 12.675 3.169 1.496 6.173 2.921 9.035 4.17 3.499 1.531 7.351 2.038 11.108 1.449 50.547-7.893 73.177-41.925 73.177-72.14 0-0.471-0.024-0.942-0.059-1.414l-2.274-32.194c0-0.106-0.012-0.2-0.024-0.306-0.624-10.437-9.306-18.718-19.908-18.718zM431.296 618.337h188.89l0.942 13.323c-0.353 14.548-13.37 26.34-33.808 31.028-0.825-0.389-1.661-0.777-2.509-1.19-14.713-6.974-34.868-16.515-58.605-16.515-24.561 0-46.519 10.048-62.563 17.375l-0.742 0.33c-19.908-4.606-31.605-16.174-31.605-31.641v-12.71zM310.305 394.331c-44.127 0-80.021 35.905-80.021 80.032s35.905 80.032 80.021 80.032c44.127 0 80.032-35.905 80.032-80.032s-35.905-80.032-80.032-80.032zM310.305 514.486c-22.111 0-40.11-18-40.11-40.122s17.988-40.11 40.11-40.11c22.123 0 40.11 17.988 40.11 40.11s-18 40.122-40.11 40.122zM422.862 254.021h-227.375c-10.449 0-19.013 8.034-19.884 18.247-0.071 0.742-0.13 1.555-0.13 2.226v32.194c0 28.166 18.577 63.953 70.903 72.128 3.734 0.601 7.633 0.094 11.144-1.461l6.679-3.027c13.441-6.161 30.18-13.83 46.106-13.83 14.807 0 29.061 6.762 41.63 12.722 3.11 1.484 6.078 2.886 8.882 4.135 3.499 1.555 7.386 2.038 11.144 1.461 50.536-7.904 73.153-41.925 73.153-72.128 0-0.459-0.012-0.931-0.047-1.39l-2.25-32.194c-0.024-0.283-0.047-0.577-0.071-0.86-0.883-10.213-9.447-18.223-19.884-18.223zM215.395 293.943h188.878l0.931 13.358c-0.342 14.536-13.347 26.328-33.773 31.016-0.777-0.365-1.579-0.742-2.38-1.131-14.748-6.997-34.939-16.586-58.746-16.586-24.643 0-46.648 10.084-62.728 17.458l-0.589 0.259c-19.896-4.618-31.594-16.174-31.594-31.629v-12.746zM772.323 394.331c-44.127 0-80.032 35.905-80.032 80.032s35.905 80.032 80.032 80.032c44.116 0 80.009-35.905 80.009-80.032s-35.893-80.032-80.009-80.032zM772.323 514.486c-22.123 0-40.11-18-40.11-40.122s17.988-40.11 40.11-40.11c22.111 0 40.087 17.988 40.087 40.11s-17.976 40.122-40.087 40.122zM884.868 254.021h-227.375c-10.543 0-19.26 8.187-19.908 18.706-0.035 0.424-0.094 1.355-0.094 1.767v32.194c0 28.166 18.565 63.953 70.903 72.128 3.758 0.613 7.633 0.082 11.144-1.461l6.667-3.027c13.453-6.161 30.18-13.83 46.118-13.83 14.796 0 29.049 6.75 41.606 12.722 3.122 1.484 6.102 2.886 8.906 4.135 3.499 1.543 7.339 2.073 11.144 1.461 50.536-7.904 73.153-41.925 73.153-72.128 0-0.459-0.024-0.931-0.047-1.39l-2.262-32.194c-0.012-0.224-0.035-0.448-0.047-0.66-0.789-10.296-9.4-18.424-19.908-18.424zM677.401 293.943h188.867l0.942 13.358c-0.353 14.536-13.347 26.316-33.773 31.016-0.777-0.365-1.59-0.742-2.391-1.143-14.748-6.997-34.939-16.574-58.723-16.574-24.655 0-46.672 10.084-62.74 17.458l-0.589 0.259c-19.896-4.618-31.594-16.174-31.594-31.629v-12.746zM534.417 27.164c-4.971 0-9.954 0.106-14.937 0.306-168.829 7.033-282.163 130.45-286.91 135.704-7.386 8.175-6.75 20.803 1.437 28.189 8.175 7.398 20.78 6.762 28.177-1.414v0c1.060-1.166 107.432-116.479 259.381-122.605 97.714-3.982 194.097 37.696 285.933 123.783 8.022 7.516 20.65 7.139 28.213-0.919 7.539-8.046 7.115-20.674-0.919-28.213-95.523-89.539-196.5-134.832-300.375-134.832zM149.958 434.1c-0.507 0-1.013 0.024-1.531 0.059-10.991 0.836-19.225 10.425-18.4 21.404 12.522 165.071 81.729 255.8 137.577 302.849 61.279 51.619 119.742 63.317 122.204 63.8 10.802 2.132 21.274-4.995 23.359-15.832 2.073-10.802-4.971-21.239-15.761-23.348v0c-8.387-1.673-205.877-44.245-227.575-330.484-0.801-10.472-9.542-18.447-19.873-18.447zM918.394 445.079c-10.779 0-19.661 8.599-19.932 19.437-0.283 10.472-9.766 256.613-249.015 328.352-10.555 3.169-16.551 14.289-13.394 24.844 3.181 10.555 14.313 16.562 24.844 13.382 267.356-80.174 277.38-362.726 277.451-365.576 0.271-11.014-8.446-20.167-19.449-20.438-0.177 0-0.33 0-0.507 0z" />
<glyph unicode="&#xe93d;" glyph-name="clipboard-check" horiz-adv-x="1047" d="M666.658 749.188l-28.825 57.662c-3.993 7.987-12.157 13.017-21.074 13.017h-188.478c-8.917 0-17.057-5.042-21.074-13.017l-28.802-57.662h-115.042c-13.005 0-23.56-10.555-23.56-23.56v-636.113c0-13.005 10.555-23.56 23.56-23.56h518.314c13.005 0 23.56 10.555 23.56 23.56v636.113c0 13.005-10.555 23.56-23.56 23.56h-115.019zM442.829 772.747h159.358l47.119-94.239h-253.597l47.119 94.239zM758.105 113.075h-471.195v588.993h67.923l-18.318-36.576c-3.652-7.304-3.239-15.973 1.037-22.912 4.288-6.95 11.898-11.179 20.038-11.179h329.836c0.082 0 0.177 0 0.247 0 13.005 0 23.56 10.555 23.56 23.56 0 4.924-1.508 9.495-4.111 13.276l-16.928 33.844h67.899v-589.005zM473.244 207.526c-8.317 0-16.15 3.946-21.098 10.649l-70.396 95.546c-8.588 11.639-6.114 28.048 5.548 36.624 11.674 8.588 28.048 6.102 36.624-5.572l48.144-65.343 156.814 237.294c7.975 12.074 24.231 15.396 36.306 7.41 12.063-7.975 15.385-24.231 7.41-36.306l-177.499-268.557c-4.712-7.139-12.616-11.532-21.192-11.745-0.224 0-0.448 0-0.66 0z" />
</font>
</defs>
</svg>
