<?xml version="1.0" standalone="no"?>
<!DOCTYPE svg PUBLIC "-//W3C//DTD SVG 1.1//EN" "http://www.w3.org/Graphics/SVG/1.1/DTD/svg11.dtd" >
<svg xmlns="http://www.w3.org/2000/svg">
<metadata></metadata>
<defs>
<font id="mission_gothicregular_italic" horiz-adv-x="1118" >
<font-face units-per-em="2048" ascent="1536" descent="-512" />
<missing-glyph horiz-adv-x="532" />
<glyph horiz-adv-x="0" />
<glyph horiz-adv-x="682" />
<glyph horiz-adv-x="2048" />
<glyph horiz-adv-x="2048" />
<glyph unicode="&#xd;" horiz-adv-x="532" />
<glyph unicode=" "  horiz-adv-x="532" />
<glyph unicode="&#x09;" horiz-adv-x="532" />
<glyph unicode="&#xa0;" horiz-adv-x="532" />
<glyph unicode="!" horiz-adv-x="460" d="M55 96q0 49 33.5 82t81.5 33t82.5 -33t34.5 -82q0 -50 -34.5 -83t-82.5 -33t-81.5 33t-33.5 83zM137 377l225 1057h189l-223 -1057h-191z" />
<glyph unicode="&#x22;" horiz-adv-x="673" d="M248 1008l108 426h172l-133 -426h-147zM500 1008l108 426h172l-133 -426h-147z" />
<glyph unicode="#" horiz-adv-x="1183" d="M78 528l14 148h270l54 246h-260l14 149h276l64 291h176l-61 -291h206l62 291h178l-61 -291h268l-14 -149h-287l-51 -246h272l-12 -148h-293l-66 -307h-178l66 307h-205l-66 -307h-178l64 307h-252zM541 676h204l54 246h-205z" />
<glyph unicode="$" horiz-adv-x="1013" d="M53 258l164 96q31 -84 110 -139t173 -55q107 0 179.5 63.5t72.5 173.5q0 53 -28 99.5t-72.5 82.5t-98.5 71.5t-108 75.5t-98.5 84.5t-72.5 108t-28 138.5q0 172 119 284.5t301 112.5q40 0 77 -6l72 217h131l-82 -252h-4q81 -36 133.5 -100.5t73.5 -147.5l-176 -94 q-18 90 -82.5 146.5t-157.5 56.5q-88 0 -150.5 -56.5t-62.5 -148.5q0 -52 28 -97.5t72.5 -80t98.5 -68.5t108 -73t98.5 -83t72.5 -108.5t28 -140.5q0 -137 -64 -238t-167.5 -150.5t-229.5 -49.5q-41 0 -82 6l-59 -191h-129l72 221l6 -2q-89 36 -151.5 99t-86.5 145z" />
<glyph unicode="%" horiz-adv-x="1228" d="M80 0q115 162 320 452t375 530t321 452h166l-1016 -1434h-166zM133 1004q0 79 20.5 156.5t59.5 144t103 108t143 41.5q111 0 166 -71.5t55 -186.5q0 -79 -20 -156t-58.5 -143.5t-103 -107.5t-144.5 -41q-110 0 -165.5 71t-55.5 185zM285 1038q0 -73 19 -111t69 -38 q44 0 81 46t56.5 112t19.5 133q0 61 -22 96t-66 35q-63 0 -110 -88t-47 -185zM664 236q0 79 20.5 156.5t59 144t102.5 108t143 41.5q111 0 166 -71.5t55 -186.5q0 -62 -12 -124.5t-38.5 -121t-63.5 -103.5t-92 -72t-119 -27q-110 0 -165.5 71t-55.5 185zM815 270 q0 -73 19 -111t69 -38q44 0 81 45.5t57 112t20 133.5q0 61 -22 96t-66 35q-63 0 -110.5 -88t-47.5 -185z" />
<glyph unicode="&#x26;" horiz-adv-x="1198" d="M84 360q0 182 117 320.5t297 175.5v4q-61 44 -94 108t-33 138q0 89 44 168t129 129.5t191 50.5q182 0 297 -145l-158 -152q-19 33 -33 51.5t-45.5 36t-72.5 17.5q-82 0 -125 -53t-43 -122q0 -44 16.5 -81t60.5 -64.5t109 -28.5l86 -251q14 -41 60 -201h4q63 147 127 444 h184q-88 -405 -227 -626q15 -36 53.5 -69t77.5 -34q-11 -33 -33 -93.5t-31 -86.5q-64 1 -114.5 40t-75.5 107h-4q-67 -83 -163.5 -127.5t-209.5 -44.5q-184 0 -287.5 111.5t-103.5 277.5zM268 387q0 -110 62.5 -178t171.5 -68q161 0 278 154l-166 461q-146 -12 -246 -118 t-100 -251z" />
<glyph unicode="'" horiz-adv-x="401" d="M248 1008l108 426h172l-133 -426h-147z" />
<glyph unicode="(" horiz-adv-x="454" d="M137 309q0 386 127 745.5t324 567.5l114 -92q-183 -198 -298 -537.5t-115 -699.5q0 -230 59 -422l-141 -51q-70 188 -70 489z" />
<glyph unicode=")" horiz-adv-x="454" d="M-121 -84q183 198 298.5 537.5t115.5 699.5q0 227 -60 422l142 51q69 -185 69 -489q0 -386 -126.5 -745.5t-323.5 -567.5z" />
<glyph unicode="*" horiz-adv-x="741" d="M184 1126q58 143 70 170q104 -47 272 -182l4 2q-1 12 -6 58t-8.5 92.5t-3.5 91.5q0 24 4 82q88 -12 174 -27q-26 -122 -110 -305l4 -2q139 77 299 127l43 -164q-86 -12 -213 -12q-84 0 -113 2l-2 -4q142 -142 205 -254q-64 -35 -158 -90q-34 72 -62.5 170t-35.5 151h-4 q-12 -17 -46.5 -73.5t-73.5 -114t-75 -99.5l-117 115q81 79 271 197l-2 4q-10 2 -62.5 10t-85.5 13.5t-82.5 17t-85.5 24.5z" />
<glyph unicode="+" horiz-adv-x="692" d="M70 639l32 152h246l55 258h166l-55 -258h248l-33 -152h-248l-55 -258h-164l55 258h-247z" />
<glyph unicode="," horiz-adv-x="440" d="M18 -133q66 17 109.5 53t46.5 76l-2 4q-20 -4 -27 -4q-39 0 -64.5 25.5t-25.5 66.5q0 43 30.5 71.5t72.5 28.5q112 0 112 -139q0 -88 -67 -157t-174 -89z" />
<glyph unicode="-" horiz-adv-x="636" d="M109 596l36 168h484l-35 -168h-485z" />
<glyph unicode="." horiz-adv-x="436" d="M49 96q0 49 33.5 82t81.5 33t82.5 -33t34.5 -82q0 -50 -34.5 -83t-82.5 -33t-81.5 33t-33.5 83z" />
<glyph unicode="/" horiz-adv-x="661" d="M-35 -123l676 1679h201l-678 -1679h-199z" />
<glyph unicode="0" horiz-adv-x="1044" d="M113 467q0 106 16.5 217.5t48 222.5t83 209t116 174t152 120t186.5 44q96 0 164.5 -40.5t105.5 -113t53.5 -157.5t16.5 -189q0 -86 -10.5 -177t-33 -187t-56 -183.5t-83 -166t-109 -136t-138.5 -91t-168 -33.5q-344 0 -344 487zM299 449q0 -132 41.5 -210.5t132.5 -78.5 q75 0 141 57t111.5 147t78.5 200t48.5 217t15.5 198q0 293 -168 293q-74 0 -141 -58t-113 -149.5t-80 -202.5t-50.5 -218t-16.5 -195z" />
<glyph unicode="1" horiz-adv-x="567" d="M123 0l266 1253h-123l39 181h316l-304 -1434h-194z" />
<glyph unicode="2" horiz-adv-x="991" d="M-23 0v2l721 799q152 168 152 303q0 74 -44.5 122t-127.5 48q-93 0 -167.5 -77t-111.5 -198l-159 109q149 346 452 346q171 0 260.5 -94.5t89.5 -237.5q0 -218 -213 -452l-317 -351q-81 -89 -133 -131v-4h452l-36 -184h-818z" />
<glyph unicode="3" horiz-adv-x="995" d="M55 295l181 94q4 -105 67.5 -167t161.5 -62q86 0 151.5 48t97 118t31.5 145q0 95 -54.5 164.5t-155.5 69.5q-31 0 -78 -7l-51 166l403 385h-502l41 185h760l-33 -154l-457 -430l3 -4q156 -10 236.5 -108t80.5 -242q0 -142 -57 -258t-169.5 -187t-260.5 -71 q-163 0 -272 90.5t-124 224.5z" />
<glyph unicode="4" horiz-adv-x="978" d="M20 307v4l750 1123h199l-201 -945h170l-39 -182h-170l-63 -307h-195l66 307h-517zM326 477h262l137 635h-4q-1 0 -10.5 -18.5t-29 -53.5t-36.5 -65l-190 -311q-27 -45 -58.5 -90.5t-50.5 -70.5t-20 -24v-2z" />
<glyph unicode="5" horiz-adv-x="1052" d="M104 295l181 94q6 -105 68 -166t159 -61q81 0 144.5 49.5t94.5 122.5t31 153q0 97 -51.5 162.5t-142.5 65.5q-66 0 -115.5 -22.5t-101.5 -63.5l-144 82l224 723h614l-39 -189h-455l-127 -395l5 -2q57 41 165 41q170 0 266.5 -109t96.5 -272q0 -101 -29.5 -194 t-85.5 -168.5t-147 -120.5t-205 -45q-167 0 -279 90.5t-127 224.5z" />
<glyph unicode="6" horiz-adv-x="1058" d="M131 438q0 116 16.5 234t48 232.5t83 213t117 174t154.5 119t191 43.5q139 0 229.5 -72t119.5 -190l-170 -86q-27 85 -72 125.5t-119 40.5q-64 0 -120 -34.5t-96 -88t-74 -129.5t-56 -148.5t-39 -154.5h4q45 77 128.5 126.5t174.5 49.5q152 0 237 -96.5t85 -268.5 q0 -77 -18.5 -154t-58 -148t-94 -125.5t-133.5 -87.5t-171 -33q-77 0 -139 24t-104 65.5t-70 100t-41 125.5t-13 143zM324 416q0 -109 47.5 -182.5t144.5 -73.5q82 0 145 54.5t93 134t30 167.5q0 99 -45 160t-137 61q-110 0 -194 -95t-84 -226z" />
<glyph unicode="7" horiz-adv-x="819" d="M78 0l663 1253h-520l37 181h797l-760 -1434h-217z" />
<glyph unicode="8" horiz-adv-x="1040" d="M80 346q0 162 92.5 287.5t251.5 167.5v4q-60 32 -94.5 90.5t-34.5 136.5q0 83 29 159t81.5 134.5t134 93.5t179.5 35q81 0 145 -26t102.5 -69.5t58 -96.5t19.5 -111q0 -117 -67 -218t-174 -142v-5q90 -35 139 -112t49 -176q0 -102 -34.5 -194.5t-98 -165t-163 -115.5 t-220.5 -43q-186 0 -290.5 103.5t-104.5 262.5zM272 375q0 -95 58 -157t164 -62q137 0 224 97t87 232q0 93 -58 155t-163 62q-137 0 -224.5 -96t-87.5 -231zM477 1034q0 -66 42 -110.5t118 -44.5q96 0 157.5 77t61.5 170q0 65 -40.5 108.5t-115.5 43.5q-96 0 -159.5 -69.5 t-63.5 -174.5z" />
<glyph unicode="9" horiz-adv-x="1054" d="M115 240l168 86q27 -85 71.5 -125.5t118.5 -40.5q64 0 120 34.5t96 88t74 129.5t56 148.5t39 154.5h-4q-45 -77 -128.5 -126.5t-174.5 -49.5q-152 0 -236 96t-84 268q0 77 18.5 154t57.5 148.5t94 127t133.5 88.5t170.5 33q99 0 172 -39t114.5 -108t60.5 -153.5 t19 -186.5q0 -136 -24 -274t-74.5 -266.5t-121 -227.5t-171 -159t-217.5 -60q-141 0 -230 71t-118 189zM418 915q0 -98 45.5 -159.5t136.5 -61.5q111 0 195 95.5t84 226.5q0 51 -10.5 95.5t-32.5 81.5t-60.5 58t-89.5 21q-82 0 -145 -54.5t-93 -134.5t-30 -168z" />
<glyph unicode=":" horiz-adv-x="436" d="M49 96q0 49 33.5 82t81.5 33t82.5 -33t34.5 -82q0 -50 -34.5 -83t-82.5 -33t-81.5 33t-33.5 83zM190 766q0 49 33.5 82t81.5 33t82.5 -33t34.5 -82q0 -50 -34.5 -83.5t-82.5 -33.5t-81.5 33.5t-33.5 83.5z" />
<glyph unicode=";" horiz-adv-x="434" d="M14 -133q66 17 109.5 53t46.5 76l-2 4q-20 -4 -27 -4q-39 0 -64.5 25.5t-25.5 66.5q0 43 30.5 71.5t72.5 28.5q112 0 112 -139q0 -88 -67 -157t-174 -89zM186 766q0 49 33.5 82t81.5 33t82.5 -33t34.5 -82q0 -50 -34.5 -83.5t-82.5 -33.5t-81.5 33.5t-33.5 83.5z" />
<glyph unicode="&#x3c;" horiz-adv-x="602" d="M135 674l21 104l551 350l73 -133l-276 -170q-173 -104 -201 -114v-4q77 -54 170 -134l160 -135l-94 -119z" />
<glyph unicode="=" horiz-adv-x="704" d="M102 479l33 154h543l-33 -154h-543zM170 799l33 153h542l-32 -153h-543z" />
<glyph unicode="&#x3e;" horiz-adv-x="602" d="M61 459l277 170q173 104 201 114v5q-83 58 -170 133l-160 135l94 119l404 -355l-21 -104l-551 -350z" />
<glyph unicode="?" horiz-adv-x="876" d="M178 1114q69 158 184 249t265 91q171 0 265.5 -92.5t94.5 -233.5q0 -75 -26.5 -142t-68.5 -116.5t-93 -95.5t-102.5 -86.5t-93.5 -80.5t-68.5 -86.5t-26.5 -96.5q0 -35 14 -68l-162 -55q-36 49 -36 129q0 68 26 130t67 110t91 92.5t100.5 85.5t91.5 81t67 87.5t26 97.5 q0 63 -46 110.5t-126 47.5q-99 0 -172.5 -73.5t-108.5 -194.5zM260 96q0 49 33.5 82t81.5 33t82.5 -33t34.5 -82q0 -50 -34.5 -83t-82.5 -33t-81.5 33t-33.5 83z" />
<glyph unicode="@" horiz-adv-x="1589" d="M145 557q0 142 36 282t108 265t171 220.5t234.5 151.5t288.5 56q123 0 224.5 -36.5t171.5 -98.5t118 -146t70 -177t22 -193q0 -102 -24 -196.5t-68.5 -170t-116.5 -121t-161 -45.5t-151.5 47t-66.5 137h-4q-40 -85 -106.5 -134.5t-142.5 -49.5q-71 0 -119 41t-67 101.5 t-19 136.5q0 80 25 159.5t71 147t120 109.5t163 42q124 0 198 -76t74 -196q0 -44 -8 -80l-15 -76q-6 -30 -6 -53q0 -41 20.5 -64.5t57.5 -23.5q55 0 95.5 55t59.5 136t19 172q0 225 -113.5 359t-326.5 134q-120 0 -226.5 -46t-185 -125t-135.5 -182t-86 -220t-29 -236 q0 -234 119 -368t332 -134q178 0 328 113l67 -145q-94 -62 -190 -94.5t-215 -32.5q-150 0 -268.5 51.5t-192 142t-112 208t-38.5 253.5zM719 651q0 -139 96 -139q71 0 128 74.5t69 175.5q2 12 2 37q0 63 -30 95t-79 32q-72 0 -129 -79t-57 -196z" />
<glyph unicode="A" horiz-adv-x="1007" d="M-61 0l684 1434h202l78 -1434h-192q-2 48 -17 293h-411q-12 -26 -62.5 -131.5t-77.5 -161.5h-204zM360 475h332l-16 432q-6 173 -6 248h-4q-32 -103 -88 -221z" />
<glyph unicode="B" d="M82 0l303 1434h346q183 0 279 -86t96 -236q0 -135 -78.5 -234t-202.5 -135v-4q92 -32 148.5 -105.5t56.5 -176.5q0 -205 -146 -331t-390 -126h-412zM309 180h209q156 0 239 71.5t83 205.5q0 96 -55.5 150.5t-166.5 54.5h-206zM446 829h146q158 0 239.5 67t81.5 189 q0 85 -55 126.5t-170 41.5h-149z" />
<glyph unicode="C" horiz-adv-x="1030" d="M125 446q0 84 9.5 173.5t31.5 189t54 191t82 175t111.5 145t145.5 98t180 36.5q166 0 258 -95.5t115 -258.5l-180 -82q-17 256 -207 256q-83 0 -153.5 -58t-117 -148t-79.5 -200.5t-47.5 -214t-14.5 -190.5q0 -141 50 -222t159 -81q172 0 285 235l151 -110 q-164 -305 -452 -305q-99 0 -173.5 36t-119 100t-66.5 147t-22 183z" />
<glyph unicode="D" horiz-adv-x="1103" d="M66 0l303 1434h307q113 0 199 -42t136.5 -115t75.5 -163.5t25 -195.5q0 -125 -33 -277q-31 -141 -86.5 -255.5t-135.5 -202t-190.5 -135.5t-242.5 -48h-358zM291 180h155q128 0 237 93.5t174 261t65 370.5q0 156 -65 251t-189 95h-150z" />
<glyph unicode="E" horiz-adv-x="1026" d="M82 0l303 1434h745l-36 -183h-555l-101 -479h473l-39 -180h-473l-88 -412h553l-37 -180h-745z" />
<glyph unicode="F" horiz-adv-x="962" d="M82 0l303 1434h737l-37 -183h-546l-117 -555h465l-39 -180h-465l-109 -516h-192z" />
<glyph unicode="G" d="M125 455q0 116 16.5 232t48.5 229t83.5 209.5t117.5 170.5t155.5 116t192.5 42q163 0 255.5 -94t117.5 -254l-182 -86q-8 118 -59.5 185t-149.5 67q-88 0 -166.5 -74t-130 -190t-81.5 -254t-30 -269q0 -151 51 -238t162 -87q233 0 340 405h-239l39 183h421 q-18 -124 -45.5 -229.5t-74 -207.5t-106.5 -173t-147 -114.5t-192 -43.5q-101 0 -178 36.5t-124.5 101.5t-71 150t-23.5 187z" />
<glyph unicode="H" horiz-adv-x="1185" d="M82 0l303 1434h195l-146 -682h473l144 682h192l-303 -1434h-192l120 571h-473l-119 -571h-194z" />
<glyph unicode="I" horiz-adv-x="550" d="M98 0l303 1434h195l-303 -1434h-195z" />
<glyph unicode="J" horiz-adv-x="782" d="M-16 20l75 164q39 -20 107 -20q105 0 171.5 73.5t100.5 229.5l205 967h193l-213 -998q-52 -238 -164 -347t-293 -109q-23 0 -46.5 2.5t-40.5 6.5t-35 9t-27.5 9t-20.5 8.5t-12 4.5z" />
<glyph unicode="K" horiz-adv-x="1034" d="M78 0l303 1434h194l-102 -482q-40 -192 -45 -192h4q59 68 154 186l397 488h229l-514 -613l224 -821h-207l-174 651h-4q-53 -72 -170 -207l-95 -444h-194z" />
<glyph unicode="L" horiz-adv-x="839" d="M82 0l303 1434h195l-267 -1254h459l-37 -180h-653z" />
<glyph unicode="M" horiz-adv-x="1411" d="M92 0l303 1434h199l137 -439l51 -182h4q68 96 123 166l344 455h207l-303 -1434h-194l190 901q10 48 23 100.5t20 80.5l8 28h-4q-65 -96 -135 -186l-332 -437h-16l-139 428l-58 195h-4q-16 -97 -39 -201l-190 -909h-195z" />
<glyph unicode="N" horiz-adv-x="1241" d="M82 0l303 1434h164l215 -699q98 -320 98 -329h4q21 143 41 237l168 791h191l-303 -1434h-162l-217 707q-75 245 -97 331h-4q1 0 -4.5 -34.5t-15.5 -88t-19 -100.5l-172 -815h-190z" />
<glyph unicode="O" d="M123 446q0 140 22.5 279.5t71.5 271.5t119.5 233t174.5 162.5t228 61.5q80 0 144 -24t108 -66t73 -101.5t42.5 -128.5t13.5 -149q0 -117 -16 -233.5t-47.5 -230t-83 -210.5t-117.5 -171.5t-156 -117t-194 -42.5q-100 0 -175 35.5t-119.5 99.5t-66.5 147t-22 184zM313 471 q0 -311 209 -311q89 0 167.5 73.5t130.5 189.5t82 258t30 280q0 311 -209 311q-89 0 -168 -74t-130.5 -191t-81.5 -258t-30 -278z" />
<glyph unicode="P" horiz-adv-x="1036" d="M80 0l305 1434h334q186 0 286.5 -112.5t100.5 -289.5q0 -94 -22 -184.5t-69 -172t-114 -143t-164.5 -97.5t-212.5 -36h-168l-84 -399h-192zM395 582h150q161 0 267 128.5t106 309.5q0 110 -58 171.5t-174 61.5h-147z" />
<glyph unicode="Q" d="M106 455q0 140 23 279t73 269.5t120.5 230t173.5 160t225 60.5q101 0 176 -36.5t119.5 -102.5t66 -150.5t21.5 -187.5q0 -170 -37 -342.5t-114.5 -326.5t-182.5 -236q52 -110 133 -185l-84 -90q-105 97 -157 215q-91 -32 -173 -32q-101 0 -176 36.5t-119.5 102t-66 149.5 t-21.5 187zM297 477q0 -317 207 -317q51 0 100 22q-40 110 -102 201l92 70q18 -24 34.5 -52t26 -47.5t24.5 -51t21 -44.5q93 101 152 306.5t59 389.5q0 318 -204 318q-89 0 -168 -72.5t-130.5 -187.5t-81.5 -255.5t-30 -279.5z" />
<glyph unicode="R" horiz-adv-x="1099" d="M80 0l303 1434h334q186 0 289.5 -108.5t103.5 -276.5q0 -111 -35 -216t-110.5 -195.5t-180.5 -137.5l136 -500h-195l-119 455q-52 -6 -110 -6h-129l-95 -449h-192zM406 631h141q164 0 267.5 106.5t103.5 290.5q0 105 -59 165t-175 60h-147z" />
<glyph unicode="S" horiz-adv-x="1013" d="M53 258l164 96q31 -84 110 -139t173 -55q107 0 179.5 63.5t72.5 173.5q0 53 -28 99.5t-72.5 82.5t-98.5 71.5t-108 75.5t-98.5 84.5t-72.5 108t-28 138.5q0 172 119 284.5t301 112.5q157 0 263 -80.5t138 -208.5l-176 -94q-18 90 -82.5 146.5t-157.5 56.5 q-88 0 -150.5 -56.5t-62.5 -148.5q0 -52 28 -97.5t72.5 -80t98.5 -68.5t108 -73t98.5 -83t72.5 -108.5t28 -140.5q0 -137 -64 -238t-167.5 -150.5t-229.5 -49.5q-156 0 -273.5 77t-156.5 201z" />
<glyph unicode="T" horiz-adv-x="884" d="M233 1253l39 181h781l-39 -181h-293l-264 -1253h-197l266 1253h-293z" />
<glyph unicode="U" horiz-adv-x="1161" d="M162 350q0 66 14 129l203 955h194l-204 -969q-13 -60 -13 -100q0 -100 53.5 -152.5t147.5 -52.5q111 0 173 74.5t95 232.5l205 967h195l-207 -979q-53 -250 -170 -362.5t-301 -112.5q-167 0 -276 97.5t-109 272.5z" />
<glyph unicode="V" horiz-adv-x="995" d="M242 1434h190l29 -805q6 -234 6 -321v-34h4q114 278 137 328l381 832h205l-678 -1434h-203z" />
<glyph unicode="W" horiz-adv-x="1589" d="M240 1434h192l6 -863q0 -48 -2 -112.5t-4 -104.5l-2 -41h4q54 135 107 256l383 865h168l22 -865q2 -66 2 -116v-24q0 -57 -2 -87l-2 -29h4q52 135 103 256l364 865h205l-629 -1434h-205l-26 881q-2 48 -2 79v15q0 34 2 47l2 12h-4q-25 -69 -58 -143l-401 -891h-205z" />
<glyph unicode="X" horiz-adv-x="964" d="M-29 0l453 717l-152 717h193l61 -310q47 -243 47 -268h5q1 2 10 18.5t23.5 42t33 57t42 71.5t46.5 77l191 312h209l-457 -717l153 -717h-202l-72 348q-10 48 -20 104t-15 88l-4 31h-4q-7 -11 -26 -46t-46 -81t-59 -98l-215 -346h-195z" />
<glyph unicode="Y" horiz-adv-x="942" d="M233 1434h203l58 -488l30 -284h4q62 132 144 282l268 490h219l-586 -1024l-86 -410h-190l86 418z" />
<glyph unicode="Z" horiz-adv-x="972" d="M-35 0v4l746 1114q24 37 48 70t36 47l12 14v4h-512l39 181h813v-7l-741 -1103q-22 -33 -49 -67.5t-43 -52.5l-17 -18v-6h541l-37 -180h-836z" />
<glyph unicode="[" horiz-adv-x="505" d="M33 -281l426 2016h383l-31 -152h-213l-362 -1712h210l-30 -152h-383z" />
<glyph unicode="\" horiz-adv-x="489" d="M164 1559h186l119 -1684l-184 2z" />
<glyph unicode="]" horiz-adv-x="505" d="M-188 -281l30 152h213l363 1712h-211l31 152h383l-426 -2016h-383z" />
<glyph unicode="^" horiz-adv-x="747" d="M340 1659l309 242h105l215 -254l-123 -111l-84 115q-61 83 -74 110h-4q-76 -78 -133 -127l-119 -102z" />
<glyph unicode="_" horiz-adv-x="776" d="M-94 -375l35 170h784l-35 -170h-784z" />
<glyph unicode="`" horiz-adv-x="489" d="M199 1696l69 147l447 -217l-58 -123z" />
<glyph unicode="a" horiz-adv-x="1107" d="M104 371q0 112 23 222t68.5 208t108.5 173t150 119t185 44q157 0 246.5 -94t89.5 -234q0 -46 -17 -129l-77 -365q-9 -52 -9 -61q0 -86 91 -86q17 0 38 6l-43 -186q-136 0 -195 47t-65 141h-4q-24 -42 -49 -73.5t-60.5 -61t-84 -45.5t-107.5 -16q-143 0 -216 106t-73 285z M293 379q0 -225 160 -225q56 0 104 35t79.5 85.5t58 121t40.5 126.5t25 117q22 129 22 147q0 77 -41.5 129t-117.5 52q-90 0 -166.5 -82t-120 -217.5t-43.5 -288.5z" />
<glyph unicode="b" horiz-adv-x="1021" d="M123 348q0 82 20 172l209 975h189l-70 -328l-41 -172h4q96 142 256 142q138 0 214.5 -98.5t76.5 -284.5q0 -154 -38 -294.5t-105.5 -247t-168 -169.5t-218.5 -63q-147 0 -237.5 95t-90.5 273zM309 358q0 -97 43 -149.5t123 -52.5q73 0 135.5 60t101 151t60 191.5 t21.5 189.5q0 221 -162 221q-101 0 -169 -84t-93 -197l-47 -217q-13 -67 -13 -113z" />
<glyph unicode="c" horiz-adv-x="929" d="M104 401q0 99 18.5 199t60 197.5t101 172.5t148 121t193.5 46q127 0 209 -68t118 -184l-164 -107q-9 85 -55.5 132.5t-122.5 47.5q-94 0 -168.5 -85.5t-110.5 -205t-36 -239.5q0 -272 190 -272q119 0 220 166l124 -123q-49 -73 -96.5 -118.5t-114 -73t-149.5 -27.5 q-173 0 -269 113.5t-96 307.5z" />
<glyph unicode="d" horiz-adv-x="1105" d="M102 367q0 134 36.5 269.5t100 247t160 181.5t207.5 70q172 0 225 -150h7q14 98 28 166l74 344h188l-239 -1130q-9 -54 -9 -90v-11q2 -38 19 -59.5t33.5 -29t36.5 -7.5q13 0 28 6l-41 -186q-121 0 -182.5 45.5t-77.5 134.5h-4q-109 -188 -299 -188q-142 0 -216.5 106 t-74.5 281zM291 375q0 -221 162 -221q91 0 158.5 86.5t101.5 214.5q67 238 67 333q0 78 -40 128.5t-119 50.5q-89 0 -165.5 -82t-120.5 -218.5t-44 -291.5z" />
<glyph unicode="e" horiz-adv-x="1034" d="M102 430q0 98 23 198t68.5 191t107.5 162t146.5 113.5t179.5 42.5q92 0 162 -32t112.5 -88t64 -129t21.5 -159q0 -74 -16 -162l-13 -71h-659q-4 -25 -4 -68q0 -132 57.5 -206.5t161.5 -74.5q72 0 139.5 43.5t114.5 114.5l125 -129q-93 -97 -185 -146.5t-204 -49.5 q-197 0 -299.5 124t-102.5 326zM326 637h475q4 50 4 76q0 120 -47 193t-135 73q-104 0 -182.5 -97.5t-114.5 -244.5z" />
<glyph unicode="f" horiz-adv-x="657" d="M96 0l203 954h-147l34 162h146l20 94q36 165 122.5 247.5t230.5 82.5q81 0 172 -33l-76 -166q-39 31 -101 31q-60 0 -100 -38.5t-55 -112.5q-20 -87 -23 -105h203l-35 -162h-203l-202 -954h-189z" />
<glyph unicode="g" horiz-adv-x="1021" d="M-6 -254l147 121q34 -63 91.5 -99t134.5 -36q53 0 95 22.5t69.5 57.5t51 96.5t38.5 119.5t32 146h-4q-93 -143 -256 -143q-141 0 -216 105t-75 278q0 133 34.5 261.5t96.5 231t157 165.5t206 63q181 0 235 -170h5q7 35 21.5 72.5t24.5 58.5l11 20h170q-38 -66 -59 -172 l-195 -911q-51 -240 -163.5 -358.5t-303.5 -118.5q-121 0 -211 52.5t-137 137.5zM291 424q0 -219 166 -219q92 0 165.5 86.5t106.5 245.5q2 10 16.5 72.5t21.5 104t7 72.5q0 78 -43 129.5t-121 51.5q-68 0 -124 -38.5t-91.5 -98t-59.5 -134.5t-34 -143.5t-10 -128.5z" />
<glyph unicode="h" horiz-adv-x="1130" d="M59 0l318 1495h190l-63 -301q-30 -145 -49 -205h4q113 148 278 148q128 0 194 -78.5t66 -214.5q0 -85 -16 -158l-80 -371q-8 -46 -8 -61q0 -86 88 -86q20 0 41 6l-41 -186q-281 0 -281 223q0 40 15 113l82 387q12 56 12 104q0 75 -31 117.5t-112 42.5q-93 0 -161 -58 t-93 -172l-162 -745h-191z" />
<glyph unicode="i" horiz-adv-x="552" d="M106 209q0 36 15 113l125 596q20 98 20 164q0 18 -2 34h178q2 -18 2 -49q0 -80 -16 -154l-121 -600q-8 -50 -8 -63q0 -86 90 -86q12 0 21.5 1.5t13.5 2.5l4 2l-41 -186q-147 0 -214 57t-67 168zM297 1386q0 49 33.5 82t81.5 33t82 -33t34 -82q0 -50 -34 -83t-82 -33 t-81.5 33t-33.5 83z" />
<glyph unicode="j" horiz-adv-x="614" d="M-283 -395l84 164q49 -35 107 -35q95 0 146.5 64t84.5 216l236 1102h196l-243 -1145q-45 -216 -148.5 -316.5t-271.5 -100.5q-47 0 -100.5 13.5t-90.5 37.5zM412 1386q0 49 33 82t81 33t82.5 -33t34.5 -82q0 -50 -34.5 -83t-82.5 -33t-81 33t-33 83z" />
<glyph unicode="k" horiz-adv-x="1009" d="M59 0l318 1495h188l-65 -309q-25 -119 -47 -195h4q106 146 266 146q123 0 188.5 -72t65.5 -184q0 -71 -28.5 -143t-81.5 -136t-139 -110.5t-191 -59.5q0 -1 -1 -2t-1 -2q27 -17 50.5 -52.5t42 -71t42 -69t60.5 -54.5t87 -21q38 0 86 10l-39 -172q-4 0 -31 -3t-47 -3 q-95 0 -158.5 37.5t-113.5 120.5q-25 40 -55 111.5t-56.5 111t-64.5 51.5h-4q-12 -75 -27 -150l-59 -274h-189zM365 545q104 0 187 26.5t133.5 70t76.5 97t26 111.5q0 59 -35.5 95t-99.5 36q-93 0 -161 -77.5t-95 -203.5z" />
<glyph unicode="l" horiz-adv-x="571" d="M121 209q0 41 14 113l248 1173h190l-249 -1182q-11 -46 -11 -69q0 -80 90 -80q18 0 39 6l-41 -186q-280 0 -280 225z" />
<glyph unicode="m" horiz-adv-x="1605" d="M59 0l205 963q12 54 12 124q0 21 -2 29h170v-35v-32l-8 -80h4q101 164 271 164q98 0 157.5 -53t75.5 -144h4q100 201 303 201q122 0 186 -75.5t64 -201.5q0 -60 -18 -155l-82 -390q-8 -46 -8 -65q0 -43 26 -62.5t62 -19.5q27 0 39 6l-41 -186q-144 0 -211.5 56.5 t-67.5 170.5q0 50 12 109l88 407q11 57 11 88q0 148 -137 148q-99 0 -155.5 -78.5t-90.5 -241.5l-137 -647h-189l158 743q10 52 10 84q0 68 -33.5 104t-95.5 36q-42 0 -77.5 -16t-62 -46.5t-46.5 -65t-36.5 -82.5t-26.5 -87t-21 -90l-123 -580h-189z" />
<glyph unicode="n" horiz-adv-x="1120" d="M59 0l205 963q12 54 12 124q0 21 -2 29h172v-26q0 -54 -8 -117h4q48 74 121 117t162 43q140 0 206 -76t66 -213q0 -79 -14 -148l-82 -381q-8 -33 -8 -63q0 -86 80 -86q23 0 47 6l-41 -186q-279 0 -279 225q0 46 13 113l84 387q12 56 12 106q0 164 -143 164 q-60 0 -107 -26t-80 -76.5t-55.5 -110.5t-40.5 -141q-47 -209 -133 -627h-191z" />
<glyph unicode="o" horiz-adv-x="1024" d="M96 410q0 137 34 265t97.5 232t165.5 167t228 63q91 0 161 -33.5t112.5 -93t63.5 -136t21 -167.5q0 -109 -20 -213t-62.5 -197.5t-103 -163.5t-148 -111.5t-190.5 -41.5q-91 0 -161 33.5t-112.5 93t-64 136t-21.5 167.5zM281 428q0 -128 50.5 -202t141.5 -74 q90 0 165.5 83.5t116 206t40.5 248.5q0 129 -50.5 203t-144.5 74q-89 0 -164 -83t-115 -206t-40 -250z" />
<glyph unicode="p" horiz-adv-x="1046" d="M-29 -410q22 103 124.5 586t158.5 742q20 94 20 163v35h170q2 -12 2 -26q0 -40 -12 -105h4q50 66 120 109t153 43q139 0 216 -100.5t77 -288.5q0 -96 -20 -200t-61.5 -205.5t-99.5 -182t-141 -130.5t-178 -50q-175 0 -230 151h-4q-16 -88 -32 -166l-78 -375h-189z M324 338q0 -83 41 -137t122 -54q76 0 140.5 56.5t104 145t61.5 191t22 201.5q0 230 -160 230q-201 0 -274 -344l-49 -226q-8 -46 -8 -63z" />
<glyph unicode="q" horiz-adv-x="1028" d="M98 332q0 114 24 230.5t70.5 219t109 182.5t144 126.5t170.5 46.5q85 0 146.5 -44t87.5 -112h4q8 33 21 66.5t21 50.5l9 18h170q-38 -66 -59 -172l-289 -1354h-188l63 304q14 65 33 146t20 85h-4q-49 -66 -120.5 -105.5t-159.5 -39.5q-135 0 -204 94.5t-69 257.5z M293 406q0 -48 3 -83.5t13.5 -70.5t28 -57t47.5 -36t72 -14q138 0 215 172q42 96 91 328q1 6 3 19q5 24 8 36q12 50 12 82q0 76 -43.5 126t-121.5 50q-64 0 -119.5 -38.5t-92.5 -98.5t-64 -134.5t-39.5 -146.5t-12.5 -134z" />
<glyph unicode="r" horiz-adv-x="698" d="M59 0l205 963q12 54 12 124q0 21 -2 29h172v-31q0 -54 -8 -122h4q46 75 120 122.5t163 47.5q33 0 84 -15l-57 -182q-24 12 -70 12q-120 0 -194.5 -84.5t-104.5 -228.5l-133 -635h-191z" />
<glyph unicode="s" horiz-adv-x="925" d="M35 201l137 106q42 -72 127.5 -114.5t181.5 -42.5q86 0 138.5 43t52.5 114q0 43 -27 77t-70 58t-95.5 46.5t-105 50t-95.5 61.5t-70 87.5t-27 121.5q0 142 106 233t279 91q119 0 224.5 -47.5t162.5 -131.5l-147 -114q-33 63 -102 99t-148 36q-82 0 -137 -40.5t-55 -113.5 q0 -38 27 -69.5t70.5 -54.5t95.5 -46.5t104.5 -51.5t96 -62.5t70.5 -87.5t27 -119q0 -156 -107.5 -253t-285.5 -97q-140 0 -257 61t-171 160z" />
<glyph unicode="t" horiz-adv-x="684" d="M143 252q0 52 13 115l125 585h-134l37 164h131l64 293h188l-61 -293h231l-37 -164h-231l-127 -606q-8 -33 -8 -61q0 -62 31.5 -95.5t91.5 -33.5q52 0 98 22l2 -180q-82 -21 -139 -21q-131 0 -203 74.5t-72 200.5z" />
<glyph unicode="u" horiz-adv-x="1120" d="M123 297q0 61 14 121l150 698h188l-151 -715q-11 -50 -11 -77q0 -84 39 -136.5t129 -52.5q65 0 119 44t86 106.5t47 136.5l150 694h188l-170 -799q-8 -50 -8 -63q0 -86 88 -86q18 0 39 6l-41 -186q-92 0 -149 22.5t-82 60t-35 97.5h-4q-102 -188 -285 -188 q-147 0 -224 88t-77 229z" />
<glyph unicode="v" horiz-adv-x="913" d="M150 1116h200l43 -620q2 -31 3.5 -68.5t2 -69.5t0.5 -60v-44v-16h4q56 141 105 247l297 631h205l-557 -1114h-199z" />
<glyph unicode="w" horiz-adv-x="1497" d="M150 1116h202l23 -602l2 -276h4q62 149 113 262l288 616h176l39 -602l11 -276h4q57 149 106 264l273 614h204l-534 -1114h-199l-39 596q-2 34 -3.5 72t-2 67t-0.5 53v37v13h-6q-45 -113 -100 -236l-281 -602h-199z" />
<glyph unicode="x" horiz-adv-x="894" d="M-37 0l387 563l-153 553h198l68 -268l37 -172h4q53 82 106 162l187 278h202l-391 -557l154 -559h-197l-73 299q-5 20 -10.5 46t-9.5 42t-7.5 31.5t-5 23t-0.5 7.5h-4q-10 -31 -74 -127l-217 -322h-201z" />
<glyph unicode="y" horiz-adv-x="915" d="M-211 -354l113 151q58 -43 104 -43q80 0 132 53t126 193l-121 1116h213l31 -479q4 -64 8.5 -157t7.5 -148t5 -64h4q3 4 24.5 56.5t57.5 136.5t67 149l240 506h205l-560 -1136q-105 -212 -204.5 -309t-235.5 -97q-134 0 -217 72z" />
<glyph unicode="z" horiz-adv-x="917" d="M-37 0v4l498 668q39 53 91 116t86 102.5t36 39.5v4h-447l41 182h744v-6l-506 -668q-41 -54 -93.5 -117.5t-86 -101.5t-35.5 -39v-4h463l-37 -180h-754z" />
<glyph unicode="{" horiz-adv-x="516" d="M18 -57q0 65 26.5 136.5t64.5 132t76 117.5t64.5 112.5t26.5 97.5q0 46 -31 71t-83 25l37 170q79 0 125.5 48.5t46.5 135.5q0 46 -27 161.5t-27 186.5q0 109 33 189t93.5 126t136.5 67.5t170 21.5l-37 -178h-13q-91 0 -146.5 -52.5t-55.5 -164.5q0 -49 24.5 -151.5 t24.5 -162.5q0 -129 -61 -211t-152 -100v-4q53 -11 84 -52.5t31 -101.5q0 -62 -26 -130t-63.5 -126.5t-75 -115.5t-63.5 -116t-26 -108q0 -60 40 -81t115 -21l-33 -164q-137 0 -218 59.5t-81 182.5z" />
<glyph unicode="|" horiz-adv-x="444" d="M4 -205l393 1843h201l-393 -1843h-201z" />
<glyph unicode="}" horiz-adv-x="516" d="M6 -299l37 178h12q92 0 147.5 52.5t55.5 164.5q0 49 -24.5 151.5t-24.5 162.5q0 129 61 211t152 100v4q-53 11 -84 52.5t-31 101.5q0 62 26 130t63.5 126.5t75 115.5t63.5 116t26 108q0 60 -40 81t-115 21l32 164q137 0 218 -59.5t81 -182.5q0 -65 -26.5 -136.5 t-64.5 -132t-76 -117.5t-64.5 -112.5t-26.5 -97.5q0 -46 31.5 -71t83.5 -25l-37 -170q-79 0 -125.5 -48.5t-46.5 -135.5q0 -46 26.5 -162t26.5 -187q0 -109 -33 -188.5t-93 -125.5t-136 -67.5t-170 -21.5z" />
<glyph unicode="~" horiz-adv-x="837" d="M131 698q10 114 72.5 177t154.5 63q58 0 112 -27t96 -53.5t71 -26.5q34 0 55.5 28t28.5 67l137 -4q-9 -107 -69.5 -173.5t-157.5 -66.5q-46 0 -91 16t-73.5 36t-60.5 36t-56 16q-63 0 -84 -92z" />
<glyph unicode="&#xa1;" horiz-adv-x="460" d="M55 0l226 1055h188l-225 -1055h-189zM317 1337q0 49 33.5 82t81.5 33t82.5 -33t34.5 -82q0 -50 -34.5 -83t-82.5 -33t-81.5 33t-33.5 83z" />
<glyph unicode="&#xa2;" horiz-adv-x="892" d="M150 670q0 95 32.5 183t89.5 156t142.5 109t185.5 41q68 0 123 -18l117 217h86l-133 -248q93 -57 129 -145l-144 -119q-23 62 -70.5 97.5t-117.5 35.5q-108 0 -179 -84.5t-71 -202.5q0 -90 51.5 -149.5t149.5 -59.5q65 0 112.5 28.5t94.5 88.5l106 -135 q-152 -162 -334 -162q-82 0 -141 23l-107 -201h-86l123 233q-78 48 -118.5 130.5t-40.5 181.5z" />
<glyph unicode="&#xa3;" horiz-adv-x="1060" d="M74 102q180 138 211 461h-166l16 74h160q4 37 11 113q7 77 11 116.5t13.5 111t19.5 110.5t27.5 97t38.5 90.5t52.5 71.5t69.5 59t88.5 34t110.5 14q151 0 246.5 -94.5t103.5 -249.5l-178 -82q0 106 -46 175t-130 69q-41 0 -74 -16t-55 -41.5t-40 -67.5t-28 -82.5 t-19 -99.5t-13.5 -105.5t-11.5 -112.5t-13 -110h328l-16 -74h-322q-45 -266 -158 -379q2 -2 2 -4q16 2 47 2q42 0 135 -12t148 -12q71 0 127 19.5t86 45.5l41 -168q-113 -84 -219 -84q-65 0 -188.5 22.5t-178.5 22.5q-98 0 -164 -55z" />
<glyph unicode="&#xa4;" horiz-adv-x="1124" d="M82 600l16 70h113l18 94h-112l16 70h111q26 105 60 194t83 169t108 136t137.5 88.5t168.5 32.5q85 0 149.5 -27.5t105.5 -77.5t64.5 -112t32.5 -139l-180 -80q-7 254 -185 254q-228 0 -350 -438h359l-17 -70h-358l-19 -94h357l-15 -70h-352q-10 -82 -10 -143 q0 -297 192 -297q162 0 267 235l153 -108q-159 -307 -432 -307q-99 0 -172 36.5t-114.5 101.5t-61.5 145t-20 177q0 84 8 160h-121z" />
<glyph unicode="&#xa5;" horiz-adv-x="952" d="M98 307l17 70h254l10 43l-14 102h-222l17 70h196l-100 842h203l47 -529l12 -241h4q27 65 115 239l268 531h217l-456 -842h182l-17 -70h-204l-60 -110l-8 -35h244l-17 -70h-241l-64 -307h-192q33 142 65 307h-256z" />
<glyph unicode="&#xa6;" horiz-adv-x="419" d="M-4 -205l180 846h189l-181 -846h-188zM215 819l174 819h189l-175 -819h-188z" />
<glyph unicode="&#xa7;" horiz-adv-x="1030" d="M66 225l155 99q28 -75 116 -127t193 -52q100 0 157.5 47.5t57.5 110.5q0 37 -23 67t-61 49t-86.5 38.5t-98.5 36t-98.5 41.5t-86.5 53.5t-61 74t-23 101.5q0 79 43.5 146.5t114.5 99.5v4q-39 45 -39 125q0 134 103 225.5t276 91.5q152 0 253.5 -71.5t131.5 -186.5 l-158 -90q-21 85 -78.5 134.5t-148.5 49.5q-85 0 -137 -42t-52 -103q0 -41 27 -73.5t70.5 -55.5t96 -44.5t105 -47t96 -56t70.5 -78.5t27 -108q0 -71 -36.5 -130.5t-94.5 -94.5v-4q49 -40 49 -136q0 -137 -115 -238t-311 -101q-158 0 -274 67.5t-160 177.5zM367 803 q0 -48 43 -86.5t98.5 -60t136 -55t129.5 -64.5q64 40 64 110q0 40 -25 71.5t-69.5 55t-92 44.5t-106 50.5t-99.5 61.5q-36 -22 -57.5 -56t-21.5 -71z" />
<glyph unicode="&#xa8;" horiz-adv-x="606" d="M338 1667q0 41 26.5 67.5t67.5 26.5q43 0 70.5 -26.5t27.5 -67.5t-27.5 -66.5t-70.5 -25.5q-41 0 -67.5 25.5t-26.5 66.5zM647 1667q0 41 27.5 67.5t68.5 26.5q42 0 69.5 -26.5t27.5 -67.5t-27.5 -66.5t-69.5 -25.5t-69 25.5t-27 66.5z" />
<glyph unicode="&#xa9;" horiz-adv-x="1603" d="M94 717q0 206 97.5 375t267.5 265.5t377 96.5q206 0 375.5 -96.5t266.5 -265.5t97 -375q0 -207 -97 -376t-266.5 -265t-375.5 -96q-207 0 -377 96t-267.5 265t-97.5 376zM225 717q0 -174 79 -314.5t219 -220.5t313 -80q172 0 311 80t217 220.5t78 314.5q0 172 -78 312.5 t-217 221t-311 80.5t-312.5 -80.5t-219.5 -221t-79 -312.5zM584 729q0 98 26 173.5t83 122t138 46.5q152 0 205 -162l-104 -53q-26 92 -101 92q-57 0 -87.5 -57t-30.5 -162q0 -221 118 -221q41 0 65 25.5t38 74.5l106 -57q-54 -166 -209 -166q-121 0 -184 95.5t-63 248.5z " />
<glyph unicode="&#xaa;" horiz-adv-x="550" d="M119 784l327 650h105q7 -99 53 -650h-131l-2 115h-164l-51 -115h-137zM348 993h121l-2 146q0 30 1 67t1.5 49t-0.5 19h-4q-24 -67 -55 -139z" />
<glyph unicode="&#xab;" horiz-adv-x="798" d="M49 655l29 138l391 297l100 -119l-196 -140q-24 -17 -51.5 -35t-51 -32.5t-43.5 -26.5t-33 -19.5t-14 -8.5v-4q47 -36 129 -115l133 -131l-129 -103zM420 655l29 138l391 297l100 -119l-197 -140q-24 -17 -51.5 -35t-51 -32.5t-43 -26.5t-32.5 -19.5t-14 -8.5v-4 q47 -36 129 -115l133 -131l-129 -103z" />
<glyph unicode="&#xac;" horiz-adv-x="704" d="M80 549l233 176l-137 178l123 96l129 -180l225 182l95 -124l-234 -179l139 -176l-125 -98l-131 180l-223 -182z" />
<glyph unicode="&#xad;" horiz-adv-x="636" d="M109 596l36 168h484l-35 -168h-485z" />
<glyph unicode="&#xae;" horiz-adv-x="1603" d="M92 717q0 206 97.5 375t267.5 265.5t377 96.5q206 0 375.5 -96.5t266.5 -265.5t97 -375q0 -207 -97 -376t-266.5 -265t-375.5 -96q-207 0 -377 96t-267.5 265t-97.5 376zM223 717q0 -174 79.5 -314.5t220 -220.5t313.5 -80q172 0 311 80t217 220.5t78 314.5 q0 172 -78 312t-217 220t-311 80q-129 0 -243 -47t-195 -128t-128 -194.5t-47 -242.5zM631 399v660h198q113 0 173.5 -63t60.5 -167q0 -131 -88 -192l106 -238h-143l-88 203q-10 -2 -33 -2h-57v-201h-129zM760 723h71q53 0 78 29t25 77q0 47 -25 76t-78 29h-71v-211z" />
<glyph unicode="&#xaf;" horiz-adv-x="626" d="M291 1581l33 152h528l-33 -152h-528z" />
<glyph unicode="&#xb0;" horiz-adv-x="548" d="M215 1204q0 109 73.5 187.5t198.5 78.5q103 0 160.5 -62t57.5 -142q0 -108 -73.5 -189.5t-191.5 -81.5q-107 0 -166 62.5t-59 146.5zM362 1206q0 -34 20.5 -56t59.5 -22q52 0 85.5 40.5t33.5 88.5q0 34 -21 56t-59 22q-53 0 -86 -40t-33 -89z" />
<glyph unicode="&#xb1;" horiz-adv-x="757" d="M98 307l35 168h518l-35 -168h-518zM152 821l32 152h230l51 239h166l-51 -239h229l-33 -152h-229l-51 -239h-166l51 239h-229z" />
<glyph unicode="&#xb2;" horiz-adv-x="573" d="M154 788l4 21l321 360q60 67 60 109q0 28 -16.5 43.5t-45.5 15.5q-68 0 -117 -123l-108 54q82 186 233 186q86 0 134.5 -46.5t48.5 -115.5q0 -104 -97 -198l-59 -58q-112 -109 -131 -125v-4h199l-27 -119h-399z" />
<glyph unicode="&#xb3;" horiz-adv-x="540" d="M156 932l118 55q6 -46 35.5 -73t73.5 -27q48 0 76 30.5t28 73.5q0 40 -25.5 64t-66.5 26q-13 0 -37 -4l-32 92l94 80q19 16 41 32t35 24l12 8v4h-240l25 117h401l-18 -93l-127 -106q-16 -14 -36.5 -29t-32.5 -24l-13 -8l2 -5q65 -9 104 -52.5t39 -112.5q0 -95 -65 -165.5 t-178 -70.5q-89 0 -145.5 45t-67.5 119z" />
<glyph unicode="&#xb4;" horiz-adv-x="524" d="M287 1626l446 217l70 -147l-459 -193z" />
<glyph unicode="&#xb6;" horiz-adv-x="1050" d="M111 844q0 85 24 168.5t73 159.5t117 134.5t163.5 93t205.5 34.5h314l-303 -1434h-183l84 399h-92q-85 0 -153 23t-114 63t-77 97t-45 122t-14 140zM786 0l304 1434h81l-303 -1434h-82z" />
<glyph unicode="&#xb7;" horiz-adv-x="425" d="M154 655q0 49 33 82t81 33t82.5 -33t34.5 -82q0 -50 -34.5 -83t-82.5 -33t-81 33t-33 83z" />
<glyph unicode="&#xb8;" horiz-adv-x="495" d="M-88 -442l104 80q33 -64 117 -64q50 0 84.5 32t34.5 81q0 34 -22.5 57t-63.5 23q-63 0 -111 -48l-98 56l121 278h119l-91 -194l5 -2q40 18 82 18q83 0 138.5 -50t55.5 -130q0 -113 -74 -181.5t-190 -68.5q-67 0 -124.5 30.5t-86.5 82.5z" />
<glyph unicode="&#xb9;" horiz-adv-x="366" d="M225 788l113 523h-66l25 123h197l-138 -646h-131z" />
<glyph unicode="&#xba;" horiz-adv-x="583" d="M201 1010q0 109 32.5 208.5t100.5 167.5t158 68q96 0 142 -69.5t46 -176.5q0 -111 -32.5 -211.5t-100.5 -168.5t-158 -68q-96 0 -142 71t-46 179zM319 993q0 -53 20.5 -87t61.5 -34q62 0 110 107t48 240q0 53 -21 86.5t-63 33.5t-78 -49t-57 -129t-21 -168z" />
<glyph unicode="&#xbb;" horiz-adv-x="804" d="M-12 473l196 139q24 17 51.5 35t51 33t43.5 27t33 19.5t14 8.5v4q-47 36 -129 115l-133 131l129 102l264 -299l-29 -137l-391 -297zM365 473l196 139q24 17 51.5 35t51 33t43.5 27t33 19.5t14 8.5v4q-47 36 -129 115l-133 131l129 102l264 -299l-29 -137l-391 -297z" />
<glyph unicode="&#xbc;" horiz-adv-x="1021" d="M-47 0l973 1434h157l-974 -1434h-156zM233 788l113 523h-65l24 123h197l-137 -646h-132zM371 117l344 530h139l-86 -405h72l-25 -125h-74l-24 -117h-129l24 117h-241zM555 233h96l49 236h-4q-70 -132 -141 -231v-5z" />
<glyph unicode="&#xbd;" horiz-adv-x="1026" d="M-47 0l973 1434h157l-974 -1434h-156zM233 788l113 523h-65l24 123h197l-137 -646h-132zM438 0l4 20l322 361q59 66 59 108q0 28 -16 44t-45 16q-68 0 -117 -123l-108 53q38 87 93.5 137t139.5 50q86 0 134 -46.5t48 -115.5q0 -106 -96 -199l-59 -57q-112 -109 -131 -125 v-4h198l-26 -119h-400z" />
<glyph unicode="&#xbe;" horiz-adv-x="1079" d="M10 0l973 1434h158l-975 -1434h-156zM72 932l118 55q6 -46 35.5 -73t73.5 -27q48 0 76 30.5t28 73.5q0 40 -25.5 64t-66.5 26q-13 0 -37 -4l-32 92l94 80q19 16 41 32t35 24l12 8v4h-240l25 117h401l-18 -93l-127 -106q-16 -14 -36.5 -29t-32.5 -24l-13 -8l2 -5 q65 -9 104 -52.5t39 -112.5q0 -95 -65 -165.5t-178 -70.5q-89 0 -145.5 45t-67.5 119zM436 117l344 530h140l-86 -405h71l-24 -125h-74l-25 -117h-129l25 117h-242zM621 233h96l49 236h-4q-70 -132 -141 -231v-5z" />
<glyph unicode="&#xbf;" horiz-adv-x="876" d="M23 313q0 75 26.5 142t69 117t93.5 95.5t102.5 86t94 80t69 86.5t26.5 96q0 24 -17 69l164 56q37 -54 37 -131q0 -68 -26 -129.5t-67 -109t-91 -92t-100.5 -85.5t-91.5 -81t-67 -87.5t-26 -97.5q0 -65 45 -111.5t125 -46.5q99 0 173.5 73.5t109.5 192.5l162 -108 q-68 -159 -183 -248.5t-268 -89.5q-171 0 -265.5 91t-94.5 232zM526 1337q0 49 33.5 82t81.5 33t82.5 -33t34.5 -82q0 -50 -34.5 -83t-82.5 -33t-81.5 33t-33.5 83z" />
<glyph unicode="&#xc0;" horiz-adv-x="1007" d="M-61 0l684 1434h202l78 -1434h-192q-2 48 -17 293h-411q-12 -26 -62.5 -131.5t-77.5 -161.5h-204zM360 475h332l-16 432q-6 173 -6 248h-4q-32 -103 -88 -221zM383 1696l70 147l446 -217l-57 -123z" />
<glyph unicode="&#xc1;" horiz-adv-x="1007" d="M-61 0l684 1434h202l78 -1434h-192q-2 48 -17 293h-411q-12 -26 -62.5 -131.5t-77.5 -161.5h-204zM360 475h332l-16 432q-6 173 -6 248h-4q-32 -103 -88 -221zM475 1626l447 217l69 -147l-459 -193z" />
<glyph unicode="&#xc2;" horiz-adv-x="1007" d="M-61 0l684 1434h202l78 -1434h-192q-2 48 -17 293h-411q-12 -26 -62.5 -131.5t-77.5 -161.5h-204zM360 475h332l-16 432q-6 173 -6 248h-4q-32 -103 -88 -221zM420 1659l309 242h105l215 -254l-123 -111l-84 115q-61 83 -74 110h-4q-76 -78 -133 -127l-119 -102z" />
<glyph unicode="&#xc3;" horiz-adv-x="1007" d="M-61 0l684 1434h202l78 -1434h-192q-2 48 -17 293h-411q-12 -26 -62.5 -131.5t-77.5 -161.5h-204zM360 475h332l-16 432q-6 173 -6 248h-4q-32 -103 -88 -221zM385 1599q10 114 72.5 177t154.5 63q46 0 90 -16.5t72.5 -36.5t60.5 -36.5t56 -16.5q34 0 55.5 28t28.5 66 l137 -4q-9 -107 -69.5 -173.5t-157.5 -66.5q-59 0 -113.5 26.5t-96.5 52.5t-71 26q-62 0 -84 -93z" />
<glyph unicode="&#xc4;" horiz-adv-x="1007" d="M-61 0l684 1434h202l78 -1434h-192q-2 48 -17 293h-411q-12 -26 -62.5 -131.5t-77.5 -161.5h-204zM360 475h332l-16 432q-6 173 -6 248h-4q-32 -103 -88 -221zM500 1667q0 41 26.5 67.5t67.5 26.5q43 0 70.5 -26.5t27.5 -67.5t-27.5 -66.5t-70.5 -25.5q-41 0 -67.5 25.5 t-26.5 66.5zM809 1667q0 41 27.5 67.5t68.5 26.5t68.5 -26.5t27.5 -67.5t-27 -66.5t-69 -25.5t-69 25.5t-27 66.5z" />
<glyph unicode="&#xc5;" horiz-adv-x="1007" d="M-61 0l684 1434h202l78 -1434h-192q-2 48 -17 293h-411q-12 -26 -62.5 -131.5t-77.5 -161.5h-204zM360 475h332l-16 432q-6 173 -6 248h-4q-32 -103 -88 -221zM571 1739q0 88 58.5 151.5t158.5 63.5q85 0 133 -50t48 -116q0 -87 -59.5 -152t-155.5 -65q-86 0 -134.5 50.5 t-48.5 117.5zM694 1745q0 -26 15.5 -42.5t46.5 -16.5q39 0 64.5 28t25.5 64q0 26 -16.5 43.5t-45.5 17.5q-39 0 -64.5 -29t-25.5 -65z" />
<glyph unicode="&#xc6;" horiz-adv-x="1560" d="M-104 0l970 1434h797q-30 -152 -37 -183h-557l-102 -479h477l-39 -180h-477l-86 -412h555q-28 -141 -37 -180h-739l61 293h-381q-136 -211 -192 -293h-213zM414 475h307l78 373q14 67 31.5 144.5t32.5 138.5t18 73h-4q-119 -198 -166 -272z" />
<glyph unicode="&#xc7;" horiz-adv-x="1030" d="M125 446q0 84 9.5 173.5t31.5 189t54 191t82 175t111.5 145t145.5 98t180 36.5q166 0 258 -95.5t115 -258.5l-180 -82q-17 256 -207 256q-83 0 -153.5 -58t-117 -148t-79.5 -200.5t-47.5 -214t-14.5 -190.5q0 -141 50 -222t159 -81q172 0 285 235l151 -110 q-164 -305 -452 -305q-23 0 -55 4l-58 -125l4 -2q41 18 82 18q83 0 139 -50t56 -130q0 -113 -74 -181.5t-190 -68.5q-67 0 -124.5 30.5t-86.5 82.5l104 80q33 -64 117 -64q50 0 84.5 32t34.5 81q0 34 -22.5 57t-63.5 23q-63 0 -111 -48l-98 56l100 233q-112 49 -165.5 164 t-53.5 274z" />
<glyph unicode="&#xc8;" horiz-adv-x="1026" d="M82 0l303 1434h745l-36 -183h-555l-101 -479h473l-39 -180h-473l-88 -412h553l-37 -180h-745zM516 1696l70 147l446 -217l-57 -123z" />
<glyph unicode="&#xc9;" horiz-adv-x="1026" d="M82 0l303 1434h745l-36 -183h-555l-101 -479h473l-39 -180h-473l-88 -412h553l-37 -180h-745zM524 1626l447 217l69 -147l-458 -193z" />
<glyph unicode="&#xca;" horiz-adv-x="1026" d="M82 0l303 1434h745l-36 -183h-555l-101 -479h473l-39 -180h-473l-88 -412h553l-37 -180h-745zM477 1659l309 242h105l215 -254l-123 -111l-84 115q-61 83 -74 110h-4q-76 -78 -133 -127l-119 -102z" />
<glyph unicode="&#xcb;" horiz-adv-x="1026" d="M82 0l303 1434h745l-36 -183h-555l-101 -479h473l-39 -180h-473l-88 -412h553l-37 -180h-745zM528 1667q0 41 27 67.5t68 26.5q43 0 70.5 -26.5t27.5 -67.5t-27.5 -66.5t-70.5 -25.5q-42 0 -68.5 25.5t-26.5 66.5zM838 1667q0 41 27.5 67.5t68.5 26.5t68.5 -26.5 t27.5 -67.5t-27 -66.5t-69 -25.5t-69 25.5t-27 66.5z" />
<glyph unicode="&#xcc;" horiz-adv-x="550" d="M98 0l303 1434h195l-303 -1434h-195zM287 1696l69 147l447 -217l-58 -123z" />
<glyph unicode="&#xcd;" horiz-adv-x="550" d="M98 0l303 1434h195l-303 -1434h-195zM268 1626l447 217l69 -147l-458 -193z" />
<glyph unicode="&#xce;" horiz-adv-x="550" d="M98 0l303 1434h195l-303 -1434h-195zM221 1659l309 242h105l215 -254l-123 -111l-84 115q-61 83 -74 110h-4q-76 -78 -133 -127l-119 -102z" />
<glyph unicode="&#xcf;" horiz-adv-x="550" d="M98 0l303 1434h195l-303 -1434h-195zM285 1667q0 41 26.5 67.5t67.5 26.5q43 0 70.5 -26.5t27.5 -67.5t-27.5 -66.5t-70.5 -25.5q-41 0 -67.5 25.5t-26.5 66.5zM594 1667q0 41 27.5 67.5t68.5 26.5t68.5 -26.5t27.5 -67.5t-27 -66.5t-69 -25.5t-69 25.5t-27 66.5z" />
<glyph unicode="&#xd0;" horiz-adv-x="1105" d="M66 0l133 643h-117l33 150h116l138 641h307q111 0 196.5 -40.5t137.5 -111.5t78 -161.5t26 -196.5q0 -147 -29 -283t-87 -252.5t-139.5 -203.5t-193.5 -136t-241 -49h-358zM291 180h155q127 0 235.5 90.5t173.5 255t65 367.5q0 161 -62 259.5t-190 98.5h-150l-98 -458 h221l-33 -150h-219z" />
<glyph unicode="&#xd1;" horiz-adv-x="1241" d="M82 0l303 1434h164l215 -699q98 -320 98 -329h4q21 143 41 237l168 791h191l-303 -1434h-162l-217 707q-75 245 -97 331h-4q1 0 -4.5 -34.5t-15.5 -88t-19 -100.5l-172 -815h-190zM502 1599q10 114 72.5 177t154.5 63q46 0 90 -16.5t72.5 -36.5t60.5 -36.5t56 -16.5 q34 0 55.5 28t28.5 66l137 -4q-9 -107 -70 -173.5t-158 -66.5q-59 0 -113 26.5t-96 52.5t-71 26q-62 0 -84 -93z" />
<glyph unicode="&#xd2;" d="M123 446q0 140 22.5 279.5t71.5 271.5t119.5 233t174.5 162.5t228 61.5q80 0 144 -24t108 -66t73 -101.5t42.5 -128.5t13.5 -149q0 -117 -16 -233.5t-47.5 -230t-83 -210.5t-117.5 -171.5t-156 -117t-194 -42.5q-100 0 -175 35.5t-119.5 99.5t-66.5 147t-22 184zM313 471 q0 -311 209 -311q89 0 167.5 73.5t130.5 189.5t82 258t30 280q0 311 -209 311q-89 0 -168 -74t-130.5 -191t-81.5 -258t-30 -278zM551 1696l70 147l446 -217l-57 -123z" />
<glyph unicode="&#xd3;" d="M123 446q0 140 22.5 279.5t71.5 271.5t119.5 233t174.5 162.5t228 61.5q80 0 144 -24t108 -66t73 -101.5t42.5 -128.5t13.5 -149q0 -117 -16 -233.5t-47.5 -230t-83 -210.5t-117.5 -171.5t-156 -117t-194 -42.5q-100 0 -175 35.5t-119.5 99.5t-66.5 147t-22 184zM313 471 q0 -311 209 -311q89 0 167.5 73.5t130.5 189.5t82 258t30 280q0 311 -209 311q-89 0 -168 -74t-130.5 -191t-81.5 -258t-30 -278zM553 1626l446 217l70 -147l-459 -193z" />
<glyph unicode="&#xd4;" d="M123 446q0 140 22.5 279.5t71.5 271.5t119.5 233t174.5 162.5t228 61.5q80 0 144 -24t108 -66t73 -101.5t42.5 -128.5t13.5 -149q0 -117 -16 -233.5t-47.5 -230t-83 -210.5t-117.5 -171.5t-156 -117t-194 -42.5q-100 0 -175 35.5t-119.5 99.5t-66.5 147t-22 184zM313 471 q0 -311 209 -311q89 0 167.5 73.5t130.5 189.5t82 258t30 280q0 311 -209 311q-89 0 -168 -74t-130.5 -191t-81.5 -258t-30 -278zM485 1659l310 242h104l215 -254l-123 -111l-84 115q-58 79 -73 110h-5q-76 -78 -133 -127l-118 -102z" />
<glyph unicode="&#xd5;" d="M123 446q0 140 22.5 279.5t71.5 271.5t119.5 233t174.5 162.5t228 61.5q80 0 144 -24t108 -66t73 -101.5t42.5 -128.5t13.5 -149q0 -117 -16 -233.5t-47.5 -230t-83 -210.5t-117.5 -171.5t-156 -117t-194 -42.5q-100 0 -175 35.5t-119.5 99.5t-66.5 147t-22 184zM313 471 q0 -311 209 -311q89 0 167.5 73.5t130.5 189.5t82 258t30 280q0 311 -209 311q-89 0 -168 -74t-130.5 -191t-81.5 -258t-30 -278zM446 1599q10 114 73 177t155 63q46 0 90 -16.5t72 -36.5t60 -36.5t56 -16.5q34 0 55.5 28t28.5 66l138 -4q-9 -107 -70 -173.5t-158 -66.5 q-59 0 -113 26.5t-96 52.5t-71 26q-62 0 -84 -93z" />
<glyph unicode="&#xd6;" d="M123 446q0 140 22.5 279.5t71.5 271.5t119.5 233t174.5 162.5t228 61.5q80 0 144 -24t108 -66t73 -101.5t42.5 -128.5t13.5 -149q0 -117 -16 -233.5t-47.5 -230t-83 -210.5t-117.5 -171.5t-156 -117t-194 -42.5q-100 0 -175 35.5t-119.5 99.5t-66.5 147t-22 184zM313 471 q0 -311 209 -311q89 0 167.5 73.5t130.5 189.5t82 258t30 280q0 311 -209 311q-89 0 -168 -74t-130.5 -191t-81.5 -258t-30 -278zM557 1667q0 41 26.5 67.5t67.5 26.5q43 0 71 -26.5t28 -67.5t-28 -66.5t-71 -25.5q-41 0 -67.5 25.5t-26.5 66.5zM866 1667q0 41 27.5 67.5 t69.5 26.5q41 0 68.5 -26.5t27.5 -67.5t-27 -66.5t-69 -25.5t-69.5 25.5t-27.5 66.5z" />
<glyph unicode="&#xd7;" horiz-adv-x="704" d="M80 549l233 176l-137 178l123 96l129 -180l225 182l95 -124l-234 -179l139 -176l-125 -98l-131 180l-223 -182z" />
<glyph unicode="&#xd8;" d="M123 446q0 140 22.5 279.5t71.5 271.5t119.5 233t174.5 162.5t228 61.5q80 0 144 -24t108 -66t73 -101.5t42.5 -128.5t13.5 -149q0 -117 -16 -233.5t-47.5 -230t-83 -210.5t-117.5 -171.5t-156 -117t-194 -42.5q-100 0 -175 35.5t-119.5 99.5t-66.5 147t-22 184zM313 471 q0 -88 19 -162l545 891q-53 72 -154 72q-89 0 -168 -74t-130.5 -191t-81.5 -258t-30 -278zM367 233q51 -73 155 -73q89 0 167.5 73.5t130.5 189.5t82 258t30 280q0 95 -21 165z" />
<glyph unicode="&#xd9;" horiz-adv-x="1161" d="M162 350q0 66 14 129l203 955h194l-204 -969q-13 -60 -13 -100q0 -100 53.5 -152.5t147.5 -52.5q111 0 173 74.5t95 232.5l205 967h195l-207 -979q-53 -250 -170 -362.5t-301 -112.5q-167 0 -276 97.5t-109 272.5zM555 1696l70 147l446 -217l-57 -123z" />
<glyph unicode="&#xda;" horiz-adv-x="1161" d="M162 350q0 66 14 129l203 955h194l-204 -969q-13 -60 -13 -100q0 -100 53.5 -152.5t147.5 -52.5q111 0 173 74.5t95 232.5l205 967h195l-207 -979q-53 -250 -170 -362.5t-301 -112.5q-167 0 -276 97.5t-109 272.5zM563 1626l447 217l69 -147l-458 -193z" />
<glyph unicode="&#xdb;" horiz-adv-x="1161" d="M162 350q0 66 14 129l203 955h194l-204 -969q-13 -60 -13 -100q0 -100 53.5 -152.5t147.5 -52.5q111 0 173 74.5t95 232.5l205 967h195l-207 -979q-53 -250 -170 -362.5t-301 -112.5q-167 0 -276 97.5t-109 272.5zM539 1659l309 242h104l215 -254l-123 -111l-83 115 q-61 83 -74 110h-4q-76 -78 -133 -127l-119 -102z" />
<glyph unicode="&#xdc;" horiz-adv-x="1161" d="M162 350q0 66 14 129l203 955h194l-204 -969q-13 -60 -13 -100q0 -100 53.5 -152.5t147.5 -52.5q111 0 173 74.5t95 232.5l205 967h195l-207 -979q-53 -250 -170 -362.5t-301 -112.5q-167 0 -276 97.5t-109 272.5zM578 1667q0 41 26.5 67.5t67.5 26.5q43 0 70.5 -26.5 t27.5 -67.5t-27.5 -66.5t-70.5 -25.5q-41 0 -67.5 25.5t-26.5 66.5zM887 1667q0 41 27.5 67.5t68.5 26.5t68.5 -26.5t27.5 -67.5t-27 -66.5t-69 -25.5t-69 25.5t-27 66.5z" />
<glyph unicode="&#xdd;" horiz-adv-x="942" d="M233 1434h203l58 -488l30 -284h4q62 132 144 282l268 490h219l-586 -1024l-86 -410h-190l86 418zM477 1626l447 217l69 -147l-458 -193z" />
<glyph unicode="&#xde;" horiz-adv-x="1028" d="M82 0l305 1434h188l-38 -185h127q178 0 273 -112t95 -285q0 -94 -21 -184t-66 -172.5t-110 -144.5t-159.5 -99t-206.5 -37h-152l-45 -215h-190zM354 395h133q104 0 187 62.5t126.5 164t43.5 220.5q0 107 -53 167t-160 60h-133z" />
<glyph unicode="&#xdf;" horiz-adv-x="1093" d="M59 0l240 1124q41 195 138 294.5t259 99.5q135 0 222.5 -75.5t87.5 -207.5q0 -62 -16.5 -112.5t-43 -83.5t-58 -60t-63.5 -48.5t-58.5 -42t-43 -47t-16.5 -57.5q0 -42 30.5 -79t73.5 -69t86 -69t73.5 -96.5t30.5 -134.5q0 -158 -100 -256t-280 -98q-87 0 -167.5 31.5 t-103.5 60.5l99 153q65 -77 182 -77q75 0 124.5 51.5t49.5 115.5q0 54 -29.5 100.5t-71.5 82.5t-83.5 72.5t-71 86.5t-29.5 109q0 47 17 86.5t44 67t59.5 53t65.5 49.5t60 49.5t44 60.5t17 76q0 65 -39 103.5t-106 38.5q-34 0 -61.5 -11t-48 -34t-35.5 -48t-28 -65 t-21.5 -72t-18.5 -80l-219 -1042h-191z" />
<glyph unicode="&#xe0;" horiz-adv-x="1095" d="M104 371q0 112 23 222t68.5 208t108.5 173t150 119t185 44q157 0 246.5 -94t89.5 -234q0 -46 -17 -129l-77 -365q-9 -52 -9 -61q0 -86 91 -86q17 0 38 6l-43 -186q-136 0 -195 47t-65 141h-4q-24 -42 -49 -73.5t-60.5 -61t-84 -45.5t-107.5 -16q-143 0 -216 106t-73 285z M293 379q0 -225 160 -225q56 0 104 35t79.5 85.5t58 121t40.5 126.5t25 117q22 129 22 147q0 77 -41.5 129t-117.5 52q-90 0 -166.5 -82t-120 -217.5t-43.5 -288.5zM440 1393l70 147l446 -217l-57 -123z" />
<glyph unicode="&#xe1;" horiz-adv-x="1095" d="M104 371q0 112 23 222t68.5 208t108.5 173t150 119t185 44q157 0 246.5 -94t89.5 -234q0 -46 -17 -129l-77 -365q-9 -52 -9 -61q0 -86 91 -86q17 0 38 6l-43 -186q-136 0 -195 47t-65 141h-4q-24 -42 -49 -73.5t-60.5 -61t-84 -45.5t-107.5 -16q-143 0 -216 106t-73 285z M293 379q0 -225 160 -225q56 0 104 35t79.5 85.5t58 121t40.5 126.5t25 117q22 129 22 147q0 77 -41.5 129t-117.5 52q-90 0 -166.5 -82t-120 -217.5t-43.5 -288.5zM444 1323l447 217l70 -147l-459 -193z" />
<glyph unicode="&#xe2;" horiz-adv-x="1095" d="M104 371q0 112 23 222t68.5 208t108.5 173t150 119t185 44q157 0 246.5 -94t89.5 -234q0 -46 -17 -129l-77 -365q-9 -52 -9 -61q0 -86 91 -86q17 0 38 6l-43 -186q-136 0 -195 47t-65 141h-4q-24 -42 -49 -73.5t-60.5 -61t-84 -45.5t-107.5 -16q-143 0 -216 106t-73 285z M293 379q0 -225 160 -225q56 0 104 35t79.5 85.5t58 121t40.5 126.5t25 117q22 129 22 147q0 77 -41.5 129t-117.5 52q-90 0 -166.5 -82t-120 -217.5t-43.5 -288.5zM377 1341l309 242h105l215 -254l-123 -110l-84 114q-60 81 -74 111h-4q-76 -78 -133 -127l-119 -103z" />
<glyph unicode="&#xe3;" horiz-adv-x="1095" d="M104 371q0 112 23 222t68.5 208t108.5 173t150 119t185 44q157 0 246.5 -94t89.5 -234q0 -46 -17 -129l-77 -365q-9 -52 -9 -61q0 -86 91 -86q17 0 38 6l-43 -186q-136 0 -195 47t-65 141h-4q-24 -42 -49 -73.5t-60.5 -61t-84 -45.5t-107.5 -16q-143 0 -216 106t-73 285z M293 379q0 -225 160 -225q56 0 104 35t79.5 85.5t58 121t40.5 126.5t25 117q22 129 22 147q0 77 -41.5 129t-117.5 52q-90 0 -166.5 -82t-120 -217.5t-43.5 -288.5zM354 1292q10 114 73 177t155 63q58 0 111.5 -27t95.5 -53.5t71 -26.5q34 0 55.5 28t28.5 67l137 -4 q-9 -107 -69.5 -173.5t-157.5 -66.5q-46 0 -91 16t-73.5 36t-60.5 36t-56 16q-63 0 -84 -92z" />
<glyph unicode="&#xe4;" horiz-adv-x="1095" d="M104 371q0 112 23 222t68.5 208t108.5 173t150 119t185 44q157 0 246.5 -94t89.5 -234q0 -46 -17 -129l-77 -365q-9 -52 -9 -61q0 -86 91 -86q17 0 38 6l-43 -186q-136 0 -195 47t-65 141h-4q-24 -42 -49 -73.5t-60.5 -61t-84 -45.5t-107.5 -16q-143 0 -216 106t-73 285z M293 379q0 -225 160 -225q56 0 104 35t79.5 85.5t58 121t40.5 126.5t25 117q22 129 22 147q0 77 -41.5 129t-117.5 52q-90 0 -166.5 -82t-120 -217.5t-43.5 -288.5zM436 1358q0 41 26.5 67.5t67.5 26.5q43 0 71 -26.5t28 -67.5t-28 -66.5t-71 -25.5q-41 0 -67.5 25.5 t-26.5 66.5zM745 1358q0 41 27.5 67.5t69.5 26.5q41 0 68.5 -26.5t27.5 -67.5t-27 -66.5t-69 -25.5t-69.5 25.5t-27.5 66.5z" />
<glyph unicode="&#xe5;" horiz-adv-x="1095" d="M104 371q0 112 23 222t68.5 208t108.5 173t150 119t185 44q157 0 246.5 -94t89.5 -234q0 -46 -17 -129l-77 -365q-9 -52 -9 -61q0 -86 91 -86q17 0 38 6l-43 -186q-136 0 -195 47t-65 141h-4q-24 -42 -49 -73.5t-60.5 -61t-84 -45.5t-107.5 -16q-143 0 -216 106t-73 285z M293 379q0 -225 160 -225q56 0 104 35t79.5 85.5t58 121t40.5 126.5t25 117q22 129 22 147q0 77 -41.5 129t-117.5 52q-90 0 -166.5 -82t-120 -217.5t-43.5 -288.5zM502 1407q0 88 58.5 151.5t158.5 63.5q85 0 132.5 -50t47.5 -116q0 -87 -59.5 -152t-155.5 -65 q-85 0 -133.5 50.5t-48.5 117.5zM625 1413q0 -26 15 -42.5t46 -16.5q39 0 64.5 28t25.5 64q0 26 -16 43.5t-45 17.5q-39 0 -64.5 -29t-25.5 -65z" />
<glyph unicode="&#xe6;" horiz-adv-x="1751" d="M106 244q0 196 172.5 303t495.5 110q1 8 14 70t13 90q0 74 -37 114t-107 40q-142 0 -260 -168l-121 131q98 105 191 154t195 49q117 0 182.5 -62.5t77.5 -173.5h4q70 114 155 175t207 61q161 0 251.5 -116t90.5 -294q0 -71 -26 -213h-662q-6 -40 -6 -80q0 -133 56.5 -210 t160.5 -77q147 0 258 158l125 -129q-96 -97 -186.5 -146.5t-206.5 -49.5q-286 0 -332 321h-4q-19 -47 -44 -90t-62.5 -86t-81 -74.5t-103 -51t-125.5 -19.5q-145 0 -215 76t-70 188zM291 260q0 -61 35.5 -93t97.5 -32q76 0 142 50.5t106.5 123t60.5 154.5l12 51 q-100 0 -180 -13.5t-143 -42.5t-97 -79t-34 -119zM971 657h473q2 10 2 72q0 108 -48.5 179t-131.5 71q-99 0 -177.5 -91.5t-117.5 -230.5z" />
<glyph unicode="&#xe7;" horiz-adv-x="929" d="M104 401q0 99 18.5 199t60 197.5t101 172.5t148 121t193.5 46q127 0 209 -68t118 -184l-164 -107q-9 85 -55.5 132.5t-122.5 47.5q-94 0 -168.5 -85.5t-110.5 -205t-36 -239.5q0 -272 190 -272q119 0 220 166l124 -123q-49 -73 -96.5 -118.5t-114 -73t-149.5 -27.5 q-7 0 -20.5 1t-20.5 1l-55 -123l4 -2q41 18 82 18q83 0 138.5 -50t55.5 -130q0 -113 -74 -181.5t-190 -68.5q-67 0 -124.5 30.5t-86.5 82.5l105 80q33 -64 116 -64q50 0 84.5 32t34.5 81q0 34 -22.5 57t-63.5 23q-62 0 -110 -48l-99 56l101 229q-107 43 -163.5 145.5 t-56.5 251.5z" />
<glyph unicode="&#xe8;" horiz-adv-x="1034" d="M102 430q0 98 23 198t68.5 191t107.5 162t146.5 113.5t179.5 42.5q92 0 162 -32t112.5 -88t64 -129t21.5 -159q0 -74 -16 -162l-13 -71h-659q-4 -25 -4 -68q0 -132 57.5 -206.5t161.5 -74.5q72 0 139.5 43.5t114.5 114.5l125 -129q-93 -97 -185 -146.5t-204 -49.5 q-197 0 -299.5 124t-102.5 326zM326 637h475q4 50 4 76q0 120 -47 193t-135 73q-104 0 -182.5 -97.5t-114.5 -244.5zM463 1395l69 147l447 -217l-57 -123z" />
<glyph unicode="&#xe9;" horiz-adv-x="1034" d="M102 430q0 98 23 198t68.5 191t107.5 162t146.5 113.5t179.5 42.5q92 0 162 -32t112.5 -88t64 -129t21.5 -159q0 -74 -16 -162l-13 -71h-659q-4 -25 -4 -68q0 -132 57.5 -206.5t161.5 -74.5q72 0 139.5 43.5t114.5 114.5l125 -129q-93 -97 -185 -146.5t-204 -49.5 q-197 0 -299.5 124t-102.5 326zM326 637h475q4 50 4 76q0 120 -47 193t-135 73q-104 0 -182.5 -97.5t-114.5 -244.5zM426 1323l446 217l70 -147l-459 -193z" />
<glyph unicode="&#xea;" horiz-adv-x="1034" d="M102 430q0 98 23 198t68.5 191t107.5 162t146.5 113.5t179.5 42.5q92 0 162 -32t112.5 -88t64 -129t21.5 -159q0 -74 -16 -162l-13 -71h-659q-4 -25 -4 -68q0 -132 57.5 -206.5t161.5 -74.5q72 0 139.5 43.5t114.5 114.5l125 -129q-93 -97 -185 -146.5t-204 -49.5 q-197 0 -299.5 124t-102.5 326zM326 637h475q4 50 4 76q0 120 -47 193t-135 73q-104 0 -182.5 -97.5t-114.5 -244.5zM375 1341l309 242h104l216 -254l-123 -110l-84 114q-60 81 -74 111h-4q-76 -78 -133 -127l-119 -103z" />
<glyph unicode="&#xeb;" horiz-adv-x="1034" d="M102 430q0 98 23 198t68.5 191t107.5 162t146.5 113.5t179.5 42.5q92 0 162 -32t112.5 -88t64 -129t21.5 -159q0 -74 -16 -162l-13 -71h-659q-4 -25 -4 -68q0 -132 57.5 -206.5t161.5 -74.5q72 0 139.5 43.5t114.5 114.5l125 -129q-93 -97 -185 -146.5t-204 -49.5 q-197 0 -299.5 124t-102.5 326zM326 637h475q4 50 4 76q0 120 -47 193t-135 73q-104 0 -182.5 -97.5t-114.5 -244.5zM434 1368q0 41 26.5 67.5t67.5 26.5q43 0 71 -26.5t28 -67.5t-28 -66.5t-71 -25.5q-41 0 -67.5 25.5t-26.5 66.5zM743 1368q0 41 27.5 67.5t69.5 26.5 q41 0 68.5 -26.5t27.5 -67.5t-27 -66.5t-69 -25.5t-69.5 25.5t-27.5 66.5z" />
<glyph unicode="&#xec;" horiz-adv-x="563" d="M106 221q0 36 15 113l125 584q20 100 20 167q0 23 -2 31h178q2 -10 2 -33q4 -100 -36 -284l-101 -473q-8 -39 -8 -64q0 -86 82 -86q23 0 47 6l-41 -186q-146 0 -213.5 56.5t-67.5 168.5zM168 1382l78 142l348 -209l-66 -119z" />
<glyph unicode="&#xed;" horiz-adv-x="563" d="M106 221q0 36 15 113l125 584q20 100 20 167q0 23 -2 31h178q2 -10 2 -33q4 -100 -36 -284l-101 -473q-8 -39 -8 -64q0 -86 82 -86q23 0 47 6l-41 -186q-146 0 -213.5 56.5t-67.5 168.5zM211 1313l346 211l80 -144l-363 -186z" />
<glyph unicode="&#xee;" horiz-adv-x="563" d="M106 221q0 36 15 113l125 584q20 100 20 167q0 23 -2 31h178q2 -10 2 -33q4 -100 -36 -284l-101 -473q-8 -39 -8 -64q0 -86 82 -86q23 0 47 6l-41 -186q-146 0 -213.5 56.5t-67.5 168.5zM119 1335l270 211h90l189 -221l-107 -96l-74 100q-53 72 -65 96h-2 q-68 -67 -117 -110l-104 -90z" />
<glyph unicode="&#xef;" horiz-adv-x="563" d="M106 221q0 36 15 113l125 584q20 100 20 167q0 23 -2 31h178q2 -10 2 -33q4 -100 -36 -284l-101 -473q-8 -39 -8 -64q0 -86 82 -86q23 0 47 6l-41 -186q-146 0 -213.5 56.5t-67.5 168.5zM174 1368q0 41 27.5 67.5t68.5 26.5q42 0 69.5 -26.5t27.5 -67.5t-27.5 -66.5 t-69.5 -25.5t-69 25.5t-27 66.5zM432 1368q0 41 27.5 67.5t68.5 26.5q42 0 70.5 -26.5t28.5 -67.5t-28.5 -66.5t-70.5 -25.5t-69 25.5t-27 66.5z" />
<glyph unicode="&#xf0;" horiz-adv-x="1101" d="M104 365q0 157 39 295.5t106 236.5t159 154.5t194 56.5q89 0 146 -42.5t77 -113.5h4q6 19 17.5 82.5t11.5 114.5t-16 94q-19 -16 -58 -45.5t-57 -44.5l-49 61l110 95q-67 51 -210 51l36 174q187 -9 299 -109l146 129q52 -66 69 -84l-147 -116q57 -91 57 -221 q0 -76 -26 -201l-127 -580q-19 -85 1.5 -133.5t82.5 -48.5l28 4l-41 -186q-92 0 -148 24t-79 62.5t-33 101.5h-4q-105 -196 -299 -196q-141 0 -215 105.5t-74 279.5zM293 381q0 -227 160 -227q190 0 284 399l33 147q6 21 6 64q0 75 -42 125.5t-118 50.5q-90 0 -164.5 -75.5 t-116.5 -203.5t-42 -280z" />
<glyph unicode="&#xf1;" horiz-adv-x="1122" d="M59 0l205 963q12 54 12 124q0 21 -2 29h172v-26q0 -54 -8 -117h4q48 74 121 117t162 43q140 0 206 -76t66 -213q0 -79 -14 -148l-82 -381q-8 -33 -8 -63q0 -86 80 -86q23 0 47 6l-41 -186q-279 0 -279 225q0 46 13 113l84 387q12 56 12 106q0 164 -143 164 q-60 0 -107 -26t-80 -76.5t-55.5 -110.5t-40.5 -141q-47 -209 -133 -627h-191zM362 1292q10 114 73 177t155 63q58 0 111.5 -27t95.5 -53.5t71 -26.5q34 0 55.5 28t28.5 67l138 -4q-9 -107 -70 -173.5t-158 -66.5q-46 0 -91 16t-73 36t-60 36t-56 16q-63 0 -84 -92z" />
<glyph unicode="&#xf2;" horiz-adv-x="1024" d="M96 410q0 137 34 265t97.5 232t165.5 167t228 63q91 0 161 -33.5t112.5 -93t63.5 -136t21 -167.5q0 -109 -20 -213t-62.5 -197.5t-103 -163.5t-148 -111.5t-190.5 -41.5q-91 0 -161 33.5t-112.5 93t-64 136t-21.5 167.5zM281 428q0 -128 50.5 -202t141.5 -74 q90 0 165.5 83.5t116 206t40.5 248.5q0 129 -50.5 203t-144.5 74q-89 0 -164 -83t-115 -206t-40 -250zM418 1393l69 147l447 -217l-57 -123z" />
<glyph unicode="&#xf3;" horiz-adv-x="1024" d="M96 410q0 137 34 265t97.5 232t165.5 167t228 63q91 0 161 -33.5t112.5 -93t63.5 -136t21 -167.5q0 -109 -20 -213t-62.5 -197.5t-103 -163.5t-148 -111.5t-190.5 -41.5q-91 0 -161 33.5t-112.5 93t-64 136t-21.5 167.5zM281 428q0 -128 50.5 -202t141.5 -74 q90 0 165.5 83.5t116 206t40.5 248.5q0 129 -50.5 203t-144.5 74q-89 0 -164 -83t-115 -206t-40 -250zM418 1323l446 217l70 -147l-459 -193z" />
<glyph unicode="&#xf4;" horiz-adv-x="1024" d="M96 410q0 137 34 265t97.5 232t165.5 167t228 63q91 0 161 -33.5t112.5 -93t63.5 -136t21 -167.5q0 -109 -20 -213t-62.5 -197.5t-103 -163.5t-148 -111.5t-190.5 -41.5q-91 0 -161 33.5t-112.5 93t-64 136t-21.5 167.5zM281 428q0 -128 50.5 -202t141.5 -74 q90 0 165.5 83.5t116 206t40.5 248.5q0 129 -50.5 203t-144.5 74q-89 0 -164 -83t-115 -206t-40 -250zM356 1341l310 242h104l215 -254l-123 -110l-84 114q-57 77 -73 111h-5q-76 -78 -133 -127l-118 -103z" />
<glyph unicode="&#xf5;" horiz-adv-x="1024" d="M96 410q0 137 34 265t97.5 232t165.5 167t228 63q91 0 161 -33.5t112.5 -93t63.5 -136t21 -167.5q0 -109 -20 -213t-62.5 -197.5t-103 -163.5t-148 -111.5t-190.5 -41.5q-91 0 -161 33.5t-112.5 93t-64 136t-21.5 167.5zM281 428q0 -128 50.5 -202t141.5 -74 q90 0 165.5 83.5t116 206t40.5 248.5q0 129 -50.5 203t-144.5 74q-89 0 -164 -83t-115 -206t-40 -250zM322 1282q10 114 72.5 177t154.5 63q58 0 111.5 -27t95.5 -53.5t71 -26.5q34 0 55.5 28t28.5 66l138 -4q-9 -107 -69.5 -173t-158.5 -66q-46 0 -91 16t-73 36t-60 36 t-56 16q-63 0 -84 -92z" />
<glyph unicode="&#xf6;" horiz-adv-x="1024" d="M96 410q0 137 34 265t97.5 232t165.5 167t228 63q91 0 161 -33.5t112.5 -93t63.5 -136t21 -167.5q0 -109 -20 -213t-62.5 -197.5t-103 -163.5t-148 -111.5t-190.5 -41.5q-91 0 -161 33.5t-112.5 93t-64 136t-21.5 167.5zM281 428q0 -128 50.5 -202t141.5 -74 q90 0 165.5 83.5t116 206t40.5 248.5q0 129 -50.5 203t-144.5 74q-89 0 -164 -83t-115 -206t-40 -250zM403 1376q0 41 27 67.5t68 26.5q43 0 70.5 -26.5t27.5 -67.5t-27.5 -66.5t-70.5 -25.5q-42 0 -68.5 25.5t-26.5 66.5zM713 1376q0 41 27.5 67.5t68.5 26.5t68.5 -26.5 t27.5 -67.5t-27 -66.5t-69 -25.5t-69 25.5t-27 66.5z" />
<glyph unicode="&#xf7;" horiz-adv-x="757" d="M119 596l35 168h649l-35 -168h-649zM305 391q0 39 27.5 66.5t66.5 27.5q40 0 68.5 -27.5t28.5 -66.5q0 -41 -28.5 -68.5t-68.5 -27.5q-39 0 -66.5 27.5t-27.5 68.5zM426 967q0 39 27.5 66.5t66.5 27.5q40 0 68 -27t28 -67q0 -41 -28 -69t-68 -28q-39 0 -66.5 28t-27.5 69 z" />
<glyph unicode="&#xf8;" horiz-adv-x="1024" d="M96 410q0 137 34 265t97.5 232t165.5 167t228 63q91 0 161 -33.5t112.5 -93t63.5 -136t21 -167.5q0 -109 -20 -213t-62.5 -197.5t-103 -163.5t-148 -111.5t-190.5 -41.5q-91 0 -161 33.5t-112.5 93t-64 136t-21.5 167.5zM281 428q0 -158 73 -231l303 761q-24 9 -57 9 q-89 0 -164 -83t-115 -206t-40 -250zM414 160q24 -8 59 -8q90 0 165.5 83.5t116 206t40.5 248.5q0 162 -76 232z" />
<glyph unicode="&#xf9;" horiz-adv-x="1120" d="M123 297q0 61 14 121l150 698h188l-151 -715q-11 -50 -11 -77q0 -84 39 -136.5t129 -52.5q65 0 119 44t86 106.5t47 136.5l150 694h188l-170 -799q-8 -50 -8 -63q0 -86 88 -86q18 0 39 6l-41 -186q-92 0 -149 22.5t-82 60t-35 97.5h-4q-102 -188 -285 -188 q-147 0 -224 88t-77 229zM434 1393l70 147l446 -217l-57 -123z" />
<glyph unicode="&#xfa;" horiz-adv-x="1120" d="M123 297q0 61 14 121l150 698h188l-151 -715q-11 -50 -11 -77q0 -84 39 -136.5t129 -52.5q65 0 119 44t86 106.5t47 136.5l150 694h188l-170 -799q-8 -50 -8 -63q0 -86 88 -86q18 0 39 6l-41 -186q-92 0 -149 22.5t-82 60t-35 97.5h-4q-102 -188 -285 -188 q-147 0 -224 88t-77 229zM434 1323l447 217l69 -147l-458 -193z" />
<glyph unicode="&#xfb;" horiz-adv-x="1120" d="M123 297q0 61 14 121l150 698h188l-151 -715q-11 -50 -11 -77q0 -84 39 -136.5t129 -52.5q65 0 119 44t86 106.5t47 136.5l150 694h188l-170 -799q-8 -50 -8 -63q0 -86 88 -86q18 0 39 6l-41 -186q-92 0 -149 22.5t-82 60t-35 97.5h-4q-102 -188 -285 -188 q-147 0 -224 88t-77 229zM399 1341l310 242h104l215 -254l-123 -110l-84 114q-57 77 -73 111h-5q-76 -78 -133 -127l-118 -103z" />
<glyph unicode="&#xfc;" horiz-adv-x="1120" d="M123 297q0 61 14 121l150 698h188l-151 -715q-11 -50 -11 -77q0 -84 39 -136.5t129 -52.5q65 0 119 44t86 106.5t47 136.5l150 694h188l-170 -799q-8 -50 -8 -63q0 -86 88 -86q18 0 39 6l-41 -186q-92 0 -149 22.5t-82 60t-35 97.5h-4q-102 -188 -285 -188 q-147 0 -224 88t-77 229zM455 1358q0 41 26.5 67.5t67.5 26.5q43 0 70.5 -26.5t27.5 -67.5t-27.5 -66.5t-70.5 -25.5q-41 0 -67.5 25.5t-26.5 66.5zM764 1358q0 41 27.5 67.5t68.5 26.5t68.5 -26.5t27.5 -67.5t-27 -66.5t-69 -25.5t-69 25.5t-27 66.5z" />
<glyph unicode="&#xfd;" horiz-adv-x="915" d="M-211 -354l113 151q58 -43 104 -43q80 0 132 53t126 193l-121 1116h213l31 -479q4 -64 8.5 -157t7.5 -148t5 -64h4q3 4 24.5 56.5t57.5 136.5t67 149l240 506h205l-560 -1136q-105 -212 -204.5 -309t-235.5 -97q-134 0 -217 72zM338 1323l446 217l70 -147l-459 -193z" />
<glyph unicode="&#xfe;" horiz-adv-x="1044" d="M-31 -410l406 1905h190l-45 -207q-63 -279 -67 -282h4q42 58 108.5 94.5t143.5 36.5q139 0 215.5 -100.5t76.5 -288.5q0 -208 -68 -385.5t-183 -280t-248 -102.5q-88 0 -148 39.5t-84 109.5h-4q-15 -88 -35 -188l-73 -351h-189zM326 342q0 -84 38.5 -139.5t120.5 -55.5 q76 0 140 57t104 146.5t62 193t22 201.5q0 226 -160 226q-96 0 -166 -81.5t-96 -189.5q-65 -262 -65 -358z" />
<glyph unicode="&#xff;" horiz-adv-x="915" d="M-211 -354l113 151q58 -43 104 -43q80 0 132 53t126 193l-121 1116h213l31 -479q4 -64 8.5 -157t7.5 -148t5 -64h4q3 4 24.5 56.5t57.5 136.5t67 149l240 506h205l-560 -1136q-105 -212 -204.5 -309t-235.5 -97q-134 0 -217 72zM352 1358q0 41 26.5 67.5t67.5 26.5 q43 0 71 -26.5t28 -67.5t-28 -66.5t-71 -25.5q-41 0 -67.5 25.5t-26.5 66.5zM662 1358q0 41 27.5 67.5t68.5 26.5t68.5 -26.5t27.5 -67.5t-27 -66.5t-69 -25.5t-69 25.5t-27 66.5z" />
<glyph unicode="&#x152;" horiz-adv-x="1480" d="M121 430q0 147 24.5 290.5t75.5 272.5t122 227t172.5 156t219.5 58h869l-37 -183h-557l-103 -479h477l-38 -180h-478l-86 -412h557l-39 -180h-813q-175 0 -270.5 116t-95.5 314zM317 442q0 -262 183 -262h92l229 1071h-108q-74 0 -140 -54.5t-111.5 -142t-79 -195 t-49.5 -215.5t-16 -202z" />
<glyph unicode="&#x153;" horiz-adv-x="1705" d="M96 408q0 107 20.5 211t63 197.5t101.5 165t143 113.5t182 42q72 0 128.5 -25.5t92.5 -71.5t57 -103.5t29 -127.5h5q58 144 162.5 235t244.5 91q84 0 149 -32.5t105 -89.5t60 -129t20 -155q0 -60 -29 -233h-661q-2 -25 -2 -68q0 -133 56.5 -207t160.5 -74q73 0 140 43 t116 115l125 -129q-93 -96 -186 -146t-205 -50q-141 0 -223.5 90.5t-104.5 230.5h-4q-62 -147 -161 -234t-228 -87q-90 0 -160 34t-112 93t-63.5 135.5t-21.5 165.5zM281 428q0 -129 50.5 -203.5t141.5 -74.5q89 0 164.5 84t115.5 207t40 249q0 128 -49.5 201.5t-143.5 73.5 q-89 0 -164 -83t-115 -205.5t-40 -248.5zM995 637h475q7 44 7 76q0 119 -48.5 192.5t-136.5 73.5q-102 0 -181.5 -97.5t-115.5 -244.5z" />
<glyph unicode="&#x178;" horiz-adv-x="942" />
<glyph unicode="&#x2c6;" horiz-adv-x="747" d="M340 1659l309 242h105l215 -254l-123 -111l-84 115q-61 83 -74 110h-4q-76 -78 -133 -127l-119 -102z" />
<glyph unicode="&#x2dc;" horiz-adv-x="808" d="M301 1599q10 114 72.5 177t154.5 63q46 0 90 -16.5t72.5 -36.5t60.5 -36.5t56 -16.5q34 0 55.5 28t28.5 66l137 -4q-9 -107 -69.5 -173.5t-157.5 -66.5q-59 0 -113.5 26.5t-96.5 52.5t-71 26q-62 0 -84 -93z" />
<glyph unicode="&#x2000;" horiz-adv-x="977" />
<glyph unicode="&#x2001;" horiz-adv-x="1954" />
<glyph unicode="&#x2002;" horiz-adv-x="977" />
<glyph unicode="&#x2003;" horiz-adv-x="1954" />
<glyph unicode="&#x2004;" horiz-adv-x="651" />
<glyph unicode="&#x2005;" horiz-adv-x="488" />
<glyph unicode="&#x2006;" horiz-adv-x="325" />
<glyph unicode="&#x2007;" horiz-adv-x="325" />
<glyph unicode="&#x2008;" horiz-adv-x="244" />
<glyph unicode="&#x2009;" horiz-adv-x="390" />
<glyph unicode="&#x200a;" horiz-adv-x="108" />
<glyph unicode="&#x2010;" horiz-adv-x="636" d="M109 596l36 168h484l-35 -168h-485z" />
<glyph unicode="&#x2011;" horiz-adv-x="636" d="M109 596l36 168h484l-35 -168h-485z" />
<glyph unicode="&#x2012;" horiz-adv-x="636" d="M109 596l36 168h484l-35 -168h-485z" />
<glyph unicode="&#x2013;" horiz-adv-x="833" d="M133 596l35 168h649l-35 -168h-649z" />
<glyph unicode="&#x2014;" horiz-adv-x="1243" d="M139 596l35 168h1061l-37 -168h-1059z" />
<glyph unicode="&#x2018;" horiz-adv-x="327" d="M215 1206q0 88 67.5 157t174.5 89l10 -63q-66 -17 -109.5 -53t-46.5 -76l2 -5q25 5 27 5q39 0 64.5 -26t25.5 -67q0 -43 -30 -71.5t-72 -28.5q-113 0 -113 139z" />
<glyph unicode="&#x2019;" horiz-adv-x="327" d="M225 1130q66 17 109.5 53.5t46.5 76.5l-2 4q-20 -4 -27 -4q-39 0 -64.5 25.5t-25.5 66.5q0 43 30.5 71.5t72.5 28.5q112 0 112 -139q0 -88 -67 -157t-174 -89z" />
<glyph unicode="&#x201a;" horiz-adv-x="440" d="M18 -133q66 17 109.5 53t46.5 76l-2 4q-20 -4 -27 -4q-39 0 -64.5 25.5t-25.5 66.5q0 43 30.5 71.5t72.5 28.5q112 0 112 -139q0 -88 -67 -157t-174 -89z" />
<glyph unicode="&#x201c;" horiz-adv-x="604" d="M215 1208q0 88 67.5 157t174.5 89l10 -63q-66 -17 -109.5 -53t-46.5 -76l2 -5q25 5 27 5q39 0 64.5 -26t25.5 -67q0 -43 -30 -71.5t-72 -28.5q-113 0 -113 139zM492 1208q0 88 67 157t174 89l10 -63q-66 -17 -109 -53t-46 -76l2 -5q25 5 26 5q39 0 65 -26t26 -67 q0 -43 -30.5 -71.5t-72.5 -28.5q-112 0 -112 139z" />
<glyph unicode="&#x201d;" horiz-adv-x="604" d="M225 1130q66 17 109.5 53.5t46.5 76.5l-2 4q-20 -4 -27 -4q-39 0 -64.5 25.5t-25.5 66.5q0 43 30.5 71.5t72.5 28.5q112 0 112 -139q0 -88 -67 -157t-174 -89zM502 1130q66 17 109 53.5t46 76.5l-2 4q-20 -4 -26 -4q-39 0 -64.5 25.5t-25.5 66.5q0 43 30 71.5t72 28.5 q113 0 113 -139q0 -88 -67.5 -157t-174.5 -89z" />
<glyph unicode="&#x201e;" horiz-adv-x="718" d="M18 -133q66 17 109.5 53t46.5 76l-2 4q-20 -4 -27 -4q-39 0 -64.5 25.5t-25.5 66.5q0 43 30.5 71.5t72.5 28.5q112 0 112 -139q0 -88 -67 -157t-174 -89zM305 -133q66 17 109.5 53t46.5 76l-2 4q-20 -4 -27 -4q-39 0 -64.5 25.5t-25.5 66.5q0 43 30 71.5t72 28.5 q113 0 113 -139q0 -88 -67.5 -157t-174.5 -89z" />
<glyph unicode="&#x2022;" horiz-adv-x="604" d="M145 649q0 83 57.5 139t139.5 56q83 0 142 -56.5t59 -138.5q0 -86 -59 -143t-142 -57t-140 56.5t-57 143.5z" />
<glyph unicode="&#x2026;" horiz-adv-x="1097" d="M49 96q0 49 33.5 82t81.5 33t82.5 -33t34.5 -82q0 -50 -34.5 -83t-82.5 -33t-81.5 33t-33.5 83zM377 96q0 49 33.5 82t81.5 33t82 -33t34 -82q0 -50 -34 -83t-82 -33t-81.5 33t-33.5 83zM707 96q0 49 33 82t81 33t82.5 -33t34.5 -82q0 -50 -34.5 -83t-82.5 -33t-81 33 t-33 83z" />
<glyph unicode="&#x202f;" horiz-adv-x="390" />
<glyph unicode="&#x2039;" horiz-adv-x="454" d="M53 655l29 138l391 297l100 -119l-196 -140q-24 -17 -51.5 -35t-51 -32.5t-43.5 -26.5t-33 -19.5t-14 -8.5v-4q47 -36 129 -115l133 -131l-129 -103z" />
<glyph unicode="&#x203a;" horiz-adv-x="458" d="M23 473l196 139q24 17 51.5 35t51 33t43.5 27t33 19.5t14 8.5v4q-47 36 -129 115l-133 131l129 102l264 -299l-29 -137l-391 -297z" />
<glyph unicode="&#x205f;" horiz-adv-x="488" />
<glyph unicode="&#x20ac;" horiz-adv-x="1058" d="M72 600l16 70h113l18 94h-113l17 70h110q32 133 79 240t114 195t160 136.5t205 48.5q85 0 149.5 -27.5t105.5 -77.5t64.5 -112t32.5 -139l-180 -80q-7 254 -185 254q-228 0 -350 -438h358l-16 -70h-358l-19 -94h357l-15 -70h-352q-10 -82 -10 -143q0 -297 192 -297 q161 0 266 235l154 -108q-159 -307 -432 -307q-99 0 -172 36.5t-115 101.5t-62 145t-20 177q0 74 9 160h-121z" />
<glyph unicode="&#x2122;" horiz-adv-x="1202" d="M240 1309l24 125h408l-25 -125h-141l-111 -521h-129l111 521h-137zM637 788l137 646h133l47 -134l45 -129h5q45 61 100 129l108 134h140l-138 -646h-131l76 336l27 107h-4q-37 -52 -82 -107l-135 -168h-4l-60 160l-41 115h-4q-15 -82 -27 -139l-63 -304h-129z" />
<glyph unicode="&#x25fc;" horiz-adv-x="1116" d="M0 0v1116h1116v-1116h-1116z" />
<glyph unicode="&#xfb01;" horiz-adv-x="1196" d="M96 0l203 954h-147l34 162h146l20 94q36 165 122.5 247.5t230.5 82.5q81 0 172 -33l-76 -166q-39 31 -101 31q-60 0 -100 -38.5t-55 -112.5q-20 -87 -23 -105h203l-35 -162h-203l-202 -954h-189zM772 209q0 41 14 113l125 596q26 128 19 198h178q2 -18 2 -49 q0 -80 -16 -154l-121 -600q-8 -50 -8 -63q0 -86 90 -86q12 0 21.5 1.5t13.5 2.5l4 2l-41 -186q-147 0 -214 57t-67 168zM963 1386q0 49 33 82t81 33t82.5 -33t34.5 -82q0 -50 -34.5 -83t-82.5 -33t-81 33t-33 83z" />
<glyph unicode="&#xfb02;" horiz-adv-x="1228" d="M96 0l203 954h-147l34 162h146l20 94q36 165 122.5 247.5t230.5 82.5q81 0 172 -33l-76 -166q-39 31 -101 31q-60 0 -100 -38.5t-55 -112.5q-20 -87 -23 -105h203l-35 -162h-203l-202 -954h-189zM776 209q0 36 15 113l247 1173h191l-250 -1182q-10 -42 -10 -69 q0 -80 90 -80q18 0 39 6l-41 -186q-281 0 -281 225z" />
</font>
</defs>
</svg>
