<?xml version="1.0" standalone="no"?>
<!DOCTYPE svg PUBLIC "-//W3C//DTD SVG 1.1//EN" "http://www.w3.org/Graphics/SVG/1.1/DTD/svg11.dtd" >
<svg xmlns="http://www.w3.org/2000/svg">
<metadata></metadata>
<defs>
<font id="mission_gothicthin_italic" horiz-adv-x="970" >
<font-face units-per-em="2048" ascent="1536" descent="-512" />
<missing-glyph horiz-adv-x="532" />
<glyph horiz-adv-x="0" />
<glyph horiz-adv-x="682" />
<glyph horiz-adv-x="2048" />
<glyph horiz-adv-x="2048" />
<glyph unicode="&#xd;" horiz-adv-x="532" />
<glyph unicode=" "  horiz-adv-x="532" />
<glyph unicode="&#x09;" horiz-adv-x="532" />
<glyph unicode="&#xa0;" horiz-adv-x="532" />
<glyph unicode="!" horiz-adv-x="391" d="M74 33q0 23 15 39t38 16t39 -16t16 -39t-16 -38t-39 -15t-38 15t-15 38zM147 303l240 1131h82l-240 -1131h-82z" />
<glyph unicode="&#x22;" horiz-adv-x="512" d="M242 1008l88 426h88l-111 -426h-65zM446 1008l89 426h88l-111 -426h-66z" />
<glyph unicode="#" horiz-adv-x="1228" d="M123 588l6 69h309l64 299h-303l6 70h313l72 336h84l-72 -336h264l72 336h84l-72 -336h316l-6 -70h-324l-64 -299h318l-6 -69h-326l-78 -367h-86l78 367h-262l-78 -367h-86l78 367h-301zM524 657h262l64 299h-262z" />
<glyph unicode="$" horiz-adv-x="1001" d="M88 240l72 41q45 -96 142 -160t214 -64q138 0 230 86.5t92 221.5q0 38 -9 72.5t-20.5 61t-35.5 54t-42.5 45t-53 42t-54.5 37t-60 36.5q-44 27 -72 46t-66 48t-62 57t-46.5 64t-33.5 78t-11 90q0 160 110 259t275 99q54 0 121 -18l76 229h80l-84 -256q137 -69 197 -215 l-76 -37q-36 93 -121 156t-195 63q-124 0 -212.5 -75t-88.5 -203q0 -55 18 -100.5t55.5 -83t72 -62.5t90.5 -59q38 -22 53 -31.5t50.5 -32t52 -36t45.5 -38t43.5 -44.5t34 -49t28.5 -56.5t16 -63t7 -73.5q0 -119 -56 -209t-147.5 -135t-204.5 -45q-61 0 -123 16l-63 -201 h-78l71 221q-162 72 -231 224z" />
<glyph unicode="%" horiz-adv-x="1228" d="M111 0h86l1050 1434h-86zM135 1024q0 102 37 198.5t114 164t175 67.5q110 0 165.5 -75t55.5 -201q0 -102 -37 -198.5t-114 -164t-175 -67.5q-110 0 -165.5 75t-55.5 201zM217 1024q0 -94 36.5 -149.5t108.5 -55.5q69 0 125 56.5t84.5 138t28.5 164.5q0 93 -36.5 148.5 t-108.5 55.5q-69 0 -125 -56.5t-84.5 -137.5t-28.5 -164zM688 256q0 102 37 198.5t114 164t175 67.5q110 0 165.5 -75t55.5 -201q0 -102 -37 -198.5t-114 -164t-175 -67.5q-110 0 -165.5 75t-55.5 201zM770 256q0 -94 36.5 -149.5t108.5 -55.5q69 0 125 56.5t84.5 138 t28.5 164.5q0 93 -36.5 148.5t-108.5 55.5q-69 0 -125 -56.5t-84.5 -137.5t-28.5 -164z" />
<glyph unicode="&#x26;" horiz-adv-x="1159" d="M100 344q0 107 35.5 196t98 151.5t143 103t174.5 57.5v4q-79 39 -121.5 105.5t-42.5 154.5q0 63 22.5 122t65 108t111.5 78.5t155 29.5q171 0 267 -127l-64 -55q-27 46 -81.5 75t-129.5 29q-124 0 -194 -78t-70 -182q0 -99 60.5 -168t168.5 -69l176 -541h5 q101 191 180 567h84q-89 -428 -234 -657l21 -60q35 -108 110 -116l-22 -76q-60 0 -103 49t-61 127h-4q-146 -201 -385 -201q-159 0 -262 105.5t-103 267.5zM184 350q0 -130 75 -215.5t208 -85.5q212 0 356 207l-178 547q-128 -4 -232 -59t-166.5 -158t-62.5 -236z" />
<glyph unicode="'" horiz-adv-x="307" d="M242 1008l88 426h88l-111 -426h-65z" />
<glyph unicode="(" horiz-adv-x="425" d="M164 297q0 357 121 721.5t321 593.5l62 -49q-186 -213 -306 -568.5t-120 -697.5q0 -246 67 -444l-73 -29q-72 194 -72 473z" />
<glyph unicode=")" horiz-adv-x="425" d="M-94 -106q186 213 306 568t120 697q0 244 -68 445l74 28q72 -194 72 -473q0 -357 -121.5 -721.5t-321.5 -593.5z" />
<glyph unicode="*" horiz-adv-x="788" d="M193 1210l36 74q48 -24 107 -58.5t113 -67t71 -42.5l4 2q7 206 25 332l80 -12q-7 -54 -19.5 -115.5t-30 -133t-18.5 -77.5l4 -2q14 3 77.5 19.5t129 32.5t121.5 26l12 -82q-54 -9 -117 -16t-133 -12.5t-77 -6.5l-3 -4q135 -213 173 -285l-72 -39q-83 155 -139 312h-5 q-7 -8 -50.5 -60.5t-88.5 -104.5t-84 -93l-59 57q97 99 250 221v4q-18 8 -75 31t-119.5 49.5t-112.5 50.5z" />
<glyph unicode="+" horiz-adv-x="761" d="M106 676l17 78h289l63 299h82l-63 -299h288l-16 -78h-289l-63 -299h-82l63 299h-289z" />
<glyph unicode="," horiz-adv-x="327" d="M47 -125q37 33 59 63t26 44l3 14l-2 2q-9 -6 -20 -6q-18 0 -29.5 13t-11.5 34q0 23 14.5 36t38.5 13q49 0 49 -63q0 -45 -26 -95.5t-68 -91.5z" />
<glyph unicode="-" horiz-adv-x="589" d="M147 680l17 78h405l-16 -78h-406z" />
<glyph unicode="." horiz-adv-x="333" d="M55 33q0 23 15.5 39t38.5 16t39 -16t16 -39t-16 -38t-39 -15t-38.5 15t-15.5 38z" />
<glyph unicode="/" horiz-adv-x="595" d="M-14 -123l676 1679h92l-678 -1679h-90z" />
<glyph unicode="0" horiz-adv-x="952" d="M102.5 397q1.5 86 10.5 163.5t26 156.5q28 132 62.5 239.5t82 202t104 158.5t130.5 100.5t160 36.5q59 0 106 -17t79.5 -46t56 -70.5t36 -88t18 -101.5t5 -107.5t-6 -109t-13 -103.5t-17.5 -94q-28 -133 -61.5 -239.5t-80 -201.5t-102 -158.5t-129.5 -100.5t-161 -37 q-85 0 -146.5 34t-94 93.5t-49.5 131.5t-15.5 158zM182.5 382.5q0.5 -58.5 12 -121t35.5 -106.5t69.5 -72t108.5 -28q312 0 452 662q8 37 15 77t14.5 97t8 109.5t-2.5 109.5t-18.5 103.5t-39.5 84.5t-65.5 59t-95.5 21q-84 0 -155.5 -48t-127.5 -137.5t-98 -207.5t-74 -268 q-10 -47 -17.5 -92t-14.5 -114.5t-6.5 -128z" />
<glyph unicode="1" horiz-adv-x="548" d="M180 0l287 1356h-139l16 78h223l-303 -1434h-84z" />
<glyph unicode="2" horiz-adv-x="948" d="M-6 0v4l700 727q219 230 219 406q0 103 -65.5 171t-179.5 68q-126 0 -214.5 -88.5t-125.5 -232.5l-78 20q52 183 159.5 281t264.5 98q156 0 238.5 -90.5t82.5 -222.5q0 -214 -245 -469l-422 -439q-32 -33 -71 -69t-62 -56l-23 -20v-4h586l-17 -84h-747z" />
<glyph unicode="3" horiz-adv-x="919" d="M59 330l86 8q0 -136 73.5 -208.5t191.5 -72.5q108 0 192.5 68t126 166t41.5 201q0 126 -64.5 211t-181.5 85q-39 0 -82 -6l-49 56l486 518h-545l16 78h699v-4l-545 -576l4 -4h29q82 0 144.5 -30.5t98.5 -83t54 -114t18 -130.5q0 -94 -31 -185.5t-86.5 -164.5t-140 -117.5 t-182.5 -44.5q-107 0 -189 50t-123 128.5t-41 171.5z" />
<glyph unicode="4" horiz-adv-x="870" d="M47 356v4l735 1074h82l-211 -1000h217l-18 -78h-215l-76 -356h-82l76 356h-508zM190 434h381l131 619l48 202h-5q-55 -90 -114 -178l-320 -475q-30 -44 -60.5 -85t-45.5 -60l-15 -19v-4z" />
<glyph unicode="5" horiz-adv-x="948" d="M88 330l86 8q0 -136 73 -208.5t191 -72.5q82 0 152 40t114.5 103.5t69.5 139.5t25 152q0 125 -64 206.5t-182 81.5q-74 0 -129.5 -16t-116.5 -55l-69 28l211 697h524l-17 -84h-450l-176 -553l4 -2q88 63 223 63q104 0 179.5 -54t110 -135.5t34.5 -176.5q0 -75 -19.5 -149 t-58 -139.5t-90.5 -115.5t-123 -79t-150 -29q-160 0 -256 103t-96 247z" />
<glyph unicode="6" horiz-adv-x="1001" d="M121.5 444q0.5 75 8 140.5t20.5 132.5q142 737 544 737q252 0 303 -280l-79 -17q-42 221 -232 221q-65 0 -122.5 -28.5t-100 -73.5t-80.5 -112t-63 -131t-48 -144.5t-35.5 -138t-25.5 -125.5h4q55 104 155.5 166.5t209.5 62.5q127 0 210.5 -86.5t83.5 -247.5 q0 -73 -14.5 -146t-48 -144.5t-81.5 -126.5t-121 -89t-160 -34q-76 0 -134.5 26t-94.5 69t-59 104t-31.5 125.5t-8 139.5zM195 403q0 -70 13.5 -131t42.5 -112t81 -79.5t121 -25.5q81 3 147.5 46.5t107.5 111t63 146.5t22 159q0 118 -56.5 188t-167.5 70q-49 0 -100.5 -15 t-100.5 -46.5t-87.5 -74.5t-62 -105t-23.5 -132z" />
<glyph unicode="7" horiz-adv-x="743" d="M82 0l717 1356h-572l17 78h700l-760 -1434h-102z" />
<glyph unicode="8" horiz-adv-x="958" d="M86 317q0 179 100.5 309t266.5 162v5q-160 72 -160 241q0 173 113.5 296.5t283.5 123.5q138 0 207.5 -73.5t69.5 -186.5q0 -80 -35 -163t-100.5 -150t-145.5 -93v-4q105 -19 163 -100.5t58 -187.5q0 -140 -58 -257t-169 -188t-252 -71q-108 0 -187.5 48t-117 123.5 t-37.5 165.5zM168 326q0 -114 67 -191.5t197 -77.5q171 0 282 125.5t111 309.5q0 112 -67.5 187t-198.5 75q-166 0 -278.5 -123.5t-112.5 -304.5zM375 1030q0 -88 53 -147.5t156 -59.5q82 0 152 57t107.5 139.5t37.5 162.5q0 86 -50 140t-153 54q-56 0 -109.5 -24t-97 -67 t-70 -110t-26.5 -145z" />
<glyph unicode="9" horiz-adv-x="993" d="M115 260l80 16q42 -221 231 -221q65 0 122.5 29t100 73.5t80.5 112t63 131t48 144.5t35.5 138.5t25.5 125.5h-4q-55 -104 -155.5 -166.5t-209.5 -62.5q-127 0 -210.5 86t-83.5 247q0 73 15 146t48.5 145t81.5 127t121 89t160 34q76 0 134.5 -26t94.5 -69t59 -104 t31.5 -125.5t8 -139.5t-8 -140.5t-20.5 -132.5q-142 -737 -545 -737q-252 0 -303 280zM319 915q0 -118 56.5 -188t167.5 -70q62 0 126.5 24.5t120.5 69.5t92 118.5t36 160.5q0 70 -14 131t-43 112t-81 79.5t-121 25.5q-81 -3 -147.5 -46.5t-107.5 -111t-63 -146.5t-22 -159z " />
<glyph unicode=":" horiz-adv-x="333" d="M55 33q0 23 15.5 39t38.5 16t39 -16t16 -39t-16 -38t-39 -15t-38.5 15t-15.5 38zM197 702q0 24 15 40t38 16t39 -16.5t16 -39.5t-16 -38t-39 -15t-38 15t-15 38z" />
<glyph unicode=";" horiz-adv-x="327" d="M33 -125q37 33 59 63t26 44l3 14l-2 2q-9 -6 -21 -6q-18 0 -29.5 13t-11.5 34q0 23 15 36t39 13q49 0 49 -63q0 -45 -26 -95.5t-68 -91.5zM190 702q0 23 15.5 39.5t38.5 16.5t39 -16.5t16 -39.5t-16 -38t-39 -15t-38.5 15t-15.5 38z" />
<glyph unicode="&#x3c;" horiz-adv-x="630" d="M86 725v4l565 397l43 -63l-338 -227l-180 -115v-4q56 -50 156 -146l200 -192l-51 -53z" />
<glyph unicode="=" horiz-adv-x="704" d="M139 551l17 82h495l-16 -82h-496zM193 801l16 82h496l-17 -82h-495z" />
<glyph unicode="&#x3e;" horiz-adv-x="630" d="M84 391l338 227l180 115v4q-56 50 -156 146l-200 192l51 53l395 -399v-4l-565 -397z" />
<glyph unicode="?" horiz-adv-x="804" d="M178 1075q52 183 159.5 281t264.5 98q148 0 235 -88.5t87 -218.5q0 -76 -27.5 -145.5t-72 -124.5t-98 -106.5t-107 -101t-98 -98t-72 -106.5t-27.5 -119q0 -20 4 -38.5t8 -27.5l4 -8l-76 -30q-22 41 -22 104q0 68 27.5 133t72 118t98 104.5t107 102t98 101t72 111 t27.5 123.5q0 101 -66.5 169t-179.5 68q-126 0 -214.5 -88.5t-125.5 -232.5zM276 33q0 23 15.5 39t38.5 16t39 -16t16 -39t-16 -38t-39 -15t-38.5 15t-15.5 38z" />
<glyph unicode="@" horiz-adv-x="1624" d="M175 581.5q2 95.5 22 196.5q30 157 97.5 292.5t165.5 239t233 163t290 59.5q119 0 219 -36t170.5 -99t120 -148t73 -183t23.5 -204q0 -99 -21 -189.5t-60.5 -164t-105 -117t-147.5 -43.5q-80 0 -130 53.5t-50 151.5h-4q-49 -99 -129 -152t-164 -53q-60 0 -104 24.5 t-66.5 64t-32.5 92t-7.5 105.5t14.5 107q34 157 129 250.5t223 93.5q135 0 200 -97.5t35 -244.5l-14 -71q-12 -56 -12 -101q0 -145 121 -145q77 0 134.5 65t84 162t26.5 207q0 93 -19.5 179t-61.5 162t-103 132t-150.5 88.5t-197.5 32.5q-176 0 -323.5 -89t-244 -243.5 t-135.5 -353.5q-20 -103 -20 -200t19.5 -184.5t63.5 -160.5t108.5 -126.5t158.5 -83t209 -29.5q112 0 188 27t166 87l41 -71q-96 -64 -190.5 -94.5t-212.5 -30.5q-105 0 -195.5 24t-160 68t-122.5 105.5t-86.5 137t-50.5 162.5t-15 182.5zM664 717q-32 -147 9.5 -219 t125.5 -72q94 0 176 82t110 229q25 134 -20 202.5t-135 68.5q-95 0 -165.5 -76t-100.5 -215z" />
<glyph unicode="A" horiz-adv-x="983" d="M-61 0l743 1434h61l136 -1434h-82l-39 389h-525l-202 -389h-92zM274 467h476l-56 588q-4 46 -7 100t-4 85l-1 30h-4q-51 -121 -96 -207z" />
<glyph unicode="B" horiz-adv-x="1042" d="M84 0l303 1434h289q350 0 350 -275q0 -153 -86 -256t-233 -131v-4q123 -24 187 -98.5t64 -216.5q0 -216 -137.5 -334.5t-365.5 -118.5h-371zM184 78h287q186 0 296 96t110 283q0 131 -71.5 201.5t-197.5 70.5h-286zM338 807h205q189 0 295 89t106 255q0 107 -69 156 t-216 49h-204z" />
<glyph unicode="C" horiz-adv-x="1021" d="M111 451q0 78 9.5 165.5t31.5 185.5t54.5 190t83 176.5t112 147.5t145.5 100.5t180 37.5q168 0 254 -102t102 -281l-79 -6q-14 146 -83 229.5t-200 83.5q-81 0 -152.5 -34t-124 -92t-96.5 -135.5t-72.5 -162t-48.5 -174.5t-28.5 -170.5t-8.5 -152.5q0 -185 69 -293.5 t218 -108.5q122 0 219.5 75t165.5 210l72 -35q-167 -325 -463 -325q-97 0 -168 35.5t-112 100.5t-60.5 148t-19.5 187z" />
<glyph unicode="D" horiz-adv-x="1034" d="M43 0l303 1434h277q130 0 224 -52.5t143 -147.5q50 -95 62 -227q3 -35 3 -73q0 -102 -25 -217q-32 -163 -89 -292.5t-140 -225.5t-196.5 -147.5t-250.5 -51.5h-311zM141 76h228q219 0 369.5 169t209.5 472q23 124 23 227q0 60 -8 112q-21 142 -108.5 222t-233.5 80h-209z " />
<glyph unicode="E" horiz-adv-x="962" d="M84 0l303 1434h725l-16 -76h-643l-136 -637h560l-17 -78h-559l-119 -565h641l-16 -78h-723z" />
<glyph unicode="F" horiz-adv-x="915" d="M84 0l303 1434h705l-17 -76h-622l-152 -715h543l-17 -78h-542l-119 -565h-82z" />
<glyph unicode="G" horiz-adv-x="1071" d="M112 506q4 108 27 231q29 158 78.5 285t120.5 225.5t170 152.5t219 54q164 0 251 -98t105 -269l-82 -10q-16 141 -84 221t-196 80t-230.5 -85t-167.5 -225t-102 -331q-27 -140 -29 -258v-17q0 -108 24 -198q26 -98 95 -153.5t176 -55.5q329 0 459 561h-336l17 78h417 q-24 -127 -56 -231t-79.5 -196t-107 -154t-140 -97.5t-176.5 -35.5q-103 0 -178.5 41t-118 111t-61.5 168q-16 80 -16 168q0 19 1 38z" />
<glyph unicode="H" horiz-adv-x="1126" d="M84 0l303 1434h86l-156 -742h627l156 742h86l-303 -1434h-86l131 614h-627l-131 -614h-86z" />
<glyph unicode="I" horiz-adv-x="493" d="M125 0l303 1434h84l-303 -1434h-84z" />
<glyph unicode="J" horiz-adv-x="749" d="M-12 -4l16 76q50 -15 117 -15q142 0 228.5 99t133.5 323l201 955h86l-205 -969q-52 -251 -156 -368t-288 -117q-84 0 -133 16z" />
<glyph unicode="K" horiz-adv-x="962" d="M84 0l303 1434h84l-135 -635l-49 -211h4l735 846h109l-568 -646l291 -788h-88l-260 723h-4q-82 -99 -246 -285l-92 -438h-84z" />
<glyph unicode="L" horiz-adv-x="772" d="M84 0l303 1434h84l-289 -1356h527l-17 -78h-608z" />
<glyph unicode="M" horiz-adv-x="1355" d="M104 0l304 1434h84l174 -605q10 -34 23.5 -86t21.5 -87l8 -35h4q76 112 133 192l455 621h84l-303 -1434h-84l215 1020q12 58 28 122t25 99l10 35h-4q-74 -117 -164 -240l-403 -553h-33l-160 553l-65 240h-4q-18 -109 -47 -244l-218 -1032h-84z" />
<glyph unicode="N" horiz-adv-x="1247" d="M84 0l303 1434h72l350 -1053q17 -52 34 -109t25 -88l9 -30h4q14 110 39 227l223 1053h84l-303 -1434h-74l-348 1051q-16 48 -33 104t-26 87l-9 32h-4q-14 -114 -39 -227l-223 -1047h-84z" />
<glyph unicode="O" horiz-adv-x="1073" d="M111 505q5 108 28 232q29 158 78.5 285t120.5 225.5t170 152.5t219 54q103 0 177 -41t114.5 -111t57.5 -168q13 -74 13 -154q1 -26 -1 -52q-6 -108 -29 -232q-23 -125 -58.5 -231.5t-87 -197t-115.5 -153.5t-147.5 -98.5t-179.5 -35.5q-103 0 -177 41t-114 111 q-42 69 -58 167q-13 75 -12 156q0 25 1 50zM192 479q0 -11 -1 -21q0 -106 23 -194q25 -98 92 -153.5t171 -55.5q128 0 230.5 85t167.5 225t102 331q27 140 29 258q0 11 1 21q0 107 -23 195q-25 98 -92 153t-171 55q-128 0 -230.5 -85t-167.5 -225t-102 -331 q-27 -140 -29 -258z" />
<glyph unicode="P" horiz-adv-x="980" d="M84 0l305 1434h297q218 0 308 -140q61 -95 62 -234q0 -66 -14 -142q-42 -238 -190.5 -377.5t-384.5 -139.5h-215l-84 -401h-84zM268 479h215q181 0 308 118.5t170 320.5q15 74 15 136q0 110 -47 185q-74 117 -259 117h-215z" />
<glyph unicode="Q" horiz-adv-x="1073" d="M70 505q5 108 28 232q29 158 78.5 285t120.5 225.5t170 152.5t219 54q103 0 177 -41t114.5 -111t57.5 -168q13 -74 13 -154q0 -26 -2 -52q-5 -108 -28 -232q-87 -465 -324 -635q51 -106 137 -188l-53 -57q-100 93 -149 207q-94 -43 -199 -43q-103 0 -177 41t-114.5 110.5 t-56.5 167.5q-13 75 -13 156q0 25 1 50zM150 479v-21q0 -106 23 -194q25 -98 92 -153.5t171 -55.5q84 0 164 39q-53 128 -106 213l59 45q11 -17 21.5 -33t20 -35t15.5 -30t15.5 -33t12.5 -28.5t13 -31.5t11 -28h4q189 148 270 563q27 140 30 258v21q0 106 -23 195 q-25 97 -92 152.5t-171 55.5q-128 0 -230.5 -85t-167.5 -225t-102 -331q-27 -140 -30 -258z" />
<glyph unicode="R" horiz-adv-x="1034" d="M84 0l305 1434h297q182 0 277.5 -89.5t95.5 -252.5q0 -123 -36.5 -238.5t-120 -213.5t-200.5 -140l160 -500h-88l-149 479q-75 -16 -158 -16h-201l-98 -463h-84zM283 541h200q100 0 187.5 33.5t156.5 98t108.5 169t39.5 237.5q0 134 -75.5 205.5t-229.5 71.5h-215z" />
<glyph unicode="S" horiz-adv-x="1001" d="M88 240l72 41q45 -96 142 -160t214 -64q138 0 230 86.5t92 221.5q0 38 -9 72.5t-20.5 61t-35.5 54t-42.5 45t-53 42t-54.5 37t-60 36.5q-44 27 -72 46t-66 48t-62 57t-46.5 64t-33.5 78t-11 90q0 160 110 259t275 99q140 0 243 -74t147 -186l-76 -37q-36 93 -121 156 t-195 63q-124 0 -212.5 -75t-88.5 -203q0 -55 18 -100.5t55.5 -83t72 -62.5t90.5 -59q38 -22 53 -31.5t50.5 -32t52 -36t45.5 -38t43.5 -44.5t34 -49t28.5 -56.5t16 -63t7 -73.5q0 -119 -56 -209t-147.5 -135t-204.5 -45q-140 0 -255 71t-169 189z" />
<glyph unicode="T" horiz-adv-x="868" d="M240 1356l16 78h793l-17 -78h-354l-287 -1356h-84l287 1356h-354z" />
<glyph unicode="U" horiz-adv-x="1097" d="M154 338q0 59 16 141l203 955h84l-205 -969q-14 -66 -14 -129q0 -140 75 -209.5t199 -69.5q282 0 369 410l204 967h84l-206 -979q-101 -475 -455 -475q-159 0 -256.5 93t-97.5 265z" />
<glyph unicode="V" d="M238 1434h81l97 -1047l16 -237h4q50 106 105 217l544 1067h93l-744 -1434h-61z" />
<glyph unicode="W" horiz-adv-x="1568" d="M238 1434h81l50 -1014q3 -49 4.5 -113t1.5 -103v-40h4q53 129 106 244l478 1026h69l51 -1014q3 -50 4 -114t1 -103l-1 -39h5q51 131 102 242l481 1028h90l-680 -1434h-61l-53 1042q-3 52 -4 108.5t-1 87.5l1 30h-4q-42 -106 -93 -215l-497 -1053h-62z" />
<glyph unicode="X" horiz-adv-x="952" d="M-8 0l491 717l-188 717h84l131 -494l39 -162h4q45 76 94 148l348 508h97l-494 -717l190 -717h-83l-121 446q-13 45 -25 97t-18 81l-6 29h-5q-66 -104 -127 -194l-315 -459h-96z" />
<glyph unicode="Y" horiz-adv-x="862" d="M217 1434h82l127 -686l35 -211h4q59 108 110 194l424 703h97l-611 -998l-92 -436h-84l92 438z" />
<glyph unicode="Z" horiz-adv-x="931" d="M-31 0v4l885 1221q24 35 49.5 66.5t38.5 46.5l14 14v4h-651l17 78h782v-4l-883 -1217q-24 -33 -50.5 -65.5t-40.5 -49.5l-15 -16v-4h686l-17 -78h-815z" />
<glyph unicode="[" horiz-adv-x="376" d="M39 -246l414 1946h323l-16 -78h-242l-381 -1790h242l-17 -78h-323z" />
<glyph unicode="\" horiz-adv-x="489" d="M219 1559h82l119 -1684l-80 2z" />
<glyph unicode="]" horiz-adv-x="376" d="M-215 -246l16 78h242l381 1790h-242l17 78h323l-413 -1946h-324z" />
<glyph unicode="^" horiz-adv-x="747" d="M387 1626l301 246h4l199 -252l-62 -49l-55 71q-21 26 -44.5 59.5t-36.5 54.5l-13 20h-4q-72 -70 -125 -115l-117 -96z" />
<glyph unicode="_" horiz-adv-x="772" d="M-109 -283l17 78h784l-16 -78h-785z" />
<glyph unicode="`" horiz-adv-x="489" d="M225 1690l37 79l426 -198l-29 -64z" />
<glyph unicode="a" horiz-adv-x="1071" d="M115 372q2 78 18 158q48 253 168 400t291 147q156 0 239 -113q58 -79 59 -184q0 -44 -11 -92l-88 -407q-15 -77 -15 -103q0 -59 31.5 -83.5t101.5 -24.5q25 0 39 2l-16 -80q-12 -2 -37 -2q-115 0 -160 58q-38 50 -38 127q0 14 1 28h-4q-25 -48 -49 -82t-60.5 -69 t-86 -53.5t-109.5 -18.5q-74 0 -129.5 32t-86.5 86q-31 52 -45 124q-13 63 -13 131v19zM198 364v-10q0 -72 14 -138q16 -71 63.5 -115t121.5 -44q71 0 133 44t108.5 122.5t80.5 175t59 213.5l19 86q9 40 9 77q0 77 -39 136q-57 88 -177 88q-133 0 -229.5 -121t-145.5 -360 q-16 -78 -17 -154z" />
<glyph unicode="b" horiz-adv-x="913" d="M135 496l213 999h84l-94 -438l-43 -176h4q113 196 303 196q270 0 270 -366q0 -138 -35 -269t-96 -234t-152 -165.5t-196 -62.5q-173 0 -241 135q-39 77 -39 189q0 86 22 192zM213 477q-19 -89 -19 -160q0 -87 28 -148q51 -112 177 -112q84 0 159 58t125 150.5t79 208 t29 231.5q0 294 -205 294q-71 0 -131 -35t-102 -94t-69.5 -126t-43.5 -142z" />
<glyph unicode="c" horiz-adv-x="880" d="M115 399q0 77 14 156t39.5 155t66 142.5t90.5 116.5t115 79t138 29q116 0 187 -69.5t99 -188.5l-78 -24q-46 204 -215 204q-110 0 -198 -93t-132 -228.5t-44 -278.5q0 -161 59 -251.5t170 -90.5q155 0 260 170l64 -47q-131 -200 -328 -200q-103 0 -174 58t-102 150 t-31 211z" />
<glyph unicode="d" horiz-adv-x="1048" d="M115 352q0 81 16.5 174.5t54.5 192t91.5 177.5t135.5 130t179 51q194 0 244 -190h4q16 103 28 164l95 444h84l-256 -1214q-15 -77 -15 -103q0 -59 31.5 -83.5t101.5 -24.5q25 0 39 2l-16 -80q-12 -2 -37 -2q-196 0 -196 190q0 12 1 25h-4q-45 -100 -122.5 -162.5 t-184.5 -62.5q-72 0 -126.5 29.5t-86 81.5t-46.5 117.5t-15 143.5zM197 350q0 -60 10 -110.5t32.5 -92.5t62.5 -66t95 -24q121 0 215 114t148 366l35 161q8 36 8 76q0 99 -56.5 162t-156.5 63q-133 0 -229.5 -121t-145.5 -360q-18 -95 -18 -168z" />
<glyph unicode="e" d="M115 420q0 115 33 230t92 211t152.5 156t203.5 60q108 0 183.5 -58t110 -153t34.5 -217q0 -70 -13 -153h-710q-4 -27 -4 -78q0 -176 75.5 -268.5t200.5 -92.5q155 0 291 154l59 -55q-162 -176 -358 -176q-164 0 -257 121t-93 319zM213 573h625q4 50 4 80q0 162 -67.5 254 t-184.5 92q-139 0 -240 -123t-137 -303z" />
<glyph unicode="f" horiz-adv-x="581" d="M119 0l207 979h-176l16 78h176l39 186q60 273 276 273q103 0 181 -66l-54 -64q-49 52 -127 52q-73 0 -122.5 -50t-71.5 -145l-39 -186h233l-16 -78h-233l-207 -979h-82z" />
<glyph unicode="g" horiz-adv-x="944" d="M10 -295l62 62q101 -119 256 -119q250 0 327 372l50 211h-5q-50 -95 -126.5 -153t-176.5 -58q-70 0 -123.5 28t-86 78t-48.5 114t-16 141q0 66 12 140t35 153t62.5 150.5t89.5 128.5t120.5 90.5t151.5 33.5q101 0 165 -51t83 -141h4q6 43 20 86t24 65l11 21h84 q-38 -63 -63 -178l-185 -871q-47 -225 -148.5 -331.5t-264.5 -106.5q-199 0 -314 135zM205 385q0 -127 51 -208t162 -81q125 0 215 125t155 420l13 57q8 50 8 76q0 97 -60 161t-161 64q-78 0 -144.5 -43t-109 -110.5t-73 -151t-43.5 -162t-13 -147.5z" />
<glyph unicode="h" horiz-adv-x="1044" d="M66 0l317 1495h84l-90 -428l-41 -172h4q101 182 291 182q70 0 121.5 -24.5t79.5 -66.5t42 -100q11 -49 12 -103v-19q-2 -64 -18 -137l-73 -346q-15 -77 -15 -103q0 -59 31.5 -83.5t101.5 -24.5q25 0 39 2l-16 -80q-14 -2 -37 -2q-201 0 -201 186q0 36 15 113l75 352 q17 79 17 143q0 60 -17 108q-17 50 -60 78.5t-110 28.5q-70 0 -128 -29.5t-97.5 -80.5t-65 -111t-40.5 -131l-137 -647h-84z" />
<glyph unicode="i" horiz-adv-x="499" d="M125 176q0 41 14 113l113 526q31 149 31 242h84q0 -84 -35 -252l-111 -524q-14 -72 -14 -103q0 -59 31 -83.5t102 -24.5q25 0 39 2l-17 -80q-16 -2 -28 -2q-112 0 -160.5 48t-48.5 138zM338 1323q0 23 15 39t38 16t39 -16t16 -39t-16 -38t-39 -15t-38 15t-15 38z" />
<glyph unicode="j" horiz-adv-x="552" d="M-252 -416l16 82q44 -16 105 -16q120 0 192 82.5t111 271.5l223 1053h84l-223 -1057q-50 -235 -141.5 -332.5t-245.5 -97.5q-64 0 -121 14zM440 1323q0 23 15.5 39t38.5 16t39 -16t16 -39t-16 -38t-39 -15t-38.5 15t-15.5 38z" />
<glyph unicode="k" horiz-adv-x="888" d="M66 0l317 1495h82l-92 -430l-41 -176h4q102 188 287 188q113 0 171 -65.5t58 -159.5q0 -72 -34.5 -144.5t-94.5 -132t-150 -98t-192 -41.5l-2 -4q38 -15 72 -70q16 -27 36.5 -73t36.5 -80t39 -68t55.5 -52.5t73.5 -18.5q38 0 96 12l-18 -82q-33 -8 -78 -8q-82 0 -134 38 t-91 107q-17 31 -38.5 79.5t-37.5 83.5t-37.5 69.5t-49.5 52.5q-26 17 -60 16h-4l-4 -2q-11 -71 -29 -157l-60 -279h-81zM254 504q29 -2 84 -2q106 0 191.5 32.5t135.5 84.5t76.5 110.5t26.5 116.5q0 70 -45 111.5t-127 41.5q-63 0 -115.5 -29t-90.5 -81.5t-64.5 -118 t-44.5 -145.5z" />
<glyph unicode="l" horiz-adv-x="550" d="M145 176q0 36 15 113l256 1206h84l-258 -1214q-15 -77 -15 -103q0 -59 31 -83.5t102 -24.5q25 0 39 2l-16 -80q-13 -2 -29 -2q-112 0 -160.5 48t-48.5 138z" />
<glyph unicode="m" horiz-adv-x="1540" d="M66 0l174 815q30 141 30 227v15h84q0 -43 -22 -172h4q97 192 280 192q110 0 168 -68t60 -182h4q105 250 309 250q119 0 176.5 -70t57.5 -192q0 -56 -17 -143l-84 -391q-14 -72 -14 -103q0 -59 31.5 -83.5t101.5 -24.5q25 0 39 2l-16 -80q-12 -2 -37 -2q-201 0 -201 186 q0 41 14 113l86 397q15 67 15 125q0 188 -162 188q-84 0 -152 -51.5t-107.5 -128t-60.5 -172.5l-137 -647h-84l148 686q14 63 14 125q0 188 -160 188q-69 0 -127 -35t-97.5 -94.5t-65.5 -126t-42 -141.5l-126 -602h-84z" />
<glyph unicode="n" horiz-adv-x="1044" d="M66 0l174 815q30 141 30 227v15h84q-4 -92 -24 -170h4q102 190 297 190q131 0 192.5 -80.5t61.5 -214.5q0 -65 -17 -155l-73 -346q-15 -77 -15 -103q0 -59 31.5 -83.5t101.5 -24.5q25 0 39 2l-16 -80q-12 -2 -37 -2q-201 0 -201 186q0 36 15 113l75 352q17 83 17 141 q0 217 -187 217q-256 0 -342 -397l-126 -602h-84z" />
<glyph unicode="o" d="M115 406q0 98 20 194t61 182t98 152t135.5 104.5t168.5 38.5q106 0 181 -58t110 -152.5t35 -215.5q0 -123 -33 -241.5t-92.5 -215t-152.5 -155.5t-204 -59q-107 0 -182 58t-110 152.5t-35 215.5zM197 406q0 -164 66.5 -256.5t182.5 -92.5t208 86t140 221t48 287 q0 163 -67 255.5t-183 92.5t-208 -86t-139.5 -220.5t-47.5 -286.5z" />
<glyph unicode="p" horiz-adv-x="966" d="M-12 -410l262 1225q16 76 24 136.5t8 82.5l-1 23h84q0 -82 -25 -178h4q118 198 305 198q271 0 271 -366q0 -185 -58.5 -351t-170.5 -273t-251 -107q-93 0 -156.5 58.5t-82.5 158.5h-4q-13 -78 -31 -164l-94 -443h-84zM244 397q-10 -44 -10 -85q0 -83 39 -152 q58 -103 173 -103q84 0 159 58t125 150.5t79 208t29 231.5q0 294 -205 294q-71 0 -131 -35t-102 -94t-69.5 -126t-43.5 -142z" />
<glyph unicode="q" horiz-adv-x="935" d="M115 381q0 66 12 140t35 153t62.5 150.5t89.5 128.5t120.5 90.5t151.5 33.5q99 0 162 -51.5t86 -138.5h4q7 42 21 84.5t24 64.5l10 21h84q-39 -63 -64 -178l-272 -1289h-84l135 635h-4q-115 -205 -299 -205q-70 0 -123.5 28t-86 78t-48.5 114t-16 141zM197 385 q0 -127 51 -208t162 -81q58 0 108 25.5t87 71t66 98t50.5 117.5t34.5 116.5t24 108.5l13 65q8 50 8 76q0 97 -60 161t-161 64q-78 0 -144.5 -43t-109 -110.5t-73 -151t-43.5 -162t-13 -147.5z" />
<glyph unicode="r" horiz-adv-x="600" d="M66 0l174 815q30 141 30 227v15h84v-6q0 -70 -22 -160h4q45 85 118.5 135.5t176.5 50.5q28 0 74 -8l-19 -82q-31 8 -70 8q-255 0 -340 -393l-126 -602h-84z" />
<glyph unicode="s" horiz-adv-x="860" d="M45 182l70 45q44 -81 139 -125.5t199 -44.5q116 0 186 60.5t70 150.5q0 50 -29 91t-75 69.5t-102 55t-111.5 55.5t-101.5 63t-74 85q-28 49 -28 110q0 125 94 201q94 75 238 75q114 0 209.5 -45t159.5 -123l-62 -53q-50 65 -132.5 104t-176.5 39q-107 0 -177.5 -51 t-70.5 -143q0 -43 22.5 -79.5t59 -62.5t83.5 -52t95.5 -47.5t95.5 -50.5t83.5 -60.5t59 -77t22.5 -99.5q0 -132 -91.5 -212t-246.5 -80q-128 0 -239.5 51.5t-168.5 150.5z" />
<glyph unicode="t" horiz-adv-x="616" d="M147 219q0 40 15 117l135 643h-150l19 78h147l52 233h81l-49 -233h242l-18 -78h-240l-137 -651q-13 -57 -13 -97q0 -176 160 -176q53 0 111 25l22 -80q-64 -23 -133 -23q-118 0 -181 66.5t-63 175.5z" />
<glyph unicode="u" horiz-adv-x="1071" d="M168 268q0 60 16 135l140 654h84l-144 -668q-12 -59 -12 -113q0 -99 48.5 -159t154.5 -60q69 0 126 35t95 95.5t63 126t41 141.5l127 602h82l-162 -774q-14 -72 -14 -103q0 -59 31 -83.5t102 -24.5q25 0 39 2l-16 -80h-29q-64 0 -106.5 15t-62.5 44t-27 60t-7 75h-4 q-51 -95 -118.5 -151.5t-172.5 -56.5q-139 0 -206.5 77.5t-67.5 210.5z" />
<glyph unicode="v" horiz-adv-x="815" d="M133 1057h84l88 -709q5 -41 10.5 -97t8.5 -92l2 -36h4q47 115 100 219l363 715h92l-541 -1057h-74z" />
<glyph unicode="w" horiz-adv-x="1359" d="M133 1057h84l64 -686l16 -246h4q56 131 107 240l329 692h76l64 -686l16 -246h4q56 127 109 240l331 692h93l-517 -1057h-73l-70 692q-5 58 -8.5 116t-4.5 87l-1 29h-6q-40 -97 -99 -222l-336 -702h-73z" />
<glyph unicode="x" horiz-adv-x="847" d="M6 0l404 541l-181 516h88l93 -271l63 -200h4q74 104 146 196l211 275h102l-410 -529l187 -528h-88l-105 299q-15 41 -29 87.5t-21 72.5l-7 26h-4q-60 -92 -121 -176l-229 -309h-103z" />
<glyph unicode="y" horiz-adv-x="806" d="M-258 -391l39 74q68 -35 151 -35t141 55t109 158l74 147l-135 1049h84l88 -715l22 -233h4q52 121 103 225l362 723h93l-617 -1219q-68 -132 -147.5 -200t-184.5 -68q-103 0 -186 39z" />
<glyph unicode="z" horiz-adv-x="851" d="M-20 0v4l698 850q25 31 52 61.5t42 44.5l14 15v4h-530l18 78h674v-4l-674 -815q-31 -37 -66.5 -76t-55.5 -60l-19 -20v-4h547l-16 -78h-684z" />
<glyph unicode="{" horiz-adv-x="518" d="M27 -49q0 74 31 148t74.5 134.5t87.5 117.5t75 117t31 114q0 58 -39.5 80t-108.5 22l17 74q41 0 74.5 9t65.5 30t50 63t18 101q0 56 -40.5 173.5t-40.5 196.5q0 177 112 276t291 99l-16 -80q-60 0 -113.5 -16t-99 -49.5t-72.5 -92.5t-27 -137q0 -71 42 -186t42 -180 q0 -98 -55.5 -163t-142.5 -83v-4q54 -15 86 -51t32 -86q0 -59 -30.5 -125t-74 -125t-87.5 -118.5t-74.5 -124.5t-30.5 -124q0 -81 58.5 -113t161.5 -32l-17 -80q-127 0 -203.5 56t-76.5 159z" />
<glyph unicode="|" horiz-adv-x="444" d="M66 -205l393 1843h84l-393 -1843h-84z" />
<glyph unicode="}" horiz-adv-x="518" d="M-63 -264l16 80q60 0 113 16t99 49.5t72.5 92.5t26.5 137q0 71 -42 186t-42 180q0 98 56 163t143 83v4q-54 15 -86.5 51t-32.5 86q0 59 30.5 125t74 125t87.5 118.5t74.5 124.5t30.5 124q0 81 -58.5 113t-160.5 32l16 80q127 0 204 -56t77 -159q0 -74 -31 -148 t-75 -134.5t-87.5 -117.5t-74.5 -117t-31 -114q0 -58 39 -80t108 -22l-16 -74q-41 0 -75 -9t-66 -30t-50 -63t-18 -101q0 -56 41 -173.5t41 -196.5q0 -177 -112 -276t-291 -99z" />
<glyph unicode="~" horiz-adv-x="854" d="M121 694q23 108 73 164.5t138 56.5q38 0 73 -16.5t61 -39.5t51 -46.5t52 -40t54 -16.5q103 0 135 155l78 -10q-25 -112 -72 -166.5t-141 -54.5q-38 0 -73 16.5t-61.5 39.5t-51.5 46t-52.5 39.5t-54.5 16.5q-99 0 -131 -154z" />
<glyph unicode="&#xa1;" horiz-adv-x="391" d="M76 -2l239 1130h82l-239 -1130h-82zM358 1399q0 23 15.5 39t38.5 16t39 -16t16 -39t-16 -38t-39 -15t-38.5 15t-15.5 38z" />
<glyph unicode="&#xa2;" horiz-adv-x="868" d="M139 125l129 246q-82 64 -109 172t-1 229q36 174 144 279.5t265 105.5q56 0 109 -16l98 184h92l-116 -219q97 -66 133 -207l-78 -25q-23 99 -85.5 152t-156.5 53q-122 0 -207 -86.5t-116 -236.5q-10 -55 -11 -108.5t17 -102t48 -85t82 -58t120 -21.5q86 0 147.5 42 t116.5 128l63 -47q-68 -102 -147.5 -151.5t-181.5 -49.5q-90 0 -154 27l-109 -205h-92z" />
<glyph unicode="&#xa3;" horiz-adv-x="1060" d="M86 43q4 4 6 4q180 150 219 381q9 63 15 131h-207l16 78h197q2 25 5 76q5 79 8 120t10.5 115t16 115.5t24 103t34.5 96.5t47.5 76.5t63 63t81.5 36.5t103 15q147 0 233 -109.5t86 -279.5h-81q0 54 -13.5 106.5t-40.5 99.5t-75 76t-109 29q-54 0 -97 -21t-71.5 -48.5 t-51.5 -85t-35 -99.5t-22.5 -124.5t-14 -127t-10.5 -137.5q-2 -22 -2.5 -33.5t-2 -29.5t-2.5 -33h391l-16 -78h-381q-3 -38 -17 -131q-41 -226 -176 -338l2 -4q50 12 104.5 11.5t104 -11t103 -17.5t100.5 -9t97.5 15t94.5 54l51 -66q-49 -44 -106 -63.5t-112 -17.5t-112 12 t-113 22t-108.5 17t-104 -8t-93.5 -48z" />
<glyph unicode="&#xa4;" horiz-adv-x="1150" d="M88 600l14 70h103l12 57q4 26 8 37h-102l16 70h103q37 142 84.5 251.5t112.5 194.5t151.5 129.5t191.5 44.5q301 0 305 -385l-77 -2q-1 65 -12.5 117.5t-37 98t-71 70.5t-109.5 25q-314 0 -456 -544h323l-16 -70h-324q-4 -11 -8 -37l-12 -57h323l-14 -70h-320 q-7 -51 -10.5 -99t-2.5 -103.5t9 -103t26 -93t45.5 -77t70.5 -50.5t98 -19q216 0 342 285l74 -25q-70 -163 -169.5 -249t-246.5 -86q-78 0 -138 26t-96.5 72.5t-59.5 105.5t-30 131t-5 141t12 144h-107z" />
<glyph unicode="&#xa5;" horiz-adv-x="886" d="M104 272l15 70h246l22 102l-14 115h-209l14 70h187l-95 805h82l76 -672q4 -40 8 -94.5t6 -89.5l2 -35h5q47 105 102 209l364 682h93l-437 -805h177l-15 -70h-198l-64 -117l-22 -100h239l-14 -70h-240l-57 -272h-84l57 272h-246z" />
<glyph unicode="&#xa6;" horiz-adv-x="419" d="M49 -205l180 846h84l-180 -846h-84zM268 819l174 819h84l-174 -819h-84z" />
<glyph unicode="&#xa7;" horiz-adv-x="1005" d="M86 240l72 41q42 -92 138 -158t224 -66q130 0 198 66t68 153q0 49 -24 89.5t-64 68t-90.5 54.5t-103 48.5t-103 50.5t-90.5 59.5t-64 76.5t-24 102q0 72 40.5 129.5t117.5 89.5v5q-29 50 -29 114q0 126 92.5 208.5t247.5 82.5q146 0 239 -72t138 -184l-76 -37 q-37 96 -111.5 155.5t-189.5 59.5q-116 0 -187 -59.5t-71 -149.5q0 -55 30 -99t78.5 -74t107 -57.5t116.5 -57t106.5 -64t78.5 -86.5t30 -117q0 -136 -150 -206v-5q37 -46 37 -127q0 -125 -95.5 -209.5t-258.5 -84.5q-146 0 -258.5 70t-169.5 190zM305 829q0 -52 34.5 -93.5 t91.5 -72.5t118.5 -58t129 -65t109.5 -79q105 55 105 147q0 56 -34 99.5t-90.5 75t-117 58.5t-125.5 64.5t-104 79.5q-57 -23 -87 -65t-30 -91z" />
<glyph unicode="&#xa8;" horiz-adv-x="512" d="M322 1667q0 23 15 39t38 16t39 -16t16 -39t-16 -38t-39 -15t-38 15t-15 38zM608 1667q0 23 15.5 39t38.5 16t39 -16t16 -39t-16 -38t-39 -15t-38.5 15t-15.5 38z" />
<glyph unicode="&#xa9;" horiz-adv-x="1603" d="M139 717q0 206 97.5 375t267.5 265.5t377 96.5q206 0 375.5 -96.5t266.5 -265.5t97 -375q0 -207 -97 -376t-266.5 -265t-375.5 -96q-207 0 -377 96t-267.5 265t-97.5 376zM221 717q0 -187 86.5 -338t238 -236.5t337.5 -85.5t336 85.5t234.5 236.5t84.5 338 q0 185 -84.5 336t-234.5 237t-336 86t-337.5 -86t-238 -237t-86.5 -336zM635 727q0 161 64.5 252.5t174.5 91.5q151 0 203 -174l-76 -23q-34 119 -127 119q-76 0 -116.5 -67.5t-40.5 -198.5q0 -128 41 -196t116 -68q51 0 81.5 31.5t48.5 95.5l77 -21q-23 -86 -75 -135 t-132 -49q-110 0 -174.5 91t-64.5 251z" />
<glyph unicode="&#xaa;" horiz-adv-x="526" d="M111 784l350 650h59l76 -650h-82l-12 134h-234l-65 -134h-92zM303 985h193l-15 174l-10 166h-4q-35 -84 -74 -162z" />
<glyph unicode="&#xab;" horiz-adv-x="802" d="M57 684l15 84l499 317l43 -63l-342 -215l-145 -86v-4q70 -54 129 -107l217 -190l-57 -53zM406 684l14 84l500 317l43 -63l-342 -215l-146 -86v-4q70 -54 129 -107l217 -190l-57 -53z" />
<glyph unicode="&#xac;" horiz-adv-x="704" d="M106 506l254 209l-155 209l63 49l154 -207l250 207l49 -62l-252 -209l156 -206l-64 -50l-153 205l-252 -207z" />
<glyph unicode="&#xad;" horiz-adv-x="1705" />
<glyph unicode="&#xae;" horiz-adv-x="1603" d="M139 717q0 206 97.5 375t267.5 265.5t377 96.5q206 0 375.5 -96.5t266.5 -265.5t97 -375q0 -207 -97 -376t-266.5 -265t-375.5 -96q-207 0 -377 96t-267.5 265t-97.5 376zM221 717q0 -187 86.5 -338t238 -236.5t337.5 -85.5t336 85.5t234.5 236.5t84.5 338 q0 185 -84.5 336t-234.5 237t-336 86t-337.5 -86t-238 -237t-86.5 -336zM694 399v660h178q100 0 152.5 -64.5t52.5 -154.5q0 -60 -23 -110.5t-69 -80.5l123 -250h-92l-107 224q-12 -2 -37 -2h-96v-222h-82zM776 698h96q58 0 90.5 40t32.5 102q0 61 -32.5 101t-90.5 40h-96 v-283z" />
<glyph unicode="&#xaf;" horiz-adv-x="626" d="M279 1581l16 78h528l-16 -78h-528z" />
<glyph unicode="&#xb0;" horiz-adv-x="548" d="M248 1225q0 94 60.5 161.5t170.5 67.5q88 0 133 -54t45 -126q0 -88 -60 -159t-163 -71q-94 0 -140 52.5t-46 128.5zM332 1223q0 -44 26.5 -72.5t75.5 -28.5q64 0 101.5 48t37.5 106q0 43 -26 71.5t-76 28.5q-63 0 -101 -46t-38 -107z" />
<glyph unicode="&#xb1;" horiz-adv-x="757" d="M119 332h487l17 78h-488zM172 799l16 78h248l56 258h81l-55 -258h248l-16 -78h-248l-56 -258h-81l55 258h-248z" />
<glyph unicode="&#xb2;" horiz-adv-x="573" d="M152 788l8 41l319 297q53 49 77 84t24 76q0 44 -27 67t-68 23q-100 0 -155 -143l-76 24q37 90 92 143.5t141 53.5q84 0 129.5 -48t45.5 -118q0 -110 -123 -217l-93 -82q-30 -26 -67 -56t-59 -47l-21 -16v-4h264l-16 -78h-395z" />
<glyph unicode="&#xb3;" horiz-adv-x="530" d="M154 950l79 15q6 -57 42.5 -89t95.5 -32q65 0 103 41.5t38 105.5q0 39 -17.5 67t-43.5 38.5t-55.5 14t-53.5 -4.5l-27 57l95 82l135 107v4h-269l17 78h405l-6 -27l-190 -162l-96 -78l2 -4q80 3 132 -42.5t52 -121.5q0 -97 -59.5 -164t-165.5 -67q-94 0 -151 52.5 t-62 129.5z" />
<glyph unicode="&#xb4;" horiz-adv-x="524" d="M313 1571l426 198l37 -79l-434 -183z" />
<glyph unicode="&#xb6;" horiz-adv-x="954" d="M113 844q0 85 24 168.5t73 159.5t117 134.5t163.5 93t205.5 34.5h213l-303 -1434h-82l84 399h-92q-85 0 -153 23t-114 63t-77 97t-45 122t-14 140zM688 0l303 1434h82l-303 -1434h-82z" />
<glyph unicode="&#xb7;" horiz-adv-x="337" d="M164 592q0 23 15 39t38 16t39 -16t16 -39t-16 -38t-39 -15t-38 15t-15 38z" />
<glyph unicode="&#xb8;" horiz-adv-x="495" d="M-76 -412l68 47q15 -38 48.5 -63t80.5 -25q66 0 107.5 40t41.5 98q0 41 -26 65.5t-74 24.5q-41 0 -81 -18t-58 -36l-62 41l121 273h76l-100 -221l4 -2q56 36 118 36q76 0 122 -45.5t46 -113.5q0 -90 -62 -155.5t-171 -65.5q-68 0 -124 34t-75 86z" />
<glyph unicode="&#xb9;" horiz-adv-x="366" d="M250 788l121 568h-70l16 78h154l-137 -646h-84z" />
<glyph unicode="&#xba;" horiz-adv-x="577" d="M203 1026q0 74 18 148.5t51.5 137.5t86.5 102.5t116 39.5q67 0 110.5 -40t60 -97t16.5 -129q0 -101 -30.5 -197t-94 -163.5t-146.5 -67.5q-65 0 -109 39.5t-61.5 97t-17.5 129.5zM276 1004q0 -74 28.5 -124.5t92.5 -50.5q55 0 101 61t69 147t23 171q0 73 -30 124.5 t-91 51.5q-59 0 -104.5 -61.5t-67 -146.5t-21.5 -172z" />
<glyph unicode="&#xbb;" horiz-adv-x="817" d="M-29 422l342 215l146 86v4q-70 54 -129 107l-217 190l57 53l358 -317l-14 -84l-500 -318zM330 422l342 215l145 86v4q-70 54 -129 107l-217 190l57 53l359 -317l-15 -84l-499 -318z" />
<glyph unicode="&#xbc;" horiz-adv-x="976" d="M-6 0h98l975 1434h-100zM270 788l121 568h-69l16 78h154l-138 -646h-84zM391 141l373 506h80l-92 -428h92l-17 -78h-92l-28 -141h-84l28 141h-260zM528 211h144l59 291h-4q-112 -177 -199 -287v-4z" />
<glyph unicode="&#xbd;" horiz-adv-x="987" d="M-6 0h98l975 1434h-100zM270 788l121 568h-69l16 78h154l-138 -646h-84zM401 0l9 41l319 297q52 49 76 84t24 76q0 44 -26.5 67t-67.5 23q-99 0 -155 -144l-76 25q37 90 92 143.5t141 53.5q84 0 129 -48t45 -118q0 -110 -123 -217l-92 -82q-30 -26 -67 -56t-59 -47 l-21 -16v-4h264l-16 -78h-396z" />
<glyph unicode="&#xbe;" horiz-adv-x="1050" d="M68 0h98l975 1434h-101zM115 950l80 15q6 -57 42 -89t95 -32q65 0 103 41.5t38 105.5q0 39 -17.5 67t-43.5 38.5t-55.5 14t-53.5 -4.5l-27 57l95 82l135 107v4h-268l16 78h405l-6 -27l-190 -162l-96 -78l2 -4q80 3 132 -42.5t52 -121.5q0 -97 -59.5 -164t-165.5 -67 q-94 0 -151 52.5t-62 129.5zM471 141l373 506h80l-93 -428h93l-17 -78h-92l-29 -141h-84l29 141h-260zM608 211h144l59 291h-4q-112 -177 -199 -287v-4z" />
<glyph unicode="&#xbf;" horiz-adv-x="804" d="M43 309q0 76 27.5 145.5t72 124.5t98 106.5t107 101t98 98t72 106.5t27.5 119q0 20 -4.5 38.5t-8.5 27.5l-4 8l76 30q23 -41 23 -104q0 -68 -27.5 -133t-72 -118t-98 -104.5t-107 -102t-98 -101t-72 -111t-27.5 -123.5q0 -101 66.5 -169t179.5 -68q126 0 214.5 88.5 t125.5 232.5l77 -20q-52 -183 -159 -281t-264 -98q-148 0 -235 88.5t-87 218.5zM543 1399q0 23 15 39t38 16t39 -16t16 -39t-16 -38t-39 -15t-38 15t-15 38z" />
<glyph unicode="&#xc0;" horiz-adv-x="983" d="M-61 0l743 1434h61l136 -1434h-82l-39 389h-525l-202 -389h-92zM274 467h476l-56 588q-4 46 -7 100t-4 85l-1 30h-4q-51 -121 -96 -207zM410 1690l36 79l426 -198l-28 -64z" />
<glyph unicode="&#xc1;" horiz-adv-x="983" d="M-61 0l743 1434h61l136 -1434h-82l-39 389h-525l-202 -389h-92zM274 467h476l-56 588q-4 46 -7 100t-4 85l-1 30h-4q-51 -121 -96 -207zM539 1571l426 198l36 -79l-434 -183z" />
<glyph unicode="&#xc2;" horiz-adv-x="983" d="M-61 0l743 1434h61l136 -1434h-82l-39 389h-525l-202 -389h-92zM274 467h476l-56 588q-4 46 -7 100t-4 85l-1 30h-4q-51 -121 -96 -207zM465 1626l301 246h4l199 -252l-62 -49l-55 71q-21 26 -44.5 59.5t-36.5 54.5l-13 20h-4q-72 -70 -125 -115l-117 -96z" />
<glyph unicode="&#xc3;" horiz-adv-x="983" d="M-61 0l743 1434h61l136 -1434h-82l-39 389h-525l-202 -389h-92zM274 467h476l-56 588q-4 46 -7 100t-4 85l-1 30h-4q-51 -121 -96 -207zM383 1595q23 109 73 165.5t138 56.5q38 0 73 -16.5t61 -40t51 -47t52 -40t54 -16.5q103 0 135 155l78 -10q-25 -112 -72 -166.5 t-141 -54.5q-38 0 -73 16.5t-61.5 39.5t-51.5 46t-52.5 39.5t-54.5 16.5q-99 0 -131 -154z" />
<glyph unicode="&#xc4;" horiz-adv-x="983" d="M-61 0l743 1434h61l136 -1434h-82l-39 389h-525l-202 -389h-92zM274 467h476l-56 588q-4 46 -7 100t-4 85l-1 30h-4q-51 -121 -96 -207zM547 1667q0 23 15 39t38 16t39 -16t16 -39t-16 -38t-39 -15t-38 15t-15 38zM834 1667q0 23 15 39t38 16t39 -16t16 -39t-16 -38 t-39 -15t-38 15t-15 38z" />
<glyph unicode="&#xc5;" horiz-adv-x="983" d="M-61 0l743 1434h61l136 -1434h-82l-39 389h-525l-202 -389h-92zM274 467h476l-56 588q-4 46 -7 100t-4 85l-1 30h-4q-51 -121 -96 -207zM621 1710q0 62 42 109t117 47q63 0 97 -37t34 -90q0 -61 -41 -106.5t-116 -45.5q-64 0 -98.5 36t-34.5 87zM686 1714 q0 -28 18.5 -46.5t53.5 -18.5q41 0 64.5 26t23.5 62q0 28 -18.5 47.5t-51.5 19.5q-41 0 -65.5 -26.5t-24.5 -63.5z" />
<glyph unicode="&#xc6;" horiz-adv-x="1533" d="M-74 0l1028 1434h725l-16 -76h-643l-135 -637h559l-17 -78h-559l-118 -565h641l-17 -78h-723l82 389h-430l-274 -389h-103zM358 467h392l122 582l52 217h-4q-71 -105 -132 -193z" />
<glyph unicode="&#xc7;" horiz-adv-x="1021" d="M111 451q0 78 9.5 165.5t31.5 185.5t54.5 190t83 176.5t112 147.5t145.5 100.5t180 37.5q168 0 254 -102t102 -281l-79 -6q-14 146 -83 229.5t-200 83.5q-81 0 -152.5 -34t-124 -92t-96.5 -135.5t-72.5 -162t-48.5 -174.5t-28.5 -170.5t-8.5 -152.5q0 -185 69 -293.5 t218 -108.5q122 0 219.5 75t165.5 210l72 -35q-167 -325 -463 -325q-31 0 -43 2l-76 -168l4 -2q56 36 119 36q76 0 122 -45.5t46 -113.5q0 -90 -62 -155.5t-171 -65.5q-68 0 -124 34t-75 86l68 47q15 -38 48.5 -63t80.5 -25q66 0 107.5 40t41.5 98q0 41 -26 65.5t-74 24.5 q-41 0 -82 -18.5t-58 -35.5l-61 41l102 232q-247 70 -247 457z" />
<glyph unicode="&#xc8;" horiz-adv-x="962" d="M84 0l303 1434h725l-16 -76h-643l-136 -637h560l-17 -78h-559l-119 -565h641l-16 -78h-723zM532 1690l37 79l426 -198l-28 -64z" />
<glyph unicode="&#xc9;" horiz-adv-x="962" d="M84 0l303 1434h725l-16 -76h-643l-136 -637h560l-17 -78h-559l-119 -565h641l-16 -78h-723zM541 1571l426 198l37 -79l-435 -183z" />
<glyph unicode="&#xca;" horiz-adv-x="962" d="M84 0l303 1434h725l-16 -76h-643l-136 -637h560l-17 -78h-559l-119 -565h641l-16 -78h-723zM530 1626l301 246h5l198 -252l-61 -49l-55 71q-21 26 -44.5 59.5t-37.5 54.5l-13 20h-4q-72 -70 -125 -115l-116 -96z" />
<glyph unicode="&#xcb;" horiz-adv-x="962" d="M84 0l303 1434h725l-16 -76h-643l-136 -637h560l-17 -78h-559l-119 -565h641l-16 -78h-723zM567 1667q0 23 15.5 39t38.5 16t39 -16t16 -39t-16 -38t-39 -15t-38.5 15t-15.5 38zM854 1667q0 23 15 39t38 16t39.5 -16t16.5 -39t-16 -38t-40 -15q-23 0 -38 15t-15 38z" />
<glyph unicode="&#xcc;" horiz-adv-x="493" d="M125 0l303 1434h84l-303 -1434h-84zM266 1690l37 79l426 -198l-29 -64z" />
<glyph unicode="&#xcd;" horiz-adv-x="493" d="M125 0l303 1434h84l-303 -1434h-84zM270 1571l426 198l37 -79l-434 -183z" />
<glyph unicode="&#xce;" horiz-adv-x="493" d="M125 0l303 1434h84l-303 -1434h-84zM256 1626l301 246h4l199 -252l-62 -49l-55 71q-21 26 -44.5 59.5t-36.5 54.5l-13 20h-4q-72 -70 -125 -115l-117 -96z" />
<glyph unicode="&#xcf;" horiz-adv-x="493" d="M125 0l303 1434h84l-303 -1434h-84zM309 1667q0 23 15 39t38 16t39.5 -16t16.5 -39t-16 -38t-40 -15q-23 0 -38 15t-15 38zM596 1667q0 23 15 39t38 16t39.5 -16t16.5 -39t-16 -38t-40 -15q-23 0 -38 15t-15 38z" />
<glyph unicode="&#xd0;" horiz-adv-x="1034" d="M43 0l143 680h-114l16 78h115l143 676h277q209 0 319.5 -132t110.5 -362q0 -95 -16.5 -196.5t-50 -209t-90.5 -202t-131.5 -169.5t-180.5 -119t-230 -44h-311zM141 76h228q104 0 194 40t154.5 108.5t114.5 155t79.5 184.5t44.5 192.5t15 183.5q0 198 -88.5 308 t-261.5 110h-209l-127 -600h270l-16 -78h-271z" />
<glyph unicode="&#xd1;" horiz-adv-x="1247" d="M84 0l303 1434h72l350 -1053q17 -52 34 -109t25 -88l9 -30h4q14 110 39 227l223 1053h84l-303 -1434h-74l-348 1051q-16 48 -33 104t-26 87l-9 32h-4q-14 -114 -39 -227l-223 -1047h-84zM494 1595q23 109 73 165.5t138 56.5q38 0 73 -16.5t61 -40t50.5 -47t51.5 -40 t54 -16.5q103 0 135 155l78 -10q-25 -112 -72 -166.5t-141 -54.5q-38 0 -73 16.5t-61.5 39.5t-51.5 46t-52.5 39.5t-54.5 16.5q-99 0 -131 -154z" />
<glyph unicode="&#xd2;" horiz-adv-x="1073" d="M111 505q5 108 28 232q29 158 78.5 285t120.5 225.5t170 152.5t219 54q103 0 177 -41t114.5 -111t57.5 -168t11.5 -206t-28.5 -232q-23 -125 -58.5 -231.5t-87 -197t-115.5 -153.5t-147.5 -98.5t-179.5 -35.5q-103 0 -177 41t-114.5 110.5t-57 167.5t-11.5 206z M191.5 479q-2.5 -118 22.5 -215.5t92 -153t171 -55.5q128 0 230.5 85t167.5 225t102 331q27 140 29.5 258t-22.5 215.5t-92 153t-171 55.5q-128 0 -230.5 -85t-167.5 -225t-102 -331q-27 -140 -29.5 -258zM553 1690l37 79l426 -198l-29 -64z" />
<glyph unicode="&#xd3;" horiz-adv-x="1073" d="M111 505q5 108 28 232q29 158 78.5 285t120.5 225.5t170 152.5t219 54q103 0 177 -41t114.5 -111t57.5 -168t11.5 -206t-28.5 -232q-23 -125 -58.5 -231.5t-87 -197t-115.5 -153.5t-147.5 -98.5t-179.5 -35.5q-103 0 -177 41t-114.5 110.5t-57 167.5t-11.5 206z M191.5 479q-2.5 -118 22.5 -215.5t92 -153t171 -55.5q128 0 230.5 85t167.5 225t102 331q27 140 29.5 258t-22.5 215.5t-92 153t-171 55.5q-128 0 -230.5 -85t-167.5 -225t-102 -331q-27 -140 -29.5 -258zM580 1571l426 198l36 -79l-434 -183z" />
<glyph unicode="&#xd4;" horiz-adv-x="1073" d="M111 505q5 108 28 232q29 158 78.5 285t120.5 225.5t170 152.5t219 54q103 0 177 -41t114.5 -111t57.5 -168t11.5 -206t-28.5 -232q-23 -125 -58.5 -231.5t-87 -197t-115.5 -153.5t-147.5 -98.5t-179.5 -35.5q-103 0 -177 41t-114.5 110.5t-57 167.5t-11.5 206z M191.5 479q-2.5 -118 22.5 -215.5t92 -153t171 -55.5q128 0 230.5 85t167.5 225t102 331q27 140 29.5 258t-22.5 215.5t-92 153t-171 55.5q-128 0 -230.5 -85t-167.5 -225t-102 -331q-27 -140 -29.5 -258zM537 1626l301 246h4l198 -252l-61 -49l-55 71q-21 26 -44.5 59.5 t-37.5 54.5l-13 20h-4q-72 -70 -125 -115l-116 -96z" />
<glyph unicode="&#xd5;" horiz-adv-x="1073" d="M111 505q5 108 28 232q29 158 78.5 285t120.5 225.5t170 152.5t219 54q103 0 177 -41t114.5 -111t57.5 -168t11.5 -206t-28.5 -232q-23 -125 -58.5 -231.5t-87 -197t-115.5 -153.5t-147.5 -98.5t-179.5 -35.5q-103 0 -177 41t-114.5 110.5t-57 167.5t-11.5 206z M191.5 479q-2.5 -118 22.5 -215.5t92 -153t171 -55.5q128 0 230.5 85t167.5 225t102 331q27 140 29.5 258t-22.5 215.5t-92 153t-171 55.5q-128 0 -230.5 -85t-167.5 -225t-102 -331q-27 -140 -29.5 -258zM446 1595q23 109 73 165.5t138 56.5q38 0 73 -16.5t61 -40t51 -47 t52 -40t54 -16.5q103 0 135 155l78 -10q-25 -112 -72 -166.5t-141 -54.5q-38 0 -73 16.5t-61.5 39.5t-51.5 46t-52.5 39.5t-54.5 16.5q-99 0 -131 -154z" />
<glyph unicode="&#xd6;" horiz-adv-x="1073" d="M111 505q5 108 28 232q29 158 78.5 285t120.5 225.5t170 152.5t219 54q103 0 177 -41t114.5 -111t57.5 -168t11.5 -206t-28.5 -232q-23 -125 -58.5 -231.5t-87 -197t-115.5 -153.5t-147.5 -98.5t-179.5 -35.5q-103 0 -177 41t-114.5 110.5t-57 167.5t-11.5 206z M191.5 479q-2.5 -118 22.5 -215.5t92 -153t171 -55.5q128 0 230.5 85t167.5 225t102 331q27 140 29.5 258t-22.5 215.5t-92 153t-171 55.5q-128 0 -230.5 -85t-167.5 -225t-102 -331q-27 -140 -29.5 -258zM592 1667q0 23 15 39t38 16t39 -16t16 -39t-16 -38t-39 -15t-38 15 t-15 38zM879 1667q0 23 15 39t38 16t39 -16t16 -39t-16 -38t-39 -15t-38 15t-15 38z" />
<glyph unicode="&#xd7;" horiz-adv-x="704" d="M106 506l254 209l-155 209l63 49l154 -207l250 207l49 -62l-252 -209l156 -206l-64 -50l-153 205l-252 -207z" />
<glyph unicode="&#xd8;" horiz-adv-x="1073" d="M111 505q5 108 28 232q29 158 78.5 285t120.5 225.5t170 152.5t219 54q103 0 177 -41t114.5 -111t57.5 -168t11.5 -206t-28.5 -232q-23 -125 -58.5 -231.5t-87 -197t-115.5 -153.5t-147.5 -98.5t-179.5 -35.5q-103 0 -177 41t-114.5 110.5t-57 167.5t-11.5 206z M192 402.5q9 -160.5 74 -248.5l611 1179q-64 45 -156 45q-128 0 -230.5 -85t-167.5 -225t-102 -331q-38 -174 -29 -334.5zM319 100q64 -45 158 -45q128 0 230.5 85t167.5 225t102 331q79 413 -45 582z" />
<glyph unicode="&#xd9;" horiz-adv-x="1097" d="M154 338q0 59 16 141l203 955h84l-205 -969q-14 -66 -14 -129q0 -140 75 -209.5t199 -69.5q282 0 369 410l204 967h84l-206 -979q-101 -475 -455 -475q-159 0 -256.5 93t-97.5 265zM565 1690l37 79l426 -198l-29 -64z" />
<glyph unicode="&#xda;" horiz-adv-x="1097" d="M154 338q0 59 16 141l203 955h84l-205 -969q-14 -66 -14 -129q0 -140 75 -209.5t199 -69.5q282 0 369 410l204 967h84l-206 -979q-101 -475 -455 -475q-159 0 -256.5 93t-97.5 265zM539 1571l426 198l36 -79l-434 -183z" />
<glyph unicode="&#xdb;" horiz-adv-x="1097" d="M154 338q0 59 16 141l203 955h84l-205 -969q-14 -66 -14 -129q0 -140 75 -209.5t199 -69.5q282 0 369 410l204 967h84l-206 -979q-101 -475 -455 -475q-159 0 -256.5 93t-97.5 265zM539 1626l301 246h4l198 -252l-61 -49l-55 71q-21 26 -44.5 59.5t-37.5 54.5l-13 20h-4 q-72 -70 -125 -115l-116 -96z" />
<glyph unicode="&#xdc;" horiz-adv-x="1097" d="M154 338q0 59 16 141l203 955h84l-205 -969q-14 -66 -14 -129q0 -140 75 -209.5t199 -69.5q282 0 369 410l204 967h84l-206 -979q-101 -475 -455 -475q-159 0 -256.5 93t-97.5 265zM598 1667q0 23 15 39t38 16t39.5 -16t16.5 -39t-16 -38t-40 -15q-23 0 -38 15t-15 38z M885 1667q0 23 15 39t38 16t39 -16t16 -39t-16 -38t-39 -15t-38 15t-15 38z" />
<glyph unicode="&#xdd;" horiz-adv-x="862" d="M217 1434h82l127 -686l35 -211h4q59 108 110 194l424 703h97l-611 -998l-92 -436h-84l92 438zM432 1571l426 198l37 -79l-434 -183z" />
<glyph unicode="&#xde;" horiz-adv-x="925" d="M84 0l305 1434h82l-41 -187h180q102 0 173.5 -37.5t106.5 -106t44 -163.5t-14 -209q-42 -238 -179 -377t-350 -139h-178l-45 -215h-84zM229 293h179q164 0 275 117t155 321q43 206 -16.5 322t-227.5 116h-180z" />
<glyph unicode="&#xdf;" horiz-adv-x="1077" d="M66 0l225 1061q42 201 120.5 297t225.5 96q128 0 200 -70t72 -194q0 -64 -20.5 -113.5t-53 -80.5t-71.5 -55.5t-78 -44.5t-71.5 -41t-53 -51t-20.5 -69q0 -41 22 -74t57.5 -56.5t78.5 -45t85.5 -46t78 -53t57.5 -72.5t22 -99q0 -131 -88.5 -220t-245.5 -89 q-107 0 -192 39.5t-129 99.5l59 53q39 -49 108.5 -82t159.5 -33q107 0 177.5 58.5t70.5 163.5q0 45 -22 80.5t-58 60t-79 47t-85.5 46.5t-78.5 51.5t-58 69.5t-22 95t20.5 93.5t53 66t71.5 47.5l78 44t71.5 47.5t53 66.5t20.5 94q0 87 -51.5 137.5t-142.5 50.5 q-51 0 -90.5 -17.5t-65.5 -44t-46.5 -70t-32 -83.5t-23.5 -96l-225 -1065h-84z" />
<glyph unicode="&#xe0;" horiz-adv-x="1040" d="M115 371.5q2 77.5 18 158.5q48 253 168 400t291 147q156 0 239 -113t48 -276l-88 -407q-15 -77 -15 -103q0 -59 31.5 -83.5t101.5 -24.5q25 0 39 2l-16 -80q-12 -2 -37 -2q-115 0 -160 58.5t-37 154.5h-4q-25 -48 -49 -82t-60.5 -69t-86 -53.5t-109.5 -18.5 q-74 0 -129.5 32t-86.5 85.5t-45.5 125t-12.5 149zM198 363.5q-1 -76.5 14.5 -147.5t63 -115t121.5 -44q71 0 133 44t108.5 122.5t80.5 175t59 213.5l19 86q27 125 -30 213t-177 88q-133 0 -229.5 -121t-145.5 -360q-16 -78 -17 -154.5zM430 1362l37 80l426 -199l-29 -63z " />
<glyph unicode="&#xe1;" horiz-adv-x="1040" d="M115 371.5q2 77.5 18 158.5q48 253 168 400t291 147q156 0 239 -113t48 -276l-88 -407q-15 -77 -15 -103q0 -59 31.5 -83.5t101.5 -24.5q25 0 39 2l-16 -80q-12 -2 -37 -2q-115 0 -160 58.5t-37 154.5h-4q-25 -48 -49 -82t-60.5 -69t-86 -53.5t-109.5 -18.5 q-74 0 -129.5 32t-86.5 85.5t-45.5 125t-12.5 149zM198 363.5q-1 -76.5 14.5 -147.5t63 -115t121.5 -44q71 0 133 44t108.5 122.5t80.5 175t59 213.5l19 86q27 125 -30 213t-177 88q-133 0 -229.5 -121t-145.5 -360q-16 -78 -17 -154.5zM408 1243l426 199l36 -80l-434 -182z " />
<glyph unicode="&#xe2;" horiz-adv-x="1040" d="M115 371.5q2 77.5 18 158.5q48 253 168 400t291 147q156 0 239 -113t48 -276l-88 -407q-15 -77 -15 -103q0 -59 31.5 -83.5t101.5 -24.5q25 0 39 2l-16 -80q-12 -2 -37 -2q-115 0 -160 58.5t-37 154.5h-4q-25 -48 -49 -82t-60.5 -69t-86 -53.5t-109.5 -18.5 q-74 0 -129.5 32t-86.5 85.5t-45.5 125t-12.5 149zM198 363.5q-1 -76.5 14.5 -147.5t63 -115t121.5 -44q71 0 133 44t108.5 122.5t80.5 175t59 213.5l19 86q27 125 -30 213t-177 88q-133 0 -229.5 -121t-145.5 -360q-16 -78 -17 -154.5zM387 1262l301 245h4l199 -252 l-62 -49l-55 72q-21 26 -44.5 59.5t-36.5 53.5l-13 20h-4q-72 -70 -125 -115l-117 -96z" />
<glyph unicode="&#xe3;" horiz-adv-x="1038" d="M115 371.5q2 77.5 18 158.5q48 253 168 400t291 147q156 0 239 -113t48 -276l-88 -407q-15 -77 -15 -103q0 -59 31.5 -83.5t101.5 -24.5q25 0 39 2l-16 -80q-12 -2 -37 -2q-115 0 -160 58.5t-37 154.5h-4q-25 -48 -49 -82t-60.5 -69t-86 -53.5t-109.5 -18.5 q-74 0 -129.5 32t-86.5 85.5t-45.5 125t-12.5 149zM198 363.5q-1 -76.5 14.5 -147.5t63 -115t121.5 -44q71 0 133 44t108.5 122.5t80.5 175t59 213.5l19 86q27 125 -30 213t-177 88q-133 0 -229.5 -121t-145.5 -360q-16 -78 -17 -154.5zM317 1255q23 109 73 165.5t138 56.5 q38 0 73 -16.5t61 -40t51 -47t52 -40t54 -16.5q103 0 135 156l78 -11q-25 -112 -72 -166.5t-141 -54.5q-38 0 -73 16.5t-61.5 39.5t-51.5 46t-52.5 39.5t-54.5 16.5q-99 0 -131 -154z" />
<glyph unicode="&#xe4;" horiz-adv-x="1040" d="M115 371.5q2 77.5 18 158.5q48 253 168 400t291 147q156 0 239 -113t48 -276l-88 -407q-15 -77 -15 -103q0 -59 31.5 -83.5t101.5 -24.5q25 0 39 2l-16 -80q-12 -2 -37 -2q-115 0 -160 58.5t-37 154.5h-4q-25 -48 -49 -82t-60.5 -69t-86 -53.5t-109.5 -18.5 q-74 0 -129.5 32t-86.5 85.5t-45.5 125t-12.5 149zM198 363.5q-1 -76.5 14.5 -147.5t63 -115t121.5 -44q71 0 133 44t108.5 122.5t80.5 175t59 213.5l19 86q27 125 -30 213t-177 88q-133 0 -229.5 -121t-145.5 -360q-16 -78 -17 -154.5zM446 1294q0 23 15.5 39.5t38.5 16.5 t39 -16.5t16 -39.5t-16 -38t-39 -15t-38.5 15t-15.5 38zM733 1294q0 24 15 40t38 16t39.5 -16.5t16.5 -39.5t-16 -38t-40 -15q-23 0 -38 15t-15 38z" />
<glyph unicode="&#xe5;" horiz-adv-x="1040" d="M115 371.5q2 77.5 18 158.5q48 253 168 400t291 147q156 0 239 -113t48 -276l-88 -407q-15 -77 -15 -103q0 -59 31.5 -83.5t101.5 -24.5q25 0 39 2l-16 -80q-12 -2 -37 -2q-115 0 -160 58.5t-37 154.5h-4q-25 -48 -49 -82t-60.5 -69t-86 -53.5t-109.5 -18.5 q-74 0 -129.5 32t-86.5 85.5t-45.5 125t-12.5 149zM198 363.5q-1 -76.5 14.5 -147.5t63 -115t121.5 -44q71 0 133 44t108.5 122.5t80.5 175t59 213.5l19 86q27 125 -30 213t-177 88q-133 0 -229.5 -121t-145.5 -360q-16 -78 -17 -154.5zM504 1300q0 62 42.5 109t117.5 47 q63 0 97 -37t34 -90q0 -61 -41.5 -106t-116.5 -45q-64 0 -98.5 35.5t-34.5 86.5zM569 1305q0 -28 18.5 -47t53.5 -19q41 0 64.5 26t23.5 62q0 28 -18.5 48t-51.5 20q-41 0 -65.5 -26.5t-24.5 -63.5z" />
<glyph unicode="&#xe6;" horiz-adv-x="1751" d="M141 221q0 202 164.5 298t515.5 99l21 95q31 145 -15 218t-149 73q-160 0 -291 -183l-63 53q156 205 356 205q119 0 177 -74t50 -212h4q62 133 148 208.5t219 75.5q108 0 183.5 -58t110 -153t34.5 -217q0 -43 -7 -108h-712q-8 -55 -8 -123q0 -176 75.5 -268.5 t200.5 -92.5q155 0 291 154l59 -55q-162 -176 -358 -176q-87 0 -151 35t-99 96t-52.5 130.5t-19.5 151.5h-4q-15 -50 -37 -100t-60 -108.5t-83 -102t-110.5 -73t-139.5 -29.5q-117 0 -183.5 68t-66.5 173zM223 221q0 -79 51.5 -121.5t133.5 -42.5q94 0 176 62t133.5 154 t73.5 198l14 70h-66q-516 0 -516 -320zM903 618h621v35q0 162 -67.5 254t-184.5 92q-129 0 -228 -108.5t-141 -272.5z" />
<glyph unicode="&#xe7;" horiz-adv-x="880" d="M115 399q0 77 14 156t39.5 155t66 142.5t90.5 116.5t115 79t138 29q116 0 187 -69.5t99 -188.5l-78 -24q-46 204 -215 204q-110 0 -198 -93t-132 -228.5t-44 -278.5q0 -161 59 -251.5t170 -90.5q155 0 260 170l64 -47q-131 -200 -328 -200q-17 0 -49 4l-76 -170l4 -2 q56 36 119 36q76 0 122 -45.5t46 -113.5q0 -90 -62.5 -155.5t-171.5 -65.5q-68 0 -123.5 34t-74.5 86l67 47q15 -38 48.5 -63t80.5 -25q66 0 108 40t42 98q0 41 -26.5 65.5t-74.5 24.5q-41 0 -81 -18t-58 -36l-61 41l104 238q-96 41 -143 147.5t-47 251.5z" />
<glyph unicode="&#xe8;" d="M115 420q0 115 33 230t92 211t152.5 156t203.5 60q108 0 183.5 -58t110 -153t34.5 -217q0 -70 -13 -153h-710q-4 -27 -4 -78q0 -176 75.5 -268.5t200.5 -92.5q155 0 291 154l59 -55q-162 -176 -358 -176q-164 0 -257 121t-93 319zM213 573h625q4 50 4 80q0 162 -67.5 254 t-184.5 92q-139 0 -240 -123t-137 -303zM430 1362l37 80l426 -199l-29 -63z" />
<glyph unicode="&#xe9;" d="M115 420q0 115 33 230t92 211t152.5 156t203.5 60q108 0 183.5 -58t110 -153t34.5 -217q0 -70 -13 -153h-710q-4 -27 -4 -78q0 -176 75.5 -268.5t200.5 -92.5q155 0 291 154l59 -55q-162 -176 -358 -176q-164 0 -257 121t-93 319zM213 573h625q4 50 4 80q0 162 -67.5 254 t-184.5 92q-139 0 -240 -123t-137 -303zM393 1243l426 199l37 -80l-434 -182z" />
<glyph unicode="&#xea;" d="M115 420q0 115 33 230t92 211t152.5 156t203.5 60q108 0 183.5 -58t110 -153t34.5 -217q0 -70 -13 -153h-710q-4 -27 -4 -78q0 -176 75.5 -268.5t200.5 -92.5q155 0 291 154l59 -55q-162 -176 -358 -176q-164 0 -257 121t-93 319zM213 573h625q4 50 4 80q0 162 -67.5 254 t-184.5 92q-139 0 -240 -123t-137 -303zM387 1262l301 245h4l199 -252l-62 -49l-55 72q-21 26 -44.5 59.5t-36.5 53.5l-13 20h-4q-72 -70 -125 -115l-117 -96z" />
<glyph unicode="&#xeb;" d="M115 420q0 115 33 230t92 211t152.5 156t203.5 60q108 0 183.5 -58t110 -153t34.5 -217q0 -70 -13 -153h-710q-4 -27 -4 -78q0 -176 75.5 -268.5t200.5 -92.5q155 0 291 154l59 -55q-162 -176 -358 -176q-164 0 -257 121t-93 319zM213 573h625q4 50 4 80q0 162 -67.5 254 t-184.5 92q-139 0 -240 -123t-137 -303zM442 1294q0 23 15.5 39.5t38.5 16.5t39 -16.5t16 -39.5t-16 -38t-39 -15t-38.5 15t-15.5 38zM729 1294q0 24 15 40t38 16t39.5 -16.5t16.5 -39.5t-16 -38t-40 -15q-23 0 -38 15t-15 38z" />
<glyph unicode="&#xec;" horiz-adv-x="534" d="M125 176q0 41 14 113l113 526q31 146 31 227v15h84q0 -84 -35 -252l-111 -524q-14 -72 -14 -103q0 -59 31 -83.5t102 -24.5q25 0 39 2l-17 -80q-5 0 -14.5 -1t-13.5 -1q-112 0 -160.5 48t-48.5 138zM238 1339l59 66l190 -182l-45 -52z" />
<glyph unicode="&#xed;" horiz-adv-x="534" d="M125 176q0 41 14 113l113 526q31 146 31 227v15h84q0 -84 -35 -252l-111 -524q-14 -72 -14 -103q0 -59 31 -83.5t102 -24.5q25 0 39 2l-17 -80q-5 0 -14.5 -1t-13.5 -1q-112 0 -160.5 48t-48.5 138zM264 1221l191 182l59 -66l-205 -168z" />
<glyph unicode="&#xee;" horiz-adv-x="534" d="M113 1262l301 245h4l198 -252l-61 -49l-55 72q-21 26 -44.5 59.5t-36.5 53.5l-13 20h-5q-72 -70 -125 -115l-116 -96zM125 176q0 41 14 113l113 526q31 146 31 227v15h84q0 -84 -35 -252l-111 -524q-14 -72 -14 -103q0 -59 31 -83.5t102 -24.5q25 0 39 2l-17 -80 q-5 0 -14.5 -1t-13.5 -1q-112 0 -160.5 48t-48.5 138z" />
<glyph unicode="&#xef;" horiz-adv-x="534" d="M125 176q0 41 14 113l113 526q31 146 31 227v15h84q0 -84 -35 -252l-111 -524q-14 -72 -14 -103q0 -59 31 -83.5t102 -24.5q25 0 39 2l-17 -80q-5 0 -14.5 -1t-13.5 -1q-112 0 -160.5 48t-48.5 138zM233 1323q0 23 15.5 39t38.5 16t39 -16t16 -39t-16 -38t-39 -15 t-38.5 15t-15.5 38zM397 1323q0 23 15.5 39t38.5 16t39 -16t16 -39t-16 -38t-39 -15t-38.5 15t-15.5 38z" />
<glyph unicode="&#xf0;" horiz-adv-x="1036" d="M115 352q0 90 18 178q48 253 168 400t291 147q98 0 159.5 -50t84.5 -136h4q12 77 37 196q10 55 10 93q0 53 -21 104l-168 -127l-32 47l163 131q-80 80 -239 80l18 80q184 0 281 -111l184 148l41 -59l-186 -142q39 -70 39 -164q0 -33 -11 -94l-168 -792q-14 -72 -14 -103 q0 -59 31.5 -83.5t101.5 -24.5q25 0 39 2l-16 -80q-6 0 -14.5 -1t-22.5 -1q-188 0 -191 207h-4q-49 -94 -126.5 -155.5t-182.5 -61.5q-72 0 -126.5 29.5t-86 81.5t-46.5 117.5t-15 143.5zM197 350q0 -60 10 -110.5t32.5 -92.5t62.5 -66t95 -24q257 0 363 486l37 168 q8 50 8 69q0 95 -58 157t-157 62q-133 0 -229.5 -121t-145.5 -360q-18 -95 -18 -168z" />
<glyph unicode="&#xf1;" horiz-adv-x="1046" d="M66 0l174 815q30 141 30 227v15h84q-4 -92 -24 -170h4q102 190 297 190q131 0 192.5 -80.5t61.5 -214.5q0 -65 -17 -155l-73 -346q-15 -77 -15 -103q0 -59 31.5 -83.5t101.5 -24.5q25 0 39 2l-16 -80q-12 -2 -37 -2q-201 0 -201 186q0 36 15 113l75 352q17 83 17 141 q0 217 -187 217q-256 0 -342 -397l-126 -602h-84zM303 1255q23 109 73 165.5t138 56.5q38 0 73 -16.5t61 -40t51 -47t52 -40t54 -16.5q103 0 135 156l78 -11q-25 -112 -72 -166.5t-141 -54.5q-38 0 -73 16.5t-61.5 39.5t-51.5 46t-52.5 39.5t-54.5 16.5q-99 0 -131 -154z " />
<glyph unicode="&#xf2;" d="M115 406q0 98 20 194t61 182t98 152t135.5 104.5t168.5 38.5q106 0 181 -58t110 -152.5t35 -215.5q0 -123 -33 -241.5t-92.5 -215t-152.5 -155.5t-204 -59q-107 0 -182 58t-110 152.5t-35 215.5zM197 406q0 -164 66.5 -256.5t182.5 -92.5t208 86t140 221t48 287 q0 163 -67 255.5t-183 92.5t-208 -86t-139.5 -220.5t-47.5 -286.5zM410 1362l36 80l426 -199l-28 -63z" />
<glyph unicode="&#xf3;" d="M115 406q0 98 20 194t61 182t98 152t135.5 104.5t168.5 38.5q106 0 181 -58t110 -152.5t35 -215.5q0 -123 -33 -241.5t-92.5 -215t-152.5 -155.5t-204 -59q-107 0 -182 58t-110 152.5t-35 215.5zM197 406q0 -164 66.5 -256.5t182.5 -92.5t208 86t140 221t48 287 q0 163 -67 255.5t-183 92.5t-208 -86t-139.5 -220.5t-47.5 -286.5zM399 1243l426 199l37 -80l-434 -182z" />
<glyph unicode="&#xf4;" d="M115 406q0 98 20 194t61 182t98 152t135.5 104.5t168.5 38.5q106 0 181 -58t110 -152.5t35 -215.5q0 -123 -33 -241.5t-92.5 -215t-152.5 -155.5t-204 -59q-107 0 -182 58t-110 152.5t-35 215.5zM197 406q0 -164 66.5 -256.5t182.5 -92.5t208 86t140 221t48 287 q0 163 -67 255.5t-183 92.5t-208 -86t-139.5 -220.5t-47.5 -286.5zM373 1262l301 245h4l199 -252l-62 -49l-55 72q-21 26 -44.5 59.5t-36.5 53.5l-13 20h-4q-72 -70 -125 -115l-117 -96z" />
<glyph unicode="&#xf5;" d="M115 406q0 98 20 194t61 182t98 152t135.5 104.5t168.5 38.5q106 0 181 -58t110 -152.5t35 -215.5q0 -123 -33 -241.5t-92.5 -215t-152.5 -155.5t-204 -59q-107 0 -182 58t-110 152.5t-35 215.5zM197 406q0 -164 66.5 -256.5t182.5 -92.5t208 86t140 221t48 287 q0 163 -67 255.5t-183 92.5t-208 -86t-139.5 -220.5t-47.5 -286.5zM291 1257q23 109 73 165.5t138 56.5q38 0 73 -16.5t61 -40t51 -47t52 -40t54 -16.5q103 0 135 156l78 -11q-25 -112 -72 -166.5t-141 -54.5q-38 0 -73 16.5t-61.5 39.5t-51.5 46t-52.5 39.5t-54.5 16.5 q-99 0 -131 -154z" />
<glyph unicode="&#xf6;" d="M115 406q0 98 20 194t61 182t98 152t135.5 104.5t168.5 38.5q106 0 181 -58t110 -152.5t35 -215.5q0 -123 -33 -241.5t-92.5 -215t-152.5 -155.5t-204 -59q-107 0 -182 58t-110 152.5t-35 215.5zM197 406q0 -164 66.5 -256.5t182.5 -92.5t208 86t140 221t48 287 q0 163 -67 255.5t-183 92.5t-208 -86t-139.5 -220.5t-47.5 -286.5zM424 1339q0 24 15 40t38 16t39 -16.5t16 -39.5t-16 -38t-39 -15t-38 15t-15 38zM711 1339q0 24 15 40t38 16t39 -16.5t16 -39.5t-16 -38t-39 -15t-38 15t-15 38z" />
<glyph unicode="&#xf7;" horiz-adv-x="757" d="M168 680h573l17 78h-574zM369 492q0 20 12.5 33.5t32.5 13.5q19 0 32 -13.5t13 -33.5q0 -19 -13 -31t-32 -12q-20 0 -32.5 12t-12.5 31zM459 928q0 20 12.5 33.5t32.5 13.5q19 0 32 -13.5t13 -33.5q0 -19 -13 -31t-32 -12q-20 0 -32.5 12t-12.5 31z" />
<glyph unicode="&#xf8;" d="M115 406q0 98 20 194t61 182t98 152t135.5 104.5t168.5 38.5q106 0 181 -58t110 -152.5t35 -215.5q0 -123 -33 -241.5t-92.5 -215t-152.5 -155.5t-204 -59q-107 0 -182 58t-110 152.5t-35 215.5zM197 406q0 -214 108 -302l357 885q-33 10 -70 10q-116 0 -208 -86 t-139.5 -220.5t-47.5 -286.5zM369 70q41 -13 77 -13q116 0 208 86t140 221t48 287q0 215 -115 303z" />
<glyph unicode="&#xf9;" horiz-adv-x="1071" d="M168 268q0 60 16 135l140 654h84l-144 -668q-12 -59 -12 -113q0 -99 48.5 -159t154.5 -60q69 0 126 35t95 95.5t63 126t41 141.5l127 602h82l-162 -774q-14 -72 -14 -103q0 -59 31 -83.5t102 -24.5q25 0 39 2l-16 -80h-29q-64 0 -106.5 15t-62.5 44t-27 60t-7 75h-4 q-51 -95 -118.5 -151.5t-172.5 -56.5q-139 0 -206.5 77.5t-67.5 210.5zM451 1362l36 80l426 -199l-28 -63z" />
<glyph unicode="&#xfa;" horiz-adv-x="1071" d="M168 268q0 60 16 135l140 654h84l-144 -668q-12 -59 -12 -113q0 -99 48.5 -159t154.5 -60q69 0 126 35t95 95.5t63 126t41 141.5l127 602h82l-162 -774q-14 -72 -14 -103q0 -59 31 -83.5t102 -24.5q25 0 39 2l-16 -80h-29q-64 0 -106.5 15t-62.5 44t-27 60t-7 75h-4 q-51 -95 -118.5 -151.5t-172.5 -56.5q-139 0 -206.5 77.5t-67.5 210.5zM442 1243l426 199l37 -80l-434 -182z" />
<glyph unicode="&#xfb;" horiz-adv-x="1071" d="M168 268q0 60 16 135l140 654h84l-144 -668q-12 -59 -12 -113q0 -99 48.5 -159t154.5 -60q69 0 126 35t95 95.5t63 126t41 141.5l127 602h82l-162 -774q-14 -72 -14 -103q0 -59 31 -83.5t102 -24.5q25 0 39 2l-16 -80h-29q-64 0 -106.5 15t-62.5 44t-27 60t-7 75h-4 q-51 -95 -118.5 -151.5t-172.5 -56.5q-139 0 -206.5 77.5t-67.5 210.5zM420 1262l301 245h4l199 -252l-62 -49l-55 72q-21 26 -44.5 59.5t-36.5 53.5l-13 20h-4q-72 -70 -125 -115l-117 -96z" />
<glyph unicode="&#xfc;" horiz-adv-x="1071" d="M168 268q0 60 16 135l140 654h84l-144 -668q-12 -59 -12 -113q0 -99 48.5 -159t154.5 -60q69 0 126 35t95 95.5t63 126t41 141.5l127 602h82l-162 -774q-14 -72 -14 -103q0 -59 31 -83.5t102 -24.5q25 0 39 2l-16 -80h-29q-64 0 -106.5 15t-62.5 44t-27 60t-7 75h-4 q-51 -95 -118.5 -151.5t-172.5 -56.5q-139 0 -206.5 77.5t-67.5 210.5zM483 1294q0 23 15.5 39.5t38.5 16.5t39 -16.5t16 -39.5t-16 -38t-39 -15t-38.5 15t-15.5 38zM770 1294q0 24 15 40t38 16t39.5 -16.5t16.5 -39.5t-16 -38t-40 -15q-23 0 -38 15t-15 38z" />
<glyph unicode="&#xfd;" horiz-adv-x="843" d="M-211 -391l39 74q68 -35 152 -35q83 0 140.5 54.5t108.5 158.5l74 147l-135 1049h84l88 -715l22 -233h5q51 121 102 225l362 723h93l-617 -1219q-68 -132 -147.5 -200t-184.5 -68q-103 0 -186 39zM340 1243l426 199l37 -80l-434 -182z" />
<glyph unicode="&#xfe;" horiz-adv-x="1026" d="M-18 -410l411 1905h82l-94 -434l-39 -162h4q114 178 297 178q270 0 270 -366q0 -138 -35 -269t-96 -234t-152 -165.5t-196 -62.5q-94 0 -159 57.5t-80 157.5h-5q-12 -76 -32 -170l-92 -435h-84zM237 238.5q17 -77.5 71 -129.5t132 -52q84 0 158.5 58t124.5 150.5t79 208 t29 231.5q0 294 -204 294q-123 0 -210.5 -96.5t-119.5 -236.5l-59 -269q-18 -81 -1 -158.5z" />
<glyph unicode="&#xff;" horiz-adv-x="843" d="M-211 -391l39 74q68 -35 152 -35q83 0 140.5 54.5t108.5 158.5l74 147l-135 1049h84l88 -715l22 -233h5q51 121 102 225l362 723h93l-617 -1219q-68 -132 -147.5 -200t-184.5 -68q-103 0 -186 39zM371 1294q0 24 15 40t38 16t39 -16.5t16 -39.5t-16 -38t-39 -15t-38 15 t-15 38zM657 1294q0 23 15.5 39.5t38.5 16.5t39 -16.5t16 -39.5t-16 -38t-39 -15t-38.5 15t-15.5 38z" />
<glyph unicode="&#x152;" horiz-adv-x="1378" d="M101.5 448q2.5 73 11.5 137.5t24 131.5q28 132 62.5 237.5t83 197t107.5 152.5t136.5 95.5t169.5 34.5h873l-17 -76h-643l-135 -637h559l-16 -78h-559l-119 -565h641l-16 -78h-838q-77 0 -136.5 25t-95.5 66t-58 100t-29.5 121.5t-5 135.5zM182.5 378.5q1.5 -51.5 10 -93 t26 -81.5t44.5 -67.5t68.5 -44t94.5 -16.5h131l270 1282h-133q-92 0 -167.5 -44.5t-133 -130.5t-100 -201t-74.5 -265q-8 -36 -14 -68t-12.5 -82.5t-9 -93.5t-1 -94.5z" />
<glyph unicode="&#x153;" horiz-adv-x="1685" d="M115 406q0 98 20 194t61 182t98 152t135.5 104.5t168.5 38.5q80 0 138.5 -32.5t92 -89t50 -122.5t18.5 -145h4q25 82 60 149t84.5 122.5t117 86.5t148.5 31t144.5 -33t103 -92t59.5 -135.5t20 -167.5q0 -77 -12 -153h-711q-4 -27 -4 -78q0 -176 76 -268.5t201 -92.5 q155 0 291 154l59 -55q-162 -176 -358 -176q-67 0 -121 22.5t-89 60t-59.5 89.5t-36.5 106.5t-16 116.5h-4q-25 -84 -60.5 -152.5t-85 -124.5t-117.5 -87t-149 -31q-107 0 -182 58t-110 152.5t-35 215.5zM197 406q0 -164 66.5 -256.5t182.5 -92.5t208 86t140 221t48 287 q0 163 -67 255.5t-183 92.5t-208 -86t-139.5 -220.5t-47.5 -286.5zM928 573h624q4 50 4 80q0 162 -67 254t-184 92q-139 0 -240 -123t-137 -303z" />
<glyph unicode="&#x178;" horiz-adv-x="862" d="M217 1434h82l127 -686l35 -211h4q59 108 110 194l424 703h97l-611 -998l-92 -436h-84l92 438zM489 1667q0 23 15.5 39t38.5 16t39 -16t16 -39t-16 -38t-39 -15t-38.5 15t-15.5 38zM776 1667q0 23 15 39t38 16t39.5 -16t16.5 -39t-16 -38t-40 -15q-23 0 -38 15t-15 38z " />
<glyph unicode="&#x2c6;" horiz-adv-x="747" d="M387 1626l301 246h4l199 -252l-62 -49l-55 71q-21 26 -44.5 59.5t-36.5 54.5l-13 20h-4q-72 -70 -125 -115l-117 -96z" />
<glyph unicode="&#x2dc;" horiz-adv-x="784" d="M266 1595q23 109 73 165.5t138 56.5q38 0 73 -16.5t61 -40t51 -47t52 -40t54 -16.5q103 0 135 155l78 -10q-25 -112 -72 -166.5t-141 -54.5q-38 0 -73 16.5t-61.5 39.5t-51.5 46t-52.5 39.5t-54.5 16.5q-99 0 -131 -154z" />
<glyph unicode="&#x2000;" horiz-adv-x="936" />
<glyph unicode="&#x2001;" horiz-adv-x="1872" />
<glyph unicode="&#x2002;" horiz-adv-x="936" />
<glyph unicode="&#x2003;" horiz-adv-x="1872" />
<glyph unicode="&#x2004;" horiz-adv-x="624" />
<glyph unicode="&#x2005;" horiz-adv-x="468" />
<glyph unicode="&#x2006;" horiz-adv-x="312" />
<glyph unicode="&#x2007;" horiz-adv-x="312" />
<glyph unicode="&#x2008;" horiz-adv-x="234" />
<glyph unicode="&#x2009;" horiz-adv-x="374" />
<glyph unicode="&#x200a;" horiz-adv-x="104" />
<glyph unicode="&#x2010;" horiz-adv-x="589" d="M147 680l17 78h405l-16 -78h-406z" />
<glyph unicode="&#x2011;" horiz-adv-x="589" d="M147 680l17 78h405l-16 -78h-406z" />
<glyph unicode="&#x2012;" horiz-adv-x="589" d="M147 680l17 78h405l-16 -78h-406z" />
<glyph unicode="&#x2013;" horiz-adv-x="866" d="M203 680l16 78h574l-17 -78h-573z" />
<glyph unicode="&#x2014;" horiz-adv-x="1277" d="M219 680l17 78h983l-17 -78h-983z" />
<glyph unicode="&#x2018;" horiz-adv-x="327" d="M297 1268q0 45 26 95t68 91l33 -37q-37 -33 -59 -63t-25 -44l-4 -14l2 -2q9 6 20 6q18 0 29.5 -13t11.5 -34q0 -23 -14.5 -36t-38.5 -13q-49 0 -49 64z" />
<glyph unicode="&#x2019;" horiz-adv-x="327" d="M297 1245q37 33 59 63t26 44l3 14l-2 2q-9 -6 -21 -6q-18 0 -29 13t-11 34q0 23 14.5 36t38.5 13q49 0 49 -63q0 -45 -26 -95.5t-68 -91.5z" />
<glyph unicode="&#x201a;" horiz-adv-x="327" d="M47 -125q37 33 59 63t26 44l3 14l-2 2q-9 -6 -20 -6q-18 0 -29.5 13t-11.5 34q0 23 14.5 36t38.5 13q49 0 49 -63q0 -45 -26 -95.5t-68 -91.5z" />
<glyph unicode="&#x201c;" horiz-adv-x="532" d="M297 1272q0 45 26 95t68 91l33 -37q-37 -33 -59 -63t-25 -44l-4 -14l2 -2q10 7 20 7q18 0 29.5 -13.5t11.5 -34.5q0 -23 -14.5 -36t-38.5 -13q-49 0 -49 64zM502 1272q0 45 26 95t68 91l33 -37q-37 -33 -59 -63t-26 -44l-3 -14l2 -2q11 7 20 7q18 0 29.5 -13.5 t11.5 -34.5q0 -23 -14.5 -36t-38.5 -13q-49 0 -49 64z" />
<glyph unicode="&#x201d;" horiz-adv-x="532" d="M297 1241q37 33 59 63t26 44l3 14l-2 2q-9 -6 -21 -6q-18 0 -29 13t-11 34q0 23 14.5 36t38.5 13q49 0 49 -63q0 -45 -26 -95.5t-68 -91.5zM502 1241q37 33 59 63t25 44l4 14l-2 2q-9 -6 -21 -6q-18 0 -29.5 13t-11.5 34q0 23 15 36t39 13q49 0 49 -63q0 -45 -26 -95.5 t-68 -91.5z" />
<glyph unicode="&#x201e;" horiz-adv-x="532" d="M47 -125q37 33 59 63t26 44l3 14l-2 2q-9 -6 -20 -6q-18 0 -29.5 13t-11.5 34q0 23 14.5 36t38.5 13q49 0 49 -63q0 -45 -26 -95.5t-68 -91.5zM252 -125q37 33 59 63t25 44l4 14l-2 2q-9 -6 -21 -6q-18 0 -29.5 13t-11.5 34q0 23 15 36t39 13q49 0 49 -63 q0 -45 -26 -95.5t-68 -91.5z" />
<glyph unicode="&#x2022;" horiz-adv-x="450" d="M219 539q0 40 26.5 68t65.5 28q40 0 67.5 -28t27.5 -68q0 -38 -27.5 -64t-67.5 -26t-66 26t-26 64z" />
<glyph unicode="&#x2026;" horiz-adv-x="772" d="M55 33q0 23 15.5 39t38.5 16t39 -16t16 -39t-16 -38t-39 -15t-38.5 15t-15.5 38zM274 33q0 23 15.5 39t38.5 16t39 -16t16 -39t-16 -38t-39 -15t-38.5 15t-15.5 38zM494 33q0 23 15 39t38 16t39 -16t16 -39t-16 -38t-39 -15t-38 15t-15 38z" />
<glyph unicode="&#x202f;" horiz-adv-x="374" />
<glyph unicode="&#x2039;" horiz-adv-x="454" d="M68 684l14 84l500 317l43 -63l-342 -215l-146 -86v-4q70 -54 129 -107l217 -190l-57 -53z" />
<glyph unicode="&#x203a;" horiz-adv-x="458" d="M-29 422l342 215l146 86v4q-70 54 -129 107l-217 190l57 53l358 -317l-14 -84l-500 -318z" />
<glyph unicode="&#x205f;" horiz-adv-x="468" />
<glyph unicode="&#x20ac;" horiz-adv-x="995" d="M61 600l15 70h102l12 57q3 20 9 37h-103l17 70h102q37 142 84.5 251.5t113 194.5t152 129.5t191.5 44.5q301 0 305 -385l-78 -2q-1 65 -12.5 117.5t-36.5 98t-70.5 70.5t-109.5 25q-315 0 -457 -544h324l-17 -70h-323q-6 -17 -9 -37l-12 -57h324l-15 -70h-319 q-9 -60 -12 -116.5t0 -121t18.5 -117t42.5 -97t74.5 -69t111.5 -24.5q216 0 342 285l74 -25q-70 -163 -169.5 -249t-246.5 -86q-78 0 -138 26t-96.5 72.5t-59.5 105.5t-30 131t-5 141t12 144h-107z" />
<glyph unicode="&#x2122;" horiz-adv-x="1202" d="M254 1356l16 78h398l-17 -78h-157l-121 -568h-82l121 568h-158zM662 788l137 646h80l55 -136l59 -159h4q60 75 119 143l133 152h80l-137 -646h-84l76 347q8 38 18.5 81t17.5 67l7 24h-4q-61 -84 -127 -160l-119 -139h-4l-58 139l-63 160h-4q-13 -86 -31 -172l-74 -347 h-81z" />
<glyph unicode="&#x25fc;" horiz-adv-x="1054" d="M0 0v1055h1055v-1055h-1055z" />
<glyph unicode="&#xfb01;" horiz-adv-x="1087" d="M119 0l207 979h-176l16 78h176l39 186q60 273 276 273q103 0 181 -66l-54 -64q-49 52 -127 52q-73 0 -122.5 -50t-71.5 -145l-39 -186h233l-16 -78h-233l-207 -979h-82zM711 176q0 41 14 113l113 526q30 141 30 227v15h84q0 -89 -34 -252l-111 -524q-14 -72 -14 -103 q0 -59 31 -83.5t102 -24.5q25 0 39 2l-17 -80q-5 0 -14.5 -1t-13.5 -1q-112 0 -160.5 48t-48.5 138zM926 1323q0 23 15 39t38 16t39 -16t16 -39t-16 -38t-39 -15t-38 15t-15 38z" />
<glyph unicode="&#xfb02;" horiz-adv-x="1132" d="M119 0l207 979h-176l16 78h176l39 186q60 273 276 273q103 0 181 -66l-54 -64q-49 52 -127 52q-73 0 -122.5 -50t-71.5 -145l-39 -186h233l-16 -78h-233l-207 -979h-82zM727 176q0 41 14 113l256 1206h84l-258 -1214q-14 -72 -14 -103q0 -59 31 -83.5t102 -24.5 q25 0 39 2l-16 -80q-13 -2 -29 -2q-112 0 -160.5 48t-48.5 138z" />
</font>
</defs>
</svg>
