<?xml version="1.0" standalone="no"?>
<!DOCTYPE svg PUBLIC "-//W3C//DTD SVG 1.1//EN" "http://www.w3.org/Graphics/SVG/1.1/DTD/svg11.dtd" >
<svg xmlns="http://www.w3.org/2000/svg">
<metadata></metadata>
<defs>
<font id="mission_gothicregular" horiz-adv-x="1030" >
<font-face units-per-em="2048" ascent="1536" descent="-512" />
<missing-glyph horiz-adv-x="532" />
<glyph horiz-adv-x="0" />
<glyph horiz-adv-x="682" />
<glyph horiz-adv-x="1542" />
<glyph horiz-adv-x="1542" />
<glyph unicode="&#xd;" horiz-adv-x="532" />
<glyph unicode=" "  horiz-adv-x="532" />
<glyph unicode="&#x09;" horiz-adv-x="532" />
<glyph unicode="&#xa0;" horiz-adv-x="532" />
<glyph unicode="!" horiz-adv-x="460" d="M115 96q0 47 34.5 81t81.5 34t82 -34t35 -81q0 -49 -34.5 -82.5t-82.5 -33.5t-82 33.5t-34 82.5zM135 377v1057h189v-1057h-189z" />
<glyph unicode="&#x22;" horiz-adv-x="671" d="M106 1008l35 426h170l-57 -426h-148zM356 1008l35 426h170l-57 -426h-148z" />
<glyph unicode="#" horiz-adv-x="1286" d="M45 528l12 148h273l51 246h-258l14 149h275l61 291h178l-59 -291h203l63 291h178l-59 -291h268l-16 -149h-287l-49 -246h272l-14 -148h-291l-67 -307h-179l68 307h-207l-65 -307h-179l66 307h-252zM508 676h207l49 246h-205z" />
<glyph unicode="$" horiz-adv-x="1013" d="M55 252l164 106q36 -92 115 -145t190 -53q96 0 158.5 58.5t62.5 152.5q0 54 -27.5 100t-72.5 77.5t-102.5 64t-117 60.5t-117 67.5t-102.5 83.5t-72.5 109t-27.5 144q0 169 112.5 272t301.5 103l25 213h127l-27 -235q183 -57 266 -265l-166 -98q-30 93 -91.5 149 t-157.5 56q-90 0 -145.5 -52.5t-55.5 -136.5q0 -50 22 -91t59 -70.5t85 -56t101 -51.5t105.5 -52t100.5 -63t85 -79t59 -104.5t22 -136.5q0 -184 -119.5 -290.5t-327.5 -106.5l-18 -181h-127l20 197q-106 26 -185.5 92.5t-121.5 161.5z" />
<glyph unicode="%" horiz-adv-x="1282" d="M94 1100q0 76 13.5 138t42 111.5t79 77t119.5 27.5q70 0 121 -27.5t80 -77t42 -111t13 -138.5q0 -75 -13.5 -136t-42 -111t-79.5 -77.5t-121 -27.5q-69 0 -119.5 27.5t-79 77.5t-42 111t-13.5 136zM141 0l832 1434h170l-834 -1434h-168zM244 1100q0 -209 104 -209 q107 0 107 209q0 211 -107 211q-104 0 -104 -211zM678 332q0 76 13.5 137.5t42 111.5t79.5 77.5t121 27.5t121 -27.5t79.5 -77.5t42 -111.5t13.5 -137.5t-13 -137t-42 -110.5t-80 -77t-121 -27.5t-121 27.5t-80 77t-42 110.5t-13 137zM827 332q0 -211 107 -211 q106 0 106 211t-106 211q-107 0 -107 -211z" />
<glyph unicode="&#x26;" horiz-adv-x="1198" d="M78 430q0 147 80 261.5t213 150.5v4q-79 47 -124.5 118.5t-45.5 157.5q0 63 22.5 122t64.5 106t109.5 75.5t151.5 28.5q169 0 287 -121l-129 -151q-53 90 -156 90q-74 0 -117 -46.5t-43 -115.5q0 -78 56.5 -136t173.5 -61l245 -446h4q33 129 33 324q0 77 -2 114h180 q0 -369 -100 -612q24 -48 63 -80t74 -37l-26 -180q-62 1 -118 46.5t-91 115.5h-4q-132 -187 -359 -187q-104 0 -189.5 39t-139.5 104t-83.5 146.5t-29.5 169.5zM272 440q0 -120 70.5 -203t192.5 -83q162 0 249 153l-258 449q-80 -8 -139.5 -57t-87 -116.5t-27.5 -142.5z" />
<glyph unicode="'" horiz-adv-x="342" d="M74 1008l35 426h170l-58 -426h-147z" />
<glyph unicode="(" horiz-adv-x="483" d="M84 717q0 318 59.5 546t147.5 363l139 -84q-168 -260 -168 -825q0 -566 168 -826l-139 -84q-88 135 -147.5 364t-59.5 546z" />
<glyph unicode=")" horiz-adv-x="483" d="M53 -109q168 260 168 826q0 565 -168 825l140 84q88 -135 147 -363t59 -546q0 -317 -59.5 -546.5t-146.5 -363.5z" />
<glyph unicode="*" horiz-adv-x="817" d="M33 1098l53 166q133 -49 287 -156l4 2q-54 197 -60 324h175q-4 -114 -60 -326q2 -2 4 -2q171 115 289 158q42 -129 53 -166q-50 -14 -108 -22.5t-132.5 -15t-80.5 -7.5l-2 -4q150 -116 237 -224l-141 -100q-62 95 -141 303h-4q-9 -18 -33.5 -77t-54 -120.5t-58.5 -105.5 q-129 90 -143 100q76 97 241 226l-2 4q-10 1 -84 7t-132 14t-107 22z" />
<glyph unicode="+" horiz-adv-x="745" d="M43 639v152h248v258h164v-258h247v-152h-247v-258h-164v258h-248z" />
<glyph unicode="," horiz-adv-x="440" d="M106 90q0 40 29.5 69t71.5 29q117 0 117 -157q0 -82 -56 -151.5t-143 -76.5l-19 64q54 14 84 44t37 85l-4 2q-11 -8 -28 -8q-35 0 -62 29t-27 71z" />
<glyph unicode="-" horiz-adv-x="604" d="M59 596v168h486v-168h-486z" />
<glyph unicode="." horiz-adv-x="436" d="M102 96q0 47 35 81t82 34t82 -34t35 -81q0 -49 -34.5 -82.5t-82.5 -33.5t-82.5 33.5t-34.5 82.5z" />
<glyph unicode="/" horiz-adv-x="655" d="M72 -123l321 1679h189l-326 -1679h-184z" />
<glyph unicode="0" horiz-adv-x="1058" d="M94 717q0 122 12 225t42.5 200t78.5 164t125 107.5t176 40.5t176 -40.5t125 -107.5t79 -164t43 -200t12 -225t-12 -225t-43 -200t-79 -164t-125 -107.5t-176 -40.5t-176 40.5t-125 107.5t-78.5 164t-42.5 200t-12 225zM283 717q0 -122 11.5 -217t37.5 -174.5t75.5 -122.5 t120.5 -43t121 43t76.5 122.5t37.5 174t11 217.5t-11 217.5t-37.5 174t-76.5 122.5t-121 43t-120.5 -43t-75.5 -122.5t-37.5 -174.5t-11.5 -217z" />
<glyph unicode="1" horiz-adv-x="559" d="M80 1253v181h309v-1434h-188v1253h-121z" />
<glyph unicode="2" horiz-adv-x="991" d="M59 0v2l541 778q102 145 102 275q0 94 -59 155.5t-154 61.5q-92 0 -156 -68t-73 -182l-176 76q34 156 142 256t268 100q189 0 295 -115t106 -284q0 -178 -131 -369l-219 -315q-36 -53 -72.5 -99t-54.5 -66l-19 -20v-4h478v-182h-818z" />
<glyph unicode="3" horiz-adv-x="995" d="M66 289l167 106q26 -113 92.5 -174t163.5 -61q81 0 137.5 41.5t80.5 102t24 132.5q0 113 -71.5 189.5t-196.5 76.5q-47 0 -74 -4l-63 166l206 250q23 29 48.5 57.5t45.5 49.5t23 24v4h-524v185h760v-177l-350 -403q190 -35 286.5 -137.5t96.5 -286.5q0 -88 -27.5 -167.5 t-80.5 -143t-138.5 -101.5t-192.5 -38q-158 0 -262.5 85t-150.5 224z" />
<glyph unicode="4" horiz-adv-x="978" d="M12 307l533 1127h190v-945h168v-182h-168v-307h-190v307h-533zM279 477h278v602h-4q-2 -4 -23 -54.5t-32 -74.5l-129 -282q-48 -104 -90 -187v-4z" />
<glyph unicode="5" horiz-adv-x="1052" d="M113 289l168 98q27 -109 87.5 -168t153.5 -59q109 0 168.5 82.5t59.5 195.5q0 111 -60.5 194t-171.5 83q-115 0 -201 -86l-157 82l67 723h615v-189h-455l-39 -393l4 -2q88 43 183 43q84 0 153.5 -25t116.5 -68t79.5 -101t47 -122t14.5 -133q0 -89 -28 -171t-80 -148 t-134 -105.5t-182 -39.5q-157 0 -260 84.5t-149 224.5z" />
<glyph unicode="6" horiz-adv-x="1058" d="M102 725q0 118 16 223.5t50.5 199t86 161t127.5 106.5t169 39q262 0 373 -262l-164 -100q-63 180 -207 180q-134 0 -201 -149t-69 -412l4 -2q41 79 117 131.5t171 52.5q94 0 170 -36t123 -96t72 -135.5t25 -158.5q0 -90 -28.5 -176.5t-80.5 -156t-133 -112t-178 -42.5 q-84 0 -152 27.5t-116 78.5t-82.5 118t-54.5 152.5t-29 175.5t-9 193zM315 446q0 -122 62.5 -204t165.5 -82q100 0 163.5 93t63.5 210q0 110 -58 186t-163 76q-110 0 -172 -78.5t-62 -200.5z" />
<glyph unicode="7" horiz-adv-x="821" d="M39 1253v181h809l-457 -1434h-198l397 1253h-551z" />
<glyph unicode="8" horiz-adv-x="1040" d="M82 416q0 128 63 229t177 148v4q-77 44 -122.5 124t-45.5 171q0 149 98.5 255.5t269.5 106.5q114 0 199.5 -52.5t126.5 -133.5t41 -176q0 -92 -47 -172.5t-123 -118.5v-4q112 -47 177 -150t65 -231q0 -83 -28.5 -160t-81.5 -139t-138.5 -99.5t-190.5 -37.5 q-106 0 -191.5 37.5t-139 99.5t-81.5 139t-28 160zM270 428q0 -112 66.5 -193t185.5 -81t185.5 81t66.5 193q0 107 -67.5 190.5t-184.5 83.5q-118 0 -185 -83t-67 -191zM338 1079q0 -80 48.5 -140t135.5 -60q86 0 134.5 59.5t48.5 140.5q0 86 -48 142.5t-135 56.5 q-88 0 -136 -56.5t-48 -142.5z" />
<glyph unicode="9" horiz-adv-x="1067" d="M94 975q0 90 27.5 174.5t79.5 153t135.5 110t185.5 41.5q100 0 178 -40.5t127 -108t81 -165.5t44.5 -203.5t12.5 -229.5q0 -118 -15.5 -223.5t-50 -198.5t-86 -160t-127 -106t-168.5 -39q-265 0 -375 260l164 100q63 -180 207 -180q136 0 197.5 142t66.5 409 q-106 -172 -284 -172q-79 0 -145 24t-112.5 65.5t-79 97.5t-48 119t-15.5 130zM289 981q0 -113 60 -193.5t169 -80.5q111 0 172.5 77.5t61.5 198.5q0 125 -62.5 207t-165.5 82q-109 0 -172 -87.5t-63 -203.5z" />
<glyph unicode=":" horiz-adv-x="436" d="M102 96q0 47 35 81t82 34t82 -34t35 -81q0 -49 -34.5 -82.5t-82.5 -33.5t-82.5 33.5t-34.5 82.5zM102 766q0 47 35 81t82 34t82 -34t35 -81q0 -49 -34.5 -83t-82.5 -34t-82.5 34t-34.5 83z" />
<glyph unicode=";" horiz-adv-x="436" d="M102 766q0 47 35 81t82 34t82 -34t35 -81q0 -49 -34.5 -83t-82.5 -34t-82.5 34t-34.5 83zM106 90q0 40 29.5 69t71.5 29q117 0 117 -157q0 -82 -56 -151.5t-143 -76.5l-19 64q54 14 84 44t37 85l-4 2q-11 -8 -28 -8q-35 0 -62 29t-27 71z" />
<glyph unicode="&#x3c;" horiz-adv-x="665" d="M47 674v104l445 355l98 -136l-242 -192q-79 -63 -104 -76v-4q47 -31 104 -78l242 -192l-98 -136z" />
<glyph unicode="=" horiz-adv-x="663" d="M59 479v154h545v-154h-545zM59 799v153h545v-153h-545z" />
<glyph unicode="&#x3e;" horiz-adv-x="665" d="M68 457l241 192q77 62 105 76v4q-48 31 -105 78l-241 192l98 136l444 -355v-104l-444 -354z" />
<glyph unicode="?" horiz-adv-x="876" d="M37 1108q33 154 139.5 250t261.5 96q185 0 289 -102.5t104 -276.5q0 -61 -18.5 -116.5t-48 -98t-65 -81.5t-71.5 -74t-65.5 -68t-48 -70.5t-18.5 -74.5q0 -53 30 -103l-157 -90q-70 78 -70 190q0 62 25 121t62 103t81 91.5t81 87t62 88.5t25 97q0 90 -51 142.5t-144 52.5 q-94 0 -157 -71t-72 -187zM319 94q0 47 34 82t81 35q49 0 83 -34.5t34 -82.5q0 -47 -34 -80.5t-83 -33.5q-47 0 -81 33.5t-34 80.5z" />
<glyph unicode="@" horiz-adv-x="1589" d="M94 717q0 177 52.5 329t144.5 258.5t223.5 167t284.5 60.5q141 0 258.5 -49t196.5 -128.5t134 -184t80 -213t25 -216.5q0 -183 -73.5 -288t-215.5 -105q-83 0 -142 36t-97 122q-32 -77 -88 -117.5t-127 -40.5q-121 0 -196 93t-75 276q0 160 82 264t221 104q69 0 118 -33 t73 -77h4l20 86h131q-18 -69 -18 -148v-219q0 -86 29 -132t80 -46q112 0 112 213q0 180 -61.5 324.5t-184 231.5t-286.5 87q-110 0 -207.5 -44.5t-171.5 -126.5t-117 -207t-43 -277q0 -148 43.5 -273t117 -208t171.5 -129t207 -46q183 0 321 119l68 -153 q-162 -125 -389 -125q-153 0 -284.5 60.5t-223.5 167t-144.5 258.5t-52.5 329zM657 717q0 -104 35.5 -155.5t89.5 -51.5q60 0 106 62.5t46 175.5q0 80 -39.5 128t-95.5 48q-63 0 -102.5 -53.5t-39.5 -153.5z" />
<glyph unicode="A" d="M41 0l373 1434h202l373 -1434h-198l-74 293h-406l-71 -293h-199zM350 463h330l-133 541l-29 141h-4q-17 -86 -31 -141z" />
<glyph unicode="B" horiz-adv-x="1122" d="M168 0v1434h350q438 0 438 -377q0 -103 -45.5 -179.5t-134.5 -117.5v-4q116 -34 179 -120.5t63 -211.5q0 -93 -27 -169.5t-82 -134t-144.5 -89t-207.5 -31.5h-389zM356 180h211q139 0 204 65t65 179q0 238 -269 238h-211v-482zM356 829h144q139 0 203.5 59.5t64.5 164.5 q0 106 -63 153t-207 47h-142v-424z" />
<glyph unicode="C" horiz-adv-x="1046" d="M90 717q0 122 15 227.5t50.5 201t89.5 162.5t137 106.5t189 39.5q308 0 422 -326l-166 -92q-71 238 -256 238q-78 0 -135.5 -42.5t-91 -119.5t-49.5 -175.5t-16 -219.5t16 -219.5t49.5 -175.5t91 -119.5t135.5 -42.5q179 0 250 219l164 -98q-117 -301 -414 -301 q-106 0 -189 39.5t-137 106.5t-89.5 162.5t-50.5 201t-15 227.5z" />
<glyph unicode="D" horiz-adv-x="1122" d="M168 0v1434h330q113 0 202.5 -37t149 -101.5t99 -156.5t56.5 -196t17 -226q0 -121 -17 -225.5t-56 -196.5t-97.5 -156.5t-146.5 -101.5t-199 -37h-338zM356 180h150q110 0 184.5 69.5t107.5 187.5t33 280q0 163 -33 280t-109 186.5t-191 69.5h-142v-1073z" />
<glyph unicode="E" horiz-adv-x="1038" d="M168 0v1434h725v-183h-537v-493h457v-180h-457v-398h537v-180h-725z" />
<glyph unicode="F" horiz-adv-x="972" d="M168 0v1434h725v-183h-537v-553h455v-180h-455v-518h-188z" />
<glyph unicode="G" horiz-adv-x="1130" d="M96 717q0 122 15 228t50.5 201t90 162t137.5 106.5t189 39.5q162 0 266.5 -88t156.5 -244l-167 -94q-67 244 -256 244q-78 0 -135.5 -42.5t-91.5 -119t-50 -174.5t-16 -219t16 -219.5t50 -175.5t91.5 -119.5t135.5 -42.5q68 0 118.5 32t80 89t43.5 126.5t16 153.5h-215 v182h415q0 -763 -458 -763q-106 0 -189 39t-137.5 106t-90 162.5t-50.5 201t-15 228.5z" />
<glyph unicode="H" horiz-adv-x="1185" d="M168 0v1434h188v-678h473v678h189v-1434h-189v575h-473v-575h-188z" />
<glyph unicode="I" horiz-adv-x="524" d="M168 0v1434h188v-1434h-188z" />
<glyph unicode="J" horiz-adv-x="749" d="M20 12l72 172q44 -24 105 -24q113 0 164 77.5t51 229.5v967h188v-957q0 -248 -104.5 -372.5t-296.5 -124.5q-108 0 -179 32z" />
<glyph unicode="K" horiz-adv-x="1058" d="M168 0v1434h188v-473q0 -28 -1 -98.5t-1 -78.5h4l424 650h222l-400 -586l408 -848h-205l-258 541q-40 79 -57 127h-9q-4 -5 -25.5 -39.5t-48.5 -75t-53 -76.5v-477h-188z" />
<glyph unicode="L" horiz-adv-x="892" d="M168 0v1434h188v-1254h492v-180h-680z" />
<glyph unicode="M" horiz-adv-x="1400" d="M168 0v1434h205l266 -502l57 -115h4q35 70 60 117l266 500h207v-1434h-182v973l2 127h-4q-27 -62 -54 -109l-288 -520h-17l-282 518l-58 113h-4q2 -72 2 -129v-973h-180z" />
<glyph unicode="N" horiz-adv-x="1204" d="M168 0v1434h176l465 -922q11 -21 24.5 -52t20.5 -52l8 -21h4q0 1 -1 26t-2 58t-1 55v908h174v-1434h-176l-522 1055h-4q6 -74 6 -142v-913h-172z" />
<glyph unicode="O" horiz-adv-x="1132" d="M90 717q0 126 15.5 233t51 201.5t89.5 160.5t135.5 104t183.5 38q103 0 184.5 -38t135.5 -104t90 -160.5t51.5 -201.5t15.5 -233t-15.5 -233t-51.5 -201.5t-90 -160.5t-135.5 -104t-184.5 -38q-102 0 -183.5 38t-135.5 104t-89.5 160.5t-51 201.5t-15.5 233zM279 717 q0 -172 29 -294t94 -192.5t163 -70.5q147 0 218 147t71 410t-70.5 410t-218.5 147q-99 0 -164 -70.5t-93.5 -192t-28.5 -294.5z" />
<glyph unicode="P" horiz-adv-x="1050" d="M168 0v1434h348q118 0 211.5 -41.5t151 -113t87 -163t29.5 -196.5t-28.5 -196.5t-85.5 -165.5t-152 -116.5t-217 -42.5h-156v-399h-188zM356 582h160q144 0 217.5 92t73.5 244q0 154 -73.5 244.5t-217.5 90.5h-160v-671z" />
<glyph unicode="Q" horiz-adv-x="1134" d="M90 717q0 157 25.5 286t80 232.5t148.5 161t221 57.5q103 0 184.5 -38.5t135.5 -104.5t90 -160.5t51.5 -201.5t15.5 -232q0 -236 -61 -414t-186 -262q46 -80 125 -154l-86 -90q-92 84 -148 199q-74 -16 -121 -16q-102 0 -183.5 38t-135.5 104t-89.5 160.5t-51 201.5 t-15.5 233zM279 717q0 -173 29 -295t94 -192t163 -70q36 0 60 8q-46 126 -109 215l94 70q59 -76 115 -230q1 0 3 -1t3 -1q123 132 123 496q0 263 -70.5 409t-218.5 146q-147 0 -216.5 -146t-69.5 -409z" />
<glyph unicode="R" horiz-adv-x="1120" d="M168 0v1434h367q93 0 170 -25t130 -69.5t89.5 -106t53.5 -133t17 -152.5q0 -141 -56 -252.5t-167 -171.5l229 -524h-202l-203 465q-27 -6 -84 -6h-156v-459h-188zM356 639h160q143 0 217 82.5t74 224.5q0 144 -74 225.5t-217 81.5h-160v-614z" />
<glyph unicode="S" horiz-adv-x="1013" d="M55 252l164 106q35 -91 112 -144.5t173 -53.5q114 0 177.5 60t63.5 155q0 49 -22 90t-59 71t-85 57t-101 53t-105.5 53.5t-100.5 63.5t-85 78.5t-59 103t-22 132.5q0 161 108.5 269t283.5 108q297 0 413 -289l-170 -98q-66 205 -245 205q-93 0 -146 -53.5t-53 -135.5 q0 -50 22 -91.5t58.5 -71t84.5 -56t101 -51.5t105.5 -52t100.5 -62.5t84.5 -78.5t58.5 -104.5t22 -136.5q0 -177 -117 -288t-313 -111q-156 0 -275 74.5t-174 197.5z" />
<glyph unicode="T" horiz-adv-x="894" d="M55 1251v183h783v-183h-295v-1251h-191v1251h-297z" />
<glyph unicode="U" horiz-adv-x="1159" d="M158 479v955h188v-938q0 -336 234 -336q67 0 113.5 25.5t71.5 73t35.5 105.5t10.5 134v936h190v-957q0 -246 -112.5 -371.5t-306.5 -125.5q-195 0 -309.5 126t-114.5 373z" />
<glyph unicode="V" horiz-adv-x="991" d="M18 1434h197l244 -994l33 -149h4q14 79 30 149l246 994h199l-375 -1434h-203z" />
<glyph unicode="W" horiz-adv-x="1562" d="M14 1434h199l211 -1037q9 -42 20 -116h5q12 67 22 116l221 1037h176l222 -1037l22 -116h4q-1 1 -1 5q0 20 20 111l213 1037h198q-157 -689 -323 -1434h-205l-213 938l-21 121h-8q-8 -55 -22 -121l-209 -938h-205z" />
<glyph unicode="X" horiz-adv-x="966" d="M45 0l313 717l-313 717h201l182 -443l53 -145h4q29 92 52 143l184 445h201l-314 -717l314 -717h-201l-184 442q-10 23 -23 59t-21 61l-8 24h-4q-30 -93 -53 -148l-182 -438h-201z" />
<glyph unicode="Y" horiz-adv-x="946" d="M23 1434h208l193 -607q32 -97 47 -182h4q14 87 45 182l193 607h211l-357 -1018v-416h-190v416z" />
<glyph unicode="Z" horiz-adv-x="987" d="M49 0v4l535 1131q13 26 28.5 54.5t25.5 44.5l9 15v4q-49 -2 -86 -2h-446v183h817v-4l-533 -1115l-69 -135q0 -2 2 -2q30 2 67 2h484v-180h-834z" />
<glyph unicode="[" horiz-adv-x="559" d="M156 -281v2016h383v-152h-211v-1712h211v-152h-383z" />
<glyph unicode="\" horiz-adv-x="585" d="M37 1556h188l322 -1679h-185z" />
<glyph unicode="]" horiz-adv-x="559" d="M20 -129h211v1712h-211v152h383v-2016h-383v152z" />
<glyph unicode="^" horiz-adv-x="696" d="M29 1657l241 225h158l242 -225l-111 -123l-123 131q-19 20 -40 44t-32 38l-12 14h-4q-43 -53 -84 -96l-123 -131z" />
<glyph unicode="_" horiz-adv-x="794" d="M0 -205h795v-172h-795v172z" />
<glyph unicode="`" horiz-adv-x="516" d="M6 1696l68 147l446 -217l-57 -123z" />
<glyph unicode="a" horiz-adv-x="1005" d="M84 303q0 168 146.5 263.5t441.5 95.5v67q0 117 -48.5 179.5t-140.5 62.5q-74 0 -132 -45.5t-93 -118.5l-121 127q73 101 171 152t206 51q152 0 249 -107.5t97 -318.5v-537q0 -110 33 -174h-184q-17 22 -35 154q-93 -174 -281 -174q-147 0 -228 89.5t-81 233.5zM264 303 q0 -80 47 -124t115 -44q76 0 133 43.5t85 111.5t28 150v80h-45q-169 0 -266 -56t-97 -161z" />
<glyph unicode="b" horiz-adv-x="1040" d="M127 0q1 3 6 27.5t8 40.5t6 46.5t3 59.5v1321h188v-350l-2 -146h4q93 138 248 138q175 0 267.5 -153.5t92.5 -422.5t-98 -425t-272 -156q-83 0 -148.5 41t-105.5 106h-5q-5 -63 -26 -127h-166zM338 492q0 -70 8 -124.5t28.5 -105.5t62 -78.5t102.5 -27.5q217 0 217 405 q0 92 -10.5 162t-34 127t-67 87t-105.5 30q-96 0 -148.5 -71.5t-52.5 -178.5v-225z" />
<glyph unicode="c" horiz-adv-x="935" d="M92 555q0 270 109.5 426t304.5 156q255 0 362 -254l-155 -113q-21 90 -71 139t-128 49q-229 0 -229 -403q0 -399 229 -399q146 0 205 192l149 -110q-98 -258 -362 -258q-198 0 -306 151.5t-108 423.5z" />
<glyph unicode="d" horiz-adv-x="1044" d="M92 559q0 267 100 422.5t279 155.5q143 0 227 -123h4q-2 70 -2 129v352h189v-1323q0 -97 26 -172h-170q-24 68 -28 133h-4q-86 -153 -262 -153q-171 0 -265 156t-94 423zM283 559q0 -405 217 -405q96 0 148 73.5t52 188.5v221q0 330 -200 330q-217 0 -217 -408z" />
<glyph unicode="e" horiz-adv-x="993" d="M92 553q0 270 110.5 427t305.5 157q92 0 162.5 -31t114.5 -83.5t71.5 -129.5t38 -160.5t10.5 -185.5v-51h-624q6 -164 66 -256.5t179 -92.5q85 0 140.5 46.5t91.5 142.5l141 -105q-64 -127 -156 -189t-235 -62q-200 0 -308 151t-108 422zM281 639h442q-10 340 -209 340 q-108 0 -166 -91.5t-67 -248.5z" />
<glyph unicode="f" horiz-adv-x="661" d="M61 954v162h148v51q0 373 303 373q85 0 158 -33l-47 -166q-47 33 -101 33q-63 0 -94 -47.5t-31 -126.5v-84h205v-162h-205v-954h-188v954h-148z" />
<glyph unicode="g" horiz-adv-x="1052" d="M94 592q0 261 99.5 403t281.5 142q78 0 141.5 -39t102.5 -103h4q3 30 9 60.5t11 45.5l5 15h178q-33 -85 -33 -172v-936q0 -217 -99 -335.5t-288 -118.5q-253 0 -365 227l150 121q66 -172 211 -172q200 0 200 260v53l5 131h-5q-84 -143 -247 -143q-173 0 -267 148.5 t-94 412.5zM285 592q0 -88 10.5 -155.5t34 -120.5t65.5 -81t101 -28q101 0 153.5 78t52.5 196v181q0 60 -9 110t-29.5 96t-61.5 72.5t-98 26.5q-62 0 -105.5 -27t-68 -79t-35 -117.5t-10.5 -151.5z" />
<glyph unicode="h" horiz-adv-x="1064" d="M143 0v1495h189v-387l-2 -129h4q93 158 270 158q91 0 158 -35.5t104 -98.5t54.5 -139.5t17.5 -169.5v-694h-188v692q0 123 -48.5 199t-148.5 76t-160.5 -74.5t-60.5 -192.5v-700h-189z" />
<glyph unicode="i" horiz-adv-x="489" d="M127 1374q0 47 35 81t82 34t81.5 -34t34.5 -81q0 -49 -34 -83t-82 -34t-82.5 34t-34.5 83zM150 0v1116h188v-1116h-188z" />
<glyph unicode="j" horiz-adv-x="544" d="M-158 -412l66 172q43 -28 110 -28q97 0 140 65t43 213v1106h194v-1110q0 -221 -94 -335.5t-270 -114.5q-102 0 -189 32zM182 1374q0 47 35 81t82 34t82 -34t35 -81q0 -49 -34.5 -83t-82.5 -34t-82.5 34t-34.5 83z" />
<glyph unicode="k" horiz-adv-x="1013" d="M143 0v1495h189v-702l-2 -134h4q2 3 20 25.5t48.5 61.5t52.5 67l245 303h226l-353 -432l394 -684h-215l-303 539h-5q-28 -41 -59 -78l-53 -66v-395h-189z" />
<glyph unicode="l" horiz-adv-x="475" d="M143 0v1495h189v-1495h-189z" />
<glyph unicode="m" horiz-adv-x="1558" d="M127 1116h170q23 -67 29 -147h4q45 85 107.5 123t148.5 38q106 0 174.5 -49t95.5 -135h4q87 191 279 191q70 0 122 -20.5t84 -56t52 -88.5t27.5 -110.5t7.5 -130.5v-731h-191v727q0 236 -154 236q-91 0 -145.5 -71.5t-54.5 -199.5v-692h-191v727q0 236 -153 236 q-89 0 -145 -69.5t-56 -193.5v-700h-188v944q0 102 -27 172z" />
<glyph unicode="n" horiz-adv-x="1089" d="M127 1116h170q25 -71 31 -155h4q92 176 282 176q74 0 132 -23.5t95.5 -64t62 -98t34.5 -120.5t10 -137v-694h-188v621q0 62 -3.5 108t-15.5 93.5t-33 77t-57.5 48.5t-87.5 19q-65 0 -110 -27.5t-68.5 -78t-33 -108.5t-9.5 -132v-621h-188v944q0 102 -27 172z" />
<glyph unicode="o" horiz-adv-x="1019" d="M92 559q0 273 106 425.5t312 152.5t312 -152.5t106 -425.5q0 -274 -105.5 -426.5t-312.5 -152.5t-312.5 152.5t-105.5 426.5zM283 559q0 -117 21.5 -205t73.5 -145t132 -57t131.5 54.5t72.5 142.5t21 210q0 120 -21 208t-72.5 144t-131.5 56t-132 -56t-73.5 -144.5 t-21.5 -207.5z" />
<glyph unicode="p" horiz-adv-x="1044" d="M127 1116h170q21 -61 27 -129h4q96 150 254 150q175 0 271.5 -158t96.5 -428q0 -266 -92 -418.5t-264 -152.5q-163 0 -250 133h-4q2 -63 2 -129v-394h-188v1354q0 102 -27 172zM342 461q0 -314 201 -314q61 0 104.5 30t67.5 87t34.5 127.5t10.5 161.5q0 405 -217 405 q-57 0 -97.5 -25.5t-62.5 -70.5t-31.5 -97t-9.5 -116v-188z" />
<glyph unicode="q" horiz-adv-x="1046" d="M92 553q0 269 96.5 426.5t272.5 157.5q165 0 256 -156h4q4 35 10.5 68.5t11.5 50.5l5 16h172q-27 -70 -27 -172v-1354h-191v400l5 133h-5q-82 -143 -251 -143q-175 0 -267 152t-92 421zM283 553q0 -91 10.5 -161.5t34.5 -127.5t67.5 -87t104.5 -30q202 0 202 312v186 q0 64 -10 117t-32 98.5t-63 71.5t-97 26q-217 0 -217 -405z" />
<glyph unicode="r" horiz-adv-x="718" d="M127 1116h170q29 -82 35 -184h4q92 203 313 203q6 0 19.5 -1t19.5 -1l-31 -218q-26 13 -73 13q-111 0 -176.5 -77.5t-65.5 -203.5v-647h-188v944q0 102 -27 172z" />
<glyph unicode="s" horiz-adv-x="970" d="M86 182l139 125q40 -70 119 -113.5t166 -43.5q86 0 136 42.5t50 110.5q0 43 -24.5 77.5t-65 56.5t-92 44t-105 39.5t-105 44.5t-92 58.5t-65 81t-24.5 112.5t24 120t70 101.5t119 70.5t164 26q228 0 358 -162l-129 -119q-84 121 -242 121q-75 0 -126.5 -39.5 t-51.5 -104.5q0 -43 32 -74.5t82.5 -53t112 -41.5t123 -47.5t112 -63.5t82.5 -97t32 -141q0 -148 -100 -240.5t-271 -92.5q-138 0 -248.5 52.5t-179.5 149.5z" />
<glyph unicode="t" horiz-adv-x="724" d="M57 952v164h133v293h189v-293h237v-164h-237v-639q0 -157 131 -157q61 0 106 26l48 -166q-74 -36 -183 -36q-143 0 -217 83t-74 238v651h-133z" />
<glyph unicode="u" horiz-adv-x="1077" d="M127 420v696h188v-622q0 -63 3.5 -109t15.5 -93.5t33 -77t57.5 -48.5t87.5 -19q75 0 126.5 43t73 104t21.5 132v690h189v-946q0 -107 26 -170h-170q-24 70 -30 154h-5q-44 -85 -117 -129.5t-167 -44.5q-91 0 -157.5 35t-103.5 97.5t-54 138.5t-17 169z" />
<glyph unicode="v" horiz-adv-x="940" d="M39 1116h203l178 -655q13 -45 25 -97.5t18 -81.5l6 -30h4q24 107 51 209l172 655h203l-332 -1116h-194z" />
<glyph unicode="w" horiz-adv-x="1556" d="M39 1116h203l168 -655q11 -41 22 -93.5t16 -85.5l5 -32h4q26 119 51 211l182 655h172l187 -653q12 -42 24.5 -95t19.5 -86l7 -32h4q20 119 43 211l166 655h203l-318 -1116h-194l-177 633q-13 44 -25 96t-18 81l-6 30h-4q-20 -107 -49 -209l-174 -631h-193z" />
<glyph unicode="x" horiz-adv-x="925" d="M61 0l271 559l-271 557h197l143 -301q12 -23 26.5 -57.5t23.5 -56t10 -21.5h4q30 80 57 135l144 301h196l-270 -557l270 -559h-196l-144 301q-14 28 -28.5 61t-22 53.5t-6.5 20.5h-4q-31 -74 -60 -135l-143 -301h-197z" />
<glyph unicode="y" horiz-adv-x="972" d="M16 -356l90 159q53 -49 130 -49q28 0 51 13t39.5 32.5t32 54.5t25.5 66t24 80l-353 1116h213l183 -645q9 -32 19.5 -76t16.5 -72.5t7 -29.5h4q23 104 43 178l174 645h200l-309 -1089q-34 -119 -65.5 -198t-74.5 -139.5t-98.5 -88t-129.5 -27.5q-68 0 -119 16.5t-103 53.5 z" />
<glyph unicode="z" horiz-adv-x="933" d="M47 0v4l434 805q16 31 34 61.5t28 45.5l10 14v4h-442v182h743v-4l-418 -776q-23 -42 -46.5 -80t-35.5 -55l-12 -17v-4h469v-180h-764z" />
<glyph unicode="{" horiz-adv-x="542" d="M80 0q0 66 22 145.5t48.5 140.5t48.5 128t22 110q0 62 -36 86.5t-101 24.5v170q65 0 101 24t36 86q0 43 -22 110t-48.5 128t-48.5 141t-22 146q0 152 91.5 226.5t244.5 74.5h20v-164h-22q-72 0 -112 -37.5t-40 -114.5q0 -60 32.5 -147t65.5 -181t33 -171q0 -82 -39 -134 t-110 -71v-4q70 -14 109.5 -66.5t39.5 -136.5q0 -61 -20.5 -133.5t-45 -128.5t-45 -122t-20.5 -116q0 -72 39.5 -111.5t110.5 -39.5l24 2v-164h-20q-155 0 -245.5 73.5t-90.5 225.5z" />
<glyph unicode="|" horiz-adv-x="495" d="M147 -205v1843h201v-1843h-201z" />
<glyph unicode="}" horiz-adv-x="542" d="M96 -135q9 -2 25 -2q71 0 110 39.5t39 111.5q0 50 -20.5 116t-45 122t-45 128.5t-20.5 133.5q0 84 40 136.5t110 66.5v4q-71 19 -110.5 71.5t-39.5 133.5q0 61 20.5 134t45 129t45 121.5t20.5 114.5q0 77 -39.5 114.5t-111.5 37.5h-23v164h21q153 0 244.5 -74.5 t91.5 -226.5q0 -66 -22 -146t-49 -141t-49 -128t-22 -110q0 -61 36.5 -85.5t101.5 -24.5v-170q-65 0 -101.5 -24.5t-36.5 -86.5q0 -43 22 -110t49 -128t49 -140.5t22 -145.5q0 -152 -90.5 -225.5t-245.5 -73.5h-21v164z" />
<glyph unicode="~" horiz-adv-x="837" d="M100 684q0 242 191 242q51 0 99.5 -27t87.5 -53.5t67 -26.5q33 0 50 28t17 64h123q0 -116 -44.5 -178.5t-147.5 -62.5q-51 0 -99 26t-87 52t-68 26q-66 0 -66 -90h-123z" />
<glyph unicode="&#xa1;" horiz-adv-x="460" d="M113 1337q0 49 34 83t82 34t82.5 -34t34.5 -83q0 -47 -34.5 -80.5t-82.5 -33.5q-47 0 -81.5 33.5t-34.5 80.5zM137 0v1057h189v-1057h-189z" />
<glyph unicode="&#xa2;" horiz-adv-x="892" d="M90 731q0 85 25.5 161.5t73.5 137t124.5 96t171.5 35.5q48 0 84 -8l64 205h82l-72 -228q48 -18 94.5 -59.5t71.5 -87.5l-133 -125q-68 123 -187 123q-101 0 -157 -72t-56 -178t57 -176t159 -70q68 0 112 31.5t76 95.5l141 -120q-52 -87 -135 -137t-194 -50q-66 0 -105 10 l-59 -190h-82l65 217q-108 51 -164.5 155.5t-56.5 233.5z" />
<glyph unicode="&#xa3;" horiz-adv-x="1044" d="M66 563v133h167q-3 24 -11 80t-12 87.5t-7.5 76t-3.5 78.5q0 201 90.5 318.5t283.5 117.5q145 0 230 -84t125 -248l-168 -90q-19 120 -64 180t-125 60q-88 0 -135 -67.5t-47 -186.5q0 -29 3 -72t6.5 -75.5t10 -91t9.5 -83.5h319v-133h-309q4 -54 4 -71q0 -154 -86 -299 q0 -1 1 -2.5t1 -2.5q29 5 74 5q40 0 125.5 -15.5t132.5 -15.5q111 0 190 69l72 -168q-28 -30 -81.5 -56.5t-131.5 -26.5q-58 0 -170 21.5t-162 21.5q-116 0 -184 -54l-102 142q73 82 107 168t34 192q0 59 -4 92h-182z" />
<glyph unicode="&#xa4;" horiz-adv-x="1060" d="M31 600v70h98v94h-98v70h100q36 620 459 620q304 0 407 -330l-168 -92q-60 240 -239 240q-240 0 -268 -438h362v-70h-367v-94h367v-70h-362q28 -440 268 -440q172 0 235 221l164 -98q-105 -303 -399 -303q-423 0 -459 620h-100z" />
<glyph unicode="&#xa5;" horiz-adv-x="950" d="M27 1434h209l178 -555q14 -43 29 -96t23 -85l9 -32h4q33 117 64 213l174 555h211l-293 -842h186v-70h-211l-28 -78l-9 -67h248v-70h-250v-307h-190v307h-248v70h248l-8 67l-29 78h-211v70h186z" />
<glyph unicode="&#xa6;" horiz-adv-x="479" d="M147 -203v846h185v-846h-185zM147 821v819h185v-819h-185z" />
<glyph unicode="&#xa7;" d="M86 205l143 114q47 -78 122.5 -122.5t170.5 -44.5q99 0 147 43.5t48 111.5q0 40 -26.5 70t-69 47.5t-97.5 35.5t-112.5 32.5t-112.5 39t-97.5 55t-69 80.5t-26.5 115q0 127 95 201v4q-54 60 -54 160q0 143 100.5 225t268.5 82q147 0 236.5 -66t142.5 -192l-164 -102 q-33 89 -86 137.5t-143 48.5q-87 0 -136 -37t-49 -100q0 -50 33 -84.5t86 -54t117.5 -36t128.5 -38t117 -52t86 -85.5t33 -131q0 -113 -78 -175v-4q71 -61 71 -168q0 -89 -47 -164.5t-140.5 -123t-217.5 -47.5q-143 0 -250 60.5t-170 164.5zM260 797q0 -48 28.5 -81 t80 -52.5t106 -33t125 -32t117.5 -39.5q43 40 43 92q0 49 -29.5 83.5t-82 55t-107.5 35t-122 35t-110 43.5q-49 -40 -49 -106z" />
<glyph unicode="&#xa8;" horiz-adv-x="659" d="M78 1649q0 41 26.5 67.5t69.5 26.5q41 0 68.5 -26.5t27.5 -67.5t-27 -65.5t-69 -24.5q-43 0 -69.5 24.5t-26.5 65.5zM387 1649q0 41 27.5 67.5t68.5 26.5q42 0 69.5 -26.5t27.5 -67.5t-27.5 -65.5t-69.5 -24.5t-69 24.5t-27 65.5z" />
<glyph unicode="&#xa9;" horiz-adv-x="1611" d="M66 717q0 206 97 375t267 265.5t377 96.5q206 0 375.5 -96.5t266.5 -265.5t97 -375q0 -207 -97 -376t-266.5 -265t-375.5 -96q-155 0 -292.5 56.5t-236 154t-155.5 234.5t-57 292zM197 717q0 -174 79 -314.5t219.5 -220.5t313.5 -80q171 0 309.5 80t216.5 220.5t78 314.5 q0 172 -78 312.5t-216.5 221t-309.5 80.5q-173 0 -313.5 -80.5t-219.5 -221t-79 -312.5zM555 729q0 150 63.5 246t184.5 96q152 0 205 -162l-105 -53q-14 48 -37.5 70t-62.5 22q-57 0 -88 -57.5t-31 -161.5q0 -108 30.5 -164.5t88.5 -56.5q40 0 64 25t40 75l105 -57 q-54 -166 -209 -166q-121 0 -184.5 96t-63.5 248z" />
<glyph unicode="&#xaa;" horiz-adv-x="550" d="M43 784l178 650h109l180 -650h-133l-25 115h-151l-25 -115h-133zM221 993h111l-29 135l-24 142h-5q-10 -62 -26 -142z" />
<glyph unicode="&#xab;" horiz-adv-x="970" d="M76 655v138l319 297l119 -115l-195 -162q-45 -36 -78.5 -62.5t-33.5 -25.5v-4q15 -5 112 -86l195 -162l-119 -117zM455 655v138l319 297l119 -115l-195 -162q-45 -36 -78.5 -62.5t-33.5 -25.5v-4q15 -5 112 -86l195 -162l-119 -117z" />
<glyph unicode="&#xac;" horiz-adv-x="722" d="M57 899l117 117l191 -193l188 187l106 -109l-190 -186l197 -191l-117 -116l-193 190l-186 -186l-107 108l189 187z" />
<glyph unicode="&#xad;" horiz-adv-x="604" d="M59 596v168h486v-168h-486z" />
<glyph unicode="&#xae;" horiz-adv-x="1611" d="M66 717q0 206 97 375t267 265.5t377 96.5q206 0 375.5 -96.5t266.5 -265.5t97 -375q0 -207 -97 -376t-266.5 -265t-375.5 -96q-155 0 -292.5 56.5t-236 154t-155.5 234.5t-57 292zM195 717q0 -174 79.5 -314.5t219.5 -220.5t313 -80q172 0 311 80t217 220.5t78 314.5 q0 172 -78 312t-217 220t-311 80t-312.5 -80t-220 -220t-79.5 -312zM602 399v660h199q114 0 173.5 -62.5t59.5 -167.5q0 -131 -88 -192l107 -238h-142q-53 117 -90 203q-10 -2 -20 -2h-70v-201h-129zM731 723h74q100 0 100 106q0 105 -100 105h-74v-211z" />
<glyph unicode="&#xaf;" horiz-adv-x="604" d="M59 1640v168h486v-168h-486z" />
<glyph unicode="&#xb0;" horiz-adv-x="602" d="M39 1231q0 113 73 182.5t191 69.5q116 0 189 -69.5t73 -182.5q0 -114 -72.5 -181t-189.5 -67q-118 0 -191 67t-73 181zM186 1231q0 -50 33 -80.5t84 -30.5q48 0 80.5 30.5t32.5 80.5t-32.5 81t-80.5 31q-50 0 -83.5 -31t-33.5 -81z" />
<glyph unicode="&#xb1;" horiz-adv-x="716" d="M37 844v151h239v248h164v-248h240v-151h-240v-248h-164v248h-239zM88 268v168h539v-168h-539z" />
<glyph unicode="&#xb2;" horiz-adv-x="557" d="M59 1266q25 82 78.5 135t141.5 53q94 0 146 -55.5t52 -136.5q0 -74 -57 -160l-68 -103q-15 -22 -32 -44t-27 -33l-10 -11v-6h182v-117h-404v5l234 346q47 68 47 118q0 33 -17 53.5t-51 20.5q-39 0 -63.5 -33t-32.5 -84z" />
<glyph unicode="&#xb3;" horiz-adv-x="534" d="M39 926l113 63q25 -102 116 -102q45 0 69.5 27t24.5 69q0 57 -42 79.5t-103 14.5l-53 92l61 66q23 24 43.5 43.5t29.5 27.5l9 7v4h-235v117h399v-101l-164 -157l2 -5q81 -11 128.5 -60.5t47.5 -131.5q0 -91 -58.5 -151t-164.5 -60q-165 0 -223 158z" />
<glyph unicode="&#xb4;" horiz-adv-x="536" d="M8 1626l445 217l69 -147l-456 -193z" />
<glyph unicode="&#xb6;" d="M76 922q0 77 16.5 149.5t52.5 139t88.5 115.5t130.5 78.5t173 29.5h227v-1434h-178v399q-99 0 -182.5 28.5t-143 78.5t-102 116.5t-62.5 142.5t-20 157zM825 0v1434h82v-1434h-82z" />
<glyph unicode="&#xb7;" horiz-adv-x="423" d="M94 655q0 47 35 81t82 34t82 -34t35 -81q0 -49 -34.5 -82.5t-82.5 -33.5t-82.5 33.5t-34.5 82.5z" />
<glyph unicode="&#xb8;" horiz-adv-x="559" d="M78 -449l108 93q16 -32 44.5 -52t64.5 -20q51 0 78.5 27.5t27.5 70.5q0 41 -30 69t-78 28q-68 0 -103 -48l-104 56l64 278h122l-47 -196l4 -2q42 20 88 20q95 0 156.5 -57.5t61.5 -151.5q0 -104 -66.5 -162.5t-169.5 -58.5q-159 0 -221 106z" />
<glyph unicode="&#xb9;" horiz-adv-x="354" d="M68 1311v123h194v-646h-129v523h-65z" />
<glyph unicode="&#xba;" horiz-adv-x="571" d="M53 1108q0 102 22 177t75 122t135 47t135 -47t74.5 -122t21.5 -177q0 -103 -21.5 -178.5t-74.5 -122.5t-135 -47t-135 47t-75 122.5t-22 178.5zM178 1108q0 -236 107 -236q106 0 106 236q0 231 -106 231q-107 0 -107 -231z" />
<glyph unicode="&#xbb;" horiz-adv-x="970" d="M66 473l194 162q96 80 113 86v4q0 -1 -36 27t-77 61l-194 162l118 115l320 -297v-138l-320 -299zM446 473l195 162q96 80 113 86v4q0 -1 -36 27t-77 61l-195 162l119 115l320 -297v-138l-320 -299z" />
<glyph unicode="&#xbc;" horiz-adv-x="970" d="M37 0l743 1434h148l-746 -1434h-145zM100 1311v123h195v-646h-129v523h-66zM449 117l235 530h135v-405h74v-125h-74v-117h-129v117h-241zM602 238q0 -1 1 -3.5t1 -3.5h101v234h-5q-40 -126 -98 -227z" />
<glyph unicode="&#xbd;" horiz-adv-x="1067" d="M37 0l743 1434h148l-746 -1434h-145zM100 1311v123h195v-646h-129v523h-66zM549 477q25 83 78 136t141 53q94 0 146.5 -56t52.5 -137q0 -72 -58 -160l-67 -102q-15 -22 -32.5 -44t-27.5 -33l-10 -11v-6h182v-117h-403v4l233 346q47 68 47 119q0 33 -16.5 53.5t-50.5 20.5 q-39 0 -63.5 -33t-32.5 -84z" />
<glyph unicode="&#xbe;" horiz-adv-x="1032" d="M51 926l113 63q11 -46 40.5 -74t76.5 -28q45 0 69.5 27t24.5 69q0 57 -42 79.5t-104 14.5l-53 92l62 66q23 24 43 43.5t29 27.5l9 7v4h-235v117h399v-101l-164 -157l3 -5q81 -11 128.5 -60.5t47.5 -131.5q0 -91 -59 -151t-165 -60q-165 0 -223 158zM98 0l744 1434h147 l-745 -1434h-146zM514 117l238 530h133v-405h73v-125h-73v-117h-129v117h-242zM670 231h102v234h-6q-36 -115 -96 -227v-7z" />
<glyph unicode="&#xbf;" horiz-adv-x="876" d="M41 358q0 70 25 134t62 109t81 91t81 82.5t62 80.5t25 87q0 50 -31 102l158 91q69 -77 69 -191q0 -54 -18.5 -104.5t-48 -91.5t-65 -80.5t-71.5 -76.5t-65.5 -73.5t-48 -78t-18.5 -83.5q0 -90 50.5 -142t143.5 -52q94 0 157.5 71.5t72.5 186.5l174 -94 q-33 -154 -140 -250t-262 -96q-185 0 -289 102t-104 276zM322 1339q0 48 33.5 81.5t82.5 33.5q47 0 81 -34t34 -81t-34 -81.5t-81 -34.5q-49 0 -82.5 34t-33.5 82z" />
<glyph unicode="&#xc0;" d="M41 0l373 1434h202l373 -1434h-198l-74 293h-406l-71 -293h-199zM242 1696l67 147l447 -217l-58 -123zM350 463h330l-133 541l-29 141h-4q-17 -86 -31 -141z" />
<glyph unicode="&#xc1;" d="M41 0l373 1434h202l373 -1434h-198l-74 293h-406l-71 -293h-199zM256 1626l444 217l70 -147l-457 -193zM350 463h330l-133 541l-29 141h-4q-17 -86 -31 -141z" />
<glyph unicode="&#xc2;" d="M41 0l373 1434h202l373 -1434h-198l-74 293h-406l-71 -293h-199zM201 1657l241 225h158l242 -225l-111 -123l-123 131q-19 20 -40 44t-32 38l-12 14h-4q-43 -53 -84 -96l-123 -131zM350 463h330l-133 541l-29 141h-4q-17 -86 -31 -141z" />
<glyph unicode="&#xc3;" d="M41 0l373 1434h202l373 -1434h-198l-74 293h-406l-71 -293h-199zM184 1585q0 242 191 242q40 0 80 -16.5t66 -37t55.5 -37t52.5 -16.5q33 0 50 28t17 64h123q0 -116 -44.5 -178.5t-147.5 -62.5q-51 0 -99 26t-87 52t-68 26q-66 0 -66 -90h-123zM350 463h330l-133 541 l-29 141h-4q-17 -86 -31 -141z" />
<glyph unicode="&#xc4;" d="M41 0l373 1434h202l373 -1434h-198l-74 293h-406l-71 -293h-199zM268 1649q0 41 27 67.5t70 26.5q41 0 68.5 -26.5t27.5 -67.5t-27 -65.5t-69 -24.5q-43 0 -70 24.5t-27 65.5zM350 463h330l-133 541l-29 141h-4q-17 -86 -31 -141zM578 1649q0 41 27.5 67.5t68.5 26.5 t68.5 -26.5t27.5 -67.5t-27 -65.5t-69 -24.5t-69 24.5t-27 65.5z" />
<glyph unicode="&#xc5;" d="M41 0l373 1434h202l373 -1434h-198l-74 293h-406l-71 -293h-199zM319 1753q0 84 56 137.5t143 53.5q88 0 142.5 -53t54.5 -138t-54 -135.5t-143 -50.5q-88 0 -143.5 50.5t-55.5 135.5zM350 463h330l-133 541l-29 141h-4q-17 -86 -31 -141zM440 1753q0 -32 22.5 -52 t55.5 -20t54.5 20t21.5 52q0 33 -21.5 54.5t-54.5 21.5t-55.5 -21.5t-22.5 -54.5z" />
<glyph unicode="&#xc6;" horiz-adv-x="1579" d="M6 0l637 1434h791v-183h-535v-493h457v-180h-457v-398h535v-180h-725v293h-371l-129 -293h-203zM410 475h299v703q-10 -14 -24 -49.5t-34 -88.5t-35 -88z" />
<glyph unicode="&#xc7;" horiz-adv-x="1046" d="M90 717q0 122 15 227.5t50.5 201t89.5 162.5t137 106.5t189 39.5q308 0 422 -326l-166 -92q-71 238 -256 238q-78 0 -135.5 -42.5t-91 -119.5t-49.5 -175.5t-16 -219.5t16 -219.5t49.5 -175.5t91 -119.5t135.5 -42.5q179 0 250 219l164 -98q-117 -301 -414 -301 q-35 0 -51 2l-28 -125l4 -2q42 20 88 20q95 0 156 -57.5t61 -151.5q0 -104 -66.5 -162.5t-169.5 -58.5q-159 0 -221 106l109 93q16 -32 44.5 -52t63.5 -20q51 0 79 27.5t28 70.5q0 41 -30.5 69t-78.5 28q-67 0 -102 -48l-105 56l54 233q-86 33 -148.5 102t-98.5 165 t-52.5 205t-16.5 237z" />
<glyph unicode="&#xc8;" horiz-adv-x="1038" d="M168 0v1434h725v-183h-537v-493h457v-180h-457v-398h537v-180h-725zM268 1696l68 147l446 -217l-57 -123z" />
<glyph unicode="&#xc9;" horiz-adv-x="1038" d="M168 0v1434h725v-183h-537v-493h457v-180h-457v-398h537v-180h-725zM287 1626l444 217l70 -147l-457 -193z" />
<glyph unicode="&#xca;" horiz-adv-x="1038" d="M168 0v1434h725v-183h-537v-493h457v-180h-457v-398h537v-180h-725zM205 1657l241 225h158l242 -225l-111 -123l-123 131q-19 20 -40 44t-32 38l-12 14h-4q-43 -53 -84 -96l-123 -131z" />
<glyph unicode="&#xcb;" horiz-adv-x="1038" d="M168 0v1434h725v-183h-537v-493h457v-180h-457v-398h537v-180h-725zM283 1649q0 41 26.5 67.5t69.5 26.5q41 0 68.5 -26.5t27.5 -67.5t-27 -65.5t-69 -24.5q-43 0 -69.5 24.5t-26.5 65.5zM592 1649q0 41 27.5 67.5t68.5 26.5t68.5 -26.5t27.5 -67.5t-27 -65.5t-69 -24.5 t-69 24.5t-27 65.5z" />
<glyph unicode="&#xcc;" horiz-adv-x="524" d="M-25 1696l68 147l446 -217l-57 -123zM168 0v1434h188v-1434h-188z" />
<glyph unicode="&#xcd;" horiz-adv-x="524" d="M20 1626l445 217l70 -147l-457 -193zM170 0v1434h188v-1434h-188z" />
<glyph unicode="&#xce;" horiz-adv-x="524" d="M-53 1657l241 225h158l242 -225l-111 -123l-123 131q-19 20 -40 44t-32 38l-12 14h-4q-43 -53 -84 -96l-123 -131zM168 0v1434h188v-1434h-188z" />
<glyph unicode="&#xcf;" horiz-adv-x="524" d="M14 1649q0 41 27 67.5t70 26.5q41 0 68.5 -26.5t27.5 -67.5t-27 -65.5t-69 -24.5q-43 0 -70 24.5t-27 65.5zM168 0v1434h188v-1434h-188zM324 1649q0 41 27.5 67.5t68.5 26.5t68.5 -26.5t27.5 -67.5t-27 -65.5t-69 -24.5t-69 24.5t-27 65.5z" />
<glyph unicode="&#xd0;" horiz-adv-x="1110" d="M39 645v148h119v641h327q114 0 204 -37t149.5 -101.5t98.5 -156.5t56 -196t17 -226t-17 -226t-55.5 -196t-97 -156.5t-147 -101.5t-199.5 -37h-336v645h-119zM346 180h148q165 0 246 144.5t81 392.5q0 249 -82.5 392.5t-253.5 143.5h-139v-460h219v-148h-219v-465z" />
<glyph unicode="&#xd1;" horiz-adv-x="1204" d="M168 0v1434h176l465 -922q11 -21 24.5 -52t20.5 -52l8 -21h4q0 1 -1 26t-2 58t-1 55v908h174v-1434h-176l-522 1055h-4q6 -74 6 -142v-913h-172zM281 1585q0 242 190 242q40 0 80 -16.5t66 -37t55.5 -37t52.5 -16.5q33 0 50.5 28t17.5 64h122q0 -116 -44.5 -178.5 t-147.5 -62.5q-51 0 -99 26t-87 52t-68 26q-66 0 -66 -90h-122z" />
<glyph unicode="&#xd2;" horiz-adv-x="1132" d="M90 717q0 126 15.5 233t51 201.5t89.5 160.5t135.5 104t183.5 38q103 0 184.5 -38t135.5 -104t90 -160.5t51.5 -201.5t15.5 -233t-15.5 -233t-51.5 -201.5t-90 -160.5t-135.5 -104t-184.5 -38q-102 0 -183.5 38t-135.5 104t-89.5 160.5t-51 201.5t-15.5 233zM279 717 q0 -172 29 -294t94 -192.5t163 -70.5q147 0 218 147t71 410t-70.5 410t-218.5 147q-99 0 -164 -70.5t-93.5 -192t-28.5 -294.5zM307 1696l68 147l446 -217l-57 -123z" />
<glyph unicode="&#xd3;" horiz-adv-x="1132" d="M90 717q0 126 15.5 233t51 201.5t89.5 160.5t135.5 104t183.5 38q103 0 184.5 -38t135.5 -104t90 -160.5t51.5 -201.5t15.5 -233t-15.5 -233t-51.5 -201.5t-90 -160.5t-135.5 -104t-184.5 -38q-102 0 -183.5 38t-135.5 104t-89.5 160.5t-51 201.5t-15.5 233zM279 717 q0 -172 29 -294t94 -192.5t163 -70.5q147 0 218 147t71 410t-70.5 410t-218.5 147q-99 0 -164 -70.5t-93.5 -192t-28.5 -294.5zM305 1626l445 217l69 -147l-457 -193z" />
<glyph unicode="&#xd4;" horiz-adv-x="1132" d="M90 717q0 126 15.5 233t51 201.5t89.5 160.5t135.5 104t183.5 38q103 0 184.5 -38t135.5 -104t90 -160.5t51.5 -201.5t15.5 -233t-15.5 -233t-51.5 -201.5t-90 -160.5t-135.5 -104t-184.5 -38q-102 0 -183.5 38t-135.5 104t-89.5 160.5t-51 201.5t-15.5 233zM248 1657 l241 225h158l242 -225l-111 -123l-123 131q-19 20 -40 44t-33 38l-11 14h-4q-43 -53 -84 -96l-123 -131zM279 717q0 -172 29 -294t94 -192.5t163 -70.5q147 0 218 147t71 410t-70.5 410t-218.5 147q-99 0 -164 -70.5t-93.5 -192t-28.5 -294.5z" />
<glyph unicode="&#xd5;" horiz-adv-x="1132" d="M90 717q0 126 15.5 233t51 201.5t89.5 160.5t135.5 104t183.5 38q103 0 184.5 -38t135.5 -104t90 -160.5t51.5 -201.5t15.5 -233t-15.5 -233t-51.5 -201.5t-90 -160.5t-135.5 -104t-184.5 -38q-102 0 -183.5 38t-135.5 104t-89.5 160.5t-51 201.5t-15.5 233zM250 1585 q0 242 190 242q40 0 80 -16.5t66 -37t55.5 -37t52.5 -16.5q33 0 50.5 28t17.5 64h123q0 -116 -44.5 -178.5t-148.5 -62.5q-51 0 -99 26t-87 52t-68 26q-65 0 -65 -90h-123zM279 717q0 -172 29 -294t94 -192.5t163 -70.5q147 0 218 147t71 410t-70.5 410t-218.5 147 q-99 0 -164 -70.5t-93.5 -192t-28.5 -294.5z" />
<glyph unicode="&#xd6;" horiz-adv-x="1132" d="M90 717q0 126 15.5 233t51 201.5t89.5 160.5t135.5 104t183.5 38q103 0 184.5 -38t135.5 -104t90 -160.5t51.5 -201.5t15.5 -233t-15.5 -233t-51.5 -201.5t-90 -160.5t-135.5 -104t-184.5 -38q-102 0 -183.5 38t-135.5 104t-89.5 160.5t-51 201.5t-15.5 233zM279 717 q0 -172 29 -294t94 -192.5t163 -70.5q147 0 218 147t71 410t-70.5 410t-218.5 147q-99 0 -164 -70.5t-93.5 -192t-28.5 -294.5zM317 1649q0 41 27 67.5t70 26.5q41 0 68.5 -26.5t27.5 -67.5t-27 -65.5t-69 -24.5q-43 0 -70 24.5t-27 65.5zM627 1649q0 41 27.5 67.5 t68.5 26.5t68.5 -26.5t27.5 -67.5t-27 -65.5t-69 -24.5t-69 24.5t-27 65.5z" />
<glyph unicode="&#xd7;" horiz-adv-x="722" d="M70 887l116 117l179 -181l176 174l108 -106l-180 -176l184 -178l-116 -117l-181 178l-174 -174l-108 108l178 175z" />
<glyph unicode="&#xd8;" horiz-adv-x="1130" d="M90 717q0 126 15.5 233t51 201.5t89.5 160.5t135.5 104t183.5 38t183.5 -38t135.5 -104t89.5 -160.5t51 -201.5t15.5 -233t-15.5 -233t-51 -201.5t-89.5 -160.5t-135.5 -104t-183.5 -38t-183.5 38t-135.5 104t-89.5 160.5t-51 201.5t-15.5 233zM279 717q0 -278 81 -406 l357 893q-61 70 -152 70q-286 0 -286 -557zM410 233q61 -73 155 -73q147 0 217 147t70 410q0 278 -84 411z" />
<glyph unicode="&#xd9;" horiz-adv-x="1159" d="M158 479v955h188v-938q0 -336 234 -336q67 0 113.5 25.5t71.5 73t35.5 105.5t10.5 134v936h190v-957q0 -246 -112.5 -371.5t-306.5 -125.5q-195 0 -309.5 126t-114.5 373zM317 1696l68 147l446 -217l-57 -123z" />
<glyph unicode="&#xda;" horiz-adv-x="1159" d="M158 479v955h188v-938q0 -336 234 -336q67 0 113.5 25.5t71.5 73t35.5 105.5t10.5 134v936h190v-957q0 -246 -112.5 -371.5t-306.5 -125.5q-195 0 -309.5 126t-114.5 373zM334 1626l444 217l70 -147l-457 -193z" />
<glyph unicode="&#xdb;" horiz-adv-x="1159" d="M158 479v955h188v-938q0 -336 234 -336q67 0 113.5 25.5t71.5 73t35.5 105.5t10.5 134v936h190v-957q0 -246 -112.5 -371.5t-306.5 -125.5q-195 0 -309.5 126t-114.5 373zM262 1657l242 225h158l241 -225l-110 -123l-123 131q-19 20 -40 44t-32 38l-12 14h-4 q-43 -53 -84 -96l-123 -131z" />
<glyph unicode="&#xdc;" horiz-adv-x="1159" d="M158 479v955h188v-938q0 -336 234 -336q67 0 113.5 25.5t71.5 73t35.5 105.5t10.5 134v936h190v-957q0 -246 -112.5 -371.5t-306.5 -125.5q-195 0 -309.5 126t-114.5 373zM328 1649q0 41 26.5 67.5t69.5 26.5q41 0 68.5 -26.5t27.5 -67.5t-27 -65.5t-69 -24.5 q-43 0 -69.5 24.5t-26.5 65.5zM637 1649q0 41 27.5 67.5t68.5 26.5t68.5 -26.5t27.5 -67.5t-27 -65.5t-69 -24.5t-69 24.5t-27 65.5z" />
<glyph unicode="&#xdd;" horiz-adv-x="946" d="M23 1434h208l193 -607q32 -97 47 -182h4q14 87 45 182l193 607h211l-357 -1018v-416h-190v416zM213 1626l444 217l70 -147l-457 -193z" />
<glyph unicode="&#xde;" horiz-adv-x="1021" d="M168 0v1434h188v-185h162q111 0 198 -41.5t139.5 -113.5t79 -163t26.5 -196t-28.5 -197t-84 -165t-146 -115.5t-206.5 -42.5h-140v-215h-188zM356 397h144q132 0 202 92.5t70 243.5q0 153 -70.5 244.5t-203.5 91.5h-142v-672z" />
<glyph unicode="&#xdf;" horiz-adv-x="1071" d="M143 0v1116q0 194 104.5 298t276.5 104q150 0 248 -81t98 -235q0 -73 -25.5 -128.5t-62 -87.5t-72.5 -59t-61.5 -60t-25.5 -74q0 -37 21 -67t55 -51.5t74.5 -43t81.5 -48.5t75 -61t55 -87.5t21 -121.5q0 -147 -91 -240t-270 -93q-130 0 -225 75l80 154q63 -59 151 -59 q81 0 126.5 40.5t45.5 110.5q0 45 -21.5 80t-55.5 59t-75.5 46.5t-82.5 48t-75 57.5t-55.5 81.5t-21.5 112.5q0 57 19 103.5t47 75t61 57t61 51.5t47 57.5t19 75.5q0 69 -47 107.5t-117 38.5q-88 0 -140 -59t-52 -163v-1130h-191z" />
<glyph unicode="&#xe0;" horiz-adv-x="1005" d="M84 303q0 168 146.5 263.5t441.5 95.5v67q0 117 -48.5 179.5t-140.5 62.5q-74 0 -132 -45.5t-93 -118.5l-121 127q73 101 171 152t206 51q152 0 249 -107.5t97 -318.5v-537q0 -110 33 -174h-184q-17 22 -35 154q-93 -174 -281 -174q-147 0 -228 89.5t-81 233.5zM242 1393 l67 147l447 -217l-58 -123zM264 303q0 -80 47 -124t115 -44q76 0 133 43.5t85 111.5t28 150v80h-45q-169 0 -266 -56t-97 -161z" />
<glyph unicode="&#xe1;" horiz-adv-x="1005" d="M84 303q0 168 146.5 263.5t441.5 95.5v67q0 117 -48.5 179.5t-140.5 62.5q-74 0 -132 -45.5t-93 -118.5l-121 127q73 101 171 152t206 51q152 0 249 -107.5t97 -318.5v-537q0 -110 33 -174h-184q-17 22 -35 154q-93 -174 -281 -174q-147 0 -228 89.5t-81 233.5zM231 1325 l445 217l69 -147l-456 -193zM264 303q0 -80 47 -124t115 -44q76 0 133 43.5t85 111.5t28 150v80h-45q-169 0 -266 -56t-97 -161z" />
<glyph unicode="&#xe2;" horiz-adv-x="1005" d="M84 303q0 168 146.5 263.5t441.5 95.5v67q0 117 -48.5 179.5t-140.5 62.5q-74 0 -132 -45.5t-93 -118.5l-121 127q73 101 171 152t206 51q152 0 249 -107.5t97 -318.5v-537q0 -110 33 -174h-184q-17 22 -35 154q-93 -174 -281 -174q-147 0 -228 89.5t-81 233.5zM176 1339 l242 226h157l242 -226l-110 -122l-123 131q-19 20 -40 44t-32 38l-12 14h-4q-43 -53 -84 -96l-123 -131zM264 303q0 -80 47 -124t115 -44q76 0 133 43.5t85 111.5t28 150v80h-45q-169 0 -266 -56t-97 -161z" />
<glyph unicode="&#xe3;" horiz-adv-x="1005" d="M84 303q0 168 146.5 263.5t441.5 95.5v67q0 117 -48.5 179.5t-140.5 62.5q-74 0 -132 -45.5t-93 -118.5l-121 127q73 101 171 152t206 51q152 0 249 -107.5t97 -318.5v-537q0 -110 33 -174h-184q-17 22 -35 154q-93 -174 -281 -174q-147 0 -228 89.5t-81 233.5zM170 1247 q0 242 190 242q40 0 80 -16.5t66 -37t55.5 -37t52.5 -16.5q33 0 50.5 28.5t17.5 64.5h123q0 -116 -44.5 -179t-148.5 -63q-51 0 -99 26t-87 52t-68 26q-65 0 -65 -90h-123zM264 303q0 -80 47 -124t115 -44q76 0 133 43.5t85 111.5t28 150v80h-45q-169 0 -266 -56t-97 -161z " />
<glyph unicode="&#xe4;" horiz-adv-x="1005" d="M84 303q0 168 146.5 263.5t441.5 95.5v67q0 117 -48.5 179.5t-140.5 62.5q-74 0 -132 -45.5t-93 -118.5l-121 127q73 101 171 152t206 51q152 0 249 -107.5t97 -318.5v-537q0 -110 33 -174h-184q-17 22 -35 154q-93 -174 -281 -174q-147 0 -228 89.5t-81 233.5zM240 1356 q0 41 26.5 67.5t69.5 26.5q41 0 68.5 -26.5t27.5 -67.5t-27 -65.5t-69 -24.5q-43 0 -69.5 24.5t-26.5 65.5zM264 303q0 -80 47 -124t115 -44q76 0 133 43.5t85 111.5t28 150v80h-45q-169 0 -266 -56t-97 -161zM549 1356q0 41 27.5 67.5t68.5 26.5t68.5 -26.5t27.5 -67.5 t-27 -65.5t-69 -24.5t-69 24.5t-27 65.5z" />
<glyph unicode="&#xe5;" horiz-adv-x="1005" d="M84 303q0 168 146.5 263.5t441.5 95.5v67q0 117 -48.5 179.5t-140.5 62.5q-74 0 -132 -45.5t-93 -118.5l-121 127q73 101 171 152t206 51q152 0 249 -107.5t97 -318.5v-537q0 -110 33 -174h-184q-17 22 -35 154q-93 -174 -281 -174q-147 0 -228 89.5t-81 233.5zM264 303 q0 -80 47 -124t115 -44q76 0 133 43.5t85 111.5t28 150v80h-45q-169 0 -266 -56t-97 -161zM297 1425q0 84 56 137.5t143 53.5q88 0 142 -53t54 -138q0 -86 -53.5 -136t-142.5 -50q-88 0 -143.5 50.5t-55.5 135.5zM418 1425q0 -32 22.5 -51.5t55.5 -19.5t54 19.5t21 51.5 q0 33 -21.5 54.5t-53.5 21.5q-33 0 -55.5 -21.5t-22.5 -54.5z" />
<glyph unicode="&#xe6;" horiz-adv-x="1572" d="M84 303q0 168 146.5 263.5t441.5 95.5v67q0 113 -48.5 177.5t-140.5 64.5q-74 0 -132 -45.5t-93 -118.5l-121 127q149 203 359 203q107 0 179 -65t101 -189h4q42 119 125 186.5t199 67.5q91 0 159.5 -35t110 -91.5t67 -140t35 -169t9.5 -189.5h-627q0 -169 65.5 -267 t182.5 -98q83 0 138 46.5t93 142.5l140 -105q-64 -129 -149 -190t-218 -61q-265 0 -348 284q-106 -284 -356 -284q-150 0 -236 87t-86 236zM264 303q0 -80 47 -124t115 -44q114 0 180 88t66 217v80h-45q-169 0 -266 -56t-97 -161zM860 655h440q-13 324 -208 324 q-104 0 -161.5 -87.5t-70.5 -236.5z" />
<glyph unicode="&#xe7;" horiz-adv-x="935" d="M92 555q0 270 109.5 426t304.5 156q255 0 362 -254l-155 -113q-21 90 -71 139t-128 49q-229 0 -229 -403q0 -399 229 -399q146 0 205 192l149 -110q-98 -258 -362 -258q-8 0 -23 1t-22 1l-29 -125l4 -2q42 20 88 20q95 0 156 -57.5t61 -151.5q0 -104 -66 -162.5 t-169 -58.5q-159 0 -221 106l108 93q16 -32 44.5 -52t64.5 -20q51 0 78.5 27.5t27.5 70.5q0 41 -30 69t-78 28q-68 0 -103 -48l-104 56l53 235q-124 54 -189 194t-65 351z" />
<glyph unicode="&#xe8;" horiz-adv-x="993" d="M92 553q0 270 110.5 427t305.5 157q92 0 162.5 -31t114.5 -83.5t71.5 -129.5t38 -160.5t10.5 -185.5v-51h-624q6 -164 66 -256.5t179 -92.5q85 0 140.5 46.5t91.5 142.5l141 -105q-64 -127 -156 -189t-235 -62q-200 0 -308 151t-108 422zM260 1393l68 147l446 -217 l-57 -123zM281 639h442q-10 340 -209 340q-108 0 -166 -91.5t-67 -248.5z" />
<glyph unicode="&#xe9;" horiz-adv-x="993" d="M92 553q0 270 110.5 427t305.5 157q92 0 162.5 -31t114.5 -83.5t71.5 -129.5t38 -160.5t10.5 -185.5v-51h-624q6 -164 66 -256.5t179 -92.5q85 0 140.5 46.5t91.5 142.5l141 -105q-64 -127 -156 -189t-235 -62q-200 0 -308 151t-108 422zM248 1323l444 217l70 -147 l-457 -193zM281 639h442q-10 340 -209 340q-108 0 -166 -91.5t-67 -248.5z" />
<glyph unicode="&#xea;" horiz-adv-x="993" d="M92 553q0 270 110.5 427t305.5 157q92 0 162.5 -31t114.5 -83.5t71.5 -129.5t38 -160.5t10.5 -185.5v-51h-624q6 -164 66 -256.5t179 -92.5q85 0 140.5 46.5t91.5 142.5l141 -105q-64 -127 -156 -189t-235 -62q-200 0 -308 151t-108 422zM186 1358l242 225h158l241 -225 l-110 -123l-123 131q-19 20 -40 44t-32 38l-12 14h-4q-43 -53 -84 -96l-123 -131zM281 639h442q-10 340 -209 340q-108 0 -166 -91.5t-67 -248.5z" />
<glyph unicode="&#xeb;" horiz-adv-x="993" d="M92 553q0 270 110.5 427t305.5 157q92 0 162.5 -31t114.5 -83.5t71.5 -129.5t38 -160.5t10.5 -185.5v-51h-624q6 -164 66 -256.5t179 -92.5q85 0 140.5 46.5t91.5 142.5l141 -105q-64 -127 -156 -189t-235 -62q-200 0 -308 151t-108 422zM248 1358q0 41 26.5 67.5 t69.5 26.5q41 0 68.5 -26.5t27.5 -67.5t-27 -65.5t-69 -24.5q-43 0 -69.5 24.5t-26.5 65.5zM281 639h442q-10 340 -209 340q-108 0 -166 -91.5t-67 -248.5zM557 1358q0 41 27.5 67.5t68.5 26.5q42 0 69.5 -26.5t27.5 -67.5t-27.5 -65.5t-69.5 -24.5t-69 24.5t-27 65.5z" />
<glyph unicode="&#xec;" horiz-adv-x="528" d="M61 1362l68 147l320 -163l-58 -123zM168 0v1116h188v-1116h-188z" />
<glyph unicode="&#xed;" horiz-adv-x="528" d="M68 1346l319 163l68 -147l-330 -139zM176 0v1116h189v-1116h-189z" />
<glyph unicode="&#xee;" horiz-adv-x="546" d="M-10 1352l215 200h139l217 -200l-100 -109l-109 117q-17 17 -36 38.5t-30 34.5l-10 13h-2q-38 -49 -75 -86l-109 -117zM178 0v1116h189v-1116h-189z" />
<glyph unicode="&#xef;" horiz-adv-x="507" d="M35 1356q0 41 26.5 67.5t69.5 26.5q41 0 68.5 -26.5t27.5 -67.5t-27 -65.5t-69 -24.5q-43 0 -69.5 24.5t-26.5 65.5zM156 0v1116h188v-1116h-188zM281 1356q0 41 27.5 67.5t68.5 26.5t68.5 -26.5t27.5 -67.5t-27 -65.5t-69 -24.5t-69 24.5t-27 65.5z" />
<glyph unicode="&#xf0;" horiz-adv-x="1044" d="M92 547q0 266 99.5 415.5t279.5 149.5q72 0 130 -34t97 -91h4v109q0 105 -38 168q-9 -9 -44 -40.5t-53 -49.5l-55 55l92 98q-49 35 -137 35q-33 0 -49 -2v174h24q173 0 279 -78l113 121l73 -80l-114 -108q92 -119 92 -314v-903q0 -97 26 -172h-166q-19 47 -28 133h-4 q-37 -68 -103 -110.5t-159 -42.5q-172 0 -265.5 151t-93.5 416zM283 547q0 -90 10.5 -158.5t34.5 -123t67.5 -83t104.5 -28.5q96 0 148 74t52 190v200q0 62 -8.5 115t-29.5 102.5t-62 78t-100 28.5q-217 0 -217 -395z" />
<glyph unicode="&#xf1;" horiz-adv-x="1089" d="M127 1116h170q25 -71 31 -155h4q92 176 282 176q74 0 132 -23.5t95.5 -64t62 -98t34.5 -120.5t10 -137v-694h-188v621q0 62 -3.5 108t-15.5 93.5t-33 77t-57.5 48.5t-87.5 19q-65 0 -110 -27.5t-68.5 -78t-33 -108.5t-9.5 -132v-621h-188v944q0 102 -27 172zM246 1282 q0 242 190 242q51 0 99.5 -27t87.5 -53.5t67 -26.5q33 0 50.5 28t17.5 64h123q0 -116 -44.5 -178.5t-148.5 -62.5q-51 0 -99 26t-87 52t-68 26q-65 0 -65 -90h-123z" />
<glyph unicode="&#xf2;" horiz-adv-x="1019" d="M92 559q0 273 106 425.5t312 152.5t312 -152.5t106 -425.5q0 -274 -105.5 -426.5t-312.5 -152.5t-312.5 152.5t-105.5 426.5zM256 1393l68 147l446 -217l-57 -123zM283 559q0 -117 21.5 -205t73.5 -145t132 -57t131.5 54.5t72.5 142.5t21 210q0 120 -21 208t-72.5 144 t-131.5 56t-132 -56t-73.5 -144.5t-21.5 -207.5z" />
<glyph unicode="&#xf3;" horiz-adv-x="1019" d="M92 559q0 273 106 425.5t312 152.5t312 -152.5t106 -425.5q0 -274 -105.5 -426.5t-312.5 -152.5t-312.5 152.5t-105.5 426.5zM248 1329l444 217l70 -147l-457 -193zM283 559q0 -117 21.5 -205t73.5 -145t132 -57t131.5 54.5t72.5 142.5t21 210q0 120 -21 208t-72.5 144 t-131.5 56t-132 -56t-73.5 -144.5t-21.5 -207.5z" />
<glyph unicode="&#xf4;" horiz-adv-x="1019" d="M92 559q0 273 106 425.5t312 152.5t312 -152.5t106 -425.5q0 -274 -105.5 -426.5t-312.5 -152.5t-312.5 152.5t-105.5 426.5zM190 1356l242 225h158l241 -225l-110 -123l-123 131q-19 20 -40 44t-32 38l-12 14h-4q-43 -53 -84 -96l-123 -131zM283 559q0 -117 21.5 -205 t73.5 -145t132 -57t131.5 54.5t72.5 142.5t21 210q0 120 -21 208t-72.5 144t-131.5 56t-132 -56t-73.5 -144.5t-21.5 -207.5z" />
<glyph unicode="&#xf5;" horiz-adv-x="1019" d="M92 559q0 273 106 425.5t312 152.5t312 -152.5t106 -425.5q0 -274 -105.5 -426.5t-312.5 -152.5t-312.5 152.5t-105.5 426.5zM182 1282q0 242 191 242q51 0 99.5 -27t87.5 -53.5t67 -26.5q33 0 50 28t17 64h123q0 -116 -44.5 -178.5t-147.5 -62.5q-51 0 -99 26t-87 52 t-68 26q-66 0 -66 -90h-123zM283 559q0 -117 21.5 -205t73.5 -145t132 -57t131.5 54.5t72.5 142.5t21 210q0 120 -21 208t-72.5 144t-131.5 56t-132 -56t-73.5 -144.5t-21.5 -207.5z" />
<glyph unicode="&#xf6;" horiz-adv-x="1019" d="M92 559q0 273 106 425.5t312 152.5t312 -152.5t106 -425.5q0 -274 -105.5 -426.5t-312.5 -152.5t-312.5 152.5t-105.5 426.5zM260 1358q0 41 26.5 67.5t69.5 26.5q42 0 69.5 -26.5t27.5 -67.5t-27.5 -65.5t-69.5 -24.5q-43 0 -69.5 24.5t-26.5 65.5zM283 559 q0 -117 21.5 -205t73.5 -145t132 -57t131.5 54.5t72.5 142.5t21 210q0 120 -21 208t-72.5 144t-131.5 56t-132 -56t-73.5 -144.5t-21.5 -207.5zM569 1358q0 41 27.5 67.5t69.5 26.5q41 0 68.5 -26.5t27.5 -67.5t-27 -65.5t-69 -24.5t-69.5 24.5t-27.5 65.5z" />
<glyph unicode="&#xf7;" horiz-adv-x="802" d="M59 596v168h684v-168h-684zM297 381q0 43 32.5 73.5t76.5 30.5t76 -30.5t32 -73.5q0 -45 -32 -77t-76 -32q-45 0 -77 32t-32 77zM297 979q0 43 32.5 73.5t76.5 30.5t76 -30.5t32 -73.5q0 -45 -32 -77t-76 -32q-45 0 -77 32t-32 77z" />
<glyph unicode="&#xf8;" horiz-adv-x="1017" d="M92 559q0 273 105 425.5t311 152.5t312 -152.5t106 -425.5q0 -274 -105.5 -426.5t-312.5 -152.5q-206 0 -311 152t-105 427zM283 559q0 -184 51 -283l301 639q-52 52 -127 52q-80 0 -131.5 -56t-72.5 -144t-21 -208zM381 203q51 -51 127 -51q227 0 227 407q0 181 -51 283 z" />
<glyph unicode="&#xf9;" horiz-adv-x="1077" d="M127 420v696h188v-622q0 -63 3.5 -109t15.5 -93.5t33 -77t57.5 -48.5t87.5 -19q75 0 126.5 43t73 104t21.5 132v690h189v-946q0 -107 26 -170h-170q-24 70 -30 154h-5q-44 -85 -117 -129.5t-167 -44.5q-91 0 -157.5 35t-103.5 97.5t-54 138.5t-17 169zM258 1393l68 147 l446 -217l-57 -123z" />
<glyph unicode="&#xfa;" horiz-adv-x="1077" d="M127 420v696h188v-622q0 -63 3.5 -109t15.5 -93.5t33 -77t57.5 -48.5t87.5 -19q75 0 126.5 43t73 104t21.5 132v690h189v-946q0 -107 26 -170h-170q-24 70 -30 154h-5q-44 -85 -117 -129.5t-167 -44.5q-91 0 -157.5 35t-103.5 97.5t-54 138.5t-17 169zM260 1323l445 217 l69 -147l-457 -193z" />
<glyph unicode="&#xfb;" horiz-adv-x="1077" d="M127 420v696h188v-622q0 -63 3.5 -109t15.5 -93.5t33 -77t57.5 -48.5t87.5 -19q75 0 126.5 43t73 104t21.5 132v690h189v-946q0 -107 26 -170h-170q-24 70 -30 154h-5q-44 -85 -117 -129.5t-167 -44.5q-91 0 -157.5 35t-103.5 97.5t-54 138.5t-17 169zM197 1358l241 225 h158l242 -225l-111 -123l-123 131q-19 20 -40 44t-32 38l-12 14h-4q-43 -53 -84 -96l-123 -131z" />
<glyph unicode="&#xfc;" horiz-adv-x="1077" d="M127 420v696h188v-622q0 -63 3.5 -109t15.5 -93.5t33 -77t57.5 -48.5t87.5 -19q75 0 126.5 43t73 104t21.5 132v690h189v-946q0 -107 26 -170h-170q-24 70 -30 154h-5q-44 -85 -117 -129.5t-167 -44.5q-91 0 -157.5 35t-103.5 97.5t-54 138.5t-17 169zM274 1358 q0 41 27 67.5t70 26.5q41 0 68.5 -26.5t27.5 -67.5t-27 -65.5t-69 -24.5q-43 0 -70 24.5t-27 65.5zM584 1358q0 41 27.5 67.5t68.5 26.5t68.5 -26.5t27.5 -67.5t-27 -65.5t-69 -24.5t-69 24.5t-27 65.5z" />
<glyph unicode="&#xfd;" horiz-adv-x="972" d="M16 -356l90 159q53 -49 130 -49q28 0 51 13t39.5 32.5t32 54.5t25.5 66t24 80l-353 1116h213l183 -645q9 -32 19.5 -76t16.5 -72.5t7 -29.5h4q23 104 43 178l174 645h200l-309 -1089q-34 -119 -65.5 -198t-74.5 -139.5t-98.5 -88t-129.5 -27.5q-68 0 -119 16.5t-103 53.5 zM217 1323l445 217l69 -147l-457 -193z" />
<glyph unicode="&#xfe;" horiz-adv-x="1040" d="M147 -410v1905h191v-365l-2 -131h4q88 138 238 138q174 0 271 -158t97 -426q0 -269 -92.5 -421t-267.5 -152q-164 0 -248 131h-4q4 -59 4 -127v-394h-191zM338 459q0 -312 199 -312q62 0 105.5 30t68 87t35 127.5t10.5 161.5q0 405 -219 405q-57 0 -97.5 -26.5 t-61.5 -73.5t-30.5 -99.5t-9.5 -115.5v-184z" />
<glyph unicode="&#xff;" horiz-adv-x="972" d="M16 -356l90 159q53 -49 130 -49q28 0 51 13t39.5 32.5t32 54.5t25.5 66t24 80l-353 1116h213l183 -645q9 -32 19.5 -76t16.5 -72.5t7 -29.5h4q23 104 43 178l174 645h200l-309 -1089q-34 -119 -65.5 -198t-74.5 -139.5t-98.5 -88t-129.5 -27.5q-68 0 -119 16.5t-103 53.5 zM246 1358q0 41 26.5 67.5t69.5 26.5q41 0 68.5 -26.5t27.5 -67.5t-27 -65.5t-69 -24.5q-43 0 -69.5 24.5t-26.5 65.5zM555 1358q0 41 27.5 67.5t68.5 26.5q42 0 69.5 -26.5t27.5 -67.5t-27.5 -65.5t-69.5 -24.5t-69 24.5t-27 65.5z" />
<glyph unicode="&#x152;" horiz-adv-x="1488" d="M94 717q0 125 14.5 229.5t49 196.5t87.5 155t133 99.5t183 36.5h807v-183h-534v-493h456v-180h-456v-398h534v-180h-807q-103 0 -183 36t-133 99t-87.5 154.5t-49 196.5t-14.5 231zM283 717q0 -263 66.5 -400t211.5 -137h82v1071h-82q-146 0 -212 -136t-66 -398z" />
<glyph unicode="&#x153;" horiz-adv-x="1638" d="M92 559q0 267 104.5 422.5t286.5 155.5q131 0 220 -87.5t126 -244.5h5q39 159 127 245.5t217 86.5q372 0 372 -625h-626q6 -102 31 -179.5t76.5 -128t125.5 -50.5q85 0 149 45.5t97 136.5l141 -105q-65 -129 -148.5 -190t-217.5 -61q-125 0 -214 88.5t-133 246.5h-4 q-38 -160 -125 -247.5t-219 -87.5q-183 0 -287 155t-104 424zM283 559q0 -87 12 -158.5t38 -129t70.5 -89.5t104.5 -32q81 0 133 55t73 143.5t21 210.5q0 120 -21 207.5t-73 143t-133 55.5q-80 0 -131.5 -55.5t-72.5 -143t-21 -207.5zM926 655h440q-13 324 -209 324 q-104 0 -161 -87.5t-70 -236.5z" />
<glyph unicode="&#x178;" horiz-adv-x="946" d="M23 1434h208l193 -607q32 -97 47 -182h4q14 87 45 182l193 607h211l-357 -1018v-416h-190v416zM223 1649q0 41 26.5 67.5t69.5 26.5q42 0 69.5 -26.5t27.5 -67.5t-27.5 -65.5t-69.5 -24.5q-43 0 -69.5 24.5t-26.5 65.5zM532 1649q0 41 27.5 67.5t69.5 26.5 q41 0 68.5 -26.5t27.5 -67.5t-27 -65.5t-69 -24.5t-69.5 24.5t-27.5 65.5z" />
<glyph unicode="&#x2c6;" horiz-adv-x="731" d="M45 1657l242 225h157l242 -225l-111 -123l-122 131q-19 20 -40 44t-33 38l-11 14h-4q-43 -53 -84 -96l-123 -131z" />
<glyph unicode="&#x2dc;" horiz-adv-x="808" d="M86 1585q0 242 190 242q40 0 80 -16.5t66 -37t55.5 -37t52.5 -16.5q33 0 50.5 28t17.5 64h123q0 -116 -44.5 -178.5t-148.5 -62.5q-51 0 -99 26t-87 52t-68 26q-65 0 -65 -90h-123z" />
<glyph unicode="&#x2000;" horiz-adv-x="972" />
<glyph unicode="&#x2001;" horiz-adv-x="1944" />
<glyph unicode="&#x2002;" horiz-adv-x="972" />
<glyph unicode="&#x2003;" horiz-adv-x="1944" />
<glyph unicode="&#x2004;" horiz-adv-x="648" />
<glyph unicode="&#x2005;" horiz-adv-x="486" />
<glyph unicode="&#x2006;" horiz-adv-x="324" />
<glyph unicode="&#x2007;" horiz-adv-x="324" />
<glyph unicode="&#x2008;" horiz-adv-x="243" />
<glyph unicode="&#x2009;" horiz-adv-x="388" />
<glyph unicode="&#x200a;" horiz-adv-x="108" />
<glyph unicode="&#x2010;" horiz-adv-x="604" d="M59 596v168h486v-168h-486z" />
<glyph unicode="&#x2011;" horiz-adv-x="604" d="M59 596v168h486v-168h-486z" />
<glyph unicode="&#x2012;" horiz-adv-x="604" d="M59 596v168h486v-168h-486z" />
<glyph unicode="&#x2013;" horiz-adv-x="802" d="M59 596v168h684v-168h-684z" />
<glyph unicode="&#x2014;" horiz-adv-x="1214" d="M59 596v168h1094v-168h-1094z" />
<glyph unicode="&#x2018;" horiz-adv-x="382" d="M76 1227q0 82 55.5 151t142.5 76l19 -63q-54 -14 -84 -44t-37 -85l4 -2q11 8 29 8q35 0 61.5 -29.5t26.5 -71.5q0 -40 -29 -69t-71 -29q-117 0 -117 158z" />
<glyph unicode="&#x2019;" horiz-adv-x="382" d="M90 1130q108 28 121 130l-4 2q-12 -9 -29 -9q-35 0 -61.5 29.5t-26.5 71.5q0 40 29 69t71 29q117 0 117 -158q0 -82 -55.5 -151t-142.5 -76z" />
<glyph unicode="&#x201a;" horiz-adv-x="440" d="M106 90q0 40 29.5 69t71.5 29q117 0 117 -157q0 -82 -56 -151.5t-143 -76.5l-19 64q54 14 84 44t37 85l-4 2q-11 -8 -28 -8q-35 0 -62 29t-27 71z" />
<glyph unicode="&#x201c;" horiz-adv-x="661" d="M76 1227q0 82 55.5 151t142.5 76l19 -63q-54 -14 -84 -44t-37 -85l4 -2q11 8 29 8q35 0 61.5 -29.5t26.5 -71.5q0 -40 -29 -69t-71 -29q-117 0 -117 158zM354 1227q0 82 56 151t143 76l18 -63q-54 -14 -83.5 -44t-36.5 -85l4 -2q11 8 28 8q35 0 61.5 -29.5t26.5 -71.5 q0 -40 -29 -69t-71 -29q-117 0 -117 158z" />
<glyph unicode="&#x201d;" horiz-adv-x="657" d="M90 1130q108 28 121 130l-4 2q-12 -9 -29 -9q-35 0 -61.5 29.5t-26.5 71.5q0 40 29 69t71 29q117 0 117 -158q0 -82 -55.5 -151t-142.5 -76zM365 1130q107 28 120 130l-4 2q-12 -9 -28 -9q-35 0 -61.5 29.5t-26.5 71.5q0 40 29 69t71 29q117 0 117 -158q0 -82 -56 -151 t-143 -76z" />
<glyph unicode="&#x201e;" horiz-adv-x="718" d="M106 90q0 40 29.5 69t71.5 29q117 0 117 -157q0 -82 -56 -151.5t-143 -76.5l-19 64q54 14 84 44t37 85l-4 2q-11 -8 -28 -8q-35 0 -62 29t-27 71zM393 90q0 40 29.5 69t71.5 29q116 0 116 -157q0 -83 -55.5 -152t-142.5 -76l-19 64q54 14 84 44t37 85l-4 2q-11 -8 -29 -8 q-35 0 -61.5 29t-26.5 71z" />
<glyph unicode="&#x2022;" horiz-adv-x="604" d="M106 649q0 81 58.5 138t140.5 57t141.5 -57t59.5 -138q0 -84 -59 -142t-142 -58q-82 0 -140.5 58t-58.5 142z" />
<glyph unicode="&#x2026;" horiz-adv-x="1085" d="M102 96q0 47 35 81t82 34t82 -34t35 -81q0 -49 -34.5 -82.5t-82.5 -33.5t-82.5 33.5t-34.5 82.5zM428 96q0 47 35 81t82 34t82 -34t35 -81q0 -49 -34.5 -82.5t-82.5 -33.5t-82.5 33.5t-34.5 82.5zM748 96q0 47 34.5 81t81.5 34t82 -34t35 -81q0 -49 -34.5 -82.5 t-82.5 -33.5t-82 33.5t-34 82.5z" />
<glyph unicode="&#x202f;" horiz-adv-x="388" />
<glyph unicode="&#x2039;" horiz-adv-x="589" d="M76 655v138l319 297l119 -115l-195 -162q-45 -36 -78.5 -62.5t-33.5 -25.5v-4q15 -5 112 -86l195 -162l-119 -117z" />
<glyph unicode="&#x203a;" horiz-adv-x="598" d="M66 473l194 162q96 80 113 86v4q0 -1 -36 27t-77 61l-194 162l118 115l320 -297v-138l-320 -299z" />
<glyph unicode="&#x205f;" horiz-adv-x="486" />
<glyph unicode="&#x20ac;" horiz-adv-x="1071" d="M31 600v70h98v94h-98v70h100q36 620 459 620q304 0 407 -330l-168 -92q-60 240 -239 240q-240 0 -268 -438h362v-70h-367v-94h367v-70h-362q28 -440 268 -440q172 0 235 221l164 -98q-105 -303 -399 -303q-423 0 -459 620h-100z" />
<glyph unicode="&#x2122;" horiz-adv-x="1202" d="M41 1309v125h410v-125h-140v-521h-131v521h-139zM551 788v646h137l86 -144l64 -119h4q36 68 65 119l84 144h137v-646h-129v291l5 140h-5q-20 -40 -65 -115l-90 -152h-6l-90 150l-66 115h-4q4 -68 4 -138v-291h-131z" />
<glyph unicode="&#x25fc;" horiz-adv-x="1116" d="M0 0v1116h1116v-1116h-1116z" />
<glyph unicode="&#xfb01;" horiz-adv-x="1142" d="M61 954v162h148v51q0 373 303 373q85 0 158 -33l-47 -166q-47 33 -101 33q-63 0 -94 -47.5t-31 -126.5v-84h205v-162h-205v-954h-188v954h-148zM780 1364q0 47 35 81t82 34t82 -34t35 -81q0 -49 -34.5 -83t-82.5 -34t-82.5 34t-34.5 83zM801 0v1116h188v-1116h-188z" />
<glyph unicode="&#xfb02;" horiz-adv-x="1161" d="M61 954v162h148v51q0 373 303 373q85 0 158 -33l-47 -166q-47 33 -101 33q-63 0 -94 -47.5t-31 -126.5v-84h205v-162h-205v-954h-188v954h-148zM829 0v1495h189v-1495h-189z" />
</font>
</defs>
</svg>
