<?xml version="1.0" standalone="no"?>
<!DOCTYPE svg PUBLIC "-//W3C//DTD SVG 1.1//EN" "http://www.w3.org/Graphics/SVG/1.1/DTD/svg11.dtd" >
<svg xmlns="http://www.w3.org/2000/svg">
<metadata></metadata>
<defs>
<font id="uni_sanslight" horiz-adv-x="1390" >
<font-face units-per-em="2048" ascent="1548" descent="-500" />
<missing-glyph horiz-adv-x="483" />
<glyph unicode="&#xfb01;" horiz-adv-x="927" d="M158 0v1147q0 152 88.5 237.5t228.5 85.5v-67q-117 0 -180.5 -68.5t-63.5 -187.5v-135h230v-68h-230v-944h-73zM659 1380q0 29 21.5 50.5t50.5 21.5t50.5 -21.5t21.5 -50.5t-21.5 -50t-50.5 -21t-50.5 21t-21.5 50zM698 -2v1065h74v-1065h-74z" />
<glyph unicode="&#xfb02;" horiz-adv-x="995" d="M156 0v1147q0 152 88.5 237.5t228.5 85.5v-67q-117 0 -180.5 -68.5t-63.5 -187.5v-135h230v-68h-230v-944h-73zM692 309v1141h74v-1141q0 -241 209 -241v-74q-138 5 -210.5 84t-72.5 231z" />
<glyph horiz-adv-x="0" />
<glyph horiz-adv-x="682" />
<glyph unicode=" "  horiz-adv-x="483" />
<glyph unicode="&#x09;" horiz-adv-x="483" />
<glyph unicode="&#xa0;" horiz-adv-x="483" />
<glyph unicode="!" horiz-adv-x="403" d="M125 70q0 32 23 54.5t55 22.5t55 -22.5t23 -54.5t-23 -55t-55 -23t-55 23t-23 55zM162 268v1184h80v-1184h-80z" />
<glyph unicode="&#x22;" horiz-adv-x="544" d="M147 1061v389h82q-5 -76 -17 -196.5t-17 -192.5h-48zM336 1061v389h80l-33 -389h-47z" />
<glyph unicode="#" horiz-adv-x="1505" d="M80 475l14 70h332l109 370h-373l16 72h379l135 463h80l-137 -463h379l135 463h82l-139 -463h331l-20 -72h-336l-106 -370h376q-3 -17 -9 -38t-9 -32h-383q-18 -64 -66.5 -230t-70.5 -245h-78l139 475h-381q-18 -64 -66.5 -230t-70.5 -245h-78l139 475h-323zM504 545h379 l108 370h-379z" />
<glyph unicode="$" horiz-adv-x="1179" d="M90 233l74 31q46 -88 152 -142t237 -65v666q-57 12 -98.5 23t-92 28.5t-86 37t-71 49t-56.5 64.5t-33.5 83t-9.5 104q4 105 68.5 185t162.5 122t216 51v197h59v-197q333 -6 443 -227l-72 -29q-50 91 -138.5 131t-232.5 48v-607q57 -10 103 -21t98 -29t91.5 -41t76 -56.5 t59.5 -74t35 -96t8 -120.5q-10 -106 -78.5 -188.5t-170.5 -127t-222 -52.5v-193h-59v193q-104 7 -192.5 35.5t-161 84.5t-109.5 133zM184 1108q-3 -59 15 -106t49 -78t83 -56.5t102 -40.5t120 -30v596q-150 -13 -255 -87.5t-114 -197.5zM612 57q155 11 267.5 89t124.5 202 q6 73 -11.5 129.5t-47.5 92.5t-83.5 64t-103 42.5t-121.5 30.5l-25 4v-654z" />
<glyph unicode="%" horiz-adv-x="1462" d="M90 1079q0 174 78 270.5t205 96.5q133 0 207.5 -97.5t74.5 -273.5q0 -169 -78.5 -268.5t-203.5 -99.5q-136 0 -209.5 95.5t-73.5 276.5zM170 1079q0 -155 49 -225t154 -70q205 0 205 291q0 295 -207 295q-201 0 -201 -291zM180 -76l1024 1620l66 -43l-1020 -1618z M811 373q0 179 77 272.5t206 93.5q131 0 205.5 -98.5t74.5 -271.5q0 -169 -78 -268t-202 -99q-137 0 -210 95t-73 276zM891 373q0 -156 49 -225.5t156 -69.5q202 0 202 291q0 150 -53.5 223.5t-152.5 73.5q-103 0 -152 -72t-49 -221z" />
<glyph unicode="&#x26;" horiz-adv-x="1275" d="M90 399q0 60 19 113.5t47 93t75.5 80t88 67.5t100.5 62q-43 52 -65.5 80.5t-53.5 75.5t-45 90t-14 86q0 138 99.5 222.5t238.5 84.5q122 0 211.5 -81.5t89.5 -203.5q0 -54 -18.5 -102t-44.5 -82t-71 -68t-81.5 -55.5t-92.5 -50.5l-32 -18l395 -402l119 201l61 -31 l-131 -215l238 -272h-97l-180 202q-98 -131 -201.5 -197.5t-240.5 -66.5q-176 0 -295 106.5t-119 280.5zM170 403q0 -147 93.5 -233t256.5 -86q204 0 373 244l-10 12l-412 424q-46 -27 -71.5 -43.5t-67 -45.5t-65.5 -55t-49 -60t-36.5 -73.5t-11.5 -83.5zM322 1151 q0 -40 14.5 -80.5t47 -86.5t50 -68t58.5 -68q9 5 40 20.5t43 22t41 23t42.5 26t37.5 27t36 31.5t28 34t23.5 39t13.5 42t6 48q0 96 -65 157.5t-165 61.5q-104 0 -177.5 -65t-73.5 -164z" />
<glyph unicode="'" horiz-adv-x="362" d="M147 1059v391h80l-20 -391h-60z" />
<glyph unicode="(" horiz-adv-x="516" d="M141.5 1015q62.5 311 239.5 566l61 -45q-163 -237 -221 -535.5t1 -601.5t231 -542q-6 -4 -64 -39q-183 257 -246.5 571.5t-1 625.5z" />
<glyph unicode=")" horiz-adv-x="518" d="M68 1516q2 1 63 38q177 -254 242.5 -573t5.5 -644t-242 -583l-65 43q171 256 225.5 562t-6 603.5t-223.5 553.5z" />
<glyph unicode="*" horiz-adv-x="905" d="M102 1182q5 21 19 57l309 -100l-4 313h63l-4 -313q38 13 143 45.5t158 50.5l19 -59l-305 -95l198 -260q-16 -13 -47 -39l-196 265q-29 -42 -95.5 -133t-93.5 -130q-10 7 -25.5 20t-21.5 17l197 264z" />
<glyph unicode="+" horiz-adv-x="1210" d="M102 659v78h473v461h76v-461h455v-78h-455v-464h-76v464h-473z" />
<glyph unicode="," horiz-adv-x="425" d="M51 -262l123 377h98q-25 -77 -74 -191t-73 -186h-74z" />
<glyph unicode="-" horiz-adv-x="866" d="M143 575v78h580v-78h-580z" />
<glyph unicode="." horiz-adv-x="434" d="M139 72q0 32 23 55t55 23t55 -23t23 -55t-23 -55t-55 -23t-55 23t-23 55z" />
<glyph unicode="/" horiz-adv-x="782" d="M53 -27l609 1526l67 -22q-102 -257 -302 -763t-302 -763q-16 6 -39.5 12.5t-32.5 9.5z" />
<glyph unicode="0" horiz-adv-x="1284" d="M139 381v688q0 80 29.5 147.5t79 113.5t115 78t136.5 47t144 15q72 0 142.5 -15t136 -47t115 -78t79 -113.5t29.5 -147.5v-688q0 -79 -29.5 -146.5t-79 -113.5t-115 -78.5t-136 -47.5t-142.5 -15q-73 0 -144 15t-136.5 47.5t-115 78.5t-79 113.5t-29.5 146.5zM219 381 q0 -69 25.5 -124.5t67.5 -92t98 -60.5t114 -34.5t119 -10.5q60 0 118 10.5t114 34.5t97.5 60.5t67 92t25.5 124.5v688q0 69 -25.5 125t-67 92t-97.5 60.5t-113.5 34.5t-118.5 10t-119 -10t-114 -34.5t-98 -60.5t-67.5 -92t-25.5 -125v-688z" />
<glyph unicode="1" horiz-adv-x="608" d="M33 1124l307 326h94v-1450h-78v1360l-268 -283z" />
<glyph unicode="2" horiz-adv-x="1138" d="M84 66l704 714q156 159 156 301q0 129 -104.5 217.5t-274.5 94.5q-132 4 -231 -50.5t-152 -160.5l-69 32q62 138 172.5 196t281.5 60q201 -2 328 -109t127 -282q0 -171 -178 -352l-635 -647h819v-80h-915z" />
<glyph unicode="3" horiz-adv-x="1181" d="M82 219l74 35q52 -95 163 -145t246 -50q111 0 205 35.5t156.5 112.5t62.5 184q0 179 -100.5 272t-280.5 91h-100v69h100q143 0 229.5 71t86.5 212q0 72 -31.5 129.5t-84.5 92t-117 52t-134 17.5q-111 0 -205 -42.5t-145 -121.5l-64 37q53 98 166.5 149t251.5 51 q85 0 162 -22t139.5 -65t99.5 -114.5t37 -162.5q0 -63 -14.5 -118.5t-57 -110t-110.5 -84.5q252 -91 252 -404q-1 -80 -30 -147.5t-77.5 -115t-113 -81t-136.5 -49.5t-149 -16q-159 0 -286 59.5t-195 179.5z" />
<glyph unicode="4" horiz-adv-x="1167" d="M49 469l799 981h104v-981h121v-70h-121v-399h-80v399h-780zM139 469h735l3 899z" />
<glyph unicode="5" horiz-adv-x="1185" d="M113 213l73 35q51 -89 158.5 -138t233.5 -49q110 0 206 41t160 126.5t64 199.5v78q0 119 -59.5 206t-152 128t-204.5 41q-115 0 -206.5 -20.5t-190.5 -69.5l-39 -5v664h856v-80h-776v-481q188 77 356 74q93 -1 179.5 -30t157 -84t114 -143.5t44.5 -197.5v-80 q-2 -139 -77 -243t-188.5 -154.5t-243.5 -50.5q-332 0 -465 233z" />
<glyph unicode="6" horiz-adv-x="1273" d="M141 381v688q0 78 29 144.5t78.5 113.5t116 80t141 48.5t153.5 14.5q154 0 279 -57.5t186 -167.5l-71 -37q-52 88 -160 136.5t-234 48.5q-85 0 -162.5 -20.5t-139.5 -60t-99 -103t-37 -142.5v-381q42 60 95 101.5t112 61.5t113.5 28t117.5 8q99 -1 188.5 -27t161.5 -74.5 t115 -126.5t43 -174v-102q0 -96 -43 -174t-114.5 -126.5t-161.5 -74.5t-189 -26q-79 -1 -153.5 14.5t-141 48.5t-116 80t-78.5 113.5t-29 144.5zM221 383q0 -79 37 -142.5t99 -103t139.5 -60t162.5 -20.5q113 0 208 35t157.5 111t62.5 180v98q0 104 -62.5 180t-157.5 111 t-208 35q-85 0 -162.5 -20.5t-139.5 -60t-99 -103t-37 -142.5v-98z" />
<glyph unicode="7" horiz-adv-x="1024" d="M74 1374v76h880l33 -68l-768 -1382h-90l762 1374h-817z" />
<glyph unicode="8" horiz-adv-x="1265" d="M111 403q0 143 71 239.5t207 137.5q-105 35 -158 123t-53 197q1 117 64.5 202.5t160 125.5t209.5 40h39q84 0 160.5 -23.5t138 -68.5t98.5 -116.5t37 -159.5q0 -63 -17.5 -121t-64.5 -112t-118 -79q134 -47 202 -145.5t68 -239.5q-2 -99 -45.5 -181t-114.5 -134 t-159.5 -80t-184.5 -28h-39q-96 0 -184.5 28t-159 80t-113.5 134t-44 181zM188 406q0 -69 25.5 -128t67.5 -99.5t97.5 -69t114.5 -41.5t119 -13h39q60 0 119 13t114.5 41.5t97.5 69t67.5 99.5t25.5 128q0 81 -23.5 142t-61.5 98t-94.5 60t-115 31t-129.5 8h-39 q-71 0 -129.5 -8t-115 -31t-94.5 -60t-61.5 -98t-23.5 -142zM254 1100q0 -281 358 -281h39q359 0 359 281q0 73 -30 130.5t-81.5 92.5t-114.5 53.5t-133 18.5h-39q-70 0 -133 -18.5t-114 -53.5t-81 -92.5t-30 -130.5z" />
<glyph unicode="9" horiz-adv-x="1271" d="M106 956v111q0 96 43 174t114.5 126.5t161.5 74.5t189 26q79 1 153.5 -14.5t140.5 -48.5t115.5 -80t79 -113.5t30.5 -144.5v-686q0 -78 -29 -144.5t-79 -113.5t-116 -80t-141 -48.5t-154 -14.5q-154 0 -278.5 57.5t-185.5 167.5l73 37q53 -88 159 -136.5t232 -48.5 q85 0 163 20.5t140 60t99 103t37 142.5v356q-43 -57 -96.5 -95.5t-113 -57t-112 -25t-117.5 -6.5q-99 1 -188.5 27t-161.5 74t-115 126t-43 174zM186 958q0 -79 36 -142t96.5 -102.5t136 -60t159.5 -20.5q116 0 213 34.5t161.5 110t64.5 180.5v107q0 79 -37 142.5t-99 103 t-140 60t-163 20.5q-113 0 -208 -35t-157.5 -111t-62.5 -180v-107z" />
<glyph unicode=":" horiz-adv-x="442" d="M143 117q0 32 23 55t55 23t55 -23t23 -55t-23 -55t-55 -23t-55 23t-23 55zM143 891q0 32 23 55t55 23t55 -23t23 -55t-23 -55t-55 -23t-55 23t-23 55z" />
<glyph unicode=";" horiz-adv-x="538" d="M133 -217l103 340h116l-139 -340h-80zM193 860q0 32 22.5 55t54.5 23t55 -23t23 -55t-23 -55t-55 -23t-54.5 23t-22.5 55z" />
<glyph unicode="&#x3c;" horiz-adv-x="899" d="M86 584v73l680 406v-88l-610 -354q593 -341 610 -351v-86z" />
<glyph unicode="=" horiz-adv-x="1091" d="M150 444v72h792v-72h-792zM150 727v70h792v-70h-792z" />
<glyph unicode="&#x3e;" horiz-adv-x="899" d="M133 184v82l610 355l-610 354v88l680 -406v-73z" />
<glyph unicode="?" horiz-adv-x="933" d="M59 1298q135 156 359 156q68 0 131.5 -16t120 -49t98.5 -79.5t66.5 -112t23.5 -142.5q-1 -93 -35.5 -169t-94.5 -128t-133 -85t-157 -48l-16 -394h-60l-12 459q115 4 212.5 47.5t159.5 127.5t60 192q-1 78 -33 140.5t-84 101t-116.5 59t-134.5 20.5q-78 0 -165 -37 t-145 -92zM317 66q0 32 23 54.5t55 22.5q31 0 52.5 -22.5t21.5 -54.5t-21.5 -54t-52.5 -22q-32 0 -55 22t-23 54z" />
<glyph unicode="@" horiz-adv-x="1581" d="M111 616q0 150 56.5 284.5t153.5 231t230.5 153t282.5 56.5q187 0 339.5 -76t239 -209t86.5 -296q0 -93 -28.5 -184t-76 -161.5t-105.5 -124t-120.5 -81t-117.5 -23.5q-56 3 -78.5 40.5t-22.5 119.5q-59 -76 -136.5 -118t-151.5 -42q-119 0 -184.5 78t-65.5 197 q0 81 19.5 162t59 153.5t93 128.5t126 88.5t154.5 32.5q33 0 67.5 -11.5t68.5 -35t59 -67t33 -101.5q5 13 29 80.5t34 93.5h70l-187 -555q-24 -74 -24 -102q0 -29 16 -51.5t55 -22.5q72 0 153.5 76t137.5 196t56 234q0 151 -84 271.5t-219 184.5t-291 64 q-143 0 -267.5 -54.5t-209.5 -145.5t-134 -212t-49 -252q0 -103 32.5 -202.5t90.5 -179.5t138.5 -144.5t176 -98.5t203 -40.5t219.5 29.5q14 -32 29 -56q-102 -34 -206 -38.5t-197 19.5t-177.5 69.5t-152.5 114t-118.5 149.5t-77.5 178.5t-27 199.5zM481 465 q0 -94 52 -153.5t139 -59.5q72 0 142 49t118 121.5t78 156t30 152.5q0 109 -45.5 169.5t-138.5 60.5q-89 1 -163 -47t-119 -124t-69 -161t-24 -164z" />
<glyph unicode="A" horiz-adv-x="1236" d="M29 0l530 1450h117l532 -1450h-86l-182 504h-649l-176 -504h-86zM319 584h594l-297 807z" />
<glyph unicode="B" horiz-adv-x="1292" d="M178 -2v1452h545q168 0 280.5 -95.5t112.5 -262.5q0 -59 -7 -100t-28.5 -81.5t-63.5 -74.5t-108 -66q73 -22 125.5 -53t82 -64t45.5 -78.5t20 -85.5q4 -33 4 -76v-20q-2 -106 -38 -184t-100 -123t-145 -66.5t-182 -21.5h-543zM258 78h465h14q171 0 268 70q101 73 101 247 q0 336 -376 336h-7h-465v-653zM258 803h465q144 0 230.5 72t86.5 215q0 137 -89.5 211.5t-227.5 74.5h-465v-573z" />
<glyph unicode="C" horiz-adv-x="1210" d="M147 399v652q0 100 45.5 181.5t121 132t169 78t193.5 27.5q154 0 281.5 -58t187.5 -171l-72 -37q-54 89 -164.5 138t-238.5 49q-67 0 -130.5 -13.5t-120 -41.5t-99.5 -67t-68 -95.5t-25 -122.5v-652q0 -66 25 -122.5t68 -95.5t99.5 -67t120 -41.5t130.5 -13.5 q127 0 238.5 49t166.5 138l70 -35q-60 -112 -190.5 -171.5t-284.5 -59.5q-99 0 -191 27t-167 77.5t-120 132t-45 182.5z" />
<glyph unicode="D" horiz-adv-x="1316" d="M178 0v1450h504q101 0 186 -23.5t152 -70.5t105 -126t38 -183v-646q0 -103 -38 -181.5t-105 -125.5t-152 -70.5t-186 -23.5h-504zM258 80h424q85 0 156 18.5t127 56t87 100.5t31 146v646q0 84 -31 147.5t-87 101t-127 56t-156 18.5h-424v-1290z" />
<glyph unicode="E" horiz-adv-x="1157" d="M178 0v1450h877v-80h-797v-604h735v-82h-735v-604h797v-80h-877z" />
<glyph unicode="F" horiz-adv-x="1116" d="M178 2v1448h864v-80h-784v-633h707v-80h-707v-655h-80z" />
<glyph unicode="G" horiz-adv-x="1298" d="M143 406v645q0 100 45 181.5t119.5 132t167 78t191.5 27.5q153 0 280 -58.5t187 -172.5l-72 -37q-52 94 -160 141.5t-239 47.5q-67 0 -130 -13.5t-119 -41t-98.5 -67.5t-67 -96t-24.5 -122v-645q0 -84 38 -151t101 -108.5t141 -63.5t163 -22t163 22t141.5 63.5t101.5 109 t38 150.5v221h-444v80h524v-301q0 -103 -44.5 -186t-119.5 -134.5t-167.5 -78.5t-192.5 -27t-192.5 27t-167 78.5t-119 134.5t-44.5 186z" />
<glyph unicode="H" horiz-adv-x="1402" d="M178 0v1450h80v-686h887v686h80v-1450h-80v684h-887v-684h-80z" />
<glyph unicode="I" horiz-adv-x="436" d="M178 0v1450h80v-1450h-80z" />
<glyph unicode="J" horiz-adv-x="1196" d="M47 299l76 16q22 -84 85.5 -144.5t146.5 -89t175 -28.5q79 0 152.5 22t133 63.5t95 108.5t35.5 150v973h-483v80h563v-1053q0 -100 -43 -181t-114.5 -131.5t-160 -77.5t-184.5 -27q-111 0 -207.5 34t-170 107.5t-99.5 177.5z" />
<glyph unicode="K" horiz-adv-x="1228" d="M178 0v1450h80v-846l840 846h98l-678 -698l676 -752h-100l-633 694l-203 -202v-492h-80z" />
<glyph unicode="L" horiz-adv-x="1024" d="M178 0v1450h80v-1370h725v-80h-805z" />
<glyph unicode="M" horiz-adv-x="1636" d="M178 0v1450h139l502 -1139l504 1139h135v-1450h-80v1389l-516 -1170h-86l-518 1172v-1391h-80z" />
<glyph unicode="N" horiz-adv-x="1376" d="M178 0v1450h101l839 -1350v1350h80v-1450h-117l-823 1327v-1327h-80z" />
<glyph unicode="O" d="M141 406v641q0 102 47 184.5t126 133.5t176.5 78t203.5 27t203.5 -27t177 -78t127 -133.5t47.5 -184.5v-641q0 -102 -47.5 -185t-127 -134.5t-177 -79t-203.5 -27.5t-203.5 27.5t-176.5 79t-126 134.5t-47 185zM221 406q0 -110 69.5 -191t175 -118.5t228.5 -37.5 t229 37.5t176 118.5t70 191v641q0 88 -40.5 156.5t-109 108.5t-152 60.5t-175.5 20.5q-91 -1 -173.5 -22t-150 -61.5t-107.5 -108t-40 -154.5v-641z" />
<glyph unicode="P" horiz-adv-x="1243" d="M178 2v1448h527q110 0 199.5 -38t144.5 -100t85 -142t30 -165q0 -81 -28 -159q-29 -80 -84 -142.5t-144.5 -101t-200.5 -39.5h-449v-561h-80zM258 643h447q106 0 187.5 40.5t122.5 104.5t59 142q8 36 8 71q0 41 -11 83q-21 78 -63.5 142t-122.5 104t-180 40h-447v-727z " />
<glyph unicode="Q" horiz-adv-x="1388" d="M141 406v641q0 102 47 184.5t126 133.5t176.5 78t203.5 27t203.5 -27t176.5 -78t126 -133.5t47 -184.5v-641q0 -155 -112 -273l100 -123l-66 -41l-94 117q-171 -106 -381 -106q-106 0 -203.5 27.5t-176.5 79t-126 134.5t-47 185zM221 406q0 -110 69.5 -191t175 -118.5 t228.5 -37.5q188 0 334 91l-123 161l62 43l118 -155q82 101 82 207v641q0 71 -26.5 129.5t-72 98t-106.5 66.5t-129 39.5t-141 12.5q-91 -1 -173.5 -22t-150 -61.5t-107.5 -108t-40 -154.5v-641z" />
<glyph unicode="R" horiz-adv-x="1255" d="M178 0v1450h527q134 0 235 -41t163.5 -134.5t65.5 -232.5q0 -114 -33 -194.5t-96.5 -126t-144.5 -66t-188 -20.5h-48l488 -635h-94l-488 635h-307v-635h-80zM258 705h449q196 0 289.5 77.5t93.5 257.5q0 89 -28 154.5t-80 103.5t-120 56q-61 16 -138 16h-17h-449v-665z " />
<glyph unicode="S" horiz-adv-x="1196" d="M98 233l72 33q54 -98 173.5 -153.5t254.5 -55.5q103 0 188.5 29t149 98t76.5 170q1 12 1 24q0 28 -5 53q-7 36 -19 64t-34.5 52.5t-44.5 42.5t-56.5 34.5t-61.5 27.5t-69.5 22.5t-71 18t-73.5 16.5q-53 11 -97 23t-94 31t-89 41t-75.5 53.5t-60.5 68.5q-22 37 -36 86 q-11 40 -12 86q0 10 1 20q3 86 44.5 155t109.5 111t151.5 64t175.5 22q158 0 291.5 -62.5t193.5 -180.5l-71 -31q-50 96 -167 149.5t-247 53.5q-78 0 -145.5 -15.5t-124.5 -47.5t-92.5 -88t-40.5 -132q-1 -12 -1 -24q0 -46 16 -86q20 -50 56 -85t91 -63.5t113.5 -47 t131.5 -32.5q60 -12 105.5 -23.5t101 -30.5t95.5 -41t79.5 -54.5t63.5 -70.5q24 -40 37 -92q11 -43 11 -91q0 -11 -1 -23q-4 -88 -47.5 -160t-114 -117t-157 -69t-179.5 -24q-99 0 -194.5 27t-178 85t-123.5 139z" />
<glyph unicode="T" horiz-adv-x="1128" d="M41 1370v80h1046v-80h-483v-1370h-80v1370h-483z" />
<glyph unicode="U" horiz-adv-x="1386" d="M170 412v1038h80v-1038q0 -85 37.5 -153.5t101 -111t141 -64.5t162.5 -22t163 22t142 64.5t102 111t38 153.5v1038h80v-1038q0 -104 -45 -188t-119.5 -136t-167.5 -80t-193 -28t-192.5 28t-166.5 80t-118.5 136t-44.5 188z" />
<glyph unicode="V" horiz-adv-x="1239" d="M27 1450h88l506 -1407l501 1405h86l-526 -1468h-121z" />
<glyph unicode="W" horiz-adv-x="1908" d="M45 1450h82l395 -1399h8l381 1188h86l381 -1188h8l398 1399h82l-426 -1452h-117l-369 1141l-370 -1141h-117z" />
<glyph unicode="X" horiz-adv-x="1138" d="M39 0l483 723l-479 725h90l436 -655l432 655h95l-480 -725l482 -723h-97l-432 666l-434 -666h-96z" />
<glyph unicode="Y" horiz-adv-x="1105" d="M25 1448h92l436 -801l434 801h94l-489 -875v-573h-80v573z" />
<glyph unicode="Z" horiz-adv-x="1144" d="M53 47l920 1329h-877v74h946l43 -45l-921 -1331h893v-74h-969z" />
<glyph unicode="[" horiz-adv-x="497" d="M152 -252v1798h266v-65h-189v-1667h189v-66h-266z" />
<glyph unicode="\" horiz-adv-x="808" d="M49 1528l70 22l641 -1603l-72 -25z" />
<glyph unicode="]" horiz-adv-x="499" d="M82 -193h184v1668h-184v71h266v-1814h-266v75z" />
<glyph unicode="^" horiz-adv-x="1069" d="M111 911l381 539h73q67 -90 197 -269.5t196 -269.5h-92l-338 480q-65 -95 -325 -480h-92z" />
<glyph unicode="_" horiz-adv-x="1241" d="M129 -55h983v-74h-983v74z" />
<glyph unicode="`" horiz-adv-x="430" d="M74 1794h100l135 -227h-76z" />
<glyph unicode="a" horiz-adv-x="997" d="M86 305q1 84 33 148t87.5 101.5t123.5 56t147 18.5q165 0 299 -60v201q0 82 -46.5 138.5t-115 80t-151.5 23.5q-150 0 -264 -105l-45 49q119 125 321 125q73 0 139 -19.5t119.5 -57t85 -98t31.5 -136.5v-731q-180 -59 -393 -59h-21q-152 2 -251 87.5t-99 237.5zM158 305 q0 -129 77.5 -193.5t206.5 -66.5h21q157 0 313 41v418q-152 61 -301 61q-65 0 -119 -13t-99.5 -42t-71.5 -81t-27 -124z" />
<glyph unicode="b" horiz-adv-x="1046" d="M154 39v1411h73v-438q157 71 310 71q99 0 184.5 -35.5t142 -111t56.5 -176.5v-445q0 -103 -56 -180.5t-140 -115t-181 -39.5q-203 0 -389 59zM227 96q133 -45 316 -45q121 0 211 70.5t90 189.5v449q0 81 -45 139t-112 84t-148 27q-137 0 -312 -82v-832z" />
<glyph unicode="c" horiz-adv-x="942" d="M127 303v455q0 78 33 141.5t87.5 102t121.5 59t139 20.5q105 0 195 -39.5t139 -115.5l-60 -39q-40 59 -113.5 90t-160.5 31q-80 0 -148 -25.5t-113.5 -83t-45.5 -137.5v-459q0 -121 90.5 -185.5t216.5 -64.5q95 0 177 41t114 115l67 -33q-43 -92 -142 -144t-216 -52 q-72 0 -139 20.5t-121.5 59t-87.5 102t-33 141.5z" />
<glyph unicode="d" horiz-adv-x="1048" d="M127 303v455q0 101 56 176.5t142 111.5q84 35 180 35h5q161 0 309 -67v436h74v-1407q-199 -63 -389 -63q-57 1 -111 14t-102.5 39.5t-85 63.5t-57.5 90t-21 116zM203 303q0 -81 44 -140t110.5 -85.5t146.5 -26.5q171 0 315 49v840q-154 68 -311 68q-82 -1 -149.5 -27 t-112 -83.5t-43.5 -137.5v-457z" />
<glyph unicode="e" horiz-adv-x="999" d="M127 303v455q0 104 57 179t142 109.5t184 34.5q72 0 139 -20.5t121.5 -59t87.5 -102t33 -141.5v-279h-688v-176q0 -62 25.5 -111t69 -78t97.5 -44t115 -15q90 0 165 33.5t113 99.5l68 -34q-45 -85 -139.5 -129.5t-206.5 -44.5q-99 0 -184 34.5t-142 109.5t-57 179z M203 547h614v215q0 80 -45.5 138t-113.5 84t-148 26q-128 0 -218 -64.5t-89 -183.5v-215z" />
<glyph unicode="f" horiz-adv-x="514" d="M158 0v1147q0 152 88.5 237.5t228.5 85.5v-67q-117 0 -180.5 -68.5t-63.5 -187.5v-135h230v-68h-230v-944h-73z" />
<glyph unicode="g" horiz-adv-x="1036" d="M127 301v461q0 101 55 175t137 108.5t179 35.5q98 0 182 -18.5t203 -58.5v-1092q0 -78 -32 -140t-85.5 -98.5t-119 -55.5t-138.5 -19q-94 0 -179.5 29t-142.5 83l45 45q53 -42 126 -65t149 -23h8q124 0 209 60q88 62 88 182v145q-154 -75 -305 -75h-5q-95 0 -177 34 q-85 36 -141 111t-56 176zM201 301q0 -80 44 -137.5t110 -84t147 -28.5q80 1 146 18.5t163 57.5v823q-58 25 -144 42.5t-169 17.5q-79 0 -145 -26t-109.5 -83.5t-42.5 -136.5v-463z" />
<glyph unicode="h" horiz-adv-x="1071" d="M158 0v1450h73v-444q159 75 308 75h10q92 1 173 -33q85 -36 141.5 -111.5t56.5 -176.5v-760h-74v760q0 118 -90 182t-215 66q-154 0 -310 -64v-944h-73z" />
<glyph unicode="i" horiz-adv-x="389" d="M125 1307q0 26 19.5 44.5t45.5 18.5q27 0 46.5 -18.5t19.5 -44.5q0 -27 -19.5 -46.5t-46.5 -19.5q-26 0 -45.5 19.5t-19.5 46.5zM158 0v1061h73v-1061h-73z" />
<glyph unicode="j" horiz-adv-x="389" d="M-74 -299q232 6 232 254v1106h73v-1106q0 -154 -81 -238t-224 -90v74zM129 1307q0 28 19 47.5t47 19.5t46.5 -19.5t18.5 -47.5q0 -27 -19 -46.5t-46 -19.5t-46.5 19.5t-19.5 46.5z" />
<glyph unicode="k" horiz-adv-x="966" d="M158 0v1450h73v-997l590 608h90l-458 -477l458 -584h-88l-422 530l-170 -170v-360h-73z" />
<glyph unicode="l" horiz-adv-x="454" d="M152 295v1155h73v-1155q0 -242 209 -242v-73q-138 5 -210 84t-72 231z" />
<glyph unicode="m" horiz-adv-x="1658" d="M156 0v995q120 86 331 86q107 0 190.5 -32t149.5 -115q64 85 135.5 114t170.5 33h20q147 -1 248 -83q108 -88 108 -250v-748h-75v743q1 9 1 18q0 126 -108 194q-80 51 -183 51q-20 0 -42 -2q-127 -13 -194 -90q-46 -53 -46 -126v-788h-71v788q0 66 -42 114.5t-108 71.5 q-65 22 -141 28q-21 2 -42 2q-54 0 -106 -12q-72 -16 -121 -46v-946h-75z" />
<glyph unicode="n" horiz-adv-x="1064" d="M154 0v1004q220 77 387 77q71 -2 136.5 -23t119 -59.5t85 -101t31.5 -139.5v-758h-73v758q0 81 -45.5 139t-111.5 83.5t-142 25.5q-82 0 -168.5 -18.5t-145.5 -43.5v-944h-73z" />
<glyph unicode="o" horiz-adv-x="1017" d="M127 305v451q0 78 33 141.5t87.5 102.5t122 59.5t140.5 21.5q73 -1 140 -21.5t121.5 -59.5t87 -102.5t32.5 -141.5v-451q0 -78 -32.5 -141.5t-87 -102.5t-121.5 -59.5t-140 -21.5q-73 1 -140.5 21.5t-122 59.5t-87.5 102.5t-33 141.5zM201 305q0 -63 27 -113t71.5 -79.5 t98.5 -44.5t112 -15q57 0 110 15t98 44.5t72 79.5t27 113v451q0 63 -27 112.5t-72 78.5t-98 44t-110 15q-58 0 -111.5 -15t-98.5 -44t-72 -78.5t-27 -112.5v-451z" />
<glyph unicode="p" horiz-adv-x="1046" d="M154 -371v1391q105 34 191 47.5t198 13.5q73 -1 138.5 -20t120 -56.5t86.5 -101t32 -145.5v-451q0 -102 -56 -178.5t-142 -112.5q-84 -36 -180 -36h-5q-184 4 -310 63v-414h-73zM227 121q158 -66 312 -66q126 2 215.5 66.5t89.5 181.5v455q0 84 -44.5 141.5t-110.5 82 t-146 24.5q-194 0 -316 -43v-842z" />
<glyph unicode="q" horiz-adv-x="1048" d="M127 311v447q0 78 32 140.5t86 101.5t120.5 59.5t138.5 21.5q121 0 194.5 -12.5t194.5 -52.5v-1387h-74v424q-148 -70 -309 -73h-5q-96 0 -180 36q-86 38 -142 115.5t-56 179.5zM203 311q0 -120 89 -185t216 -67q165 0 311 80v826q-117 41 -315 41q-124 0 -213 -65 t-88 -179v-451z" />
<glyph unicode="r" horiz-adv-x="602" d="M152 0v760q0 126 79 211t201 106q30 5 70 5q31 0 67 -3v-71q-27 2 -52 2q-42 0 -79 -6q-92 -18 -152.5 -82t-60.5 -162v-760h-73z" />
<glyph unicode="s" horiz-adv-x="890" d="M90 174l60 39q121 -164 310 -164h13q99 1 180 61q80 59 80 163q0 49 -16.5 86t-41.5 60.5t-62 42t-70.5 28.5t-73.5 18q-56 10 -100 22t-93 34.5t-81.5 52t-54 76t-21.5 104.5q0 77 35 137t91 93t127 47q46 9 92 10q24 0 48 -4q70 -8 134 -36t106 -73l-45 -53 q-34 38 -86.5 62.5t-108.5 32.5q-25 4 -50 4q-31 0 -63 -6q-57 -10 -102 -35t-75 -71.5t-32 -107.5q0 -35 11.5 -64t26.5 -49t43 -37t48 -26t56 -18.5t53.5 -13t52.5 -9.5q51 -9 94.5 -23.5t86 -39.5t73 -57t49 -79.5t19.5 -104.5q0 -90 -48 -159t-122 -103t-160 -34 q-118 0 -218 49.5t-165 144.5z" />
<glyph unicode="t" horiz-adv-x="532" d="M152 305v993h67l6 -237h230v-70h-230v-686q0 -69 25 -121.5t66 -81.5q42 -30 90 -42q39 -10 80 -10q10 0 20 1v-69q-16 -1 -32 -1q-132 0 -222 74q-100 83 -100 250z" />
<glyph unicode="u" horiz-adv-x="1062" d="M150 303v758h73v-758q0 -81 45.5 -139t111.5 -83.5t142 -25.5q82 0 168.5 18.5t145.5 43.5v944h73v-1004q-220 -77 -387 -77q-71 2 -136.5 23t-119 59.5t-85 101t-31.5 139.5z" />
<glyph unicode="v" horiz-adv-x="956" d="M45 1061h80l354 -1004l355 1004h77l-379 -1061h-108z" />
<glyph unicode="w" horiz-adv-x="1466" d="M51 1061h76l303 -1000l246 1000h112l250 -995l301 995h76l-321 -1061h-115l-246 1012l-250 -1012h-110z" />
<glyph unicode="x" horiz-adv-x="911" d="M61 0l347 530l-347 531h93l303 -479l303 479h90l-344 -531l344 -530h-90l-303 479l-305 -479h-91z" />
<glyph unicode="y" horiz-adv-x="1064" d="M150 301v758h73v-758q0 -120 88.5 -188t214.5 -68q90 1 149 17.5t161 62.5v934h71v-1147q0 -78 -32 -140t-85.5 -98.5t-119 -55.5t-138.5 -19q-94 0 -179 29t-142 83l45 45q111 -88 274 -88q132 0 219 61t87 181v145q-154 -75 -306 -75h-5q-95 0 -178 34q-85 36 -141 111 t-56 176z" />
<glyph unicode="z" horiz-adv-x="919" d="M63 57l676 934h-637v70h709l31 -49l-678 -940h667v-72h-729z" />
<glyph unicode="{" horiz-adv-x="552" d="M86 608v62q40 6 69 36.5t45 78t23.5 101.5t7.5 118v296q0 120 37 182t142 62h61v-69h-55q-31 0 -51.5 -8t-32 -20.5t-17 -37.5t-7 -47.5t-1.5 -63.5v-299q1 -157 -40 -246t-89 -108q16 -12 26 -20.5t31.5 -38.5t34.5 -65t24 -98t11 -140v-301q0 -84 24.5 -122t96.5 -38 h45v-72h-49q-193 0 -193 227v299q0 309 -143 332z" />
<glyph unicode="|" horiz-adv-x="376" d="M152 -344v1888h73v-1888h-73z" />
<glyph unicode="}" horiz-adv-x="552" d="M82 -178h45q72 0 96.5 38t24.5 122v301q0 77 11 140t24 98t34.5 65t31.5 38.5t26 20.5q-48 19 -89 108t-40 246v299q0 41 -1.5 63.5t-7 47.5t-17 37.5t-32 20.5t-51.5 8h-55v69h61q105 0 142 -62t37 -182v-296q0 -64 7.5 -118t23.5 -101.5t45 -78t69 -36.5v-62 q-143 -23 -143 -332v-299q0 -227 -193 -227h-49v72z" />
<glyph unicode="~" horiz-adv-x="1093" d="M150 569q91 156 229 156q35 0 74 -14t60.5 -27t59.5 -39q94 -61 148 -61q57 0 99.5 34.5t84.5 96.5l39 -35q-35 -69 -93 -114.5t-130 -45.5q-85 0 -184 68q-3 2 -20 13t-21 13.5t-19 11t-21 11.5t-19 8.5t-21.5 7.5t-20 4t-22.5 2q-58 0 -100 -33t-85 -96q-10 8 -21 21 t-17 18z" />
<glyph unicode="&#xa1;" horiz-adv-x="393" d="M119 983q0 32 23 55t55 23t54.5 -23t22.5 -55t-22.5 -55t-54.5 -23t-55 23t-23 55zM156 -434v1153h82v-1153h-82z" />
<glyph unicode="&#xa2;" horiz-adv-x="960" d="M129 303v457q0 71 28 130t76.5 98t109.5 62.5t130 30.5v176h64v-176q99 -6 179 -45t126 -108l-60 -39q-34 51 -98.5 82t-146.5 39v-957q97 8 166.5 46.5t97.5 109.5l65 -33q-37 -87 -125.5 -136.5t-203.5 -59.5v-175h-64v175q-69 8 -130 32t-109.5 63t-76.5 98t-28 130z M203 303q0 -106 76 -169t194 -79v953q-118 -16 -194.5 -78.5t-75.5 -165.5v-461z" />
<glyph unicode="&#xa3;" horiz-adv-x="1032" d="M100 0v68h213v659h-213v70h213v276q0 56 11.5 109t40 106t72 92t112.5 63.5t156 24.5q72 0 129.5 -21.5t117.5 -70.5l-51 -51q-83 74 -203 74q-79 0 -141 -28.5t-97 -75.5t-53 -102t-18 -114v-282h338v-70h-338v-659h502v-68h-791z" />
<glyph unicode="&#xa4;" horiz-adv-x="1267" d="M143 725q0 183 127 322q-17 16 -55 56t-57 58l43 45l108 -112q147 116 324 116q178 0 325 -116q15 14 54.5 56.5t52.5 55.5l43 -45l-111 -114q125 -137 125 -322q0 -183 -127 -322l119 -114l-47 -45l-111 112q-145 -114 -323 -114q-88 0 -174.5 28t-155.5 82 q-15 -14 -52 -54.5t-50 -53.5l-43 45l106 110q-121 133 -121 326zM213 723q0 -114 57 -210.5t152.5 -152t206.5 -55.5q171 0 294.5 122t123.5 296q0 177 -123 299.5t-295 122.5q-170 0 -293 -122.5t-123 -299.5z" />
<glyph unicode="&#xa5;" horiz-adv-x="1169" d="M51 1452h92l437 -823l442 823h96l-463 -840h306l-15 -71h-332v-127h347l-13 -70h-334v-344h-73v344h-340l8 70h332v127h-336l12 71h289z" />
<glyph unicode="&#xa6;" horiz-adv-x="401" d="M162 -274v716h78v-716h-78zM162 750v675h78v-675h-78z" />
<glyph unicode="&#xa7;" horiz-adv-x="964" d="M98 -59l74 34q19 -59 70 -100.5t114 -58.5t132.5 -12.5t126 29t93.5 75.5t37 119q0 40 -17 75t-40 59.5t-67 52t-75.5 43t-86.5 40.5q-43 20 -69 32t-66 34.5t-64.5 40.5t-53.5 45t-45 54.5t-27 63t-11 74.5q0 90 63 158.5t166 113.5q-91 55 -135.5 113t-44.5 139 q0 71 31 129.5t82.5 95t115 56.5t131.5 20q92 0 178.5 -39.5t123.5 -121.5q-15 -7 -34.5 -20t-31.5 -19q-34 63 -98.5 95t-143.5 32q-108 0 -192 -62.5t-84 -165.5q0 -46 19 -83t67.5 -71t78 -49.5t103.5 -50.5l12 -6q58 -27 94 -45t85 -51t77.5 -64.5t49 -77.5t20.5 -98 q0 -82 -54 -159t-136 -123q76 -44 118.5 -111.5t42.5 -134.5q0 -92 -45 -162.5t-115 -107t-156 -45.5t-166.5 11t-148 73t-98.5 131zM205 645q0 -82 39.5 -127t117.5 -84l230 -108q73 39 130.5 102t57.5 131q0 52 -30.5 101t-67 78.5t-78.5 52.5l-162 77q-237 -81 -237 -223 z" />
<glyph unicode="&#xa8;" horiz-adv-x="614" d="M135 1681q0 26 18.5 44t43.5 18q26 0 43.5 -18t17.5 -44q0 -25 -17.5 -43t-43.5 -18q-25 0 -43.5 18t-18.5 43zM494 1681q0 26 17.5 44t43.5 18q25 0 43 -18t18 -44q0 -25 -18 -43t-43 -18q-26 0 -43.5 18t-17.5 43z" />
<glyph unicode="&#xa9;" horiz-adv-x="1703" d="M111 725q0 150 59 287.5t158 236.5t236.5 158t287.5 59t287.5 -59t236.5 -158t158 -236.5t59 -287.5t-59 -287.5t-158 -236.5t-236.5 -158t-287.5 -59t-287.5 59t-236.5 158t-158 236.5t-59 287.5zM180 725q0 -137 53 -261.5t143 -214.5t214.5 -143t261.5 -53t261.5 53 t214.5 143t143 214.5t53 261.5t-53 261.5t-143 214.5t-214.5 143t-261.5 53t-261.5 -53t-214.5 -143t-143 -214.5t-53 -261.5zM471 571v310q0 78 33 141.5t87.5 102t121.5 59t139 20.5q105 0 195 -39.5t139 -115.5l-60 -39q-40 59 -113.5 89.5t-160.5 30.5 q-126 0 -216.5 -63.5t-90.5 -181.5v-314q0 -82 45.5 -140t113 -83.5t148.5 -25.5q96 0 177.5 41t113.5 114l67 -33q-43 -92 -142 -144t-216 -52q-72 0 -139 20.5t-121.5 59t-87.5 102t-33 141.5z" />
<glyph unicode="&#xaa;" horiz-adv-x="772" d="M113 995q1 56 23 99t60.5 67.5t84 36.5t98.5 12q91 0 176 -36v90q0 68 -53.5 102.5t-130.5 34.5q-46 0 -94 -17.5t-82 -50.5l-50 45q92 92 230 92q103 0 177.5 -55t74.5 -155v-474q-124 -39 -279 -36q-99 2 -167 71t-68 174zM184 995q0 -77 48.5 -129.5t119.5 -54.5 q97 0 203 20v279q-97 33 -180 33q-189 0 -191 -148z" />
<glyph unicode="&#xab;" horiz-adv-x="786" d="M86 604l262 389q14 -8 35 -22t29 -19l-236 -348q158 -237 234 -348q-15 -8 -32.5 -20t-29.5 -19zM340 604l262 389q14 -8 35 -22t29 -19l-240 -348q10 -15 238 -348q-15 -8 -32.5 -20t-29.5 -19z" />
<glyph unicode="&#xac;" horiz-adv-x="1241" d="M147 725v72h936v-428h-71v356h-865z" />
<glyph unicode="&#xad;" horiz-adv-x="686" d="M111 514v76h464v-76h-464z" />
<glyph unicode="&#xae;" horiz-adv-x="1703" d="M111 725q0 150 59 287.5t158 236.5t236.5 158t287.5 59t287.5 -59t236.5 -158t158 -236.5t59 -287.5t-59 -287.5t-158 -236.5t-236.5 -158t-287.5 -59t-287.5 59t-236.5 158t-158 236.5t-59 287.5zM182 725q0 -137 53 -261t142.5 -213.5t213.5 -142.5t261 -53t261 53 t213.5 142.5t142.5 213.5t53 261t-53 261t-142.5 213.5t-213.5 142.5t-261 53t-261 -53t-213.5 -142.5t-142.5 -213.5t-53 -261zM592 309v842h293q133 0 207.5 -68t74.5 -172q0 -107 -64.5 -171t-166.5 -83l252 -348h-82l-256 348h-188v-348h-70zM662 723h161q44 0 79 3.5 t73 15.5t63 32t41.5 55t16.5 82q0 88 -64 131t-153 43h-217v-362z" />
<glyph unicode="&#xaf;" horiz-adv-x="765" d="M113 1614v67h499v-67h-499z" />
<glyph unicode="&#xb0;" horiz-adv-x="727" d="M111 1206q0 104 75 178t179 74t178.5 -74t74.5 -178q0 -106 -74.5 -181t-178.5 -75t-179 75t-75 181zM176 1204q0 -79 55.5 -135.5t133.5 -56.5t133 56t55 136t-55 136.5t-133 56.5t-133.5 -56.5t-55.5 -136.5z" />
<glyph unicode="&#xb1;" horiz-adv-x="1171" d="M158 801v71h385v367h71v-367h400v-71h-400v-373h-71v373h-385zM166 215v70h840v-70h-840z" />
<glyph unicode="&#xb2;" horiz-adv-x="839" d="M129 674l408 395q44 44 69.5 104t9.5 113q-27 59 -84 88t-120 28t-123 -24q-67 -29 -94 -75l-60 26q22 38 60 70t79 47h-2q54 19 114.5 22t118 -10t105.5 -51t72 -96q25 -74 -2 -153t-90 -134l-352 -336h456v-63h-547z" />
<glyph unicode="&#xb3;" horiz-adv-x="802" d="M115 786l53 27q26 -52 87 -82t126 -33q48 -3 99 12t89 46q56 45 56 121q0 91 -57 135t-146 39h-41v51h41q32 0 69.5 14t61.5 37q41 42 39.5 97.5t-37.5 99.5q-57 63 -160 63q-64 0 -117 -23.5t-81 -72.5l-50 26q32 61 100 92t138 35q59 3 117.5 -17t95.5 -60 q38 -40 52 -94.5t-2.5 -109t-61.5 -89.5l-31 -17q75 -25 111 -98t20.5 -153.5t-76.5 -126.5q-44 -37 -106.5 -55t-126.5 -15h2q-85 5 -158.5 43.5t-105.5 107.5z" />
<glyph unicode="&#xb4;" horiz-adv-x="450" d="M203 1567l137 227h100l-157 -227h-80z" />
<glyph unicode="&#xb5;" horiz-adv-x="1060" d="M147 -446v1509h78v-674q0 -47 6.5 -89.5t24 -86.5t45.5 -75.5t74.5 -51.5t107.5 -20q154 0 251 104.5t97 302.5v590h78l6 -1063h-73l-4 211q-44 -100 -143.5 -157.5t-211.5 -57.5q-90 0 -153 31.5t-107 109.5v-583h-76z" />
<glyph unicode="&#xb6;" horiz-adv-x="1144" d="M63 1012q0 84 30.5 161t88 139.5t151.5 100t210 37.5h444v-1688h-67v1633h-308v-1633h-69v824q-112 0 -205 36.5t-152 97t-91 136t-32 156.5z" />
<glyph unicode="&#xb7;" horiz-adv-x="425" d="M143 651q0 29 20.5 49.5t49.5 20.5t49.5 -20.5t20.5 -49.5t-20.5 -49t-49.5 -20t-49.5 20t-20.5 49z" />
<glyph unicode="&#xb8;" horiz-adv-x="499" d="M82 -373l12 58q91 -52 154 -52q106 0 123 80q7 35 -7 58.5t-39 31t-54 9.5t-52 -7l-12 17l106 198h64l-84 -153q78 0 121.5 -43.5t31.5 -114.5q-13 -72 -65 -104.5t-125 -32.5q-94 0 -174 55z" />
<glyph unicode="&#xb9;" horiz-adv-x="491" d="M74 1237l190 215h74v-827h-70v735l-141 -164z" />
<glyph unicode="&#xba;" horiz-adv-x="839" d="M127 973v262q0 111 88 173t205 62t205 -62t88 -173v-262q0 -111 -88 -173.5t-205 -62.5t-205 62.5t-88 173.5zM197 979q0 -89 66 -131.5t157 -42.5t157 42.5t66 131.5v250q0 89 -66 131.5t-157 42.5t-157 -42.5t-66 -131.5v-250z" />
<glyph unicode="&#xbb;" horiz-adv-x="784" d="M121 256l239 348q-47 70 -237 348q15 8 32 20t29 19l262 -387l-262 -389q-14 8 -34.5 22t-28.5 19zM371 256l239 348q-47 70 -237 348q15 8 32 20t29 19l262 -387l-262 -389q-14 8 -34.5 22t-28.5 19z" />
<glyph unicode="&#xbc;" horiz-adv-x="1372" d="M63 1237l191 215h70v-827h-66v735l-143 -162zM168 -6l913 1497q14 -8 32 -20t26 -17l-916 -1495zM682 270l444 566h95v-572h67v-57h-67v-207h-66v207h-432zM754 264h401l6 514z" />
<glyph unicode="&#xbd;" horiz-adv-x="1517" d="M63 1237l191 215h70v-827h-66v735l-143 -162zM174 -6l913 1497q14 -8 32 -20t26 -17l-916 -1495zM856 49q70 66 207.5 208t200.5 202q62 59 77.5 112t-4.5 107q-33 76 -110 102t-155.5 -0.5t-121.5 -89.5q-10 4 -22 9t-24.5 11t-18.5 9q22 38 60 70t79 47h-2 q52 20 109 23t110.5 -11t98.5 -52t69 -96q25 -74 -2 -152.5t-90 -133.5l-344 -346h448v-68h-547q-4 9 -9 24t-9 25z" />
<glyph unicode="&#xbe;" horiz-adv-x="1495" d="M86 766l53 27q26 -52 87 -82t126 -33q48 -3 99.5 11.5t89.5 45.5q55 44 55 121q0 91 -57 135t-146 39h-41v51h41q31 0 69 14.5t62 37.5q41 42 39.5 97t-37.5 99q-58 64 -159 64q-64 0 -117.5 -24t-81.5 -73l-49 27q32 61 99.5 92t137.5 35q59 3 117.5 -17.5t95.5 -60.5 q38 -40 52 -94.5t-2.5 -109t-61.5 -89.5l-31 -16q75 -25 111 -98t21 -154t-76 -127q-44 -37 -107 -55t-127 -15h2q-85 5 -158.5 44t-105.5 108zM342 -6l913 1497q14 -8 31 -20t25 -17l-916 -1495zM799 270l444 566h94v-572h68v-57h-68v-207h-65v207h-432zM870 264h402l6 514 z" />
<glyph unicode="&#xbf;" horiz-adv-x="919" d="M72 4q1 93 35.5 169t94.5 128t133 85t157 48l16 393h59l13 -458q-115 -4 -213 -47.5t-160 -127.5t-60 -192q3 -152 111.5 -236.5t257.5 -84.5q78 0 164.5 37t144.5 92l45 -50q-134 -155 -358 -155q-68 0 -131.5 16t-120 49t-98.5 79.5t-66.5 112t-23.5 142.5zM461 993 q0 32 21.5 54t52.5 22q32 0 54.5 -22t22.5 -54t-22.5 -55t-54.5 -23q-31 0 -52.5 23t-21.5 55z" />
<glyph unicode="&#xc0;" horiz-adv-x="1236" d="M29 0l530 1450h117l532 -1450h-86l-182 504h-649l-176 -504h-86zM319 584h594l-297 807zM449 1794h100l135 -227h-76z" />
<glyph unicode="&#xc1;" horiz-adv-x="1236" d="M29 0l530 1450h117l532 -1450h-86l-182 504h-649l-176 -504h-86zM319 584h594l-297 807zM530 1567l138 227h100l-158 -227h-80z" />
<glyph unicode="&#xc2;" horiz-adv-x="1236" d="M29 0l530 1450h117l532 -1450h-86l-182 504h-649l-176 -504h-86zM319 584h594l-297 807zM344 1567l236 227h69l236 -227h-103l-168 162l-168 -162h-102z" />
<glyph unicode="&#xc3;" horiz-adv-x="1236" d="M29 0l530 1450h117l532 -1450h-86l-182 504h-649l-176 -504h-86zM319 584h594l-297 807zM344 1616q3 72 45.5 115.5t99.5 46.5q32 2 62.5 -11.5t54.5 -33.5t46 -40t46 -33.5t47 -12.5q80 6 95 108l57 -14q-3 -69 -42.5 -114t-102.5 -48q-31 -2 -60 11.5t-52.5 33.5 t-45.5 40t-48 33.5t-52 12.5q-34 -2 -61 -30.5t-34 -80.5z" />
<glyph unicode="&#xc4;" horiz-adv-x="1236" d="M29 0l530 1450h117l532 -1450h-86l-182 504h-649l-176 -504h-86zM319 584h594l-297 807zM377 1681q0 26 18 44t43 18q26 0 44 -18t18 -44q0 -25 -18 -43t-44 -18q-25 0 -43 18t-18 43zM735 1681q0 26 18 44t44 18q25 0 43 -18t18 -44q0 -25 -18 -43t-43 -18q-26 0 -44 18 t-18 43z" />
<glyph unicode="&#xc5;" horiz-adv-x="1234" d="M29 0l518 1417q-48 19 -75.5 61t-27.5 101q0 78 47 126t123 48t123 -48t47 -126q0 -58 -26 -99.5t-72 -60.5l522 -1419h-86l-182 504h-649l-176 -504h-86zM319 584h594l-297 807zM506 1579q0 -51 29.5 -83t78.5 -32t79 32t30 83q0 52 -29.5 83.5t-79.5 31.5 q-49 0 -78.5 -31t-29.5 -84z" />
<glyph unicode="&#xc6;" horiz-adv-x="1597" d="M2 -2l729 1452h764v-76h-623v-631h560v-77h-560v-592h623v-74h-698v504h-451l-256 -506h-88zM383 580h414v802l-19 2z" />
<glyph unicode="&#xc7;" horiz-adv-x="1210" d="M147 399v652q0 100 45.5 181.5t121 132t169 78t193.5 27.5q154 0 281.5 -58t187.5 -171l-72 -37q-54 89 -164.5 138t-238.5 49q-67 0 -130.5 -13.5t-120 -41.5t-99.5 -67t-68 -95.5t-25 -122.5v-652q0 -66 25 -122.5t68 -95.5t99.5 -67t120 -41.5t130.5 -13.5 q127 0 238.5 49t166.5 138l70 -35q-52 -97 -158 -155t-237 -72l-64 -117q78 0 122 -43.5t32 -114.5q-13 -72 -65.5 -104.5t-125.5 -32.5q-94 0 -174 55l12 58q91 -52 154 -52q106 0 123 80q7 35 -7 58.5t-39 31t-54 9.5t-52 -7l-12 17l84 158h-14q-99 0 -191 27t-167 77.5 t-120 132t-45 182.5z" />
<glyph unicode="&#xc8;" horiz-adv-x="1157" d="M178 0v1450h877v-80h-797v-604h735v-82h-735v-604h797v-80h-877zM475 1794h100l136 -227h-76z" />
<glyph unicode="&#xc9;" horiz-adv-x="1157" d="M178 0v1450h877v-80h-797v-604h735v-82h-735v-604h797v-80h-877zM557 1567l137 227h101l-158 -227h-80z" />
<glyph unicode="&#xca;" horiz-adv-x="1157" d="M178 0v1450h877v-80h-797v-604h735v-82h-735v-604h797v-80h-877zM371 1567l235 227h70l235 -227h-102l-168 162l-168 -162h-102z" />
<glyph unicode="&#xcb;" horiz-adv-x="1157" d="M178 0v1450h877v-80h-797v-604h735v-82h-735v-604h797v-80h-877zM403 1681q0 26 18.5 44t43.5 18q26 0 43.5 -18t17.5 -44q0 -25 -17.5 -43t-43.5 -18q-25 0 -43.5 18t-18.5 43zM762 1681q0 26 17.5 44t43.5 18q25 0 43.5 -18t18.5 -44q0 -25 -18.5 -43t-43.5 -18 q-26 0 -43.5 18t-17.5 43z" />
<glyph unicode="&#xcc;" horiz-adv-x="436" d="M59 1794h101l135 -227h-76zM178 0v1450h80v-1450h-80z" />
<glyph unicode="&#xcd;" horiz-adv-x="436" d="M141 1567l138 227h100l-158 -227h-80zM178 0v1450h80v-1450h-80z" />
<glyph unicode="&#xce;" horiz-adv-x="436" d="M-45 1567l235 227h70l236 -227h-103l-168 162l-168 -162h-102zM178 0v1450h80v-1450h-80z" />
<glyph unicode="&#xcf;" horiz-adv-x="436" d="M8 1681q0 26 18.5 44t43.5 18q26 0 43.5 -18t17.5 -44q0 -25 -17.5 -43t-43.5 -18q-25 0 -43.5 18t-18.5 43zM178 0v1450h80v-1450h-80zM326 1681q0 26 17.5 44t43.5 18q25 0 43.5 -18t18.5 -44q0 -25 -18.5 -43t-43.5 -18q-26 0 -43.5 18t-17.5 43z" />
<glyph unicode="&#xd0;" horiz-adv-x="1304" d="M53 686v66h129v698h463q100 0 192 -27t166.5 -77.5t119 -133.5t44.5 -186v-604q0 -102 -44.5 -184.5t-118.5 -133t-166.5 -77.5t-192.5 -27h-463v686h-129zM262 80h383q85 0 163 21.5t141 63t100.5 108t37.5 149.5v604q0 84 -37.5 151t-101 108t-141 63t-162.5 22h-383 v-618h256v-66h-256v-606z" />
<glyph unicode="&#xd1;" horiz-adv-x="1376" d="M178 0v1450h101l839 -1350v1350h80v-1450h-117l-823 1327v-1327h-80zM422 1616q3 72 45.5 115.5t99.5 46.5q32 2 62.5 -11.5t54.5 -33.5t46 -40t46 -33.5t47 -12.5q80 6 95 108l57 -14q-3 -69 -42.5 -114t-103.5 -48q-31 -2 -60 11.5t-52.5 33.5t-45.5 40t-48 33.5 t-52 12.5q-34 -2 -60.5 -30.5t-33.5 -80.5z" />
<glyph unicode="&#xd2;" d="M141 406v641q0 102 47 184.5t126 133.5t176.5 78t203.5 27t203.5 -27t177 -78t127 -133.5t47.5 -184.5v-641q0 -102 -47.5 -185t-127 -134.5t-177 -79t-203.5 -27.5t-203.5 27.5t-176.5 79t-126 134.5t-47 185zM221 406q0 -110 69.5 -191t175 -118.5t228.5 -37.5 t229 37.5t176 118.5t70 191v641q0 88 -40.5 156.5t-109 108.5t-152 60.5t-175.5 20.5q-91 -1 -173.5 -22t-150 -61.5t-107.5 -108t-40 -154.5v-641zM530 1794h101l135 -227h-76z" />
<glyph unicode="&#xd3;" d="M141 406v641q0 102 47 184.5t126 133.5t176.5 78t203.5 27t203.5 -27t177 -78t127 -133.5t47.5 -184.5v-641q0 -102 -47.5 -185t-127 -134.5t-177 -79t-203.5 -27.5t-203.5 27.5t-176.5 79t-126 134.5t-47 185zM221 406q0 -110 69.5 -191t175 -118.5t228.5 -37.5 t229 37.5t176 118.5t70 191v641q0 88 -40.5 156.5t-109 108.5t-152 60.5t-175.5 20.5q-91 -1 -173.5 -22t-150 -61.5t-107.5 -108t-40 -154.5v-641zM612 1567l138 227h100l-158 -227h-80z" />
<glyph unicode="&#xd4;" d="M141 406v641q0 102 47 184.5t126 133.5t176.5 78t203.5 27t203.5 -27t177 -78t127 -133.5t47.5 -184.5v-641q0 -102 -47.5 -185t-127 -134.5t-177 -79t-203.5 -27.5t-203.5 27.5t-176.5 79t-126 134.5t-47 185zM221 406q0 -110 69.5 -191t175 -118.5t228.5 -37.5 t229 37.5t176 118.5t70 191v641q0 88 -40.5 156.5t-109 108.5t-152 60.5t-175.5 20.5q-91 -1 -173.5 -22t-150 -61.5t-107.5 -108t-40 -154.5v-641zM426 1567l236 227h69l236 -227h-103l-168 162l-168 -162h-102z" />
<glyph unicode="&#xd5;" d="M141 406v641q0 102 47 184.5t126 133.5t176.5 78t203.5 27t203.5 -27t177 -78t127 -133.5t47.5 -184.5v-641q0 -102 -47.5 -185t-127 -134.5t-177 -79t-203.5 -27.5t-203.5 27.5t-176.5 79t-126 134.5t-47 185zM221 406q0 -110 69.5 -191t175 -118.5t228.5 -37.5 t229 37.5t176 118.5t70 191v641q0 88 -40.5 156.5t-109 108.5t-152 60.5t-175.5 20.5q-91 -1 -173.5 -22t-150 -61.5t-107.5 -108t-40 -154.5v-641zM426 1616q3 72 45.5 115.5t99.5 46.5q32 2 62.5 -11.5t54.5 -33.5t46 -40t46 -33.5t47 -12.5q80 6 95 108l57 -14 q-3 -69 -42.5 -114t-102.5 -48q-37 -2 -74 18.5t-62 46t-58.5 46.5t-64.5 20q-34 -2 -60.5 -30.5t-33.5 -80.5z" />
<glyph unicode="&#xd6;" d="M141 406v641q0 102 47 184.5t126 133.5t176.5 78t203.5 27t203.5 -27t177 -78t127 -133.5t47.5 -184.5v-641q0 -102 -47.5 -185t-127 -134.5t-177 -79t-203.5 -27.5t-203.5 27.5t-176.5 79t-126 134.5t-47 185zM221 406q0 -110 69.5 -191t175 -118.5t228.5 -37.5 t229 37.5t176 118.5t70 191v641q0 88 -40.5 156.5t-109 108.5t-152 60.5t-175.5 20.5q-91 -1 -173.5 -22t-150 -61.5t-107.5 -108t-40 -154.5v-641zM459 1681q0 26 18 44t43 18q26 0 44 -18t18 -44q0 -25 -18 -43t-44 -18q-25 0 -43 18t-18 43zM817 1681q0 26 18 44t44 18 q25 0 43 -18t18 -44q0 -25 -18 -43t-43 -18q-26 0 -44 18t-18 43z" />
<glyph unicode="&#xd7;" horiz-adv-x="1013" d="M121 1026l55 53l334 -334l326 326l55 -53l-328 -326l322 -321l-54 -56l-321 322l-330 -330l-53 55l328 328z" />
<glyph unicode="&#xd8;" d="M141 408v636q0 82 31 152.5t84 119.5t124 84t150.5 51.5t163.5 16.5q120 0 244 -38l61 145l66 -23l-61 -149q112 -57 178.5 -148.5t66.5 -210.5v-636q0 -102 -47.5 -185t-127 -134.5t-177 -79t-203.5 -27.5q-109 0 -237 38l-60 -151l-67 20l61 158q-116 59 -183 150 t-67 211zM221 408q0 -179 199 -291l487 1243q-115 31 -215 31q-72 -1 -139.5 -14t-128 -40.5t-105.5 -67t-71.5 -97.5t-26.5 -128v-636zM487 92q112 -31 207 -31q72 0 140 13.5t128.5 42t106.5 69t72.5 98t27.5 124.5v636q0 183 -194 289z" />
<glyph unicode="&#xd9;" horiz-adv-x="1386" d="M170 412v1038h80v-1038q0 -85 37.5 -153.5t101 -111t141 -64.5t162.5 -22t163 22t142 64.5t102 111t38 153.5v1038h80v-1038q0 -104 -45 -188t-119.5 -136t-167.5 -80t-193 -28t-192.5 28t-166.5 80t-118.5 136t-44.5 188zM528 1794h101l135 -227h-76z" />
<glyph unicode="&#xda;" horiz-adv-x="1386" d="M170 412v1038h80v-1038q0 -85 37.5 -153.5t101 -111t141 -64.5t162.5 -22t163 22t142 64.5t102 111t38 153.5v1038h80v-1038q0 -104 -45 -188t-119.5 -136t-167.5 -80t-193 -28t-192.5 28t-166.5 80t-118.5 136t-44.5 188zM610 1567l138 227h100l-158 -227h-80z" />
<glyph unicode="&#xdb;" horiz-adv-x="1386" d="M170 412v1038h80v-1038q0 -85 37.5 -153.5t101 -111t141 -64.5t162.5 -22t163 22t142 64.5t102 111t38 153.5v1038h80v-1038q0 -104 -45 -188t-119.5 -136t-167.5 -80t-193 -28t-192.5 28t-166.5 80t-118.5 136t-44.5 188zM424 1567l235 227h70l236 -227h-103l-168 162 l-168 -162h-102z" />
<glyph unicode="&#xdc;" horiz-adv-x="1386" d="M170 412v1038h80v-1038q0 -85 37.5 -153.5t101 -111t141 -64.5t162.5 -22t163 22t142 64.5t102 111t38 153.5v1038h80v-1038q0 -104 -45 -188t-119.5 -136t-167.5 -80t-193 -28t-192.5 28t-166.5 80t-118.5 136t-44.5 188zM457 1681q0 26 18 44t43 18q26 0 44 -18t18 -44 q0 -25 -18 -43t-44 -18q-25 0 -43 18t-18 43zM815 1681q0 26 18 44t44 18q25 0 43 -18t18 -44q0 -25 -18 -43t-43 -18q-26 0 -44 18t-18 43z" />
<glyph unicode="&#xdd;" horiz-adv-x="1105" d="M25 1448h92l436 -801l434 801h94l-489 -875v-573h-80v573zM469 1567l137 227h101l-158 -227h-80z" />
<glyph unicode="&#xde;" horiz-adv-x="1245" d="M178 2v1448h80v-229h447q110 0 199.5 -38t144.5 -100t85 -141.5t30.5 -162.5t-28.5 -162.5t-84 -142t-144.5 -101t-200.5 -39.5h-449v-332h-80zM258 414h447q106 0 187.5 40.5t122.5 104.5t59.5 141.5t-2.5 155t-63.5 141.5t-122.5 104t-181 40h-447v-727z" />
<glyph unicode="&#xdf;" horiz-adv-x="1196" d="M158 0v1100q0 87 37.5 158.5t99.5 117t139 70t160 24.5q66 0 129 -14t119 -43t98.5 -71t67 -101t24.5 -129q0 -100 -48.5 -187.5t-147.5 -144.5q137 -48 200.5 -142.5t63.5 -213.5q0 -102 -45 -187.5t-118.5 -140.5t-165.5 -85.5t-189 -30.5q-98 0 -226 55l2 84 q137 -55 222 -58q111 -2 210 40.5t163.5 128.5t64.5 196q0 155 -107 236t-278 79h-213v74h213q136 0 227.5 78t91.5 219q0 74 -31 131t-83.5 89.5t-114 48.5t-129.5 16t-130 -18t-114 -52.5t-83 -93t-31 -133.5v-1100h-78z" />
<glyph unicode="&#xe0;" horiz-adv-x="997" d="M86 305q1 84 33 148t87.5 101.5t123.5 56t147 18.5q165 0 299 -60v201q0 82 -46.5 138.5t-115 80t-151.5 23.5q-150 0 -264 -105l-45 49q119 125 321 125q73 0 139 -19.5t119.5 -57t85 -98t31.5 -136.5v-731q-189 -62 -414 -59q-152 2 -251 87.5t-99 237.5zM158 305 q0 -129 77.5 -193.5t206.5 -66.5q168 -3 334 41v418q-152 61 -301 61q-65 0 -119 -13t-99.5 -42t-71.5 -81t-27 -124zM332 1425h100l135 -227h-75z" />
<glyph unicode="&#xe1;" horiz-adv-x="997" d="M86 305q1 84 33 148t87.5 101.5t123.5 56t147 18.5q165 0 299 -60v201q0 82 -46.5 138.5t-115 80t-151.5 23.5q-150 0 -264 -105l-45 49q119 125 321 125q73 0 139 -19.5t119.5 -57t85 -98t31.5 -136.5v-731q-189 -62 -414 -59q-152 2 -251 87.5t-99 237.5zM158 305 q0 -129 77.5 -193.5t206.5 -66.5q168 -3 334 41v418q-152 61 -301 61q-65 0 -119 -13t-99.5 -42t-71.5 -81t-27 -124zM414 1198l137 227h100l-157 -227h-80z" />
<glyph unicode="&#xe2;" horiz-adv-x="997" d="M86 305q1 84 33 148t87.5 101.5t123.5 56t147 18.5q165 0 299 -60v201q0 82 -46.5 138.5t-115 80t-151.5 23.5q-150 0 -264 -105l-45 49q119 125 321 125q73 0 139 -19.5t119.5 -57t85 -98t31.5 -136.5v-731q-189 -62 -414 -59q-152 2 -251 87.5t-99 237.5zM158 305 q0 -129 77.5 -193.5t206.5 -66.5q168 -3 334 41v418q-152 61 -301 61q-65 0 -119 -13t-99.5 -42t-71.5 -81t-27 -124zM209 1198l235 227h70l236 -227h-99l-172 162l-172 -162h-98z" />
<glyph unicode="&#xe3;" horiz-adv-x="997" d="M86 305q1 84 33 148t87.5 101.5t123.5 56t147 18.5q165 0 299 -60v201q0 82 -46.5 138.5t-115 80t-151.5 23.5q-150 0 -264 -105l-45 49q119 125 321 125q73 0 139 -19.5t119.5 -57t85 -98t31.5 -136.5v-731q-189 -62 -414 -59q-152 2 -251 87.5t-99 237.5zM158 305 q0 -129 77.5 -193.5t206.5 -66.5q168 -3 334 41v418q-152 61 -301 61q-65 0 -119 -13t-99.5 -42t-71.5 -81t-27 -124zM217 1249q3 72 45.5 115.5t99.5 46.5q32 2 62.5 -11.5t54.5 -33.5t46 -40t46 -33.5t47 -12.5q80 6 95 109l57 -15q-3 -69 -42.5 -114t-102.5 -48 q-31 -2 -60 11.5t-52.5 33.5t-45.5 40t-48 33.5t-52 12.5q-34 -2 -61 -30.5t-34 -79.5z" />
<glyph unicode="&#xe4;" horiz-adv-x="997" d="M86 305q1 84 33 148t87.5 101.5t123.5 56t147 18.5q165 0 299 -60v201q0 82 -46.5 138.5t-115 80t-151.5 23.5q-150 0 -264 -105l-45 49q119 125 321 125q73 0 139 -19.5t119.5 -57t85 -98t31.5 -136.5v-731q-189 -62 -414 -59q-152 2 -251 87.5t-99 237.5zM158 305 q0 -129 77.5 -193.5t206.5 -66.5q168 -3 334 41v418q-152 61 -301 61q-65 0 -119 -13t-99.5 -42t-71.5 -81t-27 -124zM260 1313q0 26 18.5 43.5t43.5 17.5q26 0 43.5 -17.5t17.5 -43.5q0 -25 -17.5 -43.5t-43.5 -18.5q-25 0 -43.5 18.5t-18.5 43.5zM618 1313q0 26 18 43.5 t44 17.5q25 0 43 -17.5t18 -43.5q0 -25 -18 -43.5t-43 -18.5q-26 0 -44 18.5t-18 43.5z" />
<glyph unicode="&#xe5;" horiz-adv-x="997" d="M86 305q1 84 33 148t87.5 101.5t123.5 56t147 18.5q165 0 299 -60v201q0 82 -46.5 138.5t-115 80t-151.5 23.5q-150 0 -264 -105l-45 49q119 125 321 125q73 0 139 -19.5t119.5 -57t85 -98t31.5 -136.5v-731q-189 -62 -414 -59q-152 2 -251 87.5t-99 237.5zM158 305 q0 -129 77.5 -193.5t206.5 -66.5q168 -3 334 41v418q-152 61 -301 61q-65 0 -119 -13t-99.5 -42t-71.5 -81t-27 -124zM334 1337q0 75 45 120.5t119 45.5t119 -45.5t45 -120.5t-45 -120.5t-119 -45.5t-119 45.5t-45 120.5zM393 1337q0 -49 29 -79.5t76 -30.5t75.5 30t28.5 80 t-28.5 80.5t-75.5 30.5t-76 -30.5t-29 -80.5z" />
<glyph unicode="&#xe6;" horiz-adv-x="1648" d="M88 328q0 84 32.5 149t88.5 103.5t124.5 57.5t147.5 19q156 0 297 -63l2 190q-5 76 -51.5 129t-113 75t-146.5 22q-148 0 -264 -107l-49 51q121 127 317 127q111 0 206.5 -45.5t139.5 -128.5q50 82 142.5 128t197.5 46q72 0 139 -20.5t121.5 -59t87.5 -102t33 -141.5 v-279h-688v-168q0 -123 89.5 -189.5t217.5 -66.5q90 0 165.5 33.5t113.5 99.5l67 -34q-45 -85 -139.5 -129.5t-206.5 -44.5q-99 0 -186 39t-139 110q-70 -69 -182 -110t-214 -39q-150 2 -250 97.5t-100 250.5zM162 328q0 -133 78 -206t204 -75q83 -2 188 39.5t167 106.5 q-21 61 -21 118l-2 219q-154 62 -299 62q-51 0 -96 -8t-85.5 -27.5t-70 -49.5t-46.5 -75.5t-17 -103.5zM852 547h614v215q0 80 -45.5 138t-113.5 84t-148 26q-127 0 -217.5 -68t-89.5 -188v-207z" />
<glyph unicode="&#xe7;" horiz-adv-x="942" d="M127 303v455q0 78 33 141.5t87.5 102t121.5 59t139 20.5q105 0 195 -39.5t139 -115.5l-60 -39q-40 59 -113.5 90t-160.5 31q-80 0 -148 -25.5t-113.5 -83t-45.5 -137.5v-459q0 -121 90.5 -185.5t216.5 -64.5q95 0 177 41t114 115l67 -33q-39 -84 -125.5 -135t-191.5 -59 l-64 -115q78 0 122 -43.5t32 -114.5q-13 -72 -65 -104.5t-125 -32.5q-95 0 -175 55l13 58q91 -52 153 -52q106 0 123 80q7 35 -6.5 58.5t-38.5 31t-54 9.5t-52 -7l-13 17l84 158q-69 3 -132 25t-113.5 61t-80.5 100t-30 137z" />
<glyph unicode="&#xe8;" horiz-adv-x="999" d="M127 303v455q0 104 57 179t142 109.5t184 34.5q72 0 139 -20.5t121.5 -59t87.5 -102t33 -141.5v-279h-688v-176q0 -62 25.5 -111t69 -78t97.5 -44t115 -15q90 0 165 33.5t113 99.5l68 -34q-45 -85 -139.5 -129.5t-206.5 -44.5q-99 0 -184 34.5t-142 109.5t-57 179z M203 547h614v215q0 80 -45.5 138t-113.5 84t-148 26q-128 0 -218 -64.5t-89 -183.5v-215zM344 1425h100l136 -227h-76z" />
<glyph unicode="&#xe9;" horiz-adv-x="999" d="M127 303v455q0 104 57 179t142 109.5t184 34.5q72 0 139 -20.5t121.5 -59t87.5 -102t33 -141.5v-279h-688v-176q0 -62 25.5 -111t69 -78t97.5 -44t115 -15q90 0 165 33.5t113 99.5l68 -34q-45 -85 -139.5 -129.5t-206.5 -44.5q-99 0 -184 34.5t-142 109.5t-57 179z M203 547h614v215q0 80 -45.5 138t-113.5 84t-148 26q-128 0 -218 -64.5t-89 -183.5v-215zM426 1198l137 227h101l-158 -227h-80z" />
<glyph unicode="&#xea;" horiz-adv-x="999" d="M127 303v455q0 104 57 179t142 109.5t184 34.5q72 0 139 -20.5t121.5 -59t87.5 -102t33 -141.5v-279h-688v-176q0 -62 25.5 -111t69 -78t97.5 -44t115 -15q90 0 165 33.5t113 99.5l68 -34q-45 -85 -139.5 -129.5t-206.5 -44.5q-99 0 -184 34.5t-142 109.5t-57 179z M203 547h614v215q0 80 -45.5 138t-113.5 84t-148 26q-128 0 -218 -64.5t-89 -183.5v-215zM240 1198l235 227h70l235 -227h-102l-168 162l-168 -162h-102z" />
<glyph unicode="&#xeb;" horiz-adv-x="999" d="M127 303v455q0 104 57 179t142 109.5t184 34.5q72 0 139 -20.5t121.5 -59t87.5 -102t33 -141.5v-279h-688v-176q0 -62 25.5 -111t69 -78t97.5 -44t115 -15q90 0 165 33.5t113 99.5l68 -34q-45 -85 -139.5 -129.5t-206.5 -44.5q-99 0 -184 34.5t-142 109.5t-57 179z M203 547h614v215q0 80 -45.5 138t-113.5 84t-148 26q-128 0 -218 -64.5t-89 -183.5v-215zM272 1313q0 26 18.5 43.5t43.5 17.5q26 0 43.5 -17.5t17.5 -43.5q0 -25 -17.5 -43.5t-43.5 -18.5q-25 0 -43.5 18.5t-18.5 43.5zM631 1313q0 26 17.5 43.5t43.5 17.5q25 0 43.5 -17.5 t18.5 -43.5q0 -25 -18.5 -43.5t-43.5 -18.5q-26 0 -43.5 18.5t-17.5 43.5z" />
<glyph unicode="&#xec;" horiz-adv-x="389" d="M29 1405h100l135 -227h-76zM158 0v1061h73v-1061h-73z" />
<glyph unicode="&#xed;" horiz-adv-x="389" d="M111 1178l137 227h100l-158 -227h-79zM158 0v1061h73v-1061h-73z" />
<glyph unicode="&#xee;" horiz-adv-x="389" d="M-35 1178l195 227h69l195 -227h-92l-137 163l-140 -163h-90zM158 0v1061h73v-1061h-73z" />
<glyph unicode="&#xef;" horiz-adv-x="389" d="M-2 1292q0 26 18 44t43 18q26 0 44 -18t18 -44q0 -25 -18 -43t-44 -18q-25 0 -43 18t-18 43zM158 0v1061h73v-1061h-73zM274 1292q0 26 18 44t44 18q25 0 43 -18t18 -44q0 -25 -18 -43t-43 -18q-26 0 -44 18t-18 43z" />
<glyph unicode="&#xf0;" horiz-adv-x="1034" d="M127 303v336q0 100 55 176t140 112.5t182 35.5q157 0 305 -72v248q0 87 -55.5 146t-147.5 89l-51 -166l-57 21l49 157q-109 12 -183 -10t-133 -84l-47 45q66 72 168 101t215 14l45 133l58 -18l-41 -127q113 -35 182.5 -111t69.5 -190v-1098l-99 -31q-97 -28 -286 -28 q-95 1 -177 36t-137 109.5t-55 175.5zM199 303q0 -119 88 -184.5t211 -65.5q87 0 172 14t139 37v713q-159 70 -309 70q-123 -2 -212 -65.5t-89 -180.5v-338z" />
<glyph unicode="&#xf1;" horiz-adv-x="1064" d="M154 0v1004q220 77 387 77q71 -2 136.5 -23t119 -59.5t85 -101t31.5 -139.5v-758h-73v758q0 81 -45.5 139t-111.5 83.5t-142 25.5q-82 0 -168.5 -18.5t-145.5 -43.5v-944h-73zM244 1247q3 72 45.5 115.5t99.5 46.5q32 2 62.5 -11.5t54.5 -33.5t46 -40t46 -33.5t47 -12.5 q79 6 94 108l58 -14q-3 -69 -42.5 -114t-103.5 -48q-31 -2 -60 11.5t-52.5 33.5t-45.5 40t-48 33.5t-52 12.5q-34 -2 -60.5 -30t-33.5 -80z" />
<glyph unicode="&#xf2;" horiz-adv-x="1017" d="M127 305v451q0 78 33 141.5t87.5 102.5t122 59.5t140.5 21.5q73 -1 140 -21.5t121.5 -59.5t87 -102.5t32.5 -141.5v-451q0 -78 -32.5 -141.5t-87 -102.5t-121.5 -59.5t-140 -21.5q-73 1 -140.5 21.5t-122 59.5t-87.5 102.5t-33 141.5zM201 305q0 -63 27 -113t71.5 -79.5 t98.5 -44.5t112 -15q57 0 110 15t98 44.5t72 79.5t27 113v451q0 63 -27 112.5t-72 78.5t-98 44t-110 15q-58 0 -111.5 -15t-98.5 -44t-72 -78.5t-27 -112.5v-451zM348 1425h101l135 -227h-76z" />
<glyph unicode="&#xf3;" horiz-adv-x="1017" d="M127 305v451q0 78 33 141.5t87.5 102.5t122 59.5t140.5 21.5q73 -1 140 -21.5t121.5 -59.5t87 -102.5t32.5 -141.5v-451q0 -78 -32.5 -141.5t-87 -102.5t-121.5 -59.5t-140 -21.5q-73 1 -140.5 21.5t-122 59.5t-87.5 102.5t-33 141.5zM201 305q0 -63 27 -113t71.5 -79.5 t98.5 -44.5t112 -15q57 0 110 15t98 44.5t72 79.5t27 113v451q0 63 -27 112.5t-72 78.5t-98 44t-110 15q-58 0 -111.5 -15t-98.5 -44t-72 -78.5t-27 -112.5v-451zM430 1198l137 227h101l-158 -227h-80z" />
<glyph unicode="&#xf4;" horiz-adv-x="1017" d="M127 305v451q0 78 33 141.5t87.5 102.5t122 59.5t140.5 21.5q73 -1 140 -21.5t121.5 -59.5t87 -102.5t32.5 -141.5v-451q0 -78 -32.5 -141.5t-87 -102.5t-121.5 -59.5t-140 -21.5q-73 1 -140.5 21.5t-122 59.5t-87.5 102.5t-33 141.5zM201 305q0 -63 27 -113t71.5 -79.5 t98.5 -44.5t112 -15q57 0 110 15t98 44.5t72 79.5t27 113v451q0 63 -27 112.5t-72 78.5t-98 44t-110 15q-58 0 -111.5 -15t-98.5 -44t-72 -78.5t-27 -112.5v-451zM244 1198l235 227h70l235 -227h-102l-168 162l-168 -162h-102z" />
<glyph unicode="&#xf5;" horiz-adv-x="1017" d="M127 305v451q0 78 33 141.5t87.5 102.5t122 59.5t140.5 21.5q73 -1 140 -21.5t121.5 -59.5t87 -102.5t32.5 -141.5v-451q0 -78 -32.5 -141.5t-87 -102.5t-121.5 -59.5t-140 -21.5q-73 1 -140.5 21.5t-122 59.5t-87.5 102.5t-33 141.5zM201 305q0 -63 27 -113t71.5 -79.5 t98.5 -44.5t112 -15q57 0 110 15t98 44.5t72 79.5t27 113v451q0 63 -27 112.5t-72 78.5t-98 44t-110 15q-58 0 -111.5 -15t-98.5 -44t-72 -78.5t-27 -112.5v-451zM244 1247q3 72 45.5 115.5t99.5 46.5q32 2 62.5 -11.5t54.5 -33.5t46 -40t46 -33.5t47 -12.5q79 6 94 108 l58 -14q-3 -69 -42.5 -114t-103.5 -48q-31 -2 -60 11.5t-52.5 33.5t-45.5 40t-48 33.5t-52 12.5q-34 -2 -60.5 -30t-33.5 -80z" />
<glyph unicode="&#xf6;" horiz-adv-x="1017" d="M127 305v451q0 78 33 141.5t87.5 102.5t122 59.5t140.5 21.5q73 -1 140 -21.5t121.5 -59.5t87 -102.5t32.5 -141.5v-451q0 -78 -32.5 -141.5t-87 -102.5t-121.5 -59.5t-140 -21.5q-73 1 -140.5 21.5t-122 59.5t-87.5 102.5t-33 141.5zM201 305q0 -63 27 -113t71.5 -79.5 t98.5 -44.5t112 -15q57 0 110 15t98 44.5t72 79.5t27 113v451q0 63 -27 112.5t-72 78.5t-98 44t-110 15q-58 0 -111.5 -15t-98.5 -44t-72 -78.5t-27 -112.5v-451zM276 1313q0 26 18.5 43.5t43.5 17.5q26 0 43.5 -17.5t17.5 -43.5q0 -25 -17.5 -43.5t-43.5 -18.5 q-25 0 -43.5 18.5t-18.5 43.5zM635 1313q0 26 17.5 43.5t43.5 17.5q25 0 43.5 -17.5t18.5 -43.5q0 -25 -18.5 -43.5t-43.5 -18.5q-26 0 -43.5 18.5t-17.5 43.5z" />
<glyph unicode="&#xf7;" horiz-adv-x="1171" d="M147 641v78h875v-78h-875zM518 356q0 33 21.5 53.5t54.5 22.5q32 0 54 -22t22 -54t-22 -53.5t-54 -21.5t-54 21.5t-22 53.5zM518 981q0 33 21.5 53.5t54.5 22.5q32 0 54 -22t22 -54t-22 -54t-54 -22t-54 22t-22 54z" />
<glyph unicode="&#xf8;" horiz-adv-x="1017" d="M127 305v453q0 78 33 141.5t87.5 102.5t122 59.5t140.5 21.5q65 2 168 -30l61 147l64 -20l-66 -152q154 -99 154 -270v-453q0 -78 -32.5 -141.5t-87 -102.5t-121.5 -59.5t-140 -21.5q-71 0 -172 32l-59 -141l-58 23l60 143q-154 99 -154 268zM201 305q0 -117 104 -201 l342 881q-84 23 -137 23q-58 0 -111.5 -15t-98.5 -44t-72 -78.5t-27 -112.5v-453zM362 78q83 -25 148 -25q57 0 110 15t98 44.5t72 79.5t27 113v453q0 115 -108 198z" />
<glyph unicode="&#xf9;" horiz-adv-x="1062" d="M150 303v758h73v-758q0 -81 45.5 -139t111.5 -83.5t142 -25.5q82 0 168.5 18.5t145.5 43.5v944h73v-1004q-220 -77 -387 -77q-71 2 -136.5 23t-119 59.5t-85 101t-31.5 139.5zM371 1425h100l135 -227h-76z" />
<glyph unicode="&#xfa;" horiz-adv-x="1062" d="M150 303v758h73v-758q0 -81 45.5 -139t111.5 -83.5t142 -25.5q82 0 168.5 18.5t145.5 43.5v944h73v-1004q-220 -77 -387 -77q-71 2 -136.5 23t-119 59.5t-85 101t-31.5 139.5zM453 1198l137 227h100l-158 -227h-79z" />
<glyph unicode="&#xfb;" horiz-adv-x="1062" d="M150 303v758h73v-758q0 -81 45.5 -139t111.5 -83.5t142 -25.5q82 0 168.5 18.5t145.5 43.5v944h73v-1004q-220 -77 -387 -77q-71 2 -136.5 23t-119 59.5t-85 101t-31.5 139.5zM266 1198l236 227h69l236 -227h-102l-168 162l-168 -162h-103z" />
<glyph unicode="&#xfc;" horiz-adv-x="1062" d="M150 303v758h73v-758q0 -81 45.5 -139t111.5 -83.5t142 -25.5q82 0 168.5 18.5t145.5 43.5v944h73v-1004q-220 -77 -387 -77q-71 2 -136.5 23t-119 59.5t-85 101t-31.5 139.5zM299 1313q0 26 18 43.5t43 17.5q26 0 44 -17.5t18 -43.5q0 -25 -18 -43.5t-44 -18.5 q-25 0 -43 18.5t-18 43.5zM657 1313q0 26 18 43.5t44 17.5q25 0 43 -17.5t18 -43.5q0 -25 -18 -43.5t-43 -18.5q-26 0 -44 18.5t-18 43.5z" />
<glyph unicode="&#xfd;" horiz-adv-x="1064" d="M150 301v758h73v-758q0 -120 88.5 -188t214.5 -68q90 1 149 17.5t161 62.5v934h71v-1147q0 -78 -32 -140t-85.5 -98.5t-119 -55.5t-138.5 -19q-94 0 -179 29t-142 83l45 45q111 -88 274 -88q132 0 219 61t87 181v145q-154 -75 -306 -75q-98 -1 -183 34.5t-141 110.5 t-56 176zM469 1120l129 246h113l-170 -246h-72z" />
<glyph unicode="&#xfe;" horiz-adv-x="1050" d="M158 -381v1829h73v-408q160 41 316 41q97 -1 181 -36.5t140 -111.5t56 -179v-449q0 -101 -56 -177t-142 -112.5t-185 -35.5q-184 4 -310 63v-424h-73zM231 123q157 -68 314 -68q79 1 146 27t112 83t45 136v453q0 81 -43.5 139.5t-110 84.5t-147.5 26q-191 0 -316 -43 v-838z" />
<glyph unicode="&#xff;" horiz-adv-x="1064" d="M150 301v758h73v-758q0 -120 88.5 -188t214.5 -68q90 1 149 17.5t161 62.5v934h71v-1147q0 -78 -32 -140t-85.5 -98.5t-119 -55.5t-138.5 -19q-94 0 -179 29t-142 83l45 45q111 -88 274 -88q132 0 219 61t87 181v145q-154 -75 -306 -75q-98 -1 -183 34.5t-141 110.5 t-56 176zM293 1313q0 26 18 43.5t43 17.5q26 0 44 -17.5t18 -43.5q0 -25 -18 -43.5t-44 -18.5q-25 0 -43 18.5t-18 43.5zM651 1313q0 26 18 43.5t44 17.5q25 0 43 -17.5t18 -43.5q0 -25 -18 -43.5t-43 -18.5q-26 0 -44 18.5t-18 43.5z" />
<glyph unicode="&#x152;" horiz-adv-x="1921" d="M137 420v618q0 102 47 184t125 133t175 78.5t202 28.5q71 0 155.5 -22.5t149.5 -65.5v76h826v-74h-746v-614h682v-76h-682v-610h746v-76h-826v68q-152 -79 -315 -76q-104 2 -199.5 30.5t-172 81t-122 134.5t-45.5 182zM217 420q0 -84 40 -151.5t107 -109.5t150.5 -64.5 t173.5 -22.5q162 0 303 75v1158q-153 80 -303 77q-91 0 -173.5 -20.5t-150 -61t-107.5 -108t-40 -154.5v-618z" />
<glyph unicode="&#x153;" horiz-adv-x="1687" d="M127 309v441q0 78 33 141.5t87.5 102.5t122 59.5t140.5 21.5q112 -2 208.5 -52.5t135.5 -143.5q43 94 138 142t206 48q72 0 139 -20.5t121.5 -59.5t87.5 -102.5t33 -141.5v-266h-688v-168q-1 -121 88.5 -184.5t218.5 -63.5q90 0 165.5 34t113.5 100l67 -35 q-45 -85 -139.5 -129.5t-206.5 -44.5q-113 0 -206 46.5t-138 143.5q-44 -100 -136 -146t-208 -48q-73 1 -140.5 21.5t-122 59.5t-87.5 102.5t-33 141.5zM201 309q0 -63 27 -113t71.5 -79.5t98.5 -44.5t112 -15q73 0 137.5 22.5t112.5 75.5t55 128v491q-5 57 -33.5 101.5 t-72.5 70.5t-94.5 39.5t-104.5 13.5q-80 0 -147.5 -24.5t-114.5 -82.5t-47 -142v-441zM891 547h614v203q0 80 -45.5 137.5t-113.5 83.5t-148 26q-129 0 -218.5 -64t-88.5 -183v-203z" />
<glyph unicode="&#x178;" horiz-adv-x="1105" d="M25 1448h92l436 -801l434 801h94l-489 -875v-573h-80v573zM315 1681q0 26 18.5 44t43.5 18q26 0 43.5 -18t17.5 -44q0 -25 -17.5 -43t-43.5 -18q-25 0 -43.5 18t-18.5 43zM674 1681q0 26 17.5 44t43.5 18q25 0 43.5 -18t18.5 -44q0 -25 -18.5 -43t-43.5 -18 q-26 0 -43.5 18t-17.5 43z" />
<glyph unicode="&#x2c6;" horiz-adv-x="659" d="M74 1567l235 227h70l235 -227h-102l-168 162l-168 -162h-102z" />
<glyph unicode="&#x2dc;" horiz-adv-x="555" d="M-25 1616q3 72 46 115.5t100 46.5q32 2 62.5 -11.5t54.5 -33.5t46 -40t46 -33.5t47 -12.5q79 6 94 108l57 -14q-3 -69 -42.5 -114t-102.5 -48q-31 -2 -60 11.5t-52.5 33.5t-45.5 40t-48 33.5t-52 12.5q-34 -2 -60.5 -30.5t-33.5 -80.5z" />
<glyph unicode="&#x2000;" horiz-adv-x="897" />
<glyph unicode="&#x2001;" horiz-adv-x="1794" />
<glyph unicode="&#x2002;" horiz-adv-x="897" />
<glyph unicode="&#x2003;" horiz-adv-x="1794" />
<glyph unicode="&#x2004;" horiz-adv-x="598" />
<glyph unicode="&#x2005;" horiz-adv-x="448" />
<glyph unicode="&#x2006;" horiz-adv-x="299" />
<glyph unicode="&#x2007;" horiz-adv-x="299" />
<glyph unicode="&#x2008;" horiz-adv-x="224" />
<glyph unicode="&#x2009;" horiz-adv-x="358" />
<glyph unicode="&#x200a;" horiz-adv-x="99" />
<glyph unicode="&#x2010;" horiz-adv-x="866" d="M143 575v78h580v-78h-580z" />
<glyph unicode="&#x2011;" horiz-adv-x="866" d="M143 575v78h580v-78h-580z" />
<glyph unicode="&#x2012;" horiz-adv-x="866" d="M143 575v78h580v-78h-580z" />
<glyph unicode="&#x2013;" horiz-adv-x="1196" d="M143 575v76h910v-76h-910z" />
<glyph unicode="&#x2014;" horiz-adv-x="2080" d="M143 575v76h1794v-76h-1794z" />
<glyph unicode="&#x2018;" horiz-adv-x="432" d="M119 1061q25 77 72 197.5t71 191.5h74l-115 -389h-102z" />
<glyph unicode="&#x2019;" horiz-adv-x="430" d="M121 1059l117 391h106q-25 -77 -74 -198.5t-73 -192.5h-76z" />
<glyph unicode="&#x201a;" horiz-adv-x="409" d="M45 -262l117 344h104l-143 -344h-78z" />
<glyph unicode="&#x201c;" horiz-adv-x="688" d="M119 1059l133 391h78l-105 -391h-106zM379 1059l133 391h78l-105 -391h-106z" />
<glyph unicode="&#x201d;" horiz-adv-x="665" d="M123 1061l92 389h102l-120 -389h-74zM377 1061l92 389h102l-120 -389h-74z" />
<glyph unicode="&#x201e;" horiz-adv-x="690" d="M57 -262l115 364h107q-25 -70 -72.5 -184t-71.5 -180h-78zM315 -262l115 364h107q-25 -70 -72.5 -184t-71.5 -180h-78z" />
<glyph unicode="&#x2022;" horiz-adv-x="780" d="M166 725q0 92 66.5 158.5t158.5 66.5t158.5 -66.5t66.5 -158.5t-66.5 -158.5t-158.5 -66.5t-158.5 66.5t-66.5 158.5z" />
<glyph unicode="&#x2026;" horiz-adv-x="1378" d="M143 86q0 51 34 85t85 34t85 -34t34 -85t-34 -85t-85 -34t-85 34t-34 85zM571 86q0 51 34 85t85 34t85 -34t34 -85t-34 -85t-85 -34t-85 34t-34 85zM997 86q0 51 34 85t85 34t85 -34t34 -85t-34 -85t-85 -34t-85 34t-34 85z" />
<glyph unicode="&#x202f;" horiz-adv-x="358" />
<glyph unicode="&#x2039;" horiz-adv-x="532" d="M86 604l262 389q14 -8 35 -22t29 -19l-240 -348q10 -15 238 -348q-15 -8 -32.5 -20t-29.5 -19z" />
<glyph unicode="&#x203a;" horiz-adv-x="532" d="M121 256l239 348q-47 70 -237 348q15 8 32 20t29 19l262 -387l-262 -389q-14 8 -34.5 22t-28.5 19z" />
<glyph unicode="&#x205f;" horiz-adv-x="448" />
<glyph unicode="&#x20ac;" horiz-adv-x="1234" d="M82 598l12 66h119v120h-125l12 66h113v194q0 102 41 184.5t109 134.5t152.5 79.5t176.5 27.5q139 0 257 -59.5t179 -173.5l-73 -37q-51 96 -148.5 142.5t-214.5 46.5q-77 0 -148.5 -22.5t-128 -65t-90.5 -109t-34 -148.5v-194h551l-13 -66h-538v-120h551l-8 -66h-543 v-195q0 -83 33.5 -149.5t89.5 -108t126 -63t146 -21.5q120 0 219 47t150 142l73 -37q-61 -114 -180.5 -173.5t-261.5 -59.5q-91 0 -174.5 27t-151 78t-107.5 133.5t-40 184.5v195h-131z" />
<glyph unicode="&#x2122;" horiz-adv-x="1695" d="M70 1391v59h598v-59h-267v-699h-65v699h-266zM807 692v758h92l272 -594q49 109 149.5 327t123.5 267h92v-758h-66l9 694l-275 -598h-65l-273 586q0 -98 2 -340t2 -342h-63z" />
<glyph unicode="&#x25fc;" horiz-adv-x="1064" d="M0 0v1065h1065v-1065h-1065z" />
</font>
</defs>
</svg>
