<?xml version="1.0" encoding="utf-8"?>
<!-- Generator: Adobe Illustrator 16.0.0, SVG Export Plug-In . SVG Version: 6.00 Build 0)  -->
<!DOCTYPE svg PUBLIC "-//W3C//DTD SVG 1.1//EN" "http://www.w3.org/Graphics/SVG/1.1/DTD/svg11.dtd">
<svg version="1.1" id="Isolation_Mode" xmlns="http://www.w3.org/2000/svg" xmlns:xlink="http://www.w3.org/1999/xlink" x="0px"
	 y="0px" width="60.854px" height="57.615px" viewBox="0 0 60.854 57.615" enable-background="new 0 0 60.854 57.615"
	 xml:space="preserve">
<g>
	<path fill="#A4A3A3" d="M3.353,50.13h54.149c0.998,0,1.805-0.809,1.805-1.805V3.2c0-0.996-0.807-1.805-1.805-1.805H3.353
		c-0.996,0-1.805,0.809-1.805,1.805v45.125C1.547,49.321,2.356,50.13,3.353,50.13z M5.157,46.521V15.834h50.54v30.686H5.157z
		 M55.697,5.004v7.221H5.157V5.004H55.697z"/>
	<path fill="#A4A3A3" d="M10.572,10.42c0.469,0,0.939-0.189,1.281-0.533c0.335-0.334,0.524-0.795,0.524-1.271
		c0-0.47-0.189-0.939-0.533-1.273c-0.668-0.677-1.877-0.677-2.545,0C8.958,7.676,8.767,8.136,8.767,8.616
		c0,0.477,0.19,0.938,0.533,1.281C9.634,10.231,10.104,10.42,10.572,10.42z"/>
	<path fill="#A4A3A3" d="M15.988,10.42c0.469,0,0.939-0.189,1.271-0.533c0.344-0.334,0.533-0.795,0.533-1.271
		c0-0.479-0.189-0.939-0.533-1.273c-0.668-0.677-1.877-0.677-2.545,0c-0.342,0.334-0.532,0.794-0.532,1.273
		c0,0.477,0.19,0.938,0.532,1.281C15.049,10.231,15.509,10.42,15.988,10.42z"/>
	<path fill="#A4A3A3" d="M21.402,10.42c0.479,0,0.939-0.189,1.273-0.523c0.344-0.344,0.531-0.805,0.531-1.281
		c0-0.479-0.188-0.939-0.531-1.282c-0.668-0.668-1.878-0.668-2.546,0.009c-0.342,0.334-0.532,0.804-0.532,1.273
		c0,0.477,0.19,0.938,0.532,1.281C20.464,10.231,20.924,10.42,21.402,10.42z"/>
	<path fill="#A4A3A3" d="M50.282,19.445H10.572c-0.996,0-1.805,0.808-1.805,1.806c0,0.996,0.809,1.805,1.805,1.805h39.709
		c0.997,0,1.805-0.809,1.805-1.805C52.086,20.252,51.279,19.445,50.282,19.445z"/>
	<path fill="#A4A3A3" d="M50.282,26.665H10.572c-0.996,0-1.805,0.809-1.805,1.805c0,0.997,0.809,1.805,1.805,1.805h39.709
		c0.997,0,1.805-0.809,1.805-1.805C52.086,27.473,51.279,26.665,50.282,26.665z"/>
	<path fill="#A4A3A3" d="M50.282,33.886H10.572c-0.996,0-1.805,0.807-1.805,1.805c0,0.996,0.809,1.805,1.805,1.805h39.709
		c0.997,0,1.805-0.809,1.805-1.805C52.086,34.692,51.279,33.886,50.282,33.886z"/>
</g>
</svg>
