<?xml version="1.0" encoding="utf-8"?>
<!-- Generator: Adobe Illustrator 16.0.0, SVG Export Plug-In . SVG Version: 6.00 Build 0)  -->
<!DOCTYPE svg PUBLIC "-//W3C//DTD SVG 1.1//EN" "http://www.w3.org/Graphics/SVG/1.1/DTD/svg11.dtd">
<svg version="1.1" id="Isolation_Mode" xmlns="http://www.w3.org/2000/svg" xmlns:xlink="http://www.w3.org/1999/xlink" x="0px"
	 y="0px" width="60.854px" height="57.615px" viewBox="0 0 60.854 57.615" enable-background="new 0 0 60.854 57.615"
	 xml:space="preserve">
<g>
	<path fill="#A4A3A3" d="M27.301,3.573c11.819,0,21.437,9.617,21.437,21.437c0,11.819-9.617,21.436-21.437,21.436
		c-3.749,0-7.082-0.119-9.893-1.585c-0.873-0.454-1.952-0.115-2.41,0.76c-0.456,0.875-0.115,1.953,0.76,2.409
		c2.503,1.305,5.142,1.753,7.971,1.907v3.654h-5.36c-0.986,0-1.786,0.801-1.786,1.787c0,0.987,0.8,1.786,1.786,1.786H32.66
		c0.986,0,1.786-0.799,1.786-1.786c0-0.986-0.8-1.787-1.786-1.787h-5.359v-3.572c13.79,0,25.009-11.219,25.009-25.009
		S41.091,0,27.301,0c-0.987,0-1.787,0.801-1.787,1.787C25.513,2.773,26.314,3.573,27.301,3.573z"/>
	<path fill="#A4A3A3" d="M27.301,43.767c10.343,0,18.757-8.414,18.757-18.757c0-10.343-8.414-18.756-18.757-18.756
		S8.544,14.667,8.544,25.01C8.543,35.353,16.958,43.767,27.301,43.767z M27.301,9.826c8.373,0,15.184,6.811,15.184,15.184
		s-6.811,15.184-15.184,15.184S12.117,33.383,12.117,25.01S18.928,9.826,27.301,9.826z"/>
</g>
</svg>
