<?xml version="1.0" encoding="utf-8"?>
<!-- Generator: Adobe Illustrator 16.0.0, SVG Export Plug-In . SVG Version: 6.00 Build 0)  -->
<!DOCTYPE svg PUBLIC "-//W3C//DTD SVG 1.1//EN" "http://www.w3.org/Graphics/SVG/1.1/DTD/svg11.dtd">
<svg version="1.1" id="Isolation_Mode" xmlns="http://www.w3.org/2000/svg" xmlns:xlink="http://www.w3.org/1999/xlink" x="0px"
	 y="0px" width="60.854px" height="57.615px" viewBox="0 0 60.854 57.615" enable-background="new 0 0 60.854 57.615"
	 xml:space="preserve">
<g>
	<path fill="#A4A3A3" d="M27.625,3.537c11.943,0,21.66,9.717,21.66,21.66s-9.717,21.66-21.66,21.66
		c-3.788,0-7.155-0.121-9.996-1.602c-0.882-0.459-1.973-0.117-2.434,0.767s-0.117,1.974,0.767,2.435
		c2.529,1.318,5.195,1.771,8.054,1.927v3.692H18.6c-0.997,0-1.805,0.809-1.805,1.806s0.808,1.805,1.805,1.805h14.44
		c0.997,0,1.805-0.808,1.805-1.805s-0.808-1.806-1.805-1.806h-5.415v-3.609c13.934,0,25.27-11.336,25.27-25.27
		s-11.336-25.27-25.27-25.27c-0.997,0-1.805,0.809-1.805,1.805C25.819,2.729,26.628,3.537,27.625,3.537z"/>
	<path fill="#A4A3A3" d="M27.625,44.149c10.45,0,18.952-8.502,18.952-18.952c0-10.451-8.502-18.952-18.952-18.952
		c-10.45,0-18.952,8.501-18.952,18.952C8.672,35.647,17.175,44.149,27.625,44.149z M27.625,9.855c8.46,0,15.342,6.882,15.342,15.342
		s-6.882,15.342-15.342,15.342s-15.342-6.882-15.342-15.342S19.165,9.855,27.625,9.855z"/>
</g>
</svg>
