<?xml version="1.0" encoding="utf-8"?>
<!-- Generator: Adobe Illustrator 16.0.0, SVG Export Plug-In . SVG Version: 6.00 Build 0)  -->
<!DOCTYPE svg PUBLIC "-//W3C//DTD SVG 1.1//EN" "http://www.w3.org/Graphics/SVG/1.1/DTD/svg11.dtd">
<svg version="1.1" id="Isolation_Mode" xmlns="http://www.w3.org/2000/svg" xmlns:xlink="http://www.w3.org/1999/xlink" x="0px"
	 y="0px" width="60.854px" height="57.615px" viewBox="0 0 60.854 57.615" enable-background="new 0 0 60.854 57.615"
	 xml:space="preserve">
<g>
	<path fill="#A4A3A3" d="M57.859,21.595l-7.847-3.138V1.724c0-0.992-0.804-1.795-1.796-1.795H12.317
		c-0.991,0-1.794,0.803-1.794,1.795v16.734l-7.847,3.138c-0.701,0.282-1.125,0.956-1.126,1.667H1.547v32.31
		c0,0.992,0.804,1.795,1.795,1.795h53.849c0.991,0,1.795-0.803,1.795-1.795v-32.31h-0.002C58.985,22.551,58.56,21.877,57.859,21.595
		z M53.561,23.744l-3.549,2.205v-3.623L53.561,23.744z M46.422,3.518v16.184c0,0.003,0,0.006,0,0.01v8.464L30.267,38.203
		L14.112,28.176v-8.464c0-0.004,0-0.007,0-0.01V3.518H46.422z M10.522,25.948l-3.549-2.205l3.549-1.418V25.948z M5.137,53.777V26.83
		l24.184,15.01c0.29,0.18,0.617,0.271,0.946,0.271s0.657-0.091,0.946-0.271l24.184-15.01v26.947H5.137z"/>
	<path fill="#A4A3A3" d="M33.857,10.698h7.181c0.991,0,1.795-0.803,1.795-1.794c0-0.992-0.804-1.796-1.795-1.796h-7.181
		c-0.99,0-1.795,0.804-1.795,1.796C32.062,9.895,32.867,10.698,33.857,10.698z"/>
	<path fill="#A4A3A3" d="M19.498,17.878h21.54c0.991,0,1.795-0.804,1.795-1.795s-0.804-1.795-1.795-1.795h-21.54
		c-0.992,0-1.795,0.804-1.795,1.795S18.506,17.878,19.498,17.878z"/>
	<path fill="#A4A3A3" d="M19.498,25.059h21.54c0.991,0,1.795-0.804,1.795-1.796c0-0.991-0.804-1.794-1.795-1.794h-21.54
		c-0.992,0-1.795,0.803-1.795,1.794C17.702,24.254,18.506,25.059,19.498,25.059z"/>
</g>
</svg>
