<?xml version="1.0" encoding="utf-8"?>
<!-- Generator: Adobe Illustrator 16.0.0, SVG Export Plug-In . SVG Version: 6.00 Build 0)  -->
<!DOCTYPE svg PUBLIC "-//W3C//DTD SVG 1.1//EN" "http://www.w3.org/Graphics/SVG/1.1/DTD/svg11.dtd">
<svg version="1.1" id="Isolation_Mode" xmlns="http://www.w3.org/2000/svg" xmlns:xlink="http://www.w3.org/1999/xlink" x="0px"
	 y="0px" width="57.417px" height="57.615px" viewBox="0 0 57.417 57.615" enable-background="new 0 0 57.417 57.615"
	 xml:space="preserve">
<path fill="#A4A3A3" d="M47.438,3.274v44.98H9.981V3.274H47.438 M50.709,0.001H6.708v51.527h44.001V0.001L50.709,0.001z"/>
<path fill="#A4A3A3" d="M40.938,9.72v21.092H16.481V9.72H40.938 M44.209,6.446H13.208v27.639h31.001V6.446L44.209,6.446z"/>
<g>
	<path fill="#A4A3A3" d="M14.659,42.589c0-0.232,0.023-0.441,0.07-0.626c0.049-0.185,0.125-0.355,0.23-0.511
		c0.105-0.156,0.246-0.303,0.424-0.44s0.393-0.274,0.646-0.412c0.301-0.163,0.51-0.317,0.625-0.46
		c0.117-0.143,0.176-0.316,0.176-0.523c0-0.221-0.068-0.379-0.203-0.471c-0.135-0.093-0.363-0.139-0.686-0.139
		c-0.158,0-0.332,0.015-0.52,0.043c-0.188,0.029-0.365,0.068-0.535,0.115l-0.117-1.205c0.311-0.073,0.611-0.127,0.898-0.162
		c0.289-0.034,0.551-0.051,0.789-0.051c1.279,0,1.918,0.555,1.918,1.664c0,0.417-0.102,0.783-0.301,1.098
		c-0.201,0.314-0.521,0.605-0.959,0.875c-0.207,0.127-0.371,0.231-0.496,0.313s-0.219,0.15-0.285,0.206s-0.109,0.104-0.131,0.146
		c-0.021,0.043-0.031,0.093-0.031,0.15v0.207h2.146v1.283h-3.66V42.589z"/>
	<path fill="#A4A3A3" d="M21.007,43.77c-0.691,0-1.225-0.236-1.6-0.709c-0.377-0.474-0.564-1.15-0.564-2.033
		c0-2.187,0.943-3.28,2.83-3.28c0.174,0,0.357,0.013,0.547,0.039s0.393,0.066,0.609,0.119l-0.182,1.181
		c-0.195-0.042-0.367-0.073-0.516-0.091c-0.146-0.02-0.281-0.028-0.404-0.028c-0.428,0-0.748,0.097-0.963,0.29
		c-0.213,0.192-0.352,0.521-0.416,0.986c0.127-0.105,0.279-0.189,0.457-0.25c0.176-0.061,0.371-0.091,0.582-0.091
		c0.264,0,0.504,0.042,0.721,0.126c0.217,0.086,0.402,0.204,0.555,0.357c0.154,0.153,0.271,0.341,0.354,0.562
		c0.082,0.223,0.123,0.468,0.123,0.737c0,0.322-0.049,0.612-0.146,0.872c-0.098,0.258-0.24,0.478-0.424,0.657
		c-0.186,0.18-0.408,0.317-0.67,0.412S21.341,43.77,21.007,43.77z M21.007,40.996c-0.137,0-0.27,0.027-0.396,0.083
		s-0.227,0.125-0.301,0.21c0.016,0.433,0.08,0.745,0.189,0.935c0.111,0.191,0.281,0.286,0.508,0.286c0.223,0,0.383-0.062,0.48-0.187
		c0.098-0.124,0.146-0.32,0.146-0.59c0-0.265-0.049-0.453-0.146-0.566C21.39,41.053,21.229,40.996,21.007,40.996z"/>
	<path fill="#A4A3A3" d="M25.548,43.714c-0.645,0-1.146-0.128-1.506-0.384c-0.359-0.257-0.539-0.617-0.539-1.082
		c0-0.333,0.064-0.622,0.193-0.868c0.131-0.245,0.334-0.453,0.615-0.621c-0.191-0.139-0.35-0.314-0.477-0.531
		s-0.189-0.513-0.189-0.889c0-0.237,0.045-0.453,0.135-0.649c0.09-0.195,0.217-0.362,0.385-0.499
		c0.166-0.137,0.367-0.244,0.602-0.32c0.234-0.077,0.496-0.115,0.781-0.115s0.543,0.038,0.775,0.115
		c0.232,0.076,0.434,0.184,0.6,0.32s0.295,0.304,0.389,0.499c0.092,0.196,0.139,0.412,0.139,0.649c0,0.281-0.045,0.514-0.131,0.698
		c-0.088,0.185-0.254,0.356-0.496,0.515c0.105,0.063,0.207,0.137,0.301,0.219c0.096,0.082,0.178,0.18,0.246,0.293
		s0.123,0.246,0.162,0.396s0.061,0.323,0.061,0.519c0,0.544-0.18,0.97-0.539,1.276S26.192,43.714,25.548,43.714z M26.188,42.138
		c0-0.127-0.021-0.236-0.066-0.326s-0.105-0.168-0.178-0.237c-0.074-0.068-0.162-0.128-0.262-0.179
		c-0.102-0.05-0.209-0.099-0.326-0.146c-0.137,0.106-0.246,0.223-0.328,0.35s-0.123,0.27-0.123,0.428
		c0,0.491,0.215,0.736,0.643,0.736S26.188,42.555,26.188,42.138z M24.993,39.442c0,0.206,0.072,0.357,0.217,0.456
		c0.146,0.098,0.33,0.184,0.551,0.257c0.123-0.105,0.209-0.221,0.262-0.348s0.08-0.28,0.08-0.46c0-0.396-0.186-0.595-0.555-0.595
		c-0.18,0-0.318,0.06-0.412,0.178C25.04,39.05,24.993,39.221,24.993,39.442z"/>
	<path fill="#A4A3A3" d="M29.273,43.778c-0.155,0-0.325-0.01-0.512-0.028s-0.41-0.049-0.67-0.091v-1.244h0.311
		c0.268,0.062,0.518,0.095,0.744,0.095c0.629,0,0.944-0.209,0.944-0.626c0-0.143-0.021-0.262-0.064-0.357
		c-0.041-0.095-0.113-0.17-0.217-0.226s-0.242-0.095-0.416-0.118c-0.176-0.024-0.397-0.036-0.667-0.036h-0.57l-0.033-0.032
		l0.207-3.289h2.87v1.269h-1.695l-0.064,0.991c0.766,0.01,1.324,0.159,1.672,0.447c0.35,0.288,0.523,0.738,0.523,1.352
		c0,0.597-0.207,1.062-0.621,1.395C30.597,43.611,30.017,43.778,29.273,43.778z"/>
</g>
</svg>
