<?xml version="1.0" encoding="utf-8"?>
<!-- Generator: Adobe Illustrator 16.0.0, SVG Export Plug-In . SVG Version: 6.00 Build 0)  -->
<!DOCTYPE svg PUBLIC "-//W3C//DTD SVG 1.1//EN" "http://www.w3.org/Graphics/SVG/1.1/DTD/svg11.dtd">
<svg version="1.1" id="Isolation_Mode" xmlns="http://www.w3.org/2000/svg" xmlns:xlink="http://www.w3.org/1999/xlink" x="0px"
	 y="0px" width="57.417px" height="57.615px" viewBox="0 0 57.417 57.615" enable-background="new 0 0 57.417 57.615"
	 xml:space="preserve">
<path fill="#A5A4A4" d="M47.437,3.147v44.981H9.98V3.147H47.437 M50.709-0.126H6.707v51.527h44.002V-0.126L50.709-0.126z"/>
<path fill="#A5A4A4" d="M40.937,9.592v21.093H16.48V9.592H40.937 M44.209,6.319H13.207v27.638h31.002V6.319L44.209,6.319z"/>
<g>
	<path fill="#A5A4A4" d="M15.884,43.351v-1.333h-2.479v-0.853l2.117-3.408h1.601v3.279h0.671v0.981h-0.671v1.333H15.884z
		 M15.884,41.036v-1.239c0-0.335,0.018-0.68,0.042-1.042h-0.034c-0.181,0.362-0.327,0.689-0.517,1.042l-0.749,1.222v0.018H15.884z"
		/>
	<path fill="#A5A4A4" d="M18.263,41.889c0-0.671,0.388-1.137,0.999-1.403V40.46c-0.542-0.276-0.809-0.731-0.809-1.222
		c0-0.948,0.851-1.576,1.971-1.576c1.307,0,1.85,0.758,1.85,1.437c0,0.483-0.258,0.957-0.809,1.232v0.025
		c0.542,0.207,1.024,0.671,1.024,1.394c0,1.017-0.852,1.696-2.151,1.696C18.917,43.446,18.263,42.646,18.263,41.889z M21.155,41.845
		c0-0.49-0.361-0.783-0.878-0.921c-0.43,0.121-0.679,0.431-0.679,0.836c-0.009,0.403,0.301,0.783,0.792,0.783
		C20.855,42.543,21.155,42.241,21.155,41.845z M19.684,39.194c0,0.379,0.345,0.619,0.792,0.758c0.301-0.087,0.567-0.362,0.567-0.714
		c0-0.345-0.198-0.69-0.679-0.69C19.916,38.548,19.684,38.842,19.684,39.194z"/>
	<path fill="#A5A4A4" d="M26.866,38.832h-2.169l-0.12,0.861c0.12-0.017,0.224-0.017,0.362-0.017c0.533,0,1.075,0.12,1.471,0.403
		c0.422,0.284,0.68,0.75,0.68,1.403c0,1.041-0.895,1.963-2.401,1.963c-0.68,0-1.248-0.156-1.558-0.319l0.232-0.98
		c0.25,0.12,0.757,0.276,1.266,0.276c0.542,0,1.119-0.26,1.119-0.854c0-0.575-0.456-0.93-1.575-0.93
		c-0.31,0-0.525,0.019-0.757,0.052l0.37-2.935h3.081V38.832z"/>
</g>
</svg>
