<?xml version="1.0" encoding="utf-8"?>
<!-- Generator: Adobe Illustrator 16.0.0, SVG Export Plug-In . SVG Version: 6.00 Build 0)  -->
<!DOCTYPE svg PUBLIC "-//W3C//DTD SVG 1.1//EN" "http://www.w3.org/Graphics/SVG/1.1/DTD/svg11.dtd">
<svg version="1.1" id="Isolation_Mode" xmlns="http://www.w3.org/2000/svg" xmlns:xlink="http://www.w3.org/1999/xlink" x="0px"
	 y="0px" width="60.854px" height="57.615px" viewBox="0 0 60.854 57.615" enable-background="new 0 0 60.854 57.615"
	 xml:space="preserve">
<g>
	<path fill="#A4A3A3" d="M30.426,17.383c-0.922,0-1.669,0.749-1.669,1.669V41.73l-3.829-3.827c-0.652-0.652-1.708-0.652-2.36,0
		s-0.652,1.71,0,2.36l6.677,6.679c0.327,0.325,0.753,0.488,1.18,0.488c0.426,0,0.854-0.163,1.18-0.488l6.678-6.679
		c0.652-0.65,0.652-1.708,0-2.36s-1.709-0.652-2.36,0l-3.829,3.827V19.052C32.095,18.131,31.347,17.383,30.426,17.383z"/>
	<path fill="#A4A3A3" d="M50.395,17.539C49.622,8.119,41.71,0.69,32.095,0.69c-8.533,0-15.894,5.537-18.02,13.354h-0.341
		c-5.524,0-10.016,4.493-10.016,10.016c0,5.523,4.492,10.015,10.016,10.015H23.75c0.922,0,1.669-0.747,1.669-1.67
		c0-0.921-0.747-1.67-1.669-1.67H13.734c-3.682,0-6.677-2.994-6.677-6.676s2.995-6.677,6.677-6.677h1.669
		c0.803,0,1.493-0.572,1.641-1.361c1.305-6.948,7.635-11.992,15.051-11.992c8.284,0,15.023,6.74,15.023,15.023
		c0,0.921,0.749,1.669,1.671,1.669c2.761,0,5.007,2.247,5.007,5.009c0,2.76-2.246,5.007-5.007,5.007H37.103
		c-0.922,0-1.67,0.748-1.67,1.669c0,0.923,0.748,1.669,1.67,1.669h11.687c4.603,0,8.346-3.743,8.346-8.344
		C57.135,21.677,54.232,18.29,50.395,17.539z"/>
</g>
</svg>
