<?xml version="1.0" encoding="utf-8"?>
<!-- Generator: Adobe Illustrator 16.0.0, SVG Export Plug-In . SVG Version: 6.00 Build 0)  -->
<!DOCTYPE svg PUBLIC "-//W3C//DTD SVG 1.1//EN" "http://www.w3.org/Graphics/SVG/1.1/DTD/svg11.dtd">
<svg version="1.1" id="Isolation_Mode" xmlns="http://www.w3.org/2000/svg" xmlns:xlink="http://www.w3.org/1999/xlink" x="0px"
	 y="0px" width="60.854px" height="57.615px" viewBox="0 0 60.854 57.615" enable-background="new 0 0 60.854 57.615"
	 xml:space="preserve">
<g>
	<path fill="#A4A3A3" d="M30.427,18.05c-0.997,0-1.805,0.809-1.805,1.805v24.521l-4.139-4.139c-0.705-0.705-1.847-0.705-2.552,0
		s-0.705,1.849,0,2.553l7.22,7.221c0.353,0.352,0.814,0.528,1.276,0.528c0.461,0,0.924-0.177,1.275-0.528l7.221-7.221
		c0.705-0.704,0.705-1.848,0-2.553s-1.848-0.705-2.553,0l-4.139,4.139V19.854C32.232,18.858,31.423,18.05,30.427,18.05z"/>
	<path fill="#A4A3A3" d="M52.019,18.218C51.184,8.032,42.628,0,32.232,0c-9.227,0-17.186,5.987-19.485,14.439h-0.369
		c-5.972,0-10.83,4.858-10.83,10.83s4.858,10.829,10.83,10.829h10.83c0.997,0,1.805-0.808,1.805-1.805
		c0-0.996-0.808-1.805-1.805-1.805h-10.83c-3.981,0-7.22-3.238-7.22-7.22s3.239-7.22,7.22-7.22h1.805
		c0.868,0,1.614-0.619,1.774-1.472C17.368,9.063,24.213,3.61,32.232,3.61c8.957,0,16.244,7.287,16.244,16.244
		c0,0.996,0.809,1.805,1.806,1.805c2.986,0,5.415,2.43,5.415,5.416c0,2.985-2.429,5.414-5.415,5.414H37.647
		c-0.997,0-1.806,0.809-1.806,1.805c0,0.997,0.809,1.805,1.806,1.805h12.635c4.977,0,9.025-4.048,9.025-9.023
		C59.307,22.692,56.167,19.03,52.019,18.218z"/>
</g>
</svg>
