<?xml version="1.0" encoding="utf-8"?>
<!-- Generator: Adobe Illustrator 16.0.0, SVG Export Plug-In . SVG Version: 6.00 Build 0)  -->
<!DOCTYPE svg PUBLIC "-//W3C//DTD SVG 1.1//EN" "http://www.w3.org/Graphics/SVG/1.1/DTD/svg11.dtd">
<svg version="1.1" id="Isolation_Mode" xmlns="http://www.w3.org/2000/svg" xmlns:xlink="http://www.w3.org/1999/xlink" x="0px"
	 y="0px" width="60.854px" height="57.615px" viewBox="0 0 60.854 57.615" enable-background="new 0 0 60.854 57.615"
	 xml:space="preserve">
<g>
	<path fill="#A4A3A3" d="M54.792,4.669H32.306c0-0.902,0-2.256,0-2.256c0-0.998-0.807-1.806-1.805-1.806
		c-0.996,0-1.804,0.808-1.804,1.806c0,0,0,1.354,0,2.256H6.062c-0.996,0-1.805,0.809-1.805,1.805V38.96
		c0,0.996,0.809,1.805,1.805,1.805h22.561v12.635h-7.221c-0.996,0-1.805,0.809-1.805,1.805c0,0.997,0.809,1.805,1.805,1.805h18.05
		c0.996,0,1.805-0.808,1.805-1.805c0-0.996-0.809-1.805-1.805-1.805h-7.221V40.765h22.561c0.996,0,1.805-0.809,1.805-1.805V6.474
		C56.597,5.478,55.789,4.669,54.792,4.669z M52.986,37.155H7.869V8.278h45.117V37.155z M18.203,25.29H36.82l-3.301,3.301
		c-0.705,0.705-0.705,1.848,0,2.553s1.848,0.705,2.553,0l6.381-6.382c0.084-0.084,0.158-0.177,0.227-0.274
		c0.029-0.047,0.051-0.097,0.076-0.145c0.031-0.055,0.062-0.107,0.09-0.166c0.023-0.062,0.039-0.127,0.057-0.191
		c0.016-0.049,0.033-0.096,0.045-0.146c0.045-0.233,0.045-0.475-0.002-0.708c-0.01-0.051-0.027-0.098-0.043-0.146
		c-0.018-0.064-0.033-0.129-0.057-0.191c-0.027-0.059-0.059-0.111-0.09-0.167c-0.025-0.047-0.047-0.097-0.076-0.144
		c-0.068-0.098-0.143-0.191-0.227-0.274l-6.381-6.382c-0.705-0.705-1.848-0.705-2.553,0s-0.705,1.848,0,2.553l3.301,3.301
		l-18.611,0.011c-1.805,0-1.811,1.794-1.811,1.794C16.398,24.482,17.207,25.29,18.203,25.29z"/>
</g>
</svg>
