<?xml version="1.0" encoding="utf-8"?>
<!-- Generator: Adobe Illustrator 16.0.0, SVG Export Plug-In . SVG Version: 6.00 Build 0)  -->
<!DOCTYPE svg PUBLIC "-//W3C//DTD SVG 1.1//EN" "http://www.w3.org/Graphics/SVG/1.1/DTD/svg11.dtd">
<svg version="1.1" id="Isolation_Mode" xmlns="http://www.w3.org/2000/svg" xmlns:xlink="http://www.w3.org/1999/xlink" x="0px"
	 y="0px" width="60.854px" height="57.615px" viewBox="0 0 60.854 57.615" enable-background="new 0 0 60.854 57.615"
	 xml:space="preserve">
<g>
	<path fill="#A4A3A3" d="M52.601,3.696H32.137c0-0.821,0-2.053,0-2.053C32.137,0.735,31.403,0,30.494,0
		c-0.906,0-1.642,0.735-1.642,1.644c0,0,0,1.232,0,2.053H8.253c-0.907,0-1.643,0.736-1.643,1.643v29.564
		c0,0.906,0.736,1.643,1.643,1.643h20.532v11.498h-6.572c-0.905,0-1.642,0.737-1.642,1.644c0,0.907,0.737,1.643,1.642,1.643h16.428
		c0.906,0,1.643-0.735,1.643-1.643c0-0.906-0.736-1.644-1.643-1.644h-6.572V36.546h20.532c0.907,0,1.643-0.736,1.643-1.643V5.339
		C54.243,4.433,53.508,3.696,52.601,3.696z M50.957,33.261H9.898V6.98h41.06V33.261z M19.302,22.463h16.942l-3.004,3.004
		c-0.642,0.642-0.642,1.682,0,2.323s1.683,0.642,2.323,0l5.809-5.808c0.076-0.077,0.143-0.161,0.206-0.25
		c0.026-0.043,0.046-0.088,0.069-0.132c0.028-0.05,0.056-0.097,0.081-0.151c0.021-0.056,0.036-0.116,0.052-0.174
		c0.016-0.044,0.03-0.087,0.042-0.133c0.041-0.212,0.041-0.432-0.003-0.644c-0.009-0.046-0.023-0.089-0.039-0.133
		c-0.016-0.058-0.029-0.117-0.052-0.173c-0.024-0.054-0.053-0.101-0.081-0.152c-0.023-0.042-0.043-0.088-0.069-0.131
		c-0.062-0.089-0.13-0.174-0.206-0.25l-5.809-5.808c-0.641-0.642-1.682-0.642-2.323,0c-0.642,0.642-0.642,1.681,0,2.323l3.004,3.005
		l-16.937,0.01c-1.643,0-1.648,1.632-1.648,1.632C17.659,21.728,18.396,22.463,19.302,22.463z"/>
</g>
</svg>
