<?xml version="1.0" encoding="utf-8"?>
<!-- Generator: Adobe Illustrator 16.0.0, SVG Export Plug-In . SVG Version: 6.00 Build 0)  -->
<!DOCTYPE svg PUBLIC "-//W3C//DTD SVG 1.1//EN" "http://www.w3.org/Graphics/SVG/1.1/DTD/svg11.dtd">
<svg version="1.1" id="Isolation_Mode" xmlns="http://www.w3.org/2000/svg" xmlns:xlink="http://www.w3.org/1999/xlink" x="0px"
	 y="0px" width="60.854px" height="57.615px" viewBox="0 0 60.854 57.615" enable-background="new 0 0 60.854 57.615"
	 xml:space="preserve">
<g>
	<path fill="#A4A3A3" d="M45.878,52.275c1.805,0,3.271-1.467,3.271-3.271V3.2c0-1.805-1.467-3.272-3.271-3.272H24.613
		c-1.339,0-3,0.688-3.95,1.637L11.526,10.7c-0.948,0.949-1.636,2.609-1.636,3.951v34.354c0,1.804,1.468,3.271,3.271,3.271H45.878
		L45.878,52.275z M45.878,3.2v45.804l0,0H13.161V14.651h8.179c1.806,0,3.271-1.466,3.271-3.271V3.2H45.878z M21.34,5.514v5.865
		h-5.865L21.34,5.514z"/>
	<path fill="#A4A3A3" d="M29.519,13.015h9.815c0.903,0,1.636-0.732,1.636-1.636c0-0.902-0.732-1.635-1.636-1.635h-9.815
		c-0.904,0-1.635,0.733-1.635,1.635C27.884,12.283,28.615,13.015,29.519,13.015z"/>
	<path fill="#A4A3A3" d="M39.334,17.922H19.705c-0.903,0-1.636,0.733-1.636,1.635c0,0.904,0.733,1.635,1.636,1.635h19.629
		c0.903,0,1.636-0.731,1.636-1.635C40.97,18.655,40.238,17.922,39.334,17.922z"/>
	<path fill="#A4A3A3" d="M39.334,26.102H19.705c-0.903,0-1.636,0.732-1.636,1.636c0,0.902,0.733,1.634,1.636,1.634h19.629
		c0.903,0,1.636-0.732,1.636-1.634C40.97,26.834,40.238,26.102,39.334,26.102z"/>
	<path fill="#A4A3A3" d="M39.334,34.28H19.705c-0.903,0-1.636,0.732-1.636,1.636c0,0.902,0.733,1.637,1.636,1.637h19.629
		c0.903,0,1.636-0.734,1.636-1.637C40.97,35.013,40.238,34.28,39.334,34.28z"/>
	<path fill="#A4A3A3" d="M39.334,42.46H19.705c-0.903,0-1.636,0.732-1.636,1.635c0,0.903,0.733,1.636,1.636,1.636h19.629
		c0.903,0,1.636-0.732,1.636-1.636C40.97,43.192,40.238,42.46,39.334,42.46z"/>
</g>
</svg>
