<?xml version="1.0" encoding="utf-8"?>
<!-- Generator: Adobe Illustrator 16.0.0, SVG Export Plug-In . SVG Version: 6.00 Build 0)  -->
<!DOCTYPE svg PUBLIC "-//W3C//DTD SVG 1.1//EN" "http://www.w3.org/Graphics/SVG/1.1/DTD/svg11.dtd">
<svg version="1.1" id="Isolation_Mode" xmlns="http://www.w3.org/2000/svg" xmlns:xlink="http://www.w3.org/1999/xlink" x="0px"
	 y="0px" width="60.854px" height="57.615px" viewBox="0 0 60.854 57.615" enable-background="new 0 0 60.854 57.615"
	 xml:space="preserve">
<g>
	<path fill="#A4A3A3" d="M47.237,57.292c1.977,0,3.585-1.608,3.585-3.585V3.513c0-1.978-1.608-3.585-3.585-3.585H23.933
		c-1.468,0-3.288,0.754-4.328,1.793L9.592,11.733c-1.039,1.04-1.793,2.859-1.793,4.329v37.646c0,1.977,1.608,3.585,3.585,3.585
		H47.237z M47.237,3.513v50.194l0,0H11.384V16.062h8.963c1.978,0,3.585-1.607,3.585-3.585V3.513H47.237z M20.347,6.049v6.427h-6.428
		L20.347,6.049z"/>
	<path fill="#A4A3A3" d="M29.31,14.269h10.756c0.989,0,1.792-0.802,1.792-1.793c0-0.989-0.803-1.792-1.792-1.792H29.31
		c-0.99,0-1.792,0.803-1.792,1.792C27.518,13.467,28.32,14.269,29.31,14.269z"/>
	<path fill="#A4A3A3" d="M40.066,19.647H18.555c-0.989,0-1.792,0.803-1.792,1.792c0,0.99,0.803,1.792,1.792,1.792h21.511
		c0.989,0,1.792-0.802,1.792-1.792C41.858,20.45,41.055,19.647,40.066,19.647z"/>
	<path fill="#A4A3A3" d="M40.066,28.611H18.555c-0.989,0-1.792,0.802-1.792,1.792c0,0.989,0.803,1.792,1.792,1.792h21.511
		c0.989,0,1.792-0.803,1.792-1.792C41.858,29.413,41.055,28.611,40.066,28.611z"/>
	<path fill="#A4A3A3" d="M40.066,37.572H18.555c-0.989,0-1.792,0.803-1.792,1.793s0.803,1.794,1.792,1.794h21.511
		c0.989,0,1.792-0.804,1.792-1.794S41.055,37.572,40.066,37.572z"/>
	<path fill="#A4A3A3" d="M40.066,46.536H18.555c-0.989,0-1.792,0.803-1.792,1.792c0,0.99,0.803,1.792,1.792,1.792h21.511
		c0.989,0,1.792-0.802,1.792-1.792C41.858,47.339,41.055,46.536,40.066,46.536z"/>
</g>
</svg>
