<?xml version="1.0" encoding="utf-8"?>
<!-- Generator: Adobe Illustrator 16.0.0, SVG Export Plug-In . SVG Version: 6.00 Build 0)  -->
<!DOCTYPE svg PUBLIC "-//W3C//DTD SVG 1.1//EN" "http://www.w3.org/Graphics/SVG/1.1/DTD/svg11.dtd">
<svg version="1.1" id="Isolation_Mode" xmlns="http://www.w3.org/2000/svg" xmlns:xlink="http://www.w3.org/1999/xlink" x="0px"
	 y="0px" width="60.854px" height="57.615px" viewBox="0 0 60.854 57.615" enable-background="new 0 0 60.854 57.615"
	 xml:space="preserve">
<g>
	<path fill="#A4A3A3" d="M39.91,26.139c-0.569-0.574-1.502-0.574-2.074,0l-1.161,1.162l-2.327-2.327l5.135-5.134h2.324
		c5.76,0,8.803-3.552,8.803-10.27c0-0.508-0.263-0.979-0.695-1.248c-0.431-0.267-0.972-0.292-1.427-0.063l-4.923,2.459l-1.438-1.438
		l2.46-4.924c0.227-0.454,0.203-0.994-0.065-1.427c-0.265-0.431-0.736-0.695-1.245-0.695c-6.718,0-10.27,3.044-10.27,8.802v2.327
		l-5.134,5.134l-8.195-8.195l1.162-1.163c0.321-0.319,0.475-0.768,0.419-1.216c-0.054-0.449-0.315-0.847-0.7-1.08l-7.336-4.401
		c-0.578-0.346-1.316-0.254-1.792,0.221L9.964,4.132C9.488,4.607,9.395,5.348,9.743,5.926l4.4,7.334
		c0.231,0.388,0.629,0.646,1.079,0.701c0.061,0.008,0.12,0.011,0.181,0.011c0.386,0,0.76-0.153,1.035-0.43l1.165-1.164l8.194,8.194
		l-17.3,17.302c-0.162,0.16-0.283,0.355-0.356,0.573l-1.467,4.4c-0.176,0.525-0.038,1.108,0.354,1.502l1.469,1.467
		c0.279,0.279,0.654,0.43,1.035,0.43c0.156,0,0.314-0.023,0.464-0.075l4.402-1.469c0.216-0.071,0.413-0.191,0.573-0.353l17.3-17.301
		l2.327,2.326l-1.164,1.162c-0.573,0.574-0.573,1.502,0,2.076L46.64,45.816c0.287,0.288,0.661,0.431,1.038,0.431
		c0.374,0,0.75-0.143,1.035-0.431l4.401-4.4c0.573-0.573,0.573-1.501,0-2.075L39.91,26.139z M15.693,10.139l-2.615-4.359
		l4.358,2.616L15.693,10.139z M13.142,42.03l-3.212,1.071l-0.185-0.187l1.071-3.212L35.51,15.009
		c0.275-0.274,0.431-0.647,0.431-1.036v-2.934c0-2.483,0.635-5.014,4.872-5.691L39.03,8.914c-0.282,0.565-0.172,1.248,0.275,1.694
		l2.933,2.934c0.446,0.447,1.129,0.558,1.694,0.276l3.57-1.786c-0.679,4.236-3.21,4.874-5.695,4.874h-2.933
		c-0.39,0-0.763,0.156-1.038,0.431L13.142,42.03z M47.678,42.705L36.547,31.577l2.327-2.328l11.127,11.128L47.678,42.705z"/>
</g>
</svg>
