<?xml version="1.0" encoding="utf-8"?>
<!-- Generator: Adobe Illustrator 16.0.0, SVG Export Plug-In . SVG Version: 6.00 Build 0)  -->
<!DOCTYPE svg PUBLIC "-//W3C//DTD SVG 1.1//EN" "http://www.w3.org/Graphics/SVG/1.1/DTD/svg11.dtd">
<svg version="1.1" id="Isolation_Mode" xmlns="http://www.w3.org/2000/svg" xmlns:xlink="http://www.w3.org/1999/xlink" x="0px"
	 y="0px" width="60.854px" height="57.615px" viewBox="0 0 60.854 57.615" enable-background="new 0 0 60.854 57.615"
	 xml:space="preserve">
<g>
	<path fill="#A4A3A3" d="M40.986,29.409c-0.703-0.706-1.848-0.706-2.553,0l-1.43,1.43l-2.863-2.862l6.318-6.317h2.861
		c7.086,0,10.83-4.37,10.83-12.635c0-0.626-0.324-1.206-0.857-1.536c-0.529-0.328-1.195-0.359-1.754-0.078l-6.057,3.027l-1.77-1.77
		l3.027-6.057c0.279-0.559,0.25-1.224-0.08-1.756C46.332,0.325,45.751,0,45.125,0C36.861,0,32.49,3.745,32.49,10.83v2.862
		l-6.317,6.318L16.091,9.927l1.43-1.431C17.915,8.103,18.104,7.551,18.036,7c-0.066-0.552-0.387-1.042-0.861-1.327L8.149,0.257
		C7.438-0.169,6.53-0.056,5.944,0.529L4.14,2.333C3.554,2.918,3.44,3.829,3.868,4.54l5.414,9.023
		c0.285,0.477,0.775,0.795,1.328,0.863c0.074,0.01,0.146,0.014,0.221,0.014c0.475,0,0.936-0.189,1.275-0.529l1.432-1.432
		L23.62,22.562L2.335,43.849c-0.199,0.197-0.348,0.439-0.438,0.705l-1.805,5.414c-0.217,0.648-0.047,1.365,0.436,1.848l1.807,1.805
		c0.344,0.344,0.805,0.529,1.275,0.529c0.191,0,0.385-0.029,0.57-0.092l5.416-1.807c0.266-0.088,0.508-0.236,0.705-0.436
		L31.587,30.53l2.863,2.861l-1.432,1.432c-0.705,0.705-0.705,1.848,0,2.553L49.263,53.62c0.354,0.354,0.814,0.529,1.277,0.529
		c0.461,0,0.924-0.176,1.275-0.529l5.416-5.414c0.705-0.705,0.705-1.848,0-2.553L40.986,29.409z M11.188,9.723L7.97,4.36
		l5.363,3.218L11.188,9.723z M8.05,48.962L4.097,50.28L3.87,50.052l1.318-3.953l30.383-30.383c0.338-0.338,0.529-0.797,0.529-1.275
		v-3.61c0-3.055,0.783-6.169,5.996-7.003L39.9,8.217c-0.346,0.695-0.211,1.535,0.34,2.084l3.609,3.609
		c0.549,0.551,1.389,0.686,2.084,0.339l4.391-2.196c-0.834,5.211-3.949,5.996-7.004,5.996H39.71c-0.479,0-0.938,0.191-1.277,0.529
		L8.05,48.962z M50.541,49.792L36.847,36.101l2.863-2.863l13.691,13.691L50.541,49.792z"/>
</g>
</svg>
