<?xml version="1.0" encoding="utf-8"?>
<!-- Generator: Adobe Illustrator 16.0.0, SVG Export Plug-In . SVG Version: 6.00 Build 0)  -->
<!DOCTYPE svg PUBLIC "-//W3C//DTD SVG 1.1//EN" "http://www.w3.org/Graphics/SVG/1.1/DTD/svg11.dtd">
<svg version="1.1" id="Isolation_Mode" xmlns="http://www.w3.org/2000/svg" xmlns:xlink="http://www.w3.org/1999/xlink" x="0px"
	 y="0px" width="60.854px" height="57.615px" viewBox="0 0 60.854 57.615" enable-background="new 0 0 60.854 57.615"
	 xml:space="preserve">
<g>
	<path fill="#A4A3A3" d="M50.847,8.389c-5.455-5.456-12.707-8.461-20.42-8.461c-7.714,0-14.965,3.005-20.42,8.461
		c-5.456,5.453-8.46,12.705-8.46,20.419s3.005,14.966,8.46,20.419c5.455,5.456,12.706,8.461,20.42,8.461
		c7.713,0,14.965-3.005,20.42-8.461c5.455-5.453,8.459-12.705,8.459-20.419S56.302,13.842,50.847,8.389z M48.294,46.675
		c-4.773,4.773-11.117,7.402-17.867,7.402c-6.75,0-13.094-2.629-17.868-7.402c-4.773-4.772-7.403-11.118-7.403-17.867
		S7.786,15.713,12.56,10.94c4.773-4.773,11.118-7.402,17.867-7.402c6.75,0,13.094,2.629,17.867,7.402
		c4.773,4.772,7.402,11.118,7.402,17.867S53.068,41.902,48.294,46.675z M30.119,24.126c-1.337,0-2.425,1.089-2.425,2.426v13.066
		c0,1.337,1.088,2.426,2.425,2.426c1.338,0,2.426-1.089,2.426-2.426V26.552C32.544,25.215,31.457,24.126,30.119,24.126z
		 M30.119,21.564c1.332,0,2.42-1.084,2.426-2.419v-0.007c-0.01-1.328-1.098-2.407-2.426-2.407c-1.327,0-2.413,1.076-2.426,2.407
		v0.019C27.703,20.484,28.79,21.564,30.119,21.564z"/>
</g>
</svg>
