<?xml version="1.0" encoding="utf-8"?>
<!-- Generator: Adobe Illustrator 16.0.0, SVG Export Plug-In . SVG Version: 6.00 Build 0)  -->
<!DOCTYPE svg PUBLIC "-//W3C//DTD SVG 1.1//EN" "http://www.w3.org/Graphics/SVG/1.1/DTD/svg11.dtd">
<svg version="1.1" id="Isolation_Mode" xmlns="http://www.w3.org/2000/svg" xmlns:xlink="http://www.w3.org/1999/xlink" x="0px"
	 y="0px" width="60.854px" height="57.615px" viewBox="0 0 60.854 57.615" enable-background="new 0 0 60.854 57.615"
	 xml:space="preserve">
<g>
	<path fill="#A4A3A3" d="M48.448,8.034c-4.83-4.831-11.252-7.492-18.082-7.492c-6.831,0-13.251,2.661-18.082,7.492
		c-4.831,4.828-7.491,11.25-7.491,18.081s2.661,13.253,7.491,18.081c4.831,4.83,11.251,7.492,18.082,7.492
		c6.83,0,13.251-2.662,18.082-7.492c4.83-4.828,7.49-11.25,7.49-18.081S53.279,12.862,48.448,8.034z M46.187,41.936
		c-4.227,4.227-9.844,6.553-15.82,6.553c-5.977,0-11.594-2.326-15.822-6.553C10.319,37.709,7.99,32.09,7.99,26.114
		c0-5.976,2.329-11.595,6.556-15.822c4.227-4.226,9.845-6.554,15.821-6.554s11.593,2.328,15.82,6.554
		c4.227,4.226,6.555,9.845,6.555,15.821C52.741,32.09,50.415,37.707,46.187,41.936z M30.094,21.968
		c-1.184,0-2.148,0.964-2.148,2.148v11.569c0,1.184,0.964,2.148,2.148,2.148c1.184,0,2.147-0.965,2.147-2.148V24.116
		C32.241,22.933,31.279,21.968,30.094,21.968z M30.094,19.7c1.18,0,2.143-0.96,2.147-2.142v-0.006
		c-0.008-1.176-0.973-2.131-2.147-2.131c-1.175,0-2.137,0.953-2.149,2.131v0.017C27.955,18.743,28.918,19.7,30.094,19.7z"/>
</g>
</svg>
