<?xml version="1.0" encoding="utf-8"?>
<!-- Generator: Adobe Illustrator 16.0.0, SVG Export Plug-In . SVG Version: 6.00 Build 0)  -->
<!DOCTYPE svg PUBLIC "-//W3C//DTD SVG 1.1//EN" "http://www.w3.org/Graphics/SVG/1.1/DTD/svg11.dtd">
<svg version="1.1" id="Isolation_Mode" xmlns="http://www.w3.org/2000/svg" xmlns:xlink="http://www.w3.org/1999/xlink" x="0px"
	 y="0px" width="60.854px" height="57.615px" viewBox="0 0 60.854 57.615" enable-background="new 0 0 60.854 57.615"
	 xml:space="preserve">
<g>
	<path fill="#A4A3A3" d="M35.579,53.097c1.774,0,3.217-1.443,3.217-3.217V4.827c0-1.774-1.442-3.217-3.217-3.217h-9.654
		c-1.776,0-3.218,1.443-3.218,3.217v45.051c0,1.775,1.442,3.219,3.218,3.219H35.579L35.579,53.097z M25.925,4.827h9.653v4.828
		h-4.827c-0.888,0-1.609,0.72-1.609,1.609c0,0.888,0.722,1.609,1.609,1.609h4.827v4.826h-0.805c-0.889,0-1.609,0.722-1.609,1.61
		s0.721,1.608,1.609,1.608h0.805v4.828h-4.827c-0.888,0-1.609,0.721-1.609,1.609c0,0.889,0.722,1.608,1.609,1.608h4.827v4.828
		h-0.805c-0.889,0-1.609,0.721-1.609,1.609c0,0.888,0.721,1.61,1.609,1.61h0.805v4.825h-4.827c-0.888,0-1.609,0.722-1.609,1.609
		c0,0.89,0.722,1.61,1.609,1.61h4.827v4.826h-9.653V4.827z"/>
	<path fill="#A4A3A3" d="M14.663,52.251c0.9,0,1.687-0.54,2.158-1.482l1.778-3.558c0.506-1.016,0.89-2.634,0.89-3.769V6.436
		c0-1.773-1.444-3.217-3.218-3.217h-3.218c-1.775,0-3.217,1.443-3.217,3.217v37.007c0,1.135,0.383,2.754,0.89,3.77l1.778,3.558
		C12.974,51.711,13.761,52.251,14.663,52.251z M15.72,45.771l-1.059,2.119l-1.059-2.119c-0.283-0.564-0.55-1.697-0.55-2.329V14.481
		h3.218v28.961C16.271,44.074,16.005,45.207,15.72,45.771z M16.271,6.436v4.828h-3.218V6.436H16.271z"/>
	<path fill="#A4A3A3" d="M50.779,7.495L49,3.938c-0.471-0.943-1.258-1.484-2.158-1.484s-1.69,0.541-2.16,1.484l-1.778,3.557
		c-0.507,1.014-0.89,2.634-0.89,3.769v37.007c0,1.774,1.444,3.217,3.219,3.217h3.218c1.774,0,3.217-1.442,3.217-3.217h1.609
		c1.774,0,3.218-1.443,3.218-3.218v-6.437c0-0.888-0.721-1.608-1.61-1.608c-0.887,0-1.609,0.721-1.609,1.608v6.437h-1.608V11.264
		C51.668,10.129,51.286,8.509,50.779,7.495z M48.451,48.269h-3.219V11.264c0-0.632,0.268-1.764,0.55-2.329l1.06-2.118l1.059,2.118
		c0.281,0.566,0.55,1.697,0.55,2.329L48.451,48.269L48.451,48.269z"/>
</g>
</svg>
