<?xml version="1.0" encoding="utf-8"?>
<!-- Generator: Adobe Illustrator 16.0.0, SVG Export Plug-In . SVG Version: 6.00 Build 0)  -->
<!DOCTYPE svg PUBLIC "-//W3C//DTD SVG 1.1//EN" "http://www.w3.org/Graphics/SVG/1.1/DTD/svg11.dtd">
<svg version="1.1" id="Isolation_Mode" xmlns="http://www.w3.org/2000/svg" xmlns:xlink="http://www.w3.org/1999/xlink" x="0px"
	 y="0px" width="60.854px" height="57.615px" viewBox="0 0 60.854 57.615" enable-background="new 0 0 60.854 57.615"
	 xml:space="preserve">
<g>
	<path fill="#A4A3A3" d="M35.873,57.687c1.991,0,3.61-1.619,3.61-3.61V3.537c0-1.99-1.619-3.609-3.61-3.609H25.043
		c-1.992,0-3.61,1.619-3.61,3.609v50.539c0,1.991,1.618,3.61,3.61,3.61H35.873z M25.043,3.537h10.829v5.415h-5.415
		c-0.996,0-1.805,0.808-1.805,1.806c0,0.996,0.809,1.805,1.805,1.805h5.415v5.414H34.97c-0.997,0-1.806,0.809-1.806,1.806
		s0.809,1.805,1.806,1.805h0.902v5.415h-5.415c-0.996,0-1.805,0.809-1.805,1.805c0,0.997,0.809,1.805,1.805,1.805h5.415v5.416H34.97
		c-0.997,0-1.806,0.808-1.806,1.805c0,0.996,0.809,1.805,1.806,1.805h0.902v5.415h-5.415c-0.996,0-1.805,0.808-1.805,1.805
		s0.809,1.806,1.805,1.806h5.415v5.414H25.043V3.537z"/>
	<path fill="#A4A3A3" d="M12.409,56.738c1.01,0,1.893-0.606,2.422-1.664l1.994-3.99c0.568-1.139,0.998-2.955,0.998-4.228V5.342
		c0-1.99-1.619-3.609-3.609-3.609h-3.61c-1.991,0-3.61,1.619-3.61,3.609v41.515c0,1.272,0.43,3.089,0.998,4.228l1.996,3.99
		C10.515,56.132,11.398,56.738,12.409,56.738z M13.596,49.469l-1.188,2.377l-1.188-2.377c-0.317-0.633-0.617-1.903-0.617-2.612
		V14.367h3.61v32.489C14.213,47.565,13.914,48.836,13.596,49.469z M14.213,5.342v5.416h-3.61V5.342H14.213z"/>
	<path fill="#A4A3A3" d="M52.924,6.53l-1.995-3.991c-0.528-1.057-1.411-1.664-2.422-1.664c-1.01,0-1.894,0.607-2.422,1.664
		L44.09,6.53c-0.568,1.138-0.998,2.955-0.998,4.228v41.514c0,1.99,1.619,3.609,3.61,3.609h3.61c1.99,0,3.609-1.619,3.609-3.609
		h1.805c1.991,0,3.61-1.619,3.61-3.609v-7.221c0-0.996-0.809-1.805-1.806-1.805c-0.996,0-1.805,0.809-1.805,1.805v7.221h-1.805
		V10.758C53.922,9.485,53.493,7.668,52.924,6.53z M50.313,52.271h-3.61V10.758c0-0.709,0.3-1.979,0.616-2.613l1.188-2.375
		l1.188,2.375c0.316,0.635,0.617,1.904,0.617,2.613V52.271z"/>
</g>
</svg>
