<?xml version="1.0" encoding="utf-8"?>
<!-- Generator: Adobe Illustrator 16.0.0, SVG Export Plug-In . SVG Version: 6.00 Build 0)  -->
<!DOCTYPE svg PUBLIC "-//W3C//DTD SVG 1.1//EN" "http://www.w3.org/Graphics/SVG/1.1/DTD/svg11.dtd">
<svg version="1.1" id="Isolation_Mode" xmlns="http://www.w3.org/2000/svg" xmlns:xlink="http://www.w3.org/1999/xlink" x="0px"
	 y="0px" width="60.854px" height="57.615px" viewBox="0 0 60.854 57.615" enable-background="new 0 0 60.854 57.615"
	 xml:space="preserve">
<g>
	<path fill="#A4A3A3" d="M10.572,13.538h39.708c0.998,0,1.806-0.808,1.806-1.806c0-0.996-0.808-1.805-1.806-1.805H10.572
		c-0.997,0-1.805,0.809-1.805,1.805C8.767,12.73,9.575,13.538,10.572,13.538z"/>
	<path fill="#A4A3A3" d="M10.572,22.562h39.708c0.998,0,1.806-0.809,1.806-1.805s-0.808-1.805-1.806-1.805H10.572
		c-0.997,0-1.805,0.809-1.805,1.805S9.575,22.562,10.572,22.562z"/>
	<path fill="#A4A3A3" d="M52.086,29.783c0-0.998-0.808-1.806-1.806-1.806H10.572c-0.997,0-1.805,0.808-1.805,1.806
		c0,0.996,0.808,1.805,1.805,1.805h39.708C51.279,31.588,52.086,30.779,52.086,29.783z"/>
	<path fill="#A4A3A3" d="M1.547,39.71c0,0.997,0.808,1.806,1.805,1.806h12.635v9.024c0,0.705,0.411,1.345,1.051,1.64
		c0.241,0.111,0.499,0.165,0.754,0.165c0.423,0,0.842-0.148,1.175-0.435l12.127-10.395h26.407c0.996,0,1.805-0.809,1.805-1.806
		V1.806C59.306,0.809,58.498,0,57.501,0H3.352C2.355,0,1.547,0.809,1.547,1.806V39.71z M5.157,3.611h50.54v34.294h-25.27
		c-0.432,0-0.848,0.153-1.176,0.435l-9.655,8.275V39.71c0-0.997-0.808-1.805-1.805-1.805H5.157V3.611z"/>
</g>
</svg>
