<?xml version="1.0" encoding="utf-8"?>
<!-- Generator: Adobe Illustrator 16.0.0, SVG Export Plug-In . SVG Version: 6.00 Build 0)  -->
<!DOCTYPE svg PUBLIC "-//W3C//DTD SVG 1.1//EN" "http://www.w3.org/Graphics/SVG/1.1/DTD/svg11.dtd">
<svg version="1.1" id="Isolation_Mode" xmlns="http://www.w3.org/2000/svg" xmlns:xlink="http://www.w3.org/1999/xlink" x="0px"
	 y="0px" width="60.854px" height="57.615px" viewBox="0 0 60.854 57.615" enable-background="new 0 0 60.854 57.615"
	 xml:space="preserve">
<g>
	<path fill="#A4A3A3" d="M14.34,13.01h32.172c0.809,0,1.464-0.655,1.464-1.463c0-0.807-0.655-1.462-1.464-1.462H14.34
		c-0.807,0-1.462,0.655-1.462,1.462C12.877,12.355,13.532,13.01,14.34,13.01z"/>
	<path fill="#A4A3A3" d="M14.34,20.321h32.172c0.809,0,1.464-0.655,1.464-1.462s-0.655-1.462-1.464-1.462H14.34
		c-0.807,0-1.462,0.655-1.462,1.462S13.532,20.321,14.34,20.321z"/>
	<path fill="#A4A3A3" d="M47.976,26.172c0-0.809-0.655-1.463-1.464-1.463H14.34c-0.807,0-1.462,0.655-1.462,1.463
		c0,0.806,0.655,1.462,1.462,1.462h32.172C47.322,27.635,47.976,26.979,47.976,26.172z"/>
	<path fill="#A4A3A3" d="M7.028,34.215c0,0.809,0.654,1.464,1.462,1.464h10.237v7.312c0,0.571,0.333,1.089,0.852,1.329
		c0.195,0.09,0.404,0.133,0.611,0.133c0.343,0,0.682-0.119,0.952-0.352l9.825-8.423h21.396c0.807,0,1.462-0.655,1.462-1.464V3.504
		c0-0.808-0.654-1.463-1.462-1.463H8.49c-0.808,0-1.462,0.655-1.462,1.463V34.215z M9.953,4.967h40.948v27.786H30.427
		c-0.35,0-0.687,0.123-0.953,0.353l-7.823,6.704v-5.595c0-0.808-0.654-1.462-1.462-1.462H9.953V4.967z"/>
</g>
</svg>
