<?xml version="1.0" encoding="utf-8"?>
<!-- Generator: Adobe Illustrator 16.0.0, SVG Export Plug-In . SVG Version: 6.00 Build 0)  -->
<!DOCTYPE svg PUBLIC "-//W3C//DTD SVG 1.1//EN" "http://www.w3.org/Graphics/SVG/1.1/DTD/svg11.dtd">
<svg version="1.1" id="Layer_1" xmlns="http://www.w3.org/2000/svg" xmlns:xlink="http://www.w3.org/1999/xlink" x="0px" y="0px"
	 width="48px" height="39.053px" viewBox="0 0 48 39.053" enable-background="new 0 0 48 39.053" xml:space="preserve">
<g>
	<g>
		<path fill="#A5A5A5" d="M46.031,0.463H7.844c-0.811,0-1.469,0.654-1.469,1.461V6.31H1.97c-0.812,0-1.469,0.654-1.469,1.461v29.231
			c0,0.807,0.657,1.461,1.469,1.461h38.187c0.812,0,1.469-0.654,1.469-1.461v-4.385h4.406c0.812,0,1.469-0.654,1.469-1.461V1.925
			C47.5,1.118,46.843,0.463,46.031,0.463z M3.438,35.541v-5.242l8.74-8.697l9.248,10.518c0.469,0.531,1.252,0.654,1.86,0.289
			l6.436-3.842l8.177,6.975H3.438z M38.688,32.363l-7.856-6.701c-0.481-0.41-1.171-0.467-1.712-0.145l-6.291,3.756L13.355,18.5
			c-0.268-0.304-0.649-0.485-1.057-0.498c-0.404-0.011-0.799,0.141-1.087,0.427l-7.773,7.736V9.232h35.249V32.363z M44.562,29.693
			h-2.938V7.771c0-0.807-0.657-1.461-1.469-1.461H9.312V3.386h35.25V29.693z M30.609,22.387c2.834,0,5.141-2.295,5.141-5.116
			c0-2.82-2.307-5.116-5.141-5.116s-5.141,2.295-5.141,5.116C25.469,20.092,27.775,22.387,30.609,22.387z M30.609,15.079
			c1.215,0,2.203,0.983,2.203,2.192s-0.988,2.192-2.203,2.192s-2.203-0.983-2.203-2.192S29.395,15.079,30.609,15.079z"/>
	</g>
</g>
</svg>
