<?xml version="1.0" encoding="utf-8"?>
<!-- Generator: Adobe Illustrator 16.0.0, SVG Export Plug-In . SVG Version: 6.00 Build 0)  -->
<!DOCTYPE svg PUBLIC "-//W3C//DTD SVG 1.1//EN" "http://www.w3.org/Graphics/SVG/1.1/DTD/svg11.dtd">
<svg version="1.1" id="Isolation_Mode" xmlns="http://www.w3.org/2000/svg" xmlns:xlink="http://www.w3.org/1999/xlink" x="0px"
	 y="0px" width="57.417px" height="47.346px" viewBox="0 0 57.417 47.346" enable-background="new 0 0 57.417 47.346"
	 xml:space="preserve">
<g>
	<path fill="#A5A4A4" d="M6.944,39.726H15.8v5.905c0,0.813,0.662,1.474,1.476,1.474h23.617c0.815,0,1.476-0.66,1.476-1.474v-5.905
		h8.855c0.816,0,1.477-0.66,1.477-1.477V14.634c0-0.815-0.661-1.476-1.477-1.476h-8.855V1.35c0-0.815-0.661-1.476-1.476-1.476
		H17.276c-0.814,0-1.476,0.661-1.476,1.476v11.808H6.944c-0.814,0-1.476,0.661-1.476,1.476v23.615
		C5.468,39.065,6.13,39.726,6.944,39.726z M39.416,44.153H18.752v-14.76h20.664V44.153z M18.752,2.826h20.664v10.332H18.752V2.826z
		 M8.42,16.11h8.856h23.617h8.855v20.663h-7.38v-8.855c0-0.814-0.661-1.475-1.476-1.475H17.276c-0.814,0-1.476,0.661-1.476,1.475
		v8.855H8.42V16.11z"/>
	<path fill="#A5A4A4" d="M13.889,18.759c-0.546-0.554-1.535-0.554-2.082,0c-0.279,0.273-0.435,0.649-0.435,1.041
		c0,0.383,0.155,0.767,0.435,1.047c0.274,0.274,0.65,0.429,1.041,0.429c0.392,0,0.769-0.155,1.048-0.436
		c0.274-0.273,0.429-0.657,0.429-1.041C14.325,19.409,14.17,19.033,13.889,18.759z"/>
	<path fill="#A5A4A4" d="M17.276,21.276c0.393,0,0.769-0.155,1.041-0.436c0.281-0.273,0.436-0.657,0.436-1.041
		s-0.154-0.767-0.436-1.048c-0.546-0.546-1.535-0.546-2.082,0.007c-0.28,0.273-0.436,0.649-0.436,1.041
		c0,0.383,0.156,0.767,0.436,1.047C16.509,21.121,16.885,21.276,17.276,21.276z"/>
	<path fill="#A5A4A4" d="M36.464,32.345h-14.76c-0.814,0-1.477,0.662-1.477,1.477c0,0.816,0.662,1.478,1.477,1.478h14.76
		c0.815,0,1.477-0.661,1.477-1.478C37.94,33.007,37.279,32.345,36.464,32.345z"/>
	<path fill="#A5A4A4" d="M36.464,38.249h-14.76c-0.814,0-1.477,0.661-1.477,1.477c0,0.814,0.662,1.476,1.477,1.476h14.76
		c0.815,0,1.477-0.661,1.477-1.476C37.94,38.91,37.279,38.249,36.464,38.249z"/>
</g>
</svg>
