<?xml version="1.0" encoding="utf-8"?>
<!-- Generator: Adobe Illustrator 16.0.0, SVG Export Plug-In . SVG Version: 6.00 Build 0)  -->
<!DOCTYPE svg PUBLIC "-//W3C//DTD SVG 1.1//EN" "http://www.w3.org/Graphics/SVG/1.1/DTD/svg11.dtd">
<svg version="1.1" id="Isolation_Mode" xmlns="http://www.w3.org/2000/svg" xmlns:xlink="http://www.w3.org/1999/xlink" x="0px"
	 y="0px" width="57.417px" height="57.615px" viewBox="0 0 57.417 57.615" enable-background="new 0 0 57.417 57.615"
	 xml:space="preserve">
<g>
	<path fill="#A5A4A4" d="M11.989,46.64c3.229,0,6.1-1.541,7.936-3.917l13.895,5.118C34.406,51.883,37.883,55,42.083,55
		c4.609,0,8.36-3.75,8.36-8.36c0-4.608-3.75-8.358-8.36-8.358c-3.818,0-7.04,2.575-8.036,6.08l-12.535-4.618
		c0.326-0.987,0.509-2.038,0.509-3.135c0-2.107-0.657-4.063-1.772-5.68l15.443-9.266c2.101,2.004,4.938,3.243,8.063,3.243
		c6.454,0,11.703-5.25,11.703-11.703S50.208,1.5,43.755,1.5c-6.453,0-11.703,5.25-11.703,11.703c0,2.115,0.572,4.095,1.558,5.809
		l-15.771,9.463c-1.649-1.188-3.666-1.898-5.849-1.898c-5.531,0-10.031,4.502-10.031,10.031C1.958,42.141,6.458,46.64,11.989,46.64z
		 M42.083,41.624c2.766,0,5.016,2.251,5.016,5.016c0,2.767-2.25,5.016-5.016,5.016c-2.765,0-5.015-2.249-5.015-5.016
		C37.067,43.875,39.317,41.624,42.083,41.624z M43.755,4.844c4.609,0,8.359,3.75,8.359,8.359s-3.75,8.359-8.359,8.359
		c-4.609,0-8.359-3.75-8.359-8.359S39.146,4.844,43.755,4.844z M11.989,29.923c3.688,0,6.688,2.999,6.688,6.686
		c0,3.688-3,6.688-6.688,6.688s-6.688-3-6.688-6.688C5.302,32.922,8.302,29.923,11.989,29.923z"/>
</g>
</svg>
