<?xml version="1.0" encoding="utf-8"?>
<!-- Generator: Adobe Illustrator 16.0.0, SVG Export Plug-In . SVG Version: 6.00 Build 0)  -->
<!DOCTYPE svg PUBLIC "-//W3C//DTD SVG 1.1//EN" "http://www.w3.org/Graphics/SVG/1.1/DTD/svg11.dtd">
<svg version="1.1" id="Isolation_Mode" xmlns="http://www.w3.org/2000/svg" xmlns:xlink="http://www.w3.org/1999/xlink" x="0px"
	 y="0px" width="43.899px" height="47.346px" viewBox="0 0 43.899 47.346" enable-background="new 0 0 43.899 47.346"
	 xml:space="preserve">
<g>
	<g>
		<path fill="#A5A4A4" d="M42.105,5.673H1.793c-0.742,0-1.344,0.598-1.344,1.334V40.34c0,0.736,0.602,1.333,1.344,1.333h40.312
			c0.742,0,1.344-0.597,1.344-1.333V7.007C43.449,6.271,42.848,5.673,42.105,5.673z M40.762,39.006H3.137V16.34h37.625V39.006z
			 M40.762,13.673H3.137V8.34h37.625V13.673z M7.167,12.34c0.35,0,0.7-0.141,0.948-0.394c0.256-0.247,0.396-0.594,0.396-0.939
			c0-0.347-0.14-0.693-0.396-0.947c-0.497-0.493-1.397-0.493-1.901,0.007c-0.248,0.247-0.391,0.586-0.391,0.94
			c0,0.353,0.143,0.692,0.396,0.946C6.47,12.199,6.819,12.34,7.167,12.34z M11.199,12.34c0.35,0,0.7-0.141,0.954-0.394
			c0.25-0.247,0.39-0.594,0.39-0.939c0-0.347-0.14-0.693-0.396-0.947c-0.498-0.493-1.397-0.493-1.901,0.007
			c-0.248,0.247-0.391,0.594-0.391,0.94c0,0.346,0.143,0.692,0.396,0.946C10.501,12.199,10.85,12.34,11.199,12.34z M15.23,12.34
			c0.357,0,0.7-0.141,0.948-0.394c0.255-0.247,0.396-0.587,0.396-0.939c0-0.347-0.141-0.693-0.396-0.947
			c-0.498-0.493-1.397-0.493-1.902,0.007c-0.247,0.247-0.39,0.594-0.39,0.94c0,0.353,0.143,0.692,0.396,0.939
			C14.533,12.199,14.881,12.34,15.23,12.34z M7.167,21.673h14.109c0.743,0,1.344-0.597,1.344-1.333s-0.601-1.334-1.344-1.334H7.167
			c-0.741,0-1.344,0.598-1.344,1.334S6.426,21.673,7.167,21.673z M7.167,27.006h14.109c0.743,0,1.344-0.597,1.344-1.333
			s-0.601-1.333-1.344-1.333H7.167c-0.741,0-1.344,0.597-1.344,1.333S6.426,27.006,7.167,27.006z M7.167,32.34h14.109
			c0.743,0,1.344-0.597,1.344-1.333s-0.601-1.334-1.344-1.334H7.167c-0.741,0-1.344,0.598-1.344,1.334S6.426,32.34,7.167,32.34z
			 M26.652,32.34H36.73c0.742,0,1.344-0.597,1.344-1.333V20.34c0-0.736-0.602-1.334-1.344-1.334H26.652
			c-0.741,0-1.344,0.598-1.344,1.334v10.667C25.308,31.743,25.911,32.34,26.652,32.34z M27.996,21.673h7.391v8h-7.391V21.673z"/>
	</g>
</g>
</svg>
