<?xml version="1.0" encoding="utf-8"?>
<!-- Generator: Adobe Illustrator 16.0.0, SVG Export Plug-In . SVG Version: 6.00 Build 0)  -->
<!DOCTYPE svg PUBLIC "-//W3C//DTD SVG 1.1//EN" "http://www.w3.org/Graphics/SVG/1.1/DTD/svg11.dtd">
<svg version="1.1" id="Isolation_Mode" xmlns="http://www.w3.org/2000/svg" xmlns:xlink="http://www.w3.org/1999/xlink" x="0px"
	 y="0px" width="57.417px" height="47.346px" viewBox="0 0 57.417 47.346" enable-background="new 0 0 57.417 47.346"
	 xml:space="preserve">
<g>
	<path fill="#A5A4A4" d="M54.957,10.728c-0.538-0.299-1.197-0.281-1.72,0.045L42.27,17.627V12.21c0-0.936-0.76-1.694-1.695-1.694
		H36.19l-6.78-6.781H6.67c-0.936,0-1.695,0.76-1.695,1.696S5.734,7.125,6.67,7.125h21.335l3.391,3.391H3.28
		c-0.937,0-1.695,0.758-1.695,1.694v27.122c0,0.938,0.758,1.695,1.695,1.695h37.295c0.935,0,1.695-0.758,1.695-1.695v-5.416
		l10.968,6.854c0.274,0.174,0.586,0.258,0.898,0.258c0.282,0,0.566-0.07,0.821-0.211c0.54-0.299,0.874-0.867,0.874-1.484V12.21
		C55.831,11.595,55.497,11.027,54.957,10.728z M52.441,36.275L41.472,29.42c-0.523-0.328-1.181-0.344-1.72-0.045
		s-0.873,0.865-0.873,1.482v6.779H4.975V13.906h33.904v6.781c0,0.616,0.334,1.183,0.873,1.482c0.54,0.299,1.199,0.283,1.72-0.044
		l10.969-6.855V36.275z"/>
	<path fill="#A5A4A4" d="M8.366,20.687h3.391c0.936,0,1.695-0.759,1.695-1.695s-0.759-1.695-1.695-1.695H8.366
		c-0.936,0-1.695,0.759-1.695,1.695S7.43,20.687,8.366,20.687z"/>
	<path fill="#A5A4A4" d="M21.927,24.077H8.366c-0.936,0-1.695,0.758-1.695,1.694v6.782c0,0.936,0.759,1.695,1.695,1.695h13.561
		c0.936,0,1.695-0.76,1.695-1.695v-6.782C23.622,24.835,22.863,24.077,21.927,24.077z M20.232,30.857H10.061v-3.389h10.171V30.857z"
		/>
</g>
</svg>
