<?xml version="1.0" encoding="utf-8"?>
<!-- Generator: Adobe Illustrator 16.0.0, SVG Export Plug-In . SVG Version: 6.00 Build 0)  -->
<!DOCTYPE svg PUBLIC "-//W3C//DTD SVG 1.1//EN" "http://www.w3.org/Graphics/SVG/1.1/DTD/svg11.dtd">
<svg version="1.1" id="Layer_1" xmlns="http://www.w3.org/2000/svg" xmlns:xlink="http://www.w3.org/1999/xlink" x="0px" y="0px"
	 width="277.575px" height="66.752px" viewBox="0 0 277.575 66.752" enable-background="new 0 0 277.575 66.752"
	 xml:space="preserve">
<line fill="none" stroke="#FFFFFF" stroke-width="0.4375" stroke-miterlimit="10" x1="174.753" y1="0.478" x2="157.27" y2="65.74"/>
<path fill="#FFFFFF" d="M6.784,26.987c-0.975,0-1.927-0.022-2.856-0.063C3,26.881,2.025,26.811,1.001,26.716l3.535-13.195
	c0.99-0.097,1.921-0.167,2.793-0.208c0.872-0.041,1.731-0.062,2.574-0.062c2.144,0,3.63,0.31,4.458,0.932
	c0.828,0.621,1.062,1.592,0.708,2.918c-0.388,1.446-1.407,2.372-3.058,2.783l-0.021,0.071c0.848,0.168,1.43,0.522,1.75,1.059
	c0.32,0.536,0.366,1.23,0.137,2.087c-0.354,1.325-1.109,2.305-2.261,2.936C10.468,26.669,8.855,26.987,6.784,26.987 M7.485,24.167
	c0.711,0,1.264-0.115,1.657-0.354c0.395-0.234,0.659-0.604,0.795-1.112c0.136-0.505,0.077-0.856-0.177-1.055
	c-0.252-0.2-0.767-0.3-1.537-0.3H6.307l-0.736,2.748c0.069,0.012,0.141,0.023,0.216,0.035c0.075,0.013,0.179,0.022,0.311,0.027
	c0.13,0.007,0.304,0.01,0.521,0.01S7.124,24.167,7.485,24.167z M8.625,18.764c0.734,0,1.274-0.104,1.62-0.307
	c0.344-0.206,0.583-0.561,0.719-1.067c0.128-0.483,0.076-0.824-0.159-1.032c-0.233-0.204-0.707-0.305-1.417-0.305
	c-0.639,0-1.203,0.034-1.691,0.109l-0.698,2.603H8.625z"/>
<polyline fill="#FFFFFF" points="18.511,13.431 28.991,13.431 28.16,16.539 21.744,16.539 21.202,18.562 26.93,18.562 26.097,21.67 
	20.369,21.67 19.833,23.678 26.427,23.678 25.59,26.806 14.928,26.806 18.511,13.431 "/>
<path fill="#FFFFFF" d="M37.594,26.987c-0.977,0-1.928-0.022-2.857-0.063c-0.928-0.043-1.903-0.113-2.924-0.208l3.533-13.195
	c0.99-0.097,1.921-0.167,2.794-0.208c0.872-0.041,1.731-0.062,2.572-0.062c2.144,0,3.631,0.31,4.458,0.932
	c0.828,0.621,1.064,1.592,0.709,2.918c-0.388,1.446-1.407,2.372-3.058,2.783l-0.021,0.071c0.847,0.168,1.429,0.522,1.75,1.059
	c0.32,0.536,0.367,1.23,0.137,2.087c-0.354,1.325-1.109,2.305-2.258,2.936C41.277,26.669,39.666,26.987,37.594,26.987
	 M38.294,24.167c0.71,0,1.263-0.115,1.658-0.354c0.393-0.234,0.66-0.604,0.794-1.112c0.135-0.505,0.076-0.856-0.177-1.055
	c-0.253-0.2-0.767-0.3-1.537-0.3h-1.916l-0.735,2.748c0.068,0.012,0.141,0.023,0.216,0.035c0.074,0.013,0.177,0.022,0.309,0.027
	c0.13,0.007,0.304,0.01,0.521,0.01S37.933,24.167,38.294,24.167z M39.435,18.764c0.734,0,1.275-0.104,1.619-0.307
	c0.344-0.206,0.583-0.561,0.719-1.067c0.129-0.483,0.077-0.824-0.158-1.032c-0.234-0.204-0.707-0.305-1.418-0.305
	c-0.639,0-1.202,0.034-1.691,0.109l-0.697,2.603H39.435z"/>
<path fill="#FFFFFF" d="M52.013,26.987c-2.264,0-3.82-0.581-4.667-1.736c-0.847-1.156-0.968-2.862-0.365-5.113
	c0.611-2.279,1.647-3.995,3.115-5.151c1.465-1.159,3.331-1.737,5.597-1.737c2.252,0,3.804,0.581,4.654,1.743
	c0.851,1.163,0.974,2.879,0.367,5.145c-0.604,2.251-1.642,3.957-3.114,5.113C56.129,26.406,54.266,26.987,52.013,26.987
	 M52.876,23.769c0.542,0,1-0.052,1.377-0.153c0.376-0.104,0.704-0.287,0.979-0.552c0.276-0.265,0.516-0.631,0.72-1.104
	c0.204-0.469,0.406-1.076,0.605-1.822c0.195-0.724,0.311-1.323,0.348-1.8c0.035-0.476-0.011-0.854-0.141-1.129
	c-0.131-0.278-0.356-0.471-0.676-0.578c-0.322-0.109-0.74-0.164-1.258-0.164c-0.519,0-0.966,0.055-1.344,0.164
	c-0.38,0.107-0.708,0.3-0.986,0.578c-0.279,0.275-0.528,0.65-0.742,1.12c-0.217,0.472-0.424,1.072-0.62,1.809
	c-0.198,0.732-0.317,1.334-0.359,1.807c-0.042,0.469,0.004,0.839,0.135,1.109c0.132,0.274,0.36,0.457,0.682,0.562
	C51.919,23.717,52.344,23.769,52.876,23.769z"/>
<path fill="#FFFFFF" d="M67.372,26.987c-1.228,0-2.225-0.124-2.993-0.364c-0.767-0.239-1.34-0.597-1.718-1.076
	c-0.377-0.474-0.58-1.071-0.604-1.787c-0.026-0.719,0.09-1.558,0.349-2.522l2.102-7.843h4.064l-2.135,7.968
	c-0.203,0.76-0.169,1.35,0.097,1.763c0.27,0.417,0.837,0.625,1.705,0.625c0.879,0,1.562-0.208,2.046-0.625
	c0.484-0.413,0.829-1.003,1.033-1.763l2.135-7.968h4.066l-2.102,7.843c-0.258,0.964-0.592,1.803-1.001,2.522
	c-0.409,0.716-0.931,1.315-1.566,1.796s-1.399,0.841-2.294,1.076C69.664,26.869,68.603,26.987,67.372,26.987"/>
<polyline fill="#FFFFFF" points="80.039,13.431 83.238,13.431 86.52,19.323 87.202,20.823 87.381,20.823 89.363,13.431 
	92.904,13.431 89.322,26.806 86.124,26.806 82.973,21.096 82.163,19.395 81.984,19.395 79.997,26.806 76.456,26.806 80.039,13.431 
	"/>
<path fill="#FFFFFF" d="M96.154,27.004c-0.736,0-1.477-0.022-2.226-0.064c-0.745-0.043-1.394-0.099-1.941-0.171l3.568-13.321
	c1.173-0.061,2.162-0.109,2.966-0.146c0.805-0.036,1.507-0.053,2.112-0.053c1.372,0,2.515,0.133,3.426,0.398
	c0.91,0.263,1.607,0.673,2.092,1.227c0.485,0.556,0.759,1.269,0.827,2.142c0.067,0.875-0.061,1.914-0.384,3.12
	c-0.333,1.238-0.773,2.295-1.318,3.162c-0.545,0.868-1.234,1.576-2.067,2.124c-0.833,0.547-1.83,0.949-2.988,1.2
	C99.064,26.877,97.708,27.004,96.154,27.004 M98.654,23.804c0.544,0,1.01-0.053,1.399-0.162c0.391-0.109,0.732-0.302,1.025-0.588
	c0.292-0.283,0.543-0.66,0.753-1.129s0.413-1.066,0.606-1.787c0.189-0.711,0.3-1.304,0.33-1.772c0.03-0.469-0.034-0.847-0.194-1.13
	c-0.16-0.283-0.415-0.485-0.77-0.604c-0.354-0.121-0.819-0.182-1.396-0.182c-0.206,0-0.429,0.005-0.674,0.018
	c-0.244,0.012-0.562,0.031-0.954,0.055l-1.919,7.156c0.265,0.048,0.554,0.083,0.868,0.099
	C98.045,23.797,98.353,23.804,98.654,23.804z"/>
<polyline fill="#FFFFFF" points="110.504,13.431 114.571,13.431 111.821,23.695 117.313,23.695 116.481,26.806 106.921,26.806 
	110.504,13.431 "/>
<polyline fill="#FFFFFF" points="121.852,13.431 132.333,13.431 131.5,16.539 125.086,16.539 124.543,18.562 130.271,18.562 
	129.438,21.67 123.711,21.67 123.172,23.678 129.769,23.678 128.93,26.806 118.268,26.806 121.852,13.431 "/>
<path fill="#FFFFFF" d="M135.831,27.023c-0.387,0-0.796-0.012-1.229-0.036c-0.433-0.024-0.875-0.063-1.323-0.118
	c-0.451-0.054-0.896-0.116-1.334-0.179c-0.44-0.067-0.853-0.15-1.236-0.247l0.871-3.252c0.918,0.217,1.76,0.383,2.524,0.498
	c0.764,0.114,1.49,0.172,2.176,0.172c0.723,0,1.25-0.066,1.581-0.199c0.33-0.132,0.536-0.354,0.622-0.668
	c0.092-0.349-0.003-0.606-0.292-0.77c-0.287-0.162-0.775-0.291-1.459-0.386c-0.73-0.109-1.358-0.269-1.887-0.479
	c-0.527-0.213-0.942-0.493-1.243-0.849c-0.303-0.356-0.485-0.791-0.546-1.302c-0.062-0.512,0.002-1.124,0.191-1.835
	c0.349-1.302,1.123-2.315,2.323-3.038c1.199-0.72,2.704-1.083,4.51-1.083c0.314,0,0.621,0.009,0.923,0.026
	c0.302,0.02,0.625,0.048,0.97,0.091c0.344,0.042,0.715,0.097,1.115,0.162c0.397,0.068,0.845,0.153,1.346,0.261l-0.861,3.217
	c-0.288-0.094-0.597-0.179-0.927-0.251c-0.33-0.073-0.665-0.135-1.005-0.188c-0.341-0.055-0.679-0.099-1.015-0.129
	c-0.334-0.029-0.646-0.043-0.936-0.043c-1.29,0-2.013,0.295-2.171,0.882c-0.104,0.388-0.001,0.683,0.305,0.889
	c0.307,0.205,0.84,0.372,1.6,0.504c0.723,0.133,1.334,0.305,1.832,0.515c0.496,0.21,0.887,0.475,1.17,0.787
	c0.284,0.313,0.457,0.689,0.52,1.128c0.062,0.441,0.014,0.956-0.143,1.545C142.021,25.565,139.698,27.023,135.831,27.023"/>
<path fill="#FFFFFF" d="M148.387,27.023c-0.385,0-0.795-0.012-1.227-0.036c-0.435-0.024-0.875-0.063-1.326-0.118
	c-0.448-0.054-0.894-0.116-1.333-0.179c-0.439-0.067-0.851-0.15-1.234-0.247l0.87-3.252c0.918,0.217,1.759,0.383,2.525,0.498
	c0.763,0.114,1.489,0.172,2.177,0.172c0.721,0,1.249-0.066,1.58-0.199c0.329-0.132,0.537-0.354,0.62-0.668
	c0.095-0.349-0.002-0.606-0.29-0.77c-0.288-0.162-0.775-0.291-1.458-0.386c-0.73-0.109-1.36-0.269-1.888-0.479
	c-0.528-0.213-0.941-0.493-1.245-0.849c-0.303-0.356-0.484-0.791-0.545-1.302c-0.062-0.512,0.003-1.124,0.192-1.835
	c0.348-1.302,1.123-2.315,2.323-3.038c1.198-0.72,2.702-1.083,4.509-1.083c0.312,0,0.621,0.009,0.924,0.026
	c0.302,0.02,0.625,0.048,0.969,0.091c0.344,0.042,0.715,0.097,1.113,0.162c0.397,0.068,0.847,0.153,1.349,0.261l-0.863,3.217
	c-0.287-0.094-0.595-0.179-0.926-0.251c-0.329-0.073-0.666-0.135-1.005-0.188c-0.34-0.055-0.679-0.099-1.013-0.129
	c-0.337-0.029-0.65-0.043-0.937-0.043c-1.29,0-2.014,0.295-2.171,0.882c-0.104,0.388-0.002,0.683,0.305,0.889
	c0.306,0.205,0.839,0.372,1.598,0.504c0.725,0.133,1.336,0.305,1.833,0.515c0.498,0.21,0.888,0.475,1.172,0.787
	c0.283,0.313,0.456,0.689,0.52,1.128c0.062,0.441,0.015,0.956-0.143,1.545C154.579,25.565,152.255,27.023,148.387,27.023"/>
<polyline fill="#FFFFFF" points="42.87,34.659 48.208,34.659 48.026,35.338 43.498,35.338 42.635,38.562 46.769,38.562 
	46.587,39.241 42.453,39.241 41.397,43.178 40.588,43.178 42.87,34.659 "/>
<path fill="#FFFFFF" d="M51.114,43.293c-1.208,0-2.035-0.367-2.483-1.099c-0.446-0.734-0.477-1.822-0.09-3.265
	c0.388-1.442,1.002-2.535,1.842-3.275c0.842-0.74,1.868-1.111,3.075-1.111c1.191,0,2.011,0.371,2.46,1.111
	c0.449,0.74,0.481,1.833,0.095,3.275c-0.385,1.435-1,2.521-1.844,3.258C53.323,42.925,52.306,43.293,51.114,43.293 M51.297,42.614
	c0.959,0,1.767-0.309,2.421-0.927c0.654-0.618,1.145-1.537,1.472-2.757c0.331-1.235,0.334-2.163,0.011-2.78
	c-0.321-0.619-0.963-0.927-1.925-0.927c-0.961,0-1.772,0.309-2.43,0.927c-0.658,0.617-1.153,1.544-1.483,2.78
	c-0.329,1.228-0.331,2.149-0.002,2.763C49.689,42.307,50.335,42.614,51.297,42.614z"/>
<path fill="#FFFFFF" d="M61.16,39.909c-0.173,0.022-0.35,0.039-0.529,0.044c-0.182,0.01-0.371,0.012-0.571,0.012
	c-0.19,0-0.398-0.006-0.625-0.022c-0.226-0.015-0.459-0.034-0.698-0.057l-0.883,3.292h-0.809l2.266-8.461
	c0.754-0.115,1.468-0.173,2.144-0.173c1.35,0,2.275,0.214,2.776,0.645c0.5,0.429,0.625,1.116,0.372,2.061
	c-0.185,0.689-0.492,1.241-0.92,1.651c-0.427,0.411-1.002,0.702-1.722,0.87l1.316,3.408H62.37L61.16,39.909 M60.335,39.299
	c0.524,0,0.979-0.04,1.364-0.117c0.387-0.076,0.717-0.195,0.991-0.356c0.272-0.161,0.498-0.372,0.674-0.633
	c0.178-0.261,0.317-0.576,0.415-0.944c0.191-0.713,0.098-1.232-0.275-1.555c-0.375-0.322-1.081-0.482-2.122-0.482
	c-0.224,0-0.464,0.009-0.724,0.028c-0.259,0.019-0.492,0.044-0.699,0.074l-1.038,3.88c0.118,0.031,0.312,0.056,0.58,0.075
	C59.77,39.29,60.049,39.299,60.335,39.299z"/>
<polyline fill="#FFFFFF" points="69.621,34.659 70.466,34.659 70.54,40.657 70.537,42.314 70.607,42.314 71.504,40.657 
	74.888,34.659 75.746,34.659 75.867,40.657 75.887,42.314 75.958,42.314 76.843,40.657 80.167,34.659 81.013,34.659 76.239,43.178 
	75.155,43.178 75.018,37.191 75.043,35.764 74.984,35.764 74.242,37.204 70.878,43.178 69.78,43.178 69.621,34.659 "/>
<path fill="#FFFFFF" d="M79.092,43.11l5.506-8.451h1.227l0.978,8.451l-0.019,0.068h-0.798l-0.325-2.659H81.61l-1.737,2.659h-0.798
	L79.092,43.11 M85.621,39.828l-0.376-3.132l-0.162-1.438h-0.073l-0.921,1.438l-2.055,3.132H85.621z"/>
<path fill="#FFFFFF" d="M90.481,43.305c-0.382,0-0.806-0.033-1.273-0.098s-0.904-0.152-1.313-0.259l0.206-0.679
	c0.409,0.108,0.842,0.194,1.302,0.26c0.459,0.066,0.872,0.097,1.236,0.097c0.724,0,1.313-0.135,1.773-0.408
	c0.458-0.272,0.754-0.662,0.891-1.167c0.076-0.284,0.083-0.523,0.025-0.72c-0.059-0.196-0.167-0.36-0.326-0.495
	c-0.159-0.135-0.356-0.251-0.592-0.346c-0.237-0.096-0.495-0.185-0.774-0.271c-0.426-0.13-0.781-0.27-1.067-0.419
	c-0.286-0.149-0.506-0.321-0.661-0.512c-0.155-0.192-0.248-0.412-0.277-0.656c-0.03-0.247-0.001-0.529,0.084-0.853
	c0.093-0.345,0.247-0.659,0.462-0.944c0.214-0.283,0.476-0.528,0.785-0.731c0.309-0.203,0.655-0.358,1.042-0.466
	c0.387-0.108,0.803-0.161,1.248-0.161c0.636,0,1.354,0.091,2.154,0.275l-0.208,0.69c-0.349-0.091-0.706-0.162-1.069-0.212
	c-0.364-0.05-0.701-0.075-1.011-0.075c-0.65,0-1.209,0.146-1.672,0.438c-0.464,0.292-0.761,0.684-0.892,1.175
	c-0.06,0.223-0.077,0.421-0.052,0.593c0.025,0.173,0.101,0.33,0.225,0.474c0.125,0.141,0.304,0.269,0.541,0.384
	c0.234,0.116,0.536,0.226,0.905,0.333c0.345,0.108,0.662,0.223,0.95,0.346c0.289,0.124,0.525,0.275,0.711,0.46
	c0.184,0.183,0.31,0.409,0.373,0.674c0.064,0.265,0.044,0.593-0.062,0.985c-0.197,0.736-0.61,1.302-1.242,1.698
	C92.272,43.107,91.465,43.305,90.481,43.305"/>
<polyline fill="#FFFFFF" points="97.861,34.659 98.672,34.659 97.648,38.482 102.808,38.482 103.832,34.659 104.63,34.659 
	102.347,43.178 101.549,43.178 102.628,39.149 97.468,39.149 96.389,43.178 95.579,43.178 97.861,34.659 "/>
<polyline fill="#FFFFFF" points="107.263,34.659 108.073,34.659 105.791,43.178 104.981,43.178 107.263,34.659 "/>
<polyline fill="#FFFFFF" points="110.707,34.659 111.434,34.659 114.479,40.945 114.924,41.958 114.982,41.958 116.939,34.659 
	117.69,34.659 115.406,43.178 114.667,43.178 111.603,36.87 111.187,35.892 111.126,35.892 109.174,43.178 108.424,43.178 
	110.707,34.659 "/>
<path fill="#FFFFFF" d="M121.538,43.282c-2.656-0.016-3.599-1.463-2.828-4.339c0.785-2.932,2.544-4.398,5.277-4.398
	c0.334,0,0.674,0.025,1.023,0.075c0.348,0.051,0.7,0.121,1.056,0.214l-0.185,0.689c-0.223-0.053-0.425-0.097-0.601-0.132
	c-0.178-0.033-0.346-0.062-0.508-0.086c-0.161-0.022-0.314-0.039-0.464-0.045c-0.147-0.007-0.302-0.012-0.461-0.012
	c-1.127,0-2.042,0.3-2.745,0.904c-0.7,0.603-1.22,1.53-1.555,2.781c-0.654,2.44,0.072,3.658,2.177,3.658
	c0.199,0,0.449-0.014,0.751-0.044c0.303-0.031,0.587-0.07,0.854-0.115l0.96-3.581h0.774l-1.095,4.087
	c-0.41,0.106-0.834,0.192-1.271,0.252C122.258,43.251,121.873,43.282,121.538,43.282"/>
<polyline fill="#FFFFFF" points="130.304,35.339 127.396,35.339 127.579,34.659 134.216,34.659 134.034,35.339 131.115,35.339 
	129.015,43.178 128.204,43.178 130.304,35.339 "/>
<path fill="#FFFFFF" d="M136.443,43.293c-1.207,0-2.035-0.367-2.482-1.099c-0.447-0.732-0.478-1.822-0.09-3.263
	c0.385-1.444,1-2.536,1.842-3.275c0.841-0.74,1.866-1.112,3.074-1.112c1.191,0,2.01,0.372,2.461,1.112
	c0.448,0.74,0.479,1.832,0.093,3.275c-0.385,1.434-1,2.52-1.845,3.257C138.653,42.925,137.633,43.293,136.443,43.293
	 M136.625,42.614c0.961,0,1.77-0.309,2.422-0.927c0.655-0.618,1.145-1.535,1.472-2.755c0.33-1.237,0.334-2.165,0.011-2.781
	c-0.322-0.618-0.964-0.927-1.926-0.927c-0.961,0-1.771,0.31-2.429,0.927c-0.658,0.617-1.153,1.544-1.483,2.781
	c-0.329,1.227-0.329,2.147-0.001,2.762C135.018,42.308,135.663,42.614,136.625,42.614z"/>
<polyline fill="#FFFFFF" points="144.655,34.659 145.381,34.659 148.427,40.945 148.872,41.958 148.93,41.958 150.887,34.659 
	151.638,34.659 149.354,43.178 148.615,43.178 145.551,36.87 145.135,35.892 145.074,35.892 143.122,43.178 142.372,43.178 
	144.655,34.659 "/>
<polyline fill="#FFFFFF" points="178.899,34.659 184.236,34.659 184.053,35.339 179.525,35.339 178.662,38.562 182.798,38.562 
	182.615,39.241 178.48,39.241 177.425,43.178 176.615,43.178 178.899,34.659 "/>
<path fill="#FFFFFF" d="M187.143,43.293c-1.208,0-2.035-0.367-2.483-1.099c-0.446-0.732-0.477-1.822-0.09-3.263
	c0.387-1.444,1.001-2.536,1.843-3.275c0.84-0.74,1.866-1.112,3.073-1.112c1.191,0,2.012,0.372,2.461,1.112
	c0.449,0.74,0.48,1.832,0.095,3.275c-0.386,1.434-1,2.52-1.846,3.257C189.353,42.925,188.333,43.293,187.143,43.293 M187.324,42.614
	c0.961,0,1.77-0.309,2.422-0.927c0.654-0.618,1.144-1.535,1.471-2.755c0.332-1.237,0.336-2.165,0.012-2.781
	c-0.323-0.618-0.965-0.927-1.926-0.927c-0.961,0-1.771,0.31-2.429,0.927c-0.657,0.617-1.153,1.544-1.484,2.781
	c-0.328,1.227-0.329,2.147,0,2.762C185.718,42.308,186.363,42.614,187.324,42.614z"/>
<path fill="#FFFFFF" d="M197.188,39.909c-0.174,0.022-0.35,0.039-0.531,0.044c-0.181,0.01-0.371,0.013-0.569,0.013
	c-0.19,0-0.4-0.008-0.625-0.022c-0.226-0.017-0.459-0.036-0.699-0.059l-0.882,3.292h-0.811l2.266-8.46
	c0.754-0.116,1.469-0.174,2.144-0.174c1.351,0,2.276,0.216,2.777,0.645c0.501,0.43,0.624,1.117,0.371,2.061
	c-0.185,0.691-0.491,1.241-0.918,1.651c-0.429,0.412-1.003,0.702-1.723,0.87l1.316,3.408h-0.906L197.188,39.909 M196.362,39.299
	c0.525,0,0.98-0.04,1.367-0.117c0.385-0.075,0.715-0.194,0.989-0.356c0.273-0.161,0.498-0.371,0.676-0.633
	c0.177-0.261,0.315-0.576,0.414-0.944c0.19-0.712,0.099-1.232-0.275-1.554c-0.375-0.323-1.083-0.483-2.122-0.483
	c-0.223,0-0.463,0.009-0.723,0.03c-0.26,0.018-0.492,0.043-0.699,0.073l-1.04,3.881c0.119,0.031,0.312,0.055,0.583,0.075
	C195.799,39.29,196.076,39.299,196.362,39.299z"/>
<polyline fill="#FFFFFF" points="208.302,35.339 205.395,35.339 205.576,34.659 212.214,34.659 212.032,35.339 209.112,35.339 
	207.012,43.178 206.203,43.178 208.302,35.339 "/>
<polyline fill="#FFFFFF" points="213.93,34.659 214.742,34.659 213.716,38.482 218.876,38.482 219.9,34.659 220.698,34.659 
	218.416,43.179 217.618,43.179 218.697,39.149 213.537,39.149 212.458,43.179 211.648,43.179 213.93,34.659 "/>
<polyline fill="#FFFFFF" points="223.333,34.659 228.729,34.659 228.547,35.339 223.959,35.339 223.109,38.516 227.41,38.516 
	227.231,39.184 222.93,39.184 222.041,42.5 226.724,42.5 226.542,43.179 221.049,43.179 223.333,34.659 "/>
<polyline fill="#FFFFFF" points="233.09,34.659 233.937,34.659 234.01,40.657 234.007,42.314 234.078,42.314 234.975,40.657 
	238.357,34.659 239.215,34.659 239.335,40.657 239.356,42.314 239.428,42.314 240.313,40.657 243.636,34.659 244.482,34.659 
	239.709,43.179 238.625,43.179 238.489,37.191 238.514,35.764 238.454,35.764 237.711,37.204 234.347,43.179 233.251,43.179 
	233.09,34.659 "/>
<path fill="#FFFFFF" d="M247.114,43.293c-1.207,0-2.035-0.367-2.482-1.099c-0.447-0.732-0.477-1.822-0.09-3.263
	c0.387-1.444,1.001-2.536,1.842-3.275c0.842-0.74,1.867-1.111,3.074-1.111c1.192,0,2.011,0.371,2.461,1.111
	c0.449,0.74,0.48,1.832,0.094,3.275c-0.384,1.434-1,2.52-1.845,3.257C249.324,42.925,248.305,43.293,247.114,43.293 M247.296,42.615
	c0.96,0,1.769-0.31,2.421-0.927c0.655-0.619,1.145-1.536,1.473-2.756c0.331-1.237,0.334-2.165,0.011-2.781
	c-0.323-0.618-0.965-0.927-1.926-0.927c-0.961,0-1.772,0.31-2.429,0.927c-0.658,0.617-1.153,1.544-1.484,2.781
	c-0.329,1.227-0.329,2.148-0.001,2.762C245.69,42.308,246.335,42.615,247.296,42.615z"/>
<path fill="#FFFFFF" d="M257.16,39.909c-0.173,0.023-0.35,0.039-0.53,0.045c-0.183,0.009-0.372,0.012-0.57,0.012
	c-0.19,0-0.399-0.008-0.625-0.022c-0.227-0.017-0.46-0.036-0.699-0.059l-0.882,3.293h-0.811l2.267-8.461
	c0.753-0.116,1.468-0.173,2.144-0.173c1.35,0,2.275,0.215,2.776,0.644c0.5,0.43,0.624,1.117,0.372,2.061
	c-0.186,0.691-0.492,1.241-0.92,1.652c-0.427,0.411-1.002,0.7-1.722,0.87l1.316,3.408h-0.906L257.16,39.909 M256.334,39.299
	c0.525,0,0.98-0.039,1.365-0.116c0.386-0.076,0.717-0.195,0.989-0.357c0.273-0.161,0.5-0.371,0.676-0.633
	c0.177-0.261,0.315-0.576,0.414-0.944c0.192-0.712,0.099-1.232-0.274-1.554c-0.375-0.323-1.083-0.483-2.123-0.483
	c-0.222,0-0.463,0.009-0.722,0.03c-0.26,0.019-0.492,0.043-0.699,0.074l-1.04,3.88c0.119,0.031,0.313,0.055,0.582,0.075
	C255.771,39.29,256.049,39.299,256.334,39.299z"/>
<polyline fill="#FFFFFF" points="263.5,34.659 264.31,34.659 262.207,42.511 266.293,42.511 266.115,43.179 261.216,43.179 
	263.5,34.659 "/>
<path fill="#FFFFFF" d="M269.917,43.305c-0.454,0-0.871-0.013-1.252-0.04c-0.382-0.028-0.665-0.07-0.847-0.133l2.264-8.449
	c0.178-0.016,0.378-0.03,0.597-0.046c0.218-0.015,0.434-0.029,0.647-0.04c0.214-0.012,0.421-0.021,0.621-0.03
	c0.202-0.008,0.373-0.011,0.515-0.011c1.534,0,2.563,0.352,3.091,1.054c0.528,0.702,0.588,1.805,0.185,3.31
	c-0.405,1.511-1.072,2.621-2.005,3.327C272.802,42.952,271.529,43.305,269.917,43.305 M270.302,42.626
	c1.248,0,2.242-0.297,2.986-0.892c0.744-0.595,1.286-1.533,1.629-2.815c0.342-1.274,0.305-2.205-0.109-2.792
	s-1.237-0.881-2.468-0.881c-0.223,0-0.487,0.007-0.793,0.023s-0.583,0.039-0.829,0.069l-1.92,7.172
	c0.143,0.023,0.277,0.043,0.401,0.058c0.122,0.016,0.242,0.027,0.36,0.034c0.118,0.008,0.237,0.015,0.359,0.017
	C270.038,42.624,270.167,42.626,270.302,42.626z"/>
</svg>
