<?xml version="1.0" encoding="utf-8"?>
<!-- Generator: Adobe Illustrator 16.0.0, SVG Export Plug-In . SVG Version: 6.00 Build 0)  -->
<!DOCTYPE svg PUBLIC "-//W3C//DTD SVG 1.1//EN" "http://www.w3.org/Graphics/SVG/1.1/DTD/svg11.dtd">
<svg version="1.1" id="Layer_1" xmlns="http://www.w3.org/2000/svg" xmlns:xlink="http://www.w3.org/1999/xlink" x="0px" y="0px"
	 width="30.281px" height="100.016px" viewBox="0 0 30.281 100.016" enable-background="new 0 0 30.281 100.016"
	 xml:space="preserve">
<g>
	<polygon fill="#D1D3D4" points="0.167,0 0,0.608 0,4.263 1.174,0 	"/>
	<polygon fill="#D1D3D4" points="5.213,0 0,18.935 0,22.59 6.22,0 	"/>
	<polygon fill="#D1D3D4" points="10.259,0 0,37.261 0,40.916 11.266,0 	"/>
	<polygon fill="#D1D3D4" points="15.306,0 0,55.588 0,59.243 16.312,0 	"/>
	<polygon fill="#D1D3D4" points="20.351,0 0,73.916 0,77.57 21.358,0 	"/>
	<polygon fill="#D1D3D4" points="25.397,0 0,92.238 0,95.894 26.403,0 	"/>
	<polygon fill="#D1D3D4" points="30.273,4.27 30.273,0.615 2.909,100 3.916,100 	"/>
	<polygon fill="#D1D3D4" points="8.96,100 30.273,22.593 30.273,18.938 7.954,100 	"/>
	<polygon fill="#D1D3D4" points="14.007,100 30.273,40.92 30.273,37.265 13,100 	"/>
	<polygon fill="#D1D3D4" points="19.052,100 30.273,59.245 30.273,55.59 18.046,100 	"/>
	<polygon fill="#D1D3D4" points="24.099,100 30.273,77.573 30.273,73.918 23.092,100 	"/>
	<polygon fill="#D1D3D4" points="29.144,100 30.273,95.897 30.273,92.242 28.138,100 	"/>
</g>
</svg>
